<?xml version="1.0" encoding="UTF-8" standalone="no"?>
<!-- Created with Inkscape (http://www.inkscape.org/) -->
<svg
   xmlns:svg="http://www.w3.org/2000/svg"
   xmlns="http://www.w3.org/2000/svg"
   version="1.0"
   width="338.9686"
   height="390.22736"
   id="svg2">
  <defs
     id="defs4" />
  <g
     transform="translate(-365.3956,-461.14833)"
     id="layer1">
    <path
       d="M 517.251,842.51277 L 502.37,833.51261 L 502.2062,825.28919 L 502.0428,817.06597 L 458.737,791.71381 C 434.919,777.77015 414.0162,765.55709 412.2866,764.57359 L 409.1416,762.78563 L 401.395,766.13253 L 393.648,769.47953 L 379.6672,760.73399 L 365.6864,751.98871 L 365.541,734.58735 L 365.3956,717.18603 L 372.0168,713.22687 L 378.6384,709.26769 L 378.6384,653.12115 L 378.6384,596.97461 L 372.2926,594.32159 L 365.9466,591.66859 L 366.0922,574.59345 L 366.2376,557.51829 L 381.3216,549.07509 L 396.4056,540.63189 L 404.1348,543.68337 L 411.8646,546.73481 L 459.4462,520.45121 L 507.028,494.16761 L 507.179,485.66791 L 507.3304,477.16819 L 517.5266,471.68693 C 523.1344,468.67223 529.878,465.06775 532.5122,463.67697 L 537.3016,461.14833 L 551.113,469.28073 L 564.9248,477.41313 L 564.936,485.20603 L 564.9474,492.99897 L 613.7322,521.51403 L 662.517,550.02909 L 668.6306,545.94401 L 674.744,541.85889 L 689.5542,551.74205 L 704.3642,561.62521 L 704.359,576.91419 L 704.3536,592.20315 L 697.7452,596.78881 L 691.1368,601.37445 L 691.1536,657.13805 L 691.1704,712.90159 L 696.665,716.69725 L 702.1596,720.49293 L 702.1596,738.28711 L 702.1596,756.08127 L 687.3562,764.13517 L 672.553,772.18905 L 665.4484,768.31557 C 661.5408,766.18509 658.0956,764.44083 657.7926,764.43923 C 657.4894,764.43761 635.788,776.42593 609.5676,791.08001 L 561.8936,817.72351 L 561.7206,825.93733 L 561.548,834.15107 L 547.453,842.69367 C 539.701,847.39205 533.0822,851.29853 532.7452,851.37463 C 532.4078,851.45071 525.4354,847.46281 517.251,842.51277 z M 545.7066,840.34621 L 558.5866,832.48733 L 558.8624,824.22605 L 559.1378,815.96461 L 608.4104,788.43771 L 657.683,760.91101 L 660.769,762.54465 C 662.4664,763.44295 665.8392,765.24965 668.2642,766.55913 L 672.6736,768.94035 L 686.0386,761.59757 L 699.404,754.25475 L 699.404,738.17217 L 699.404,722.08957 L 693.6198,718.04671 L 687.8356,714.00383 L 687.9704,657.00645 L 688.1054,600.00905 L 694.857,595.29413 L 701.6084,590.57925 L 701.6084,576.92955 L 701.6084,563.27985 L 688.3894,554.45607 C 681.119,549.60301 674.9104,545.63229 674.5924,545.63229 C 674.2746,545.63229 671.4258,547.36901 668.2622,549.49159 L 662.51,553.35091 L 612.3422,524.00163 L 562.1748,494.65239 L 562.172,486.87035 L 562.169,479.08833 L 549.8492,471.85195 C 543.073,467.87195 537.3654,464.61555 537.1656,464.61555 C 536.9662,464.61555 530.7294,467.86643 523.3066,471.83969 L 509.8104,479.06381 L 509.8104,487.48371 L 509.8104,495.90359 L 460.955,522.89991 L 412.099,549.89625 L 406.5294,547.70615 C 403.466,546.50159 399.9676,545.14229 398.755,544.68541 L 396.5506,543.85477 L 382.7718,551.55601 L 368.9934,559.25727 L 368.9934,574.54329 L 368.9934,589.82929 L 375.3314,592.47871 L 381.6698,595.12813 L 381.8098,652.91987 L 381.9502,710.71157 L 375.0502,714.83397 L 368.1502,718.95637 L 368.2962,734.64685 L 368.4422,750.33731 L 380.5672,757.96669 C 387.2362,762.16301 393.0096,765.73569 393.3972,765.90621 C 393.7852,766.07677 397.3814,764.78181 401.389,763.02851 C 405.3968,761.27543 408.955,759.84079 409.296,759.84047 C 409.637,759.84019 431.2674,772.34383 457.3636,787.62617 L 504.8106,815.41249 L 504.9682,823.59595 L 505.1258,831.77927 L 518.6288,839.97911 C 526.0554,844.48909 532.2882,848.18483 532.4794,848.19197 C 532.6704,848.19921 538.623,844.66851 545.7066,840.34621 z M 521.1088,836.08461 L 510.0862,829.48007 L 509.8104,821.13851 L 509.535,812.79713 L 460.2074,783.88325 C 433.0776,767.98069 410.57,754.83995 410.1912,754.68187 C 409.8122,754.52353 406.8358,755.56869 403.5776,757.00405 C 400.3188,758.43943 396.881,759.94309 395.9376,760.34545 C 394.2512,761.06475 394.0456,760.96693 383.8124,754.57501 L 373.4024,748.07277 L 373.2682,734.62071 L 373.1344,721.16861 L 379.7332,717.31065 L 386.3322,713.45271 L 386.3432,652.73911 L 386.3544,592.02551 L 380.0162,589.38835 L 373.678,586.75119 L 373.6866,574.32101 L 373.6952,561.89075 L 385.104,555.58217 C 391.3788,552.11247 396.8934,549.30781 397.3584,549.34965 C 397.8236,549.39147 401.4044,550.68865 405.3158,552.23227 L 412.4278,555.03885 L 437.8334,541.00511 C 451.8064,533.28653 474.6474,520.65883 488.5916,512.94359 L 513.944,498.91581 L 514.0954,490.38811 L 514.2468,481.86041 L 521.2604,478.11991 C 525.1176,476.06267 530.258,473.31721 532.683,472.01891 L 537.0922,469.65839 L 547.0126,475.55867 L 556.9332,481.45893 L 557.2088,489.37687 L 557.4844,497.29481 L 610.077,528.02497 L 662.6696,558.75515 L 668.342,554.94939 C 671.4618,552.85625 674.2754,551.14365 674.5944,551.14365 C 674.9132,551.14365 680.0058,554.37087 685.9112,558.31525 L 696.6482,565.48687 L 696.6482,576.98579 L 696.6482,588.48469 L 690.0344,593.07539 L 683.4208,597.66611 L 683.4208,657.03737 L 683.4208,716.40861 L 689.0698,720.45303 L 694.719,724.49745 L 694.8536,737.98921 L 694.9882,751.48097 L 684.0778,757.40571 C 678.077,760.66415 672.9092,763.33039 672.5932,763.33039 C 672.277,763.33039 668.8282,761.58725 664.9288,759.45691 L 657.839,755.58317 L 634.1166,768.80279 C 621.0694,776.07337 597.7454,789.07833 582.2858,797.70269 L 554.1774,813.38295 L 554.0258,821.66075 L 553.8738,829.93863 L 543.4012,836.31621 C 537.6414,839.82389 532.7494,842.69261 532.5304,842.69137 C 532.311,842.69009 527.1716,839.71715 521.1088,836.08461 z M 541.988,833.83279 L 551.118,828.27871 L 551.2698,819.96409 L 551.4218,811.64951 L 604.5746,781.99227 L 657.7274,752.33493 L 663.5468,755.45063 C 666.7478,757.16419 670.0636,758.98755 670.9156,759.50209 L 672.4648,760.43803 L 682.214,755.12259 L 691.9634,749.80699 L 692.1126,738.31365 C 692.2182,730.18219 692.074,726.59417 691.62,726.04713 C 691.2672,725.62187 688.6578,723.65607 685.8216,721.67871 L 680.6652,718.08349 L 680.6702,657.07229 L 680.6756,596.06109 L 687.284,591.47543 L 693.8924,586.88979 L 693.8924,577.00991 L 693.8924,567.12997 L 684.2508,560.70519 L 674.6094,554.28039 L 670.0588,557.30109 C 667.5562,558.96247 664.8854,560.72679 664.1236,561.22185 C 662.7512,562.11371 662.2452,561.83357 608.7336,530.56179 L 554.7286,499.00165 L 554.4532,491.09921 L 554.1774,483.19679 L 545.6348,478.08487 L 537.0922,472.97293 L 530.4128,476.50257 C 526.7394,478.44385 522.2752,480.85167 520.4924,481.85325 L 517.251,483.67435 L 516.9754,492.17787 L 516.6998,500.68143 L 464.702,529.43281 L 412.704,558.18423 L 407.1074,555.98365 C 404.0292,554.77331 400.5188,553.41165 399.3062,552.95767 L 397.1016,552.13229 L 386.9056,557.85701 L 376.7094,563.58177 L 376.7094,574.23223 L 376.7094,584.88269 L 382.898,587.44067 L 389.0866,589.99859 L 389.0984,652.55539 L 389.1102,715.11213 L 382.6342,718.99697 L 376.1584,722.88181 L 376.0096,734.51373 L 375.8612,746.14561 L 385.1838,751.98925 L 394.5062,757.83281 L 402.1994,754.47591 L 409.8924,751.11913 L 461.0914,781.11349 L 512.2908,811.10791 L 512.4426,819.32271 L 512.5944,827.53741 L 522.3536,833.46227 C 527.721,836.72089 532.2802,839.38697 532.4852,839.38697 C 532.6898,839.38697 536.9662,836.88757 541.988,833.83279 z M 524.416,829.42487 L 517.251,825.06555 L 516.9754,816.67543 L 516.6998,808.28517 L 463.79,777.28315 C 434.6896,760.23197 410.5082,746.27937 410.0536,746.27747 C 409.5988,746.27559 405.9886,747.71105 402.0312,749.46739 L 394.8358,752.66077 L 387.7016,748.18695 L 380.5672,743.71319 L 380.4316,734.64543 L 380.2962,725.57769 L 387.8722,721.65447 L 395.4482,717.73127 L 395.4482,652.27399 L 395.4482,586.81675 L 389.3856,584.26147 L 383.323,581.70623 L 383.1698,574.15403 L 383.0166,566.60185 L 387.5788,563.66443 C 390.0884,562.04885 392.9296,560.26383 393.8932,559.69769 L 395.645,558.66839 L 403.0912,561.56655 C 407.1864,563.16053 410.8812,564.38161 411.3018,564.28001 C 411.723,564.17843 436.7876,550.37687 467.0014,533.60989 L 521.9356,503.12447 L 521.9356,494.66161 L 521.9356,486.19875 L 529.2102,482.29631 C 533.211,480.14999 536.621,478.39793 536.7882,478.40281 C 536.9554,478.40771 539.9442,480.09119 543.4302,482.14389 L 549.7682,485.87603 L 550.0442,493.84659 L 550.3196,501.81713 L 606.6276,534.67951 L 662.9356,567.54189 L 668.7676,563.67313 L 674.5996,559.80433 L 682.0304,564.70547 L 689.4608,569.60667 L 689.4494,577.04697 L 689.4378,584.48729 L 682.709,589.18379 L 675.9802,593.88033 L 675.84,657.03507 L 675.7,720.18985 L 681.4894,724.22419 L 687.2786,728.25855 L 687.2786,737.66885 L 687.2786,747.07913 L 679.976,751.10039 L 672.6736,755.12179 L 668.5398,752.86467 C 666.2664,751.62341 662.8822,749.83375 661.0196,748.88787 L 657.633,747.16805 L 635.3914,759.54889 C 623.1586,766.35849 598.2164,780.22531 579.9646,790.36431 L 546.7794,808.79891 L 546.7582,817.15189 L 546.737,825.50461 L 539.9148,829.69021 C 536.1626,831.99219 532.7522,833.85505 532.3366,833.82987 C 531.9208,833.80479 528.3564,831.82255 524.416,829.42487 z M 538.4442,827.22385 L 543.9814,823.87889 L 543.9876,815.51225 L 543.9938,807.14549 L 598.8668,776.55761 C 629.0472,759.73423 654.6888,745.49895 655.8482,744.92369 L 657.956,743.87773 L 665.2394,747.86061 L 672.523,751.84341 L 675.6294,750.17397 C 677.338,749.25579 680.0358,747.81015 681.625,746.96151 L 684.5136,745.41851 L 684.5184,737.63925 L 684.523,729.86001 L 678.7338,725.82569 L 672.9444,721.79139 L 673.0846,657.01583 L 673.2246,592.24027 L 679.9798,587.53707 L 686.7352,582.83389 L 686.5936,577.04697 L 686.452,571.26005 L 680.5368,567.24549 L 674.6218,563.23095 L 668.8666,567.09209 L 663.1116,570.95323 L 605.2202,537.21189 L 547.3288,503.47053 L 547.3086,495.64219 L 547.2882,487.81383 L 542.0366,484.68003 C 538.061,482.30757 536.5462,481.66543 535.8008,482.03683 C 535.2596,482.30665 532.5444,483.74621 529.7674,485.23583 L 524.7184,487.94425 L 524.567,496.45665 L 524.416,504.96903 L 467.9808,536.32337 C 436.9414,553.56823 411.3664,567.67767 411.1476,567.67767 C 410.9286,567.67767 407.3936,566.34973 403.2922,564.72669 L 395.8352,561.77569 L 390.8192,565.00305 L 385.803,568.23041 L 385.803,573.93189 L 385.803,579.63341 L 392.2792,582.38585 L 398.755,585.13833 L 398.895,652.14873 L 399.0352,719.15917 L 391.179,723.21523 L 383.323,727.27127 L 383.323,734.65699 L 383.323,742.04271 L 389.1762,745.73655 L 395.029,749.43043 L 402.4034,746.15017 C 408.0252,743.64949 410.0724,742.97627 411.0172,743.31749 C 411.6988,743.56369 436.4268,757.90175 465.9688,775.17969 L 519.6814,806.59447 L 519.7062,814.87125 L 519.7312,823.14787 L 525.9314,826.85423 C 529.3418,828.89275 532.3062,830.56225 532.5196,830.56451 C 532.7328,830.56683 535.399,829.06349 538.4442,827.22385 z"
       id="path3289"
       style="fill:#000000;fill-opacity:1" />
    <path
       d="M 583.9976,722.73377 L 534.7078,687.49881 L 485.3256,722.60451 L 503.6048,664.83883 L 454.9574,628.72199 L 515.5444,628.25583 L 534.8606,570.82871 L 554.0264,628.30625 L 614.6116,628.93113 L 565.87,664.92041 L 583.9976,722.73377 z"
       id="path2413"
       style="fill:#000000;fill-opacity:1;stroke:none;stroke-width:0.81653792;stroke-linecap:butt;stroke-linejoin:miter;stroke-miterlimit:4;stroke-opacity:1" />
    <path
       d="M 531.751,531.24571 C 465.9628,532.96581 412.769,586.07173 411.0454,651.91011 L 426.2368,651.91011 C 426.2062,652.94013 426.1872,653.98049 426.1852,655.01749 C 426.1832,656.18757 426.2022,657.36281 426.2368,658.52413 L 411.0454,658.52413 C 412.773,724.30197 465.9242,777.47159 531.751,779.20267 L 531.751,772.58869 C 471.7284,770.92889 423.0178,724.24201 418.0728,665.13817 L 426.6502,665.13817 C 431.5724,719.46625 476.5146,762.39179 531.751,764.04557 L 531.751,757.43155 C 480.0984,755.79339 438.161,715.87281 433.2816,665.13817 L 441.8936,665.13817 C 446.7408,711.08053 484.9004,747.20677 531.751,748.83673 L 531.751,742.22269 C 486.2724,740.52249 449.7646,703.96795 448.0598,658.52413 L 432.868,658.52413 C 432.8316,657.36821 432.7972,656.19999 432.7992,655.03473 C 432.801,653.99069 432.8182,652.94651 432.851,651.91011 L 448.0598,651.91011 C 449.747,606.41323 486.2904,569.91869 531.751,568.22567 L 531.751,561.59441 C 484.9344,563.22157 446.7456,599.33151 441.8936,645.30315 L 433.2816,645.30315 C 438.1626,594.53501 480.1366,554.65383 531.751,553.01687 L 531.751,546.42005 C 476.5514,548.07311 431.568,590.93499 426.6506,645.30315 L 418.0728,645.30315 C 423.012,586.15397 471.7696,539.51907 531.751,537.85971 L 531.751,531.24571 z M 538.3654,531.24571 L 538.3654,537.85971 C 601.778,539.61317 652.5684,591.60097 652.4572,655.41365 C 652.35,716.83041 605.0662,767.14997 544.9794,772.20973 L 544.9794,748.37167 C 591.9114,743.38571 628.9482,703.63239 629.0324,655.37921 C 629.1168,607.03019 592.0282,567.08133 544.9794,562.05945 L 544.9794,553.44745 C 596.8358,558.48601 637.3926,602.23255 637.3,655.39643 C 637.2114,706.17097 600.1168,748.22817 551.5932,756.13971 L 551.5932,762.82267 C 603.7226,754.82417 643.819,709.75041 643.914,655.39643 C 644.0172,596.37835 596.985,548.15895 538.3654,546.40283 L 538.3654,568.22567 C 585.003,569.96355 622.5006,608.31595 622.4184,655.36195 C 622.3366,702.30309 584.864,740.48683 538.3654,742.22269 L 538.3654,779.20267 C 605.169,777.44729 658.9538,722.67891 659.0712,655.43087 C 659.1888,588.03789 605.3636,533.00883 538.3654,531.24571 z"
       id="path2415"
       style="opacity:1;fill:#000000;fill-opacity:1;stroke:none;stroke-width:11.60424137;stroke-linecap:butt;stroke-linejoin:miter;stroke-miterlimit:4;stroke-dasharray:none;stroke-opacity:1" />
  </g>
</svg>
