<?xml version="1.0" encoding="UTF-8" standalone="no"?>
<svg xmlns="http://www.w3.org/2000/svg" xmlns:xlink="http://www.w3.org/1999/xlink" version="1.1" width="500" height="500" viewBox="-250 -250 500 500">
	<title>Muroran Hokkaido Chapter</title>
	<g id="A02">
		<path d="M -10,-239.78125 A 240,240 0 0 0 -202.65625,-128.5625 L -119.4375,-80.5 A 144,144 0 0 1 -10,-143.65625 L -10,-239.78125 z M -38,-204.5 -38,-171.875 A 176,176 0 0 0 -129.8125,-118.8125 L -158.09375,-135.15625 A 208,208 0 0 1 -38,-204.5 z" id="A01" fill="#00f0f0"/>
		<use xlink:href="#A01" transform="rotate(60)"/>
	</g>
	<use xlink:href="#A02" transform="rotate(120)"/>
	<use xlink:href="#A02" transform="rotate(240)"/>
	<g id="Onestem">
		<path d="M 0,0 A 108,108 0 0 1 0,-108 108,108 0 0 1 0,0 z" fill="#00f0f0"/>
		<circle cx="0" cy="98" r="10" id="Flwr01" fill="#00f0f0"/>
		<use xlink:href="#Flwr01" transform="rotate(16)"/>
		<use xlink:href="#Flwr01" transform="rotate(-16)"/>
		<g style="fill:none;stroke:#00f0f0;stroke-width:5">
			<path d="M 0,0 0,98"/>
			<path d="M 27.012461,94.203647 0,72 -27.012461,94.203647"/>
		</g>
	</g>
	<use xlink:href="#Onestem" transform="rotate(72)"/>
	<use xlink:href="#Onestem" transform="rotate(144)"/>
	<use xlink:href="#Onestem" transform="rotate(216)"/>
	<use xlink:href="#Onestem" transform="rotate(288)"/>
</svg>