<?xml version="1.0" encoding="UTF-8" standalone="no"?>
<svg xmlns="http://www.w3.org/2000/svg" xmlns:xlink="http://www.w3.org/1999/xlink" version="1.1" width="500" height="500" viewBox="-250 -260 500 500">
	<title>Obihiro, Hokkaido Chapter</title>
	<path d="M -12,-249.71875 C -20.11277,-249.33549 -28.107667,-248.54487 -36,-247.40625 L -36,-222.84375 A 226,226 0 0 0 -141.6875,174.625 L -126.53125,153.75 A 200,200 0 0 1 -36,-196.5 L -36,-178.40625 A 182,182 0 0 0 -116.34375,139.6875 L -100.4375,117.78125 A 156,156 0 0 1 -12,-155.375 L -12,-181.40625 -12,-199.46875 -12,-225.40625 -12,-228 -12,-249.71875 z"/>
	<path d="M 12,-249.71875 12,-228 12,-225.5625 12,-199.40625 12,-181.4375 12,-155.40625 A 156,156 0 0 1 100.46875,117.8125 L 116.03125,139.28125 A 182,182 0 0 0 36,-178.1875 L 36,-196.5625 A 200,200 0 0 1 126.59375,153.8125 L 141.9375,174.9375 A 226,226 0 0 0 36,-222.96875 L 36,-247.40625 C 28.107667,-248.54487 20.11277,-249.33549 12,-249.71875 z"/>
	<path d="M -81.03125,131.96875 -122.375,188.84375 A 226,226 0 0 0 122.5625,189.0625 L 81.21875,132.21875 A 156,156 0 0 1 -81.03125,131.96875 z M 75.375,164.96875 86.1875,179.875 A 182,182 0 0 1 -86.0625,179.71875 L -75.65625,165.375 A 200,200 0 0 0 75.375,164.96875 z"/>
	<path id="S01" d="M -12,-133.4375 -12,0 12,0 12,-133.4375 A 134,134 0 0 0 -12,-133.4375 z"/>
	<use xlink:href="#S01" transform="rotate(72)"/>
	<use xlink:href="#S01" transform="rotate(144)"/>
	<use xlink:href="#S01" transform="rotate(216)"/>
	<use xlink:href="#S01" transform="rotate(288)"/>
</svg>