<?xml version="1.0" encoding="UTF-8" standalone="no"?>
<svg
   xmlns:dc="http://purl.org/dc/elements/1.1/"
   xmlns:cc="http://creativecommons.org/ns#"
   xmlns:rdf="http://www.w3.org/1999/02/22-rdf-syntax-ns#"
   xmlns:svg="http://www.w3.org/2000/svg"
   xmlns="http://www.w3.org/2000/svg"
   xmlns:sodipodi="http://sodipodi.sourceforge.net/DTD/sodipodi-0.dtd"
   xmlns:inkscape="http://www.inkscape.org/namespaces/inkscape"
   version="1.1"
   width="426.0625"
   height="492"
   viewBox="-250 -250 426.0625 492"
   id="svg2"
   inkscape:version="0.48.4 r"
   sodipodi:docname="Symbol_of_Otaru_Hokkaido.svg">
  <metadata
     id="metadata22">
    <rdf:RDF>
      <cc:Work
         rdf:about="">
        <dc:format>image/svg+xml</dc:format>
        <dc:type
           rdf:resource="http://purl.org/dc/dcmitype/StillImage" />
        <dc:title>Otaru Hokkaido Chapter</dc:title>
      </cc:Work>
    </rdf:RDF>
  </metadata>
  <defs
     id="defs20" />
  <sodipodi:namedview
     pagecolor="#ffffff"
     bordercolor="#666666"
     borderopacity="1"
     objecttolerance="10"
     gridtolerance="10"
     guidetolerance="10"
     inkscape:pageopacity="0"
     inkscape:pageshadow="2"
     inkscape:window-width="1280"
     inkscape:window-height="961"
     id="namedview18"
     showgrid="false"
     inkscape:zoom="1.6022018"
     inkscape:cx="243.75458"
     inkscape:cy="166.86578"
     inkscape:window-x="-8"
     inkscape:window-y="-8"
     inkscape:window-maximized="1"
     inkscape:current-layer="svg2"
     fit-margin-top="0"
     fit-margin-left="0"
     fit-margin-right="0"
     fit-margin-bottom="0" />
  <title
     id="title4">Otaru Hokkaido Chapter</title>
  <path
     style="fill:#0603e6;stroke:none"
     d="m 38.034239,80.34375 c 26.7496,-23.37711 41.16364,-59.89422 37.47912,-95.22955 -2.5978,-28.01481 -16.40399,-55.16739 -37.60412,-73.36425 C 7.5371993,-63.83163 -7.6357007,-22.27107 -0.09516072,15.96678 4.4878393,41.05525 18.234559,64.26835 38.034239,80.34375 z"
     id="path2998"
     inkscape:connector-curvature="0" />
  <path
     style="fill:#0603e6;stroke:none"
     d="M -105.74701,85.5 C -73.676781,110.79814 -27.487921,116.24291 9.5255193,98.91095 17.424719,95.30973 24.904179,90.7934 31.784239,85.5 -2.5448907,57.47327 -17.842551,8.86972 -6.1053107,-33.81852 -0.03900072,-56.98173 13.341459,-78.20477 31.784239,-93.5 c -31.76326972,-25.04456 -77.37232,-30.66325 -114.20167,-13.8787 -8.28267,3.67523 -16.11721,8.3535 -23.298329,13.8787 34.329129,28.02673 49.626789,76.63028 37.889549,119.31852 -6.07521,23.16084 -19.44036,44.41879 -37.920799,59.68148 z"
     id="path3003"
     inkscape:connector-curvature="0" />
  <path
     style="fill:#0603e6;stroke:none"
     d="m -111.96576,-88.34375 c -26.74961,23.37711 -41.16364,59.89422 -37.47912,95.22955 2.5978,28.01481 16.40399,55.1674 37.60412,73.36425 30.372039,-24.41842 45.544939,-65.97898 38.004399,-104.21683 -4.583,-25.08847 -18.32972,-48.30157 -38.129399,-64.37697 z"
     id="path3001"
     inkscape:connector-curvature="0" />
  <g
     style="fill:none;stroke:#ffffff;stroke-width:8"
     id="g10"
     transform="translate(-36.965761,-4)" />
  <path
     style="font-size:medium;font-style:normal;font-variant:normal;font-weight:normal;font-stretch:normal;text-indent:0;text-align:start;text-decoration:none;line-height:normal;letter-spacing:normal;word-spacing:normal;text-transform:none;direction:ltr;block-progression:tb;writing-mode:lr-tb;text-anchor:start;baseline-shift:baseline;color:#000000;fill:#0603e6;fill-opacity:1;stroke:none;stroke-width:20;marker:none;visibility:visible;display:inline;overflow:visible;enable-background:accumulate;font-family:Sans;-inkscape-font-specification:Sans"
     d="M -36.968751,-250 -108,-127 -250,-127 -178.96875,-4 -250,119 l 142,0 71.031249,123 71.03125,-123 142.000001,0 -71,-123 71,-123 -142.000001,0 z m 0,40 59.46875,103 118.937501,0 L 81.968749,-4 141.4375,99 22.499999,99 -36.968751,202 -96.437501,99 -215.375,99 -155.90625,-4 -215.375,-107 l 118.937499,0 z"
     id="path16"
     inkscape:connector-curvature="0"
     sodipodi:nodetypes="cccccccccccccccccccccccccc" />
</svg>
