<svg xmlns:svg="http://www.w3.org/2000/svg" xmlns="http://www.w3.org/2000/svg" xml:space="preserve" width="472.68" height="348.73" version="1.1"><path d="m315.11 134.5c14.74 17.47 23.63 40.07 23.63 64.7 0 52.51-40.25 95.6-91.59 100.06l0 49.46c78.63-4.57 140.95-69.77 140.95-149.53 0-33.59-11.09-64.63-29.8-89.65l-43.19 24.94zM117.92 110.06c-18.5 24.91-29.41 55.77-29.41 89.15 0 79.76 62.33 144.96 140.92 149.53l0-49.46c-51.31-4.46-91.59-47.55-91.59-100.06 0-24.41 8.75-46.81 23.24-64.24l-43.16-24.91z" class="fil1" fill="#101080"/><polygon points="11260 4010 10665 2405 10068 4014 3940 2687 9828 4655 9778 4803 3940 2851 9538 5445 8690 7730 10665 6289 12640 7730 11793 5445 16810 3127 17280 2887 11551 4801 11502 4654 17280 2722 " class="fil1" transform="matrix(0.03543307,0,0,0.03543307,-139.6063,-85.216533)" fill="#101080"/></svg>