<?xml version="1.0" encoding="UTF-8" standalone="no"?>
<!-- Created with Inkscape (http://www.inkscape.org/) -->

<svg xmlns:dc="http://purl.org/dc/elements/1.1/" xmlns:cc="http://creativecommons.org/ns#" xmlns:rdf="http://www.w3.org/1999/02/22-rdf-syntax-ns#" xmlns:svg="http://www.w3.org/2000/svg" xmlns="http://www.w3.org/2000/svg" version="1.0" width="274.99991" height="269.90768" id="svg2">
  <metadata id="metadata10">
    <rdf:RDF>
      <cc:Work rdf:about="">
        <dc:format>image/svg+xml</dc:format>
        <dc:type rdf:resource="http://purl.org/dc/dcmitype/StillImage" />
        <dc:title></dc:title>
      </cc:Work>
    </rdf:RDF>
  </metadata>
  <defs id="defs5" />
  <path d="m 137.5,2 c -18.16876,0 -39,15.3917 -39,37.0625 0,20.1762 11.18193,34.22122 26,39.375 l 0,-22.875 c -3.96082,-3.56331 -6.46875,-8.71926 -6.46875,-14.46875 1e-5,-10.75537 8.71338,-19.5 19.46875,-19.5 10.75537,0 19.46875,8.74463 19.46875,19.5 l 0.0312,0 c -1e-5,10.75537 -8.74463,19.46875 -19.5,19.46875 -4.08928,0 -7.86777,-1.25374 -11,-3.40625 l 5e-5,94.34375 -26,0 0,21 26,0 0,6 -26,0 0,21 7,0 c 0,0 -7,10.37453 -7,27 l 40,0 c 0,1.2252 -4.1455,3.8624 -5.4375,4.65625 -15.84436,0.43172 -30.67127,5.0184 -43.375,12.75 C 51.55893,226.25401 23.5,186.15905 23.5,139.53125 23.50001,91.16227 53.67676,49.80046 96.21875,33.25 98.36202,21.9156 105.03535,12.1802 114.3125,6.03125 50.55534,17.04357 2,72.64356 2,139.53125 c 0,59.60306 38.5539,110.25581 92.0625,128.375 0.006,-0.005 0.0253,0.005 0.0312,0 8.96849,-7.58847 19.93047,-12.90001 32,-14.96875 3.77486,-0.58601 7.58086,-1.00355 11.40625,-0.96875 3.82051,0.0386 7.63984,0.28548 11.40625,0.96875 12.06953,2.06874 23.03151,7.38028 32,14.96875 0.009,-0.003 0.0222,0.003 0.0312,0 53.5085,-18.11919 92.0625,-68.77195 92.0625,-128.375 0,-66.88768 -48.55534,-122.48768 -112.3125,-133.5 9.27715,6.14895 15.95048,15.88435 18.09375,27.21875 42.5421,16.55047 72.71885,57.91228 72.71885,106.28125 2e-5,46.62779 -28.05893,86.72276 -68.1875,104.375 -7.18963,-4.37567 -15.05883,-7.7514 -23.40625,-9.9375 C 161.9163,231.51067 171.5,219.12359 171.5,205.5 l -45,0 c 0,-2.70174 5,-6 5,-6 l 43,0 0,-21 -26,0 0,-6 26,0 0,-21 -26,0 0,-72.4375 C 164.97496,74.29436 177.03126,59.10274 177.03125,41.09375 177.03125,19.47257 157.92819,2 137.5,2 z" id="rect2455" style="fill:#1e2a63;stroke:none" />
</svg>
