<?xml version="1.0" encoding="UTF-8" standalone="no"?>
<svg
   xmlns:dc="http://purl.org/dc/elements/1.1/"
   xmlns:cc="http://creativecommons.org/ns#"
   xmlns:rdf="http://www.w3.org/1999/02/22-rdf-syntax-ns#"
   xmlns:svg="http://www.w3.org/2000/svg"
   xmlns="http://www.w3.org/2000/svg"
   xmlns:sodipodi="http://sodipodi.sourceforge.net/DTD/sodipodi-0.dtd"
   xmlns:inkscape="http://www.inkscape.org/namespaces/inkscape"
   version="1.1"
   width="500"
   height="500"
   viewBox="-250,-250,500,500"
   id="svg2"
   inkscape:version="0.48.4 r"
   sodipodi:docname="Bibai_Hokkaido_chapter.svg">
  <metadata
     id="metadata12">
    <rdf:RDF>
      <cc:Work
         rdf:about="">
        <dc:format>image/svg+xml</dc:format>
        <dc:type
           rdf:resource="http://purl.org/dc/dcmitype/StillImage" />
      </cc:Work>
    </rdf:RDF>
  </metadata>
  <defs
     id="defs10" />
  <sodipodi:namedview
     pagecolor="#ffffff"
     bordercolor="#666666"
     borderopacity="1"
     objecttolerance="10"
     gridtolerance="10"
     guidetolerance="10"
     inkscape:pageopacity="0"
     inkscape:pageshadow="2"
     inkscape:window-width="1280"
     inkscape:window-height="961"
     id="namedview8"
     showgrid="false"
     inkscape:zoom="1.6818182"
     inkscape:cx="249.68921"
     inkscape:cy="301.35135"
     inkscape:window-x="-8"
     inkscape:window-y="-8"
     inkscape:window-maximized="1"
     inkscape:current-layer="svg2" />
  <title
     id="title4">Bibai, Hokkaido Chapter</title>
  <path
     d="m -212,-200 0,88 c -19.18204,36.354007 -28.80257,77.699788 -27.64009,118.7876569 1.16248,41.0878681 13.10532,81.8235661 34.31213,117.0348631 21.2068,35.2113 51.62893,64.81743 87.40366,85.05928 C -82.149562,229.12366 -41.104285,239.9548 0,240 c 40.940649,-0.15105 81.795602,-11.00055 117.41709,-31.18146 35.62149,-20.1809 65.92909,-49.64764 87.104,-84.68737 C 225.696,89.091438 237.69041,48.557834 238.99301,7.6376344 240.29562,-33.282565 230.90347,-74.496963 212,-110.8125 l 0,-89.1875 -188,0 0,52.125 c 38.508131,7.78968 70.628372,27.10275 93.27074,55.790623 23.1395,31.750888 33.78569,67.686421 31.11074,104.135229 -4.37687,39.04354 -20.79371,72.736146 -47.38169,97.811038 C 71.404304,135.70106 36.542887,149.46282 0,150 c -39.328553,-1.43602 -74.208132,-15.31716 -101.22688,-40.01979 -28.00231,-27.65263 -44.31141,-61.465111 -47.51176,-97.934142 -1.9301,-39.3074 8.91958,-75.245617 31.22292,-104.27652 C -92.357218,-122.49342 -60.062138,-141.63236 -24,-147.9375 L -24,-200 z"
     style="fill:#000000;stroke:none"
     id="path6"
     inkscape:connector-curvature="0"
     sodipodi:nodetypes="ccssscssscccccccccccccc" />
</svg>
