<?xml version="1.0" encoding="UTF-8" standalone="no"?>
<svg
   xmlns:dc="http://purl.org/dc/elements/1.1/"
   xmlns:cc="http://creativecommons.org/ns#"
   xmlns:rdf="http://www.w3.org/1999/02/22-rdf-syntax-ns#"
   xmlns:svg="http://www.w3.org/2000/svg"
   xmlns="http://www.w3.org/2000/svg"
   xmlns:xlink="http://www.w3.org/1999/xlink"
   xmlns:sodipodi="http://sodipodi.sourceforge.net/DTD/sodipodi-0.dtd"
   xmlns:inkscape="http://www.inkscape.org/namespaces/inkscape"
   version="1.1"
   width="500"
   height="500"
   viewBox="-250 -250 500 500"
   id="svg19"
   sodipodi:docname="Emblem_of_Ebetsu,_Hokkaido.svg"
   inkscape:version="0.92.4 (5da689c313, 2019-01-14)">
  <metadata
     id="metadata25">
    <rdf:RDF>
      <cc:Work
         rdf:about="">
        <dc:format>image/svg+xml</dc:format>
        <dc:type
           rdf:resource="http://purl.org/dc/dcmitype/StillImage" />
        <dc:title>Ebetsu Hokkaido Chapter</dc:title>
      </cc:Work>
    </rdf:RDF>
  </metadata>
  <defs
     id="defs23" />
  <sodipodi:namedview
     pagecolor="#ffffff"
     bordercolor="#666666"
     borderopacity="1"
     objecttolerance="10"
     gridtolerance="10"
     guidetolerance="10"
     inkscape:pageopacity="0"
     inkscape:pageshadow="2"
     inkscape:window-width="1920"
     inkscape:window-height="996"
     id="namedview21"
     showgrid="false"
     fit-margin-top="0"
     fit-margin-left="0"
     fit-margin-right="0"
     fit-margin-bottom="0"
     inkscape:zoom="0.944"
     inkscape:cx="246.63829"
     inkscape:cy="177.13431"
     inkscape:window-x="1912"
     inkscape:window-y="-8"
     inkscape:window-maximized="1"
     inkscape:current-layer="svg19" />
  <title
     id="title2">Ebetsu Hokkaido Chapter</title>
  <g
     id="g839"
     transform="matrix(1.0416558,0,0,1.042021,1.1075941e-4,0.09550273)">
    <path
       id="path6"
       style="fill:#000000;stroke:#000000;stroke-width:1"
       d="M 0,-180 -40.412548,-55.6231 0,0 -171.19016,-55.6231 -65.388826,21.246117 0,0 -105.80134,145.62305 0,68.753899 V 0 L 105.80134,145.62305 65.388835,21.246143 0,0 171.1903,-55.6231 40.412517,-55.623058 0,0 Z"
       inkscape:connector-curvature="0" />
    <path
       id="path8"
       style="fill:#ffffff;stroke:#000000;stroke-width:1"
       d="M 0,-180 40.412548,-55.6231 0,0 171.1903,-55.6231 65.388826,21.246117 0,0 105.80134,145.62305 0,68.753899 V 0 L -105.80134,145.62305 -65.388796,21.246107 0,0 -171.19016,-55.6231 H -40.412548 L 0,0 Z"
       inkscape:connector-curvature="0" />
    <path
       style="fill:#000000;stroke:none"
       id="A01"
       d="m -2.21875,-240 a 240,240 0 0 0 -131.46875,40.6875 l 11.75,16.1875 A 220,220 0 0 1 -10,-219.5 v 19.96875 a 200,200 0 0 0 -100.15625,32.59375 l 11.75,16.1875 a 180,180 0 0 1 196.8125,0 l 11.75,-16.1875 A 200,200 0 0 0 10,-199.53125 v -20 a 220,220 0 0 1 111.9375,36.40625 l 11.75,-16.1875 A 240,240 0 0 0 -2.21875,-240 Z"
       inkscape:connector-curvature="0" />
    <use
       id="use11"
       transform="rotate(72)"
       xlink:href="#A01"
       x="0"
       y="0"
       width="100%"
       height="100%" />
    <use
       id="use13"
       transform="rotate(144)"
       xlink:href="#A01"
       x="0"
       y="0"
       width="100%"
       height="100%" />
    <use
       id="use15"
       transform="rotate(-144)"
       xlink:href="#A01"
       x="0"
       y="0"
       width="100%"
       height="100%" />
    <use
       id="use17"
       transform="rotate(-72)"
       xlink:href="#A01"
       x="0"
       y="0"
       width="100%"
       height="100%" />
  </g>
</svg>
