<?xml version="1.0" encoding="UTF-8" standalone="no"?>
<svg xmlns="http://www.w3.org/2000/svg" xmlns:xlink="http://www.w3.org/1999/xlink" version="1.1" width="100" height="100" viewBox="0 0 100 100">
  <path d="M 67.228073,30.436899 50,3 32.771927,30.436899 50,54.149307 z" id="a"/>
  <use transform="rotate(72,50,55)" xlink:href="#a"/>
  <use transform="rotate(144,50,55)" xlink:href="#a"/>
  <use transform="rotate(216,50,55)" xlink:href="#a"/>
  <use transform="rotate(288,50,55)" xlink:href="#a"/>
  <path fill="#fff" d="m 76,55 a 26,26 0 1 1 -52,0 26,26 0 1 1 52,0 z"/>
  <g style="fill:none;stroke:#000;stroke-width:2.5">
    <path d="M 23.7565575,55 26.5,55"/>
    <path d="M 29.5,55 32.5,55"/>
  </g>
  <circle cx="50" cy="55" r="18"/>
  <path style="fill:none;stroke:#000;stroke-width:2" d="m 51.25,33.03125 A 22,22,0,1,1,28.34375,58.828125 M 46.171875,33.34375 A 22,22,0,0,0,28.34375,51.171875"/>
  <rect fill="#fff" x="38.5" y="43.5" width="23" height="23"/>
  <g fill="none" stroke="#000">
    <path d="m 38,49 4,0 0,3 4,0 0,-3 8,0 0,3 4,0 0,-3 4,0"/>
    <path d="m 50,43 0,6"/>
    <path d="m 42,43 0,3"/>
    <path d="m 46,46 0,-3"/>
    <path d="m 58,46 0,-3"/>
    <path d="m 38,63 19,0"/>
    <path d="m 43,59 19,0"/>
    <path d="m 43,55 14,0"/>
    <path d="m 54,46 0,-3"/>
    <g stroke-width="2.5">
      <path d="m 50,37.5 0,-10"/>
      <path d="M 50,71.5 50,81"/>
    </g>
  </g>
</svg>