<?xml version="1.0" encoding="UTF-8"?><svg width="400" height="456" viewBox="50 22 400 456" xmlns="http://www.w3.org/2000/svg" xmlns:xlink="http://www.w3.org/1999/xlink">
 <path xmlns="http://www.w3.org/2000/svg" fill="#f1aa1a" d="m250 25l-65 112.5h-129.9l65 112.5-64.96 112.5h129.9l65 112.5 65-112.5h129.9l-65-112.5 65-112.5h-129.9l-65-112.5z"/>
 <path xmlns="http://www.w3.org/2000/svg" fill="#372a62" d="m250 47.5-58.46 101.2h-116.9l58.46 101.2-58.46 101.2h116.9l58.5 101.4 58.46-101.3h116.9l-58.5-101.2 58.46-101.2h-116.9l-58.46-101.3z"/>
 <g xmlns="http://www.w3.org/2000/svg" id="h">
  <path fill="#d5bedb" d="m315 160l45.4 78.8 45.5-78.8h-90.9z"/>
  <path fill="#eba71e" d="m300.6 198.3l-7 12.2a59 59 0 0 1 12.5 21.5h14a72.5 72.5 0 0 0 -19.5 -33.7zm40.1 40.5a11.25 11.25 0 0 0 -9 4.4h-60.3a22.5 22.5 0 0 1 1.1 6.8 22.5 22.5 0 0 1 -1 6.8h60.2a11.25 11.25 0 0 0 9 4.4 11.25 11.25 0 0 0 11.2 -11.2 11.25 11.25 0 0 0 -11.2 -11.2z"/>
 </g>
 <use xmlns="http://www.w3.org/2000/svg" xmlns:xlink="http://www.w3.org/1999/xlink" xlink:href="#h" transform="rotate(60 250 250)"/>
 <use xmlns="http://www.w3.org/2000/svg" xmlns:xlink="http://www.w3.org/1999/xlink" xlink:href="#h" transform="rotate(120 250 250)"/>
 <use xmlns="http://www.w3.org/2000/svg" xmlns:xlink="http://www.w3.org/1999/xlink" xlink:href="#h" transform="rotate(180 250 250)"/>
 <use xmlns="http://www.w3.org/2000/svg" xmlns:xlink="http://www.w3.org/1999/xlink" xlink:href="#h" transform="rotate(240 250 250)"/>
 <use xmlns="http://www.w3.org/2000/svg" xmlns:xlink="http://www.w3.org/1999/xlink" xlink:href="#h" transform="rotate(300 250 250)"/>
</svg>