<?xml version="1.0" encoding="utf-8" standalone="no"?>
<svg xmlns:svg="http://www.w3.org/2000/svg" xmlns="http://www.w3.org/2000/svg" version="1.1" width="500" height="500" viewBox="-250,-250,500,500">
	<title>Monbetsu, Hokkaido Chapter</title>
	<polygon points="250,-250 250,250 -250,250 -250,-250 " style="fill:none;stroke:none" />
	<g style="fill:#6d9c00;stroke:none">
		<path d="M -24,-238.8125 C -145.2764,-226.76788 -240,-124.44597 -240,0 -240,120.31547 -151.47393,219.94623 -36,237.3125 L -36,188.625 C -124.83172,171.77495 -192,93.734535 -192,0 -192,-97.915151 -118.71756,-178.72647 -24,-190.53125 L -24,-238.8125 z M 24,-238.8125 24,-190.53125 C 118.71756,-178.72647 192,-97.915151 192,0 192,93.734535 124.83172,171.77495 36,188.625 L 36,237.3125 C 151.47393,219.94623 240,120.31547 240,0 240,-124.44597 145.2764,-226.76788 24,-238.8125 z" />
		<path d="M -47.563381,-102 47.563381,-102 0,0 47.563381,102 -47.563381,102 0,0 z M 24,-190.53125 A 192,192 0 0 0 -24,-190.53125 L -24,-150 -119.85062,-150 -49.90625,0 -119.85062,150 -24,150 -24,238.8125 A 240,240 0 0 0 24,238.8125 L 24,150 119.8125,150 49.90625,0 119.85062,-150 24,-150 z" />
	</g>
</svg>