<?xml version="1.0" encoding="UTF-8" standalone="no"?>
<svg
   xmlns:dc="http://purl.org/dc/elements/1.1/"
   xmlns:cc="http://creativecommons.org/ns#"
   xmlns:rdf="http://www.w3.org/1999/02/22-rdf-syntax-ns#"
   xmlns:svg="http://www.w3.org/2000/svg"
   xmlns="http://www.w3.org/2000/svg"
   xmlns:sodipodi="http://sodipodi.sourceforge.net/DTD/sodipodi-0.dtd"
   xmlns:inkscape="http://www.inkscape.org/namespaces/inkscape"
   width="350"
   height="388.59442"
   viewBox="-11 -11 19.25 21.372693"
   version="1.1"
   id="svg2"
   inkscape:version="0.48.4 r"
   sodipodi:docname="Sunagawa_Hokkaido_chapter.svg">
  <metadata
     id="metadata20">
    <rdf:RDF>
      <cc:Work
         rdf:about="">
        <dc:format>image/svg+xml</dc:format>
        <dc:type
           rdf:resource="http://purl.org/dc/dcmitype/StillImage" />
      </cc:Work>
    </rdf:RDF>
  </metadata>
  <defs
     id="defs18" />
  <sodipodi:namedview
     pagecolor="#ffffff"
     bordercolor="#666666"
     borderopacity="1"
     objecttolerance="10"
     gridtolerance="10"
     guidetolerance="10"
     inkscape:pageopacity="0"
     inkscape:pageshadow="2"
     inkscape:window-width="1280"
     inkscape:window-height="961"
     id="namedview16"
     showgrid="false"
     fit-margin-top="0"
     fit-margin-left="0"
     fit-margin-right="0"
     fit-margin-bottom="0"
     inkscape:zoom="2.035"
     inkscape:cx="164.79213"
     inkscape:cy="181.83535"
     inkscape:window-x="-8"
     inkscape:window-y="-8"
     inkscape:window-maximized="1"
     inkscape:current-layer="svg2" />
  <desc
     id="desc4">Emblem of Sunagawa, Hokkaido</desc>
  <path
     style="font-size:medium;font-style:normal;font-variant:normal;font-weight:normal;font-stretch:normal;text-indent:0;text-align:start;text-decoration:none;line-height:normal;letter-spacing:normal;word-spacing:normal;text-transform:none;direction:ltr;block-progression:tb;writing-mode:lr-tb;text-anchor:start;baseline-shift:baseline;color:#000000;fill:#880016;fill-opacity:1;stroke:none;stroke-width:4;marker:none;visibility:visible;display:inline;overflow:visible;enable-background:accumulate;font-family:Sans;-inkscape-font-specification:Sans"
     d="m -1.3627654,-10.999734 a 2.1340847,2.1340847 0 0 0 -2.1015298,2.1657124 l 0,2.1345382 -5.2666612,0 a 2.1340847,2.1340847 0 0 0 -0.1998837,0 2.1362144,2.1362144 0 1 0 0.1998837,4.2672425 l 1.3698454,0 c -0.2398655,0.6689059 -0.3704268,1.3877239 -0.3704268,2.13453819 0,2.76342451 1.7921025,5.14378401 4.2672426,6.03135401 l 0,2.5049649 a 2.1345382,2.1345382 0 0 0 4.2690763,0 l 0,-2.5049649 c 2.4751401,-0.88757 4.2672426,-3.2679295 4.2672426,-6.03135401 0,-0.74681429 -0.130561,-1.46563229 -0.3704268,-2.13453819 l 1.3698454,0 a 2.1340847,2.1340847 0 1 0 0,-4.2672425 l -5.2666612,0 0,-2.1345382 a 2.1340847,2.1340847 0 0 0 -2.1675465,-2.1657124 z m 0.033008,8.5674931 c 1.2037798,0 2.1345382,0.9307584 2.1345382,2.13453819 0,1.20377977 -0.9307584,2.13453821 -2.1345382,2.13453821 -1.2037797,0 -2.1345381,-0.93075844 -2.1345381,-2.13453821 0,-1.20377979 0.9307584,-2.13453819 2.1345381,-2.13453819 z"
     id="circle8"
     inkscape:connector-curvature="0" />
</svg>
