<?xml version="1.0" encoding="utf-8" standalone="no"?>
<svg xmlns:svg="http://www.w3.org/2000/svg" xmlns="http://www.w3.org/2000/svg" xmlns:xlink="http://www.w3.org/1999/xlink" version="1.1" width="500" height="500" viewBox="-250,-250,500,500">
	<title>Nemuro, Hokkaido Chapter</title>
	<polygon points="250,-250 250,250 -250,250 -250,-250 " style="fill:none;stroke:none" />
	<circle cx="0" cy="0" r="244" style="fill:white;stroke:none" />
	<path d="M 0,-130 0,-70 M 121.24356,70 0,0 0,130 M -121.24356,-70 121.24356,-70 -121.24356,70" style="fill:none;stroke:#fe0000;stroke-width:40;stroke-linecap:round;stroke-linejoin:round" />
	<path d="M -55.15625,-192.3125 A 200,200 0 0 1 55.15625,-192.3125 L 45.75,-159.59375 A 166,166 0 0 0 -45.75,-159.59375 L -55.15625,-192.3125 z M 0,-240 A 240,240 0 0 0 -116.46875,-209.75 L -59.4375,-110.96875 A 126,126 0 0 1 0,-126 126,126 0 0 1 59.46875,-111 L 116.375,-209.5625 A 240,240 0 0 0 0,-240 z" id="A01" style="fill:#fe0000;stroke:none" />
	<use xlink:href="#A01" transform="rotate(60)" />
	<use xlink:href="#A01" transform="rotate(120)" />
	<use xlink:href="#A01" transform="rotate(180)" />
	<use xlink:href="#A01" transform="rotate(240)" />
	<use xlink:href="#A01" transform="rotate(300)" />
</svg>