<?xml version="1.0" encoding="UTF-8" standalone="no"?>
<!-- Created with Inkscape (http://www.inkscape.org/) -->

<svg
   xmlns:dc="http://purl.org/dc/elements/1.1/"
   xmlns:cc="http://creativecommons.org/ns#"
   xmlns:rdf="http://www.w3.org/1999/02/22-rdf-syntax-ns#"
   xmlns:svg="http://www.w3.org/2000/svg"
   xmlns="http://www.w3.org/2000/svg"
   xmlns:sodipodi="http://sodipodi.sourceforge.net/DTD/sodipodi-0.dtd"
   xmlns:inkscape="http://www.inkscape.org/namespaces/inkscape"
   width="350"
   height="280.8815"
   id="svg2"
   version="1.1"
   inkscape:version="0.48.4 r"
   sodipodi:docname="Symbol of Nayoro Hokkaido.svg">
  <defs
     id="defs4" />
  <sodipodi:namedview
     id="base"
     pagecolor="#ffffff"
     bordercolor="#666666"
     borderopacity="1.0"
     inkscape:pageopacity="0.0"
     inkscape:pageshadow="2"
     inkscape:zoom="1.1166667"
     inkscape:cx="207.69698"
     inkscape:cy="55.214274"
     inkscape:document-units="px"
     inkscape:current-layer="layer1"
     showgrid="false"
     inkscape:window-width="1280"
     inkscape:window-height="961"
     inkscape:window-x="-8"
     inkscape:window-y="-8"
     inkscape:window-maximized="1"
     fit-margin-top="0"
     fit-margin-left="0"
     fit-margin-right="0"
     fit-margin-bottom="0" />
  <metadata
     id="metadata7">
    <rdf:RDF>
      <cc:Work
         rdf:about="">
        <dc:format>image/svg+xml</dc:format>
        <dc:type
           rdf:resource="http://purl.org/dc/dcmitype/StillImage" />
        <dc:title></dc:title>
      </cc:Work>
    </rdf:RDF>
  </metadata>
  <g
     inkscape:label="レイヤー 1"
     inkscape:groupmode="layer"
     id="layer1"
     transform="translate(-105.16018,-248.48067)">
    <g
       id="g3850"
       style="fill:#009e53;fill-opacity:1"
       transform="matrix(1.0971599,0,0,1.0971599,-10.217353,-51.432779)">
      <path
         transform="matrix(0.91367227,-0.96947523,0.8631431,0.68383763,-256.51362,327.55551)"
         d="m 253.20691,320.94083 c 0,10.38272 -8.54837,18.79958 -19.09332,18.79958 -10.54496,0 -19.09333,-8.41686 -19.09333,-18.79958 0,-10.38273 8.54837,-18.79959 19.09333,-18.79959 10.54495,0 19.09332,8.41686 19.09332,18.79959 z"
         sodipodi:ry="18.799585"
         sodipodi:rx="19.093328"
         sodipodi:cy="320.94083"
         sodipodi:cx="234.11359"
         id="path3801"
         style="fill:#009e53;fill-opacity:1;stroke:none"
         sodipodi:type="arc" />
      <path
         transform="matrix(0.90240751,-1.0200149,0.85250132,0.71948671,-174.38143,420.47547)"
         d="m 253.20691,320.94083 c 0,10.38272 -8.54837,18.79958 -19.09332,18.79958 -10.54496,0 -19.09333,-8.41686 -19.09333,-18.79958 0,-10.38273 8.54837,-18.79959 19.09333,-18.79959 10.54495,0 19.09332,8.41686 19.09332,18.79959 z"
         sodipodi:ry="18.799585"
         sodipodi:rx="19.093328"
         sodipodi:cy="320.94083"
         sodipodi:cx="234.11359"
         id="path3801-1"
         style="fill:#009e53;fill-opacity:1;stroke:none"
         sodipodi:type="arc" />
      <path
         sodipodi:nodetypes="cccccc"
         inkscape:connector-curvature="0"
         id="path3839"
         d="m 300.20587,461.93771 c 19.02917,-19.33656 54.77277,-71.61832 123.95977,-95.1729 -60.35958,49.89654 -95.78749,121.56381 -106.92264,162.59737 l -72.26091,0 c -4.44338,-64.65491 -23.37264,-138.62027 -82.24818,-211.3588 81.49002,19.97986 126.51974,110.99489 137.47196,143.93433 z"
         style="fill:#009e53;fill-opacity:1;stroke:none" />
      <path
         sodipodi:nodetypes="cccc"
         inkscape:connector-curvature="0"
         id="path3841"
         d="M 105.16018,516.36218 C 188.608,345.07879 338.78345,281.15264 403.01611,273.35437 306.40565,345.05168 236.13864,413.20855 197.39565,516.36218 z"
         style="fill:#009e53;fill-opacity:1;stroke:none" />
    </g>
  </g>
</svg>
