<svg xmlns:svg="http://www.w3.org/2000/svg" xmlns="http://www.w3.org/2000/svg" xml:space="preserve" width="106.21" height="84.64" version="1.1"><path d="m44.01 20.85c2.38 4.82 18.2 2.65 27.59 8.82 7.82 5.14 10.09 15.23 5.08 25.89-4 8.52-10.36 13.7-18.02 18.32-5.83 3.52-12.23 6.42-19.05 8.46-1.36 0.41-6.01 1.47-7.01 2.01 2.06 1.38 18.94-3.5 21.81-4.49 17.65-6.04 37.8-18.95 46.99-34.5 9.26-15.66 5.18-28.74-12.4-32.4-7.8-1.62-16.93-0.85-24.47 0.81-3.78 0.82-18.95 4.99-20.52 7.08zm-44.01 45.86c0.01 5.47 2.49 9.6 5.3 11.97 2.22 1.87 7.75 5 11.68 5.26 3.37 0.22 10.43-2.6 12.94-3.88 11.39-5.79 21.28-20.79 12.5-31.79-5.75-7.19-12.81-4.5-16.53-17.3-3.86 1.33-14.14 11.55-16.46 14.5-4.04 5.14-9.44 12.13-9.43 21.24z" fill="#58b12f"/><path d="m22.07 84.21c0.77 0.54-0.17 0.25 1.18 0.4 3.38 0.37 15.62-3.44 18.33-4.51 5.54-2.18 11.65-5.43 15.9-8.45 9.13-6.5 19.6-20.14 14.26-31.88-5.28-11.62-27-9.28-33.8-14.9-6.28-5.19 1.25-12.6 4.92-14.76 4.32-2.56 15.98-5.88 17.69 1.05 4.71-0.88 7.99-1.99 13.3-2.53 5.31-0.53 9.44-0.26 14.65-0.07-2.64-4.05-10.94-7.5-16.51-8.26-7.46-1.02-15.19 0.64-21.18 3.28-5.74 2.54-11.11 6.41-14.28 10.43-3.66 4.65-6.76 12.12-2.3 18.45 4.02 5.71 9.22 6.24 13.7 11 5.21 5.53 5.49 11.69 2.42 18.94-2.52 5.94-6.83 10.77-11.07 13.97-3.94 2.97-11.19 6.85-17.21 7.84z" fill="#245ea7"/><path d="m23.45 3.35c-11.8 2.91-10.46 21.02 1.49 18.5 4.25-0.89 8.03-5.32 8.22-10.17 0.21-5.52-4-9.75-9.71-8.33z" fill="#fa0201"/></svg>