<?xml version="1.0" encoding="utf-8" standalone="no"?>
<svg xmlns:svg="http://www.w3.org/2000/svg" xmlns="http://www.w3.org/2000/svg" version="1.1" width="500" height="500" viewBox="-250,-250,500,500">
	<title>Utashinai, Hokkaido Chapter</title>
	<path d="M 0,-240 -207.8461,-120 -207.8461,120 0,240 207.8461,120 207.8461,-120 0,-240 z" style="fill:black;stroke:none" />
	<path d="M 0,-200 -173.20508,-100 -173.20508,100 0,200 173.20508,100 173.20508,-100 0,-200 z" style="fill:none;stroke:white;stroke-width:8" />
	<g style="fill:white;stroke:none">
		<rect width="24" height="36" x="-12" y="-184" />
		<rect width="200" height="24" x="-100" y="-12" />
		<path d="M 0,-162 A 162,162 0 0 0 -162,0 162,162 0 0 0 -12,161.53125 L -12,137.40625 A 138,138 0 0 1 -138,0 138,138 0 0 1 0,-138 138,138 0 0 1 138,0 138,138 0 0 1 12,137.375 L 12,161.40625 A 162,162 0 0 0 162,0 162,162 0 0 0 0,-162 z" />
		<path d="M 0,-112 A 112,112 0 0 0 -112,0 112,112 0 0 0 -12,111.21875 L -12,87.0625 A 88,88 0 0 1 -88,0 88,88 0 0 1 0,-88 88,88 0 0 1 88,0 88,88 0 0 1 12,87.09375 L 12,111.3125 A 112,112 0 0 0 112,0 112,112 0 0 0 0,-112 z" />
	</g>
</svg>