<?xml version="1.0" encoding="UTF-8" standalone="no"?>
<svg
   xmlns:dc="http://purl.org/dc/elements/1.1/"
   xmlns:cc="http://creativecommons.org/ns#"
   xmlns:rdf="http://www.w3.org/1999/02/22-rdf-syntax-ns#"
   xmlns:svg="http://www.w3.org/2000/svg"
   xmlns="http://www.w3.org/2000/svg"
   xmlns:sodipodi="http://sodipodi.sourceforge.net/DTD/sodipodi-0.dtd"
   xmlns:inkscape="http://www.inkscape.org/namespaces/inkscape"
   version="1.1"
   width="499.99997"
   height="515.53052"
   viewBox="-250 -250 499.99997 515.53052"
   id="svg2"
   inkscape:version="0.48.4 r"
   sodipodi:docname="Furano_Hokkaido_chapter.svg">
  <metadata
     id="metadata16">
    <rdf:RDF>
      <cc:Work
         rdf:about="">
        <dc:format>image/svg+xml</dc:format>
        <dc:type
           rdf:resource="http://purl.org/dc/dcmitype/StillImage" />
      </cc:Work>
    </rdf:RDF>
  </metadata>
  <defs
     id="defs14" />
  <sodipodi:namedview
     pagecolor="#ffffff"
     bordercolor="#666666"
     borderopacity="1"
     objecttolerance="10"
     gridtolerance="10"
     guidetolerance="10"
     inkscape:pageopacity="0"
     inkscape:pageshadow="2"
     inkscape:window-width="1280"
     inkscape:window-height="961"
     id="namedview12"
     showgrid="false"
     fit-margin-top="0"
     fit-margin-left="0"
     fit-margin-right="0"
     fit-margin-bottom="0"
     inkscape:zoom="1.3037247"
     inkscape:cx="141.40694"
     inkscape:cy="204.34374"
     inkscape:window-x="-8"
     inkscape:window-y="-8"
     inkscape:window-maximized="1"
     inkscape:current-layer="svg2" />
  <title
     id="title4">Furano, Hokkaido Chapter</title>
  <g
     id="g3795"
     transform="matrix(1.2091898,0,0,1.2091898,-5.025704,-8.16204)">
    <path
       id="path3787"
       d="m 0,-200 c -72.42204,0 -135.84053,38.48182 -170.9375,96.125 l 49.25,0 C -92.34118,-138.22648 -48.72166,-160 0,-160 c 48.72166,0 92.34118,21.77352 121.6875,56.125 l 49.25,0 C 135.84053,-161.51818 72.42204,-200 0,-200 z"
       style="fill:#81007f;fill-opacity:1;stroke:none"
       inkscape:connector-curvature="0" />
    <path
       id="path3783"
       d="M 192.875,-53 159.96875,-1.75 C 159.97503,-1.16571 160,-0.58578 160,0 160,65.24592 120.94411,121.37919 64.9375,146.28125 l -32.84375,51.125 C 127.29407,182.05128 200,99.53282 200,0 c 0,-18.35416 -2.49511,-36.11562 -7.125,-53 z"
       style="fill:#81007f;fill-opacity:1;stroke:none"
       inkscape:connector-curvature="0" />
    <path
       id="path3779"
       d="m -4,199.9375 0,-40 C -90.51494,157.81205 -160,87.02665 -160,0 c 0,-20.33317 3.80194,-39.76372 10.71875,-57.65625 L -184.625,-76.96875 C -194.51514,-53.27351 -200,-27.28063 -200,0 c 0,109.11802 87.39282,197.80294 196,199.9375 z"
       style="fill:#81007f;fill-opacity:1;stroke:none"
       inkscape:connector-curvature="0" />
    <path
       sodipodi:nodetypes="ccccc"
       inkscape:connector-curvature="0"
       id="path10"
       d="m -202.59375,-95.875 413.5,0 L 4,226.34375 l 0,-207 z"
       style="font-size:medium;font-style:normal;font-variant:normal;font-weight:normal;font-stretch:normal;text-indent:0;text-align:start;text-decoration:none;line-height:normal;letter-spacing:normal;word-spacing:normal;text-transform:none;direction:ltr;block-progression:tb;writing-mode:lr-tb;text-anchor:start;baseline-shift:baseline;color:#000000;fill:#81007f;fill-opacity:1;fill-rule:nonzero;stroke:none;stroke-width:8;marker:none;visibility:visible;display:inline;overflow:visible;enable-background:accumulate;font-family:Sans;-inkscape-font-specification:Sans" />
  </g>
</svg>
