<svg xmlns:svg="http://www.w3.org/2000/svg" xmlns="http://www.w3.org/2000/svg" width="302.57" height="331.52" version="1.1"><g transform="translate(-895.40283,-773.9907)"><path d="m1113.85 974.22c0 0 0.32-16.53-18.8-23.66-34.03-8.57-56.72 23.46-65.66 36.25-4.36 6.8-6.67 0.3-6.79 0.26-16.33-37.33 30.78-96.94 37.25-107 6.47-10.06-3.59-18.69-17.25-9.34-13.66 9.34-71.87 75.47-59.66 127.22 6.47 25.87 21.56 37.37 36.59 45.96 0 0-0.12 24.72-0.12 48.55 0 18.69 29.9 16.35 29.9-0.94 0-17.29 0-42.99 0-42.99 0 0 67.78-30.56 64.54-74.31m-36.5 19.4c-7.47 8.52-16.05 13.22-19.16 10.49-3.12-2.73 0.41-11.85 7.88-20.37 7.46-8.52 16.04-13.22 19.16-10.49 3.11 2.73-0.41 11.85-7.88 20.37z" fill="#294a9c"/><path d="m1197 961.87c-3.95-8.29-18.74-9.49-33.05-2.69-14.31 6.81-22.7 19.04-18.76 27.34 3.95 8.29 18.74 9.49 33.05 2.69 14.31-6.81 22.71-19.04 18.76-27.34z" fill="#00ad4a"/><path d="m1171.58 851.53c5.17 8.08-1.8 21.77-15.57 30.58-13.77 8.8-29.12 9.38-34.29 1.3-5.17-8.09 1.81-21.78 15.58-30.58 13.77-8.8 29.12-9.38 34.29-1.29z" fill="#de0029"/><path d="m1074.07 776.37c8.04 5.88 7.13 20.81-2.03 33.36-9.17 12.55-23.12 17.95-31.16 12.07-8.04-5.88-7.13-20.81 2.03-33.36 9.17-12.55 23.12-17.95 31.16-12.07zM949.75 971.6c-3.28 8.64-17.96 11.07-32.79 5.43-14.83-5.63-24.19-17.2-20.91-25.83 3.28-8.64 17.96-11.07 32.79-5.43 14.83 5.63 24.19 17.2 20.91 25.84zM975.28 862.51c-3.14 8.17-18.64 5.65-31.04 0.38-12.39-5.27-26.33-13.02-23.19-21.2 3.14-8.17 17.82-10.14 32.79-4.39 14.97 5.75 24.57 17.03 21.43 25.21z" fill="#00ad4a"/></g></svg>