<?xml version="1.0" encoding="UTF-8" standalone="no"?><!-- Created with Inkscape (http://www.inkscape.org/) --><svg id="svg3064" xmlns="http://www.w3.org/2000/svg" height="163.76" width="180.32" version="1.1" xmlns:xlink="http://www.w3.org/1999/xlink"> <title id="title4281">The symbol of Kitahiroshima City (Hokkaido)</title> <g id="layer2" transform="translate(-279.84064,-423.6452)">  <path id="path3214-4" stroke-linejoin="bevel" d="m328,560.31c-10.574,0-20.705,1.8596-30.125,5.2188-0.10227,0.0365-0.2104,0.0569-0.3125,0.0937-2.7514,0.99865-4.7188,3.6536-4.7188,6.75s1.9673,5.7201,4.7188,6.7188v0.0312c9.5065,3.4184,19.754,5.2812,30.438,5.2812,15.168,0,29.463-3.746,42-10.375v-3.3125c-12.538-6.6362-26.827-10.406-42-10.406zm84,0c-15.173,0-29.462,3.77-42,10.406v3.3125c12.537,6.629,26.832,10.375,42,10.375,10.673,0,20.908-1.8692,30.406-5.2812v-0.0312c2.7662-0.99081,4.75-3.6118,4.75-6.7188,0-3.0964-1.9673-5.7514-4.7188-6.75-0.1021-0.0368-0.21023-0.0573-0.3125-0.0937-9.43-3.36-19.56-5.22-30.13-5.22z" stroke-dashoffset="10" stroke="#000" stroke-linecap="butt" stroke-miterlimit="4" stroke-dasharray="none" stroke-width="6" fill="none"/>  <use id="use4160" xlink:href="#path3214-4" transform="matrix(0.5,0.8660254,-0.8660254,0.5,725.67772,-112.18917)" height="1052.3622" width="744.09448" y="0" x="0"/>  <use id="use4162" xlink:href="#path3214-4" transform="matrix(0.5,-0.8660254,0.8660254,0.5,-355.67772,528.66963)" height="1052.3622" width="744.09448" y="0" x="0"/>  <path id="path4200" stroke-linejoin="bevel" d="m410.7,520.4c0,22.478-18.222,40.7-40.7,40.7s-40.7-18.222-40.7-40.7,18.222-40.7,40.7-40.7,40.7,18.222,40.7,40.7z" stroke-dashoffset="10" stroke="#000" stroke-linecap="butt" stroke-miterlimit="4" stroke-dasharray="none" stroke-width="6" fill="none"/>  <path id="path4202" stroke-linejoin="bevel" d="m399.78,520.4c0,16.444-13.331,29.775-29.775,29.775s-29.775-13.331-29.775-29.775,13.331-29.775,29.775-29.775,29.775,13.331,29.775,29.775z" transform="translate(0,10.925028)" stroke-dashoffset="10" stroke="#000" stroke-linecap="butt" stroke-miterlimit="4" stroke-dasharray="none" stroke-width="6" fill="none"/>  <path id="path4204" stroke-linejoin="miter" d="m379.12,503.9c9.1113,5.0363,12.415,16.505,7.3783,25.616-5.0363,9.1113-16.505,12.415-25.616,7.3783-9.1113-5.0363-12.415-16.505-7.3783-25.616,1.7245-3.1198,4.2983-5.6867,7.4228-7.4028" transform="translate(0,21.849998)" stroke-dashoffset="10" stroke="#000" stroke-linecap="butt" stroke-miterlimit="4" stroke-dasharray="none" stroke-width="6" fill="none"/>  <path id="path4227" fill="#000" d="m370,542.25-11.109-11.305,0.56678-7.8309,10.499,10.684,10.624-10.659,0.52906,7.8053z"/> </g></svg>