<?xml version="1.0" encoding="UTF-8" standalone="no"?>
<!-- Created with Inkscape (http://www.inkscape.org/) -->

<svg
   xmlns:dc="http://purl.org/dc/elements/1.1/"
   xmlns:cc="http://creativecommons.org/ns#"
   xmlns:rdf="http://www.w3.org/1999/02/22-rdf-syntax-ns#"
   xmlns:svg="http://www.w3.org/2000/svg"
   xmlns="http://www.w3.org/2000/svg"
   xmlns:sodipodi="http://sodipodi.sourceforge.net/DTD/sodipodi-0.dtd"
   xmlns:inkscape="http://www.inkscape.org/namespaces/inkscape"
   width="355"
   height="328.35013"
   id="svg2"
   version="1.1"
   inkscape:version="0.48.4 r9939"
   sodipodi:docname="Symbol of Hokuto Hokkido.svg">
  <defs
     id="defs4" />
  <sodipodi:namedview
     id="base"
     pagecolor="#ffffff"
     bordercolor="#666666"
     borderopacity="1.0"
     inkscape:pageopacity="0.0"
     inkscape:pageshadow="2"
     inkscape:zoom="2.2628284"
     inkscape:cx="177.5"
     inkscape:cy="164.17506"
     inkscape:document-units="px"
     inkscape:current-layer="layer1"
     showgrid="false"
     fit-margin-top="0"
     fit-margin-left="0"
     fit-margin-right="0"
     fit-margin-bottom="0"
     inkscape:window-width="1280"
     inkscape:window-height="961"
     inkscape:window-x="-4"
     inkscape:window-y="-4"
     inkscape:window-maximized="1" />
  <metadata
     id="metadata7">
    <rdf:RDF>
      <cc:Work
         rdf:about="">
        <dc:format>image/svg+xml</dc:format>
        <dc:type
           rdf:resource="http://purl.org/dc/dcmitype/StillImage" />
        <dc:title />
      </cc:Work>
    </rdf:RDF>
  </metadata>
  <g
     inkscape:label="レイヤー 1"
     inkscape:groupmode="layer"
     id="layer1"
     transform="translate(-180.88916,-278.15706)">
    <path
       style="fill:#0860a8;fill-opacity:1;stroke:none"
       d="m 283.0055,476.43345 c -1.45319,54.0762 -35.26939,107.41285 -94.17105,127.28854 108.624,17.16998 162.01935,-47.89191 166.18056,-116.95688 -3.73731,0.19082 -7.4753,0.34465 -11.23684,0.31212 -4.30475,-0.0373 -8.62755,-0.22672 -12.95363,-0.56183 -4.32603,-0.33512 -8.64861,-0.82834 -12.98479,-1.46705 -4.33619,-0.63871 -8.68085,-1.42417 -13.01601,-2.37222 -4.33516,-0.94804 -8.66182,-2.04545 -12.9848,-3.30863 -2.95618,-0.86376 -5.88736,-1.92065 -8.83344,-2.93405 z"
       id="path3835"
       inkscape:connector-curvature="0" />
    <path
       style="fill:#0860a8;fill-opacity:1;stroke:none"
       d="m 345.77581,426.11731 c -20.06072,-52.37808 -71.40159,-92.09082 -151.19809,-77.09728 39.18223,15.60648 64.50676,41.74097 77.65915,71.60371 3.19879,0.6454 6.41009,1.3046 9.55133,1.84159 4.4044,0.75295 8.75292,1.38957 13.04721,1.93526 4.2943,0.54565 8.51608,0.99696 12.70388,1.34217 4.1878,0.34522 8.33807,0.59755 12.42296,0.74913 4.08494,0.15158 8.09395,0.1913 12.07963,0.15604 3.98568,-0.0353 7.93991,-0.15924 11.82992,-0.37454 0.64324,-0.0356 1.26332,-0.11567 1.90401,-0.15608 z"
       id="path3812"
       inkscape:connector-curvature="0" />
    <path
       style="fill:#19a66f;fill-opacity:1;stroke:none"
       d="m 388.19492,482.05188 c 24.57408,38.03105 69.53025,63.57361 133.8434,54.65478 -41.71246,-22.12959 -65.99185,-49.07584 -77.97124,-77.06607 -0.80712,0.47747 -1.59082,1.00137 -2.40347,1.46705 -3.73277,2.13901 -7.51838,4.16832 -11.36171,6.0554 -3.84328,1.88708 -7.73113,3.64566 -11.67383,5.2751 -3.9427,1.6294 -7.95505,3.12871 -11.98596,4.49472 -4.03096,1.366 -8.09647,2.58636 -12.20446,3.68318 -2.06381,0.55106 -4.16157,0.95381 -6.24273,1.43584 z"
       id="path3856"
       inkscape:connector-curvature="0" />
    <path
       style="fill:#19a66f;fill-opacity:1;stroke:none"
       d="m 494.63289,278.22785 c -94.65247,2.59795 -135.43502,76.7964 -127.28855,145.29874 2.8511,-0.45727 5.6893,-0.91492 8.49007,-1.46701 3.62477,-0.71455 7.22501,-1.50489 10.76863,-2.37223 7.08727,-1.73472 14.00395,-3.78157 20.7882,-6.08663 6.78424,-2.30506 13.43522,-4.88874 19.9454,-7.70974 2.66224,-1.15358 5.21477,-2.51215 7.83457,-3.7456 5.95962,-60.76351 55.99968,-114.34154 99.32128,-121.10831 -14.20929,-2.27668 -27.49475,-3.14858 -39.8596,-2.80922 z"
       id="path2998"
       inkscape:connector-curvature="0" />
    <path
       style="fill:#ffbf00;fill-opacity:1;stroke:none"
       d="m 180.88916,397.22472 c 118.76345,139.43887 298.02579,89.61533 355,-55.38363 -87.57147,76.36589 -186.1552,132.00284 -355,55.38363 z"
       id="path3768"
       inkscape:connector-curvature="0"
       sodipodi:nodetypes="ccc" />
  </g>
</svg>
