<svg xmlns:svg="http://www.w3.org/2000/svg" xmlns="http://www.w3.org/2000/svg" width="292.02" height="292.03" version="1.1"><g transform="translate(255.64286,56.0942)"><g transform="translate(-550.19011,-364.24745)"><path d="m440.56 308.15c-80.62 0-146.01 65.39-146.01 146.01 0 80.62 65.4 146.01 146.01 146.01 45.32 0 85.97-20.66 112.75-53.07 0.4-0.49 0.79-0.98 1.17-1.46 2.89-3.59 5.61-7.31 8.15-11.17 0.31-0.47 0.64-0.96 0.96-1.46 2.31-3.59 4.46-7.3 6.45-11.09 0.24-0.47 0.51-0.95 0.77-1.46 1.83-3.59 3.52-7.28 5.05-11.03 0.19-0.47 0.39-0.96 0.6-1.46 6.6-16.66 10.09-34.81 10.09-53.79 0-80.62-65.39-146.01-146.01-146.01l0.02-0.02zm0 13.15 0 0 0.22 0c73.3 0.12 132.65 59.53 132.65 132.86 0 16.84-3.19 32.92-8.9 47.73-8.79 0-24.33 0-38.33 0.02-1.06-7.09-2.95-14.34-5.66-21.48 4.59-2.48 11.2-6.45 11.2-6.45l0.04-0.03 0.04-0.03c22.12-15.37 35.5-36.71 34.4-55.82-0.05-0.91-0.14-1.81-0.26-2.71l-0.17-1.27-16.46-4.32 6.38-15.78-0.92-0.9c-0.65-0.63-1.32-1.24-2.01-1.82-14.26-11.97-38.44-14.04-63.27-6.28-4.21-25.62-16.89-46.26-33.96-53.63-0.83-0.36-1.68-0.69-2.53-0.98l-1.22-0.42-11.25 12.78-11.25-12.78-1.22 0.42c-0.85 0.29-1.7 0.62-2.53 0.98-17.09 7.38-29.77 28.05-33.97 53.7-24.84-7.82-49.05-5.79-63.34 6.17-0.69 0.58-1.37 1.19-2.02 1.82l-0.92 0.9 6.36 15.79-16.48 4.3-0.17 1.28c-0.12 0.9-0.21 1.79-0.26 2.7-0.65 11.02 3.76 22.76 11.64 33.7l-18.6 0C309.11 379.48 367.97 321.3 440.57 321.3Zm-15.29 21.72 10.84 12.45c-3.29 1.64-5.57 4.99-5.57 8.9 0 4.57 3.16 8.28 7.37 9.47l0 60.63-15.45-46.51c3.08-2.16 4.65-6.04 3.41-9.78-1.53-4.59-6.56-7.09-11.18-5.6-4.62 1.49-7.2 6.48-5.68 11.08 1.25 3.74 4.82 5.95 8.61 5.88l17.14 51.6c-0.58 0.26-1.14 0.55-1.67 0.89l-32.21-46.89c0.2-1.86 0.49-4.57 0.58-5.7 1.68-21.4 11.41-38.85 23.82-46.4zm30.56 0c12.41 7.55 22.14 25 23.82 46.41 0.09 1.16 0.4 3.98 0.6 5.83l-32.16 46.8c-0.55-0.34-1.11-0.65-1.71-0.92l17.09-51.43c3.79 0.07 7.36-2.14 8.61-5.88 1.53-4.59-1.05-9.58-5.67-11.08-4.63-1.49-9.66 1.01-11.18 5.61-1.24 3.73 0.32 7.61 3.41 9.78l-15.43 46.44 0-60.74c4.21-1.19 7.37-4.9 7.37-9.47 0-3.91-2.29-7.25-5.57-8.9l10.84-12.45zm-15.28 15.12 0.52 0.08-0.56 1.24 0-1.31 0.04 0 0 0zm-0.69 1.62 0.69 0.78 0.69-0.78c2.33 0.37 4.18 2.15 4.18 4.6 0 2.72-2.16 4.87-4.87 4.87-2.72 0-4.87-2.16-4.87-4.87 0-2.45 1.85-4.23 4.19-4.6zm-22.5 17.31 0 0c1.67-0.02 3.23 1.01 3.78 2.65 0.67 2.02-0.41 4.15-2.5 4.82-2.09 0.67-4.27-0.43-4.95-2.45-0.67-2.03 0.41-4.15 2.5-4.82 0.38-0.12 0.78-0.19 1.17-0.19zm46.33 0.19c0.42 0.02 0.81 0.08 1.17 0.2 2.09 0.67 3.17 2.8 2.5 4.83-0.67 2.02-2.86 3.12-4.95 2.45-2.09-0.67-3.17-2.79-2.5-4.82 0.55-1.64 2.1-2.67 3.77-2.65l0 0zm54.51 12.7 0.04 0c9.38 0 17.69 2.21 24.03 6.17l-8.87 21.64 22.53 5.79c-1.19 14.48-12.42 31-30.8 42.1-0.82 0.5-10.24 5.84-12.01 6.6-0.49 0.21-1.62 0.72-2.68 1.2-1.06 0.48-2.21 1.01-2.04 0.93l-1.74 0.79 0.78 1.75c0.08 0.18 2.4 5.39 2.98 6.63 2.09 5.69 3.78 12 4.96 18.33l-8.42 0 0-0.03-0.8 0c-0.4-1.28-1-2.52-2-3.54-2.76-2.8-6.93-3.17-10.26-1.41l-12-12.39c1.84-2.66 3.79-5.48 3.79-5.48l0.05-0.08 0.05-0.08c0.41-0.73 0.5-1.19 0.72-1.77 0.03 0.02 0.04 0.03 0.08 0.04 1.34 0.58 3.14 1.18 5.13 1.13 7.3-0.02 13.26-5.97 13.26-13.28 0-2.35-0.77-4.45-1.85-6.37l6.44 0.04c1.15 3.65 4.48 6.35 8.53 6.37 4.96 0.04 9.09-3.91 9.08-8.82 0-4.91-4.12-8.87-9.08-8.91-4.04-0.03-7.38 2.64-8.53 6.26l-11.37-0.06c-1.93-1.1-4.13-1.81-6.51-1.81l-0.02 0-28.24 0 54.76-15.69c2.34 3.72 6.83 5.72 11.26 4.45 5.34-1.53 8.46-7.12 6.91-12.42-1.56-5.3-7.19-8.35-12.53-6.83-4.43 1.27-7.15 5.34-7.13 9.71l-58.97 16.89 44.38-27.01c2.84 2.5 7 3.14 10.37 1.08 4.13-2.51 5.4-7.99 2.84-12.12-2.56-4.13-8.02-5.48-12.15-2.96-3.36 2.05-4.68 6.02-3.73 9.67l-47.1 28.66 32.62-47.46c1.74-0.65 4.12-1.54 5.11-1.95 9.62-3.92 19.3-5.79 28.13-5.79l0 0zm-155.45 0.02 0 0c8.84 0.02 18.53 1.91 28.15 5.84 1.06 0.44 3.68 1.42 5.43 2.08l32.36 47.1-47.1-28.66c0.95-3.65-0.37-7.62-3.73-9.66-4.13-2.52-9.59-1.17-12.15 2.96-2.56 4.13-1.3 9.6 2.84 12.12 3.37 2.05 7.52 1.42 10.37-1.08l44.41 27.02-59-16.9c0.03-4.38-2.7-8.44-7.12-9.71-5.34-1.53-10.97 1.52-12.53 6.82-1.55 5.3 1.57 10.88 6.91 12.41 4.43 1.27 8.93-0.72 11.26-4.44l55.41 15.87-47.82 0c-1.6-2.54-4.22-4.42-7.47-4.39-3.22 0.02-5.81 1.88-7.43 4.39l-16.88 0c-8.22-8.96-13.01-18.98-13.75-28.2l22.62-5.78-8.84-21.65c6.35-3.95 14.66-6.15 24.05-6.14zm10.72 20.37 0 0c0.62 0.03 1.24 0.2 1.8 0.55 1.82 1.11 2.37 3.43 1.22 5.29-1.16 1.87-3.54 2.44-5.36 1.33-1.82-1.11-2.37-3.42-1.22-5.29 0.8-1.28 2.18-1.95 3.55-1.88zm134.09 0.19 0 0c1.37-0.06 2.77 0.6 3.56 1.88 1.16 1.86 0.61 4.18-1.22 5.29-1.82 1.11-4.2 0.54-5.36-1.32-1.15-1.86-0.61-4.19 1.21-5.29 0.57-0.35 1.18-0.53 1.8-0.56zm-153.27 15.29 0 0 0.02 0c0.46-0.02 0.96 0.05 1.47 0.19 2.66 0.76 4.14 3.43 3.38 6.03-0.76 2.6-3.49 4.09-6.16 3.32-2.66-0.76-4.14-3.43-3.38-6.03 0.62-2.11 2.55-3.48 4.67-3.52zm172.45 0.18 0 0c2.12 0.04 4.05 1.41 4.67 3.53 0.76 2.6-0.72 5.27-3.38 6.03-2.66 0.76-5.39-0.73-6.16-3.33-0.76-2.6 0.71-5.27 3.38-6.03 0.5-0.14 1-0.21 1.49-0.2zm-86.21 18.72c4.38 0 7.87 3 8.96 7.02l-17.92 0c1.09-4.02 4.58-7.02 8.96-7.02zm-77.55 5.67c2.39-0.02 4.44 1.33 5.4 3.28l-10.79 0c0.99-1.93 3.02-3.26 5.38-3.28zm155.09 1.92c2.31 0.02 4.11 1.8 4.11 3.96 0.02 2.14-1.75 3.87-4.07 3.85-2.32-0.02-4.11-1.8-4.11-3.94-0.02-2.14 1.76-3.87 4.07-3.86l0 0zm-26.38 4.67 0 0c4.46 0 8.03 3.58 8.03 8.05 0 4.47-3.58 8.05-8.05 8.05-2.18 0-3.56-0.55-4.95-1.8-0.02-0.02-0.02-0.03-0.03-0.05-0.14-0.2-0.34-0.5-0.59-0.84-0.51-0.68-1.25-1.58-2.23-2.48-1.96-1.81-4.97-3.69-8.9-3.7l-166.87 0c-0.18-2.37-0.29-4.77-0.34-7.17l183.92-0.06zm-183.11 12.5c6.48 0 45.97 0 86.12 0 20.58 0 40.87 0 56.03 0l0.02 0.02c7.58 0 13.88 0 18.28 0 2.2 0 3.93 0 5.11 0 0.59 0 1.05 0 1.35 0 0.13 0 0.23 0 0.3 0 1.37 0.15 3.1 1.18 4.36 2.38 0.63 0.6 1.15 1.23 1.47 1.69 0.12 0.18 0.18 0.28 0.23 0.38l0.1 0.37c0.08 0.3-0.19 0.88-0.77 1.96 0.09-0.16-0.18 0.28-0.48 0.74-0.31 0.46-0.72 1.07-1.21 1.79-0.98 1.43-2.24 3.25-3.49 5.05-2.49 3.59-4.93 7.07-4.93 7.07l-0.02 0.02-0.02 0.02c-1.1 1.68-1.75 3.71-1.75 5.89 0 4.07 2.24 7.63 5.59 9.33 1 0.5 2.11 0.79 3.25 0.92 0.26 0.05 0.56 0.11 0.59 0.11 0.02 0 0.04 0 0.06 0 0.05 0 0.11 0 0.2 0 0.17 0 0.42 0 0.74 0 0.64 0 1.58 0 2.77 0 2.38 0 5.76 0 9.82 0 8.12 0 18.94 0 29.75-0.02 20.18 0 37.75-0.02 40.34-0.02-0.57 1.27-2.2 4.88-3.35 7.23-13.6 0-96.09 0.02-111.19 0-2.21-0.4-3.85-2.2-3.85-4.7 0-1.06 0.32-2.03 0.85-2.83l0.36-0.54c1.44-2.04 6.4-9.11 8.6-12.28l0.18 0.18 1.25-2.18c0.88-1.53 1.39-3.32 1.39-5.22 0-5.56-4.35-10.18-9.8-10.26l-0.02 0-137.24 0c-0.4-2.34-0.72-4.7-0.99-7.07zm177.08 3.79 0.05 0.79c0.03-0.22-0.06-0.24-0.07-0.4-0.03-0.15 0.06-0.24 0.02-0.39zm-175.03 8.59 136.17 0.05c2.52 0.04 4.6 2.17 4.6 4.93 0 0.92-0.25 1.76-0.67 2.51-1.04 1.48-10.17 14.51-10.17 14.51l-0.02 0.02-0.02 0.02c-1.11 1.66-1.76 3.67-1.76 5.83 0 4.5 2.9 8.21 6.88 9.54l0 0.6 1.88 0c-0.34 0-0.29 0.02 0.2 0.02 0.02 0 0.04 0 0.07 0 0.05 0 0.13 0 0.22 0 0.19 0 0.47 0 0.84 0 0.73 0 1.81 0 3.17 0 2.73 0 6.65 0 11.38 0 9.46 0 22.2-0.02 35.34-0.02 24.84-0.02 49.05-0.04 57.39-0.05-0.46 0.8-0.54 0.95-1.11 1.9-1.22 2.05-2.43 4.03-3.3 5.38l-75.06 0c-14.66 0-28.46 0-38.6 0-5.07 0-9.23 0-12.12 0-1.45 0-2.58 0-3.35 0-0.39 0-0.68 0-0.88 0-0.05 0-0.07 0-0.11 0-2.44-0.38-3.9-1.42-4.82-2.35-0.46-0.47-0.78-0.93-0.97-1.24-0.07-0.11-0.1-0.18-0.13-0.25-0.03-0.22-0.06-0.45-0.06-0.64 0-1.09 0.32-2.08 0.85-2.9l0.62-0.95c0.57-0.83 2.24-3.25 4.46-6.47 1.28-1.86 2.56-3.72 3.53-5.13 0.13-0.2 0.21-0.3 0.33-0.48l0.17 0.17 1.24-2.2c0.87-1.54 1.38-3.35 1.38-5.27 0-5.61-4.33-10.3-9.78-10.38l-0.02 0-0.13 0-105.96 0.02c-0.64-2.36-1.19-4.75-1.7-7.16l0.02-0.02zm168.18 7.13c3.52 3.48 10.52 10.57 11.62 11.69-0.2 0.39-0.38 0.79-0.53 1.2l-10.53 0c-0.09 0-0.09 0-0.15 0 0.31 0 0.35 0.02 0 0.02-0.37 0-0.31-0.02 0-0.02-0.05 0-0.05 0-0.11 0-2.48-0.06-4.54-2.21-4.54-5.03 0-1.09 0.32-2.08 0.85-2.89l0.56-0.85c0.24-0.35 0.5-0.74 0.86-1.26 0.53-0.77 1.27-1.85 1.96-2.85zm-164.76 5.33 104.33 0.04c2.49 0.04 4.57 2.2 4.57 5.03 0 0.94-0.26 1.81-0.68 2.58-1.03 1.49-10.14 14.71-10.14 14.71l-0.02 0.02-0.02 0.02c-0.56 0.85-0.61 1.97-0.91 2.97-1.52-0.76-3.29-1.41-5.51-1.41-7.31 0-13.28 5.97-13.28 13.29 0 7.31 5.97 13.28 13.28 13.28l131.93 0c-24.25 25.95-58.75 42.19-97.08 42.19-59.38 0-109.45-39.01-126.49-92.72l0.02 0zm183.88 6.38 0.02 0.02c0.96-0.02 1.92 0.35 2.68 1.12 0.02 0.02 0 0.03 0.02 0.04l-5.46 0 0-0.02c0.77-0.78 1.75-1.15 2.74-1.16zm-50.36 13.7 0.24 0.02c-0.02 0-0.13 0-0.15 0-0.05 0-0.03-0.02-0.09-0.02zm-0.03 5.47 0.19 0.02c-0.02 0-0.02 0-0.03 0-0.02 0-0.1 0-0.15-0.02zm-41.84 3.64c2.37 0 3.54 0.73 5.83 2.66 2.77 4.24 7.05 5.66 7.05 5.66l0.08 0.03 0.08 0.02c0 0 1.99 0.5 3.67 0.5l125.59 0c-0.42 0.55-0.77 1.03-1.24 1.65-1.59 2.1-3.23 4.2-4.33 5.54-30.39 0.02-136.74 0.04-136.74 0.04-4.46 0-8.04-3.58-8.04-8.04 0-4.47 3.58-8.05 8.05-8.05zm15.32 7.37 0.11 0.02c0 0 0 0-0.03 0-0.03-0.02-0.08-0.02-0.08-0.02z"/></g></g></svg>