<svg xmlns:svg="http://www.w3.org/2000/svg" xmlns="http://www.w3.org/2000/svg" width="249.57" height="248.19" version="1.1"><g transform="translate(-963.48948,-831.5746)"><path d="m1084.95 967.82 0 9.58 27.87 0 0 16.42 16.61 0 0-26-44.48 0zm-4.29 16.42 0-16.42-32.66 0 0 26 16.23 0 0-16.42 3.42 0 0 16.42 41.25 0 0-9.58-28.24 0zm-1.18-80.74 0 8.41-29.92 0 0 10.06 29.92 0 0 5.47-31.48 0 0 38.32 81.43 0 0-38.32-31.48 0 0-5.47 29.92 0 0-10.06-29.92 0 0-8.41zm-13.87 32.16 13.69 0 0 5.47-13.69 0zm32.16 0 13.69 0 0 5.47-13.69 0zm-32.16 14.37 13.69 0 0 5.47-13.69 0zm32.16 0 13.69 0 0 5.47-13.69 0z" fill="#50d0b0"/><path d="M172.08 0C156.99-0.15 140.9 4.56 125.07 15.82L138.36 28.93C188.79-8.49 262.52 65.56 216.21 111.96 207.33 120.85 151.63 176.72 125.82 202.61L138.51 215.13 228.46 124.67C275.29 76.15 231.31 0.62 172.08 0zM80.79 0.05C27.67-0.15-22.93 62.28 17.68 121.26L30.72 107.92C-4.04 58.02 69.06-13.89 115.02 31.98 123.77 40.72 178.03 94.81 204.43 121.12L216.94 108.44 127.73 19.73C113.55 6.04 97.05 0.11 80.79 0.05zM110.47 29.47L17.93 122.52C-38.2 184.44 48.81 287.94 122.74 230.33L110.12 217.88C60.17 256.23-14.44 181.72 32.08 135.11 41.03 126.15 97.53 69.47 124.05 42.87L110.47 29.47zM45.02 123.91L31.69 137.57 124.9 230.26C187.2 286.74 291.62 198.28 231.61 124.06L219.15 136.68C260 186.61 184.53 263.06 137.48 216.11 128.38 207.01 70.01 148.83 45.02 123.91z" transform="translate(963.48948,831.5746)" fill="#50d0b0"/></g></svg>