<svg xmlns:svg="http://www.w3.org/2000/svg" xmlns="http://www.w3.org/2000/svg" version="1.1" width="135" height="129" xml:space="preserve"><path d="M124.1 64.5A56.6 56.6 0 0 1 67.5 121.1 56.6 56.6 0 0 1 10.9 64.5 56.6 56.6 0 0 1 67.5 7.9 56.6 56.6 0 0 1 124.1 64.5Z" fill="#fff"/><path d="M67.5 7.9C36.2 7.9 10.9 33.2 10.9 64.5 10.9 79.5 16.8 93.2 26.3 103.3 13.2 87.7 12.2 60.1 48.5 50.1 36.4 45.6 27.2 30 27.2 27.5L54.9 27.5C56.7 43.8 75 50.2 77 50.2L122.3 50.2C115.9 25.9 93.8 7.9 67.5 7.9zM70.9 54.1C65.7 54.1 41 63.7 51.7 90.2 60.4 111.8 100.2 109 123.6 72.2 123.9 69.7 124.1 67.1 124.1 64.5 124.1 60.9 123.8 57.5 123.1 54.1L70.9 54.1zM120.5 84.5C98.8 112 53.9 123 33.6 109.8 43.1 116.9 54.8 121.1 67.5 121.1 91.7 121.1 112.4 105.9 120.5 84.5z" fill="#52639a"/></svg>