<svg xmlns:svg="http://www.w3.org/2000/svg" xmlns="http://www.w3.org/2000/svg" version="1.1" xml:space="preserve" width="192.15" height="133.2"><path d="m192.03 67.37c0 17.4-51.4 55.5-106.9 65.7-2.1 0.1 10.4-10.5 8.3-10.5-17 0-93.3-28.9-93.3-58.6 0-13 53.7-54.7 105.1-63.8 4.8-0.8-12.1 8.9-7.5 8.9 42.7 10.2 94.3 33.2 94.3 58.3z" fill="#2a582a"/><path d="m101.73 1.97c-2.8 0.4-47.5 15.1-48 34.9-0.3 15.8 33.6 26 41 31.1 8.4 5.8 24.1 17.2 20.2 29.7-5.7 18.1-24.5 30.9-26.3 32.9 4-0.2 49.1-15.4 49.1-32.3 0-21.6-36.3-31.4-45.8-36-4.1-2-21.2-17.4-17.1-28.3 5.4-13.7 26.9-32 26.9-32z" fill="#fff"/></svg>