<?xml version="1.0" encoding="UTF-8" standalone="no"?>
<svg
   xmlns:dc="http://purl.org/dc/elements/1.1/"
   xmlns:cc="http://creativecommons.org/ns#"
   xmlns:rdf="http://www.w3.org/1999/02/22-rdf-syntax-ns#"
   xmlns:svg="http://www.w3.org/2000/svg"
   xmlns="http://www.w3.org/2000/svg"
   id="svg8"
   version="1.1"
   viewBox="0 0 99.860313 83.043701"
   height="83.043701mm"
   width="99.860313mm">
  <defs
     id="defs2">
    <pattern
       id="EMFhbasepattern"
       patternUnits="userSpaceOnUse"
       width="6"
       height="6"
       x="0"
       y="0" />
  </defs>
  <metadata
     id="metadata5">
    <rdf:RDF>
      <cc:Work
         rdf:about="">
        <dc:format>image/svg+xml</dc:format>
        <dc:type
           rdf:resource="http://purl.org/dc/dcmitype/StillImage" />
        <dc:title></dc:title>
      </cc:Work>
    </rdf:RDF>
  </metadata>
  <g
     transform="translate(-102.41339,-139.48318)"
     id="layer1">
    <path
       style="fill:#008fca;fill-opacity:1;fill-rule:evenodd;stroke:none;stroke-width:0.26458332"
       d="m 151.35449,212.37998 c 16.09234,1.10982 30.0245,-11.01889 31.14423,-27.11123 1.45664,-21.13606 -16.67697,-40.23085 -37.43649,-41.65776 -4.12218,-0.28736 -8.14526,0.0694 -11.96026,0.97109 l 7.13454,-2.85381 c 5.5689,-1.78364 11.55398,-2.55654 17.75706,-2.13045 26.1996,1.81336 45.97811,24.52496 44.16476,50.72456 -0.81255,11.87107 -5.91572,22.41433 -13.68444,30.23259 l -2.49708,1.78363 c -6.48054,-4.5879 -14.03126,-7.79844 -22.25579,-9.18571 z"
       id="path818" />
    <path
       style="fill:#008fca;fill-opacity:1;fill-rule:evenodd;stroke:none;stroke-width:0.26458332"
       d="m 151.3644,212.38989 c -16.08243,-1.10981 -28.22105,-15.05188 -27.11123,-31.12441 1.03054,-14.86361 12.9908,-26.34823 27.47787,-27.15087 l -3.99336,-0.85218 c -20.70006,-1.4269 -38.65531,14.19971 -40.09212,34.90968 -0.80264,11.72244 4.68699,23.39533 12.68361,31.75859 l 2.68536,2.59618 c 6.86699,-4.9149 14.90326,-8.25426 23.55388,-9.54244 z"
       id="path820" />
    <path
       style="fill:#008fca;fill-opacity:1;fill-rule:evenodd;stroke:none;stroke-width:0.26458332"
       d="m 166.12893,176.94513 c 0,6.95617 -5.63827,12.59443 -12.59444,12.59443 -6.94626,0 -12.58453,-5.63826 -12.58453,-12.59443 0,-6.94627 5.63827,-12.58453 12.58453,-12.58453 6.95617,0 12.59444,5.63826 12.59444,12.58453 z"
       id="path822" />
    <path
       style="fill:#008fc9;fill-opacity:1;fill-rule:evenodd;stroke:none;stroke-width:0.26458332"
       d="m 155.49649,184.64448 c 11.12789,1.34763 21.22524,0.0198 30.18304,-7.07508 -1.07018,4.61763 -4.23117,10.22617 -8.05607,13.0998 -4.54827,3.41863 -10.20635,4.99417 -15.78516,5.59863 -10.9099,1.19899 -19.77852,-3.13127 -30.31187,-4.578 -8.74971,-1.18909 -23.30615,-1.73409 -28.4985,7.6399 0,0 3.81499,-6.8769 3.97354,-7.16426 6.57962,-11.84135 18.90652,-12.03953 30.81723,-10.31535 5.88599,0.85218 11.77198,2.071 17.67779,2.79436 z"
       id="path824" />
    <path
       style="fill:#ffffff;fill-opacity:1;fill-rule:evenodd;stroke:none;stroke-width:0.26458332"
       d="m 155.40731,185.33811 0.0892,-0.69363 z"
       id="path826" />
    <path
       style="fill:#ffffff;fill-opacity:1;fill-rule:evenodd;stroke:none;stroke-width:0.26458332"
       d="m 177.19737,190.10438 0.42609,0.56482 z"
       id="path840" />
    <path
       style="fill:#ffffff;fill-opacity:1;fill-rule:evenodd;stroke:none;stroke-width:0.26458332"
       d="m 161.75902,195.56428 0.0793,0.70355 z"
       id="path846" />
    <path
       style="fill:#ffffff;fill-opacity:1;fill-rule:evenodd;stroke:none;stroke-width:0.26458332"
       d="m 161.8383,196.26783 0.0793,0.70354 c -1.32782,0.13873 -2.62591,0.20809 -3.90418,0.20809 v -0.70355 -0.70354 c 1.22872,0 2.47727,-0.0594 3.74563,-0.20809 z"
       id="path848" />
    <path
       d="m 484.86133,681.68945 c -8.23933,0 -16.3292,0.5612 -24.11914,1.98438 -7.86486,1.42314 -15.42944,3.63394 -22.50781,6.92969 -7.15325,3.3332 -13.85862,7.67649 -19.92579,13.36914 -6.06716,5.65519 -11.53337,12.58476 -16.21484,21.04882 -0.59921,1.08609 -15.01953,27.07813 -15.01953,27.07813 l 2.32226,1.27344 2.32227,1.27343 c 3.29575,-5.87992 7.60222,-10.71246 12.6582,-14.60742 5.13086,-3.93241 11.01054,-6.92866 17.33985,-9.17578 12.9208,-4.60652 27.67727,-6.14062 41.83398,-6.14062 11.98451,0 23.51913,1.08566 33.18164,2.39648 35.20452,4.83126 65.50455,18.12695 100.48438,18.12695 v -2.66015 -2.65821 c -34.7551,0 -64.792,-13.25893 -99.73438,-18.05273 -9.8872,-1.34827 -21.68495,-2.4707 -33.93164,-2.4707 -14.75595,0 -30.14826,1.6476 -43.63086,6.4414 -6.15899,2.18762 -11.91902,5.07789 -17.07422,8.73828 1.51944,-2.73977 3.73537,-6.73423 3.89063,-7.01562 4.41929,-7.90231 9.51247,-14.41854 15.20508,-19.69922 5.65523,-5.28068 11.873,-9.36453 18.50195,-12.43555 6.70382,-3.10847 13.81894,-5.20481 21.23437,-6.51562 7.49031,-1.34827 15.24387,-1.91016 23.1836,-1.91016 11.72239,0 23.74466,1.19913 35.65429,2.92188 l 0.37305,-2.62305 0.375,-2.62109 c -12.17182,-1.7602 -24.45526,-2.9961 -36.40234,-2.9961 z m 221.22656,-17.37695 -5.95508,4.71875 c -12.88339,10.2243 -26.40223,17.19007 -40.52148,21.60937 -14.19421,4.45675 -28.95113,6.33008 -44.34375,6.33008 -8.87607,0 -17.97602,-0.59911 -27.22656,-1.72265 -22.32118,-2.73396 -44.53109,-7.34167 -66.77735,-10.5625 l -0.375,2.62109 -0.37305,2.62305 c 22.24627,3.22084 44.52844,7.82659 66.84961,10.56054 l 0.33789,-2.62109 -0.33593,2.62109 c 9.51273,1.161 18.79963,1.79883 27.90039,1.79883 15.91695,0 31.23501,-1.94813 45.91601,-6.55468 12.42225,-3.87799 24.36535,-9.64918 35.83203,-17.72071 -2.15729,6.31383 -5.17231,12.84294 -8.83007,18.95703 -5.13086,8.53898 -11.45947,16.28998 -18.46289,21.53321 -8.35174,6.29185 -17.75182,10.89956 -27.60157,14.19531 -9.96211,3.3332 -20.37396,5.31787 -30.74804,6.4414 l 0.29883,2.65821 0.30078,2.66015 c 10.71114,-1.16099 21.53481,-3.29665 31.83398,-6.74218 10.41158,-3.48303 20.29811,-8.31441 29.13672,-14.94336 7.45285,-5.61774 14.30709,-13.89304 19.8125,-23.03125 5.43046,-9.10073 9.54953,-19.02528 11.60937,-28.01367 z"
       style="fill:#ffffff;fill-opacity:1;fill-rule:evenodd;stroke:none;stroke-width:0.99999994"
       transform="scale(0.26458333)"
       id="path850" />
    <path
       style="fill:#ffffff;fill-opacity:1;fill-rule:evenodd;stroke:none;stroke-width:0.26458332"
       d="m 131.62552,190.9962 -0.0991,0.69363 z"
       id="path852" />
    <path
       style="fill:#ffffff;fill-opacity:1;fill-rule:evenodd;stroke:none;stroke-width:0.26458332"
       d="m 102.41356,198.99282 0.61437,0.33691 0.61436,0.33691 z"
       id="path862" />
    <path
       style="fill:#ffffff;fill-opacity:1;fill-rule:evenodd;stroke:none;stroke-width:0.26458332"
       d="m 106.3871,191.82856 0.61437,0.33691 z"
       id="path866" />
    <path
       style="fill:#ffffff;fill-opacity:1;fill-rule:evenodd;stroke:none;stroke-width:0.26458332"
       d="m 137.91779,181.15648 -0.0991,0.69364 z"
       id="path878" />
    <path
       style="fill:#ffffff;fill-opacity:1;fill-rule:evenodd;stroke:none;stroke-width:0.26458332"
       d="m 168.33865,194.83101 c 5.49954,0.66391 11.0288,0.90172 16.5977,0 5.95536,-0.96118 12.61426,-3.67627 15.22035,-9.67126 0,0.01 -3.26009,7.50117 -3.26009,7.52099 -3.88436,9.08662 -13.00071,12.76289 -22.21615,13.77362 -10.90989,1.19899 -19.78843,-3.13127 -30.31187,-4.578 -8.74971,-1.18909 -23.31605,-1.73408 -28.50841,7.6399 0,0 3.8249,-6.88681 3.97354,-7.16426 6.58954,-11.84135 18.90652,-12.03953 30.82714,-10.31535 5.88599,0.85218 11.77198,2.071 17.67779,2.79436 z"
       id="path882" />
    <path
       style="fill:#008ec9;fill-opacity:1;fill-rule:evenodd;stroke:none;stroke-width:0.26458332"
       d="m 168.24947,195.52465 0.0892,-0.69364 z"
       id="path884" />
    <path
       id="path886"
       transform="scale(0.26458333)"
       d="m 754.0625,698.76758 c -2.32203,5.35555 -5.58,9.96143 -9.4375,13.96875 -3.93241,4.00732 -8.50169,7.37863 -13.44531,10.1875 -10.07448,5.69265 -21.68327,9.06402 -32.61914,10.82422 -9.62506,1.53554 -19.17638,2.20898 -28.72657,2.20898 -11.12315,0 -22.20762,-0.89817 -33.25586,-2.20898 -22.32115,-2.73396 -44.53108,-7.34167 -66.77734,-10.5625 -12.17178,-1.7602 -24.45529,-2.9961 -36.40234,-2.9961 -8.27683,0 -16.36631,0.56315 -24.15625,1.98633 -7.86482,1.42314 -15.39204,3.63199 -22.50781,6.92774 -7.15329,3.3332 -13.82117,7.67844 -19.92579,13.37109 -6.06716,5.61774 -11.49595,12.58316 -16.21484,21.00977 l 2.32031,1.31054 -2.35937,-1.27344 c -0.56179,1.04863 -14.98047,27.07813 -14.98047,27.07813 l 2.32226,1.27344 2.32227,1.27343 c 0,0 5.55771,-9.99459 10.01758,-18.01562 l 1.03125,1.3125 1.60937,2.0957 c 5.1309,-3.93241 11.01054,-6.9287 17.33985,-9.17578 12.92084,-4.60656 27.71438,-6.14062 41.87109,-6.14062 11.9845,0 23.52108,1.08566 33.18359,2.39648 35.16711,4.83126 65.5026,18.12695 100.48243,18.12695 4.83125,0 9.73732,-0.26277 14.75586,-0.78711 8.83857,-0.97372 17.67621,-2.58318 26.17773,-5.01757 8.53897,-2.43436 16.7785,-5.69412 24.34375,-9.88868 7.64013,-4.2695 14.64412,-9.51179 20.67383,-15.91601 6.02971,-6.40422 11.12362,-13.96967 14.90625,-22.8457 l -2.43555,-1.04883 h 0.0762 l -0.0762,-0.0371 2.47266,1.01172 v -0.0391 c 0.0378,-0.037 0.0371,-0.0364 0.0371,-0.0742 0.037,-0.0374 0.0364,-0.1126 0.0742,-0.1504 0.0374,-0.11224 0.11259,-0.22337 0.15039,-0.37304 0.0748,-0.14978 0.14977,-0.33831 0.22461,-0.52539 0.18723,-0.37452 0.37442,-0.86208 0.63671,-1.42383 0.22474,-0.52433 0.4874,-1.12272 0.78711,-1.79688 1.12354,-2.65904 2.69688,-6.21749 4.23243,-9.77539 l -2.23438,-0.96289 c 3.38465,-3.89153 6.23185,-8.26077 8.375,-13.23047 l -2.43359,-1.04882 z m -9.11133,20.94336 c -0.41606,0.95456 -0.9425,2.17217 -1.29883,2.98828 -0.26214,0.67412 -0.5626,1.3116 -0.78711,1.83594 -0.22465,0.56179 -0.44994,1.0099 -0.59961,1.42187 -0.0748,0.18716 -0.14977,0.37572 -0.2246,0.52539 -0.0747,0.14911 -0.11165,0.26149 -0.18555,0.37305 -3.1e-4,4.7e-4 3.1e-4,10e-4 0,0.002 -9e-4,0.073 -0.0391,0.1111 -0.0391,0.14844 -0.037,0.0374 -0.0364,0.0755 -0.0742,0.11328 0,0.0374 6.8e-4,0.0735 -0.0371,0.11133 -0.019,0.0505 -0.0276,0.0895 -0.043,0.13672 -3.54894,8.20069 -8.23678,15.22446 -13.85156,21.13672 -5.61774,5.99225 -12.21004,10.89893 -19.36328,14.90625 -7.22816,4.00732 -15.05625,7.11585 -23.22071,9.40039 -8.20191,2.35944 -16.73998,3.89383 -25.3164,4.83007 -4.79381,0.56198 -9.51223,0.78711 -14.15625,0.78711 -34.7551,0 -64.82946,-13.25893 -99.73438,-18.05273 -9.88721,-1.34827 -21.68495,-2.4707 -33.93164,-2.4707 -14.79337,0 -30.18537,1.6476 -43.66797,6.4414 -6.13995,2.18086 -11.88431,5.05883 -17.02734,8.70313 1.50955,-2.7166 3.73604,-6.71015 3.88086,-6.98047 l -0.0117,-0.006 c 4.41359,-7.91978 9.49759,-14.42247 15.17969,-19.69336 5.65519,-5.28068 11.87269,-9.36258 18.53906,-12.43359 6.66641,-3.10848 13.81929,-5.20677 21.19726,-6.51758 7.49035,-1.34827 15.28094,-1.91016 23.22071,-1.91016 11.6849,0 23.70721,1.19909 35.65429,2.92188 22.24627,3.22084 44.5304,7.82655 66.85157,10.56054 11.31038,1.38569 22.58184,2.28516 33.92968,2.28516 9.84979,0 19.701,-0.67474 29.55079,-2.28516 11.57253,-1.8726 23.78173,-5.42927 34.41796,-11.45898 3.99383,-2.24653 7.73881,-4.84505 11.14844,-7.82031 z"
       style="fill:#008ec9;fill-opacity:1;fill-rule:evenodd;stroke:none;stroke-width:0.99999994" />
    <path
       style="fill:#008ec9;fill-opacity:1;fill-rule:evenodd;stroke:none;stroke-width:0.26458332"
       d="m 184.82735,194.13737 0.109,0.69364 z"
       id="path890" />
    <path
       style="fill:#008ec9;fill-opacity:1;fill-rule:evenodd;stroke:none;stroke-width:0.26458332"
       d="m 200.86024,185.15975 h -0.70354 l -0.64409,-0.27745 1.34763,-3.10154 z"
       id="path898" />
    <path
       style="fill:#008ec9;fill-opacity:1;fill-rule:evenodd;stroke:none;stroke-width:0.26458332"
       d="m 200.1567,185.15975 h 0.70354 c 0,0.01 0.01,0.109 -0.0594,0.27745 l -0.64409,-0.26754 -0.0198,-0.01 z"
       id="path900" />
    <path
       style="fill:#008ec9;fill-opacity:1;fill-rule:evenodd;stroke:none;stroke-width:0.26458332"
       d="m 200.1567,185.16966 0.64408,0.26754 c 0,0 0,0.01 -0.01,0.0198 l -0.64408,-0.27745 -0.64409,-0.27745 c 0,0 0,-0.01 0,-0.01 z"
       id="path902" />
    <path
       style="fill:#008ec9;fill-opacity:1;fill-rule:evenodd;stroke:none;stroke-width:0.26458332"
       d="m 200.14679,185.17957 0.64409,0.27745 c 0,0.01 0,0.0198 -0.01,0.0297 l -0.6441,-0.27745 -0.64408,-0.27746 c 0,-0.01 0,-0.0198 0.01,-0.0297 z"
       id="path904" />
    <path
       style="fill:#008ec9;fill-opacity:1;fill-rule:evenodd;stroke:none;stroke-width:0.26458332"
       d="m 200.13688,185.2093 0.64409,0.27745 c 0,0.01 -0.01,0.0198 -0.01,0.0396 l -0.654,-0.27745 -0.64409,-0.27746 c 0.01,-0.0198 0.01,-0.0297 0.0198,-0.0396 z"
       id="path906" />
    <path
       style="fill:#008ec9;fill-opacity:1;fill-rule:evenodd;stroke:none;stroke-width:0.26458332"
       d="m 200.11706,185.24893 0.654,0.27745 c -0.0198,0.0297 -0.0297,0.0594 -0.0496,0.0991 l -0.64409,-0.27745 -0.64409,-0.27745 c 0.01,-0.0396 0.0297,-0.0793 0.0396,-0.0991 z"
       id="path908" />
    <path
       style="fill:#008ec9;fill-opacity:1;fill-rule:evenodd;stroke:none;stroke-width:0.26458332"
       d="m 200.07742,185.34802 0.64409,0.27746 c -0.0198,0.0396 -0.0396,0.0892 -0.0594,0.13872 l -0.64409,-0.27745 -0.64409,-0.27745 c 0.0198,-0.0595 0.0396,-0.0991 0.0594,-0.13873 z"
       id="path910" />
    <path
       style="fill:#008ec9;fill-opacity:1;fill-rule:evenodd;stroke:none;stroke-width:0.26458332"
       d="m 200.01797,185.48675 0.64409,0.27745 c -0.0396,0.0991 -0.0991,0.22791 -0.15855,0.37655 l -0.64409,-0.28736 -0.64409,-0.27746 c 0.0594,-0.13873 0.109,-0.26754 0.15855,-0.36663 z"
       id="path912" />
    <path
       style="fill:#008ec9;fill-opacity:1;fill-rule:evenodd;stroke:none;stroke-width:0.26458332"
       d="m 199.85942,185.85339 0.64409,0.28736 c -0.0594,0.13873 -0.13872,0.29727 -0.20809,0.47563 l -0.64409,-0.27745 -0.654,-0.28736 c 0.0793,-0.16846 0.14864,-0.33691 0.218,-0.47564 z"
       id="path914" />
    <path
       style="fill:#008ec9;fill-opacity:1;fill-rule:evenodd;stroke:none;stroke-width:0.26458332"
       d="m 199.65133,186.33893 0.64409,0.27745 c -0.30718,0.70355 -0.71345,1.64491 -1.11972,2.57637 l -0.64409,-0.27746 -0.654,-0.27745 c 0.41618,-0.94137 0.82245,-1.87282 1.11972,-2.58627 z"
       id="path916" />
    <path
       style="fill:#008ec9;fill-opacity:1;fill-rule:evenodd;stroke:none;stroke-width:0.26458332"
       d="m 197.5407,192.95819 -0.64409,-0.27745 h 0.70354 v 0.14863 z"
       id="path936" />
    <path
       style="fill:#008ec9;fill-opacity:1;fill-rule:evenodd;stroke:none;stroke-width:0.26458332"
       d="m 174.60119,205.75081 0.0793,0.70355 z"
       id="path946" />
    <path
       style="fill:#008ec9;fill-opacity:1;fill-rule:evenodd;stroke:none;stroke-width:0.26458332"
       d="m 144.46769,201.18273 -0.0991,0.69363 z"
       id="path952" />
    <path
       style="fill:#008ec9;fill-opacity:1;fill-rule:evenodd;stroke:none;stroke-width:0.26458332"
       d="m 119.39772,205.43372 0.42609,0.55491 c -1.33772,1.03054 -2.47727,2.30882 -3.34927,3.86454 l -0.61436,-0.33691 -0.61436,-0.33691 c 0.96118,-1.744 2.22954,-3.16099 3.7159,-4.30054 z"
       id="path960" />
    <path
       style="fill:#008ec9;fill-opacity:1;fill-rule:evenodd;stroke:none;stroke-width:0.26458332"
       d="m 115.24582,209.17935 0.61436,0.33691 0.61436,0.33691 z"
       id="path962" />
    <path
       style="fill:#008ec9;fill-opacity:1;fill-rule:evenodd;stroke:none;stroke-width:0.26458332"
       d="m 119.21936,202.00518 0.61436,0.34682 -0.62427,-0.33691 h 0.01 z"
       id="path966" />
    <path
       style="fill:#008ec9;fill-opacity:1;fill-rule:evenodd;stroke:none;stroke-width:0.26458332"
       d="m 150.75995,191.34301 -0.0991,0.69364 z"
       id="path978" />
  </g>
</svg>
