<?xml version="1.0" encoding="UTF-8" standalone="no"?>
<!-- Created with Inkscape (http://www.inkscape.org/) -->
<svg xmlns:rdf="http://www.w3.org/1999/02/22-rdf-syntax-ns#" xmlns="http://www.w3.org/2000/svg" height="330" width="330" version="1.1" xmlns:cc="http://creativecommons.org/ns#" xmlns:dc="http://purl.org/dc/elements/1.1/">
 <metadata>
  <rdf:RDF>
   <cc:Work rdf:about="">
    <dc:format>image/svg+xml</dc:format>
    <dc:type rdf:resource="http://purl.org/dc/dcmitype/StillImage"/>
    <dc:title/>
   </cc:Work>
  </rdf:RDF>
 </metadata>
 <g transform="translate(0,-722.36217)">
  <path fill="#F00" d="m165,727.38c-6.7726,0-13.449,0.43303-20,1.25v40.406,13.344,60h-91.281c14.14-34.94,44.249-61.7,81.281-71.22v-40.969c-72.437,13.74-127.57,76.31-129.91,152.19h319.81c-2.33-75.88-57.46-138.45-129.9-152.19v40.969c37.032,9.5276,67.141,36.283,81.281,71.219h-91.281v-15h40v-40h-40v-10-8.3438-40.406c-6.5512-0.81697-13.227-1.25-20-1.25zm-159.91,165c0.426,13.853,2.6442,27.25,6.375,40h133.53v20h-68.75c13.74,18.723,33.264,32.925,55.938,40h12.812v13.344c-13.616-2.284-26.443-6.8845-38.094-13.344h-62.625c29.33,33.697,72.538,55,120.72,55,50.519,0,95.557-23.43,124.88-60h-58.5c-13.734,9.1362-29.45,15.505-46.375,18.344v-13.344h12.812c22.674-7.0749,42.198-21.277,55.938-40h-68.75v-20h133.56c3.7291-12.744,5.918-26.155,6.3438-40h-319.81zm9.625,50c5.2797,14.423,12.591,27.862,21.562,40h55.375c-13.832-10.693-25.257-24.344-33.344-40h-43.594zm256.97,0c-6.8774,13.313-16.175,25.172-27.312,35h52.906c7.3527-10.79,13.404-22.538,17.969-35h-43.562z"/>
 </g>
</svg>
