<svg xmlns:svg="http://www.w3.org/2000/svg" xmlns="http://www.w3.org/2000/svg" version="1" width="622" height="400"><path d="m0 0 622 0 0 400-622 0z" fill="#005d9e"/><path d="M311 23.14 24 203.14 301 376.86 301 349.92 67 203.14 301 56.36l0 13.88L89 203.14 301 336.05 301 309.86 131 203.14 311 90.14 491 203.14 321 309.86 321 336.67 534 203.14 321 69.61 321 56.45 554.91 203.14 321 349.83 321 376.86 598 203.14 311 23.14ZM280.97 130.69 280.97 130.69 280.97 130.69c-4.71 1.95-9.12 4.32-13.22 7.03l4.9 8.15c-7.68 5.13-14.09 11.62-19.04 19.05l-8.24-4.77c-5.43 8.3-9.25 17.58-11.26 27.29l9.21 2.31c-1.76 8.79-1.82 17.98 0.02 27.08l-9.17 2.44c0.47 2.26 1.03 4.5 1.71 6.73l5.88 14.2c1.23 2.3 2.55 4.51 3.97 6.64l8.15-4.9c5.13 7.57 11.62 13.87 19 18.75l-4.77 8.24c2.67 1.74 5.46 3.31 8.31 4.71l9.23 3.82c3.29 1.12 6.67 2.04 10.09 2.72l2.3-9.24c8.66 1.67 17.69 1.71 26.64-0.11l2.44 9.17c4.68-0.99 9.34-2.38 13.92-4.28 4.82-2 9.33-4.43 13.52-7.22l-4.9-8.15c7.55-5.1 13.86-11.53 18.74-18.86l8.24 4.77c5.47-8.35 9.32-17.7 11.31-27.48l-9.25-2.32c1.71-8.67 1.76-17.71-0.02-26.68l9.2-2.46c-0.99-4.77-2.41-9.5-4.35-14.17-1.97-4.75-4.37-9.19-7.11-13.32l-8.12 4.89c-5.07-7.57-11.5-13.89-18.81-18.79l4.77-8.24c-8.31-5.47-17.6-9.34-27.34-11.37l-2.3 9.24c-8.82-1.79-18.03-1.85-27.17-0.01l-2.46-9.2c-4.72 0.99-9.42 2.41-14.04 4.33zm5.58 38.38 4.9 8.15 0.12-0.05c2.12-1.58 4.46-2.93 7.01-3.99 2.55-1.06 5.16-1.76 7.77-2.14l0.52-0.22-2.42-9.11c4.58-0.73 9.17-0.65 13.61 0.11l-2.32 9.25c5.53 0.82 10.77 3.03 15.19 6.46l0.2 0.08 4.77-8.24c3.47 2.55 6.59 5.66 9.18 9.25l-8.18 4.91c1.64 2.17 3.05 4.58 4.14 7.22 1.15 2.77 1.86 5.61 2.22 8.45l9.27-2.45c0.69 4.42 0.63 8.86-0.07 13.15l-9.25-2.32c-0.78 5.66-3.03 11.01-6.53 15.52l8.28 4.79c-2.54 3.49-5.61 6.64-9.19 9.25l-4.92-8.21c-2.22 1.71-4.69 3.16-7.39 4.28-2.69 1.11-5.44 1.81-8.2 2.18l2.45 9.27c-4.4 0.71-8.82 0.71-13.1 0.05l2.31-9.28c-5.69-0.73-11.1-2.95-15.65-6.44l-4.79 8.28c-3.54-2.55-6.71-5.66-9.36-9.28l8.21-4.92c-1.72-2.23-3.2-4.71-4.33-7.44-1.12-2.71-1.84-5.48-2.2-8.25l-9.26 2.48c-0.73-4.56-0.67-9.13 0.07-13.56l9.24 2.3 0.03-0.08c0.78-5.32 2.86-10.37 6.06-14.69l0.27-0.65-8.14-4.71c2.6-3.58 5.8-6.77 9.5-9.41z" fill="#fff"/><path d="m282.22 133.69c-3.38 1.4-6.6 3.03-9.66 4.85l4.81 8.19c-4.2 2.5-8.04 5.42-11.49 8.68l14.66 14.66c2.21-2.04 4.67-3.85 7.32-5.43l4.56 7.75c1.52-0.92 3.12-1.73 4.81-2.43 1.71-0.71 3.43-1.28 5.18-1.71l-2.34-8.67c7.44-1.87 15.04-1.78 22.15 0.06l-2.27 8.72c3.54 0.91 6.92 2.35 10.02 4.27l4.48-7.81c2.58 1.57 5.01 3.41 7.25 5.49l14.68-14.7c-3.54-3.37-7.44-6.29-11.58-8.77l4.73-8.25c-6.13-3.65-12.76-6.4-19.66-8.19l-2.39 9.18c-10.53-2.73-21.8-2.88-32.82-0.04l-2.47-9.16c-3.34 0.87-6.68 1.95-9.96 3.31zm-35.86 31.09c-3.66 6.17-6.42 12.85-8.2 19.8l9.18 2.39c-2.64 10.31-2.82 21.33-0.12 32.12l-9.16 2.47c0.13 0.53 0.28 1.06 0.42 1.59l7.15 17.27c0.22 0.38 0.45 0.76 0.68 1.14l8.19-4.81c2.56 4.3 5.55 8.25 8.9 11.77l14.66-14.66c-2.13-2.29-4.04-4.83-5.68-7.59l7.76-4.53c-0.9-1.5-1.68-3.08-2.37-4.74-0.78-1.87-1.37-3.76-1.81-5.68l-8.7 2.35c-1.73-7.2-1.62-14.54 0.12-21.43l8.72 2.27c0.9-3.6 2.35-7.04 4.3-10.2l-7.81-4.48c1.58-2.6 3.42-5.04 5.51-7.29l-14.68-14.69c-3.39 3.56-6.31 7.49-8.8 11.66l-8.25-4.73zm112.46-6.7-14.66 14.66c1.98 2.15 3.76 4.53 5.31 7.1l-7.76 4.53c0.98 1.59 1.83 3.28 2.57 5.06 0.69 1.66 1.25 3.33 1.67 5.02l8.67-2.34c1.89 7.39 1.8 14.94 0.02 22.01l-8.69-2.29c-0.88 3.56-2.3 6.96-4.21 10.1l7.81 4.48c-1.56 2.59-3.38 5.02-5.45 7.26l14.68 14.69c3.36-3.56 6.27-7.47 8.74-11.64l8.25 4.73c3.63-6.15 6.37-12.79 8.14-19.71l-9.18-2.39c2.68-10.49 2.79-21.71-0.07-32.68l9.16-2.47c-0.86-3.29-1.94-6.57-3.28-9.8-1.43-3.46-3.11-6.76-4.97-9.88l-8.19 4.81c-2.47-4.12-5.35-7.88-8.56-11.27zm-78.32 78.2-14.68 14.7c3.58 3.38 7.51 6.34 11.7 8.82l-4.72 8.21c6.19 3.64 12.88 6.39 19.85 8.15l2.39-9.18c10.31 2.59 21.31 2.71 32.09-0.03l2.47 9.16c0.9-0.23 1.82-0.45 2.71-0.72l14.67-6.08c0.86-0.47 1.71-0.96 2.54-1.46l-4.82-8.22c4.26-2.54 8.15-5.49 11.64-8.81l-14.66-14.66c-2.25 2.1-4.75 3.97-7.46 5.59l-4.53-7.76c-1.55 0.94-3.18 1.76-4.9 2.47-1.8 0.75-3.61 1.35-5.45 1.78l2.34 8.67c-7.18 1.76-14.5 1.69-21.38-0.01l2.27-8.72c-3.6-0.87-7.04-2.31-10.21-4.23l-4.48 7.81c-2.63-1.57-5.11-3.4-7.39-5.5z" fill="#df0029"/></svg>