<?xml version="1.0" encoding="UTF-8"?><svg width="454" height="452" viewBox="23 25 454 452" xmlns="http://www.w3.org/2000/svg">
 <g xmlns="http://www.w3.org/2000/svg" fill="#3658b8">
  <circle cx="349.9" cy="260.1" r="21.83"/>
  <path d="m260.4 25.25l-8.9 29.99c107 0.79 193.3 87.46 193.3 194.8 0 98.6-72.8 179.7-167.7 192.9l-9.3 31.4c115.8-9.1 207.2-106.2 207.2-224.3 0-120.6-95.3-219.3-214.6-224.8zm-28.2 0.45c-115.8 9.1-207.2 106.2-207.2 224.3 0 120.6 95.3 219.3 214.6 224.8l8.9-30c-107-0.8-193.3-87.5-193.3-194.8 0.02-98.6 72.8-179.8 167.7-192.9l9.3-31.4z"/>
 </g>
 <path xmlns="http://www.w3.org/2000/svg" stroke="#3658b8" stroke-width="30.22" stroke-linejoin="round" fill="none" d="m290.3 451.5 26.87-90.67a63.81 60.45 0 1 0 -121.7 0h54.57v-221.6h54.57a63.81 60.45 0 1 1 -121.7 0l26.8-90.69"/>
</svg>