<?xml version="1.0" encoding="UTF-8"?>
<svg xmlns="http://www.w3.org/2000/svg" xmlns:xlink="http://www.w3.org/1999/xlink" version="1.1" width="160" height="160" viewBox="0 0 160 160" fill="#579B6B">
<g id="a">
	<path d="M80,55.9c1.7,0,3.3,0.2,4.9,0.5V3.1C83.9,3,82.8,3,81.8,3h-3.5c-1.1,0-2.1,0.1-3.2,0.2v53.3 C76.7,56.1,78.3,55.9,80,55.9z"/>
	<path d="M67.9,59.2c0,0,0.1,0,0.1-0.1c0,0,0.1,0,0.1-0.1l4-55.7c-3,0.3-6,0.8-8.9,1.4V51l-40-23.1 c-2,2.2-3.9,4.5-5.7,7L67.9,59.2z"/>
</g>
<use xlink:href="#a" transform="rotate(60,80,80)"/>
<use xlink:href="#a" transform="rotate(120,80,80)"/>
<use xlink:href="#a" transform="rotate(180,80,80)"/>
<use xlink:href="#a" transform="rotate(240,80,80)"/>
<use xlink:href="#a" transform="rotate(300,80,80)"/>
</svg>