<svg xmlns="http://www.w3.org/2000/svg" height="185" width="295">
  <path d="M35.798 81.52 4.81 103.509c-6.785 4.926-5.387 9.187-1.944 12.17l63 42.443c3.082 2.567 13.374 4.724 19.37-2.119-7.055-3.924-12.32-10.456-12.932-18.675-7.798 3.595-17.714 3.038-21.142 1.326-3.428-1.711-5.64-4.045-6.16-9.673-10.752 1.776-11.612-9.51-11.545-14.922.066-5.412 2.084-15.457 10.413-22.419zm82.227-55.534 36.512-24.341c7.116-3.024 15.967-1.42 20.045 1.125l114.239 79.773c8.87 6.15 5.486 15.655 1.219 18.788l-112.96 79.116c-8.317 5.038-19.212 4.417-22.997 1.88l-37.895-24.878c13.368-3.71 21.316-15.296 21.695-28.927 12.607.429 21.166-4.939 27.491-8.84 6.325-3.901 18.12-13.97 15.465-17.316-5.761-7.26-3.06-8.795.937-15.443 2.312-3.846-2.068-14.254-8.457-19.147-12.677-9.711-18.542-13.395-29.361-15.766-5.47-1.198-12.467-.24-17.481 2.412.762-11.456 1.934-20.15-8.452-28.436z" fill="#429138"/>
  <path d="M90.972 85.195c3.318-.096 6.728 2.833 6.708 5.786-.018 2.662-3.46 5.276-6.119 5.133-1.995-.107-3.885-2.343-4.154-4.324-.336-2.476.822-6.515 3.565-6.595zm26.235-18.71c2.71-2.726 13.96-7.397 18.512-8.488 4.55-1.09 17.656 2.179 25.568 8.693 7.912 6.515 11.346 8.427 13.398 12.375 2.051 3.95 1.864 5.576 1.125 8.387-.74 2.811-5.038 3.937-5.42 7.159-.384 3.222 5.948 3.419 4.192 9.614-1.755 6.194-13.698 13.75-23.113 16.056-11.694 2.864-17.864 3.631-30.069-2.812-.443-1.483-.119-2.66.205-4.602-4.057-2.762-9.034-9.358-11.966-17.745-2.966-3.136-4.704-6.58-9.92-7.261 3.988-5.898 10.431-11.386 15.954-16.16 1.785-1.542-1.176-2.488 1.534-5.215zM86.73 122.328c3.765-2.195 6.3-11.26 6.955-21.989.653-1.2 2.247-3.052 5.215-1.432 2.994 8.385 10.11 17.492 13.248 21.176 2.496 1.26 3.184.71 4.957.813 4.552 3.94 9.971 5.853 14.523 7.261.565 11.417-5.09 16.976-8.284 20.148-4.435 2.895-7.731 3.661-11.353 3.477-3.621-.183-3.786-1.762-5.143-4.25-1.357-2.487-5.298-1.043-5.698.108-.4 1.152-1.185 3.774-3.033 4.631-5.715.695-9.26-.49-13.023-3.557-4.506-3.586-6.914-9.053-7.875-15.75 4.255-3.835 6.34-7.09 9.511-10.636zm-3.953-32.712c-16.536-1.518-28.873.728-35.838 7.665-6.964 6.938-8.623 19.384-7.081 23.44 1.541 4.057 7.038 3.295 9.545 3.391.952 5.858.71 7.557 4.05 9.98 12.016 2.398 23.238-6.05 27.589-12.656-2.282-1.656-2.724-3.825-1.375-5.84 1.193-3.756 3.05-7.974 3.528-12.089.526-4.783.386-9.311-.418-13.89zM98.9 33.452c-1.84-.17-3.328-6.45-8.59-5.932-5.263.519-10.132 5.96-12.069 12.989-1.937 7.028-.7 21.503.462 24.82s4.92.917 5.994 3.15c1.074 2.233 4.078 8.064 6.226 12.53 5.83-6.137 10.529-14.854 18.646-17.252 1.578-.467 2.222.003 3.218-.419 2.535-1.073 3.716-1.464 6.466-5.136s2.558-12.999 1.432-18.205c-1.127-5.206-5.114-10.113-9.614-11.25-4.5-1.136-10.33 4.875-12.17 4.705zM71.641 52.095c-4.564-1.78-8.454-2.957-13.547-3.098-5.094-.14-4.78-.035-7.16 2.148-2.378 2.183-.985 6.741-1.943 7.824-.957 1.083-4.766.385-7.593 2.812-2.827 2.428-4.042 8.69-1.867 13.398s5.915 10.654 10.279 13.858c7.125-3.92 19.465-6.204 30.886-5.011-2.018-3.03-4.19-5.907-5.594-9.142-.827-2.306.766-3.458.223-5.827-1.09-2.625-2.846-6.88-3.34-9.445-.493-2.565-.4-4.415-.344-7.517z" fill="#ee859a"/>
</svg>
