<svg xmlns:svg="http://www.w3.org/2000/svg" xmlns="http://www.w3.org/2000/svg" width="295.43" height="300" version="1.1"><path d="m1.31 149.74c0-81.91 65.63-148.72 146.1-148.72 80.48 0 146.11 66.81 146.11 148.72 0 81.91-65.63 148.71-146.11 148.71-80.47 0-146.1-66.8-146.1-148.71" fill="#fff200"/><path d="m62.68 150.34c0-49.07 38.73-89.1 86.22-89.1 47.48 0 86.22 40.03 86.22 89.1 0 49.08-38.74 89.12-86.22 89.12-47.49 0-86.22-40.04-86.22-89.12" fill="#c0a0c0"/><path d="M148.44-0.01C118.17-0.1 88.25 9.25 64.43 27.07L51.63 38.67 50.96 42.67C52.96 45.33 53.63 45.99 55.62 47.33L69.62 38.67C114.36 4.07 184.63-2.71 230.79 44.66 232.79 49.99 224.14 51.99 224.14 55.32L208.15 69.31 178.84 57.32C163.53 52.65 148.87 52.65 134.22 53.32 118.24 57.99 96.93 62.65 86.27 75.96 84.94 79.3 88.94 83.96 91.61 83.96 104.92 74.63 117.58 68.63 132.23 65.31 155.54 61.98 186.18 66.64 202.83 85.95L206.84 85.95C210.16 83.29 214.17 80.63 216.83 76.64L249.46 43.34 249.44 43.33C222.01 13.97 184.97 0.1 148.44-0.01zM39.65 52.67L38.32 53.34C38.32 57.33 35.32 59.32 32.66 59.98 -1.21 82.24-22.15 202.71 38.99 252.47 42.32 251.15 43.65 249.81 44.32 247.15 7.2 230.46-13.67 99.22 43.65 67.32L65.63 92.62C68.3 100.61 58.31 107.27 57.64 114.6 44.32 148.57 50.32 187.87 72.96 216.51 74.96 217.85 76.95 216.51 77.62 215.84 77.62 213.85 85.82 211.66 85.82 211 78.62 203.49 73.01 194.77 68.58 185.07 57.12 155.64 61.76 119.49 83.62 94.63L83.61 94.63 58.3 66.66C51.64 61.99 48.31 52.67 39.65 52.67zM256.38 53.86C255.29 53.86 254.46 54.35 254.12 55.35 252.13 59.34 250.8 62.01 252.8 64.67L270.78 89.99 278.76 109.96C290.09 152.59 284.09 199.87 254.78 235.84 254.11 237.83 252.11 235.84 250.79 235.17L228.81 211.19C237.46 190.54 246.13 169.23 246.13 148.58 243.47 128.6 240.13 106.62 226.15 91.3 222.15 88.63 218.82 89.97 216.16 90.63 212.17 100.62 224.81 109.28 228.15 118.6 240.81 148.57 233.48 184.53 212.17 208.51L233.48 234.49 252.12 252.47C258.12 252.47 260.11 246.47 264.11 243.81 282.77 220.5 291.41 187.87 295.42 161.89L295.42 159.91C294.75 133.27 290.75 103.3 276.76 77.99L260.11 55.35C258.79 54.35 257.46 53.86 256.38 53.86zM148.9 71.33C136.25 74.66 134.25 89.98 127.59 99.96L124.93 100.63C115.6 95.3 104.95 89.98 94.29 91.31 90.96 104.63 98.95 119.28 102.95 133.27 90.96 133.93 76.97 141.26 66.98 147.92 68.31 157.91 80.3 161.9 88.96 165.9 90.96 167.9 94.29 167.9 96.95 169.23 93.62 183.21 88.29 197.2 92.29 210.52 94.29 211.19 95.62 211.19 96.29 211.19L115.6 206.53C117.6 208.53 116.93 210.53 117.6 211.86 122.26 222.51 129.59 232.5 138.91 233.17 142.24 229.84 139.57 225.17 143.57 222.51 146.9 222.51 150.89 221.18 154.89 222.51 156.22 225.17 155.55 228.5 156.22 231.83L158.22 232.5C166.88 227.17 171.54 216.51 178.19 208.52 186.19 210.51 192.99 215.84 199.65 221.17 197.65 223.83 195.5 225.16 192.84 227.16 163.54 241.81 131.57 241.81 103.6 225.83L88.16 213.86 46.99 256.47 72.3 279.78C113.59 302.43 154.89 304.43 196.18 293.77 214.16 282.45 232.8 277.12 243.46 261.82L243.46 261.15C242.79 258.49 240.79 255.82 238.13 254.49 232.8 258.49 229.47 261.15 226.14 264.48L196.17 280.46C152.88 296.45 101.59 289.79 63.63 257.15L88.27 231.84C89.6 231.84 93.59 232.5 94.26 233.17 124.24 251.82 158.2 254.48 188.84 241.83 195.49 235.84 204.83 233.17 209.49 227.18 209.49 223.85 206.83 222.52 206.83 220.52 204.17 220.52 202.17 218.52 200.84 218.52 204.84 202.53 202.17 187.88 199.51 172.56 209.5 167.9 224.16 164.57 226.82 156.58 220.82 145.25 210.16 140.59 199.51 135.93L198.18 132.6C202.83 119.94 209.5 109.29 206.84 97.3L204.18 97.3 171.54 105.28 168.88 102.62C168.88 97.96 167.55 94.64 166.88 90.64 162.89 81.99 158.22 72 148.9 71.33zM243.46 261.82L243.46 261.82 243.47 261.8C243.47 261.81 243.47 261.81 243.46 261.82z" fill="#000"/><path d="M148.73 84.89L148.38 85.1C144.95 87.16 142.81 89.31 140.77 92.02L140.7 92.11 140.65 92.22C135.86 103.14 137.27 112.93 143.35 123.75L143.5 124.02 143.78 124.15C146.86 125.69 150.39 124.93 152.88 124.93L153.43 124.93 161.05 113.14 160.05 112.85 160.21 112.61 161.21 112.61 161.21 109.21 161.07 109.43C160.77 100.8 159.08 91.48 152.19 85.86L152.01 85.71 148.73 84.89zM108.72 104.04C107.83 104.02 106.94 104.11 106.04 104.32L105.44 104.45 105.29 105.05C104.88 106.7 105.29 108.36 105.71 109.89 106.14 111.42 106.59 112.87 106.59 113.95L106.59 114.19 106.7 114.4C109 118.98 111 124.49 113.65 129.02 116.3 133.55 119.74 137.22 124.84 137.59L125.32 137.62 134.52 127.6 133.12 127.6C132.82 123.85 131.09 121.2 130.54 119.04L130.48 118.77 130.28 118.57C127.65 115.94 123.95 111.9 119.77 108.74 116.63 106.37 113.17 104.44 109.62 104.1 109.32 104.07 109.02 104.05 108.72 104.04zM194.51 108.81L193.4 108.94C181.05 110.32 168.17 118.36 163.96 128.2L163.81 128.52 163.91 128.87C164.63 131.39 165.97 132.94 167.3 134.09 168.62 135.24 169.87 136.03 170.73 137.18L171.08 137.64 171.65 137.57C183.54 136.18 191.75 125.14 194.48 114.18L194.51 114.06 194.51 113.94 194.51 108.81zM108.88 143.59L108.83 143.59C105.24 143.92 100.88 143.91 96.93 144.6 92.97 145.29 89.28 146.71 87.4 150.09L87.19 150.48 88.14 153.34 106.46 160.39 106.92 160C111.49 156.07 115.43 154.11 118.88 151.36L121.11 149.58 119.07 149.58C118.92 148.87 118.68 148.26 118.41 147.86 118.22 147.57 118.04 147.35 117.95 147.22 117.92 147.17 117.92 147.16 117.91 147.15L117.91 146.68 117.43 146.39C113.98 144.33 111.15 143.59 108.92 143.59L108.88 143.59zM187.98 144.88C184.5 144.89 181.15 145.6 178.26 147.76L177.86 148.06 177.86 153.1 178.31 153.39C180.39 154.78 182.59 155.79 184.36 156.84 186.12 157.88 187.4 158.93 187.92 160.26L188.1 160.71 188.57 160.85C195.64 162.97 202.54 160.16 207.75 158.86L207.91 158.82 208.06 158.72C209.01 158.09 209.69 157.79 210.29 157.18 210.9 156.58 211.16 155.67 211.16 154.56L211.16 154 210.69 153.71 198.54 146.29 198.37 146.25C195.03 145.58 191.45 144.88 187.98 144.88zM121.55 162.85L121.28 162.94C120.28 163.28 119.27 163.61 118.44 163.98 118.03 164.16 117.66 164.34 117.33 164.59 117.11 164.76 116.86 165 116.71 165.35 113.06 168.68 109.1 172.83 106.4 177.64 103.65 182.54 102.23 188.18 103.98 194.14L104.32 195.27 121.23 187.15C121.99 188.19 122.77 188.52 123.43 188.66 124.56 191.72 124.95 195.47 125.69 199.14 126.46 202.97 127.69 206.76 130.97 209.31L132.36 210.39 134.5 193.19 134.69 193.1 148.1 207.18 148.8 206.67C153.91 203.04 155.78 195.08 156.5 190.92 156.77 190.4 157.19 189.82 157.59 189.42 157.78 189.23 157.95 189.1 158.09 189L159.39 189.86C160.51 192.24 160.72 195.17 160.89 198.25 161.05 201.41 161.2 204.72 162.66 207.64L163.74 209.79 171.78 185.65 172.4 184.72 191 201.33 193.85 197.53 193.85 197.2 193.85 196.53C193.85 185.55 188.41 175.38 182.31 167.93L182.23 167.83 182.13 167.76C180.75 166.72 178.86 165.51 176.88 164.79 174.9 164.07 172.67 163.8 170.94 165.1L170.82 165.2 170.72 165.33C166.17 171.84 160.41 176.29 153.38 177.57L153.3 177.58 153.23 177.61C144.55 180.71 134.93 175.11 128.33 170.51 127.48 169.35 127.02 168.17 126.62 167.05 126.2 165.9 125.87 164.75 124.96 163.85L124.76 163.66 121.55 162.85z" fill="#fff"/><path d="M147.1 135.44C146.4 135.46 145.71 135.5 145.02 135.59 142.26 135.95 139.5 137.14 138.01 140.13L137.31 141.53 160.62 142.26 160.92 141.96 161.44 141.44 161.12 140.79C159.57 137.72 156.06 135.58 152.89 135.58 151.77 135.58 150.49 135.49 149.15 135.45 148.48 135.43 147.79 135.42 147.1 135.44zM147.62 152.92C143.22 152.92 138.89 153.95 134.43 156.35L133.46 156.87 134.07 157.78C134.57 158.53 134.57 159.23 134.57 160.06 134.57 160.47 134.55 160.91 134.69 161.42 134.8 161.84 135.1 162.3 135.52 162.61 137.01 164.73 139.2 165.98 141.66 166.83 144.18 167.7 147.04 168.2 150.01 168.86L150.32 168.93 150.62 168.8C152.9 167.82 155.42 166.99 157.69 165.76 159.96 164.54 162.02 162.88 163.13 160.29L163.15 160.25 163.16 160.21C163.6 158.89 163.1 157.72 162.57 157.09 162.3 156.77 162.05 156.54 161.91 156.39 161.88 156.36 161.89 156.37 161.88 156.36L161.88 155.86 161.22 155.62C156.49 153.93 152.02 152.91 147.62 152.92z" fill="#fff200"/></svg>