<svg xmlns="http://www.w3.org/2000/svg" viewBox="-170 -150 325 300 " width="325" height="300" fill="#50b040">
<mask id="a">
<circle r="160" fill="#fff"/>
<circle r="95" fill="#000"/>
<path d="M31.5-45A405 405 0 0 0 155 75H0" fill="none" stroke="#000"  stroke-width="10"/>
<path d="M-200-45H-50V40H-200zM60 0L160 76H40z" fill="#000"/>
</mask>
<circle r="150" mask="url(#a)"/>
<path d="M-170-40H-95L-70-5H-145zM-170 0H-95L-70 35H-145zM-170 130A405 405 0 0 0 31.5-45 405 405 0 0 0 155 75H58.309519A405 405 0 0 1 31.5 35 405 405 0 0 1 -29 90.465463L-74.83148 130z"/>
</svg>