<svg xmlns:svg="http://www.w3.org/2000/svg" xmlns="http://www.w3.org/2000/svg" width="138.16" height="158.23" version="1.1"><g transform="translate(142.62469,82.03867)"><path d="M69.08 0L47.01 38.32 0 38.32 23.5 79.12 0 119.91 47.01 119.91 69.08 158.23 91.16 119.91 138.16 119.91 114.66 79.12 138.16 38.32 91.16 38.32 69.08 0zM65.55 41.58L65.55 55.45C54.5 57.66 46.17 67.41 46.17 79.12 46.17 90.82 54.5 100.57 65.55 102.79L65.55 116.65C46.75 114.46 32.16 98.5 32.16 79.12 32.16 59.73 46.75 43.77 65.55 41.58zM75.21 41.69C92.02 44.02 105.28 57.4 107.44 74.27L93.97 74.27C92.05 64.84 84.63 57.41 75.21 55.47L75.21 41.69zM94.01 83.71L107.47 83.71C105.42 100.69 92.1 114.2 75.21 116.54L75.21 102.76C84.72 100.81 92.17 93.26 94.01 83.71z" transform="translate(-142.62469,-82.038678)" fill="#6b1d21"/></g></svg>