<svg xmlns:svg="http://www.w3.org/2000/svg" xmlns="http://www.w3.org/2000/svg" width="300" height="326.36" version="1.1"><g transform="translate(-807.20643,-869.31001)"><path d="m1036.4 918.44-16.72 26.86-0.47 0c33.67 20.78 56.12 57.99 56.12 100.45 0 65.18-52.85 118.02-118.05 118.02-65.2 0-118.05-52.84-118.05-118.02 0-41.78 21.74-78.47 54.53-99.42l-1.47 0-16.13-26.74c-41.46 26.67-68.95 73.19-68.95 126.16 0 82.79 67.13 149.93 149.94 149.93 82.92 0 150.06-67.14 150.06-149.93 0-53.75-28.3-100.86-70.81-127.32M969.81 914.84c0 0-15.33-1.84-29.84 0.49l-0.99-8.5c0 0 15.16-2.84 31.18-0.5l-0.35 8.51zm-54.59-24.35 1.26 3c0 0-25.85 8.33-37.85 16.17l3 5.23 0.59 1.02 5.24 9.1c0 0 22.02-11.76 33.76-13.51l1.75 5.75c0 0-29.25 10.5-33 14.25l7.31 12.64c17.6-10.4 38.1-16.39 60-16.39 20.89 0 40.49 5.46 57.53 14.98l6.44-11.23c0 0-10.43-8.34-34.77-14.67l1.26-6.59c0 0 16.93 3.26 36.26 14.77l5.87-10.41 0.24-0.44 2.65-4.67c0 0-20.75-11.82-41.93-17.32l0.91-3.17c0 0 19.77 4.17 42.77 16.76l8.01-14.93c0 0-27.84-17.18-64.28-21.51l-5.25 20.34c0 0-19.35-2.83-38.35 0.99l-6.84-21.33c0 0-29.84 4-58.86 21.68l8.84 15.34c0 0 8.84-7.01 37.44-15.84M909.97 968.18l0.33 0.51c0 0 21.01-13 41.35-13l0.09-9.82 0.07-8.18c0 0-19.56 0.88-37.87 8.49-4.39 1.81-8.7 4.01-12.65 6.67M960.9 945.78l-0.08 9.56c0 0 19.85 0.34 40.52 13.18l9.16-15.68c0 0-4.99-3.63-13.68-7.36-8.69-3.72-21.07-7.55-35.82-7.97" fill="#000080"/></g></svg>