<svg xmlns:svg="http://www.w3.org/2000/svg" xmlns="http://www.w3.org/2000/svg" width="337" height="378" version="1.1"><g transform="translate(-203.54724,-1019.0126)"><path d="m516.44 1139.98-25.14 16.32a138.5 138.5 0 0 1 20.03 71.42 138.5 138.5 0 0 1-135.79 138.37l0 30a168.5 168.5 0 0 0 165.79-168.37 168.5 168.5 0 0 0-24.9-87.75zM229 1140.25a168.5 168.5 0 0 0-24.66 87.47 168.5 168.5 0 0 0 164.21 168.35l0-30a138.5 138.5 0 0 1-134.21-138.35 138.5 138.5 0 0 1 19.83-71.12l-25.17-16.34zM486.3 1159.55l-17.62 11.44a111.5 111.5 0 0 1 15.66 56.73 111.5 111.5 0 0 1-108.79 111.37l0 21.04a132.5 132.5 0 0 0 129.79-132.4 132.5 132.5 0 0 0-19.04-68.17zM259.21 1159.87a132.5 132.5 0 0 0-18.87 67.85 132.5 132.5 0 0 0 128.21 132.29l0-20.94a111.5 111.5 0 0 1-107.21-111.35 111.5 111.5 0 0 1 15.48-56.41l-17.61-11.43zM463.22 1174.53l-20.97 13.62a80 80 0 0 1 10.58 39.57 80 80 0 0 1-77.29 79.9l0 25a105 105 0 0 0 102.29-104.9 105 105 0 0 0-14.61-53.19zM282.25 1174.84a105 105 0 0 0-14.41 52.88 105 105 0 0 0 100.71 104.79l0-25a80 80 0 0 1-75.71-79.79 80 80 0 0 1 10.36-39.28l-20.95-13.6zM326.55 1019.01l8.12 44.8a168.5 168.5 0 0 0-101.94 70.52l74.14 48.14a80 80 0 0 1 43.6-31.51l21.58 119.05 21.64-119.4a80 80 0 0 1 44.84 31.61l74.25-48.22a168.5 168.5 0 0 0-103.29-70.53l8.06-44.47-91 0z" fill="#dd4238"/></g></svg>