<?xml version="1.0" encoding="UTF-8" standalone="no"?>
<!-- Created with Inkscape (http://www.inkscape.org/) -->

<svg
   xmlns:dc="http://purl.org/dc/elements/1.1/"
   xmlns:cc="http://creativecommons.org/ns#"
   xmlns:rdf="http://www.w3.org/1999/02/22-rdf-syntax-ns#"
   xmlns:svg="http://www.w3.org/2000/svg"
   xmlns="http://www.w3.org/2000/svg"
   xmlns:sodipodi="http://sodipodi.sourceforge.net/DTD/sodipodi-0.dtd"
   xmlns:inkscape="http://www.inkscape.org/namespaces/inkscape"
   width="360"
   height="379.31247"
   id="svg2"
   version="1.1"
   inkscape:version="0.48.4 r9939"
   sodipodi:docname="Symbol of Naie Hokkaido.svg">
  <defs
     id="defs4" />
  <sodipodi:namedview
     id="base"
     pagecolor="#ffffff"
     bordercolor="#666666"
     borderopacity="1.0"
     inkscape:pageopacity="0.0"
     inkscape:pageshadow="2"
     inkscape:zoom="1.9745759"
     inkscape:cx="178.5625"
     inkscape:cy="188.14167"
     inkscape:document-units="px"
     inkscape:current-layer="layer1"
     showgrid="false"
     inkscape:window-width="1280"
     inkscape:window-height="961"
     inkscape:window-x="-4"
     inkscape:window-y="-4"
     inkscape:window-maximized="1"
     fit-margin-top="0"
     fit-margin-left="0"
     fit-margin-right="0"
     fit-margin-bottom="0" />
  <metadata
     id="metadata7">
    <rdf:RDF>
      <cc:Work
         rdf:about="">
        <dc:format>image/svg+xml</dc:format>
        <dc:type
           rdf:resource="http://purl.org/dc/dcmitype/StillImage" />
        <dc:title />
      </cc:Work>
    </rdf:RDF>
  </metadata>
  <g
     inkscape:label="レイヤー 1"
     inkscape:groupmode="layer"
     id="layer1"
     transform="translate(-183.875,-234.75004)">
    <path
       style="fill:#c13133;fill-opacity:1;fill-rule:evenodd;stroke:none"
       d="m 362.14245,234.75215 c -15.5531,0.0921 -31.5824,3.26136 -46.02396,10.2379 1.61983,6.29408 3.09346,12.46206 4.4419,18.52306 C 242.07118,282.90208 183.875,353.7754 183.875,438.2521 c 0,86.31341 60.80485,158.30803 141.88304,175.8104 -0.0837,-0.13947 -0.24045,-0.26851 -0.31509,-0.40941 -0.0794,-0.15184 -0.0572,-0.31935 -0.12586,-0.47278 -25.81431,-7.8216 -48.33373,-23.25772 -64.86183,-43.72402 36.85487,-20.95406 125.56569,-78.49128 150.38868,-207.5009 50.14341,18.97452 85.81011,67.42129 85.81011,124.21062 0,59.89605 -39.6961,110.44302 -94.1896,126.98305 -0.0713,0.16313 -0.0404,0.34241 -0.12615,0.50403 -0.0699,0.13325 -0.23544,0.24561 -0.3148,0.37787 81.05575,-17.51927 141.8515,-89.48171 141.8515,-175.77886 0,-81.00973 -53.53067,-149.50721 -127.14045,-172.093 -0.32501,-5.9136 -0.75427,-11.92444 -1.32285,-18.05029 C 401.36024,239.599 382.13916,234.6326 362.14245,234.75215 z M 331.83787,357.2933 c 0.66802,108.25659 -46.94903,167.39898 -72.35912,210.93446 -17.791,-22.57041 -28.3828,-51.07696 -28.3828,-82.06175 0,-62.28859 42.88253,-114.54252 100.74192,-128.87271 z"
       id="path2996"
       inkscape:connector-curvature="0" />
  </g>
</svg>
