<?xml version="1.0" encoding="UTF-8" ?>
<!DOCTYPE svg PUBLIC "-//W3C//DTD SVG 1.1//EN" "http://www.w3.org/Graphics/SVG/1.1/DTD/svg11.dtd">
<svg width="384pt" height="406pt" viewBox="0 0 384 406" version="1.1" xmlns="http://www.w3.org/2000/svg">
<path fill="#ffffff" d=" M 0.00 0.00 L 384.00 0.00 L 384.00 406.00 L 0.00 406.00 L 0.00 0.00 Z" />
<path fill="#682984" d=" M 181.50 15.55 C 182.55 14.95 183.63 16.02 184.60 16.35 C 198.30 24.22 211.91 32.29 225.76 39.89 C 226.16 55.37 225.81 70.86 225.95 86.35 C 241.10 91.38 254.92 99.90 267.02 110.23 C 280.00 102.79 292.95 95.31 305.91 87.84 C 307.27 86.87 308.98 86.61 310.38 87.68 C 322.84 94.87 335.31 102.03 347.82 109.15 C 348.06 127.03 347.83 144.92 347.93 162.81 C 334.94 170.16 322.02 177.63 309.04 185.00 C 309.82 200.02 310.70 215.21 308.04 230.12 C 321.20 238.47 335.23 245.44 348.34 253.89 C 348.18 269.70 348.28 285.51 348.31 301.33 C 338.10 307.02 327.97 312.85 317.87 318.71 C 313.92 320.86 310.14 323.37 305.99 325.10 C 304.11 324.46 302.40 323.41 300.70 322.42 C 289.22 315.56 277.53 309.09 266.01 302.31 C 254.25 312.35 240.68 320.21 226.12 325.41 C 225.52 340.75 226.41 356.14 225.64 371.48 C 211.49 379.62 197.26 387.63 183.21 395.95 C 169.13 387.73 154.99 379.61 140.87 371.47 C 141.23 355.95 140.67 340.43 140.73 324.91 C 126.65 320.35 113.69 312.57 102.37 303.08 C 88.91 310.18 76.00 318.26 62.70 325.65 C 61.42 326.60 60.05 325.40 58.89 324.88 C 45.56 317.02 32.15 309.30 18.70 301.66 C 18.72 285.11 18.71 268.56 18.70 252.01 C 32.19 244.51 45.37 236.44 58.95 229.10 C 58.73 224.05 57.68 219.07 57.80 214.01 C 57.89 203.53 57.15 192.94 59.33 182.61 C 45.61 174.71 31.99 166.62 18.12 158.99 C 17.77 142.54 18.06 126.07 17.97 109.61 C 31.88 102.29 45.12 93.73 59.02 86.39 C 72.75 94.36 86.55 102.23 100.23 110.29 C 112.50 99.97 126.45 91.45 141.66 86.24 C 141.74 70.39 141.47 54.51 141.79 38.66 C 148.06 34.14 155.21 30.94 161.77 26.85 C 168.46 23.28 174.74 18.99 181.50 15.55 Z" />
<path fill="#ffffff" d=" M 144.57 151.67 C 166.86 134.82 200.20 134.55 222.60 151.36 C 248.68 169.48 258.08 207.71 242.75 235.66 C 233.71 253.26 216.46 266.65 196.87 270.06 C 196.93 266.15 196.98 262.24 196.89 258.33 C 210.96 254.05 224.37 245.05 230.79 231.44 C 199.05 231.11 167.28 231.26 135.53 231.37 C 141.99 244.06 154.22 253.66 167.92 257.44 C 167.98 261.45 168.01 265.46 167.87 269.47 C 148.81 265.17 132.60 251.42 124.15 233.96 C 117.52 220.77 116.62 205.42 119.06 191.06 C 122.32 175.37 131.70 161.16 144.57 151.67 Z" />
<path fill="#682984" d=" M 172.50 151.59 C 184.30 149.52 196.85 150.73 207.57 156.33 C 216.54 160.77 224.23 167.71 229.51 176.22 C 198.80 176.29 168.09 176.30 137.39 176.23 C 144.67 163.34 158.19 154.68 172.50 151.59 Z" />
<path fill="#682984" d=" M 130.37 192.17 C 131.00 190.78 132.78 191.22 133.98 191.05 C 167.99 191.11 201.99 190.98 236.00 191.12 C 238.42 199.78 238.26 208.86 236.55 217.63 C 235.08 217.92 233.57 217.94 232.07 217.96 C 201.71 217.92 171.35 217.94 141.00 217.95 C 137.48 217.90 133.94 218.18 130.45 217.69 C 127.99 209.41 128.24 200.49 130.37 192.17 Z" />
</svg>
