<?xml version="1.0" encoding="UTF-8" standalone="no"?><!-- Created with Inkscape (http://www.inkscape.org/) --><svg id="svg2" xmlns="http://www.w3.org/2000/svg" height="156.5" width="301.5" version="1.1"> <path id="path3916" stroke-linejoin="bevel" d="m0.74992,75.748,0,5,33.75,22.5-3.75,2.5,0,5,37.5,25,7.5-5,37.5,25,37.5-25,37.5,25,112.5-75,0-5-33.75-22.5,3.75-2.5,0-5-7.5-5-210,0z" stroke="#000" stroke-linecap="butt" stroke-miterlimit="4" stroke-dasharray="none" stroke-width="1.5" fill="#000"/> <path id="path3862-7" fill="#ffd700" d="m150.75,25.748-37.5-25-112.5,75,37.5,25-7.5,5,37.5,25,7.5-5,37.5,25,37.5-25,37.5,25,112.5-75-37.5-25,7.5-5-37.5-25-7.5,5-37.5-25c-37.5,25-37.5,25-37.5,25z"/> <path id="path3862" stroke-linejoin="bevel" d="m150.75,25.748-37.5-25-112.5,75,37.5,25-7.5,5,37.5,25,7.5-5,37.5,25,37.5-25,37.5,25,112.5-75-37.5-25,7.5-5-37.5-25-7.5,5-37.5-25-112.5,75,37.5,25,75-50,37.5,25-75,50" stroke="#000" stroke-linecap="butt" stroke-miterlimit="4" stroke-dasharray="none" stroke-width="1.5" fill="none"/></svg>