<svg xmlns:svg="http://www.w3.org/2000/svg" xmlns="http://www.w3.org/2000/svg" version="1.1" width="125" height="119" xml:space="preserve"><style type="text/css">.s0{fill:#ffec20;stroke-width:0.5;stroke:#005fa5;}.st0{fill:#005FA5;}.st1{fill:#FFEC20;stroke:#005FA5;stroke-width:0.5;stroke-miterlimit:10;}</style><polygon class="st0" points="77.3 8.9 6.5 80 118.5 80 104.6 55.2 65.7 55.2 90 30.9 "/><path class="st1" d="M49.9 65.1c3.6-3.2 8.3-5.2 13.4-5.2s9.9 2 13.4 5.2H81c-4.2-5-10.6-8.2-17.6-8.2s-13.4 3.2-17.6 8.2H49.9z"/><path class="st1 s0" d="m83.3 79.75c-0.1 11-9 19.8-20 19.8-11 0-19.9-8.8-20-19.8l-3 0c0.1 12.6 10.4 22.8 23 22.8 12.6 0 22.9-10.2 23-22.8l-3 0z"/><path class="st1 s0" d="m73.4 79.75c-0.1 11.8-7.3 22-10.1 25.5-2.8-3.5-10-13.7-10.1-25.5l-3 0c0.1 15.8 11.5 28.3 12 28.9l1.1 1.2 1.1-1.2c0.5-0.5 11.9-13.1 12-28.9l-3 0z"/><path class="st1" d="M56.7 65.1c2.3-5.1 5.1-9 6.7-10.9 1.5 1.9 4.4 5.8 6.7 10.9h3.3c-3.4-8.3-8.5-13.9-8.9-14.3l-1.1-1.2 -1.1 1.2c-0.3 0.3-5.4 5.9-8.9 14.3H56.7z"/></svg>