<?xml version="1.0" encoding="UTF-8" standalone="no"?>
<svg
   xmlns:dc="http://purl.org/dc/elements/1.1/"
   xmlns:cc="http://creativecommons.org/ns#"
   xmlns:rdf="http://www.w3.org/1999/02/22-rdf-syntax-ns#"
   xmlns:svg="http://www.w3.org/2000/svg"
   xmlns="http://www.w3.org/2000/svg"
   xmlns:sodipodi="http://sodipodi.sourceforge.net/DTD/sodipodi-0.dtd"
   xmlns:inkscape="http://www.inkscape.org/namespaces/inkscape"
   version="1.1"
   width="800"
   height="800"
   viewBox="-400 -400 800 800"
   id="svg2"
   sodipodi:docname="Emblem_of_Numata,_Hokkaido.svg"
   inkscape:version="0.92.3 (2405546, 2018-03-11)">
  <metadata
     id="metadata11">
    <rdf:RDF>
      <cc:Work
         rdf:about="">
        <dc:format>image/svg+xml</dc:format>
        <dc:type
           rdf:resource="http://purl.org/dc/dcmitype/StillImage" />
      </cc:Work>
    </rdf:RDF>
  </metadata>
  <defs
     id="defs9" />
  <sodipodi:namedview
     pagecolor="#ffffff"
     bordercolor="#666666"
     borderopacity="1"
     objecttolerance="10"
     gridtolerance="10"
     guidetolerance="10"
     inkscape:pageopacity="0"
     inkscape:pageshadow="2"
     inkscape:window-width="1920"
     inkscape:window-height="1017"
     id="namedview7"
     showgrid="false"
     inkscape:zoom="2.36"
     inkscape:cx="400"
     inkscape:cy="467.79661"
     inkscape:window-x="-8"
     inkscape:window-y="-8"
     inkscape:window-maximized="1"
     inkscape:current-layer="svg2" />
  <title
     id="title2">Numata Hokkaido Chapter</title>
  <path
     d="M 0,-396 A 396,396 0 0 0 -389.1875,-72 L -266.125,-72 A 276,276 0 0 1 -60,-269.15625 L -60,-60 -391.125,-60 A 396,396 0 0 0 -396,0 396,396 0 0 0 -72,389.1875 L -72,266.125 A 276,276 0 0 1 -269.15625,60 L -60,60 -60,391.125 A 396,396 0 0 0 0,396 396,396 0 0 0 389.1875,72 L 266.125,72 A 276,276 0 0 1 60,269.15625 L 60,60 391.125,60 A 396,396 0 0 0 396,0 396,396 0 0 0 72,-389.09375 L 72,-266.34375 A 276,276 0 0 1 269.21875,-60 L 60,-60 60,-390.9375 A 396,396 0 0 0 0,-396 z"
     transform="rotate(45)"
     style="fill:#ed1b24;stroke:none;stroke-width:2;stroke-miterlimit:4;stroke-opacity:1"
     id="path4" />
</svg>
