<svg xmlns:svg="http://www.w3.org/2000/svg" xmlns="http://www.w3.org/2000/svg" width="386.96" height="367.93" version="1.1"><g transform="translate(-566.74862,-721.48681)"><path d="m760.23 1079.47c94.24 0 170.64-76.39 170.64-170.64 0-94.24-76.4-170.64-170.64-170.64-94.24 0-170.64 76.4-170.64 170.64 0 94.24 76.4 170.64 170.64 170.64" fill="#fff"/><path d="m906.22 934.7-64.81 7.03c1.98 6.02 3.31 12.33 3.9 18.85l30.1 3.26 20.47 5.02c0 0 0.09 0.49 1.64-3.93 3.96-9.69 6.89-19.8 8.71-30.21M760.23 1054c47.23 0 85.52-38.29 85.52-85.52 0-47.23-38.29-85.53-85.52-85.53-47.23 0-85.52 38.3-85.52 85.53 0 47.23 38.28 85.52 85.52 85.52M644.6 815.98l71.78 79.06c4.6-2.75 9.48-5.09 14.58-6.95l-52.6-102.94c-8.18 5.44-15.88 11.73-22.98 18.83-3.83 3.83-7.42 7.85-10.77 12.01M695.19 912.94l-77.57-44.98c-3.32 11.66-5.22 23.79-5.6 36.18l73.11 23.41c2.86-5.22 6.24-10.11 10.07-14.6M678.98 941.72l-64.81-7.02c1.9 10.85 4.99 21.39 9.21 31.46l51.69-5.58c0.6-6.51 1.93-12.82 3.91-18.84M875.79 815.98l-71.78 79.06c-4.59-2.75-9.47-5.09-14.58-6.95l52.6-102.94c8.18 5.44 15.88 11.73 22.99 18.83 3.83 3.83 7.42 7.85 10.77 12.01M825.2 912.94l77.58-44.98c3.32 11.66 5.22 23.79 5.61 36.18l-73.1 23.41c-2.85-5.22-6.23-10.11-10.07-14.6" fill="#e60012"/><path d="m865.35 961.06c-4.84-5.86-12.17-9.6-20.36-9.6l-231.66 0 0.03-0.04-18.4 0c18.92 73.64 85.75 128.06 165.29 128.06 71.07 0 131.99-43.46 157.65-105.25l-52.29-12.79-0.24-0.37z" fill="#0068b7"/><path d="m768.04 883.31 15.56-143.51c-7.64-1.04-15.44-1.6-23.36-1.6-7.92 0-15.72 0.56-23.36 1.6l15.52 143.51c2.58-0.23 5.2-0.36 7.84-0.36 2.64 0 5.24 0.13 7.81 0.36" fill="#e60012"/><path d="m893.17 974.69c10.04-20.21 15.36-42.62 15.36-65.85 0-39.61-15.43-76.85-43.44-104.86-17.67-17.67-39.02-30.32-62.32-37.27l21.5-16.04-14.49-28.41c32.59 8.59 62.46 25.67 86.93 50.13 36.45 36.45 56.52 84.91 56.52 136.46 0 28.39-6.1 55.83-17.65 80.85l-30.18 9.24-12.2-24.23z" fill="#fff100"/><path d="m893.17 974.69c10.04-20.21 15.36-42.62 15.36-65.85 0-39.61-15.43-76.85-43.44-104.86-17.67-17.67-39.02-30.32-62.32-37.27l21.5-16.04-14.49-28.41c32.59 8.59 62.46 25.67 86.93 50.13 36.45 36.45 56.52 84.91 56.52 136.46 0 28.39-6.1 55.83-17.65 80.85l-30.18 9.24-12.2-24.23z" style="fill:none;stroke-width:1;stroke:#221815"/><path d="m953.19 907.33c0 0.51 0.02 1 0.02 1.51 0 0.16 0 0.32 0 0.49l-22.81 20.56-0.46 0.42-0.49-0.38-20.98-16.55c0.02-0.62 0.02-1.25 0.04-1.87l21.38 16.87 23.33-21.02zM934.59 825.92c0.29 0.61 0.57 1.22 0.85 1.82l-12.06 28.44-0.24 0.58-0.61-0.15-25.89-6.1c-0.24-0.57-0.48-1.14-0.72-1.7l26.35 6.22 12.34-29.09zM883.26 760.14c0.51 0.43 1.03 0.85 1.53 1.28l1.09 30.92 0.02 0.63-0.61 0.12-26.01 5.4c-0.46-0.41-0.92-0.82-1.38-1.23l26.48-5.49-1.12-31.62zM949.52 946.57c-0.45 2.29-0.95 4.57-1.48 6.83l-25.31 14.33-1.91 1.09-1.39-1.7-15.99-19.58c0.56-2.1 1.08-4.22 1.55-6.35l17.09 20.94 27.46-15.54zM947.8 863.19c0.55 2.27 1.06 4.55 1.53 6.85l-16.89 23.69-1.28 1.79-1.98-0.95-22.8-11.01c-0.37-2.14-0.78-4.28-1.25-6.39l24.33 11.75 18.33-25.71zM910.98 788.35c1.46 1.82 2.9 3.66 4.28 5.52l-5.3 28.68-0.4 2.16-2.2-0.02-25.24-0.35c-1.24-1.78-2.52-3.53-3.84-5.26l26.96 0.37 5.75-31.08zM853.9 766.71l-8-30.88c2.09 1.04 4.17 2.12 6.22 3.24l7.38 28.47 0.55 2.13-2 0.91-22.84 10.28c-1.87-1.1-3.76-2.15-5.68-3.16l24.38-10.97zM760.23 1080.79c9.31 9.88 37.9 8.57 37.9 8.57-20.11-0.56-21.41-13.78-21.41-13.78 16.94-8.01 27-25.32 27-25.32-19.93 21.41-43.48 22.16-43.48 22.16 0 0-23.55-0.74-43.48-22.15 0 0 10.06 17.31 27 25.32 0 0-1.3 13.23-21.41 13.78 0 0 28.59 1.31 37.9-8.57" fill="#221815"/><path d="m860 1047.07-181.92 0c-14.57 0-26.39-11.82-26.39-26.39 0-14.57 11.82-26.4 26.39-26.4l137.73 0 0.28-0.07c5.95 0 10.78-4.83 10.78-10.78 0-5.95-4.83-10.78-10.78-10.78l-190.48 0M617.6 951.45l227.39 0c14.58 0 26.39 11.82 26.39 26.39 0 14.58-11.81 26.39-26.38 26.39l-145.99 0-0.28 0.08c-5.95 0-10.78 4.83-10.78 10.79 0 5.95 4.83 10.78 10.78 10.78l185.61 0M685.56 994.29c-10.74 0-19.46 8.72-19.46 19.47 0 10.75 8.72 19.47 19.46 19.47l191.32 0M828.32 1004.24c10.75 0 19.47-8.71 19.47-19.46 0-10.74-8.72-19.46-19.46-19.46l-205.88 0" style="fill:none;stroke-width:2.23;stroke:#fff"/><path d="m627.29 974.69c-10.04-20.21-15.35-42.62-15.35-65.85 0-39.61 15.43-76.85 43.43-104.86 17.68-17.67 39.03-30.32 62.33-37.27l-21.5-16.04 14.5-28.41c-32.58 8.59-62.46 25.67-86.92 50.13-36.45 36.45-56.52 84.91-56.52 136.46 0 28.39 6.1 55.83 17.66 80.85l30.19 9.24 12.2-24.23z" fill="#fff100"/><path d="m627.29 974.69c-10.04-20.21-15.35-42.62-15.35-65.85 0-39.61 15.43-76.85 43.43-104.86 17.68-17.67 39.03-30.32 62.33-37.27l-21.5-16.04 14.5-28.41c-32.58 8.59-62.46 25.67-86.92 50.13-36.45 36.45-56.52 84.91-56.52 136.46 0 28.39 6.1 55.83 17.66 80.85l30.19 9.24 12.2-24.23z" style="fill:none;stroke-width:1;stroke:#221815"/><path d="m567.27 907.33c0 0.51-0.02 1-0.02 1.51 0 0.16 0.01 0.32 0.01 0.49l22.81 20.56 0.47 0.42 0.49-0.38 20.98-16.55c-0.02-0.62-0.02-1.25-0.03-1.87l-21.37 16.87-23.33-21.02zM585.86 825.92c-0.29 0.61-0.56 1.22-0.84 1.82l12.06 28.44 0.24 0.58 0.61-0.15 25.89-6.1c0.24-0.57 0.48-1.14 0.73-1.7l-26.35 6.22-12.33-29.09zM637.2 760.14c-0.51 0.43-1.03 0.85-1.53 1.28l-1.09 30.92-0.02 0.63 0.62 0.12 26.01 5.4c0.46-0.41 0.92-0.82 1.38-1.23l-26.47-5.49 1.12-31.62zM570.93 946.57c0.46 2.29 0.95 4.57 1.49 6.83l25.32 14.33 1.91 1.09 1.4-1.7 15.99-19.58c-0.57-2.1-1.07-4.22-1.55-6.35l-17.08 20.94-27.45-15.54zM572.66 863.19c-0.55 2.27-1.05 4.55-1.52 6.85l16.88 23.69 1.28 1.79 1.98-0.95 22.8-11.01c0.37-2.14 0.79-4.28 1.25-6.39l-24.33 11.75-18.33-25.71zM609.47 788.35c-1.46 1.82-2.89 3.66-4.28 5.52l5.31 28.68 0.4 2.16 2.19-0.02 25.24-0.35c1.24-1.78 2.52-3.53 3.85-5.26l-26.96 0.37-5.74-31.08zM666.55 766.71l8.01-30.88c-2.1 1.04-4.17 2.12-6.23 3.24l-7.37 28.47-0.55 2.13 2.01 0.91 22.85 10.28c1.87-1.1 3.76-2.15 5.68-3.16l-24.38-10.97z" fill="#221815"/><path d="m760.23 1079.47c94.24 0 170.64-76.39 170.64-170.64 0-94.24-76.4-170.64-170.64-170.64-94.24 0-170.64 76.4-170.64 170.64 0 94.24 76.4 170.64 170.64 170.64z" style="fill:none;stroke-width:2.98;stroke:#221815"/></g></svg>