<?xml version="1.0" encoding="UTF-8" standalone="no"?>
<svg xmlns="http://www.w3.org/2000/svg" version="1.1" width="166" height="165.8125">
<path fill="#f00" d="m 1,1 0,23.8125 24.0625,0 C 10.205706,39.644564 1,60.14936 1,82.8125 c 0,45.28735 36.71265,82 82,82 45.28735,0 82,-36.71265 82,-82 0,-22.66314 -9.20571,-43.167936 -24.0625,-58 L 165,24.8125 165,1 88,1 l 0,23.8125 0,0.25 c 29.69355,2.533342 53,27.40054 53,57.75 0,32.03252 -25.96748,58.00001 -58,58.00001 -32.032516,0 -58,-25.96749 -58,-58.00001 0,-30.34946 23.30645,-55.216658 53,-57.75 l 0,-0.25 L 78,1 1,1 z"/>
<circle fill="none" stroke="#f00" stroke-width="5" cx="83" cy="82.8" r="50.5"/>
</svg>