<svg xmlns:svg="http://www.w3.org/2000/svg" xmlns="http://www.w3.org/2000/svg" version="1.1" width="265" height="255" xml:space="preserve"><style type="text/css">.st0{fill:#A7479F;}.st1{fill:#A7479F;}</style><path class="st0" d="M93.1 133.3c-0.1-1-0.1-2.1-0.1-3.1 0-21.8 17.7-39.5 39.5-39.5 21.8 0 39.5 17.7 39.5 39.5 0 1.1-0.1 2.1-0.1 3.1h6c0.1-1 0.1-2.1 0.1-3.1 0-23.1-17.3-42.3-39.7-45.1v-3.9h-11.6V85C104.3 87.8 87 107 87 130.1c0 1.1 0 2.1 0.1 3.1H93.1zM153.8 127.2c-1.4-10.5-10.4-18.6-21.3-18.6s-19.8 8.1-21.3 18.6H153.8zM132.5 114.6c6 0 11.2 3.4 13.8 8.5h-27.6C121.3 118.1 126.5 114.6 132.5 114.6z"/><path class="st0" d="M165 138.3c0.4-1.7 0.7-3.3 0.9-5.1H99.2c0.2 1.7 0.5 3.4 0.9 5.1H87.8c3.9 21.2 22.5 37.3 44.7 37.3 22.3 0 40.9-16.1 44.7-37.3H165zM158.7 138.3c-0.6 1.9-1.4 3.8-2.4 5.5h13.2c-0.7 1.9-1.6 3.7-2.5 5.5h-30.8v-11H158.7zM108.7 143.8c-1-1.7-1.8-3.6-2.4-5.5h22.6v11H98c-1-1.8-1.8-3.6-2.5-5.5H108.7zM102.6 155.8h26.3v13.6C118.4 168.5 109.1 163.4 102.6 155.8zM136.2 169.4v-13.6h26.3C155.9 163.4 146.6 168.5 136.2 169.4zM132.5 102.6c14.2 0 25.9 10.8 27.3 24.6h6c-1.5-17.1-15.9-30.6-33.4-30.6s-31.9 13.5-33.4 30.6h6C106.6 113.4 118.3 102.6 132.5 102.6z"/><path class="st1" d="M125.4 241.5c-32-2-61.6-17.7-81.2-43.1l-5.2 3L24 175.5l5.2-3c-5.5-13.5-8.3-27.7-8.3-42.4 0-17.4 3.9-34.1 11.6-49.6l0.1-0.1L85 110.7l0 0.1c-2.5 6.2-3.8 12.7-3.8 19.3 0 2.7 0.2 5.4 0.6 8.1l0 0.1 -18.4 10.6 0-0.2c-1.7-6.1-2.5-12.4-2.5-18.6 0-3.2 0.2-6.6 0.7-10l-19.1-11c-1.6 6.9-2.4 13.9-2.4 21 0 11.2 2 22.2 6 32.6l36.4-21 0 0.2c4.8 20.5 22.1 36.2 42.9 39.1l0.1 0v33.4l-0.1 0c-4.9-0.4-9.7-1.2-14.2-2.4l-0.1 0v-13.5c-12.2-3.8-23.2-10.9-31.8-20.4l-18.3 10.5c16 19.5 39.4 31.7 64.4 33.6l0.1 0v19.3L125.4 241.5z"/><path class="st1" d="M173 98.6c-5.7-7.2-13.2-12.9-21.7-16.2l-0.1 0V61l0.2 0c9.2 2.5 17.6 6.8 25.2 12.7l19-11c-13.5-12.6-30.1-20.8-48.2-23.8v42l-0.2 0c-4.8-1.4-9.7-2.2-14.8-2.2 -15.9 0-30.7 7.2-40.5 19.8l-0.1 0.1L63 81.9l0.1-0.1c2.8-4 5.9-7.7 9.2-11.1l0.1-0.1L84 77.4c9.4-8.7 21-14.7 33.5-17.4V38.9c-24.7 4-47 18.2-61.3 39L56.2 78l-16.7-9.7 0.1-0.1c17.8-26.8 46.3-44.5 78-48.8v-6h29.9v6c31.7 4.2 60.2 22 78 48.8l0.1 0.1L173 98.6 173 98.6z"/><path class="st1" d="M139.5 181l0.1 0c9.6-1.3 18.6-5.4 26.1-11.7l0.1-0.1 18.1 10.7 -0.1 0.1c-7 7.2-15.2 12.7-24.4 16.4v22c17.5-5.3 32.9-15.7 44.6-29.9l-36.2-21.1 0.1-0.1c10.4-9.8 16.1-23.1 16.1-37.3 0-6.7-1.3-13.2-3.8-19.3l0-0.1L209 94l0.1 0.1c2 4.3 3.7 8.9 5 13.5l0 0.1 -11.7 6.8c1.2 5.1 1.7 10.4 1.7 15.6 0 7.5-1.2 14.9-3.5 22.1l18.3 10.6c4-10.5 6-21.4 6-32.6 0-14-3.1-27.4-9.1-39.9l-0.1-0.1 16.7-9.7 0.1 0.1c7.7 15.5 11.6 32.2 11.6 49.6 0 14.7-2.8 28.9-8.3 42.4l5.2 3L226 201.4l-5.2-3c-19.7 25.4-49.3 41.1-81.2 43.1l-0.1 0V181z"/></svg>