<?xml version="1.0" encoding="UTF-8" standalone="no"?><!-- Created with Inkscape (http://www.inkscape.org/) --><svg xmlns:rdf="http://www.w3.org/1999/02/22-rdf-syntax-ns#" xmlns="http://www.w3.org/2000/svg" height="300" width="300" version="1.1" xmlns:cc="http://creativecommons.org/ns#" xmlns:dc="http://purl.org/dc/elements/1.1/"> <metadata>  <rdf:RDF>   <cc:Work rdf:about="">    <dc:format>image/svg+xml</dc:format>    <dc:type rdf:resource="http://purl.org/dc/dcmitype/StillImage"/>    <dc:title/>   </cc:Work>  </rdf:RDF> </metadata> <g transform="translate(8.27,-760.63625)">  <path fill="#111725" d="m99.25,775.38c-1.1873,0.37231-2.2327,0.72283-3.4062,1.125l-1.75,3.125-20.5,9.375-3.5-0.6875c-1.0275,0.60295-2.0517,1.2156-3.0625,1.8438l-1.47,3.54,18.626,28.81c-37.48,20.42-62.938,60.16-62.938,105.84,0,66.535,53.934,120.47,120.47,120.47,66.535,0,120.5-53.934,120.5-120.47,0-45.688-25.458-85.421-62.938-105.84l18.625-28.812-1.4688-3.5312c-1.0099-0.62767-2.0441-1.247-3.0707-1.8497l-3.5543,0.34968-20.406-9.0625-1.78-3.09c-1.154-0.39534-2.239-0.72745-3.4062-1.0938l-5.2812,2.3438-15.219,32.125c-7.1291-1.3147-14.491-2-22-2-7.5177,0-14.864,0.68246-22,2l-16.96-33.91z"/>  <path d="m104.12,15.875c-9.0275,3.0882-17.648,7.0566-25.75,11.812l66.719,97.438-5.5625,25.906c-24.337,4.8624-42.656,26.354-42.656,52.125,0,29.354,23.771,53.156,53.125,53.156s53.156-23.803,53.156-53.156c0-25.751-18.342-47.24-42.656-52.125l-5.59-25.92,66.71-97.464c-8.06-4.718-16.74-8.711-25.71-11.781l-45.91,98.685-45.88-98.685zm45.88,158.94c15.655,0,28.375,12.688,28.375,28.344,0,15.655-12.72,28.344-28.375,28.344s-28.344-12.688-28.344-28.344c0-15.655,12.688-28.344,28.344-28.344zm-0.01-166.54c-14.792,0-29.065,2.266-42.469,6.4688l17.938,38.625c7.9116-1.6899,16.115-2.5938,24.531-2.5938,8.427,0,16.641,0.89974,24.562,2.5938l17.94-38.594c-13.417-4.2103-27.695-6.5-42.5-6.5zm-74.689,21.25c-40.238,25-67.031,69.605-67.031,120.47,0,78.277,63.442,141.75,141.72,141.75,78.277,0,141.75-63.473,141.75-141.75,0-50.858-26.791-95.467-67.031-120.47l-22.844,33.375c38.545,19.121,65.062,58.871,65.062,104.81,0,58.567-43.062,107.07-99.25,115.59l-17.688-12.844-17.656,12.875c-56.2-8.5108-99.25-57.046-99.25-115.63,0-45.956,26.506-85.73,65.062-104.84l-22.841-33.33z" fill="#847139" transform="translate(-8.27,760.63625)"/> </g></svg>