<svg xmlns:svg="http://www.w3.org/2000/svg" xmlns="http://www.w3.org/2000/svg" width="245.3" height="283.25" version="1.1"><g transform="translate(352.18199,-775.7395)"><path d="m-351.34 847.04 121.81-70.33 121.82 70.33 0 140.66-121.82 70.33-121.81-70.33 0-140.65z" style="fill:#fff;stroke-width:1.68;stroke:#000"/><path d="M121.56 13.74C115.88 14.68 109.49 26.13 105.18 38.41 92.44 35.38 78.57 37.02 66.34 44.08 54.1 51.14 45.74 62.33 41.99 74.88 29.2 72.47 16.1 72.29 12.44 76.74L77.17 114.11C76.8 114.73 76.44 115.36 76.09 116L11.36 78.62C9.33 84.02 16.05 95.28 24.53 105.15 15.54 114.67 10.02 127.49 10.02 141.62 10.02 155.75 15.53 168.59 24.52 178.1 16.04 187.97 9.33 199.22 11.35 204.62L76.08 167.25C76.43 167.88 76.79 168.51 77.17 169.13L12.44 206.5C16.1 210.95 29.21 210.77 42.01 208.36 45.75 220.91 54.1 232.1 66.33 239.16 78.57 246.22 92.44 247.87 105.18 244.85 109.49 257.13 115.88 268.57 121.56 269.51L121.56 194.75C121.92 194.75 122.29 194.77 122.65 194.77 123.02 194.77 123.38 194.75 123.74 194.75L123.74 269.5C129.42 268.56 135.82 257.11 140.13 244.83 152.86 247.86 166.73 246.23 178.96 239.17 191.2 232.1 199.56 220.91 203.31 208.37 216.1 210.77 229.19 210.96 232.85 206.51L168.13 169.14C168.5 168.52 168.86 167.89 169.21 167.25L233.94 204.63C235.97 199.23 229.25 187.97 220.77 178.1 229.76 168.58 235.28 155.75 235.28 141.62 235.28 127.5 229.77 114.66 220.78 105.14 229.26 95.27 235.97 84.02 233.95 78.62L169.22 116C168.87 115.36 168.51 114.73 168.13 114.11L232.85 76.74C229.19 72.28 216.09 72.47 203.29 74.88 199.55 62.34 191.2 51.14 178.97 44.08 166.73 37.02 152.86 35.37 140.13 38.4 135.81 26.12 129.42 14.68 123.74 13.74L123.74 88.5C123.38 88.49 123.02 88.47 122.65 88.47 122.29 88.47 121.93 88.49 121.56 88.5L121.56 13.74zM74.2 57.68C74.2 57.68 85.67 63.92 100.44 67.08 101.09 74.86 102.59 83.47 104.65 91.61 98.64 93.77 93.14 96.99 88.36 101.04 82.34 95.18 75.62 89.57 69.21 85.12 73.86 70.74 74.2 57.68 74.2 57.68zM171.11 57.68C171.11 57.68 171.45 70.74 176.09 85.12 169.68 89.57 162.97 95.18 156.95 101.04 152.17 96.99 146.66 93.77 140.65 91.61 142.72 83.47 144.21 74.86 144.86 67.09 159.63 63.92 171.11 57.68 171.11 57.68zM120 104.32L125.89 104.32 125.89 110.95 151.65 110.95 151.65 116.66 140.42 116.66C139.23 121.58 138.53 123.84 137.34 127.66L155.37 127.66 155.37 133.37 90.52 133.37 90.52 127.66 108.35 127.66C108 125.63 107.08 120.33 105.89 116.66L94.38 116.66 94.38 110.95 120 110.95 120 104.32zM111.86 116.66C112.21 118.06 113.68 125.08 113.89 127.66L131.09 127.66C132.63 123.53 133.9 117.75 134.18 116.66L111.86 116.66zM47 123.59C54.06 126.92 62.27 129.93 70.35 132.21 69.8 135.27 69.5 138.41 69.5 141.62 69.5 144.83 69.8 147.98 70.35 151.04 62.27 153.32 54.06 156.33 47 159.65 36.87 148.44 25.73 141.62 25.73 141.62 25.73 141.62 36.87 134.8 47 123.59zM198.3 123.59C208.43 134.8 219.57 141.62 219.57 141.62 219.57 141.62 208.43 148.44 198.3 159.65 191.24 156.33 183.03 153.31 174.95 151.03 175.5 147.98 175.8 144.83 175.8 141.62 175.8 138.41 175.5 135.27 174.95 132.21 183.03 129.93 191.24 126.92 198.3 123.59zM98.38 139.3L147.51 139.3 147.51 176.38 141.62 176.38 141.62 172.71 104.28 172.71 104.28 176.38 98.38 176.38 98.38 139.3zM104.28 144.84L104.28 153.05 141.62 153.05 141.62 144.84 104.28 144.84zM104.28 158.42L104.28 167.17 141.62 167.17 141.62 158.42 104.28 158.42zM88.35 182.21C93.13 186.25 98.64 189.47 104.65 191.64 102.59 199.77 101.09 208.38 100.44 216.15 85.67 219.32 74.19 225.55 74.19 225.55 74.19 225.55 73.85 212.49 69.21 198.12 75.62 193.67 82.33 188.06 88.35 182.21zM156.95 182.21C162.97 188.06 169.68 193.67 176.09 198.12 171.45 212.5 171.11 225.56 171.11 225.56 171.11 225.56 159.64 219.32 144.86 216.15 144.21 208.38 142.71 199.77 140.65 191.64 146.66 189.48 152.17 186.26 156.95 182.21z" transform="translate(-352.18199,775.73948)" fill="#e60012"/></g></svg>