<svg xmlns:svg="http://www.w3.org/2000/svg" xmlns="http://www.w3.org/2000/svg" width="100" height="97.55" version="1.1"><g transform="translate(322.63018,-807.89504)"><path d="m-259.48 817.6 0 5.13c9.58 3.19 23.79 16.63 23.79 35.07 0 16.25-9.03 27.16-20.33 32.7l1.52 4.72c13.11-6.17 23.69-18.66 23.69-37.38 0-22.02-17.88-37.76-28.67-40.23zM-285.18 817.62c-10.57 2.59-28.57 18.59-28.57 40.22 0 22.05 13.96 33.51 23.78 37.61l1.45-4.76c-8.62-3.83-20.35-13.89-20.35-32.88 0-18.08 14.26-31.7 23.69-35.03l0-5.16zM-267.47 813.69l-9.91 0 0-5.8c-25.31 2.57-45.24 23.95-45.24 49.94 0 22.79 15.73 41.48 36.53 47.61l5.4-22.4 3.32 4.84 4.96-5.35 4.96 5.35 3.32-4.84 5.4 22.4c20.8-6.13 36.13-25.22 36.13-48.01 0-25.99-19.53-46.97-44.84-49.54l0 16.1c3.07 0.52 3.33 0.41 6 1.81l0-11.58c10.9 0 33.8 17.81 33.8 43.65 0 21.12-12.51 34.87-27.55 41.13l-7.88-24.44-4.37 4.34-4.96-4.13-4.96 4.13-4.37-4.34-7.48 24.54c-10.53-3.59-27.65-15.91-27.65-41.23 0-25.44 23.17-43.66 33.7-43.66l0 11.59c2.66-1.4 2.73-1.28 5.8-1.8l0-5.02 9.91 0 0-5.28" fill="#9a00ff"/></g></svg>