<?xml version="1.0" encoding="UTF-8"?><svg width="451" height="449" viewBox="24 25 451 449" xmlns="http://www.w3.org/2000/svg">
 <path xmlns="http://www.w3.org/2000/svg" fill="#70bf4a" d="m230.8 31.61c10.65-6.289 24.5-6.948 35.61-1.45 7.529 3.534 13.12 9.902 18.93 15.66 36.77 36.84 73.82 73.41 110.6 110.3-0.0264 0.3164-0.0659 0.9361-0.0791 1.253-0.9229 1.411-1.991 2.742-3.744 3.072-16.4 5.735-34.27 5.472-51.21 2.584-16.36-2.822-32.3-7.568-48.26-12.09-17.26-4.72-36.31-5.709-53.12 1.239-15.95 6.223-28.16 19.72-35.41 34.97-1.055 2.07-1.147 4.43-1.49 6.685-0.1582 0.3956-0.4615 1.187-0.6065 1.582-18.45-3.468-38.13-1.424-54.8 7.476-19.3 9.599-32.86 28.08-39.86 48.11 11.81-9.071 26.09-14.56 40.87-16.18 15.72-2 31.66 0.29 46.95 4 19.12 5.379 37.87 12.08 57.12 17.05 5.274 1.147 10.56 2.4 15.43 4.812-3.23 0.9493-6.487 1.991-9.902 1.806-24.71-0.0527-49.75-0.1187-73.91 5.709-22.95 5.076-44.91 16.98-59.48 35.74-9.44 11.55-15.16 25.58-19.22 39.81l2.241-0.857c-0.7515 0.3824-2.228 1.147-2.967 1.529-18.02-17.7-35.78-35.7-53.91-53.3-6-6.3-12.55-12.1-18.13-18.7-8.44-10.9-9.73-26.7-3.53-38.9 3.23-7 9.33-11.8 14.5-17.2 56.48-56.1 112.8-112.3 169.2-168.5 5.709-5.775 11.33-11.8 18.2-16.23z"/>
 <path xmlns="http://www.w3.org/2000/svg" fill="#0065b3" d="m393.1 166.2c1.503-2.452 1.846-5.749 4.232-7.555 1.859-0.6988 2.901 2.017 4.285 2.861 20.86 20.91 41.88 41.65 62.77 62.54 9.111 8.979 12.57 22.9 9.4 35.22-1.793 8.966-8.188 15.87-14.57 21.98-58.71 58.21-117.3 116.6-175.8 175-5.67 5.762-11.43 11.92-19.17 14.83-9.678 3.56-20.75 3.336-30.22-0.7779-7.858-3.454-13.26-10.38-19.32-16.16-36.83-36.47-73.64-72.98-110.2-109.8 0.7384-0.3824 2.215-1.147 2.967-1.529 19.59-7.74 41.29-8.531 62.05-6.368 18.33 1.701 36.36 5.709 54.02 10.86 10.5 2.94 20.71 6.869 31.41 9.032 21.93 4.72 45.28 4.232 66.48-3.481 15.25-5.59 29.3-14.74 40.13-26.88 9.177-9.902 15.84-21.77 21.74-33.82-22.59 18.89-52.74 27.64-81.97 25.54-18.3-1.371-37.04-5.234-52.79-15.06 24.7 0.0923 50.09-8.188 67.81-25.87 16.26-15.61 24.48-37.67 27.94-59.54-8.293 3.046-16.88 5.472-25.74 6.052-19.22 1.543-38.16-3.626-56.21-9.73-19.86-6.803-39.66-14.09-60.31-18.22 0.145-0.3956 0.4483-1.187 0.6065-1.582 10.93-10.05 25.96-14.74 40.66-14.13 30.14 0.87 57.28 16.32 86.97 19.86 13.05 1.846 27.09 0.8834 38.7-5.88 10.72-6.263 18.38-16.6 24.13-27.38z"/>
</svg>