<svg xmlns:svg="http://www.w3.org/2000/svg" xmlns="http://www.w3.org/2000/svg" width="155" height="155" version="1.1"><g transform="translate(940.71429,-1235.2194)"><path d="m-892.71 1241.22 28 72.5 69.5-31-100.5 102.5zM-867.21 1256.22a61.5 61.5 0 0 0-14.67 1.85l2.58 6.68a55 55 0 0 1 12.59-1.53 55 55 0 0 1 45.71 24.48l5.84-2.6a61.5 61.5 0 0 0-52.05-28.88zm-29.9 7.78a61.5 61.5 0 0 0-31.6 53.72 61.5 61.5 0 0 0 28.57 51.92l0.16-7.71a55 55 0 0 1-21.74-43.71 55 55 0 0 1 24.43-45.67l0.18-8.55zm89.13 37.42-5.05 5.15a55 55 0 0 1 1.32 11.65 55 55 0 0 1-55 55 55 55 0 0 1-9.59-0.89l-5.07 5.17a61.5 61.5 0 0 0 14.16 1.73 61.5 61.5 0 0 0 61.5-61.5 61.5 61.5 0 0 0-2.27-16.3z" fill="#ad1c24"/></g></svg>