<?xml version="1.0" encoding="utf-8"?>
<!DOCTYPE svg PUBLIC "-//W3C//DTD SVG 1.1//EN" "http://www.w3.org/Graphics/SVG/1.1/DTD/svg11.dtd">
<svg version="1.1" xmlns="http://www.w3.org/2000/svg" xmlns:xlink="http://www.w3.org/1999/xlink" x="0px" y="0px"
	 viewBox="0 0 80 80" style="enable-background:new 0 0 80 80;" width="80" height="80">
	<path d="M39.7,0.9l-4.6,4.6C18.4,7.8,5.5,22.1,5.5,39.4c0,8.8,3.3,16.8,8.8,22.9l7.5-7.8c-3.5-4.1-5.5-9.3-5.5-15.1
		c0-11.9,8.9-21.7,20.4-23.2L39.7,0.9z"/>
	<path d="M44.3,5.5l-4.6-4.6l3,15.3c8.4,1.1,15.5,6.7,18.6,14.3h11.4C69.1,17.4,58,7.4,44.3,5.5z"/>
	<path d="M73.9,39.4c0-1.5-0.1-3-0.3-4.5h0H62.6H21.9v10.3h40.4c-2.6,10.1-11.8,17.6-22.7,17.6c-5.6,0-10.8-2-14.9-5.3l-7.5,7.8
		c4.7,4.1,10.6,6.9,17,7.9l5.3,5.3l5.3-5.3c15.9-2.5,28.1-15.9,28.8-32.3C73.9,40.4,73.9,39.9,73.9,39.4z"/>
</svg>
