<?xml version="1.0" encoding="UTF-8" standalone="no"?><!-- Created with Inkscape (http://www.inkscape.org/) --><svg xmlns="http://www.w3.org/2000/svg" height="210" width="210" version="1.1"> <g transform="translate(4.995,-847.375)">  <path fill="#000" d="m100,852.38c-53.555,0-97.275,42.09-99.875,95h33.5c2.556-34.45,31.275-61.63,66.375-61.63s63.819,27.176,66.375,61.625h13.969c-2.5798-42.132-37.563-75.5-80.344-75.5-0.69467,0-1.372-0.0175-2.0625,0-37.023,0.938-67.831,26.902-76.188,61.594h-5.75c8.608-38.46,42.936-67.22,83.99-67.22,26.215,0,49.679,11.73,65.469,30.219l10.562-9.0312c-18.34-21.45-45.59-35.06-76.03-35.06zm80.906,41.219-11.25,8.1562c4.1,5.6354,7.5368,11.792,10.188,18.344l12.906-5.1875c-3.0799-7.6155-7.0773-14.764-11.844-21.312zm14.469,28.688-13.25,4.1875c2.0985,6.66,3.3974,13.66,3.8125,20.906h13.938c-0.43351-8.6991-1.987-17.119-4.5-25.094zm-195.26,35.09c2.6003,52.91,46.32,95,99.875,95s97.275-42.09,99.875-95h-33.5c-2.556,34.446-31.275,61.594-66.375,61.594s-63.819-27.147-66.375-61.594h-33.5zm15.875,13.87h5.7188c8.4914,35.356,40.32,61.625,78.281,61.625s69.79-26.268,78.281-61.625h5.7188c-8.607,38.467-42.936,67.219-84,67.219s-75.393-28.752-84-67.219z"/>  <path fill="#000" d="m100,894.06c-30.514,0-55.557,23.453-58.094,53.312h13.969c2.4907-22.162,21.298-39.406,44.125-39.406s41.634,17.244,44.125,39.406h13.969c-2.53-29.85-27.58-53.31-58.09-53.31zm-58.094,63.32c2.377,27.98,24.517,50.304,52.406,53v-14c-20.197-2.5819-36.157-18.712-38.438-39h-13.969zm102.22,0c-2.2803,20.288-18.24,36.418-38.438,39v14c27.889-2.6964,50.029-25.02,52.406-53h-13.969z"/>  <path stroke-linejoin="miter" d="m100,921.96,0-32.1" stroke-dashoffset="10" stroke="#000" stroke-linecap="butt" stroke-miterlimit="4" stroke-dasharray="none" stroke-width="13.9" fill="none"/> </g></svg>