<svg xmlns="http://www.w3.org/2000/svg" xmlns:xlink="http://www.w3.org/1999/xlink" viewBox="-900 -700 1800 1225" width="720" height="490">
<path d="M-322.75678-414.068908a525 525 0 0 1 645.513561 0L184.064009-297.691855a350 350 0 0 0-368.128018 0zM-340.056588 82.834273a350 350 0 0 0 680.113177 0L520.501833-68.577266a525 525 0 1 1-1041.003667 0zM0-700L150 0H-150z"/>
<path id="a" d="M333.835787-405.189668H606.087457L312.066058-158.47642A350 350 0 0 0 196.290748-289.775676zm293.912543 0H900L344.682714 60.776862A350 350 0 0 0 318.3064-145.537059z"/>
<use xlink:href="#a" transform="scale(-1 1)"/>
</svg>