<?xml version="1.0" encoding="UTF-8" standalone="no"?><!-- Created with Inkscape (http://www.inkscape.org/) --><svg xmlns:rdf="http://www.w3.org/1999/02/22-rdf-syntax-ns#" xmlns="http://www.w3.org/2000/svg" height="340" width="340" version="1.1" xmlns:cc="http://creativecommons.org/ns#" xmlns:dc="http://purl.org/dc/elements/1.1/"> <metadata>  <rdf:RDF>   <cc:Work rdf:about="">    <dc:format>image/svg+xml</dc:format>    <dc:type rdf:resource="http://purl.org/dc/dcmitype/StillImage"/>    <dc:title/>   </cc:Work>  </rdf:RDF> </metadata> <g transform="translate(15,-718.375)" fill="#000">  <path d="m124,729.38,0,11.094c-70.752,14.36-124,76.92-124,151.91,0,85.604,69.396,155,155,155s155-69.396,155-155c0-74.989-53.248-137.54-124-151.91v-11.094h-23v56.312c55.351,4.0989,99,50.289,99,106.69,0,59.094-47.906,107-107,107s-107-47.906-107-107c0-56.398,43.649-102.59,99-106.69v-56.312zm0,19.312,0,18.438c-56.27,13.882-98,64.694-98,125.25,0,71.245,57.755,129,129,129s129-57.755,129-129c0-60.556-41.73-111.37-98-125.25v-18.438c66.297,14.233,116,73.138,116,143.69,0,81.186-65.814,147-147,147s-147-65.814-147-147c0-70.549,49.703-129.45,116-143.69z"/>  <path d="m148,818.72c-13.483,1.2663-25.914,6.1354-36.312,13.656h36.312v-13.656zm14,0v147.28c5.5362-0.51998,10.886-1.6406,16-3.3125v-140.66c-5.1137-1.6719-10.464-2.7925-16-3.3125zm26.5,7.6562,0,131.97c5.8228-2.9615,11.192-6.6692,16-11v-109.97c-4.8077-4.3308-10.177-8.0385-16-11zm-88.062,16c-3.6234,3.9535-6.7967,8.3286-9.5,13h57.062v-13h-47.562zm114.56,6.68v86.594c8.8043-12.176,14-27.107,14-43.281,0-16.177-5.1927-31.135-14-43.312zm-128.91,16.32c-1.6317,4.1636-2.8907,8.5083-3.75,13h65.656v-13h-61.906zm-5,23c-0.071,1.32-0.094,2.65-0.094,4,0,3.0524,0.20346,6.0445,0.5625,9h66.438v-13h-66.906zm2.4062,23c7.8187,29.467,33.338,51.698,64.5,54.625v-54.625h-64.5zm24.5,13,27,0,0,19c-14.912,0-27-8.5066-27-19z"/> </g></svg>