<?xml version="1.0" encoding="UTF-8" standalone="no"?>
<!-- Created with Inkscape (http://www.inkscape.org/) -->

<svg
   xmlns:dc="http://purl.org/dc/elements/1.1/"
   xmlns:cc="http://creativecommons.org/ns#"
   xmlns:rdf="http://www.w3.org/1999/02/22-rdf-syntax-ns#"
   xmlns:svg="http://www.w3.org/2000/svg"
   xmlns="http://www.w3.org/2000/svg"
   version="1.1"
   width="280"
   height="280"
   id="svg3013">
  <defs
     id="defs3015" />
  <metadata
     id="metadata3018">
    <rdf:RDF>
      <cc:Work
         rdf:about="">
        <dc:format>image/svg+xml</dc:format>
        <dc:type
           rdf:resource="http://purl.org/dc/dcmitype/StillImage" />
        <dc:title></dc:title>
      </cc:Work>
    </rdf:RDF>
  </metadata>
  <g
     transform="translate(0,-772.3622)"
     id="layer3"
     style="display:inline">
    <path
       d="m 130,782.375 0,5.40625 C 67.287575,792.7517 17.588352,843.99678 15.09375,907.375 l 20.03125,0 C 37.577478,855.03856 78.334501,812.72274 130,807.84375 l 0,10.0625 C 83.869456,822.73402 47.558061,860.57278 45.125,907.375 l 20.0625,0 c 2.572419,-39.09066 35.07093,-70 74.8125,-70 39.74157,0 72.24008,30.90934 74.8125,70 l 20.0625,0 C 232.44194,860.57278 196.13055,822.73402 150,817.90625 l 0,-10.0625 c 51.6655,4.87899 92.42252,47.19481 94.875,99.53125 l 20.03125,0 C 262.41165,843.99678 212.71243,792.7517 150,787.78125 l 0,-5.40625 -20,0 z m -114.90625,135 C 17.588352,980.75322 67.287575,1031.9983 130,1036.9688 l 0,5.4062 20,0 0,-5.4062 c 62.71243,-4.9705 112.41165,-56.21558 114.90625,-119.5938 l -20.03125,0 c -2.45248,52.33644 -43.2095,94.6523 -94.875,99.5312 l 0,-10.0624 c 46.13055,-4.8278 82.44194,-42.66658 84.875,-89.4688 l -20.0625,0 C 212.45956,953.1305 185.06935,982.04578 150,986.7188 l 0,-6.3438 -20,0 0,6.3438 C 94.930648,982.04578 67.540444,953.1305 65.1875,917.375 l -20.0625,0 c 2.433061,46.80222 38.744456,84.641 84.875,89.4688 l 0,10.0624 C 78.334501,1012.0273 37.577478,969.71144 35.125,917.375 l -20.03125,0 z"
       id="path3036-5"
       style="fill:#000000;stroke:none" />
    <path
       d="m 140,907.375 c -17.31266,14.18934 -41.353285,18.35983 -62.78125,10 2.550504,32.45439 29.67169,58 62.78125,58 33.10482,0 60.22408,-25.55223 62.78125,-58 -21.42418,8.35836 -45.46409,4.18943 -62.78125,-10 z"
       id="path3036-9-6"
       style="fill:#000000;stroke:none;display:inline" />
  </g>
</svg>
