<?xml version="1.0" encoding="UTF-8" standalone="no"?><!-- Created with Inkscape (http://www.inkscape.org/) --><svg xmlns="http://www.w3.org/2000/svg" height="383" width="336" version="1.1" xmlns:xlink="http://www.w3.org/1999/xlink"> <g transform="translate(-97.774953,-74.399291)">  <path id="path3802" fill="#003" d="m340.39,218.56s-15.113,8.7254,86.216-49.777l-157.32-90.799v28.314l111.4,64.316-21.48,12.402-89.919-51.914v24.803l68.438,39.513-18.712,10.803z"/>  <path fill="#ffd700" d="m265.75,194.88-41.657,128.2,109.07-79.241-134.83,0,109.07,79.241z"/>  <use xlink:href="#path3802" transform="matrix(0.5,-0.8660254,0.8660254,0.5,-97.297604,363.0029)" height="531.49603" width="531.49603" y="0" x="0"/>  <use xlink:href="#path3802" transform="matrix(-0.5,-0.8660254,0.8660254,-0.5,168.45041,628.7822)" height="531.49603" width="531.49603" y="0" x="0"/>  <use xlink:href="#path3802" transform="matrix(-1,0,0,-1,531.49605,531.49603)" height="531.49603" width="531.49603" y="0" x="0"/>  <use xlink:href="#path3802" transform="matrix(-0.5,0.8660254,-0.8660254,-0.5,628.79366,168.4931)" height="531.49603" width="531.49603" y="0" x="0"/>  <use xlink:href="#path3802" transform="matrix(0.5,0.8660254,-0.8660254,0.5,363.04561,-97.286179)" height="531.49603" width="531.49603" y="0" x="0"/> </g></svg>