<?xml version="1.0" encoding="UTF-8" standalone="no"?>
<!-- Created with Inkscape (http://www.inkscape.org/) -->

<svg
   xmlns:dc="http://purl.org/dc/elements/1.1/"
   xmlns:cc="http://creativecommons.org/ns#"
   xmlns:rdf="http://www.w3.org/1999/02/22-rdf-syntax-ns#"
   xmlns:svg="http://www.w3.org/2000/svg"
   xmlns="http://www.w3.org/2000/svg"
   xmlns:sodipodi="http://sodipodi.sourceforge.net/DTD/sodipodi-0.dtd"
   xmlns:inkscape="http://www.inkscape.org/namespaces/inkscape"
   width="57.838696mm"
   height="42.784554mm"
   viewBox="0 0 57.838696 42.784554"
   version="1.1"
   id="svg8"
   inkscape:version="0.92.4 (5da689c313, 2019-01-14)"
   sodipodi:docname="Emblem_of_Ozora,_Hokkaido.svg">
  <defs
     id="defs2" />
  <sodipodi:namedview
     id="base"
     pagecolor="#ffffff"
     bordercolor="#666666"
     borderopacity="1.0"
     inkscape:pageopacity="0.0"
     inkscape:pageshadow="2"
     inkscape:zoom="2.8"
     inkscape:cx="160.32307"
     inkscape:cy="97.523102"
     inkscape:document-units="mm"
     inkscape:current-layer="layer1"
     showgrid="false"
     showguides="false"
     fit-margin-top="0"
     fit-margin-left="0"
     fit-margin-right="0"
     fit-margin-bottom="0"
     inkscape:window-width="1920"
     inkscape:window-height="996"
     inkscape:window-x="1912"
     inkscape:window-y="-8"
     inkscape:window-maximized="1" />
  <metadata
     id="metadata5">
    <rdf:RDF>
      <cc:Work
         rdf:about="">
        <dc:format>image/svg+xml</dc:format>
        <dc:type
           rdf:resource="http://purl.org/dc/dcmitype/StillImage" />
        <dc:title></dc:title>
      </cc:Work>
    </rdf:RDF>
  </metadata>
  <g
     inkscape:label="レイヤー 1"
     inkscape:groupmode="layer"
     id="layer1"
     transform="translate(-46.563123,-17.218936)">
    <path
       style="fill:#0e3092;fill-opacity:1;stroke-width:0.26458332"
       d="m 104.33996,25.779009 c -0.14437,-0.0104 -0.54023,0.386867 -1.17771,1.264522 -4.715403,6.491962 -12.522251,11.206022 -22.763468,13.744897 -5.392988,1.336964 -14.059894,2.434037 -21.101036,2.32079 l -4.461227,-0.0155 -3.059245,2.991548 c 3.146822,0.52646 10.840453,0.156949 16.24397,-0.270782 17.356772,-1.811758 29.666532,-7.948393 35.306886,-17.600477 0.89611,-1.533462 1.22283,-2.419795 1.01183,-2.434994 z"
       id="path850"
       inkscape:connector-curvature="0" />
    <path
       style="fill:#19862d;fill-opacity:1;stroke-width:0.26458332"
       d="m 104.34151,29.14056 c -0.12615,-0.02278 -0.83554,0.786207 -1.64848,1.887225 -1.96134,2.656367 -5.332668,5.872732 -8.019667,7.651729 -2.902188,1.92147 -7.909343,4.323416 -11.265461,5.403805 -8.03451,2.586445 -18.093341,3.819901 -28.034464,3.477824 l -4.911328,-0.168982 -3.898987,3.792532 c 3.815148,0.199803 16.808198,-0.258365 21.458121,-0.756025 5.927042,-0.753759 12.710395,-2.347963 16.788121,-3.946012 0.930627,-0.36471 1.490348,-0.53109 1.869139,-0.57826 -0.181515,0.302913 -5.619139,2.919672 -7.563879,3.572391 -5.009791,1.681451 -14.60948,3.226713 -18.874301,3.233912 0.796176,0.847328 0.739389,0.883965 1.98024,2.189014 2.18818,2.301383 6.427356,4.01747 9.504846,4.686017 2.930483,0.636614 6.949892,0.53808 9.960115,-0.243911 8.2779,-2.150423 15.296542,-9.673971 15.858464,-20.0117 0.239712,-0.274542 0.141144,-0.0925 1.283126,-1.319297 2.325675,-2.498418 5.801245,-8.061531 5.531965,-8.854757 -0.003,-0.0091 -0.009,-0.014 -0.0176,-0.01551 z"
       id="path838"
       inkscape:connector-curvature="0" />
    <path
       style="fill:#4dabcf;fill-opacity:1;stroke-width:0.26458332"
       d="m 54.739323,37.812275 c 0.313314,-5.904573 2.489316,-10.750886 6.57042,-14.633399 4.399836,-4.185734 8.899027,-5.967909 15.046105,-5.959913 7.754387,0.01009 14.844149,4.268599 18.648024,11.201058 0.612063,1.115466 0.616829,1.135222 0.979295,1.839691 1.735286,-1.003259 6.269393,-5.248946 7.620813,-7.177851 0.82718,-1.180636 0.99114,-0.646588 0.25177,0.820025 -1.62349,3.220315 -5.385773,7.250393 -9.088572,9.735478 -2.278912,1.529464 -5.826644,3.278441 -8.772329,4.324627 l -1.870374,0.664279 -0.713317,-0.893971 c -0.777094,-0.973904 -1.631251,-1.592996 -4.13906,-1.453574 -0.947,-2.313873 -1.440917,-2.619159 -3.695445,-2.389417 -1.596747,-6.676731 -6.110938,-6.4639 -9.018999,-4.603879 -2.790783,2.143278 -2.353548,4.468299 -2.374263,5.177623 -1.105733,-0.118372 -2.535984,-0.03009 -3.19508,0.707564 -0.548112,0.613444 -0.772046,1.138615 -0.772046,1.810605 v 0.946536 l -1.060817,-0.122536 c -3.09252,0.0026 -3.616109,1.557341 -4.472149,3.000415 -7.6e-4,-0.136072 -0.03433,-1.290495 0.05602,-2.993361 z"
       id="path828"
       inkscape:connector-curvature="0"
       sodipodi:nodetypes="cssscccsscccccccsccccc" />
  </g>
</svg>
