<svg xmlns:svg="http://www.w3.org/2000/svg" xmlns="http://www.w3.org/2000/svg" width="300.09" height="300" version="1.1"><g transform="translate(-1219.9827,-246.96765)"><path d="m1286.56 491.76 10.35-10.49-12.26-12.08-10.21 10.34c-17.04-19.7-28.11-44.72-30.33-72.27l-24.13 0c5.05 74.67 64.55 134.37 139.15 139.71l0-24.13c-27.72-2.37-52.86-13.7-72.57-31.07zm209.36-84.5c-2.23 27.68-13.39 52.81-30.57 72.56l-10.54-10.29-12.03 12.3 10.41 10.18c-19.66 17.22-44.7 28.47-72.3 30.83l0 24.13c74.6-5.34 134.11-65.04 139.17-139.71l-24.15 0z" fill="#5a9cff"/><path d="m1329.55 383.4-20.08 0c6.18-27.74 30.94-48.5 60.56-48.5 29.61 0 54.37 20.76 60.55 48.5l-20.1 0c-5.67-16.93-21.61-29.13-40.45-29.13-18.84 0-34.81 12.21-40.48 29.13m102.01 5.74-121.88 0 0 15.25 102.35 0c-3.53 20.04-20.98 35.27-42 35.27-18.92 0-34.93-12.31-40.54-29.34l-20.06 0c6.11 27.86 30.91 48.7 60.61 48.7 34.26 0 62.05-27.79 62.05-62.07 0-2.64-0.18-5.25-0.52-7.81zm-51.9-91.75 0-18.17-19.41 0 0 18.18c-50.67 4.91-90.27 47.61-90.27 99.55 0 52.51 40.46 95.53 91.89 99.68l0-17.67c-41.69-4.1-74.25-39.25-74.25-82.02 0-45.51 36.89-82.4 82.42-82.4 45.5 0 82.4 36.89 82.4 82.4 0 42.76-32.55 77.92-74.24 82.02l0 17.67c51.43-4.15 91.89-47.17 91.89-99.68 0-51.99-39.67-94.71-90.41-99.56z" fill="#ff1029"/><path d="m1359.14 271.11c-27.38 2.33-52.25 13.43-71.86 30.42l10.25 10.08-12.07 12.26-10.39-10.2c-17.15 19.54-28.39 44.4-30.85 71.81l-24.14 0c5.59-74.13 64.87-133.21 139.07-138.52l0 24.14m160.84 114.38c-5.58-74.13-64.87-133.21-139.07-138.52l0 24.14c27.41 2.33 52.33 13.44 71.92 30.49l-10.17 10.42 12.32 12.01 10.05-10.29c17.13 19.53 28.36 44.38 30.81 71.75l24.14 0z" fill="#5a9c29"/></g></svg>