<?xml version="1.0" encoding="UTF-8"?><svg width="425" height="444" viewBox="38 27 425 444" xmlns="http://www.w3.org/2000/svg" version="1.1">
 <path xmlns="http://www.w3.org/2000/svg" d="m238 30v80h24v-80zm0 92v12.93l-102.31 59.07v132l114.31 66 114.31-66v-132l-102.31-59.07v-12.93zm0 312v36h24v-36zm12-144a30 30 0 0 0 0-60 30 30 0 0 0 0 60zm0-127.36 84.31 48.68v97.36l-84.31 48.68-84.31-48.68v-97.36zm-22 291.12a195 195 0 1 1 44 0v15.09a210 210 0 1 0-44 0zm0-15.11a180 180 0 0 0 44-357.31v15.115a165 165 0 0 1-44 327.08zm-10-16.76a165 165 0 0 1 32-326.9v-15a180 180 0 0 0-32 357.15z" fill="#000000"/>
</svg>