<svg xmlns:svg="http://www.w3.org/2000/svg" xmlns="http://www.w3.org/2000/svg" width="157.06" height="145.92" version="1.1"><g transform="translate(-1151.3263,-739.84315)"><path d="m1183.72 812.99c4.39-26.73 29.51-47.26 59.84-47.26 33.42 0 60.52 24.91 60.52 55.62 0 0.4 0.11 0.69 0.1 1.09 0.84 1.17 1.72 2.7 2.74 4.25 0.96-4.56 1.47-9.26 1.47-14.07 0-40.17-35.16-72.77-78.53-72.77-43.37 0-78.53 32.6-78.53 72.77 0 7.39 0.84 13.93 3.05 20.66 3.67-13.46 22.94-18.68 29.35-20.28" fill="#39beea"/><path d="m1231.01 809.7c0 0-69.71-0.84-75.63 26.19 0 0 16.06 49.86 74.15 49.86 0 0 50.49 2.11 72.88-46.06 0 0-21.13 10.35-53.45 10.35 0 0-73.73-0.42-25.77-31.05l7.82-9.29" fill="#004199"/><path d="m1304.54 825.84c0 0 3.8 5.07-2.33 9.51 0 0-10.14 9.3-47.95 11.83 0 0-30.21 0.85-39.3-5.91 0 0-4.64-2.96-1.27-7.4 0 0 22.82-29.98 34.44-38.84 0 0 15.21-13.5 27.25-6.96 0 0 10.14 2.32 29.15 37.77" fill="#39a937"/></g></svg>