<?xml version="1.0" encoding="UTF-8"?><svg width="452" height="335" viewBox="24 82 452 335" xmlns="http://www.w3.org/2000/svg">
 <path xmlns="http://www.w3.org/2000/svg" fill="#03b2e5" d="m367.9 83.67c-47.7 0.6-95.3 21.63-127.2 57.13-21.6 24-32.2 55-43.9 84.4 18.84 3.315 37.76 6.768 55.55 14.06 4.144 1.464 12.26 5.387 12.07-2.32 5.829-35.61 14.95-72.07 36.49-101.7 14.42-20.77 36.79-36.55 61.96-40.72 3.867-0.9392 7.514 0.194 8.232 4.559 0.6077-5.138 0.9662-10.31 1.408-15.44-1.537-0.02325-3.075-0.02325-4.613 0zm-229.7 246.7c-6.823 7.237-12.87 15.16-19.2 22.84-20.69 25.19-45.83 46.96-74.25 62.98 46.44-1.519 92.95-0.1094 139.4-0.6894 14.53-15.91 28.01-33.31 36.71-53.15-29-6.795-55.69-19.89-82.71-31.99z"/>
 <path xmlns="http://www.w3.org/2000/svg" fill="#2d4f7d" d="m372.5 83.68c25.33-0.9392 51.52 3.923 73.23 17.49 15.05 9.724 26.77 26.49 26.3 44.97-0.1381 24-15.03 45.99-34.78 58.81-7.735 5.414-16.77 8.536-24.56 13.84 0 1-0.2762 2.707-0.3591 3.591 15.77 6.077 32.15 12.79 43.18 26.27 19.01 20.99 23.62 52 15.88 78.7-5.911 25.14-21.63 47.65-43.18 61.93-31.77 21.35-71.13 27.15-108.7 27.15 2.652-19.86 5.69-39.7 9.641-59.34 19.01-7.845 35.86-19.72 54.06-29.03 19.09-5.469 39.31-8.315 56.9-18.09-33.7-7-67.82-14.89-98.75-30.58 10-60 19.2-120.3 29.7-180.3 0.6077-5.138 1-10.3 1.409-15.44z"/>
 <path xmlns="http://www.w3.org/2000/svg" fill="#b3d23f" d="m182 235.5c-24.36 0.1454-48.75 5.472-71.4 14.38 25.14 3.923 51.11 3.424 75.41 11.68 37.46 10.25 70.19 32.02 106.4 45.28 36.88 14.17 78.4 17.13 116.5 6.078-19.25-4.972-38.81-8.95-57.51-15.8-43.18-15.97-80.97-44.61-126-55.94-14.21-3.988-28.82-5.767-43.43-5.68zm-65.42 28.86c-31.4 0.236-63.28 4.937-91.61 18.86 46.1 6.298 89.67 23.84 131.2 44.17 32.35 15.94 67.1 29.09 103.6 30 33.01 1.492 67.93-5.857 94.58-26.16-10.19-1.298-20.52-1.354-30.69-3.012-27.38-4.116-53.15-15.11-77.73-27.43-36.46-17.76-74.86-34.2-115.9-36.27-4.454-0.1347-8.93-0.1919-13.42-0.1582z"/>
</svg>