<svg xmlns:svg="http://www.w3.org/2000/svg" xmlns="http://www.w3.org/2000/svg" width="300" height="300" version="1.1"><g transform="translate(-532.14288,-351.64795)"><path d="m682.14 351.65a150 150 0 0 0-150 150 150 150 0 0 0 150 150 150 150 0 0 0 150-150 150 150 0 0 0-150-150zm33 54c44.45 0.12 85.37 24.2 107.05 63-13.93-20.61-37.17-32.97-62.05-33-41.42 0-75 33.58-75 75 0.02 12.93 3.37 25.4 9.46 36.35 17.4 21.51 22.68 32.87-8.2 44.6-12.14 3.95-24.89 6.02-37.82 6.05-44.19-0.12-84.92-23.93-106.7-62.38 14 20.27 37.06 32.37 61.7 32.38 41.42 0 75-33.58 75-75-0.01-12.94-3.35-25.41-9.43-36.36-17.37-21.51-22.66-32.87 8.21-44.59 12.13-3.95 24.87-6.02 37.78-6.05z" fill="#541b86"/></g></svg>