<?xml version="1.0" encoding="UTF-8" ?>
<!DOCTYPE svg PUBLIC "-//W3C//DTD SVG 1.1//EN" "http://www.w3.org/Graphics/SVG/1.1/DTD/svg11.dtd">
<svg width="326pt" height="322pt" viewBox="0 0 326 322" version="1.1" xmlns="http://www.w3.org/2000/svg">
<path fill="#ffffff" d=" M 0.00 0.00 L 326.00 0.00 L 326.00 322.00 L 0.00 322.00 L 0.00 0.00 Z" />
<path fill="#010102" d=" M 112.05 19.33 C 132.78 10.69 155.87 8.96 178.03 11.24 C 189.74 12.40 201.22 15.25 212.36 18.97 C 211.99 24.37 209.42 29.20 207.61 34.20 C 188.92 27.96 168.97 25.77 149.35 27.24 C 138.56 28.18 127.78 30.06 117.61 33.89 C 114.16 29.81 113.06 24.43 112.05 19.33 Z" />
<path fill="#010102" d=" M 68.55 42.61 C 77.76 35.33 87.90 29.37 98.35 24.09 C 101.89 28.42 104.00 33.74 105.25 39.14 C 92.41 45.31 80.13 52.91 69.94 62.95 C 58.28 74.01 49.34 87.64 42.42 102.07 C 37.39 100.30 32.58 97.94 28.03 95.17 C 36.69 74.51 50.85 56.30 68.55 42.61 Z" />
<path fill="#010102" d=" M 224.92 25.27 C 240.87 32.10 255.53 41.93 267.87 54.13 C 279.89 66.31 289.75 80.61 296.92 96.15 C 292.64 99.70 287.25 101.37 282.01 102.93 C 270.15 74.43 246.23 52.37 218.76 39.05 C 220.72 34.42 222.92 29.88 224.92 25.27 Z" />
<path fill="#010102" d=" M 122.11 45.91 C 134.37 42.14 147.13 39.88 159.99 40.07 C 174.49 39.77 189.10 41.76 202.76 46.73 C 197.85 61.14 193.33 75.69 188.16 90.02 C 184.83 89.02 181.49 88.05 178.09 87.35 C 179.05 77.39 182.09 67.79 183.73 57.95 C 169.73 54.73 155.14 54.99 141.07 57.57 C 142.55 67.49 145.61 77.12 146.89 87.07 C 143.40 87.94 140.02 89.21 136.52 90.07 C 132.36 75.14 125.02 61.17 122.11 45.91 Z" />
<path fill="#010102" d=" M 54.56 108.02 C 65.47 82.91 86.13 62.24 111.09 51.02 C 113.95 53.91 115.33 57.76 116.79 61.46 C 121.51 71.69 126.49 81.81 131.19 92.06 C 128.53 94.37 125.38 96.00 122.10 97.25 C 116.98 88.90 111.20 80.93 106.74 72.18 C 89.66 81.51 77.15 97.42 69.14 114.91 C 64.05 113.14 59.28 110.61 54.56 108.02 Z" />
<path fill="#010102" d=" M 206.11 65.46 C 207.80 60.40 210.53 55.81 212.87 51.04 C 224.96 56.99 236.41 64.49 245.97 74.03 C 256.30 84.01 264.44 96.20 270.05 109.40 C 256.67 115.71 243.28 122.02 229.69 127.87 C 227.45 125.38 225.82 122.42 224.82 119.23 C 232.40 113.28 240.87 108.63 248.98 103.49 C 242.29 93.01 233.93 83.52 223.85 76.19 C 218.33 71.99 212.19 68.74 206.11 65.46 Z" />
<path fill="#010102" d=" M 122.93 115.91 C 132.01 105.52 145.86 100.49 159.42 100.14 C 159.31 105.54 159.70 110.94 160.55 116.27 C 150.36 116.33 141.24 121.36 132.98 126.81 C 129.32 123.47 126.04 119.76 122.93 115.91 Z" />
<path fill="#010102" d=" M 165.42 100.08 C 179.42 101.42 193.62 106.19 203.96 116.04 C 215.07 126.54 220.72 141.73 221.99 156.73 C 216.87 157.55 211.68 157.46 206.53 157.87 C 204.49 146.39 200.28 134.60 191.11 126.88 C 183.78 120.39 174.07 117.38 164.52 116.22 C 164.40 110.81 165.53 105.49 165.42 100.08 Z" />
<path fill="#010102" d=" M 14.56 175.85 C 12.48 153.12 14.20 129.57 22.47 108.13 C 27.63 109.46 32.63 111.33 37.40 113.69 C 31.34 129.35 29.44 146.32 29.76 163.02 C 30.32 176.95 32.30 190.91 36.92 204.12 C 32.01 205.29 27.44 207.49 22.55 208.72 C 18.03 198.32 15.92 187.05 14.56 175.85 Z" />
<path fill="#010102" d=" M 287.81 114.97 C 292.81 113.09 297.80 111.09 302.98 109.75 C 307.45 123.06 310.48 136.93 310.92 151.00 C 311.98 159.35 310.92 167.72 310.53 176.07 C 309.42 187.70 306.92 199.19 303.02 210.21 C 297.74 209.25 292.70 207.29 287.78 205.20 C 297.99 176.30 297.68 143.93 287.81 114.97 Z" />
<path fill="#010102" d=" M 49.94 118.77 C 53.92 119.45 57.69 120.90 61.48 122.23 C 72.20 126.07 82.84 130.12 93.67 133.66 C 92.60 136.93 91.70 140.24 90.97 143.59 C 81.05 142.66 71.51 139.59 61.83 137.38 C 57.20 151.29 58.83 166.15 60.90 180.36 C 70.77 178.47 80.64 176.54 90.48 174.42 C 91.58 177.99 92.81 181.51 93.74 185.13 C 79.05 189.42 64.76 195.01 49.90 198.70 C 45.19 186.37 43.10 173.16 43.21 160.00 C 43.03 146.03 44.70 131.81 49.94 118.77 Z" />
<path fill="#010102" d=" M 232.16 133.96 C 246.14 129.25 260.22 124.79 274.09 119.74 C 278.69 129.16 280.62 139.60 281.49 149.97 C 282.38 167.11 281.23 184.85 274.44 200.82 C 260.52 195.59 246.37 190.99 232.14 186.71 C 232.54 183.47 233.15 180.21 234.50 177.22 C 244.20 177.47 253.73 180.26 263.23 182.19 C 266.66 168.11 266.43 153.20 263.55 139.04 C 253.80 139.75 244.51 143.27 234.76 143.98 C 233.95 140.62 232.91 137.32 232.16 133.96 Z" />
<path fill="#010102" d=" M 103.38 156.72 C 103.34 143.39 109.40 131.08 117.11 120.54 C 122.18 122.47 125.49 126.91 129.63 130.18 C 124.07 138.42 119.63 147.60 118.49 157.59 C 113.43 157.68 108.43 156.78 103.38 156.72 Z" />
<path fill="#010102" d=" M 155.33 130.07 C 164.72 127.98 175.14 130.09 182.43 136.53 C 194.49 146.47 196.33 166.24 186.33 178.25 C 176.34 191.21 155.39 194.00 142.90 183.10 C 131.41 173.73 128.39 155.84 136.12 143.22 C 140.25 136.33 147.55 131.73 155.33 130.07 Z" />
<path fill="#ffffff" d=" M 156.45 146.65 C 160.45 145.11 165.15 145.00 168.93 147.20 C 176.90 151.65 179.09 163.94 172.48 170.47 C 168.88 173.43 163.77 175.09 159.21 173.60 C 151.84 171.74 147.50 163.48 148.48 156.24 C 148.98 151.84 152.40 148.17 156.45 146.65 Z" />
<path fill="#010102" d=" M 103.36 163.21 C 108.41 162.80 113.46 162.25 118.53 162.29 C 120.57 173.88 125.13 185.79 134.65 193.27 C 141.77 199.18 150.81 202.02 159.80 203.57 C 159.67 208.65 159.66 213.77 158.63 218.78 C 144.67 216.78 130.45 211.90 120.43 201.57 C 110.03 191.55 105.25 177.21 103.36 163.21 Z" />
<path fill="#010102" d=" M 205.83 162.34 C 211.24 162.21 216.61 163.04 222.02 163.24 C 220.67 179.13 214.28 195.40 201.50 205.52 C 191.36 213.88 178.24 217.42 165.39 218.78 C 164.88 213.73 164.41 208.68 164.56 203.60 C 175.35 201.91 186.52 198.35 194.19 190.18 C 201.45 182.82 205.02 172.49 205.83 162.34 Z" />
<path fill="#010102" d=" M 54.73 209.10 C 68.19 202.47 81.99 196.50 95.14 189.24 C 97.25 192.26 98.93 195.55 100.19 199.01 C 91.94 204.11 84.12 209.89 75.71 214.74 C 85.71 231.17 100.66 244.46 118.16 252.47 C 116.69 257.57 113.53 261.96 111.96 267.03 C 93.71 259.08 77.79 245.86 66.23 229.67 C 61.88 223.15 57.22 216.60 54.73 209.10 Z" />
<path fill="#010102" d=" M 218.74 246.04 C 234.68 235.84 247.83 221.25 255.53 203.89 C 260.67 205.39 265.32 208.14 270.07 210.55 C 260.34 232.70 243.13 251.39 221.94 263.02 C 218.93 264.66 215.86 266.21 212.81 267.77 C 206.48 254.08 199.63 240.61 194.02 226.60 C 196.88 224.80 199.77 223.02 202.94 221.82 C 208.10 229.96 212.88 238.37 218.74 246.04 Z" />
<path fill="#010102" d=" M 27.87 221.75 C 32.37 219.87 36.48 217.15 41.15 215.68 C 45.13 220.64 48.02 226.33 51.38 231.70 C 64.39 252.38 83.52 268.83 105.28 279.77 C 103.72 284.70 101.23 289.24 99.06 293.91 C 67.44 279.77 41.84 253.34 27.87 221.75 Z" />
<path fill="#010102" d=" M 255.69 254.69 C 267.00 243.88 275.76 230.71 282.77 216.80 C 287.74 218.53 292.64 220.59 296.92 223.70 C 285.82 247.94 267.92 269.07 245.55 283.61 C 239.17 287.91 232.30 291.40 225.46 294.89 C 223.48 290.24 220.70 285.91 219.35 281.02 L 219.59 280.17 C 232.72 273.41 245.34 265.32 255.69 254.69 Z" />
<path fill="#010102" d=" M 136.93 228.81 C 140.25 229.38 143.48 230.39 146.67 231.46 C 144.44 241.02 142.90 250.73 140.40 260.22 C 154.45 263.96 169.18 262.95 183.44 261.17 C 182.89 251.13 178.69 241.74 178.15 231.72 C 181.45 230.71 184.76 229.72 188.17 229.13 C 192.78 243.32 197.59 257.46 202.78 271.45 C 193.64 275.95 183.43 277.54 173.38 278.42 C 156.09 279.36 138.45 277.89 122.03 272.14 C 125.83 257.33 131.87 243.22 136.93 228.81 Z" />
<path fill="#010102" d=" M 116.51 284.82 C 145.67 295.32 178.08 294.90 207.55 285.89 C 209.50 290.60 211.36 295.36 212.67 300.30 C 195.07 307.36 175.81 308.88 157.02 308.46 C 141.68 307.77 126.19 305.69 111.83 300.01 C 112.69 294.75 115.11 289.94 116.51 284.82 Z" />
</svg>
