<svg xmlns:svg="http://www.w3.org/2000/svg" xmlns="http://www.w3.org/2000/svg" width="263" height="244" version="1.1"><g transform="translate(0,-812.3627)"><path d="M120.43 0C103.29-0.08 85.93 3.51 69.57 11.09 22.71 32.8 0 81.88 0 132.08 0 153.24 9.27 172.26 28.54 177.64 49.07 183.35 70.18 170.69 75.69 149.35 81.19 128.02 69 106.08 48.46 100.36 46.57 99.85 44.64 99.48 42.69 99.27 48.65 76.98 64.16 57.68 86.39 47.38 115.92 33.7 149.88 39.31 173.26 60.21L63.13 96.06c18.5 11.45 27.43 34.27 21.86 55.88-3.09 11.88-20.2 28.87-20.2 28.87l0.01 0L8 244 79.99 233.17c43.41 15.32 93.13 4.61 126.3-29.68 33.22-34.34 42.28-84.48 25.43-127.41l-32.08 35.44c2.46 22.95-5.06 46.54-22.11 64.16-17.96 18.56-42.9 26.78-67.09 23.85L262.99 31.01 215 46.63C191.91 16.73 156.63 0.18 120.43 0ZM262.99 31.01 263 31 263 31Z" transform="translate(0,812.36216)"/></g></svg>