<svg xmlns:svg="http://www.w3.org/2000/svg" xmlns="http://www.w3.org/2000/svg" width="400.68" height="300" version="1.1"><g transform="translate(0,-752.36216)"><path d="m196.21 752.36c-19.62 0-35.51 15.92-35.51 35.53 0 19.61 15.89 35.51 35.51 35.51 19.64 0 35.51-15.9 35.51-35.51 0-19.61-15.87-35.53-35.51-35.53z" fill="#d82d2c"/><path d="m400.68 799.04c-104.01 66.29-164.65-11.18-222.13 98.57 176.66 14.65 200.18-36.8 222.13-98.57z" fill="#005b98"/><path d="m170.2 840.29c0 0-6.19 6.57-71.52 1.21C31.98 836.07 4.76 883.69 0 900.7c34.03-2.72 50.34-2.05 86.41 0-41.5 12.25-83.63 40.38-83.63 69.9 0 45.15 79.09 81.76 176.6 81.76 97.54 0 176.6-36.61 176.6-81.76 0-27.94-34.17-58.05-84.34-67.34l-5.04 0c22.32 9.19 33.87 21.35 33.87 35.2 0 26.9-54.2 48.75-121.09 48.75-66.87 0-121.09-21.85-121.09-48.75 0-29.15 43.11-36.66 66.15-47.87 40.8-19.87 45.76-50.29 45.76-50.29z" fill="#008f4b"/></g></svg>