<svg xmlns:svg="http://www.w3.org/2000/svg" xmlns="http://www.w3.org/2000/svg" width="512" height="468" version="1.1"><g transform="translate(679.35718,-381.21936)"><path d="m-423.16 397.22-30.69 30.69A203.8 203.8 0 0 0-605.01 537.73l-38.66 19.7 19.67 38.6a203.8 203.8 0 0 0-2.96 33.19 203.8 203.8 0 0 0 60.79 144.96l6.73 42.48 42.44-6.72a203.8 203.8 0 0 0 93.85 23.09 203.8 203.8 0 0 0 93.99-23.06l42.29 6.7 6.7-42.3a203.8 203.8 0 0 0 60.82-145.13 203.8 203.8 0 0 0-2.82-33.46l19.53-38.33-38.39-19.56A203.8 203.8 0 0 0-392.36 428.02l-30.8-30.8z" style="fill:#f72d1e;stroke-width:4;stroke:#000"/><g transform="translate(383.80276,-351.51565)"><path d="m-894.19 860.43-109.67 55.88 55.88 109.67 19.26 121.57 121.57-19.25 121.57 19.25 19.26-121.57 55.88-109.67-109.67-55.88-87.03-87.04z"/><path d="m-809.16 781.05 0 193.02-81.22-111.8zM-805.16 781.05l81.22 81.22-81.22 111.79zM-893.62 864.62l81.22 111.79-183.57-59.64zM-720.7 864.62l102.34 52.15-183.57 59.64zM-997.2 920.57l183.57 59.64-131.42 42.7zM-617.12 920.57l-52.15 102.34-131.42-42.7zM-812.39 984.02l-113.45 156.15-17.97-113.45zM-801.92 984.02l131.42 42.71-17.97 113.45zM-809.16 986.38l0 138.18-113.45 17.97 113.45-156.15zM-805.16 986.38l113.45 156.15-113.45-17.97z" fill="#fff"/></g><circle cx="-423.16" cy="629.22" r="90" style="fill:#ff0;stroke-width:4;stroke:#000"/><path d="m-429.91 567.05 0 13.5-57.37 0 0 40.92c1.02 39.49-3.95 46.46-10.12 46.82l10.12 13.5c8.79-2.92 16.6-8.43 16.87-33.75l0-6.75 107.99 0 0-10.12 0-3.37 0-13.5 0-5.06 0-8.44-33.75 0 0-6.75 37.97 0 0-13.5-58.21 0 0-13.5zm-40.5 27 20.25 0 0 6.75-20.25 0zm33.75 0 27 0 0 6.75-27 0zm-33.75 20.25 20.25 0 0 13.5-20.25 0zm33.75 0 27 0 0 13.5-27 0zm40.5 0 20.25 0 0 13.5-20.25 0zm-20.25 33.75 0 47.25 47.25 0 0-13.5-27 0 0-13.5 27 0 0-13.5-27 0 0-6.75zm-47.25 0 0 47.25 20.25 0 20.25 0 0-13.5-20.25 0 0-13.5 20.25 0 0-13.5-20.25 0 0-6.75z" fill="#000"/></g></svg>