<svg xmlns:svg="http://www.w3.org/2000/svg" xmlns="http://www.w3.org/2000/svg" width="100" height="100" version="1.1"><g transform="translate(309.99618,-792.36218)"><path d="m-260-160c-17.88 0.03-34.38 9.59-43.28 25.09 15.99 0.44 31.41 6.54 43.31 17.22 11.89-10.68 27.28-16.79 43.26-17.25-8.91-15.49-25.42-25.05-43.29-25.06zm0 10c7.65 0.01 15.13 2.22 21.56 6.36-4.01 1.87-7.82 4.12-11.39 6.74-4.1-3.64-7.58-8.05-10.17-13.1zm0 0c-2.61 5.08-6.11 9.51-10.25 13.16-3.59-2.62-7.44-4.88-11.47-6.74 6.47-4.19 14.01-6.42 21.72-6.42zm-40 25c-2.62 0-5.28 0.24-7.87 0.7-1.4 4.64-2.12 9.46-2.13 14.3 0 27.61 22.39 50 50 50 27.61 0 50-22.39 50-50-0.01-4.83-0.72-9.64-2.1-14.27-2.6-0.48-5.26-0.72-7.9-0.73-16.85 0.02-32.28 9.45-39.98 24.44C-267.69-115.56-283.14-125-300-125Zm0.35 10.01c19.19 0.19 34.64 15.8 34.65 34.98l0 9.65c-19.99-2.52-34.98-19.5-35-39.65 0.01-1.67 0.13-3.33 0.35-4.98zm79.29 0c0.22 1.65 0.34 3.32 0.36 4.99-0.02 20.14-15.02 37.12-35 39.64L-255-80c0.01-19.18 15.46-34.79 34.64-34.99z" transform="translate(0,952.36218)" fill="#3c0"/></g></svg>