<?xml version="1.0" encoding="UTF-8"?>
<svg id="Layer_2" xmlns="http://www.w3.org/2000/svg" version="1.1" xmlns:cc="http://web.resource.org/cc/" xmlns:dc="http://purl.org/dc/elements/1.1/" xmlns:inkscape="http://www.inkscape.org/namespaces/inkscape" xmlns:ns1="http://sozi.baierouge.fr" xmlns:rdf="http://www.w3.org/1999/02/22-rdf-syntax-ns#" xmlns:sodipodi="http://sodipodi.sourceforge.net/DTD/sodipodi-0.dtd" xmlns:svg="http://www.w3.org/2000/svg" xmlns:xlink="http://www.w3.org/1999/xlink" viewBox="0 0 215 205">
  <!-- Generator: Adobe Illustrator 29.3.1, SVG Export Plug-In . SVG Version: 2.1.0 Build 151)  -->
  <defs>
    <style>
      .st0 {
        fill: #00a542;
      }
    </style>
  </defs>
  <path class="st0" d="M139,1c-9.2,7.5-24.4,14.3-31.9,14.3s-22.7-6.8-31.9-14.3c-3.2-2.6-5.9,0-4.8,4,4.8,17.4,20.7,61.6,26.3,80.2.7,2.4,4.3,2.3,4.8-.1,2.1-8.3,4-21.5,4.9-28.5.1-.7,1.2-.7,1.3,0,.9,6.9,2.9,20.1,4.9,28.5.6,2.5,4.1,2.5,4.8.1,5.6-18.5,21.4-62.8,26.3-80.2.9-4-1.7-6.7-4.9-4ZM21.7,39.8c4.3,11.2,6,27.6,3.7,34.7-2.2,6.7-13.5,19.4-23.5,26-3.6,2.3-1.8,5.6,2.3,5.9,18.1.7,65-.7,84.3-.2,2.5,0,3.6-3.3,1.4-4.6-7.2-4.5-19.2-10.5-25.5-13.5-.7-.3-.3-1.3.3-1.2,6.9,1.3,20.1,3.5,28.6,4.1,2.5.2,3.7-3.1,1.6-4.6-15.9-11-53-39.8-68.1-49.8-3.3-2.5-6.7-.8-5.2,3.1ZM22.9,164.6c11.8-.7,28.2,2.8,34.2,7.2,5.8,4.1,14.4,18.7,17.5,30.4,1,4,4.8,3.5,6.2-.5,6.3-16.9,19.4-62.1,25.9-80.3.8-2.4-2.1-4.4-4-2.8-6.6,5.5-15.9,15.1-20.7,20.1-.5.5-1.4-.1-1-.7,3.3-6.2,9.5-18.1,12.8-26,.9-2.4-1.8-4.5-3.8-3-15.4,11.6-54.3,38.2-68.4,49.3-3.3,2.6-2.8,6.3,1.5,6.1ZM142,201.4c3-11.5,11.4-25.9,17.5-30.4,5.8-4.1,22.3-7.8,34.2-7.2,4.1.2,4.8-3.5,1.5-6.1-14.1-11.2-53-37.7-68.4-49.3-2.1-1.5-4.8.6-3.8,3,3.2,7.9,9.4,19.8,12.8,26,.3.7-.5,1.3-1,.7-4.8-5.1-14.3-14.6-20.7-20.1-2-1.6-4.8.3-4,2.8,6.3,18.3,19.6,63.4,25.9,80.3,1.4,3.9,5.2,4.5,6.2.5ZM213.1,99.3c-10-6.4-21.2-18.9-23.5-26-2.2-6.7-.6-23.7,3.7-34.7,1.5-3.9-1.8-5.6-5.3-3.3-15.1,10-52.2,38.8-68.1,49.8-2.1,1.5-.9,4.7,1.6,4.6,8.5-.6,21.7-2.9,28.6-4.1.7-.1,1,.8.3,1.2-6.3,3.1-18.3,9-25.5,13.5-2.2,1.4-1.2,4.7,1.4,4.6,19.3-.3,66.4,1,84.3.2,4.1,0,5.9-3.3,2.4-5.6Z"/>
</svg>