<?xml version="1.0" encoding="UTF-8" standalone="no"?><!-- Created with Inkscape (http://www.inkscape.org/) --><svg xmlns="http://www.w3.org/2000/svg" height="127.56" width="127.56" version="1.1"> <g transform="translate(0,7.0866276)">  <path stroke-linejoin="miter" d="m63.793-1.4808c-34.722,20.482-58.101,58.106-58.469,101.25,17.258,9.7858,37.213,15.375,58.469,15.375s41.18-5.5892,58.438-15.375c-0.36792-43.134-23.728-80.765-58.438-101.25z" stroke-dashoffset="10" stroke="#c0c0c0" stroke-linecap="butt" stroke-miterlimit="4" stroke-dasharray="none" stroke-width="3.54330707" fill="#53545b"/>  <path fill="#3f5e41" d="m55.731,108.08-0.28125,1.375,15.438,0.125-0.625-1.5z"/>  <path stroke-linejoin="round" d="m55.452,108.39c1.4137-6.0143,2.3713-13.339,2.3713-19.098-4.6786,4.8107-5.9174,8.2233-13.208,8.2233-4.955,0-11.875-4.6899-11.875-13.367,0-0.9309,0.1568-3.1257,0.84362-5.2338-6.9017-1.9618-11.648-6.3609-11.648-14.593,0-11.941,14.833-15.12,24.503-10.792-4.4636-5.1707-7.598-11.469-7.598-16.573,0-7.4334,7.8986-12.459,14.778-12.459,4.4964,0,7.5986,2.8735,10.16,5.5918,3.0052-4.2426,7.0096-5.799,11.246-5.799,6.3865,0,12.745,4.2303,12.745,13.873,0,5.9882-3.4879,11.403-6.6257,16.043,7.2837-1.6764,20.702-0.6183,20.702,10.704,0,8.0553-3.5088,10.421-8.5544,12.648,1.2171,2.1082,2.0811,4.1261,2.0811,6.3829,0,5.2298-4.2683,13.19-13.024,13.19-7.2903,0-11.358-4.4733-16.92-8.2233,1.1966,6.7303,2.0183,12.023,5.4649,19.628" stroke="#c0c0c0" stroke-linecap="round" stroke-miterlimit="4" stroke-dasharray="none" stroke-width="2.12598419" fill="#3f5e41"/>  <path stroke-linejoin="miter" d="m47.835,35.433,32.776,0" stroke="#c0c0c0" stroke-linecap="round" stroke-miterlimit="4" stroke-dasharray="none" stroke-width="3.54330707" fill="none"/>  <path stroke-linejoin="miter" d="m62.008,35.433,0,14.173" stroke="#c0c0c0" stroke-linecap="butt" stroke-miterlimit="4" stroke-dasharray="none" stroke-width="3.54330707" fill="none"/>  <path stroke-linejoin="miter" d="m47.835,57.579c4.7245,0,14.173-2.9318,14.173-7.9724,0,4.117,6.329,7.0866,13.287,7.0866" stroke-dashoffset="10" stroke="#c0c0c0" stroke-linecap="round" stroke-miterlimit="4" stroke-dasharray="none" stroke-width="3.54330707" fill="none"/>  <path stroke-linejoin="miter" d="m50.492,41.634,0,7.0866" stroke-dashoffset="10" stroke="#c0c0c0" stroke-linecap="round" stroke-miterlimit="4" stroke-dasharray="none" stroke-width="3.54330707" fill="none"/>  <path stroke-linejoin="miter" d="m75.295,45.177-23.917,0" stroke-dashoffset="10" stroke="#c0c0c0" stroke-linecap="butt" stroke-miterlimit="4" stroke-dasharray="none" stroke-width="2.65748024" fill="none"/>  <path stroke-linejoin="miter" d="m76.181,48.72,0-7.0866" stroke-dashoffset="10" stroke="#c0c0c0" stroke-linecap="round" stroke-miterlimit="4" stroke-dasharray="none" stroke-width="3.54330707" fill="none"/>  <path stroke-linejoin="round" d="m49.606,62.008,0,7.0866,11.516,0,0-7.0866z" stroke-dashoffset="10" stroke="#c0c0c0" stroke-linecap="butt" stroke-miterlimit="4" stroke-dasharray="none" stroke-width="3.54330707" fill="none"/>  <path stroke-linejoin="miter" d="m53.15,69.094c0,5.8437-1.97,8.8691-6.2008,11.516" stroke-dashoffset="10" stroke="#c0c0c0" stroke-linecap="round" stroke-miterlimit="4" stroke-dasharray="none" stroke-width="3.54330707" fill="none"/>  <path stroke-linejoin="round" d="m52.264,75.295,8.8583,0c0,4.4291,0,7.0866-2.6575,8.8583l-2.6575-0.88583" stroke-dashoffset="10" stroke="#c0c0c0" stroke-linecap="round" stroke-miterlimit="4" stroke-dasharray="none" stroke-width="3.54330707" fill="none"/>  <path stroke-linejoin="round" d="m69.98,62.894,0,12.402" stroke-dashoffset="10" stroke="#c0c0c0" stroke-linecap="round" stroke-miterlimit="4" stroke-dasharray="none" stroke-width="3.54330707" fill="none"/>  <path stroke-linejoin="round" d="m77.953,62.894v13.287c0,3.2339-3.6778,5.8472-6.8656,7.3095" stroke-dashoffset="10" stroke="#c0c0c0" stroke-linecap="round" stroke-miterlimit="4" stroke-dasharray="none" stroke-width="3.54330707" fill="none"/>  <path stroke-linejoin="miter" d="m76.181,41.191-25.689,0" stroke-dashoffset="10" stroke="#c0c0c0" stroke-linecap="butt" stroke-miterlimit="4" stroke-dasharray="none" stroke-width="2.65748024" fill="none"/>  <path stroke-linejoin="miter" d="m76.181,49.163-25.689,0" stroke-dashoffset="10" stroke="#c0c0c0" stroke-linecap="butt" stroke-miterlimit="4" stroke-dasharray="none" stroke-width="2.65748024" fill="none"/> </g></svg>