<svg xmlns:svg="http://www.w3.org/2000/svg" xmlns="http://www.w3.org/2000/svg" width="300" height="299.41" version="1.1"><g transform="translate(0,-752.84063)"><path d="m158.18 752.84 0 20.45c67.66 4.24 121.36 60.54 121.36 129.26 0 68.71-53.7 125.02-121.36 129.26l0 20.33A150 150 0 0 0 300 902.55 150 150 0 0 0 158.18 752.84Zm-16.36 0.12A150 150 0 0 0 0 902.55 150 150 0 0 0 141.82 1052.25l0-20.45C74.16 1027.57 20.45 971.26 20.45 902.55 20.45 841.41 62.98 790.14 120 776.58l0 14.01c-49.51 13.19-85.91 58.25-85.91 111.96 0 61.34 47.47 111.4 107.73 115.59l0-20.55A95.45 95.45 0 0 1 54.55 902.55 95.45 95.45 0 0 1 141.82 807.51l0-4.74 0-15.81 0-13.67 0-16.52 0-3.81zm16.36 34 0 20.55a95.45 95.45 0 0 1 87.27 95.04 95.45 95.45 0 0 1-87.27 95.04l0 20.55c60.26-4.19 107.73-54.25 107.73-115.59 0-61.34-47.47-111.4-107.73-115.59z" fill="#22b14c"/></g></svg>