<svg xmlns:svg="http://www.w3.org/2000/svg" xmlns="http://www.w3.org/2000/svg" width="300" height="300" version="1.1"><g transform="translate(-571.87463,-118.49701)"><path d="m721.87 118.5-53.57 96.43-96.43 53.57 96.43 53.57 53.57 96.43 53.57-96.43 96.43-53.57-96.43-53.57-53.57-96.43zm0 18.75 46.88 84.38 84.38 46.88-84.37 46.88-46.87 84.38-46.87-84.37-84.37-46.87 84.38-46.87 46.88-84.37zM721.87 145.28l-44 79.21-79.21 44 79.21 44 44 79.21 44-79.21 79.21-44-79.21-44-44-79.21zm0 8.04 41.14 74.04 74.04 41.14-74.04 41.14-41.14 74.04-41.14-74.04-74.04-41.14 74.04-41.14 41.14-74.04zM733.26 222.96c-2.6 0-4.69 2.09-4.69 4.69l0 4.69-16.07 0c-2.23 0-4.02 1.79-4.02 4.02 0 2.23 1.79 4.02 4.02 4.02l16.07 0 0 9.38-16.74 0c-2.6 0-4.69 2.09-4.69 4.69l0 46.88c0 2.6 2.09 4.69 4.69 4.69 2.6 0 4.69-2.09 4.69-4.69l0-11.38 12.05 0 0 11.38c0 2.6 2.09 4.69 4.69 4.69 2.6 0 4.69-2.09 4.69-4.69l0-11.38 12.05 0 0 11.38c0 2.6 2.09 4.69 4.69 4.69 2.6 0 4.69-2.09 4.69-4.69l0-46.87c0-2.6-2.09-4.69-4.69-4.69l-16.74 0 0-9.37 17.41 0c2.23 0 4.02-1.79 4.02-4.02 0-2.23-1.79-4.02-4.02-4.02l-1.34 0 0-4.15c0-2.89-1.94-5.22-4.35-5.22-2.41 0-4.35 2.33-4.35 5.22l0 4.15-7.37 0 0-4.69c0-2.6-2.09-4.69-4.69-4.69zm-16.74 34.82 12.05 0 0 8.04-12.05 0 0-8.04zm21.43 0 12.05 0 0 8.04-12.05 0 0-8.04zm-21.43 16.07 12.05 0 0 8.04-12.05 0 0-8.04zm21.43 0 12.05 0 0 8.04-12.05 0 0-8.04zM698.44 273.85c2.6 0 4.69 2.09 4.69 4.69l0 22.77c0 2.6-2.09 4.69-4.69 4.69-2.6 0-4.69-2.09-4.69-4.69l0-22.77c0-2.6 2.09-4.69 4.69-4.69zM687.72 222.96c2.6 0 4.69 2.09 4.69 4.69l0 22.77c0 2.6-2.09 4.69-4.69 4.69-2.6 0-4.69-2.09-4.69-4.69l0-22.77c0-2.6 2.09-4.69 4.69-4.69z" fill="#000"/><path d="m700.36 222.89a5.36 5.36 0 0 0-5.27 5.43l0 24.93-13.59 17.3a5.36 5.36 0 0 0-1.15 3.31l0 26.79a5.36 5.36 0 1 0 10.71 0l0-24.93 13.59-17.3a5.36 5.36 0 0 0 1.15-3.31l0-26.79a5.36 5.36 0 0 0-5.44-5.43z"/></g></svg>