<svg xmlns:svg="http://www.w3.org/2000/svg" xmlns="http://www.w3.org/2000/svg" width="300" height="300" version="1.1"><g transform="translate(1816.7689,-553.79077)"><path d="m-1657.77 554.11 0 19.53c67.82 4.64 121.5 61.16 121.5 130.15 0 67.97-52.1 123.86-118.5 129.93l0 19.47a150 150 0 0 0 138-149.4 150 150 0 0 0-141-149.68zM-1675.77 554.24A150 150 0 0 0-1815.89 688.04l19.61 0 24.93 0 5.97 0a100 100 0 0 1 89.62-83.76l0-7.74 0-22.9 0-19.39zm-24 23.33 0 9.32c-40.33 11.34-72.1 42.93-83.7 83.15l-9.32 0c12.08-45.14 47.77-80.66 93.02-92.47zM-1657.77 582.66l0 21.59a100 100 0 0 1 91 99.54 100 100 0 0 1-88 99.15l0 21.76c61.51-6.02 109.5-57.8 109.5-120.91 0-64.13-49.56-116.53-112.5-121.13zM-1816.66 706.04a150 150 0 0 0 137.89 147.21l0-19.53c-59.67-5.45-107.75-51.15-116.89-109.68l9.11 0c8.98 53.63 53 95.3 107.78 100.66l0-21.71a100 100 0 0 1-87.94-96.94l-5.38 0-16.12 0-9 0-9.72 0-9.72 0zM-1678.77 604.52l0 67.63c-23.22-3.57-42.79-17.9-53.46-37.8a95.5 95.5 0 0 0-15.94 19.74c15.55 22.92 40.6 38.9 69.4 42.26l0 1.39c-31.43 3.64-58.39 22.3-73.44 48.62a95.5 95.5 0 0 0 15.73 22.59c9.1-24.65 30.99-42.98 57.71-47.04l0 23.89-33 0 0 24 33 0 0 33.3 24 0 0-33.3 33 0 0-24-33 0 0-23.62c26.43 4.59 47.92 23.17 56.59 47.92a95.5 95.5 0 0 0 16.12-22.38c-14.66-26.61-41.38-45.68-72.71-49.81l0-1.68c28.71-3.75 53.54-20.08 68.8-43.24a95.5 95.5 0 0 0-16.25-19.41c-10.37 19.92-29.61 34.4-52.55 38.35l0-67.4-24 0z" fill="#000"/></g></svg>