<svg xmlns:svg="http://www.w3.org/2000/svg" xmlns="http://www.w3.org/2000/svg" width="300" height="300" version="1.1"><g transform="translate(0,-752.36216)"><path d="M147.75 752.42C66.19 753.64 0 820.52 0 902.36 0 962.53 35.79 1014.59 87.15 1038.44L98.2 997.18C64.66 978.91 42 943.44 42 902.36 42 843.22 88.91 795.61 147.75 794.42l0-42zm4.5 0 0 42c58.84 1.19 105.75 48.8 105.75 107.94 0 41.08-22.66 76.54-56.2 94.82l11.06 41.29C264.21 1014.6 300 962.53 300 902.36 300 820.52 233.81 753.64 152.25 752.42Zm-2.25 68.81-47.73 178.13-10.97 40.95-0.01 0.04c12.72 5.45 26.35 9.14 40.56 10.88L150 983.5l7.13 26.6c-2.36 0.15-4.73 0.26-7.12 0.26l0 42c20.81 0 40.66-4.29 58.71-12.02L197.73 999.35 150 821.23Z"/></g></svg>