<?xml version="1.0" encoding="UTF-8" standalone="no"?>
<!-- Created with Inkscape (http://www.inkscape.org/) -->

<svg
   xmlns:dc="http://purl.org/dc/elements/1.1/"
   xmlns:cc="http://creativecommons.org/ns#"
   xmlns:rdf="http://www.w3.org/1999/02/22-rdf-syntax-ns#"
   xmlns:svg="http://www.w3.org/2000/svg"
   xmlns="http://www.w3.org/2000/svg"
   xmlns:sodipodi="http://sodipodi.sourceforge.net/DTD/sodipodi-0.dtd"
   xmlns:inkscape="http://www.inkscape.org/namespaces/inkscape"
   width="407"
   height="401"
   id="svg2"
   version="1.1"
   inkscape:version="0.48.4 r9939"
   sodipodi:docname="Rausu Hokkaido Chapter.svg">
  <defs
     id="defs4" />
  <sodipodi:namedview
     id="base"
     pagecolor="#ffffff"
     bordercolor="#666666"
     borderopacity="1.0"
     inkscape:pageopacity="0.0"
     inkscape:pageshadow="2"
     inkscape:zoom="1"
     inkscape:cx="180.38205"
     inkscape:cy="208.865"
     inkscape:document-units="px"
     inkscape:current-layer="layer2"
     showgrid="false"
     inkscape:window-width="1280"
     inkscape:window-height="962"
     inkscape:window-x="-8"
     inkscape:window-y="-8"
     inkscape:window-maximized="1" />
  <metadata
     id="metadata7">
    <rdf:RDF>
      <cc:Work
         rdf:about="">
        <dc:format>image/svg+xml</dc:format>
        <dc:type
           rdf:resource="http://purl.org/dc/dcmitype/StillImage" />
        <dc:title></dc:title>
      </cc:Work>
    </rdf:RDF>
  </metadata>
  <g
     inkscape:groupmode="layer"
     id="layer2"
     inkscape:label="Layer"
     transform="translate(0,-53)">
    <g
       id="g3979"
       transform="translate(-22.153771,29.497521)">
      <path
         id="path2997"
         d="M 205.59375,24.9375 C 102.93293,34.737304 22.65625,120.12134 22.65625,224 c 0,110.45559 90.75915,200 202.6875,200 C 337.2721,424 428,334.45559 428,224 428,120.62802 348.5316,35.578153 246.59375,25.09375 l 0,31.71875 0.90625,0 0,-14.1875 c 88.57298,10.724856 157.76315,83.94136 161.6875,173.96875 l -13.1875,0 0,2.6875 C 393.51878,135.4843 329.21227,67.042743 246.59375,56.90625 l 0,1.96875 c 83.17797,10.321233 147.5,80.44172 147.5,165.4375 0,92.10683 -75.5396,166.78125 -168.75,166.78125 -93.21041,0 -168.75,-74.67442 -168.75,-166.78125 0,-85.50338 65.10039,-155.931059 149,-165.59375 l 0,-33.78125 z m -0.90625,17.4375 0,14.4375 C 123.98929,66.426763 60.589247,131.6652 54.96875,212.59375 l -13.9375,0 C 46.842034,123.66607 116.38527,52.005195 204.6875,42.375 z M 396,229.53125 l 0,6.0625 13.03125,0 c -5.56462,94.01484 -82.32936,168.98556 -177.4375,172.3125 l 0,-14.96875 C 321.23249,389.74595 393.26678,318.24301 396,229.53125 z m -355.3125,0.0625 13.96875,0 c 2.698871,86.52643 71.36085,156.67611 157.9375,163 l 0,15 c -94.40555,-6.23784 -169.377797,-83.13386 -171.90625,-178 z"
         style="fill:#000000;stroke:#000000;stroke-width:1.00495875;stroke-linecap:round;stroke-linejoin:round;stroke-miterlimit:4;stroke-opacity:1;stroke-dasharray:none"
         inkscape:connector-curvature="0" />
      <path
         id="rect3902"
         d="m 124.53125,104.34375 0,61.125 203.34375,0 0,-61.125 -203.34375,0 z m 25.46875,21.25 36,0 0,18.8125 -36,0 0,-18.8125 z m 58,0 38.40625,0 0,18.8125 -38.40625,0 0,-18.8125 z m 61.8125,0.21875 36.59375,0 0,18.59375 -36.59375,0 0,-18.59375 z"
         style="fill:#000000;stroke:#000000;stroke-width:1;stroke-linecap:butt;stroke-linejoin:miter;stroke-miterlimit:4;stroke-opacity:1;stroke-dasharray:none"
         inkscape:connector-curvature="0" />
      <path
         id="rect3931"
         d="m 170.8125,168.8125 c -19.74586,0.15468 -44.65291,9.36658 -44.8125,31.59375 -0.25244,22.86281 24.40625,30 24.40625,30 0,0 -20.40041,18.24488 -20.21875,35 0.008,7.58998 3.388,13.11398 8.28125,17.09375 l -18.0625,0 0,63.6875 23.59375,0 0,-60.09375 c 3.31373,1.71856 6.93319,2.96863 10.5,3.875 l 0,55.75 23.21875,0 0,-54.40625 c 5.21469,-0.9064 10.08884,-2.69446 14.6875,-5.28125 l 0,59.625 23.40625,0 0,-61.09375 -20.9375,0 c 12.5655,-8.02079 22.8767,-22.08841 31.53125,-39.96875 L 200,244.40625 c -1.25419,7.05766 -15.85742,25.33966 -32.1875,24.1875 -8.97459,-0.19716 -11.88049,-2.0022 -11.625,-6.40625 3.49338,-29.02325 43.625,-23.375 43.625,-23.375 l 0.1875,-21 -18.40625,0 c 0,0 -33.09511,-3.8975 -33.78125,-17 -0.0123,-4.18812 6.07448,-10.76229 24,-10.625 16.06823,0.14657 29.23906,4.80315 39.375,17.8125 L 227,192.1875 c -14.37646,-12.26766 -26.36438,-23.09234 -56.1875,-23.375 z"
         style="fill:#000000;stroke:#000000;stroke-width:1.00076282;stroke-linecap:butt;stroke-linejoin:miter;stroke-miterlimit:4;stroke-opacity:1;stroke-dasharray:none"
         inkscape:connector-curvature="0" />
      <path
         id="rect3958"
         d="m 264.40625,163.1875 -51.8125,61 16.8125,15 4.78125,-5.6875 0,10.90625 0,23.40625 0,16.59375 0,23.40625 0,16.59375 0,23.40625 21.625,0 70,0 0,-23.40625 -24,0 0,-16.59375 24,0 0,-23.40625 -24,0 0,-16.59375 24,0 0,-23.40625 -24,0 0,-16.8125 24,0 0,-23.1875 -17.375,0 L 323.59375,187 308.8125,175 l -24.90625,29.40625 -25.25,0 L 279.1875,180 264.40625,163.1875 z m -8.59375,64.40625 24.59375,0 0,16.8125 -24.59375,0 0,-16.8125 z m 0,40.21875 24.59375,0 0,16.59375 -24.59375,0 0,-16.59375 z m 0,40 24.59375,0 0,16.59375 -24.59375,0 0,-16.59375 z"
         style="fill:#000000;stroke:#000000;stroke-width:1;stroke-linecap:butt;stroke-linejoin:miter;stroke-miterlimit:4;stroke-opacity:1;stroke-dasharray:none"
         inkscape:connector-curvature="0" />
    </g>
  </g>
</svg>
