<?xml version="1.0" encoding="UTF-8" standalone="no"?>
<svg
   xmlns:dc="http://purl.org/dc/elements/1.1/"
   xmlns:cc="http://creativecommons.org/ns#"
   xmlns:rdf="http://www.w3.org/1999/02/22-rdf-syntax-ns#"
   xmlns:svg="http://www.w3.org/2000/svg"
   xmlns="http://www.w3.org/2000/svg"
   xmlns:sodipodi="http://sodipodi.sourceforge.net/DTD/sodipodi-0.dtd"
   xmlns:inkscape="http://www.inkscape.org/namespaces/inkscape"
   width="123pt"
   height="121pt"
   viewBox="0 0 123 121"
   version="1.1"
   id="svg2"
   inkscape:version="0.91 r13725"
   sodipodi:docname="Betsukai_Hokkaido_chapter_1.svg">
  <metadata
     id="metadata16">
    <rdf:RDF>
      <cc:Work
         rdf:about="">
        <dc:format>image/svg+xml</dc:format>
        <dc:type
           rdf:resource="http://purl.org/dc/dcmitype/StillImage" />
      </cc:Work>
    </rdf:RDF>
  </metadata>
  <defs
     id="defs14" />
  <sodipodi:namedview
     pagecolor="#ffffff"
     bordercolor="#666666"
     borderopacity="1"
     objecttolerance="10"
     gridtolerance="10"
     guidetolerance="10"
     inkscape:pageopacity="0"
     inkscape:pageshadow="2"
     inkscape:window-width="1280"
     inkscape:window-height="962"
     id="namedview12"
     showgrid="false"
     inkscape:zoom="1.5603306"
     inkscape:cx="76.875"
     inkscape:cy="74.98411"
     inkscape:window-x="-8"
     inkscape:window-y="-8"
     inkscape:window-maximized="1"
     inkscape:current-layer="svg2" />
  <path
     fill="#5c2204"
     d=" M 14.68 14.90 C 21.50 18.00 28.05 21.67 34.88 24.75 C 50.20 13.50 72.58 13.77 87.98 24.75 C 94.54 21.46 101.13 18.21 107.66 14.85 C 107.70 16.59 107.73 18.33 107.76 20.07 C 105.65 21.16 103.54 22.27 101.50 23.48 C 101.55 24.08 101.66 25.27 101.71 25.86 C 103.66 24.77 105.67 23.78 107.71 22.87 C 107.73 24.94 107.73 27.02 107.71 29.09 C 105.28 30.59 100.71 30.91 101.55 34.77 C 103.61 33.72 105.65 32.64 107.71 31.58 C 107.72 33.38 107.72 35.18 107.70 36.98 C 105.70 37.92 103.72 38.90 101.75 39.89 C 103.52 43.05 104.98 46.38 105.90 49.88 C 100.06 41.98 89.11 39.15 80.05 42.79 C 69.43 32.43 50.25 32.94 40.85 44.61 C 46.46 47.03 51.32 51.81 52.59 57.95 C 54.92 66.10 50.82 75.44 43.43 79.49 C 39.21 82.10 33.99 82.27 29.24 81.39 C 20.19 79.42 13.60 70.10 14.51 60.94 C 15.11 53.58 17.26 46.35 20.81 39.87 C 18.80 38.88 16.80 37.86 14.76 36.90 C 14.74 35.09 14.73 33.29 14.71 31.48 C 16.76 32.57 18.83 33.63 20.92 34.65 C 20.86 33.72 20.81 32.80 20.75 31.87 C 18.76 30.91 16.79 29.94 14.79 29.01 C 14.75 26.96 14.72 24.91 14.69 22.86 C 16.84 23.85 18.98 24.84 21.16 25.75 C 21.02 25.05 20.73 23.66 20.59 22.96 C 18.65 22.03 16.72 21.05 14.79 20.09 C 14.75 18.36 14.71 16.63 14.68 14.90 Z"
     id="path6" />
  <path
     fill="#5c2204"
     d=" M 44.93 44.00 C 49.57 40.51 55.18 37.96 61.08 38.12 C 67.16 37.85 72.90 40.50 77.74 43.97 C 73.67 46.86 70.01 50.61 68.39 55.43 C 64.96 64.81 69.13 76.21 77.80 81.19 C 68.70 89.38 53.91 89.31 44.81 81.14 C 52.82 76.38 57.36 66.15 54.63 57.10 C 53.28 51.62 49.42 47.23 44.93 44.00 Z"
     id="path8" />
  <path
     fill="#5c2204"
     d=" M 69.29 63.02 C 68.62 52.43 78.44 42.89 88.95 43.39 C 97.80 43.45 105.88 50.30 107.49 58.97 C 108.72 68.50 106.09 78.19 101.32 86.43 C 94.57 98.10 82.37 106.38 69.11 108.63 C 58.22 110.70 46.73 108.15 37.22 102.61 C 27.15 96.67 19.78 86.65 16.41 75.51 C 22.38 83.10 33.25 86.58 42.24 82.46 C 47.63 87.24 54.71 90.40 62.02 89.90 C 69.60 90.05 76.65 86.25 81.88 80.97 C 74.82 77.91 69.07 71.00 69.29 63.02 Z"
     id="path10" />
</svg>
