<?xml version="1.0" encoding="UTF-8"?><svg width="485" height="500" viewBox="7 0 485 500" xmlns="http://www.w3.org/2000/svg" version="1.1">
 <path xmlns="http://www.w3.org/2000/svg" d="m155 500 172.5-272.4c17.71-29.57 11.87-42.59-15.24-46.84l-141.4-22.2 265.7-42.1c44.97-7.116 77.14 40.98 35.74 80.51z" fill="#21b24b"/>
 <path xmlns="http://www.w3.org/2000/svg" d="m101.1 331.9c-63.03-11-92.63-71.4-92.63-122.6 0.004-97.9 108.9-209.3 207-209.3 42.7 0 80.42 16.8 98.72 50.65 3.35 6.567 3.218 6.999-1.425 4.662-17.87-8.98-46.28-7.205-62.39-2.114-79.95 26.54-130.6 131.2-86.86 179.3 60.35 41.71 115.7-4.812 152.8-41.14-37.89 84.98-130.8 155.2-215.3 140.5z" fill="#0065b3"/>
 <circle xmlns="http://www.w3.org/2000/svg" cx="371.6" cy="64.38" r="36.08" fill="#ff1919"/>
</svg>