<?xml version="1.0" encoding="utf-8"?>
<svg xmlns="http://www.w3.org/2000/svg" width="191" height="189" stroke="#000">
<clipPath id="c">
<path d="m0,0h191v189H0M129,126.9l62-.9-54.1-35.8 36.3-53.4-58.4,22.9-19.3-59.7-19.3,59.7-58.4-22.9
36.3,53.4-54.1,35.8 62,.9-7.6,61.6 41.1-46.6 41.1,46.6z"/></clipPath>
<path fill="none" stroke-width="7" clip-path="url(#c)" d="m95,23a77,77 0 1,0 1,0"/>
<path fill="none" d="m129,126.9 62-.9-54.1-35.8 36.3-53.4-58.4,22.9-19.3-59.7-19.3,59.7-58.4-22.9
36.3,53.4-54.1,35.8 62,.9-7.6,61.6 41.1-46.6 41.1,46.6z"/>
</svg>