<svg xmlns="http://www.w3.org/2000/svg" width="360" height="330" viewBox="-90 -90 180 165">
<circle cx="-50" r="25" stroke="#8c6589" stroke-width="30" fill="none"/>
<path d="M-57.7429516-89.6663075A90 90 0 0 1 30.375-40.495177 45 45 0 0 0 7.875-15.826698 60 60 0 0 0 0-33.166248 60 60 0 0 0 0 33.166248 60 60 0 0 0 10 0A40 40 0 1 1 37.125 37.871287 95 95 0 0 0 44.625 8.432637 10 10 0 1 0 40 0 90 90 0 0 1 0 74.833148 90 90 0 0 1 57.7429516-89.6663075L43.637964-59.661751A60 60 0 0 0 0-33.166248 60 60 0 0 0-43.637964-59.661751" fill="#8c6589"/>
</svg>