<?xml version="1.0" encoding="UTF-8" standalone="no"?>
<svg xmlns="http://www.w3.org/2000/svg" version="1.1" width="181" height="172" fill="#0e4ca1" transform="translate(0,-1.21875)">
<path d="M 85.5,7.875 C 43.921245,10.453718 11,44.990414 11,87.21875 c 0,42.22834 32.921245,76.76503 74.5,79.34375 l 0,-35.3125 c -30.793523,-2.54488 -55,-28.33089 -55,-59.78125 0,-31.450366 24.206477,-57.236367 55,-59.78125 l 0,-3.8125 z m 10,0 0,3.8125 c 30.79352,2.544883 55,28.330884 55,59.78125 0,31.45036 -24.20648,57.23637 -55,59.78125 l 0,35.3125 C 137.07876,163.98378 170,129.44709 170,87.21875 170,44.990414 137.07876,10.453718 95.5,7.875 z"/>
<path d="m 90.5,16.625 c -7.110666,0 -12.875,5.764334 -12.875,12.875 0,0.682543 0.05393,1.346174 0.15625,2 C 69.573748,36.00318 64,44.727558 64,54.75 c 0,12.132153 8.155472,22.355995 19.28125,25.5 L 90.5,149 97.71875,80.25 C 108.84453,77.105995 117,66.882153 117,54.75 117,44.727558 111.42625,36.00318 103.21875,31.5 c 0.10232,-0.653826 0.15625,-1.317457 0.15625,-2 0,-7.110666 -5.764334,-12.875 -12.875,-12.875 z m 0,28.1875 c 5.48833,0 9.9375,4.44917 9.9375,9.9375 0,5.48833 -4.44917,9.9375 -9.9375,9.9375 -5.48833,0 -9.9375,-4.44917 -9.9375,-9.9375 0,-5.48833 4.44917,-9.9375 9.9375,-9.9375 z"/>
</svg>