<?xml version="1.0" encoding="UTF-8" standalone="no"?>
<svg xmlns="http://www.w3.org/2000/svg" version="1.0" width="623.5" height="613" fill="#ffd700" stroke="#ffd700">
<path transform="translate(0,64.5)" d="m 300.01874,-63.632649 2.22266,37.28515 a 263.93039,264.26373 0 0 0 -134.77735,50.47266 l -22.44531,-28.7578096 -26.5,22.4999996 24.28906,26.64844 A 263.93039,264.26373 0 0 0 68.641791,168.82438 l 44.515619,11.36524 A 218.03082,217.03085 0 0 1 174.25897,79.023601 l 31.75977,34.843749 19,-15.999999 -28.67383,-36.73828 a 218.03082,217.03085 0 0 1 108.72071,-40.08985 l 12.63476,211.986329 -191.83789,95.91992 a 218.03082,217.03085 0 0 1 -20.70703,-91.74414 218.03082,217.03085 0 0 1 0.9043,-17.43945 L 60.628111,213.1486 a 263.93039,264.26373 0 0 0 -1.37304,23.71875 263.93039,264.26373 0 0 0 25.519528,112.62109 l -33.755858,16.87891 24,42 31.437499,-20.83398 a 263.93039,264.26373 0 0 0 133.4082,99.71093 l -10.8457,34.62305 34.5,10.5 8.29297,-36.60547 a 263.93039,264.26373 0 0 0 51.37305,5.36914 263.93039,264.26373 0 0 0 68.74414,-9.53906 l -13.38868,-44.51953 a 218.03082,217.03085 0 0 1 -55.35546,7.1582 218.03082,217.03085 0 0 1 -41.04688,-4.04687 l 10.38086,-45.81641 -24.5,-7 -14.18164,45.27539 A 218.03082,217.03085 0 0 1 145.08515,361.9318 L 323.25702,243.85563 501.2746,362.1779 a 218.03082,217.03085 0 0 1 -85.01367,71.05468 l 18.58203,42.56836 a 263.93039,264.26373 0 0 0 104.73047,-88.16797 l 31.94531,21.23438 24,-42.5 -33.85547,-16.92773 a 263.93039,264.26373 0 0 0 25.45313,-112.57227 263.93039,264.26373 0 0 0 -1.81836,-29.5957 l 37.2207,-4.9043 -6.5,-35 -36.51367,7.90625 A 263.93039,264.26373 0 0 0 509.03046,50.111491 l -31.79492,33.90039 a 218.03082,217.03085 0 0 1 57.28125,101.003909 l -45.49805,9.85156 4.5,24.5 46.14062,-6.08008 a 218.03082,217.03085 0 0 1 1.55665,23.91406 218.03082,217.03085 0 0 1 -20.6836,91.67188 L 329.32343,233.26969 341.96796,21.105631 a 218.03082,217.03085 0 0 1 104.88867,37.84375 l 28.30859,-37.55274 a 263.93039,264.26373 0 0 0 -130.36718,-47.77344 l 2.2207,-37.25585 -47,0 z m 219.33789,40.44335 -41.20312,70.87696 -9.43555,-8.01953 2.97266,16.67578 -40.48829,48.318359 3.83203,3.21094 40.20118,-47.976559 17.48242,0.16992 -9.82617,-8.35156 63.03515,-52.9335996 -3.21679,-3.82813 -54.73243,45.9628996 -0.0703,-0.0586 35.77344,-61.53321 -4.32422,-2.51367 z M 5.8742109,164.01774 l -1.71094,4.69922 62.4648401,22.75195 -66.12500013,0.39844 0.0312,5 81.89844113,-0.12305 -1.914062,12.12305 11.99805,-10.34375 64.06836,11.30664 0.86718,-4.92578 L 93.2765,193.58024 85.01869,180.36735 83.282362,191.3693 5.8741609,164.01774 Z m 378.1914091,231.1875 -4.69336,1.72461 22.27539,60.61328 -9.32813,14.32422 12.22461,-4.31836 14.71484,80.36914 4.91797,-0.90039 -12.6289,-68.9707 35.61523,60.68554 4.3125,-2.53125 -41.43164,-70.5957 12.27539,-4.33789 -16.04687,-5.63281 -22.20703,-60.42969 z"/>
</svg>