<svg xmlns="http://www.w3.org/2000/svg" height="500" width="500" version="1.1">
 <path fill="#80ff00" d="m176 78a249.9 77.26 0 0 0 -175.9 73.7 249.9 77.26 0 0 0 249.9 77.3 249.9 77.26 0 0 0 249.9 -77.3 249.9 77.26 0 0 0 -175.9 -73.7v1.197a178.3 52.84 0 0 1 104.3 48.1 178.3 52.84 0 0 1 -178.3 52.8 178.3 52.84 0 0 1 -178.3 -52.8 178.3 52.84 0 0 1 104.3 -47.95v-1.234z"/>
 <path fill="#00b212" d="m319.7 78a101.7 124.2 0 0 1 32.05 90.25 101.7 124.2 0 0 1 -0.003 0.0787 178.3 52.84 0 0 0 30.3 -7.893 148.9 194.2 0 0 0 -62.34 -82.45zm-139.7 0.3083a148.9 194.2 0 0 0 -62.11 82.09 178.3 52.84 0 0 0 30.43 7.991 101.7 124.2 0 0 1 -0.004 -0.1315 101.7 124.2 0 0 1 31.68 -89.95zm-76.4 136.3a148.9 194.2 0 0 0 -2.526 34.92 148.9 194.2 0 0 0 148.9 194.2 148.9 194.2 0 0 0 148.9 -194.2 148.9 194.2 0 0 0 -2.526 -34.77 249.9 77.26 0 0 1 -55.57 9.361 101.7 124.2 0 0 1 -90.78 68.35 101.7 124.2 0 0 1 -90.78 -68.35 249.9 77.26 0 0 1 -55.72 -9.361z"/>
 <circle fill="#f00" cy="105.5" cx="250" r="49.2"/>
</svg>