<?xml version="1.0" encoding="UTF-8" standalone="no"?>
<svg xmlns="http://www.w3.org/2000/svg" width="592" height="418" version="1.1">
<g transform="translate(-1.5,1.5)">
	<path style="fill:#62af5d;stroke:#62af5d;stroke-width:1px" d="m 156.5,34.5 c 36.11755,1.475151 79.98833,9.418297 87.5,43.5 2.77711,53.63572 -114.75,136.75 -114.75,136.75 l 81.5,-9.5 c 0,0 154.43342,-39.63425 161.5,-128.5 C 370.56098,25.030222 299.47915,-1.1417271 264.75,0 221.33012,2.0584099 186.86794,17.31123 156.5,34.5 z"/>
	<path style="fill:#3c62a9;stroke:#3c62a9;stroke-width:1px" d="m 173,311.25 c 0.66058,-80.23843 105.43643,-124.84867 160,-147 44.61906,-18.02975 97.68421,-32.64035 130.5,-36 -33.90311,16.16536 -57.03759,27.36772 -119.5,62.25 -28.12337,17.51422 -54.19337,41.05998 -56.75,78 0.88449,32.39042 38.02659,49.83238 78.25,49.5 28.53721,-0.87368 51.0478,-5.49156 71.5,-16 -13.64745,-20.23799 3.15309,-33.32099 9,-34.25 22.19265,-3.01987 28.36082,11.21428 27,26.75 -31.16868,98.51603 -129.54649,114.62116 -161,120 -23.46356,2.92794 -33.54553,1.18145 -49.75,-2 C 216.1432,402.30903 175.67278,366.2727 173,311.25 z"/>
	<g style="fill:#3ea5e0;stroke:#3ea5e0;stroke-width:1px">
		<path d="m 545.5,180.25 c -33.71003,0.10672 -66.98633,-0.43718 -103.25,3.5 -61.04941,6.33509 -116.08346,12.51532 -215.5,30 C 154.20459,225.37326 78.211625,234.79195 2,239 L 22.25,220.25 C 73.5,219 141,211 141,211 c 82.14246,-9.8871 158.3341,-21.49962 235.25,-31 54.05388,-5.67193 74.33904,-5.43433 103.5,-6.75 l 60.5,0.25 z"/>
		<path d="m 113.25,186.25 c 70.621,-5.70512 135.50392,-16.5451 203,-26.25 89.93122,-12.36257 153.48648,-16.82991 205,-17.5 14.18,0.16667 28.27719,0.83333 43.75,1 l 4.5,6.25 c -82.28131,0.13249 -169.85658,9.69964 -255.75,23.5 -79.42438,12.79846 -144.18846,21.40728 -201,29.25 -32.936212,3.36763 -60.187996,4.84044 -87.25,6.25 l 20,-19 c 30.03461,-0.75271 49.54034,-2.09035 67.75,-3.5 z"/>
		<path d="m 522.75,113.5 c -34.95655,1.22791 -88.91938,2.90079 -191.5,18.5 -93.04205,12.91083 -180.12377,27.10299 -262,28.5 l -20.75,18 c 92.67694,-3.53317 181.23333,-17.13338 283.25,-34.25 105.71115,-17.28709 155.25515,-20.85213 193.5,-22.75 26.77057,-1.35411 47.25978,-1.45196 67.5,-1.5 l -4.5,-6 c -21.10028,-0.53319 -43.0693,-0.63202 -65.5,-0.5 z"/>
	</g>
</g>
</svg>