<?xml version="1.0" encoding="UTF-8" standalone="no"?>
<svg xmlns="http://www.w3.org/2000/svg" width="345" height="344" version="1.1">
<circle cx="169.720645" cy="174.4772864" r="168"/>
<g stroke="#d5b100" transform="translate(-8.7793531,-12.522695)">
	<g fill="none" stroke-linecap="round">
		<path stroke-width="11" d="M 337,149 C 282.68496,-59.98794 5.3639107,11.886899 14.5,189.75 33.39294,412.81565 334.65216,395.54617 342.5,193"/>
		<path stroke-width="10" d="M 290.5,122 C 212.17928,2.111935 52.689674,63.496746 53,187.5 c 8.374777,132.83344 150.14401,158.66179 234.5,84 13.50508,-12.59896 46.88082,-40.64344 55,-80"/>
	</g>
	<g fill="#d5b100">
		<path d="m 297.14285,231 c 30.64052,-17.55692 32.46235,-24.79166 39.42858,-39.71429 8.37025,-10.47578 11.64099,1.25756 11.42857,4 -2.39645,21.55401 -2.76703,41.77629 4.57143,60.28572 0.37528,8.61198 -5.3875,8.93778 -8,3.14285 -8.03355,-19.31588 -10.94418,-33.5786 -42.85714,-19.42856 -7.67412,1.87268 -11.32638,-1.94256 -4.57144,-8.28572 z"/>
		<path d="m 75,13.5 c 40.253,49.497507 84.64687,98.67244 133.5,147.5 l -143,43 137,5 -43.5,86.5 c 48.57521,-42.75271 97.03244,-85.54474 149.5,-127 C 238.56286,132.62572 162.24272,83.985448 75,13.5 z"/>
	</g>
</g>
</svg>