<?xml version="1.0" encoding="UTF-8" standalone="no"?>
<svg xmlns="http://www.w3.org/2000/svg" width="320" height="319" version="1.1" stroke="#000">
<g transform="translate(-23.420213,-717.862152)">
	<path d="m 113.33333,1021.0289 0.33334,-38.66672 C 9.7147143,914.49295 61.508415,752.04582 183.54768,752.6122 c 121.70591,-0.73303 172.16628,160.7141 68.881,229.91664 l 0,38.33346 C 413.5087,937.44357 337.9235,718.45531 184,719.02884 26.771782,718.73414 -46.326439,935.43519 113.33333,1021.0289 z"/>
	<path d="m 113.33333,961.36219 c -77.556969,-59.6192 -35.097255,-193.02773 70.05633,-193.00018 104.82026,-0.0279 146.61331,134.0473 69.05634,193.6665 l -0.31433,-9.66631 c 69.13929,-64.7114 20.46497,-176.74447 -68.73251,-176.66668 -89.197466,-0.0779 -138.87178,111.62192 -69.7325,176.33332 z"/>
	<rect y="749.6955" x="167" height="22.333334" width="31.999954"/>
	<rect y="938.6955" x="124.33332" height="44.333374" width="30.999992"/>
	<rect y="938.6955" x="166.33334" height="97.666656" width="32.666756"/>
	<path d="M 241.33333,1026.6955 241,938.69552 l -32.33333,-10e-6 0,96.99999 c 11.347,-2.2573 22.71905,-4.8103 32.66666,-9 z"/>
	<path d="m 155.33333,1035.3622 0.33334,-28.3334 -31.33334,-0.3333 L 124,1026.3622 c 11.34919,4.746 21.75363,6.9082 31.33333,9 z"/>
</g>
</svg>