<?xml version="1.0" encoding="UTF-8"?><svg width="439" height="431" viewBox="30 24 439 431" xmlns="http://www.w3.org/2000/svg" xmlns:xlink="http://www.w3.org/1999/xlink">
 <g xmlns="http://www.w3.org/2000/svg" xmlns:xlink="http://www.w3.org/1999/xlink" fill="#1155bb">
  <path d="m250 184.3-22.6 13 17.9 10.3-37 185h83.4z"/>
  <path id="a" d="m369.9 215a125 125 0 0 0 -239.8 0h48.1a80 80 0 0 1 143.7 0z"/>
  <use xlink:href="#a" transform="scale(1,-1)" y="-500"/>
  <path id="b" d="m103 275h71.1a80 80 0 0 1 0 -50h-101.2z"/>
  <use xlink:href="#b" transform="scale(-1,1)" x="-500"/>
  <path id="c" d="m147.7 109.3a107.5 107.5 0 0 1 90.1 -73.5c8.6 0 12.1 3.3 12.1 6.3 0-3 3.5-7.2 12.1-6.3a107.5 107.5 0 0 1 90.1 73.5l5.4-7.4a115 115 0 0 0 -215.2 0z"/>
  <use xlink:href="#c" transform="rotate(72,250,250)"/>
  <use xlink:href="#c" transform="rotate(144,250,250)"/>
  <use xlink:href="#c" transform="rotate(216,250,250)"/>
  <use xlink:href="#c" transform="rotate(288 250 250)"/>
 </g>
</svg>