<?xml version="1.0" encoding="UTF-8"?><svg width="453" height="377" viewBox="24 61 453 377" xmlns="http://www.w3.org/2000/svg">
 <path xmlns="http://www.w3.org/2000/svg" d="m364.2 250.1 12.2 18.9 34.4-17.4-10.4-18.1zm61.7-67.9-45.5 11.8 9.6 15.5-43.2 11.1-4.4-7.8-4.8-1.8-3.3-7.4-6.7 3 20.3 40.3-3.7 0.4-20.7-41-10.7 15.2-8.1 1.1 0.4-11.1-31.4 8.1-0.7 12.2-36.2 11.1-5.2-14-19.6 5.5 5.2 15.2-5.2 1.5-5.5-15.5-19.2 5.2 4.4 13.7-4.4 1.5-4.8-14.4-28.8 7.4 1.8 17.4-47.7 12.9-7-17.7-44.4 10.7 10 20.3-40.3 10 15.5 35.5 32.5-8.5-19.2 34.4 25.1 46.6 15.5-29.6 17.7 12.9 21.4-24.8 15.2 8.1 20.3-36.6 27.4 10 62.5-26.2 0.7-29.6 34.4 12.6 3.7-26.2 35.5 8.1-1.5-24 15.2-7.8 3.3 6.3 10-5.9-1.8-4.1 2.2-2.6-2.6-6.3 42.1-16.6 14.4 22.2 35.1-17-10.4-21.8 33.6-12.2-5.2-10.4-34.4 9.6zm-116.8 72.7 0.7 17.7-11.5-2.6 1.8-12.9zm-35.9 10-0.4 14-20 7.4-5.9-13.7zm-46.2 13.7 6.7 14.8-5.9 2.2-5.2-14.8zm-23.7 7.4 7.4 16.6-5.2 3.3-7-18.1zm-43.2 1.8 5.5 31.8-25.1-8.5v-17.7zm-32.5 37 11.5 7.8-11.5 10.7zm-40.7 13.3 6.7 11.5-15.5 3.7zm348.9-89.4c2.8 155.9-184.3 247-307.5 144.9l14.8-6.9c110 91.3 277.5 14.7 275-130.1zm-326.2 3.4c3.8-162.2 213.8-215.3 290.7-69l21.2-5.4c-54.5-126-214-152.5-309-56.7l-30.55-23.7v71.5l-37.9-20.7 19.7 67.5c-2.2 14-2.9 26.1-2.5 37.5l24.6-10.4-0.5 8.9z" fill="#000000"/>
</svg>