<?xml version="1.0" encoding="UTF-8" standalone="no"?>
<!-- Created with Inkscape (http://www.inkscape.org/) -->

<svg
   xmlns:dc="http://purl.org/dc/elements/1.1/"
   xmlns:cc="http://creativecommons.org/ns#"
   xmlns:rdf="http://www.w3.org/1999/02/22-rdf-syntax-ns#"
   xmlns:svg="http://www.w3.org/2000/svg"
   xmlns="http://www.w3.org/2000/svg"
   xmlns:sodipodi="http://sodipodi.sourceforge.net/DTD/sodipodi-0.dtd"
   xmlns:inkscape="http://www.inkscape.org/namespaces/inkscape"
   width="361"
   height="270"
   id="svg2"
   version="1.1"
   inkscape:version="0.48.4 r9939"
   sodipodi:docname="Owashi Aomori Chapter.svg">
  <defs
     id="defs4" />
  <sodipodi:namedview
     id="base"
     pagecolor="#ffffff"
     bordercolor="#666666"
     borderopacity="1.0"
     inkscape:pageopacity="0.0"
     inkscape:pageshadow="2"
     inkscape:zoom="1"
     inkscape:cx="183.94969"
     inkscape:cy="134.25555"
     inkscape:document-units="px"
     inkscape:current-layer="layer2"
     showgrid="false"
     inkscape:window-width="1280"
     inkscape:window-height="962"
     inkscape:window-x="-8"
     inkscape:window-y="-8"
     inkscape:window-maximized="1" />
  <metadata
     id="metadata7">
    <rdf:RDF>
      <cc:Work
         rdf:about="">
        <dc:format>image/svg+xml</dc:format>
        <dc:type
           rdf:resource="http://purl.org/dc/dcmitype/StillImage" />
        <dc:title></dc:title>
      </cc:Work>
    </rdf:RDF>
  </metadata>
  <g
     inkscape:groupmode="layer"
     id="layer2"
     inkscape:label="Layer"
     transform="translate(0,-3)">
    <g
       id="g3061"
       style="fill:#000000;stroke:#000000"
       transform="translate(-2.3,-0.31225734)">
      <path
         sodipodi:nodetypes="ccccccccccccccccccc"
         inkscape:connector-curvature="0"
         id="path2997"
         d="m 173.2,109.8 -170.4,0 16.4,32.4 140.8,0.4 -5.2,12.4 -136,0 -15.2,32 164.8,0 14.4,-32.8 13.6,32.8 165.6,0 -16,-32.4 -135.6,0.4 -4.8,-11.6 141.2,-0.8 16,-32.8 -170.4,0 -9.2,-24.4 z"
         style="fill:#000000;stroke:#000000;stroke-width:1px;stroke-linecap:butt;stroke-linejoin:miter;stroke-opacity:1" />
      <path
         sodipodi:nodetypes="ccccc"
         inkscape:connector-curvature="0"
         id="path3003"
         d="M 277.14286,103.00001 C 241.09068,17.232374 125.5321,15.11511 89.142858,103 L 100,103 c 28.93616,-74.16165 136.12006,-72.158138 166,0 z"
         style="fill:#000000;stroke:#000000;stroke-width:1px;stroke-linecap:butt;stroke-linejoin:miter;stroke-opacity:1" />
      <path
         sodipodi:nodetypes="ccccc"
         inkscape:connector-curvature="0"
         id="path3005"
         d="m 292.35714,103.28571 c -35.7268,-106.8434843 -183.84705,-107.5211362 -219.499997,0 l -19.714286,0 C 92.541881,-30.104583 274.45481,-27.535864 313.07143,103.42857 z"
         style="fill:#000000;stroke:#000000;stroke-width:1px;stroke-linecap:butt;stroke-linejoin:miter;stroke-opacity:1" />
      <path
         sodipodi:nodetypes="ccccc"
         inkscape:connector-curvature="0"
         id="path3057"
         d="m 98.571429,194.14286 14.571431,0 c 35.92007,46.90313 104.65127,47.85537 143.71428,0 l 11.42858,0 c -42.96115,60.35779 -126.46543,59.68481 -169.714291,0 z"
         style="fill:#000000;stroke:#000000;stroke-width:1px;stroke-linecap:butt;stroke-linejoin:miter;stroke-opacity:1" />
      <path
         sodipodi:nodetypes="ccccc"
         inkscape:connector-curvature="0"
         id="path3059"
         d="m 60.571428,193.85715 21.142857,0 c 41.096495,80.84937 161.564835,80.56549 202.857135,0 l 21.7143,-1e-5 c -46.08611,104.83382 -198.29494,105.71224 -245.714292,1e-5 z"
         style="fill:#000000;stroke:#000000;stroke-width:1px;stroke-linecap:butt;stroke-linejoin:miter;stroke-opacity:1" />
    </g>
  </g>
</svg>
