<?xml version="1.0" encoding="UTF-8" standalone="no"?>
<svg xmlns="http://www.w3.org/2000/svg" width="400.6" height="365" version="1.1">
<path transform="translate(0,-687.36216)" stroke="#000" d="m 200.57154,687.86217 c -1.6174,2.86828 -4.20949,5.97068 -8.34375,8 -7.03159,2.40721 -10.15833,4.01191 -19,5.65625 -14.90966,4.25742 -19.61713,8.95402 -20.90625,10.4375 -2.50512,2.8828 -6.35745,4.31532 -10.40625,1.5625 -10.87901,-9.77035 -24.23856,-14.98166 -32.34375,-9.34375 -143.826042,74.74671 -143.493007,270.38551 -10.343747,347.68753 l 10.999997,0 -12.499997,-38.6875 C 7.8713841,944.87407 7.7882901,804.43522 114.41529,738.17467 l 2.8125,279.00003 c 6.90205,17.2084 21.56465,30.0216 39.6875,34.3438 l 85,0.3437 c 21.32083,-4.0125 32.96667,-17.0333 41.3125,-34.6875 l 1.1875,-280.00003 c 103.90171,60.34892 110.57592,201.8828 19.5,274.68753 l -13.6875,39.6563 11.75,0.094 c 145.36932,-86.41732 118.05295,-284.52269 -9.75,-347.09378 -10.40732,-7.40906 -27.61584,2.24817 -32.4375,9.34375 -4.0488,2.75282 -7.93238,1.3203 -10.4375,-1.5625 -1.28912,-1.48348 -5.99659,-6.18008 -20.90625,-10.4375 -8.84167,-1.64435 -11.96841,-3.28029 -19,-5.6875 -4.13144,-2.27362 -6.63541,-4.8137 -8.875,-8.3125 z m -33.65625,50 c 5.63889,0.0365 11.26736,2.74609 14.65625,8 l 0,101.65625 c 0.005,17.19699 -27.99406,20.46681 -29.65625,0 -1.23978,-25.36541 -1.99375,-60.33369 0.3125,-101.65625 3.38889,-5.3998 9.04861,-8.03647 14.6875,-8 z m 67.0625,0.0937 c 5.63889,0.0365 11.29861,2.71484 14.6875,7.96875 0.529,37.5919 0.35223,70.26422 0,101.6875 0.005,17.19699 -28.02531,20.46681 -29.6875,0 -0.23978,0.30126 0.34375,-101.6875 0.34375,-101.6875 3.38889,-5.3998 9.01736,-8.00522 14.65625,-7.96875 z m -68.75,157.5 c 6.15837,-0.22724 12.49305,2.57397 16.09375,8.15625 l 0,101.65628 c -0.995,15.197 -28.68156,19.123 -30.34375,-0.3438 0.0527,0.5761 -0.42657,-102.04086 0.34375,-101.65623 3.17708,-5.06232 8.47239,-7.61199 13.90625,-7.8125 z m 68.9375,0.65625 c 5.72222,-0.0469 11.42361,2.55859 14.8125,7.8125 l 0,102.68748 c -1.995,13.5303 -25.67114,17.4459 -30,-0.6875 l 0.34375,-101.65623 c 3.38889,-5.39981 9.12153,-8.10939 14.84375,-8.15625 z"/>
</svg>