<?xml version="1.0" encoding="UTF-8" standalone="no"?>
<svg xmlns="http://www.w3.org/2000/svg" version="1.1" width="285" height="241">
<g transform="translate(1.441544,0.22806288)">
	<path fill="#d52029" d="m 82,207.5 c 0,0 -77.8258482,10.75254 -78.1639062,-5.39101 C 3.3108658,177.02737 159.46381,141.02975 199,145.5 159.66229,150.45928 53.019113,176.60333 53.471729,198.21746 53.680462,208.18526 82,207.5 82,207.5 z"/>
	<g fill="#7979bb">
		<path d="M 77.559913,156.03268 C 115.46779,98.688556 184.01925,72.01111 208.9597,66.626362 170.26849,90.145319 144.51832,112.1016 119.38998,152.11111 c -11.31135,-5.71149 -25.290006,-4.31017 -41.830067,3.92157 z"/>
		<path d="m 46.679317,60.354839 c 39.901681,3.704782 72.015373,43.979381 77.500343,73.651671 5.48496,29.67228 6.2432,73.5261 -33.857079,101.6804 C 151.39286,235.39873 169.0643,180.3426 163.9286,135.23314 158.46206,87.217832 106.20435,27.8917 46.679317,60.354839 z"/>
	</g>
	<path fill="#d52029" d="m 199,145.5 c 0,0 79.28214,-8.27186 79.28214,8.5 0,26.05781 -156.84757,58.93925 -196.28214,53.5 39.43355,-4.3573 146.58422,-28.45527 146.58422,-50.91065 C 228.58422,146.23361 199,145.5 199,145.5 z"/>
	<path fill="#ffc30f" d="m 50.432277,117.08069 c -1.665502,0.80025 -4.396341,1.99357 -5.475505,0.86456 -1.052529,-1.10116 -0.02972,-4.20146 1.152738,-5.76369 41.142096,-54.355816 96.88325,-85.410823 150.72046,-104.511125 3.35676,-1.1909064 9.77197,-3.6014873 10.37464,-2.5576368 1.06417,1.8431956 -5.10162,4.9599048 -8.06916,6.8804038 -40.14506,25.980649 -79.8044,63.744772 -100.576372,98.459248 -0.967888,1.61755 -1.633045,4.20269 -3.170029,4.68299 -1.536983,0.48031 -4.001602,-1.32543 -6.051873,-1.80115 -12.777751,-2.96482 -25.221373,-2.82831 -38.904899,3.7464 z"/>
</g>
</svg>