<?xml version="1.0" encoding="UTF-8" standalone="no"?><!-- Created with Inkscape (http://www.inkscape.org/) --><svg xmlns="http://www.w3.org/2000/svg" height="420" width="420" version="1.1"> <path fill="#02a901" d="m210,10c-9.5037,0-18.85,0.68671-28,1.9688v48.593l26.5,141.44h3l26.5-141.44v-48.593c-9.15-1.282-18.5-1.969-28-1.969zm-48,5.8125c-82.252,20.273-144.47,91.438-151.34,178.19h48.188c6.292-60.1,47.606-109.77,103.16-128.25v-49.938zm96,0,0,49.938c55.554,18.482,96.864,68.153,103.16,128.25h48.188c-6.88-86.75-69.1-157.92-151.35-178.19zm-116,194.19,0,135.97c-45.277-22.69-77.645-67.33-83.156-119.97h-48.188c7.635,96.35,83.533,173.49,179.34,183v-199h-48zm88,0,0,199c95.811-9.5136,171.71-86.646,179.34-183h-48.188c-5.5,52.64-37.87,97.28-83.15,119.97v-135.97h-48z"/></svg>