<?xml version="1.0" encoding="UTF-8" standalone="no"?>
<svg xmlns="http://www.w3.org/2000/svg" width="350" height="371.07782" version="1.1">
<path fill="#ab0700" d="m 253.91493,0 c -11.31843,94.02828 -35.04956,103.19554 -60.22232,135.12809 24.02784,-0.70497 46.0159,-7.66765 65.39874,-18.33737 19.53081,20.69732 31.53214,48.56529 31.53214,79.27018 0,63.84938 -51.7572,115.60658 -115.60657,115.60658 -63.84938,0 -115.64041,-51.7572 -115.64041,-115.60658 0,-63.84937 51.79103,-115.60657 115.64041,-115.60657 16.49552,0 32.15352,3.51874 46.35089,9.74384 1.2922,-2.22477 2.55225,-4.58503 3.78927,-7.07105 1.25575,-2.52365 2.49422,-5.17333 3.68777,-8.01837 1.19356,-2.84504 2.35879,-5.88205 3.48478,-9.10101 1.12598,-3.21897 2.19491,-6.63973 3.24794,-10.28516 1.05304,-3.64543 2.07026,-7.51403 3.04495,-11.63848 0.74929,-3.17064 1.46511,-6.6348 2.1653,-10.11599 -20.32058,-8.25737 -42.48313,-12.92412 -65.7709,-12.92412 -96.65671,0 -175.01692,78.36021 -175.01692,175.01691 0,96.65671 78.36021,175.01692 175.01692,175.01692 96.6567,0 174.98308,-78.36021 174.98308,-175.01692 0,-44.68342 -16.86132,-85.36279 -44.42243,-116.28322 24.3129,-26.63317 39.08555,-57.40948 41.24215,-79.20252 l -92.90479,-0.57516 z"/>
</svg>