<?xml version="1.0" encoding="UTF-8" standalone="no"?>
<svg xmlns="http://www.w3.org/2000/svg" width="250" height="207.62971" version="1.1">
<path fill="#43b14b" d="m 84.981102,72.87472 c -11.16234,16.39888 -43.91293,36.92778 -46.57759,56.5331 -1.50156,11.04784 12.87775,12.20407 29.86655,7.46664 -23.27553,13.98859 -68.740035,26.08582 -68.26639,4.26665 0.510782,-23.52997 51.93168,-59.34472 84.97743,-68.26639 z"/>
<g fill="#f5862d">
	<path d="m 127.292042,207.62972 c -15.48585,-33.50488 -15.17659,-72.92202 -10.86706,-100.24472 7.19487,-45.61588 26.89829,-78.59516 36.46696,-93.17672 -39.14933,-1.66314 -60.73486,41.15069 -64.26563,54.04423 -7.60294,-10.09019 -9.0181,-20.27052 -10.41715,-28.79989 -9.64438,18.81419 -12.43524,49.01241 -8.77659,78.22092 4.54736,36.30354 25.99414,68.4794 57.85947,89.95618 z"/>
	<path d="m 104.7,24.81358 c -2.50159,12.45224 -9.36199,21.57885 -15.32315,20.3849 -5.96113,-1.19396 -8.76565,-12.25636 -6.26406,-24.7086 2.5016,-12.45222 9.362,-21.57885 15.32314,-20.38489 5.96115,1.19395 8.76567,12.25637 6.26407,24.70859 z"/>
</g>
<path fill="#4792ff" d="m 29.866542,157.00622 c 22.5482,-9.00015 62.28982,-22.70378 94.13439,-43.93463 22.76582,-15.17803 35.36912,-29.42984 33.86511,-35.35394 -2.30979,-9.09785 -12.18399,-8.04403 -29.52836,-8.28436 30.74219,-14.6997 103.60444,-34.19122 119.12798,-11.62666 14.21177,20.6578 -34.00294,52.68841 -78.40431,68.52093 -52.57169,18.74586 -113.91215,27.88936 -139.19481,30.67866 z"/>
</svg>