<?xml version="1.0" encoding="UTF-8" standalone="no"?>
<svg xmlns="http://www.w3.org/2000/svg" width="403" height="353" version="1.1">
<g transform="translate(-9.5,-10.625)">
	<path style="fill:#449300;stroke:#449300" d="m 246.78125,100.625 c -53.60932,63.58178 -107.27991,127.1556 12.0625,253 49.62593,-19.71515 84.6875,-67.99901 84.6875,-124.4375 0,-60.91017 -40.8412,-112.30951 -96.75,-128.5625 z m 12.0625,253 C 245.25687,339.78831 234.81204,331.67029 227.25,326.875 l -3.25,0.71875 -12.40625,-6.40625 -20.78125,-14.78125 4.3125,0.40625 C 131.68136,252.96767 118.79562,188.31837 134.8125,117.5 98.4596,141.47645 74.46875,182.52367 74.46875,229.1875 c 0,73.96677 60.23311,133.9375 134.53125,133.9375 17.6026,0 34.43428,-3.34854 49.84375,-9.46875 -0.005,-0.005 0.005,-0.0258 0,-0.0312 z"/>
	<path style="fill:#ec8d00;stroke:#ec8d00;stroke-width:0.96473497" transform="matrix(1.0454518,0,0,1.0277322,-10.090326,0.33018892)" d="m 248,53 c 0,19.550881 -15.58049,35.400002 -34.8,35.400002 -19.21951,0 -34.8,-15.849121 -34.8,-35.400002 0,-19.550881 15.58049,-35.400002 34.8,-35.400002 19.21951,0 34.8,15.849121 34.8,35.400002 z"/>
	<path style="fill:#002d9d;stroke:#002d93" d="M 10,11.1875 C 22.750698,49.024202 73.428262,108.1204 122.8125,125.59375 90.964418,219.0375 158.03661,310.61229 228.21875,329.25 238.10431,337.38919 249.32745,345.15581 262,352.40625 121.65175,220.27001 267.43453,48.73392 412,109.1875 244.16843,-11.979178 77.404134,202.37838 226.5,327.8125 171.76016,300.32964 112.88309,196.72887 188,95.59375 134.02224,94.812475 60.511826,72.23267 10,11.1875 z"/>
</g>
</svg>