<?xml version="1.0" encoding="UTF-8" standalone="no"?>
<svg xmlns="http://www.w3.org/2000/svg" width="358" height="353" version="1.1">
<path transform="translate(0,-7)" fill="#472786" stroke="#472786" d="M 178.59375,7.875 C 80.206952,7.875 0.5,86.767212 0.5,183.6875 0.5,280.60778 80.206952,359.5 178.59375,359.5 276.98054,359.5 356.6875,280.60778 356.6875,183.6875 356.6875,86.767212 276.98054,7.875 178.59375,7.875 z m 0,12.71875 c 90.9898,0 164.8125,72.846549 164.8125,163.09375 0,90.2472 -73.8227,163.09375 -164.8125,163.09375 -55.84107,0 -105.189214,-27.44351 -135,-69.5 36.158296,26.67917 66.44638,45.37487 120.75,44.90625 53.3997,0.33424 135.20338,-44.78128 134.75,-124.75 0.35729,-61.59776 -39.9387,-120.947406 -107.25,-120.75 -21.04419,-0.195826 -45.80171,3.481648 -71,27 -6.62543,6.7786 -30.19149,32.40532 -30.25,65.25 0.696898,38.81607 36.90104,67.49314 56.75,62.75 l -0.375,-0.34375 c 0.45715,0.0139 0.91403,0.0312 1.375,0.0312 21.78901,0 39.4375,-15.63377 39.4375,-34.9375 0,-19.30373 -17.64849,-34.9375 -39.4375,-34.9375 -21.78901,0 -39.4375,15.63377 -39.4375,34.9375 0,0.46807 0.0107,0.94265 0.0312,1.40625 -3.76141,-13.09207 2.74714,-59.90466 55.65625,-60.15625 36.34664,0.13564 62.26314,19.85513 64.25,69.25 1.57284,20.09887 -16.96436,85.19435 -98.5,81 -102.979897,1.19828 -124.1283141,-94.51918 -113.5,-133.5 l -1,3.5 C 28.309067,79.982687 96.443237,20.59375 178.59375,20.59375 z"/>
</svg>