<?xml version="1.0" encoding="UTF-8" standalone="no"?>
<svg xmlns="http://www.w3.org/2000/svg" width="350" height="422.85538" version="1.1">
<g transform="matrix(1.1501336,0,0,1.1501336,-219.746361,-736.04906)">
	<path fill="#21b254" d="m 329.11642,644.45309 c -7.71686,11.41724 -18.44977,23.81236 -28.48593,35.59131 -47.96069,56.28913 -108.93434,89.70662 -109.5625,170.09375 -0.79891,102.23789 73.48873,148.28119 120.25,155.43755 -25.99623,-28.99604 -22.91786,-64.82845 3.875,-88.4063 -0.0729,3.4e-4 -0.14577,0 -0.21875,0 -25.35946,0 -45.90625,-20.54678 -45.90625,-45.90625 0,-25.35947 20.54679,-45.90625 45.90625,-45.90625 25.35946,0 45.9375,20.54678 45.9375,45.90625 0,12.40232 -4.94649,23.64389 -12.9375,31.90625 0.10277,-0.0263 0.19468,-0.0518 0.28125,-0.0937 27.78932,-9.49574 36.36467,-27.88317 36.03125,-52.4375 -0.21588,-15.89843 -18.57122,-32.11095 -29.34375,-41.9375 -15.76514,-14.38073 -24.95872,-33.42287 -18.84375,-62.0625 2.76078,-11.0797 7.54952,-17.60911 10.6875,-29.03125 3.99868,-14.55509 0.34458,-27.73472 -6.44859,-40.35047 -2.41262,-4.48053 -7.92457,-9.47141 -8.77784,-14.48816 -1.37479,-8.08304 1.05757,-11.84646 2.1475,-16.12039 2.26613,-8.88617 -0.56083,-8.15812 -4.59139,-2.19484 z"/>
	<path fill="#ef1c27" transform="matrix(1.3891202,0,0,1.3575493,-126.11365,104.44685)" d="m 339.42317,564.85486 c 0,12.36606 -9.79684,22.39073 -21.88185,22.39073 -12.08501,0 -21.88185,-10.02467 -21.88185,-22.39073 0,-12.36606 9.79684,-22.39074 21.88185,-22.39074 12.08501,0 21.88185,10.02468 21.88185,22.39074 z"/>
	<path fill="#0093d6" d="m 470.35639,696.72648 c 7.46101,-7.83663 10.13898,-5.83245 4.16702,3.80935 -4.17916,6.74731 -7.48185,18.39312 -9.1191,28.34609 -4.20544,33.42542 6.94961,43.42706 15.43893,62.64384 10.0636,22.78042 20.47394,47.70208 10.47322,100.34907 -10.22982,53.85306 -61.55946,109.22797 -127.72896,115.51587 -49.49085,4.7029 -71.26675,-62.43486 -25.95289,-82.94752 20.14992,-9.12147 25.17924,-7.96757 38.02656,-15.32131 15.99812,-9.15723 31.27402,-37.44321 24.35703,-65.14046 -11.72384,-46.945 -27.2848,-24.95586 -42.53726,-63.04249 -14.17465,-35.39525 2.89207,-66.06306 39.18378,-72.76988 21.30934,-3.93803 30.15914,1.33489 37.63091,3.52142 6.35609,1.86004 13.02535,1.39538 18.09874,-0.56412 7.09237,-2.73929 12.71948,-8.89339 17.96202,-14.39986 z"/>
</g>
</svg>