<?xml version="1.0" encoding="UTF-8" standalone="no"?>
<svg xmlns="http://www.w3.org/2000/svg" xmlns:xlink="http://www.w3.org/1999/xlink" width="417" height="419" version="1.1">
<defs>
	<ellipse id="a" fill="#f00" cx="70" cy="88.833336" rx="24.333333" ry="23.666667"/>
</defs>
<g transform="translate(0,-28.5)">
	<g style="fill:none;stroke-width:30;stroke-linecap:round">
		<g stroke="#003597">
			<path d="M 42.000001,257.5924 C 40.748266,388.41413 200.93538,495.2175 340,389.5924 443.94409,307.90021 420.75244,111.21583 241,85.592405"/>
			<path d="M 48.333334,144.25907 C 47.716997,202.58717 41.545783,211.89995 123,249.5924 c 92.35491,47.42206 68.89345,102.39003 26,116.66666"/>
			<path d="m 191.66667,196.25907 c -3.91307,26.1032 27.22898,93.38749 46,57.33333"/>
		</g>
		<g stroke="#209f00">
			<path d="M 145,43.592405 C 168.47477,126.23166 152.7022,221.85987 127.66667,209.5924 54.664615,174.29764 167.35541,61.846037 233.66666,178.25907"/>
			<path d="M 98.333331,83.592405 197,84.259072"/>
			<path d="m 15,316.59239 96.66667,0"/>
		</g>
	</g>
	<use xlink:href="#a" transform="matrix(0.74298478,0,0,0.80013739,5.8244,32.346867)"/>
	<use xlink:href="#a" transform="matrix(0.74298478,0,0,0.80013739,33.657733,201.84686)"/>
	<use xlink:href="#a" transform="matrix(0.74298478,0,0,0.80013739,203.65773,144.51353)"/>
	<use xlink:href="#a" transform="matrix(0.74298478,0,0,0.80013739,202.3244,59.846865)"/>
</g>
</svg>