<?xml version="1.0" encoding="UTF-8" standalone="no"?>
<svg xmlns="http://www.w3.org/2000/svg" xmlns:xlink="http://www.w3.org/1999/xlink" width="500" height="500" viewBox="-110 -117 220 220" version="1.1" fill="#00adef">
<desc>Emblem of Ooma, Aomori</desc>
<path id="a" d="M 231.8125 15.90625 V 50.90625 C 163.58308 56.602612 104.40145 94.021854 69 148.375 L 100.53125 166.5625 C 129.53607 123.01875 177.0298 92.831317 231.8125 87.3125 V 121.625 C 189.75086 126.92076 153.19911 150.30272 130.1875 183.6875 L 161.65625 201.875 C 181.4411 174.56789 213.53172 156.8125 250 156.8125 286.45248 156.8125 318.52633 174.55761 338.3125 201.84375 L 369.78125 183.65625 C 346.77086 150.28415 310.23619 126.91736 268.1875 121.625 V 87.3125 C 322.9559 92.829346 370.42971 123.00555 399.4375 166.53125 L 431 148.3125 C 395.58478 93.989376 336.39888 56.598428 268.1875 50.90625 L 268.1875 15.90625 H 231.8125 z " transform="matrix(0.44,0,0,0.44,-110,-117)"/>
<use xlink:href="#a" transform="rotate(120)"/>
<use xlink:href="#a" transform="rotate(240)"/>
</svg>