<?xml version="1.0" encoding="UTF-8" standalone="no"?>
<svg xmlns="http://www.w3.org/2000/svg" width="300" height="300" version="1.1" fill="#009f3b">
<g transform="matrix(1.0316747,0,0,1.0316747,-214.4271349,-376.036618)">
	<path d="m 278.09375,635.09375 c 3.1056,-21.66207 8.45343,-43.18597 18.14029,-62.9022 3.17205,-6.68784 6.53051,-13.28535 9.70346,-19.9728 -12.59689,6.07206 -26.44318,8.85432 -39.97667,12.01221 -14.77758,3.20799 -29.65058,5.95092 -44.52333,8.67529 12.23935,25.70721 32.22683,47.57912 56.65625,62.1875 z"/>
	<path d="m 468.65625,421.875 c -32.53366,29.98623 -63.79043,62.20019 -86.06487,100.75527 -23.97366,40.52379 -39.29655,85.87914 -46.81013,132.27598 51.8992,6.90138 106.13435,-17.39363 136.01638,-60.28304 31.58828,-43.44294 35.69731,-104.73348 10.15851,-151.985 -3.84106,-7.27751 -8.2984,-14.22888 -13.29989,-20.76321 z"/>
	<path d="m 352.9375,364.5 c -51.88064,-0.58888 -102.44281,29.33 -127.26968,74.82006 -9.95445,17.81499 -16.06658,37.75536 -17.82407,58.08619 79.90236,7.00161 162.07461,-13.37864 229.39387,-56.98507 10.06632,-6.69737 19.84942,-13.87893 28.88738,-21.92118 -27.16918,-33.83091 -69.75105,-54.29556 -113.1875,-54 z"/>
</g>
</svg>