<?xml version="1.0" encoding="UTF-8" standalone="no"?>
<svg xmlns="http://www.w3.org/2000/svg" width="333" height="238" version="1.1">
<path stroke="#000" d="M 168.03124,0.625 65.12499,159.78125 c -6.46321,-3.95153 -14.09714,-6.25 -22.24999,-6.25 -23.40943,0 -42.375,18.81148 -42.375,42 0,23.18852 18.96557,41.96875 42.375,41.96875 16.34446,0 30.52112,-9.17007 37.59374,-22.59375 l 87.3125,-140.28125 48.28125,79.0625 -44.53125,0 c -1.14245,-0.0915 -2.27125,-0.15625 -3.4375,-0.15625 -23.40942,0 -42.40625,18.81148 -42.40625,42 0,23.18852 18.99683,41.96875 42.40625,41.96875 22.6137,0 41.08243,-17.52914 42.3125,-39.625 l 36.5625,0 c 1.23122,22.09477 19.69959,39.625 42.3125,39.625 23.40942,0 42.375,-18.78023 42.375,-41.96875 0,-23.18852 -18.96558,-42 -42.375,-42 -1.31466,0 -2.62212,0.0715 -3.90625,0.1875 l -21.28125,0 L 168.03124,0.625 z"/>
</svg>