<?xml version="1.0" encoding="UTF-8" standalone="no"?>
<svg xmlns="http://www.w3.org/2000/svg" width="231" height="157" version="1.1" stroke="#000">
<path d="m 88.5,30.529355 -88,0 115.142859,50 c -0.66666,-0.0952 10.19048,3.61905 11.42857,7.42857 1.02904,4.19048 0.57143,13.42857 0.57143,13.42857 l 45.71428,-18.28572 c 0,0 -0.79077,-6.25629 -2.13139,-11.039589 -1.37367,-4.880456 -7.29717,-12.388976 -7.29717,-12.388976 l 66.57142,-29.428572 -89.42857,0 -24,-29.714286 z"/>
<path d="m 62.214289,61.672212 c -22.858608,45.810455 0.27587,79.962975 32.57143,91.999995 29.04555,10.03236 74.55381,-6.54053 81.14285,-51.14286 0.58722,-3.17197 13.42857,-6 13.42857,-6 0,0 -2.33617,-5.16644 -6.28571,-8 -3.29855,-2.60815 -13.06729,0.22282 -13.06729,0.22282 L 121.071429,107.957927 c -16.65598,5.93403 -30.48751,-11.92282 -12,-26.28572 z"/>
</svg>