<?xml version="1.0" encoding="UTF-8" standalone="no"?>
<svg xmlns="http://www.w3.org/2000/svg" width="458" height="431" version="1.1">
<g transform="translate(-18.101967,-24.835533)">
	<path fill="#478165" stroke="#478165" d="m 267.5,25.71875 c -46.41186,0 -89.25683,15.728539 -123.84375,42.3125 l 0,-13.375 -82,0 0,134.34375 -43,0 0,83.34375 199.6875,0 0,-83.34375 -11.53125,0 c 9.01214,-23.20796 44.10544,-48.69094 86.84375,-48.34375 C 338.69744,140.34841 409.20364,184.01646 392,282.5 363.34429,416.86679 155.85945,434.23827 121.625,283.6875 l -57.71875,0 C 83.245454,381.60702 167.05809,455.28125 267.5,455.28125 382.25319,455.28125 475.28125,359.11918 475.28125,240.5 475.28125,121.88082 382.25319,25.71875 267.5,25.71875 z"/>
	<g fill="#ede17a" stroke="#ede17a">
		<path d="m 80.666667,127.66666 27.333333,0 0,89 -27.666667,24 z"/>
		<path d="m 120.66667,127.33333 -0.33334,45.00001 31,-3.33334 0,-20.33333 -14.66667,0 0,-21.33334 z"/>
		<path d="m 165,127.33333 0,40.66667 27.66667,-3.33334 0,-16.99999 -12,-0.33334 0,-19.66666 z"/>
		<path d="m 119.66666,208.66667 0,32 71.66667,0 0.33334,-46.66667 -35,0 -0.33334,-17.33334 z"/>
	</g>
</g>
</svg>