<?xml version="1.0" encoding="UTF-8" standalone="no"?>
<svg
   xmlns:dc="http://purl.org/dc/elements/1.1/"
   xmlns:cc="http://creativecommons.org/ns#"
   xmlns:rdf="http://www.w3.org/1999/02/22-rdf-syntax-ns#"
   xmlns:svg="http://www.w3.org/2000/svg"
   xmlns="http://www.w3.org/2000/svg"
   xmlns:sodipodi="http://sodipodi.sourceforge.net/DTD/sodipodi-0.dtd"
   xmlns:inkscape="http://www.inkscape.org/namespaces/inkscape"
   version="1.1"
   width="384.71875"
   height="480.5"
   viewBox="-250 -250 384.71875 480.5"
   id="svg2"
   inkscape:version="0.48.4 r"
   sodipodi:docname="Gonohe_Aomori_chapter.svg">
  <metadata
     id="metadata17">
    <rdf:RDF>
      <cc:Work
         rdf:about="">
        <dc:format>image/svg+xml</dc:format>
        <dc:type
           rdf:resource="http://purl.org/dc/dcmitype/StillImage" />
      </cc:Work>
    </rdf:RDF>
  </metadata>
  <defs
     id="defs15" />
  <sodipodi:namedview
     pagecolor="#ffffff"
     bordercolor="#666666"
     borderopacity="1"
     objecttolerance="10"
     gridtolerance="10"
     guidetolerance="10"
     inkscape:pageopacity="0"
     inkscape:pageshadow="2"
     inkscape:window-width="1280"
     inkscape:window-height="961"
     id="namedview13"
     showgrid="false"
     fit-margin-top="0"
     fit-margin-left="0"
     fit-margin-right="0"
     fit-margin-bottom="0"
     inkscape:zoom="1.474"
     inkscape:cx="200.93742"
     inkscape:cy="240.5"
     inkscape:window-x="-8"
     inkscape:window-y="-8"
     inkscape:window-maximized="1"
     inkscape:current-layer="svg2" />
  <title
     id="title4">Gonohe, Aomori Chapter</title>
  <path
     style="fill:#0c6c29;stroke:none"
     d="M 192.53125 0 C 155.34558 0.0457 118.18859 8.88392 84.96875 25.59375 C 51.74891 42.30359 22.51737 66.85932 0.3125 96.6875 L 73.65625 139.03125 C 88.23905 121.85617 106.58497 107.90277 127.03125 98.4375 C 147.47753 88.97223 170.00035 84.0061 192.53125 84 C 205.25052 84.0779 217.95946 85.71913 230.28125 88.875 L 143.09375 139.21875 C 96.3972 163.18145 67.35438 221.23211 85.53125 273.09375 C 90.33617 290.9832 99.97784 306.42595 112.625 318.78125 L 0 383.78125 C 22.19847 413.61096 51.41073 438.15985 84.625 454.875 C 117.83927 471.59015 155.00442 480.44583 192.1875 480.5 C 229.37317 480.4543 266.49891 471.61608 299.71875 454.90625 C 332.93859 438.19642 362.20138 413.64068 384.40625 383.8125 L 311.0625 341.46875 C 296.4797 358.64383 278.10253 372.59723 257.65625 382.0625 C 237.20997 391.52777 214.7184 396.4939 192.1875 396.5 C 179.46823 396.4221 166.75929 394.78087 154.4375 391.625 L 244.4375 339.65625 C 244.59718 339.56925 244.74693 339.463 244.90625 339.375 C 246.00768 338.76658 247.10435 338.15478 248.1875 337.5 C 250.76665 335.94087 253.31739 334.26353 255.78125 332.4375 C 313.25802 296.22358 320.0144 207.82631 272.78125 161.34375 L 384.71875 96.71875 C 362.52028 66.88904 333.27677 42.34015 300.0625 25.625 C 266.84823 8.90985 229.71433 0.05417 192.53125 0 z M 192.34375 211.84375 C 207.89057 211.84375 220.46875 224.45318 220.46875 240 C 220.46875 255.54682 207.89057 268.15625 192.34375 268.15625 C 176.79693 268.15625 164.1875 255.54682 164.1875 240 C 164.1875 224.45318 176.79693 211.84375 192.34375 211.84375 z "
     transform="translate(-250,-250)"
     id="A01-3" />
  <polygon
     points="-250,-250 250,-250 250,250 -250,250 "
     style="fill:none;stroke:none"
     id="polygon6"
     transform="translate(-57.46875,-10)" />
</svg>
