<?xml version="1.0" encoding="UTF-8" standalone="no"?>
<svg xmlns="http://www.w3.org/2000/svg" width="549" height="267" version="1.1">
<g transform="translate(-24.166667,-164.84375)">
	<path fill="#00aed9" stroke="#00aed9" d="m 565.34375,274.65625 c 2.11111,6.40122 1.20139,11.24494 1.3125,18.6875 -0.4083,35.29737 -32.78692,54.86782 -68.3125,53.3125 C 394.50114,344.94892 355.00913,295.89338 268,296 c -27.37673,-0.15286 -93.69939,0.83466 -142.34375,72.15625 16.69236,-0.81673 31.46386,0.11081 44.71875,2.4375 32.41766,-53.15211 97.58269,-52.83472 109.625,-53.25 81.55555,0.41857 139.78819,35.02158 212.34375,36.3125 C 521.48263,353.13099 546.24465,345.25908 562,322 c -6.83874,20.04709 -27.29873,37.43157 -73.65625,37.65625 -67.33333,-1.16062 -136.66667,-27.60899 -188,-27.65625 -63.53674,-0.68872 -87.44152,21.76933 -105.78125,44.90625 12.23631,4.35806 23.01367,10.15453 32.84375,17 24.91332,-33.05652 63.68199,-40.6813 105.59375,-40.5625 55.41232,-0.31593 108.7699,13.52455 154.65625,13.3125 56.39193,-0.10325 73.57951,-31.69858 79,-43.65625 -3.72889,20.84915 -22.10969,48.76356 -88,49.34375 -37.22222,-0.17203 -89.43403,-8.00018 -115.65625,-7.6875 -72.83195,-0.16339 -103.19799,23.6571 -117.875,43.5 7.80688,7.14923 15.1053,14.95744 22.21875,23.1875 31.34311,-46.15621 87.26305,-53.42434 140,-53.6875 24.29325,0.10197 45.13194,1.92361 71.3125,1.6875 89.37858,-0.012 93.6773,-58.69199 93.6875,-70.34375 0.36159,-15.39023 -2.92089,-21.72082 -7,-34.34375 z"/>
	<path fill="#40a93f" stroke="#40a93f" d="m 134.66667,341.33333 c 30.08752,-34.74512 75.802,-53.1411 130.66666,-53.33333 83.53357,0.69312 149.36494,47.68755 203.33334,51.33333 -27,-11.33333 -81.22365,-16.81324 -134.33333,-122.66667 0,0 -18.84546,-50.5486 -81.33334,-50.33333 -27.72439,-0.0866 -55.15526,9.76711 -76.33333,50.33333 C 162.84628,243.33289 122.52557,331.57631 24.666667,341 z"/>
	<g fill="#cd1b2f" stroke="#cd1b2f">
		<path d="m 490.33334,228.66667 c 0,24.66872 -20.14718,44.66667 -45,44.66667 -24.85281,0 -45,-19.99795 -45,-44.66667 0,-24.66872 20.14719,-44.66667 45,-44.66667 24.85282,0 45,19.99795 45,44.66667 z"/>
		<path d="m 553.333336,271.666666 c 0,17.30492 -14.02842,31.33334 -31.33334,31.33334 -17.30492,0 -31.33333,-14.02842 -31.33333,-31.33334 0,-17.30492 14.02841,-31.33333 31.33333,-31.33333 17.30492,0 31.33334,14.02841 31.33334,31.33333 z"/>
	</g>
</g>
</svg>