<?xml version="1.0" encoding="UTF-8" standalone="no"?>
<svg xmlns="http://www.w3.org/2000/svg" xmlns:xlink="http://www.w3.org/1999/xlink" width="455" height="455" version="1.1">
<path id="a" d="m 128.2375,141.66875 c 0,0 -12.03019,0.70195 -17.1125,3.01875 -42.30325,11.36231 -65.65208,45.91083 -65.71875,82.4375 -0.0667,36.52667 22.73689,71.08265 66,83.8125 8.18311,3.11915 16.96875,2.85 16.96875,2.85 0,0 -5.00596,-6.90833 -10.91875,-14.3625 -9.6021,-8.86619 -21.00199,-43.21762 -20.9875,-70.26875 0.0145,-27.05113 6.20374,-56.92193 21.6625,-74.06875 4.15184,-6.0391 9.74951,-14.16985 10.10625,-13.41875 z m -33.14375,24.55 c -9.1542,18.79839 -13.61324,40.95708 -13.625,62.90625 -0.0112,20.94076 4.08776,41.70408 12.65625,59.1875 -22.81035,-13.11587 -33.76285,-36.99253 -33.71875,-61.15625 0.0449,-24.58517 11.41163,-48.56263 34.6875,-60.9375 z"/>
<use xlink:href="#a" transform="rotate(90,227.5,227.5)"/>
<use xlink:href="#a" transform="rotate(180,227.5,227.5)"/>
<use xlink:href="#a" transform="rotate(270,227.5,227.5)"/>
<path d="m 227.28125,115.875 c -61.83628,0 -112.03125,50.20777 -112.03125,111.90625 0,61.69847 50.19497,111.96875 112.03125,111.96875 61.83629,0 112.0625,-50.27028 112.0625,-111.96875 0,-61.69848 -50.22621,-111.90625 -112.0625,-111.90625 z m 6.875,15.1875 c 47.69993,3.32857 85.80042,41.03581 89.6875,88.6875 l -89.6875,0 0,-88.6875 z m -15,0.0937 0,88.59375 -88.4375,0 c 3.85293,-47.23301 41.32533,-84.69706 88.4375,-88.59375 z m -88.53125,103.59375 88.53125,0 0,89.71875 c -47.47548,-3.92996 -85.17288,-41.9687 -88.53125,-89.71875 z m 103.53125,0 89.78125,0 c -3.38791,48.17008 -41.71671,86.45573 -89.78125,89.8125 l 0,-89.8125 z"/>
<path transform="translate(-260.9375,-99.5625)" d="m 495,100.09375 -15,0.125 0.0937,11.9375 C 367.67061,116.48499 277.17479,207.15457 273.1875,319.75 l -12.25,0.0937 0.125,15 12.09375,-0.0937 c 3.73808,112.87939 94.4315,203.83699 207.09375,208.09375 l 0.0937,11.71875 15,-0.125 -0.0937,-11.53125 c 113.39092,-3.49893 204.88629,-94.82413 208.59375,-208.25 l 11.3125,0 0,-15 -11.34375,0 C 699.75662,206.4968 608.3279,115.50627 495.09375,112.09375 l -0.0937,-12 z m 0.25,26.96875 c 105.18353,3.46574 189.68654,87.64308 193.71875,192.59375 l -12.125,0 0,15 12.15625,0 C 685.31168,439.96969 600.59725,524.52684 495.125,527.9375 l -0.125,-12.5 -15,0.125 0.0937,12.3125 C 375.42878,523.57557 291.63627,439.34319 288,334.59375 l 12.0625,-0.0937 -0.125,-15 -11.90625,0.0937 C 292.07536,215.17135 375.7845,131.33622 480.25,127.125 l 0.0937,12.09375 15,-0.125 -0.0937,-12.03125 z"/>
</svg>