<?xml version="1.0" encoding="UTF-8" standalone="no"?>
<svg xmlns="http://www.w3.org/2000/svg" version="1.1" width="346" height="304">
<path stroke="#000" stroke-linejoin="round" d="m 344.54298,0.800774 -158,1.5 c -13.38522,0.931713 -24.49256,10.994469 -17.75,35.5 l 20.25,68.999996 c 2.17929,6.04797 -1.58576,8.71366 -6,4 l -47.75,-85.749996 c -7.68664,-14.806447 -16.74419,-19.209362 -20.5,-19.75 l -44.500004,0.25 c -5.013606,0.491497 -4.630991,5.178565 -0.5,6.25 24.54257,2.165723 31.571614,7.805524 36.750004,26.25 l 43,148.999996 70.5,0 c 4.88055,-6.85792 -5.24453,-14.77687 1.25,-14.25 28.10096,-6.23413 28.01002,-27.74186 24.75,-38.75 l -9.75,-27 c -3.58333,-10.68518 -1.05352,-21.60678 16.75,-18 l 37.25,8.75 54.25,-96.999996 z m -261.468754,16.5 C 34.045882,42.448081 0.5117265,93.35819 0.5117265,152.05077 c 0,83.6505 68.1133905,151.4375 152.1250035,151.4375 84.01161,0 152.125,-67.787 152.125,-151.4375 0,-13.68961 -1.83041,-26.94879 -5.25,-39.5625 l -63.6875,-14.40625 c 9.96222,15.49603 15.75,33.94528 15.75,53.75 0,54.884 -44.39261,99.375 -99.15625,99.375 -54.763644,0 -99.156254,-44.491 -99.156254,-99.375 0,-34.89284 17.950325,-65.58301 45.09375,-83.312496 l -15.28125,-51.21875 z"/>
</svg>