<?xml version="1.0" encoding="utf-8"?>
<!-- Generator: Adobe Illustrator 18.0.0, SVG Export Plug-In . SVG Version: 6.00 Build 0)  -->
<!DOCTYPE svg PUBLIC "-//W3C//DTD SVG 1.1//EN" "http://www.w3.org/Graphics/SVG/1.1/DTD/svg11.dtd">
<svg version="1.1"
	 id="flag" 
	 xmlns="http://www.w3.org/2000/svg" 
	 xmlns:xlink="http://www.w3.org/1999/xlink" 
	 x="0px" y="0px" viewBox="0 0 350 350"
	 style="enable-background:new 0 0 350 350;" width="350" height="350"
	 xml:space="preserve">
<style type="text/css">
	.st0{fill:#00A539;}
	.st1{fill:#0662CE;}
</style>
<path id="green_2" class="st0" d="M175,0C78.4,0,0,78.4,0,175c0,36.9,11.4,71.1,30.9,99.4
	c19.5-20,45.3-65.4,51.1-87.5C93,145.2,96.6,112,132.3,75.6c29.7-30.3,76.6-52.6,117.5-58.9C227.1,6,201.7,0,175,0z"/>
<path id="green_1" class="st0" d="M249.8,16.7c-2.4,43.7-21.2,62.8-34.5,75.9
	c-21.4,20.9-65.8,28.6-91,57.8c-14.6,16.9-23.4,34.5-29.5,60.1c16.3-4.6,35.5-16.8,48.1-34.2c15.7-21.7,33.2-46.7,60.6-59.5
	c36.1-16.8,108.3-22.6,141.7,17.3C332.7,82.1,297.1,39.1,249.8,16.7z"/>
<path id="blue" class="st1" d="M345.2,134.1c-55.9-24.9-107.6-14.2-138.5,20.9
	c-18.5,21-27.1,58.9-12.4,82.8c10.9,17.8,29.8,26.7,62.9,26.2c-19.1-9.3-20.3-33.1-10.4-44.2c11.6-13,38.4-14.8,52.1,2.3
	c8,10,9.2,28.7,3.8,42.2c-23.7,59.3-102.1,45.5-131.3,23.5c-30.4-22.8-37.3-49.9-34-81.6c-16.8,19.7-43.9,52.3-106.4,68.2
	C62.5,320.1,115.3,350,175,350c96.6,0,175-78.4,175-175C350,160.9,348.3,147.2,345.2,134.1z"/>
</svg>
