<?xml version="1.0" encoding="UTF-8" standalone="no"?>
<!-- Created with Inkscape (http://www.inkscape.org/) -->

<svg
   xmlns:dc="http://purl.org/dc/elements/1.1/"
   xmlns:cc="http://creativecommons.org/ns#"
   xmlns:rdf="http://www.w3.org/1999/02/22-rdf-syntax-ns#"
   xmlns:svg="http://www.w3.org/2000/svg"
   xmlns="http://www.w3.org/2000/svg"
   xmlns:sodipodi="http://sodipodi.sourceforge.net/DTD/sodipodi-0.dtd"
   xmlns:inkscape="http://www.inkscape.org/namespaces/inkscape"
   width="500"
   height="440.31027"
   id="svg2"
   version="1.1"
   inkscape:version="0.48.4 r"
   sodipodi:docname="Symbol of Kitakami Iwate.svg">
  <defs
     id="defs4" />
  <sodipodi:namedview
     id="base"
     pagecolor="#ffffff"
     bordercolor="#666666"
     borderopacity="1.0"
     inkscape:pageopacity="0.0"
     inkscape:pageshadow="2"
     inkscape:zoom="1.474"
     inkscape:cx="250"
     inkscape:cy="220.15514"
     inkscape:document-units="px"
     inkscape:current-layer="layer1"
     showgrid="false"
     inkscape:window-width="1280"
     inkscape:window-height="961"
     inkscape:window-x="-8"
     inkscape:window-y="-8"
     inkscape:window-maximized="1"
     fit-margin-top="0"
     fit-margin-left="0"
     fit-margin-right="0"
     fit-margin-bottom="0" />
  <metadata
     id="metadata7">
    <rdf:RDF>
      <cc:Work
         rdf:about="">
        <dc:format>image/svg+xml</dc:format>
        <dc:type
           rdf:resource="http://purl.org/dc/dcmitype/StillImage" />
        <dc:title />
      </cc:Work>
    </rdf:RDF>
  </metadata>
  <g
     inkscape:label="レイヤー 1"
     inkscape:groupmode="layer"
     id="layer1"
     transform="translate(-129.99988,-149.56492)">
    <g
       id="g3762"
       transform="matrix(1.0205447,0,0,1.0205447,-2.6709299,-12.119359)">
      <path
         sodipodi:nodetypes="sssccsss"
         inkscape:connector-curvature="0"
         id="path3764"
         d="m 280.23338,271.36218 c 69.54283,9.64887 95.39561,114.08405 87.76662,166 -11.75443,79.98994 -69.51469,151.05487 -135,146 -53.89387,-4.16011 -85.21817,-35.50281 -103,-93 67.8278,12.49749 105.29698,-33.0976 98,-92 -45.36201,37.97972 -77.13819,7.54144 -81,-20 -2.68995,-19.18402 19.0387,-53.41035 40.20189,-74.3792 27.0206,-26.77245 45.20749,-39.25624 93.03149,-32.6208 z"
         style="fill:#2da1e2;fill-opacity:1;stroke:none" />
      <path
         sodipodi:nodetypes="scsssscsssss"
         inkscape:connector-curvature="0"
         id="path3766"
         d="m 367.5441,281.87236 c -34.51895,-49.80723 -57.89118,-53.50235 -104.13297,-56.51018 70.09244,-55.9847 204.80265,-91.8525 254,-46 37.97859,35.39649 3.02704,100.31688 -20,119.11669 -33.78563,27.58337 -64.23968,56.06788 -46.41113,76.88331 26.80367,31.29419 90.19413,-22.14113 107.58887,-47.11669 22.7978,-32.73332 37.51389,-49.53982 26.41113,-111.88331 49.44571,47.7257 38.29684,119.16204 16,177 -19.89357,51.60389 -65.59515,111.64791 -120.22741,147.85352 -61.07132,40.47287 -102.99204,58.43439 -121.6559,43.37986 -18.33822,-14.79186 26.12428,-36.76607 40.47655,-132.9028 7.95189,-53.26463 -2.24593,-126.81748 -32.04914,-169.8204 z"
         style="fill:#259458;fill-opacity:1;stroke:none" />
    </g>
  </g>
</svg>
