<?xml version="1.0" encoding="UTF-8"?><svg width="455" height="453" viewBox="22 23 455 453" xmlns="http://www.w3.org/2000/svg">
 <path xmlns="http://www.w3.org/2000/svg" d="m236.6 420.7c-101.1-32.7-137.5-144.8-60.3-238.9-66.8 35.7-194.3 143-123.1 293.2zm184.1-157.3c-32.67 101.1-144.8 137.5-238.9 60.3 35.7 66.8 143 194.3 293.2 123.1zm-157.3-184.1c101.1 32.7 137.5 144.8 60.3 238.9 66.8-35.7 194.3-143 123.1-293.2zm-184.1 157.3c32.7-101.1 144.8-137.5 238.9-60.3-35.7-66.8-143-194.3-293.2-123.1z" fill="#005c92"/>
 <circle xmlns="http://www.w3.org/2000/svg" cx="250" cy="250" r="88.8" fill="#ff8022"/>
</svg>