<?xml version="1.0" encoding="UTF-8" standalone="no"?>
<svg
   xmlns:dc="http://purl.org/dc/elements/1.1/"
   xmlns:cc="http://creativecommons.org/ns#"
   xmlns:rdf="http://www.w3.org/1999/02/22-rdf-syntax-ns#"
   xmlns:svg="http://www.w3.org/2000/svg"
   xmlns="http://www.w3.org/2000/svg"
   id="svg8"
   version="1.1"
   viewBox="0 0 107.14782 107.35181"
   height="107.35181mm"
   width="107.14782mm">
  <defs
     id="defs2" />
  <metadata
     id="metadata5">
    <rdf:RDF>
      <cc:Work
         rdf:about="">
        <dc:format>image/svg+xml</dc:format>
        <dc:type
           rdf:resource="http://purl.org/dc/dcmitype/StillImage" />
        <dc:title></dc:title>
      </cc:Work>
    </rdf:RDF>
  </metadata>
  <g
     transform="translate(-315.54203,-121.97027)"
     id="layer1">
    <g
       transform="matrix(1.5671072,0,0,1.5671072,-21.852248,70.113196)"
       id="g851">
      <path
         style="fill:#ffffff"
         d="M 274.24451,33.090954"
         id="path817" />
      <path
         style="clip-rule:evenodd;fill:#ffffff;fill-rule:evenodd"
         d="m 227.29051,67.193954 c -0.05,-12.577 9.919,-22.685 22.354,-22.664 11.986,0.02 22.429,10.467 22.469,22.477 0.04,12.18 -10.441,22.68 -22.634,22.674 -12.099,-0.006 -22.14,-10.182 -22.189,-22.487 z m 36.871,0.041 c -3.175,-0.847 -8.544,-0.771 -11.234,-3.419 -2.712,-2.669 -2.764,-8.041 -3.459,-10.433 -0.7,2.502 -0.701,7.835 -3.368,10.513 -2.589,2.6 -7.915,2.474 -10.182,3.062 2.444,0.74 7.821,0.839 10.394,3.575 2.623,2.788 2.487,8.17 3.405,11.806 1.017,-12.633 -0.28,-14.2 14.444,-15.104 z m -22.71,-13.536 c -2.569,-0.112 -5.143,2.169 -5.326,4.722 -0.191,2.661 1.962,5.122 4.649,5.312 3.095,0.219 5.288,-1.754 5.377,-4.842 0.084,-2.878 -1.901,-5.07 -4.7,-5.192 z m 16.291,10.035 c 2.878,0.07 4.98,-1.901 5.065,-4.75 0.09,-3.051 -2.037,-5.303 -4.982,-5.274 -2.643,0.026 -5.01,2.36 -5.06,4.99 -0.048,2.592 2.299,4.968 4.977,5.034 z m -16.458,16.628 c 2.899,-0.03 4.856,-2.021 4.869,-4.949 0.011,-2.633 -2.333,-5.109 -4.865,-5.14 -2.684,-0.032 -5.246,2.614 -5.167,5.338 0.081,2.726 2.313,4.782 5.163,4.751 z m 21.524,-4.946 c -0.002,-2.718 -2.234,-5.085 -4.857,-5.152 -2.675,-0.067 -5.316,2.618 -5.198,5.285 0.116,2.634 2.49,4.832 5.19,4.806 2.913,-0.029 4.869,-2.014 4.865,-4.939 z"
         id="path819" />
      <path
         style="clip-rule:evenodd;fill:#06965a;fill-rule:evenodd"
         d="m 264.16151,67.234954 c -14.724,0.905 -13.427,2.472 -14.444,15.104 -0.918,-3.636 -0.783,-9.018 -3.405,-11.806 -2.573,-2.736 -7.949,-2.835 -10.394,-3.575 2.267,-0.589 7.593,-0.462 10.182,-3.062 2.667,-2.678 2.667,-8.011 3.368,-10.513 0.695,2.392 0.747,7.764 3.459,10.433 2.69,2.648 8.059,2.572 11.234,3.419 z"
         id="path821" />
      <path
         style="clip-rule:evenodd;fill:#06965a;fill-rule:evenodd"
         d="m 241.45151,53.698954 c 2.799,0.122 4.784,2.314 4.7,5.191 -0.089,3.087 -2.282,5.061 -5.377,4.842 -2.687,-0.19 -4.84,-2.65 -4.649,-5.312 0.183,-2.552 2.757,-4.832 5.326,-4.721 z"
         id="path823" />
      <path
         style="clip-rule:evenodd;fill:#06965a;fill-rule:evenodd"
         d="m 257.74251,63.733954 c -2.678,-0.065 -5.025,-2.441 -4.977,-5.034 0.05,-2.63 2.417,-4.964 5.06,-4.99 2.945,-0.028 5.072,2.224 4.982,5.274 -0.084,2.848 -2.187,4.82 -5.065,4.75 z"
         id="path825" />
      <path
         style="clip-rule:evenodd;fill:#06965a;fill-rule:evenodd"
         d="m 241.28451,80.361954 c -2.85,0.03 -5.083,-2.025 -5.162,-4.751 -0.079,-2.724 2.482,-5.37 5.167,-5.338 2.532,0.03 4.875,2.507 4.865,5.14 -0.014,2.929 -1.971,4.919 -4.87,4.949 z"
         id="path827" />
      <path
         style="clip-rule:evenodd;fill:#06965a;fill-rule:evenodd"
         d="m 262.80851,75.415954 c 0.004,2.925 -1.952,4.91 -4.865,4.938 -2.7,0.026 -5.074,-2.172 -5.19,-4.806 -0.118,-2.667 2.523,-5.353 5.198,-5.285 2.623,0.068 4.856,2.435 4.857,5.153 z"
         id="path829" />
      <g
         transform="translate(173.61951,20.465954)"
         id="_x23_0174bfff">
	<path
   style="fill:#0174bf"
   d="m 63.441,20.609 c 4.177,-2.476 8.3,-5.025 12.49,-7.472 0.008,1.619 0.015,3.23 0.015,4.85 6.878,-0.095 13.742,2.417 18.928,6.944 6.52,5.56 10.482,14.086 10.064,22.694 0.125,7.442 -3.23,14.555 -8.27,19.902 4.798,1.121 9.376,3.076 13.383,5.971 -1.369,2.125 -2.667,4.292 -3.896,6.504 -5.208,-3.618 -11.552,-5.743 -17.933,-5.142 -6.505,0.366 -12.049,4.19 -18.297,5.566 -9.912,2.228 -20.292,-1.04 -28.247,-7.061 1.575,-2.073 2.923,-4.308 4.088,-6.637 4.923,4.248 11.237,6.666 17.75,6.753 -6.462,-3.442 -12.007,-8.892 -14.608,-15.822 -3.721,-9.324 -2.175,-20.533 4.06,-28.437 2.708,-3.705 6.533,-6.364 10.473,-8.613 m 7.567,5.516 C 59.896,28.425 52.235,40.622 55.017,51.64 57.231,63.294 70.393,71.308 81.754,67.697 92.765,64.943 100.017,52.38 96.712,41.487 94.091,30.572 81.887,23.195 71.008,26.125 Z"
   id="path831" />

</g>
    </g>
  </g>
</svg>
