<?xml version="1.0" encoding="UTF-8" standalone="no"?>
<!-- Created with Inkscape (http://www.inkscape.org/) -->

<svg xmlns:dc="http://purl.org/dc/elements/1.1/" xmlns:cc="http://creativecommons.org/ns#" xmlns:rdf="http://www.w3.org/1999/02/22-rdf-syntax-ns#" xmlns:svg="http://www.w3.org/2000/svg" xmlns="http://www.w3.org/2000/svg" version="1.0" width="417" height="417" id="svg2">
  <metadata id="metadata8">
    <rdf:RDF>
      <cc:Work rdf:about="">
        <dc:format>image/svg+xml</dc:format>
        <dc:type rdf:resource="http://purl.org/dc/dcmitype/StillImage" />
        <dc:title></dc:title>
      </cc:Work>
    </rdf:RDF>
  </metadata>
  <defs id="defs5" />
  <path d="M 208.5,5 183.53125,29.96875 C 146.9335,35.04652 113.82872,51.122 87.6875,74.75 L 107,94.0625 C 134.01613,70.07779 169.55932,55.5 208.5,55.5 c 39.05318,0 74.70536,14.64149 101.75,38.75 l 19.28125,-19.28125 c -26.17638,-23.7406 -59.36104,-39.90428 -96.0625,-45 L 208.5,5 z m 8.78125,68.5625 0,21.59375 0,5.6875 0,215.28125 0,27.3125 0,0.0312 c 1.16082,-0.0741 2.31622,-0.17812 3.46875,-0.28125 3.4576,-0.3094 6.87254,-0.74751 10.25,-1.3125 4.50258,-0.74508 8.93709,-1.7158 13.28125,-2.90625 l 0,-28.5625 0,-203.8125 C 286.32195,121.37357 316.5,161.42754 316.5,208.5 c 0,40.03927 -21.82451,75.00505 -54.21875,93.65625 l 0,30.46875 C 310.20671,311.81521 343.74999,264.05033 343.75,208.5 343.75,136.79035 287.8541,78.08954 217.28125,73.5625 z m -18,0.0312 C 128.91542,78.33533 73.25,136.93889 73.25,208.5 c 0,55.37842 33.343,102.99474 81.03125,123.90625 l 0,-30.5 C 122.12623,283.19335 100.5,248.3602 100.5,208.5 c 0,-46.91258 29.96279,-86.85544 71.78125,-101.75 l 0,203.5 0,28.59375 c 3.25736,0.90453 6.55816,1.68947 9.90625,2.34375 3.34824,0.66006 6.75542,1.18662 10.1875,1.59375 2.28805,0.27142 4.58331,0.50031 6.90625,0.65625 l 0,-0.0312 0,-27.28125 0,-215.21875 0,-5.4375 0,-21.875 z m -124.3125,13.875 c -23.7406,26.17638 -39.90428,59.36104 -45,96.0625 L 5,208.5 29.96875,233.46875 c 5.09371,36.71119 21.25178,69.91574 45,96.09375 L 94.28125,310.25 C 70.16443,283.20347 55.5,247.56073 55.5,208.5 55.5,169.44681 70.14149,133.79464 94.25,106.75 L 74.96875,87.46875 z M 342.25,87.71875 322.96875,107 C 346.94518,134.0142 361.5,169.56686 361.5,208.5 c 0,38.93314 -14.55482,74.4858 -38.53125,101.5 L 342.25,329.28125 c 23.61946,-26.13852 39.70079,-59.22622 44.78125,-95.8125 L 412,208.5 387.03125,183.53125 C 381.95079,146.94497 365.86946,113.85727 342.25,87.71875 z M 310.25,322.75 C 283.20536,346.85851 247.55319,361.5 208.5,361.5 169.56686,361.5 134.0142,346.94518 107,322.96875 L 87.71875,342.25 c 26.13852,23.61946 59.22622,39.70079 95.8125,44.78125 L 208.5,412 233.46875,387.03125 c 36.70146,-5.09572 69.88612,-21.2594 96.0625,-45 L 310.25,322.75 z" id="path2386" style="fill:#000000;stroke:none" />
</svg>
