<?xml version="1.0" encoding="UTF-8"?><svg width="451" height="324" viewBox="24 88 451 324" xmlns="http://www.w3.org/2000/svg" version="1.1">
 <path xmlns="http://www.w3.org/2000/svg" d="m173.8 191a96.4 96.4 0 0 1 152.4 0l67.1-13.6a160.7 160.7 0 0 0-286.6 0zm69.8 95v-71.9l-218.6-44.4 41.8 80.4 22.6 4.6a160.7 160.7 0 0 0 154.2 156v-64.4a96.4 96.4 0 0 1-88.3-78.2zm12.9 0 88.3-17.9a96.4 96.4 0 0 1-88.3 78.2v64.4a160.7 160.7 0 0 0 154.2-156l22.6-4.6 20.9-40.2-197.7 40.2zm0-71.9v32.3l199.8-40.6 18.8-36.2z" fill="#009900"/>
</svg>