<?xml version="1.0" encoding="UTF-8" standalone="no"?><!-- Created with Inkscape (http://www.inkscape.org/) --><svg xmlns="http://www.w3.org/2000/svg" height="600" width="700" version="1.1" xmlns:xlink="http://www.w3.org/1999/xlink"> <g transform="translate(0,-10)">  <path id="p01" d="m209,250.16-193.88,89.938,98.625,87.438-36.094,20.844,25,43.312l36.1-20.85,26.41,129.1,174.84-122.91v-75l-40,28.125v13.875l-101.16,71.08-14.43-70.62,178.09-102.84-25-43.312-178.09,102.84-53.969-47.844,112.16-52.062,12,6.9375,44.375-20.562-64.969-37.5z" fill="#000"/>  <use xlink:href="#p01" transform="matrix(-0.5,0.8660254,-0.8660254,-0.5,802.12811,176.8911)" height="600" width="700" y="0" x="0"/>  <use xlink:href="#p01" transform="matrix(-0.5,-0.8660254,0.8660254,-0.5,247.87188,783.10888)" height="600" width="700" y="0" x="0"/> </g></svg>