<?xml version="1.0" encoding="UTF-8" standalone="no"?>
<!-- Created with Inkscape (http://www.inkscape.org/) -->

<svg
   xmlns:dc="http://purl.org/dc/elements/1.1/"
   xmlns:cc="http://creativecommons.org/ns#"
   xmlns:rdf="http://www.w3.org/1999/02/22-rdf-syntax-ns#"
   xmlns:svg="http://www.w3.org/2000/svg"
   xmlns="http://www.w3.org/2000/svg"
   xmlns:sodipodi="http://sodipodi.sourceforge.net/DTD/sodipodi-0.dtd"
   xmlns:inkscape="http://www.inkscape.org/namespaces/inkscape"
   width="500"
   height="372.16733"
   id="svg2"
   version="1.1"
   inkscape:version="0.48.4 r"
   sodipodi:docname="Symbol of Nishiwaga Iwate.svg">
  <defs
     id="defs4" />
  <sodipodi:namedview
     id="base"
     pagecolor="#ffffff"
     bordercolor="#666666"
     borderopacity="1.0"
     inkscape:pageopacity="0.0"
     inkscape:pageshadow="2"
     inkscape:zoom="0.85697674"
     inkscape:cx="105.33955"
     inkscape:cy="48.926767"
     inkscape:document-units="px"
     inkscape:current-layer="layer1"
     showgrid="false"
     inkscape:window-width="1280"
     inkscape:window-height="961"
     inkscape:window-x="-8"
     inkscape:window-y="-8"
     inkscape:window-maximized="1"
     fit-margin-top="0"
     fit-margin-left="0"
     fit-margin-right="0"
     fit-margin-bottom="0" />
  <metadata
     id="metadata7">
    <rdf:RDF>
      <cc:Work
         rdf:about="">
        <dc:format>image/svg+xml</dc:format>
        <dc:type
           rdf:resource="http://purl.org/dc/dcmitype/StillImage" />
        <dc:title></dc:title>
      </cc:Work>
    </rdf:RDF>
  </metadata>
  <g
     inkscape:label="レイヤー 1"
     inkscape:groupmode="layer"
     id="layer1"
     transform="translate(-26.838534,-386.72129)">
    <g
       id="g3859"
       transform="matrix(1.18451,0,0,1.18451,-4.9519788,-140.02256)">
      <path
         sodipodi:nodetypes="csccsc"
         inkscape:connector-curvature="0"
         id="path3803"
         d="m 230.745,758.88864 c 13.997,-73.6924 24.59271,-122.29899 35.31546,-145.27145 15.97759,-34.23048 58.46091,-64.24739 121.34795,-54.26722 L 448.954,444.71118 c -60.09901,-0.6036 -132.12833,14.0978 -173.5673,62.12861 -54.79808,63.51501 -45.27197,224.56444 -44.6417,252.04885 z"
         style="fill:#00b2e9;fill-opacity:1;stroke:none" />
      <path
         sodipodi:nodetypes="cscsc"
         inkscape:connector-curvature="0"
         id="path3835"
         d="M 26.838535,531.56118 C 44.159808,485.39135 82.54623,433.59435 134.19267,447.32826 198.62333,464.46177 216.08734,547.90543 215.29172,643.9497 194.54196,599.79817 174.06636,560.29321 146.36027,537.28108 111.38543,508.23167 67.20348,504.76989 26.838535,531.56118 z"
         style="fill:#8ac640;fill-opacity:1;stroke:none" />
      <path
         id="path3850"
         d="m 218.53125,571.25 c 0.24499,2.12652 0.47269,4.28055 0.6875,6.4375 3.69865,-0.16001 7.45097,-0.25 11.25,-0.25 1.6913,0 3.35942,0.0288 5.03125,0.0625 0.49691,-2.14947 0.99475,-4.286 1.53125,-6.40625 -2.17723,-0.0394 -4.36019,-0.0625 -6.5625,-0.0625 -4.0231,0 -7.99561,0.0846 -11.9375,0.21875 z"
         style="fill:#3f66b0;fill-opacity:1;stroke:none"
         inkscape:connector-curvature="0" />
      <path
         id="path3846"
         d="m 220.65625,595.71875 c 0.12939,2.11624 0.23865,4.26798 0.34375,6.40625 3.11458,-0.1258 6.26435,-0.1875 9.46875,-0.1875 0.0835,0 0.16654,-10e-5 0.25,0 0.35004,-2.14472 0.71172,-4.27323 1.09375,-6.40625 -0.44903,-0.002 -0.89335,0 -1.34375,0 -3.30679,0 -6.576,0.072 -9.8125,0.1875 z"
         style="fill:#3f66b0;fill-opacity:1;stroke:none"
         inkscape:connector-curvature="0" />
      <path
         id="path3826"
         d="m 189.0625,605.875 c -1.21772,-2.17855 -2.42054,-4.35069 -3.65625,-6.46875 -29.15369,5.24751 -52.20763,15.42055 -63.28125,28.0625 -0.30097,-1.3881 -0.46875,-2.79751 -0.46875,-4.21875 0,-16.87105 21.69922,-31.61263 53.96875,-39.5625 -1.65327,-2.48144 -3.33247,-4.89275 -5.03125,-7.25 -51.69051,9.75581 -87.75,31.73069 -87.75,57.3125 0,34.63957 66.10118,62.71875 147.625,62.71875 81.52382,0 147.59375,-28.07918 147.59375,-62.71875 0,-22.99994 -29.1542,-43.08372 -72.59375,-54 -3.24523,2.20258 -6.29298,4.55771 -9.15625,7.03125 26.10156,8.36983 42.96875,21.5936 42.96875,36.46875 0,1.43145 -0.16349,2.85219 -0.46875,4.25 -10.1009,-11.56297 -30.20457,-21.06567 -55.84375,-26.625 -1.61963,2.11297 -3.13709,4.24688 -4.53125,6.4375 23.47493,5.79629 38.96875,15.72269 38.96875,27 0,17.88369 -38.92545,32.40625 -86.9375,32.40625 -48.01205,0 -86.9375,-14.52256 -86.9375,-32.40625 0,-12.29625 18.42416,-22.96016 45.53125,-28.4375 z"
         style="fill:#3f66b0;fill-opacity:1;stroke:none"
         inkscape:connector-curvature="0" />
    </g>
  </g>
</svg>
