<?xml version="1.0" encoding="UTF-8"?><svg width="454" height="392" viewBox="23 54 454 392" xmlns="http://www.w3.org/2000/svg" version="1.1">
 <path xmlns="http://www.w3.org/2000/svg" d="m198 143.1 0 96.6 175.8-39.4 101.2-144.6zm-10.1-76.6a362.5 362.5 0 0 1-162.9 206.2 112.7 112.7 0 0 0 49.6 13 158.6 158.6 0 0 0 226.4 143.4 182.7 182.7 0 0 1-113.1-168.9zm10.1 183.4v10.3a172.6 172.6 0 0 0 0.3 10.3 44.9 44.9 0 1 1 14.1 58.7 172.6 172.6 0 0 0 100.5 93.6 158.6 158.6 0 0 0 60.3-211.7z" fill="#8f2821"/>
</svg>