<svg xmlns="http://www.w3.org/2000/svg" height="376" width="400" viewBox="-50 -57 100 94">
<path d="M-50-50H-3.811978L0-56.60254 3.811978-50H50l-1.243194 2.153275a6.60254 6.60254 0 0 1-5.717968 3.30127h-9.171687a.909091.909091 0 0 0 0 1.818182h11.933938l-1.243194 2.153275a6.60254 6.60254 0 0 1-5.717968 3.30127h-9.171687a.909091.909091 0 0 0 0 1.818182h11.933938l-1.243194 2.153275A6.60254 6.60254 0 0 1 34.641016-30H10v4H-10v-4H-34.641016a6.60254 6.60254 0 0 1-5.717968-3.30127l-1.243194 -2.153275h11.933938a.909091.909091 0 0 0 0-1.818182h-9.171687a6.60254 6.60254 0 0 1-5.717968-3.30127l-1.243194-2.153275h11.933938a.909091.909091 0 0 0 0-1.818182h-9.171687a6.60254 6.60254 0 0 1-5.717968-3.30127zM-4.966679 28H4.966679L0 36.60254z" fill="#1b5896"/>
<circle r="18.30127" fill="none" stroke="#1b5896" stroke-width="23.39746"/>
</svg>