<svg width="500" height="500" version="1.1" xmlns="http://www.w3.org/2000/svg">
 <rect x="0" y="0" width="500" height="500" fill="#000000"/>
 <path d="m379.1 65.7a225 225 0 0 0-258.1 0l20.2 28.9-69.9 18.7a225 225 0 0 0 0 273.4l69.9 18.7-20.2 28.9a225 225 0 0 0 258.1 0l-20.2-28.9 69.9-18.7a225 225 0 0 0 0-273.4l-69.9-18.7z" fill="#ffffff"/>
 <path d="m211.2 105.1a150 150 0 0 0-24.6 280.8l-10.5 28.8h58.5l5.5-15.1 9.9-27.2 9.9 27.2a150 150 0 0 0 0 0l5.5 15.1h58.5l-10.5-28.8a150 150 0 0 0-24.6-280.8l-18.9 52a95 95 0 0 1 24.6 176.8l-44.5-122.2-44.5 122.2a95 95 0 0 1 24.6-176.8z" fill="#3556ad"/>
</svg>
