<svg xmlns="http://www.w3.org/2000/svg" width="250" height="250" fill="#0a90cf"><path d="M99.439 118.439c-17.79-5.793-33.537-6.638-46.907-6.638-27.267 0-50.472 11.859-50.472 11.859 40.544 11.521 66.4 40.325 75.851 74.127 2.707-6.233 9.566-18.766 21.928-21.77 16.625-4.04 30.822 3.164 36.152 14.477h-.005c2.197 3.736 3.471 8.257 3.471 12.556 0 8.752-6.346 16.856-13.981 16.856s-13.673-8.104-13.673-16.856c0-10.72 9.477-19.575 9.477-19.575l-35.577 5.903s-8.234 15.691-.312 33.402c7.915 16.538 21.353 25.907 40.085 25.907 15.99 0 29.944-8.855 38.114-20.235 2.804-3.906 7.162-12.968 7.9-22.772 2.457-32.615-19.76-70.212-72.051-87.241zm81.965-6.673c-26.957 2.02-52.609 15.972-52.609 15.972s43.754 20.78 45.852 67.466c0 0 12.002-55.464 73.292-70.612 0 0-5.505-5.553-27.138-10.151-9.8-2.084-26.035-3.676-39.397-2.675zm-99.742-.807s27.81 4.079 43.171 14.682c0 0 19.584-10.811 41.606-14.889L125.474 1.313 81.662 110.959z"/></svg>