<svg xmlns="http://www.w3.org/2000/svg" height="500" width="484" >
<mask id="m">
<path d="m241.91 481.83-58.243-268.265L241.91 79.651l58.242 133.914Z" fill="#fff"/>
<path d="M159.496 125.526s71.16-85.356 82.414-98.86c11.25 13.504 88.076 105.657 88.076 105.657s41.852-37.49 50.25-45.01c25.452 19.608 46.662 44.593 61.481 72.77 16.601 31.582 25.025 65.748 25.025 101.56 0 122.018-100.863 221.284-224.832 221.284-123.975 0-224.837-99.266-224.837-221.283 0-35.823 8.428-70 25.04-101.586 14.814-28.162 36.023-53.147 61.465-72.745 8.293 7.425 50.25 45.01 50.25 45.01zM235.35 7.866l-83.303 99.93-47.379-42.435-5.682 3.96c-30.005 21.687-54.9 50.316-71.988 82.79C9.337 185.691 0 223.571 0 261.644 0 393.074 108.518 500 241.91 500s241.905-106.927 241.905-238.356c0-38.062-9.332-75.933-26.988-109.507-17.078-32.475-41.957-61.099-71.952-82.785l-5.582-4.032-5.176 4.554-42.344 37.92L241.91 0Z" fill="#fff"/>
<path fill="#000" d="M326.427 255.334c0 46.68-37.84 84.517-84.517 84.517-46.68 0-84.517-37.836-84.517-84.517 0-46.677 37.836-84.518 84.517-84.518 46.676 0 84.517 37.841 84.517 84.518"/>
<path fill="#000" d="M169.483 255.334c0-39.935 32.494-72.424 72.428-72.424 39.935 0 72.42 32.49 72.42 72.424 0 39.934-32.485 72.42-72.42 72.42-39.934 0-72.429-32.486-72.429-72.42m-24.18 0c0 53.267 43.337 96.61 96.61 96.61 53.267 0 96.605-43.343 96.605-96.61 0-53.268-43.338-96.606-96.606-96.606-53.272 0-96.61 43.338-96.61 96.606"/>
<path d="M165.928 255.334c0-41.893 34.086-75.979 75.983-75.979 41.887 0 75.978 34.086 75.978 75.98 0 41.896-34.09 75.977-75.978 75.977-41.897 0-75.983-34.08-75.983-75.978m-17.073 0c0 51.31 41.742 93.056 93.056 93.056 51.305 0 93.052-41.747 93.052-93.056 0-51.31-41.747-93.057-93.052-93.057-51.314 0-93.056 41.747-93.056 93.057" fill="#fff"/>
<path d="M292.777 255.334c0 28.097-22.77 50.873-50.868 50.873-28.092 0-50.873-22.776-50.873-50.873 0-28.098 22.781-50.868 50.873-50.868 28.097 0 50.868 22.77 50.868 50.868M152.265 260.5H141.93L60.117 136.49 91.98 274.28 62.698 400.875l80.953-127.453h9.473zm179.128 0h10.336l81.807-124.01-31.858 137.79 29.282 126.595-80.953-127.453h-9.478z" fill="#fff"/>
</mask>
<path d="M0 0h500v584H0z"  mask="url(#m)"/>
</svg>
