<?xml version="1.0" encoding="utf-8"?>
<!-- Generator: Adobe Illustrator 15.0.0, SVG Export Plug-In . SVG Version: 6.00 Build 0)  -->
<!DOCTYPE svg PUBLIC "-//W3C//DTD SVG 1.1//EN" "http://www.w3.org/Graphics/SVG/1.1/DTD/svg11.dtd">
<svg version="1.1" id="レイヤー_1" xmlns="http://www.w3.org/2000/svg" xmlns:xlink="http://www.w3.org/1999/xlink" x="0px"
	 y="0px" width="200px" height="200px" viewBox="200 100 200 200" enable-background="new 200 100 200 200" xml:space="preserve">
<path fill="#3B393A" d="M360.615,249.811c-14.202,17.083-35.607,27.991-59.688,27.991c-42.813,0-77.597-34.783-77.597-77.596
	c0-42.812,34.784-77.596,77.597-77.596c21.611,0,41.37,8.851,55.366,23.259h26.346c-17.495-26.552-47.546-44.047-81.508-44.047
	c-54.131,0-98.178,43.841-98.178,98.178c0,54.133,43.841,98.179,98.178,98.179c36.02,0,67.512-19.553,84.594-48.368H360.615z"/>
<polygon fill="#3B393A" points="380.786,175.713 388.813,155.748 350.529,155.748 352.383,151.22 322.126,151.22 320.273,155.748 
	314.099,155.748 305.865,175.919 311.835,175.919 277.461,258.043 307.719,258.043 342.091,175.919 347.442,175.919 
	341.269,190.327 391.077,190.327 397.047,175.713 "/>
<polygon fill="#3B393A" points="332.212,211.938 382.021,211.938 389.019,195.061 339.209,195.061 "/>
<path fill="#3B393A" d="M380.786,214.819l-12.144,29.021h-32.108l-6.792,14.408h-17.085l18.318-43.43H380.786z M363.702,226.552
	h-23.875l-2.059,2.676h23.875L363.702,226.552z"/>
</svg>
