<?xml version="1.0" encoding="UTF-8"?><svg width="452" height="485" viewBox="24 7 452 485" xmlns="http://www.w3.org/2000/svg" version="1.1">
 <path xmlns="http://www.w3.org/2000/svg" d="m250 8.5a35.4 35.4 0 0 1-30.4 35 225 225 0 0 0-155.8 349.2 133.3 133.3 0 0 0 85.3 0 161.7 161.7 0 0 1 37.2-274.9 255 255 0 0 0-13.7 21.2 143.5 143.5 0 0 1 40.5 31.3 204.4 204.4 0 0 1 54.2-64.7 161.7 161.7 0 0 1 14.2 2.2 194.1 194.1 0 0 0-61.3 71 143.5 143.5 0 0 1-146.6 227.2 225 225 0 0 0 59.6 52.6 194.1 194.1 0 0 0 146.6-104.8 143.5 143.5 0 0 1 146.6-227.2 225 225 0 0 0-145.5-83.2 35.4 35.4 0 0 1-30.9-35zm186.2 131.7a133.3 133.3 0 0 0-85.3 0 161.7 161.7 0 0 1-37.2 274.9 255 255 0 0 0 13.7-21.2 143.5 143.5 0 0 1-40.5-31.3 204.4 204.4 0 0 1-139.5 104.2 225 225 0 0 0 288.9-326.5z" fill="#19af50"/>
</svg>