<svg xmlns="http://www.w3.org/2000/svg" width="250" height="250" fill="#2865ae"><path d="M125.228 4.895L90.219 82.187s14.7-11.822 35.16-11.822c20.611 0 34.857 11.822 34.857 11.822L125.228 4.895zM90.865 169.239l34.362 75.866 34.194-75.495a55.21 55.21 0 0 1-34.043 11.691c-13.05.001-25.04-4.519-34.513-12.062zm78.282-9.352l76.186-34.507-77.292-35.009v.018a55.24 55.24 0 0 1 12.807 35.445 55.2 55.2 0 0 1-11.701 34.053zM81.96 89.993L4.667 125.001l76.901 34.831c-7.299-9.392-11.657-21.183-11.657-33.998 0-19.398 12.049-35.841 12.049-35.841zm43.722-12.656l-1.891.048c-5.466.32-31.953 3.486-26.771 33.751.37 2.157 3.543 11.098 10.248 17.236 5.247 4.801 12.609 7.145 19.324 6.963 11.661-.315 21.596-5.94 21.596-5.94s-13.367 28.294-42.738 17.505c-11.139-4.092-18.779-13.611-20.293-23.967-1.557-10.648 1.553-22.912 8.54-33.438-9.938 8.828-16.546 21.697-16.546 36.037 0 26.616 21.916 48.193 48.531 48.193s48.194-21.577 48.194-48.193-21.577-48.195-48.194-48.195z"/></svg>