<?xml version="1.0" encoding="UTF-8" standalone="no"?>
<!-- Created with Inkscape (http://www.inkscape.org/) -->

<svg
   xmlns:dc="http://purl.org/dc/elements/1.1/"
   xmlns:cc="http://creativecommons.org/ns#"
   xmlns:rdf="http://www.w3.org/1999/02/22-rdf-syntax-ns#"
   xmlns:svg="http://www.w3.org/2000/svg"
   xmlns="http://www.w3.org/2000/svg"
   xmlns:sodipodi="http://sodipodi.sourceforge.net/DTD/sodipodi-0.dtd"
   xmlns:inkscape="http://www.inkscape.org/namespaces/inkscape"
   width="249.99998"
   height="188.9297"
   id="svg2"
   version="1.1"
   inkscape:version="0.48.4 r"
   sodipodi:docname="Symbol of Hirono Iwate.svg">
  <defs
     id="defs4" />
  <sodipodi:namedview
     id="base"
     pagecolor="#ffffff"
     bordercolor="#666666"
     borderopacity="1.0"
     inkscape:pageopacity="0.0"
     inkscape:pageshadow="2"
     inkscape:zoom="3.1796971"
     inkscape:cx="115.57705"
     inkscape:cy="87.343735"
     inkscape:document-units="px"
     inkscape:current-layer="layer1"
     showgrid="false"
     inkscape:window-width="1280"
     inkscape:window-height="961"
     inkscape:window-x="-8"
     inkscape:window-y="-8"
     inkscape:window-maximized="1"
     fit-margin-top="0"
     fit-margin-left="0"
     fit-margin-right="0"
     fit-margin-bottom="0" />
  <metadata
     id="metadata7">
    <rdf:RDF>
      <cc:Work
         rdf:about="">
        <dc:format>image/svg+xml</dc:format>
        <dc:type
           rdf:resource="http://purl.org/dc/dcmitype/StillImage" />
        <dc:title></dc:title>
      </cc:Work>
    </rdf:RDF>
  </metadata>
  <g
     inkscape:label="レイヤー 1"
     inkscape:groupmode="layer"
     id="layer1"
     transform="translate(-120.94319,-170.84154)">
    <g
       id="g3846"
       transform="matrix(1.0815296,0,0,1.0815296,-9.8604549,-29.332022)">
      <path
         id="path3817"
         d="m 229.98899,185.08376 c -50.17234,3.34927 -89.81251,45.10422 -89.81251,96.125 0,32.41549 15.98898,61.09996 40.53126,78.5625 12.54734,-7.68987 26.80066,-12.85401 42.0625,-14.8125 -29.41581,-6.30569 -51.46875,-32.45251 -51.46875,-63.75 0,-33.81337 25.73391,-61.60722 58.6875,-64.875 l 0,-31.25 z"
         style="fill:#1e901c;fill-opacity:1;stroke:none"
         inkscape:connector-curvature="0" />
      <path
         id="path3813"
         d="m 250.23899,344.92751 c 15.27457,1.95518 29.50591,7.14822 42.0625,14.84375 24.55403,-17.46114 40.5625,-46.13785 40.5625,-78.5625 0,-51.02078 -39.67141,-92.77573 -89.84375,-96.125 l 0,31.25 c 32.95359,3.26778 58.6875,31.06163 58.6875,64.875 0,31.29696 -22.05986,57.4125 -51.46875,63.71875 z"
         style="fill:#0080e4;fill-opacity:1;stroke:none"
         inkscape:connector-curvature="0" />
      <path
         sodipodi:nodetypes="csccsc"
         inkscape:connector-curvature="0"
         id="path3819"
         d="m 175.54328,301.79814 c 29.54924,-22.11553 60.15202,-23.6642 83.24547,-17.12817 33.72619,9.54537 70.68925,-6.48256 93.30853,-23.61658 l 0,38.50925 c -20.3315,15.67238 -64.92198,21.44067 -88.06792,13.4282 -29.5413,-10.22637 -45.7215,-21.60964 -88.48608,-11.1927 z"
         style="fill:#0080e4;fill-opacity:1;stroke:none" />
      <path
         style="fill:#1e901c;fill-opacity:1;stroke:none"
         d="m 297.4972,259.94169 c -29.54924,22.11553 -60.15202,23.6642 -83.24547,17.12817 -33.72619,-9.54537 -70.68926,6.48256 -93.30854,23.61658 l 0,-38.50925 c 20.3315,-15.67238 64.92199,-21.44067 88.06793,-13.4282 29.5413,10.22637 45.7215,21.60964 88.48608,11.1927 z"
         id="path3821"
         inkscape:connector-curvature="0"
         sodipodi:nodetypes="csccsc" />
    </g>
  </g>
</svg>
