<svg xmlns="http://www.w3.org/2000/svg" width="200" height="200"><path fill="#00a751" d="M86.498 3.896C42.947 9.851 9.202 44.808 3.613 87.921c-4.908 37.88 13.257 73.448 44.76 94.307.154.088.348.069.482-.045.178-.15.199-.418.049-.596-16.153-17.322-1.564-35.949 15.473-43.563a.66.66 0 0 0 .262-.229c.182-.285.1-.657-.181-.831-33.558-21.4-40.313-65.779-12.332-95.066 21.659-22.666 58.655-26.241 84.433-9.301 39.09 25.697 38.018 79.676-1.006 104.367-.123.074-.216.188-.268.322-.133.344.042.734.39.874 17.24 6.88 31.694 26.403 15.569 43.509a.39.39 0 0 0-.036.477.36.36 0 0 0 .499.104c26.888-18.102 41.88-42.66 44.991-73.688 6.251-62.3-48.854-113.055-110.2-104.666h0zM121.467 136.8a1.19 1.19 0 0 1-.938-.951c-5.303-22.476-35.758-22.394-40.952-.148-.123.556-.562.992-1.128 1.128-12.481 2.815-27.926 11.666-30.633 24.759-2.68 12.959 8.715 23.74 19.66 28.525 17.621 7.695 35.846 8.957 54.672 3.779 41.086-11.313 39.497-47.302-.681-57.092h0zm8.133 31.693c0 .322-.264.585-.586.585H71.229c-.324 0-.584-.263-.584-.585v-7.342c0-.323.26-.584.584-.584h57.785c.322 0 .586.261.586.584v7.342z"/></svg>