<?xml version="1.0" encoding="UTF-8" standalone="no"?>
<svg
   width="500"
   height="497.39996"
   version="1.1"
   id="svg4"
   sodipodi:docname="Emblem_of_Tagajō,_Miyagi.svg"
   inkscape:version="1.2.1 (9c6d41e410, 2022-07-14)"
   xmlns:inkscape="http://www.inkscape.org/namespaces/inkscape"
   xmlns:sodipodi="http://sodipodi.sourceforge.net/DTD/sodipodi-0.dtd"
   xmlns="http://www.w3.org/2000/svg"
   xmlns:svg="http://www.w3.org/2000/svg">
  <defs
     id="defs8" />
  <sodipodi:namedview
     id="namedview6"
     pagecolor="#ffffff"
     bordercolor="#666666"
     borderopacity="1.0"
     inkscape:showpageshadow="2"
     inkscape:pageopacity="0.0"
     inkscape:pagecheckerboard="0"
     inkscape:deskcolor="#d1d1d1"
     showgrid="false"
     inkscape:zoom="0.4205"
     inkscape:cx="-313.91201"
     inkscape:cy="162.90131"
     inkscape:window-width="1920"
     inkscape:window-height="996"
     inkscape:window-x="1912"
     inkscape:window-y="-8"
     inkscape:window-maximized="1"
     inkscape:current-layer="svg4" />
  <path
     d="m 265.83495,223.69734 h -11.8901 L 312.50639,74.904348 A 55.561233,55.561233 0 0 0 209.1625,34.122405 L 114.81952,273.70245 H 180.4929 L 127.93197,407.16053 A 200.02044,200.02044 0 0 1 187.49361,58.791593 L 209.82923,2.0080127 A 250.02555,250.02555 0 0 0 153.15677,479.27901 l 81.00828,-205.57656 h 11.8901 l -58.56154,148.79298 a 55.561233,55.561233 0 0 0 103.3439,40.78194 L 385.18048,223.69734 H 319.5071 L 372.06803,90.239248 A 200.02044,200.02044 0 0 1 312.50639,438.60819 l -22.33562,56.78358 a 250.02555,250.02555 0 0 0 56.67246,-477.271 z m -65.67337,0 H 188.27147 L 255.72281,52.457612 a 5.561122,5.561122 0 0 1 10.33439,4.111532 z m 44.22674,221.24483 a 5.5611235,5.5611235 0 0 1 -10.33439,-4.11154 l 65.7845,-167.12818 h 11.8901 z"
     fill="#49804e"
     id="path2"
     style="stroke-width:1.11122" />
</svg>
