<?xml version="1.0" encoding="UTF-8" standalone="no"?>
<!-- Created with Inkscape (http://www.inkscape.org/) -->

<svg
   xmlns:dc="http://purl.org/dc/elements/1.1/"
   xmlns:cc="http://creativecommons.org/ns#"
   xmlns:rdf="http://www.w3.org/1999/02/22-rdf-syntax-ns#"
   xmlns:svg="http://www.w3.org/2000/svg"
   xmlns="http://www.w3.org/2000/svg"
   xmlns:sodipodi="http://sodipodi.sourceforge.net/DTD/sodipodi-0.dtd"
   xmlns:inkscape="http://www.inkscape.org/namespaces/inkscape"
   width="250"
   height="213.09872"
   id="svg2"
   version="1.1"
   inkscape:version="0.48.4 r"
   sodipodi:docname="Symbol of Kesennuma Miyagi.svg">
  <defs
     id="defs4" />
  <sodipodi:namedview
     id="base"
     pagecolor="#ffffff"
     bordercolor="#666666"
     borderopacity="1.0"
     inkscape:pageopacity="0.0"
     inkscape:pageshadow="2"
     inkscape:zoom="2.9479999"
     inkscape:cx="124.7175"
     inkscape:cy="106.21794"
     inkscape:document-units="px"
     inkscape:current-layer="layer1"
     showgrid="false"
     inkscape:window-width="1280"
     inkscape:window-height="961"
     inkscape:window-x="-8"
     inkscape:window-y="-8"
     inkscape:window-maximized="1"
     fit-margin-top="0"
     fit-margin-left="0"
     fit-margin-right="0"
     fit-margin-bottom="0" />
  <metadata
     id="metadata7">
    <rdf:RDF>
      <cc:Work
         rdf:about="">
        <dc:format>image/svg+xml</dc:format>
        <dc:type
           rdf:resource="http://purl.org/dc/dcmitype/StillImage" />
        <dc:title></dc:title>
      </cc:Work>
    </rdf:RDF>
  </metadata>
  <g
     inkscape:label="レイヤー 1"
     inkscape:groupmode="layer"
     id="layer1"
     transform="translate(-75.092877,-524.29695)">
    <g
       id="g3804"
       transform="matrix(1.6098134,0,0,1.6098134,-45.620681,-449.67369)">
      <path
         inkscape:connector-curvature="0"
         id="path3800"
         d="m 166.37831,662.74142 c 1.51476,-0.16085 3.07896,-0.27402 4.71875,-0.3125 13.74635,-0.32261 23.61192,6.40342 32.53125,12.8125 4.08132,-18.51987 -0.48021,-37.00648 -17.03125,-48.6875 -17.45456,-12.31869 -52.64617,-0.59896 -60.28125,21 16.18077,-19.81533 40.92973,-9.55262 40.25,12.21875 -0.0312,0.99832 -0.10594,1.97757 -0.1875,2.96875 z"
         style="fill:#218903;fill-opacity:1;stroke:none" />
      <path
         inkscape:connector-curvature="0"
         id="path3791"
         d="m 192.03456,701.33517 c -14.29755,-3.21007 -22.18914,-11.7259 -32.0625,-15.90625 -13.39479,27.15815 -45.08342,45.33413 -75.218753,34.125 19.689793,22.39577 49.850773,21.47217 74.968753,9.5 13.30985,-6.34397 24.42537,-16.28161 32.3125,-27.71875 z"
         style="fill:#218903;fill-opacity:1;stroke:none" />
      <path
         sodipodi:nodetypes="cssssscsssc"
         inkscape:connector-curvature="0"
         id="path3789"
         d="m 186.01794,615.21287 c -11.92089,-11.69215 -41.27606,-13.74614 -61.36679,-3.96302 -22.24657,10.83291 -45.302162,29.99362 -49.326281,58.64416 -2.46845,17.57464 8.755835,35.81271 26.988861,34.70149 22.56745,-1.37538 28.59712,-18.02512 46.8996,-17.65565 19.01952,0.38395 26.25251,19.36078 54.26051,19.54846 9.88047,0.0662 23.37502,-6.52972 26.80972,-16.39446 -19.6598,3.01579 -31.74192,-24.4195 -59.19778,-23.77515 -16.8919,0.39643 -26.71133,7.45588 -38.48711,17.66622 -23.63154,20.49005 -25.58347,-5.63598 -21.24111,-20.94107 10.37358,-36.56273 42.77968,-54.78857 74.66038,-47.83098 z"
         style="fill:#0172ea;fill-opacity:1;stroke:none" />
    </g>
  </g>
</svg>
