<?xml version="1.0" encoding="UTF-8"?><svg width="455" height="453" viewBox="22 23 455 453" xmlns="http://www.w3.org/2000/svg" version="1.1">
 <path xmlns="http://www.w3.org/2000/svg" d="m250 244.3a29.8 29.8 0 0 1 0 59.6 29.8 29.8 0 0 1 0-59.6zm0 91.5a61.6 61.6 0 0 0 0-123.2 61.6 61.6 0 0 0 0 123.2zm0-178.1s-0.1 19.5 18.8 30.9a87.7 87.7 0 1 1-37.7 0c19-11.3 18.8-30.9 18.8-30.9zm20.1-105.6a198.9 198.9 0 1 1-40.2 0c-1.6 1.3-2.7 3.2-2.7 5.4v8.8c0 3.2 2.2 5.9 5.3 6.7-76.7 6.1-93.3 53.3-93.3 95.6v178.3c-0.6 14.6-11.4 13.4-15.4 13.8v47.1h252.4v-47.5c-4 0-14.8 1.2-15.4-13.4v-178.3c0-42.3-16.6-89.5-93.3-95.6 3-0.7 5.2-3.5 5.2-6.7v-8.8c0-2.2-1-4.1-2.7-5.4zm-20.1-27.2a225 225 0 0 0 0 450 225 225 0 0 0 0-450z" fill="#231f20"/>
</svg>