<?xml version="1.0" encoding="UTF-8" standalone="no"?>
<!-- Created with Inkscape (http://www.inkscape.org/) -->

<svg
   xmlns:dc="http://purl.org/dc/elements/1.1/"
   xmlns:cc="http://creativecommons.org/ns#"
   xmlns:rdf="http://www.w3.org/1999/02/22-rdf-syntax-ns#"
   xmlns:svg="http://www.w3.org/2000/svg"
   xmlns="http://www.w3.org/2000/svg"
   xmlns:sodipodi="http://sodipodi.sourceforge.net/DTD/sodipodi-0.dtd"
   xmlns:inkscape="http://www.inkscape.org/namespaces/inkscape"
   width="250"
   height="252.65709"
   id="svg2"
   version="1.1"
   inkscape:version="0.48.4 r"
   sodipodi:docname="Symbol of Tome Miyagi.svg">
  <defs
     id="defs4" />
  <sodipodi:namedview
     id="base"
     pagecolor="#ffffff"
     bordercolor="#666666"
     borderopacity="1.0"
     inkscape:pageopacity="0.0"
     inkscape:pageshadow="2"
     inkscape:zoom="2.6811594"
     inkscape:cx="119.73359"
     inkscape:cy="99.905794"
     inkscape:document-units="px"
     inkscape:current-layer="layer1"
     showgrid="false"
     inkscape:window-width="1280"
     inkscape:window-height="961"
     inkscape:window-x="-8"
     inkscape:window-y="-8"
     inkscape:window-maximized="1"
     fit-margin-top="0"
     fit-margin-left="0"
     fit-margin-right="0"
     fit-margin-bottom="0" />
  <metadata
     id="metadata7">
    <rdf:RDF>
      <cc:Work
         rdf:about="">
        <dc:format>image/svg+xml</dc:format>
        <dc:type
           rdf:resource="http://purl.org/dc/dcmitype/StillImage" />
        <dc:title />
      </cc:Work>
    </rdf:RDF>
  </metadata>
  <g
     inkscape:label="レイヤー 1"
     inkscape:groupmode="layer"
     id="layer1"
     transform="translate(11.375685,-310.31562)">
    <g
       id="g3806"
       transform="matrix(1.8414555,0,0,1.8414555,9.5721324,-473.71645)">
      <path
         transform="matrix(2.0923096,0,0,2.1113307,-261.87604,-515.15764)"
         d="m 140.42433,455.97839 c 0,5.66465 -4.63386,10.25676 -10.35,10.25676 -5.71615,0 -10.35,-4.59211 -10.35,-10.25676 0,-5.66465 4.63385,-10.25675 10.35,-10.25675 5.71614,0 10.35,4.5921 10.35,10.25675 z"
         sodipodi:ry="10.256757"
         sodipodi:rx="10.35"
         sodipodi:cy="455.97839"
         sodipodi:cx="130.07433"
         id="path3764"
         style="fill:#ff8b00;fill-opacity:1;stroke:none"
         sodipodi:type="arc" />
      <path
         sodipodi:nodetypes="cccsc"
         inkscape:connector-curvature="0"
         id="path3766"
         d="m 55.959919,517.96486 c -27.82841,-6.76737 -1.366477,-25.95596 22.36441,-27.48646 l 46.062161,-64.71081 c -11.31829,5.46071 -101.413891,24.62487 -101.375571,69.74595 0.01,11.20221 4.04767,26.31539 32.949,22.45132 z"
         style="fill:#5bb426;fill-opacity:1;stroke:none" />
      <path
         sodipodi:nodetypes="ccscc"
         inkscape:connector-curvature="0"
         id="path3796"
         d="m 97.159459,501.66759 -25.66254,60.90827 c -31.2652,2.33049 -51.544193,-5.10611 -64.8613079,-19.72529 -16.0822661,-17.65469 -3.2152646,-59.57504 19.4724979,-69.9019 -23.76731,40.24909 13.66927,72.72547 71.05135,28.71892 z"
         style="fill:#1766b1;fill-opacity:1;stroke:none" />
    </g>
  </g>
</svg>
