<?xml version="1.0" encoding="UTF-8" standalone="no"?>
<!-- Created with Inkscape (http://www.inkscape.org/) -->

<svg
   xmlns:dc="http://purl.org/dc/elements/1.1/"
   xmlns:cc="http://creativecommons.org/ns#"
   xmlns:rdf="http://www.w3.org/1999/02/22-rdf-syntax-ns#"
   xmlns:svg="http://www.w3.org/2000/svg"
   xmlns="http://www.w3.org/2000/svg"
   xmlns:sodipodi="http://sodipodi.sourceforge.net/DTD/sodipodi-0.dtd"
   xmlns:inkscape="http://www.inkscape.org/namespaces/inkscape"
   width="250"
   height="250"
   id="svg2"
   version="1.1"
   inkscape:version="0.48.4 r"
   sodipodi:docname="Symbol of Tomiya Miyagi.svg">
  <defs
     id="defs4" />
  <sodipodi:namedview
     id="base"
     pagecolor="#ffffff"
     bordercolor="#666666"
     borderopacity="1.0"
     inkscape:pageopacity="0.0"
     inkscape:pageshadow="2"
     inkscape:zoom="1.6566334"
     inkscape:cx="50.451118"
     inkscape:cy="-12.969541"
     inkscape:document-units="px"
     inkscape:current-layer="layer1"
     showgrid="false"
     inkscape:window-width="1280"
     inkscape:window-height="961"
     inkscape:window-x="-8"
     inkscape:window-y="-8"
     inkscape:window-maximized="1"
     fit-margin-top="0"
     fit-margin-left="0"
     fit-margin-right="0"
     fit-margin-bottom="0" />
  <metadata
     id="metadata7">
    <rdf:RDF>
      <cc:Work
         rdf:about="">
        <dc:format>image/svg+xml</dc:format>
        <dc:type
           rdf:resource="http://purl.org/dc/dcmitype/StillImage" />
        <dc:title></dc:title>
      </cc:Work>
    </rdf:RDF>
  </metadata>
  <g
     inkscape:label="レイヤー 1"
     inkscape:groupmode="layer"
     id="layer1"
     transform="translate(-197.97275,-150.33382)">
    <g
       id="g3854"
       transform="matrix(1.1883541,0,0,1.1883541,-37.288987,-75.40453)">
      <path
         id="path3830"
         d="m 362.47276,208.27133 -1.375,5.09375 c 25.58993,18.15501 42.28125,48.01693 42.28125,81.78125 0,23.17908 -7.88009,44.52352 -21.09375,61.5 l 3.8125,3.25 c 13.94834,-17.84758 22.25,-40.34288 22.25,-64.75 0,-36.0928 -18.17521,-67.92895 -45.875,-86.875 z"
         style="fill:#000000;fill-opacity:1;stroke:none"
         inkscape:connector-curvature="0" />
      <path
         id="path3826"
         d="m 379.53526,367.49008 -7,0 c -18.00329,17.27015 -42.45754,27.875 -69.375,27.875 -26.91746,0 -51.34046,-10.60485 -69.34375,-27.875 l -7,0 c 19.17142,20.23506 46.2687,32.84375 76.34375,32.84375 30.07505,0 57.20358,-12.60869 76.375,-32.84375 z"
         style="fill:#000000;fill-opacity:1;stroke:none"
         inkscape:connector-curvature="0" />
      <path
         id="path3820"
         d="m 222.19151,354.17758 c -12.0851,-16.55478 -19.21875,-36.96516 -19.21875,-59.03125 0,-20.62171 6.22687,-39.7546 16.90625,-55.6875 l -2.09375,-5.71875 c -12.4556,17.284 -19.8125,38.47473 -19.8125,61.40625 0,23.60129 7.78112,45.38713 20.90625,62.9375 l 3.3125,-3.90625 z"
         style="fill:#000000;fill-opacity:1;stroke:none"
         inkscape:connector-curvature="0" />
      <path
         id="path3791"
         d="m 224.03526,225.86508 3.875,3.15625 c 18.36427,-20.88408 45.25435,-34.0625 75.25,-34.0625 16.3902,0 31.87242,3.92936 45.53125,10.90625 l 3.3125,-3.875 c -14.59298,-7.66238 -31.21756,-12.03125 -48.84375,-12.03125 -31.54981,0 -59.84462,13.90828 -79.125,35.90625 z"
         style="fill:#000000;fill-opacity:1;stroke:none"
         inkscape:connector-curvature="0" />
      <path
         sodipodi:nodetypes="cccccccc"
         inkscape:connector-curvature="0"
         id="path3789"
         d="m 217.88957,224.07317 70.1981,57.48983 75.94708,-88.65536 -32.981,123.14925 56.27951,48.30787 -169.53,0 35.79051,-42.2563 z"
         style="fill:#000000;fill-opacity:1;stroke:none" />
    </g>
  </g>
</svg>
