<svg xmlns="http://www.w3.org/2000/svg" height="300" width="300">
<path fill="#00a041" d="M63.933 256.056c32.671 11.424 75.636 14.3 118.65-18.06 24.322-18.3 39.674-37.586 49.384-55.122.342-.62.667-1.222.998-1.853v.03c6.33-11.833 10.095-22.764 12.32-31.992.83-3.526 1.5-6.925 2.004-10.143l-.036.048c.108-.74.625-4.512.752-5.763-19.467 71.24-140.217 103.286-187.49 19.816C13.207 69.565 83.887 17.673 83.887 17.673 33.372 40.96 11.582 95.006 11.582 95.006c-24.4 51.207-8.77 118.085 33.021 150.745 0 0 8.862 6.852 19.33 10.305m228.09-154.35c-6.527-18.089-21.055-55.904-72.22-84.035 0 0 37.816 39.771 39.482 96.862.463 8.494.157 21.247-3.417 36.425-5.04 21.327-17.59 51.19-48.415 80.204-7.454 7.31-15.052 13.421-22.68 18.558-49.72 34.94-98.804 27.006-131.615 13.88-.204-.073-.409-.175-.643-.254l.138.18.3.187a2.322 2.322 0 0 1-.3-.186s71.72 68.72 171.06 17.506c99.334-51.225 75.072-160.515 68.31-179.326M149.97 183.904s54.251-19.587 54.251-91.952C204.22 22.198 149.97 0 149.97 0S95.7 22.198 95.7 91.952c0 72.365 54.27 91.952 54.27 91.952"/>
</svg>