<?xml version="1.0" encoding="UTF-8" standalone="no"?>
<!-- Created with Inkscape (http://www.inkscape.org/) -->

<svg
   xmlns:dc="http://purl.org/dc/elements/1.1/"
   xmlns:cc="http://creativecommons.org/ns#"
   xmlns:rdf="http://www.w3.org/1999/02/22-rdf-syntax-ns#"
   xmlns:svg="http://www.w3.org/2000/svg"
   xmlns="http://www.w3.org/2000/svg"
   xmlns:sodipodi="http://sodipodi.sourceforge.net/DTD/sodipodi-0.dtd"
   xmlns:inkscape="http://www.inkscape.org/namespaces/inkscape"
   width="428"
   height="428"
   viewBox="0 0 113.24167 113.24167"
   version="1.1"
   id="svg8"
   inkscape:version="0.92.4 (5da689c313, 2019-01-14)"
   sodipodi:docname="Emblem_of_Osaki,_Miyagi.svg">
  <defs
     id="defs2" />
  <sodipodi:namedview
     id="base"
     pagecolor="#ffffff"
     bordercolor="#666666"
     borderopacity="1.0"
     inkscape:pageopacity="0.0"
     inkscape:pageshadow="2"
     inkscape:zoom="0.5"
     inkscape:cx="145.5248"
     inkscape:cy="-52.168062"
     inkscape:document-units="mm"
     inkscape:current-layer="layer1"
     showgrid="false"
     fit-margin-top="0"
     fit-margin-left="0"
     fit-margin-right="0"
     fit-margin-bottom="0"
     units="px"
     inkscape:window-width="1920"
     inkscape:window-height="996"
     inkscape:window-x="1912"
     inkscape:window-y="-8"
     inkscape:window-maximized="1" />
  <metadata
     id="metadata5">
    <rdf:RDF>
      <cc:Work
         rdf:about="">
        <dc:format>image/svg+xml</dc:format>
        <dc:type
           rdf:resource="http://purl.org/dc/dcmitype/StillImage" />
        <dc:title></dc:title>
      </cc:Work>
    </rdf:RDF>
  </metadata>
  <g
     inkscape:label="レイヤー 1"
     inkscape:groupmode="layer"
     id="layer1"
     transform="translate(-83.230358,-21.174254)">
    <g
       id="g834"
       transform="translate(-6.6666666e-7,-0.00251067)">
      <path
         style="fill:#30795e;stroke:none;stroke-width:0.53816819"
         id="path2384"
         d="m 196.47202,77.797598 a 56.620833,56.597048 0 1 1 -113.241656,0 56.620833,56.597048 0 1 1 113.241656,0 z"
         inkscape:connector-curvature="0" />
      <path
         style="fill:#fff8d1;stroke:none;stroke-width:0.26452777"
         id="path2388"
         d="m 152.93979,30.556255 c -5.11175,0 -9.26041,4.146927 -9.26041,9.256527 0,5.109602 4.14866,9.256523 9.26041,9.256526 5.11175,0 9.26042,-4.146921 9.26042,-9.256526 0,-5.109603 -4.14867,-9.256527 -9.26042,-9.256527 z m -18.9177,9.686295 c -20.68697,-3e-6 -32.00632,16.39737 -32.00632,31.711867 1e-5,8.434116 2.11667,12.719464 2.11667,12.719464 1.53205,-19.033247 15.78551,-38.003782 37.56257,-43.910653 0,2e-6 -4.15573,-0.520678 -7.67292,-0.520678 z m 21.69583,11.364038 c -9.30176,0 -15.875,2.91746 -15.875,2.91746 0,0 -6.62602,-2.909195 -15.60215,-2.909195 -8.098,6.453802 -11.91451,13.752554 -11.91451,13.752554 0,-2e-6 2.65555,-0.264472 3.96875,-0.264472 3.0641,0 6.62285,0.925653 6.62285,0.925653 0,0 -11.72435,9.945765 -11.72435,31.075479 0,22.972213 16.06106,30.149833 28.65768,30.149833 12.96091,0 28.65768,-7.48338 28.65768,-30.149833 0,-21.11187 -11.72435,-31.075479 -11.72435,-31.075479 0,0 2.24166,-0.832797 6.83783,-0.942182 20.5733,1.093864 27.02057,17.992373 27.02057,17.992373 1e-5,-2e-6 1.52192,-31.472191 -34.925,-31.472191 z m -51.59375,4.239821 c 0,0 -15.072977,7.928966 -15.072977,27.240635 3e-6,0 3.397515,-8.583677 11.112497,-12.959138 0,-7.896372 3.96048,-14.281497 3.96048,-14.281497 z m 35.72702,19.306469 c 0,0 8.73125,7.993984 8.73125,18.777523 0,10.125879 -4.51041,12.694669 -8.73125,12.694669 -4.43424,0 -8.73125,-3.47265 -8.73125,-12.694669 0,-10.572923 8.73125,-18.777523 8.73125,-18.777523 z"
         inkscape:connector-curvature="0" />
    </g>
  </g>
</svg>
