<svg xmlns="http://www.w3.org/2000/svg" height="272" width="263">
<path d="M134.3 71.154c-.25.05-8.83 1.388-9.093 1.437-1.5.302-9.625 1.95-10.544 2.144-2.025.544-16.83 4.82-18.463 5.444-4.386 1.688-8.874 3.15-13.18 4.938-17.544 7.27-33.306 17.106-48.52 28.837-14.886 11.48-29.193 26.332-33.793 44.25-.687 2.669-.707 5.513-.707 8.55 0 11.97 7.095 21.288 16.614 27.3 12.206 7.713 27.23 10.756 42.612 11.952 1.562.116 7 .335 8.669.405l21.26-4.54-2.492-15.99c-.968-.427-3.624-1.59-4.45-1.988-13.111-6.44-15.974-21.276-12.462-35.326 1.519-6.076 4.57-11.55 7.75-16.8 12.15-20.08 34.238-37.374 53.713-49.15 5.38-3.275 10.893-6.338 16.468-9.244 2.212-1.124 4.42-2.256 6.625-3.382.037-.042.087-.086.125-.124-1.762-.05-3.544-.094-5.325-.138-.344.088-14.281 1.388-14.807 1.425m104.676 2.9c-9.364-2.625-19.256-3.287-30.118-3.287-1.256.094-2.514.175-3.763.263-.483.043-4.456.343-5.063.387-.4.05-8.537 1-8.837 1.037-.263.05-5.244.75-6.537 1.007-3.251.432-7.526 1.988-10.612 2.762-5.383 1.344-10.34 3.494-15.24 5.768-13.08 6.026-25.9 14.314-34.518 25.044-.093.182-.706 1.063-.706 1.063s1.013-.181 1.369-.275c1.3-.27 1.556-.318 2.85-.58 3.987-.626 7.969-1.264 11.962-1.89 15.75-1.523 32.412-.804 44.519 6.645 6.169 3.793 11.569 10.5 12.388 17.87 2.28 20.5-22.512 37.723-37.726 45.525-4.137 2.117-13.337 5.636-15.162 6.336l-3.447 7.854 4.303 5.784c1.894-.6 4.5-1.393 6.294-1.956a6410.61 6410.61 0 0 0 12.062-4.226c1.913-.804 3.833-1.606 5.738-2.4 22.738-8.418 43.675-20.686 62.907-36.08 4.08-3.263 7.83-7.107 11.543-10.938 2.813-2.894 5.582-5.8 7.75-9 3.644-5.413 7.226-10.8 9.419-16.913 7.137-19.893-2.693-34.556-21.375-39.8" fill="#0e5ca7"/>
<path d="M144.638 195.368a223.653 223.653 0 0 0-.856-13.64c-1.02-10.586-2.85-20.88-5.55-30.46-.574-2.17-4.762-15.49-5.35-17.67-.944-2.963-5.35-12.83-5.35-12.83s-1.413-2.57-2.1-3.214c0 17.932-2.956 34.675-6.693 50.795-.607 2.393-4.332 15.876-4.95 17.918-1.082 3.563-2.27 7.02-3.426 10.52-2.537 7.723-5.856 15.08-9.012 22.5-2.193 5.143-4.612 10.355-7.3 15.25-2.188 3.956-4.381 7.893-6.575 11.844-1.593 2.656-4.638 8.125-4.638 8.125l50.7 17.43s1.169-4.106 1.55-5.4c.926-3.206 1.882-6.311 2.763-9.593 5.056-18.844 7.444-40.437 6.787-61.576M169.55 23.279c2.4 15.668-12.118 30.888-32.431 34.012-20.3 3.102-38.712-7.062-41.12-22.718C93.596 18.905 108.108 3.679 128.427.56c20.306-3.114 38.713 7.056 41.124 22.718" fill="#fe0009"/>
<path d="M114.27 141.142c-2.826 5.125-5.112 10.644-8.226 15.644-6.068 9.77-12.05 19.856-19.381 29.095a112.907 112.907 0 0 1-6.044 7.05c-2.7 2.86-8.4 9.33-8.543 9.48a135.326 135.326 0 0 1-4.181 4c-8.05 7.394-17.232 14.063-26.407 18.93-2.77 1.4-5.537 2.79-8.306 4.176-2.512.957-7.524 3.118-7.524 3.118l43.33 17.932s6.956-9.925 8.032-11.538c9.33-13.992 17.406-28.47 24.88-43.424 4.363-8.732 8.67-17.702 11.858-27.044 2.093-6.168 3.986-12.275 5.886-18.57 2.282-7.66 4.458-21.374 4.595-23.037.13-1.668.405-9.424.405-9.424s-6.581 16.68-10.374 23.612m132.962 66.413c-.468.05-8.012.482-8.7.524-16.244 0-30.874-2.206-45.081-5.944-3.544-1.005-7.093-2.018-10.65-3.018-4.474-1.55-9.006-2.912-13.331-4.75-3.14-1.237-6.263-2.474-9.394-3.688 1.23 4.63 3.282 9 5.35 13.232 8.318 17.082 22.006 31.33 39.356 39.336 2.294 1.063 9.876 3.883 9.876 3.883l44.856-41.25s-11.644 1.387-12.282 1.675" fill="#41a83b"/>
</svg>