<?xml version="1.0" encoding="UTF-8" standalone="no"?>
<!-- Created with Inkscape (http://www.inkscape.org/) -->

<svg
   xmlns:dc="http://purl.org/dc/elements/1.1/"
   xmlns:cc="http://creativecommons.org/ns#"
   xmlns:rdf="http://www.w3.org/1999/02/22-rdf-syntax-ns#"
   xmlns:svg="http://www.w3.org/2000/svg"
   xmlns="http://www.w3.org/2000/svg"
   xmlns:sodipodi="http://sodipodi.sourceforge.net/DTD/sodipodi-0.dtd"
   xmlns:inkscape="http://www.inkscape.org/namespaces/inkscape"
   version="1.1"
   id="svg2"
   width="651"
   height="436"
   viewBox="0 0 651 436"
   sodipodi:docname="Emblem of Shichikashuku, Miyagi.svg"
   inkscape:version="0.92.3 (2405546, 2018-03-11)">
  <metadata
     id="metadata8">
    <rdf:RDF>
      <cc:Work
         rdf:about="">
        <dc:format>image/svg+xml</dc:format>
        <dc:type
           rdf:resource="http://purl.org/dc/dcmitype/StillImage" />
        <dc:title></dc:title>
      </cc:Work>
    </rdf:RDF>
  </metadata>
  <defs
     id="defs6" />
  <sodipodi:namedview
     pagecolor="#ffffff"
     bordercolor="#666666"
     borderopacity="1"
     objecttolerance="10"
     gridtolerance="10"
     guidetolerance="10"
     inkscape:pageopacity="0"
     inkscape:pageshadow="2"
     inkscape:window-width="1920"
     inkscape:window-height="1017"
     id="namedview4"
     showgrid="false"
     inkscape:zoom="1.2339068"
     inkscape:cx="376.28396"
     inkscape:cy="354.3833"
     inkscape:window-x="-8"
     inkscape:window-y="-8"
     inkscape:window-maximized="1"
     inkscape:current-layer="svg2" />
  <path
     sodipodi:nodetypes="sssscssssccsssssssssssssssssscsssssssssss"
     id="path677-9"
     d="m 289.24377,414.01595 c -4.00272,-6.78725 -7.03235,-9.0015 -12.31633,-9.0015 -8.71781,0 -39.18545,-10.24084 -57.28331,-19.25419 -8.49698,-4.23178 -19.88049,-13.5873 -30.31538,-24.91463 0,0 -9.31526,-14.45968 -19.88484,-18.77375 -10.98869,-2.976 -67.41461,-3.54749 -67.74783,7.23585 -0.40452,13.0913 -6.429021,12.42171 -35.431544,-2.40908 C 51.117139,339.15283 37.27983,329.28078 29.119828,321.22302 22.354188,314.54217 20.544085,309.63516 15.60282,303.45747 3.0262764,287.73413 4.1310184,280.25402 42.230513,262.62996 66.603382,250.64548 125.77361,254.02087 146.52175,233.7118 c 11.28816,-11.89827 3.50739,-27.13017 11.39885,-47.87417 9.94879,-26.15217 22.32886,-56.89634 9.51227,-83.41185 -5.65541,-11.700206 -14.09333,-27.905 -14.09333,-29.021124 0,-2.527645 21.92852,-16.430108 37.27454,-16.66438 14.79974,-0.225934 32.89723,6.194219 41.68552,14.454244 17.39052,16.34518 24.37012,38.76237 24.82059,79.71929 0.38526,35.02454 1.62732,37.55018 16.16092,32.86179 7.4438,-2.40131 21.27436,-14.68083 56.14845,-49.85165 C 354.87905,108.2579 382.01807,79.873712 389.7385,70.847953 405.12518,52.85972 428.52267,36.456629 458.67606,22.518395 475.5892,14.70039 482.2888,10.901453 517.61637,11.344 c 6.67714,0.08365 16.54662,-4.6052686 24.40749,-5.1567349 32.2899,-2.2652351 88.45872,9.3926449 99.59571,19.6146329 6.0031,5.509874 -6.38612,15.523797 -23.25011,19.12891 -14.89322,3.183794 -36.60781,8.971913 -56.7358,26.082184 -11.46364,9.744977 -37.09538,36.101148 -64.77048,78.419278 -43.62858,66.71276 -86.01116,98.2603 -158.96749,123.04448 -20.02784,6.80371 -28.35259,4.86748 -24.20891,21.78296 1.92066,7.84052 22.01012,12.9489 39.20912,12.93824 18.97652,-0.0129 82.21615,-18.30371 118.88337,-35.00208 10.42701,-4.74849 22.43461,-8.6336 26.68357,-8.6336 7.66174,0 7.71436,0.0974 6.39072,11.8464 -3.35723,29.79886 -47.13285,86.61765 -64.78983,92.41985 -7.56179,2.48487 -15.76182,7.16295 -19.29647,11.05115 -10.35254,11.38804 -23.40682,23.34483 -38.80333,22.04652 -5.65319,-0.47669 -11.00832,3.92201 -14.98331,6.86221 -4.49265,3.32313 -13.80795,6.16235 -24.61957,7.50377 -9.56579,1.18688 -14.63522,0.15421 -20.1747,4.94164 -1.6377,1.41538 -8.374,2.78365 -15.20821,2.78365 -11.47604,0 -12.83162,-0.68804 -17.73437,-9.00151 z"
     style="fill:#006f30;fill-opacity:1;stroke-width:2.57125187"
     inkscape:connector-curvature="0" />
</svg>
