<?xml version="1.0" encoding="UTF-8" standalone="no"?>
<!-- Created with Inkscape (http://www.inkscape.org/) -->

<svg
   xmlns:dc="http://purl.org/dc/elements/1.1/"
   xmlns:cc="http://creativecommons.org/ns#"
   xmlns:rdf="http://www.w3.org/1999/02/22-rdf-syntax-ns#"
   xmlns:svg="http://www.w3.org/2000/svg"
   xmlns="http://www.w3.org/2000/svg"
   xmlns:sodipodi="http://sodipodi.sourceforge.net/DTD/sodipodi-0.dtd"
   xmlns:inkscape="http://www.inkscape.org/namespaces/inkscape"
   version="1.1"
   id="svg2"
   width="1000"
   height="829"
   viewBox="0 0 1000 829"
   sodipodi:docname="Emblem of Zao, Miyagi.svg"
   inkscape:version="0.92.3 (2405546, 2018-03-11)">
  <metadata
     id="metadata8">
    <rdf:RDF>
      <cc:Work
         rdf:about="">
        <dc:format>image/svg+xml</dc:format>
        <dc:type
           rdf:resource="http://purl.org/dc/dcmitype/StillImage" />
        <dc:title></dc:title>
      </cc:Work>
    </rdf:RDF>
  </metadata>
  <defs
     id="defs6" />
  <sodipodi:namedview
     pagecolor="#ffffff"
     bordercolor="#666666"
     borderopacity="1"
     objecttolerance="10"
     gridtolerance="10"
     guidetolerance="10"
     inkscape:pageopacity="0"
     inkscape:pageshadow="2"
     inkscape:window-width="1920"
     inkscape:window-height="1017"
     id="namedview4"
     showgrid="false"
     inkscape:zoom="0.568"
     inkscape:cx="500"
     inkscape:cy="414.5"
     inkscape:window-x="-8"
     inkscape:window-y="-8"
     inkscape:window-maximized="1"
     inkscape:current-layer="svg2" />
  <path
     d="m 500.83504,652.20211 c -85.05949,0 -154.09994,-69.4938 -154.09994,-155.22199 0,-60.51994 34.51918,-112.8387 84.48904,-138.42278 L 235.55397,345.38631 c -25.17789,44.67399 -39.67012,96.41744 -39.67012,151.59592 0,169.73881 136.55408,307.39103 304.95329,307.39103 127.58189,0 236.67414,-78.85187 282.25438,-190.73518 L 585.13531,626.8133 c -24.22571,16.03492 -53.21644,25.38881 -84.30027,25.38881 z M 964.84203,116.65182 601.33682,156.36646 483.67088,22.336122 380.49297,156.36646 4.4082511,122.37963 4.5991038,123.90817 91.37417,319.98911 468.2244,345.19105 v 0 c 0,0 126.82477,-1.14642 171.44865,84.58388 9.7293,20.42947 15.25563,43.14964 15.25563,67.2094 0,44.48711 -18.68469,84.39071 -48.24588,112.64553 l 182.50972,-12.21989 c 10.67936,-31.49875 16.78036,-65.30292 16.78036,-100.42564 0,-14.51269 -1.13882,-28.64116 -3.04735,-42.57855 l 42.71955,-3.81715 7.82076,-0.75796 22.12214,-51.55449 v -0.5711 l -8.77293,0.95323 -74.75974,6.68105 c -1.90643,-6.29892 -4.00371,-12.40887 -6.29185,-18.51881 l 98.60165,-8.78277 22.12213,-51.55031 v -0.57319 l -8.77712,0.95744 -135.02306,12.21778 c -4.20086,-7.06528 -8.77503,-13.93739 -13.54425,-20.81161 l 138.8401,-12.40885 28.4098,-2.48387 80.87121,-188.06872 v -1.52643 z"
     id="path1-7"
     inkscape:connector-curvature="0"
     style="fill:#362275;stroke-width:2.09845948" />
</svg>
