<svg xmlns="http://www.w3.org/2000/svg" width="533.375" height="465.125" fill="#18644b" xmlns:v="https://vecta.io/nano"><path d="M445.843 284.979l-34.697 12.976c-15.229 54.729-63.64 96.185-121.433 102.857l-5.548 31.938c82.169-5.106 150.009-67.551 161.678-147.771zm-307.1 16.311l-35.18-13.153c12.168 74.021 72.146 132.352 146.603 143.196l-5.713-32.887c-49.976-11.1-90.918-48.675-105.71-97.156zm355.59-104.457l36-70.667-215.785 87.581 16.037-84.243c22.644 9.768 42.241 25.257 56.96 44.656l30.259-11.578c-19.719-29.009-48.019-51.708-81.242-64.476L354.667 3l-82.209 52.063-.47 31.605c-3.685.051-7.339.206-10.963.484l-.567-31.902L179 3l38.679 206.034-63.086-25.125c10.408-16.396 24.833-31.118 40.865-42.035l-6.87-32.669c-25.938 15.009-48.367 37.159-63.549 62.984L3 124.5l37.333 71 184.333 67.667 1.682 12.026L45.666 206.5l29.333 60.667 166.833 65.479L267.331 462.5l24.753-127.75 164.998-64L489 208.5l-180.857 69.334.282-10.986 185.908-70.015zM263.52 227.5l-1.937-108.943c3.282-.295 6.597-.473 9.939-.541L269.895 227.5h-6.375z"/></svg>