<?xml version="1.0" encoding="UTF-8" standalone="no"?>
<!-- Created with Inkscape (http://www.inkscape.org/) -->
<svg xmlns="http://www.w3.org/2000/svg" height="275" width="360" version="1.1">
 <path d="m6.7949219 6.5761719 52.6738281 91.2324221 38.414062 12.482426-56.814453 67.70898h39.53711c5.131599 51.05896 48.078381 89.94651 99.394531 90 51.35578-0.00037 94.36246-38.90164 99.49805-90h39.43359l-53.34961-63.57812-77.64453 25.22851c7.31943 3.16481 12.05937 10.37527 12.0625 18.34961 0 11.04569-8.95431 20-20 20s-20-8.95431-20-20c0.0112-8.65828 5.59241-16.32616 13.82812-18.99805l126.70508-41.195309 52.67188-91.2304691-139.95703 45.4746091-33.24805-39.623047-33.24805 39.623047z" fill="#0091d4"/>
</svg>
