<svg xmlns="http://www.w3.org/2000/svg" width="200" height="180"><path fill="#facd55" d="M81.288 4.518h-1.444l.122.064c-43.415 2.559-77.85 38.06-77.85 81.606 0 27.402 13.669 51.587 34.58 66.445l-17.114 22.325 49.656.209L86.69 148.11l15.448 27.191 48.167.206-16.728-23.155c20.69-14.888 34.193-38.936 34.193-66.165 0-11.852-2.625-23.065-7.228-33.214h-54.277c10.885 6.936 18.109 18.996 18.109 32.747 0 12.935-6.396 24.363-16.21 31.453l-21.478-29.73-23.569 30.732c-10.612-6.983-17.612-18.91-17.612-32.455 0-20.625 16.228-37.46 36.744-38.838l76.839-.064v-3.747c1.093-4.959 4.289-14.822 13.234-23.11 12.507-11.581 25.56-12.318 25.56-12.318V4.518c.002 0-115.373-.056-116.594 0h0 0z"/></svg>