<?xml version="1.0" encoding="UTF-8" standalone="no"?>
<!-- Created with Inkscape (http://www.inkscape.org/) -->

<svg
   xmlns:dc="http://purl.org/dc/elements/1.1/"
   xmlns:cc="http://creativecommons.org/ns#"
   xmlns:rdf="http://www.w3.org/1999/02/22-rdf-syntax-ns#"
   xmlns:svg="http://www.w3.org/2000/svg"
   xmlns="http://www.w3.org/2000/svg"
   version="1.1"
   width="500"
   height="500"
   id="svg2">
  <defs
     id="defs4" />
  <metadata
     id="metadata7">
    <rdf:RDF>
      <cc:Work
         rdf:about="">
        <dc:format>image/svg+xml</dc:format>
        <dc:type
           rdf:resource="http://purl.org/dc/dcmitype/StillImage" />
        <dc:title></dc:title>
      </cc:Work>
    </rdf:RDF>
  </metadata>
  <g
     transform="translate(0,-552.36218)"
     id="layer1">
    <path
       d="m 246.21492,1043.2714 c -5.18973,-3.4974 -5.68645,-9.3787 -1.14372,-13.5418 2.99346,-2.7433 3.3623,-2.8117 20.70173,-3.8421 19.86651,-1.1806 34.66665,-3.7924 46.21497,-8.1558 7.31948,-2.7655 7.11061,-1.8131 7.11382,-32.43724 0.003,-25.68096 -0.027,-26.21089 -1.54466,-27.58529 -1.46122,-1.32327 -3.42713,-1.42181 -35.29601,-1.76913 l -33.74861,-0.3678 -2.40387,-2.40487 c -2.0809,-2.08176 -2.40388,-2.90474 -2.40388,-6.12529 0,-3.35672 0.26861,-3.96658 2.74773,-6.23852 l 2.74773,-2.5181 41.94043,0 c 39.69923,0 42.01256,0.0721 43.28998,1.34955 1.2531,1.25309 1.38419,3.6846 1.83429,34.02185 0.44048,29.68904 0.23846,44.54314 -0.66677,49.02614 -0.5088,2.5196 -4.58346,6.7243 -8.3357,8.6016 -10.38673,5.1966 -31.69436,9.9398 -56.45746,12.5678 -15.33038,1.6269 -21.53112,1.4804 -24.59,-0.581 z m -49.58912,-0.2921 c -6.15705,-0.5247 -12.70697,-1.8313 -18.17355,-3.6255 -7.19786,-2.3624 -9.81693,-5.0396 -10.49887,-10.7321 -0.25711,-2.1463 -0.36596,-40.14941 -0.24188,-84.45138 0.22332,-79.73405 0.2409,-80.57507 1.73709,-83.12202 2.54155,-4.32645 7.54546,-5.66571 12.19174,-3.26302 4.49382,2.32385 4.31916,-0.93885 4.31916,80.68068 0,66.25964 0.12699,74.70544 1.14512,76.15904 0.62982,0.8992 1.74787,1.6349 2.48456,1.6349 3.4445,0 3.33583,2.3005 3.7264,-78.88337 l 0.3678,-76.45093 2.40234,-2.1463 c 4.54687,-4.06229 11.03457,-2.22181 12.64818,3.58813 0.49554,1.7842 0.75826,28.29523 0.76094,76.78499 0.004,80.84818 -0.23353,76.37188 4.06078,76.37188 4.2138,0 4.03501,3.4476 4.03501,-77.80685 0,-80.6272 -0.16784,-77.13091 3.83751,-79.93638 0.9015,-0.63143 3.08815,-1.14806 4.85922,-1.14806 2.65383,0 3.6391,0.42043 5.6026,2.39072 l 2.38248,2.39073 0.48639,15.75027 c 0.70663,22.88205 0.53462,143.63717 -0.21381,150.10447 -0.60404,5.2197 -0.79777,5.6455 -3.90344,8.5798 -3.86954,3.6561 -9.90595,5.7808 -19.56956,6.8881 -6.21702,0.7124 -8.48237,0.7504 -14.44621,0.2422 z m -49.28571,-20.3914 C 104.75698,1002.4368 67.508807,968.71962 42.922567,928.06868 -0.71148286,855.92402 -3.4366129,764.72484 35.808967,690.00464 71.057187,622.89507 136.02599,575.56531 209.86674,563.20357 c 15.48677,-2.59266 23.86792,-3.25488 41.19403,-3.25488 17.32612,0 25.70726,0.66222 41.19403,3.25488 68.84239,11.52496 131.17518,54.17499 167.17851,114.38872 48.62537,81.32342 45.81395,183.31546 -7.20553,261.40102 -12.77985,18.8218 -31.30738,39.03077 -48.16062,52.53138 -9.74381,7.80547 -25.90747,18.66011 -36.2542,24.34631 -6.57715,3.6146 -19.60641,9.9518 -20.46084,9.9518 -0.16201,0 -0.29176,-8.0273 -0.28835,-17.8385 l 0.006,-17.8385 4.89203,-2.57463 c 12.70799,-6.68808 29.16056,-18.53932 41.52122,-29.90887 76.22488,-70.11267 90.27872,-184.67417 33.26299,-271.14439 -7.75837,-11.76637 -15.91689,-21.5572 -27.73673,-33.28615 -19.15187,-19.00462 -39.04767,-32.64943 -63.01181,-43.21439 -71.90298,-31.69952 -155.00443,-20.75135 -216.97817,28.58571 -8.66941,6.90169 -26.584893,24.99884 -33.057173,33.3924 -10.37689,13.45724 -19.79619,28.60812 -25.56149,41.11548 -33.35461,72.36015 -24.35927,154.75887 23.79575,217.97266 7.22768,9.48788 23.290683,26.05986 33.098333,34.14709 8.81539,7.26903 23.04324,16.98453 32.0684,21.89791 l 6.43657,3.50413 0,17.59505 c 0,13.6128 -0.20811,17.5834 -0.91951,17.544 -0.50573,-0.028 -3.89872,-1.4608 -7.53998,-3.1839 z m 105.15846,-6.6624 -1.80558,-1.8056 0,-23.43226 c 0,-19.07401 0.19416,-23.69787 1.04392,-24.8602 1.00085,-1.369 2.1684,-1.42791 28.30017,-1.42791 27.02609,0 27.26977,0.0135 28.86027,1.60374 1.56367,1.56338 1.60584,2.09415 1.67584,21.09584 l 0.0718,19.49209 -2.15852,2.2576 c -2.7292,2.8545 -7.71833,4.7225 -16.59947,6.2153 -7.84333,1.3183 -24.09157,2.6625 -32.21627,2.6652 -4.71835,0 -5.58469,-0.2163 -7.17217,-1.8038 z m 35.27083,-17.30147 c 5.07738,-0.80263 5.58883,-1.78852 5.58883,-10.7731 0,-5.86532 -0.25563,-7.78638 -1.15595,-8.6867 -0.947,-0.947 -3.1078,-1.15392 -11.95363,-1.14469 -5.93871,0.006 -11.19131,0.26156 -11.67243,0.56747 -0.57872,0.36796 -0.95214,3.68661 -1.10341,9.80624 -0.30188,12.21275 -0.46034,12.01955 9.29355,11.32807 4.05047,-0.28717 9.00184,-0.78095 11.00304,-1.09729 z M 149.91471,964.58352 C 101.5105,933.80058 69.773807,884.72896 62.033527,828.70069 53.703077,768.40035 74.459307,708.36086 118.3736,665.73142 c 15.18383,-14.73958 30.32624,-25.32101 49.5635,-34.63467 18.96735,-9.18298 34.83284,-14.11685 55.64462,-17.30444 15.07498,-2.30892 39.88313,-2.30892 54.9581,0 42.62514,6.52858 79.47262,25.36548 109.00866,55.72663 9.47975,9.74457 14.74835,16.14752 21.55637,26.19755 16.44478,24.27586 26.6891,50.9751 31.11869,81.10308 1.82035,12.38114 1.82797,40.07595 0.0143,51.86034 -6.27965,40.80172 -21.52229,72.98042 -49.13118,103.72069 -9.48891,10.56513 -26.34783,24.53081 -38.57114,31.95176 l -5.28396,3.20797 -0.46479,-4.44684 c -0.25563,-2.44575 -0.46478,-10.82466 -0.46478,-18.6198 l 0,-14.17296 5.70096,-4.76442 c 7.74315,-6.47113 20.21467,-19.42797 25.82655,-26.8316 27.46705,-36.23662 38.05082,-82.59276 29.09232,-127.4222 -12.80265,-64.06598 -64.14054,-114.04388 -128.80147,-125.3894 -51.44784,-9.02712 -105.18792,8.61168 -141.50007,46.44377 -26.08337,27.17515 -41.176293,61.00725 -44.194423,99.06562 -2.48409,31.32425 6.16344,67.08744 22.704813,93.89921 8.80006,14.26394 24.43499,32.1038 35.78029,40.82622 l 4.78404,3.67804 0.0423,18.9419 c 0.0233,10.41804 -0.20597,18.92267 -0.50941,18.89917 -0.30343,-0.0235 -2.70336,-1.41108 -5.33315,-3.08352 z m 104.79647,-32.95791 c -1.22895,-0.36152 -3.21509,-1.68087 -4.41365,-2.93189 -1.80036,-1.87917 -2.17919,-2.89216 -2.17919,-5.8271 0,-4.35765 0.64426,-5.12793 9.59671,-11.47385 10.43803,-7.39897 18.72419,-15.47533 18.72419,-18.25011 0,-0.25569 -4.27967,-0.46488 -9.51036,-0.46488 -7.66496,0 -9.73466,-0.2243 -10.66631,-1.15595 -0.96251,-0.96252 -1.15325,-3.27062 -1.1398,-13.79265 0.0138,-10.82051 0.21697,-13.079 1.41341,-15.71423 2.2298,-4.91131 7.42361,-6.75343 11.78207,-4.17883 3.0822,1.8207 4.5881,5.00813 4.94522,10.46718 0.17561,2.68449 0.45753,5.56893 0.62648,6.40988 0.6038,3.0054 7.27846,4.34788 10.47729,2.10733 1.38926,-0.97308 1.63551,-1.82961 1.639,-5.70096 0.008,-8.92619 2.43259,-12.8903 8.28768,-13.55026 6.87289,-0.77467 10.0984,3.14798 10.0984,12.28103 0,6.14863 1.33702,8.11531 5.51706,8.11531 4.33788,0 5.51705,-1.90241 5.51705,-8.90085 0,-5.79544 0.0684,-6.02684 2.50107,-8.45949 2.04073,-2.04073 3.0629,-2.50107 5.55359,-2.50107 1.67888,0 4.05523,0.51852 5.28076,1.15227 3.64932,1.88713 4.31917,4.67846 4.31917,17.99826 0,11.46759 -0.44146,14.22058 -2.50085,15.59567 -0.44516,0.29725 -4.69891,0.54551 -9.45278,0.55171 -4.75386,0.006 -8.64339,0.21518 -8.64339,0.46441 0,1.96742 8.92973,11.39425 20.50368,21.64509 3.54751,3.14197 3.77138,3.54924 3.77138,6.86096 0,2.89618 -0.37474,3.89545 -2.11257,5.63327 -4.21623,4.21623 -8.57352,3.82008 -16.09703,-1.46347 -6.68377,-4.69383 -13.21648,-10.77343 -17.89742,-16.65604 -5.23917,-6.58417 -5.78266,-6.48823 -14.78645,2.61047 -7.1656,7.24112 -18.03855,16.01242 -22.29949,17.98918 -3.21003,1.48923 -6.31011,1.8882 -8.85492,1.13961 z m -103.7709,-32.4894 c -19.97375,-20.5426 -33.06241,-47.1199 -37.46461,-76.07407 -1.59626,-10.49899 -1.61865,-30.38179 -0.0457,-40.65868 6.98059,-45.60978 34.72767,-83.69727 75.83983,-104.10275 12.1664,-6.03863 22.819,-9.71653 35.67697,-12.31773 7.45867,-1.50892 10.54815,-1.71138 26.11407,-1.71138 15.56593,0 18.6554,0.20246 26.11408,1.71138 37.18947,7.52355 68.66338,28.41992 89.38346,59.34405 33.8317,50.4929 31.02396,116.92604 -6.94464,164.31476 -2.79658,3.49043 -6.76576,7.9889 -8.8204,9.99661 l -3.73573,3.65039 0,-24.45228 0,-24.45228 2.26091,-4.47883 c 3.21347,-6.36585 7.73641,-20.38708 9.21977,-28.58156 1.73069,-9.56082 1.73975,-28.18207 0.0181,-37.14819 -5.84296,-30.42885 -21.94313,-55.20037 -46.6521,-71.77833 -43.18446,-28.97371 -100.21092,-23.78619 -136.91207,12.45449 -18.88239,18.64548 -29.54531,40.90287 -32.47317,67.78333 -1.99052,18.27477 2.28429,41.3898 10.77115,58.24246 l 2.52953,5.02298 -0.19395,23.92753 -0.19395,23.92751 -4.49149,-4.61941 z"
       id="path2996"
       style="fill:#1a1a1a" />
  </g>
</svg>
