<?xml version="1.0" encoding="UTF-8" standalone="no"?>
<!-- Created with Inkscape (http://www.inkscape.org/) -->

<svg
   xmlns:dc="http://purl.org/dc/elements/1.1/"
   xmlns:cc="http://creativecommons.org/ns#"
   xmlns:rdf="http://www.w3.org/1999/02/22-rdf-syntax-ns#"
   xmlns:svg="http://www.w3.org/2000/svg"
   xmlns="http://www.w3.org/2000/svg"
   version="1.1"
   width="364"
   height="363.9375"
   id="svg2">
  <metadata
     id="metadata8">
    <rdf:RDF>
      <cc:Work
         rdf:about="">
        <dc:format>image/svg+xml</dc:format>
        <dc:type
           rdf:resource="http://purl.org/dc/dcmitype/StillImage" />
        <dc:title></dc:title>
      </cc:Work>
    </rdf:RDF>
  </metadata>
  <defs
     id="defs6" />
  <path
     d="M 182,2 C 110.01207,2 47.918181,44.279438 19.125,105.34375 l 71.78125,41.4375 C 109.02402,115.25363 143.02816,94 182,94 c 26.49843,0 50.68335,9.83089 69.15625,26.03125 L 212.09375,182 344.875,105.34375 C 316.08182,44.279438 253.98793,2 182,2 z M 15.84375,112.6875 C 6.933976,134.02202 2,157.43485 2,182 2,280.07683 80.432681,359.814 178,361.9375 L 178,225 l -33.1875,0 -21.125,61.34375 C 95.536895,267.50604 77,235.41422 77,199 c 0,-16.15036 3.641998,-31.45623 10.15625,-45.125 z m 332.3125,0 -71.3125,41.1875 C 283.358,167.54377 287,182.84964 287,199 c 0,36.50467 -18.63789,68.6503 -46.90625,87.46875 L 219.03125,225 186,225 186,361.9375 C 283.56732,359.814 362,280.07683 362,182 c 0,-24.56515 -4.93398,-47.97798 -13.84375,-69.3125 z M 182,117 l -33.0625,96 65.96875,0 z"
     id="path2987"
     style="fill:#039701;fill-opacity:1;fill-rule:nonzero;stroke:none" />
</svg>
