<?xml version="1.0" encoding="UTF-8"?><svg width="459" height="384" viewBox="21 58 459 384" xmlns="http://www.w3.org/2000/svg" version="1.1">
 <path xmlns="http://www.w3.org/2000/svg" d="m282.5 439.32v-155a225 225 0 0 0-202.77-223.54 127.94 127.94 0 0 0-44.473 65.295 160 160 0 0 1 182.24 158.25v155zm12.5-30.113a225 225 0 0 0 170.92-283.13 127.94 127.94 0 0 0-45.07-65.396 225 225 0 0 0-163.12 96.043 237.5 237.5 0 0 1 32.293 79.428 160 160 0 0 1 108.44-105.3 160 160 0 0 1-103.46 212.43zm-90-65.93a160 160 0 0 1-107.27-200.52 147.5 147.5 0 0 0-66.551-3.3398 225 225 0 0 0 173.82 269.79z" fill="#008000"/>
</svg>