<?xml version="1.0" encoding="utf-8" standalone="no"?>
<svg xmlns:svg="http://www.w3.org/2000/svg" xmlns="http://www.w3.org/2000/svg" version="1.1" width="500" height="500" viewBox="-250,-182,500,500">
	<title>Ōhira, Miyagi Chapter</title>
	<polygon points="-250,318 -250,-182 250,-182 250,318 " style="fill:none;stroke:none" />
	<g style="fill:#8cb33f;stroke:none">
		<path d="M -156.875,-156.875 A 222,222 0 0 0 -222,0 222,222 0 0 0 0,222 222,222 0 0 0 222,0 222,222 0 0 0 156.875,-156.875 L 106,-106 A 150,150 0 0 1 150,0 150,150 0 0 1 0,150 150,150 0 0 1 -150,0 150,150 0 0 1 -106,-106 L -156.875,-156.875 z" />
		<path d="M -150.28125,181.96875 -206.34375,292 -16.3125,292 0,260 16.3125,292 206.34375,292 150.28125,181.96875 A 234,234 0 0 1 -150.28125,181.96875 z" />
		<path d="M 0,-113 -102.875,88.9375 C -77.937385,117.75508 -41.100644,136 0,136 41.100644,136 77.937385,117.75508 102.875,88.9375 L 0,-113 z" />
	</g>
</svg>