<?xml version="1.0" encoding="UTF-8" standalone="no"?>
<svg
   viewBox="0 0 107.59733 125.97466"
   height="125.97466"
   width="107.59733"
   xml:space="preserve"
   id="svg2"
   version="1.1"
   sodipodi:docname="3023-_1_.svg"
   inkscape:version="1.1 (c68e22c387, 2021-05-23)"
   xmlns:inkscape="http://www.inkscape.org/namespaces/inkscape"
   xmlns:sodipodi="http://sodipodi.sourceforge.net/DTD/sodipodi-0.dtd"
   xmlns="http://www.w3.org/2000/svg"
   xmlns:svg="http://www.w3.org/2000/svg"
   xmlns:rdf="http://www.w3.org/1999/02/22-rdf-syntax-ns#"
   xmlns:cc="http://creativecommons.org/ns#"
   xmlns:dc="http://purl.org/dc/elements/1.1/"><sodipodi:namedview
     id="namedview1029"
     pagecolor="#ffffff"
     bordercolor="#666666"
     borderopacity="1.0"
     inkscape:pageshadow="2"
     inkscape:pageopacity="0.0"
     inkscape:pagecheckerboard="0"
     showgrid="false"
     fit-margin-top="0"
     fit-margin-left="0"
     fit-margin-right="0"
     fit-margin-bottom="0"
     inkscape:zoom="4"
     inkscape:cx="61"
     inkscape:cy="65.875"
     inkscape:window-width="1920"
     inkscape:window-height="1057"
     inkscape:window-x="-8"
     inkscape:window-y="-8"
     inkscape:window-maximized="1"
     inkscape:current-layer="svg2" /><metadata
     id="metadata8"><rdf:RDF><cc:Work
         rdf:about=""><dc:format>image/svg+xml</dc:format><dc:type
           rdf:resource="http://purl.org/dc/dcmitype/StillImage" /></cc:Work></rdf:RDF></metadata><defs
     id="defs6"><clipPath
   id="clipPath18"
   clipPathUnits="userSpaceOnUse"><path
     id="path16"
     d="M 0,0 H 595.275 V 841.89 H 0 Z" /></clipPath><clipPath
   id="clipPath254"
   clipPathUnits="userSpaceOnUse"><path
     id="path252"
     d="M 0,0 H 595.275 V 841.89 H 0 Z" /></clipPath><clipPath
   id="clipPath500"
   clipPathUnits="userSpaceOnUse"><path
     id="path498"
     d="M 0,0 H 595.275 V 841.89 H 0 Z" /></clipPath><clipPath
   id="clipPath904"
   clipPathUnits="userSpaceOnUse"><path
     id="path902"
     d="M 0,0 H 595.275 V 841.89 H 0 Z" /></clipPath><clipPath
   id="clipPath1022"
   clipPathUnits="userSpaceOnUse"><path
     id="path1020"
     d="M 0,0 H 595.275 V 841.89 H 0 Z" /></clipPath><clipPath
   id="clipPath1150"
   clipPathUnits="userSpaceOnUse"><path
     id="path1148"
     d="M 0,0 H 595.275 V 841.89 H 0 Z" /></clipPath><clipPath
   id="clipPath1170"
   clipPathUnits="userSpaceOnUse"><path
     id="path1168"
     d="M 0,0 H 595.275 V 841.89 H 0 Z" /></clipPath><clipPath
   id="clipPath1190"
   clipPathUnits="userSpaceOnUse"><path
     id="path1188"
     d="M 0,0 H 595.275 V 841.89 H 0 Z" /></clipPath><clipPath
   id="clipPath1230"
   clipPathUnits="userSpaceOnUse"><path
     id="path1228"
     d="M 0,0 H 595.275 V 841.89 H 0 Z" /></clipPath><clipPath
   id="clipPath1272"
   clipPathUnits="userSpaceOnUse"><path
     id="path1270"
     d="M 0,0 H 595.275 V 841.89 H 0 Z" /></clipPath><clipPath
   id="clipPath1318"
   clipPathUnits="userSpaceOnUse"><path
     id="path1316"
     d="M 0,0 H 595.275 V 841.89 H 0 Z" /></clipPath><clipPath
   id="clipPath1334"
   clipPathUnits="userSpaceOnUse"><path
     id="path1332"
     d="M 0,0 H 595.275 V 841.89 H 0 Z" /></clipPath><clipPath
   id="clipPath1350"
   clipPathUnits="userSpaceOnUse"><path
     id="path1348"
     d="M 0,0 H 595.275 V 841.89 H 0 Z" /></clipPath><clipPath
   id="clipPath1376"
   clipPathUnits="userSpaceOnUse"><path
     id="path1374"
     d="M 0,0 H 595.275 V 841.89 H 0 Z" /></clipPath><clipPath
   id="clipPath1474"
   clipPathUnits="userSpaceOnUse"><path
     id="path1472"
     d="M 0,0 H 595.275 V 841.89 H 0 Z" /></clipPath><clipPath
   id="clipPath1500"
   clipPathUnits="userSpaceOnUse"><path
     id="path1498"
     d="M 0,0 H 595.275 V 841.89 H 0 Z" /></clipPath><clipPath
   id="clipPath1560"
   clipPathUnits="userSpaceOnUse"><path
     id="path1558"
     d="M 0,0 H 595.275 V 841.89 H 0 Z" /></clipPath><clipPath
   id="clipPath1692"
   clipPathUnits="userSpaceOnUse"><path
     id="path1690"
     d="M 0,0 H 595.275 V 841.89 H 0 Z" /></clipPath><clipPath
   id="clipPath1720"
   clipPathUnits="userSpaceOnUse"><path
     id="path1718"
     d="M 0,0 H 595.275 V 841.89 H 0 Z" /></clipPath><clipPath
   id="clipPath1738"
   clipPathUnits="userSpaceOnUse"><path
     id="path1736"
     d="M 0,0 H 595.275 V 841.89 H 0 Z" /></clipPath><clipPath
   id="clipPath1760"
   clipPathUnits="userSpaceOnUse"><path
     id="path1758"
     d="M 0,0 H 595.275 V 841.89 H 0 Z" /></clipPath><clipPath
   id="clipPath1784"
   clipPathUnits="userSpaceOnUse"><path
     id="path1782"
     d="M 0,0 H 595.275 V 841.89 H 0 Z" /></clipPath><clipPath
   id="clipPath1842"
   clipPathUnits="userSpaceOnUse"><path
     id="path1840"
     d="M 0,0 H 595.275 V 841.89 H 0 Z" /></clipPath><clipPath
   id="clipPath1850"
   clipPathUnits="userSpaceOnUse"><path
     id="path1848"
     d="M 15.8493,823.498 H 63.6664 V 775.681 H 15.8493 Z" /></clipPath><clipPath
   id="clipPath1878"
   clipPathUnits="userSpaceOnUse"><path
     id="path1876"
     d="M 0,0 H 595.275 V 841.89 H 0 Z" /></clipPath><clipPath
   id="clipPath1894"
   clipPathUnits="userSpaceOnUse"><path
     id="path1892"
     d="M 0,0 H 595.275 V 841.89 H 0 Z" /></clipPath><clipPath
   id="clipPath1906"
   clipPathUnits="userSpaceOnUse"><path
     id="path1904"
     d="M 0,0 H 595.275 V 841.89 H 0 Z" /></clipPath><clipPath
   id="clipPath1934"
   clipPathUnits="userSpaceOnUse"><path
     id="path1932"
     d="M 0,0 H 595.275 V 841.89 H 0 Z" /></clipPath><clipPath
   id="clipPath1958"
   clipPathUnits="userSpaceOnUse"><path
     id="path1956"
     d="M 0,0 H 595.275 V 841.89 H 0 Z" /></clipPath><clipPath
   id="clipPath1982"
   clipPathUnits="userSpaceOnUse"><path
     id="path1980"
     d="M 0,0 H 595.275 V 841.89 H 0 Z" /></clipPath><clipPath
   id="clipPath1998"
   clipPathUnits="userSpaceOnUse"><path
     id="path1996"
     d="M 0,0 H 595.275 V 841.89 H 0 Z" /></clipPath>






















































</defs><g
     id="g12"
     transform="matrix(1.3333333,0,0,-1.3333333,-397.29306,740.46838)"><g
       clip-path="url(#clipPath18)"
       id="g14"><text
   id="text64"
   style="font-variant:normal;font-weight:normal;font-stretch:normal;font-size:7.2px;font-family:RodinNTLGPro;-inkscape-font-specification:RodinNTLGPro-DB;writing-mode:lr-tb;fill:#e94709;fill-opacity:1;fill-rule:nonzero;stroke:none"
   transform="matrix(1,0,0,-1,807.1143,764.2547)"><tspan
     id="tspan20"
     y="0"
     x="0 5.16816 9.8769598">881</tspan><tspan
     id="tspan22"
     y="8.2872"
     x="115.092 119.5992 122.0076 126.9756 131.63112">1,671</tspan><tspan
     id="tspan24"
     y="15.9264"
     x="223.0704 228.15433 230.68872 235.76184 240.79105">2,393</tspan><tspan
     id="tspan26"
     y="37.677601"
     x="118.0152 122.5224 124.93008 130.01616 134.68391">1,691</tspan><tspan
     id="tspan28"
     y="29.232"
     x="-32.363998 -27.244801 -22.119841">663</tspan><tspan
     id="tspan30"
     y="59.104801"
     x="-33.537601 -28.4184 -23.3064">660</tspan><tspan
     id="tspan32"
     y="88.7976"
     x="-58.197601 -52.979759 -47.853359">485</tspan><tspan
     id="tspan34"
     y="118.3176"
     x="-56.916 -51.818401 -46.638721">500</tspan><tspan
     id="tspan36"
     y="67.536003"
     x="74.678398 79.1856 81.72216 86.79528 91.965599">1,396</tspan><tspan
     id="tspan38"
     y="97.236"
     x="35.431198 39.9384 41.723999 46.187279 51.28344">1,129</tspan><tspan
     id="tspan40"
     y="126.6768"
     x="38.714401 43.2216 45.007198 49.560478 54.66888">1,153</tspan><tspan
     id="tspan42"
     y="46.029598"
     x="231.048 236.13193 238.63968 243.828 248.75999">2,452</tspan><tspan
     id="tspan44"
     y="75.592796"
     x="263.8512 268.93512 271.34351 276.31079 280.65961">2,674</tspan><tspan
     id="tspan46"
     y="105.3216"
     x="252.84959 257.93353 260.44632 265.5144 270.64655">2,599</tspan><tspan
     id="tspan48"
     y="134.4816"
     x="240.30721 245.39111 247.90463 252.43344 256.98672">2,515</tspan><tspan
     id="tspan50"
     y="345.35519"
     x="-138.312 -133.80479 -132.0192 -127.40904 -122.30928">1,195</tspan><tspan
     id="tspan52"
     y="347.36401"
     x="-98.380798 -93.873596 -91.468803 -86.328003 -81.619919">1,081</tspan><tspan
     id="tspan54"
     y="350.33041"
     x="-54.079201 -48.91032 -43.78392">963</tspan><tspan
     id="tspan56"
     y="354.80161"
     x="-13.7088 -8.7552004 -3.6770401">755</tspan><tspan
     id="tspan58"
     y="357.60959"
     x="26.510401 31.6224 36.76392">608</tspan><tspan
     id="tspan60"
     y="238.67281"
     x="-121.2048 -116.21664 -113.68008 -108.57528 -103.86648">6,381</tspan><tspan
     id="tspan62"
     y="253.4904"
     x="-82.317596 -77.358963 -74.950562 -69.755043 -64.716476 -59.748482">5,642 </tspan></text>
<g
   transform="translate(729.3408,512.6307)"
   id="g66"><path
     id="path68"
     style="fill:none;stroke:#ffffff;stroke-width:2;stroke-linecap:round;stroke-linejoin:round;stroke-miterlimit:10;stroke-dasharray:none;stroke-opacity:1"
     d="m 0,0 c 0,1.368 -0.965,1.894 -1.901,1.894 -0.569,0 -1.015,-0.166 -1.224,-0.439 H -3.14 l 0.152,1.591 h 2.606 V 3.751 H -3.701 L -3.968,0.706 -3.197,0.54 c 0.187,0.432 0.713,0.72 1.174,0.72 0.583,0 1.231,-0.353 1.231,-1.267 0,-0.879 -0.634,-1.282 -1.238,-1.282 -0.619,0 -1.159,0.295 -1.311,0.879 l -0.756,-0.245 c 0.231,-0.821 1.036,-1.339 2.059,-1.339 C -0.914,-1.994 0,-1.332 0,0 Z" /></g><g
   transform="translate(731.4628,510.8162)"
   id="g70"><path
     id="path72"
     style="fill:none;stroke:#ffffff;stroke-width:2;stroke-linecap:round;stroke-linejoin:round;stroke-miterlimit:10;stroke-dasharray:none;stroke-opacity:1"
     d="M 0,0 V 0.972 H -0.9 V -0.05 h 0.482 c 0,-0.303 -0.144,-0.569 -0.395,-0.699 l 0.309,-0.288 C -0.173,-0.828 0,-0.446 0,0 Z" /></g><g
   transform="translate(736.7363,512.6233)"
   id="g74"><path
     id="path76"
     style="fill:none;stroke:#ffffff;stroke-width:2;stroke-linecap:round;stroke-linejoin:round;stroke-miterlimit:10;stroke-dasharray:none;stroke-opacity:1"
     d="m 0,0 c 0,1.282 -0.965,1.843 -1.951,1.843 -0.677,0 -1.26,-0.374 -1.425,-0.705 0,1.447 0.669,2.073 1.403,2.073 0.598,0 1.023,-0.237 1.239,-0.784 l 0.627,0.36 c -0.318,0.734 -0.958,1.101 -1.866,1.101 -1.209,0 -2.173,-0.886 -2.173,-3.045 0,-2.002 0.92,-2.83 2.167,-2.83 C -0.85,-1.987 0,-1.31 0,0 Z m -0.784,-0.043 c 0,-0.893 -0.634,-1.267 -1.21,-1.267 -0.662,0 -1.21,0.482 -1.311,1.404 0.109,0.669 0.67,1.087 1.296,1.087 0.613,0 1.225,-0.396 1.225,-1.224 z" /></g><g
   transform="translate(746.8848,510.7659)"
   id="g78"><path
     id="path80"
     style="fill:none;stroke:#ffffff;stroke-width:2;stroke-linecap:round;stroke-linejoin:round;stroke-miterlimit:10;stroke-dasharray:none;stroke-opacity:1"
     d="m 0,0 v 0.727 h -2.967 c 0.029,0.619 0.57,1.21 1.311,1.548 1.159,0.533 1.62,1.109 1.62,1.901 0,0.907 -0.684,1.57 -1.887,1.57 -1.029,0 -1.849,-0.663 -1.9,-1.721 l 0.756,-0.18 c 0.029,0.734 0.511,1.195 1.101,1.195 0.698,0 1.087,-0.36 1.087,-0.9 0,-0.482 -0.345,-0.9 -1.26,-1.332 C -3.11,2.34 -3.823,1.455 -3.866,0.382 L -3.874,0 Z" /></g><text
   id="text86"
   style="font-variant:normal;font-weight:normal;font-stretch:normal;font-size:7.2px;font-family:RodinNTLGPro;-inkscape-font-specification:RodinNTLGPro-DB;writing-mode:lr-tb;fill:#e94709;fill-opacity:1;fill-rule:nonzero;stroke:none"
   transform="matrix(1,0,0,-1,724.8046,510.7659)"><tspan
     id="tspan82"
     y="0"
     x="0 4.9586401 7.3670402 12.56256 17.60112 22.56912">5,642 </tspan><tspan
     id="tspan84"
     y="19.958401"
     x="40.644001 45.653759 48.065762 53.21664 58.206959">4,682</tspan></text>
<g
   transform="translate(772.1553,490.8592)"
   id="g88"><path
     id="path90"
     style="fill:none;stroke:#ffffff;stroke-width:2;stroke-linecap:round;stroke-linejoin:round;stroke-miterlimit:10;stroke-dasharray:none;stroke-opacity:1"
     d="M 0,0 V 0.972 H -0.9 V -0.05 h 0.482 c 0,-0.303 -0.144,-0.569 -0.395,-0.699 l 0.309,-0.288 C -0.173,-0.828 0,-0.446 0,0 Z" /></g><g
   transform="translate(777.4296,492.6663)"
   id="g92"><path
     id="path94"
     style="fill:none;stroke:#ffffff;stroke-width:2;stroke-linecap:round;stroke-linejoin:round;stroke-miterlimit:10;stroke-dasharray:none;stroke-opacity:1"
     d="m 0,0 c 0,1.282 -0.965,1.843 -1.951,1.843 -0.677,0 -1.26,-0.374 -1.425,-0.705 0,1.447 0.669,2.073 1.403,2.073 0.598,0 1.023,-0.237 1.239,-0.784 l 0.627,0.36 c -0.318,0.734 -0.958,1.101 -1.866,1.101 -1.209,0 -2.173,-0.886 -2.173,-3.045 0,-2.002 0.92,-2.83 2.167,-2.83 C -0.85,-1.987 0,-1.31 0,0 Z m -0.784,-0.043 c 0,-0.893 -0.634,-1.267 -1.21,-1.267 -0.662,0 -1.21,0.482 -1.311,1.404 0.109,0.669 0.67,1.087 1.296,1.087 0.613,0 1.225,-0.396 1.225,-1.224 z" /></g><g
   transform="translate(782.6171,492.4002)"
   id="g96"><path
     id="path98"
     style="fill:none;stroke:#ffffff;stroke-width:2;stroke-linecap:round;stroke-linejoin:round;stroke-miterlimit:10;stroke-dasharray:none;stroke-opacity:1"
     d="m 0,0 c 0,0.706 -0.316,1.217 -1.044,1.469 0.605,0.209 0.807,0.698 0.807,1.224 0,0.9 -0.771,1.461 -1.872,1.461 -1.087,0 -1.879,-0.583 -1.879,-1.461 0,-0.526 0.201,-1.015 0.828,-1.239 C -3.881,1.246 -4.227,0.698 -4.227,0 c 0,-1.008 0.822,-1.721 2.111,-1.721 C -0.813,-1.721 0,-0.986 0,0 Z m -1.001,2.649 c 0,-0.532 -0.475,-0.857 -1.108,-0.857 -0.634,0 -1.117,0.325 -1.117,0.857 0,0.526 0.476,0.865 1.117,0.865 0.655,0 1.108,-0.368 1.108,-0.865 z m 0.188,-2.591 c 0,-0.749 -0.634,-1.109 -1.296,-1.109 -0.656,0 -1.303,0.374 -1.303,1.109 0,0.611 0.511,1.015 1.303,1.015 0.792,0 1.296,-0.404 1.296,-1.015 z" /></g><g
   transform="translate(787.4852,490.8089)"
   id="g100"><path
     id="path102"
     style="fill:none;stroke:#ffffff;stroke-width:2;stroke-linecap:round;stroke-linejoin:round;stroke-miterlimit:10;stroke-dasharray:none;stroke-opacity:1"
     d="m 0,0 v 0.727 h -2.967 c 0.029,0.619 0.57,1.21 1.311,1.548 1.159,0.533 1.62,1.109 1.62,1.901 0,0.907 -0.684,1.57 -1.887,1.57 -1.029,0 -1.849,-0.663 -1.9,-1.721 l 0.756,-0.18 c 0.029,0.734 0.511,1.195 1.101,1.195 0.698,0 1.087,-0.36 1.087,-0.9 0,-0.482 -0.345,-0.9 -1.26,-1.332 C -3.11,2.34 -3.823,1.455 -3.866,0.382 L -3.874,0 Z" /></g><text
   id="text108"
   style="font-variant:normal;font-weight:normal;font-stretch:normal;font-size:7.2px;font-family:RodinNTLGPro;-inkscape-font-specification:RodinNTLGPro-DB;writing-mode:lr-tb;fill:#e94709;fill-opacity:1;fill-rule:nonzero;stroke:none"
   transform="matrix(1,0,0,-1,765.4462,490.8089)"><tspan
     id="tspan104"
     y="0"
     x="0 5.0097599 7.4217601 12.57336 17.56296">4,682</tspan><tspan
     id="tspan106"
     y="26.5392"
     x="40.032001 45.0144 47.551682 52.6572 57.825359">3,388</tspan></text>
</g></g><g
     id="g248"
     transform="matrix(1.3333333,0,0,-1.3333333,-397.29306,740.46838)"><g
       clip-path="url(#clipPath254)"
       id="g250"><text
   id="text262"
   style="font-variant:normal;font-weight:normal;font-stretch:normal;font-size:7.2px;font-family:RodinNTLGPro;-inkscape-font-specification:RodinNTLGPro-L;writing-mode:lr-tb;fill:#000000;fill-opacity:1;fill-rule:nonzero;stroke:none"
   transform="matrix(1,0,0,-1,647.9697,540.3481)"><tspan
     id="tspan256"
     y="0"
     x="0 7.1999998 14.4">（人）</tspan><tspan
     id="tspan258"
     y="405.06479"
     x="478.87201 486.07199 493.272">（人）</tspan><tspan
     id="tspan260"
     y="-3.6791999"
     x="272.40479 279.6048 283.85281 287.95679">（ha）</tspan></text>
</g></g><g
     id="g898"
     transform="matrix(1.3333333,0,0,-1.3333333,-397.29306,740.46838)"><g
       clip-path="url(#clipPath904)"
       id="g900"><text
   id="text914"
   style="font-variant:normal;font-weight:normal;font-stretch:normal;font-size:6px;font-family:RodinNTLGPro;-inkscape-font-specification:RodinNTLGPro-L;writing-mode:lr-tb;fill:#000000;fill-opacity:1;fill-rule:nonzero;stroke:none"
   transform="matrix(1,0,0,-1,809.4606,372.5008)"><tspan
     id="tspan906"
     y="0"
     x="0 6 12 18 24 30 36 42 48 54">資料：農林業センサス</tspan><tspan
     id="tspan908"
     y="-0.47999999"
     x="275.80801 281.80801 287.80801 293.80801 299.80801 305.80801 311.80801 317.80801 323.80801 329.80801">資料：農林業センサス</tspan><tspan
     id="tspan910"
     y="245.70599"
     x="276.46799 282.46799 288.46799 294.46799 300.46799 306.46799 312.46799 318.46799 324.46799 330.46799">資料：農林業センサス</tspan><tspan
     id="tspan912"
     y="-232.62601"
     x="293.22 299.22 305.22 311.22 317.22 323.22 329.22">資料：国勢調査</tspan></text>
</g></g><g
     transform="matrix(1.3333333,0,0,-1.3333333,254.92319,215.03919)"
     id="g988" /><g
     id="g1468"
     transform="matrix(1.3333333,0,0,-1.3333333,-397.29306,740.46838)"><g
       clip-path="url(#clipPath1474)"
       id="g1470"><text
   id="text1486"
   style="font-variant:normal;font-weight:normal;font-stretch:normal;font-size:7.2px;font-family:RodinNTLGPro;-inkscape-font-specification:RodinNTLGPro-DB;writing-mode:lr-tb;fill:#595757;fill-opacity:1;fill-rule:nonzero;stroke:none"
   transform="matrix(1,0,0,-1,642.9849,289.3172)"><tspan
     id="tspan1476"
     y="0"
     x="0 6.7680001 15.4008 21.5208">平成7年</tspan><tspan
     id="tspan1478"
     y="32.875198"
     x="-0.4752 6.29352 12.84408 16.87608 21.5208">平成12年</tspan><tspan
     id="tspan1480"
     y="65.750397"
     x="0 6.7687201 13.31928 17.27928 21.5208">平成17年</tspan><tspan
     id="tspan1482"
     y="98.625603"
     x="-1.3104 5.4576001 12.29904 16.873199 21.5208">平成22年</tspan><tspan
     id="tspan1484"
     y="131.50079"
     x="-0.83520001 5.9335198 12.77496 17.28216 21.5208">平成27年</tspan></text>
</g></g><g
     id="g1494"
     transform="matrix(1.3333333,0,0,-1.3333333,-397.29306,740.46838)"><g
       clip-path="url(#clipPath1500)"
       id="g1496"><text
   id="text1504"
   style="font-variant:normal;font-weight:normal;font-stretch:normal;font-size:17px;font-family:RodinNTLGPro;-inkscape-font-specification:RodinNTLGPro-EB;writing-mode:lr-tb;fill:#ffffff;fill-opacity:1;fill-rule:nonzero;stroke:none"
   transform="matrix(1,0,0,-1,629.4496,82.9207)"><tspan
     id="tspan1502"
     y="0"
     x="0 17 34 51">町民憲章</tspan></text>
<text
   id="text1508"
   style="font-variant:normal;font-weight:normal;font-stretch:normal;font-size:9.5px;font-family:RodinNTLGPro;-inkscape-font-specification:RodinNTLGPro-DB;writing-mode:lr-tb;fill:#ffffff;fill-opacity:1;fill-rule:nonzero;stroke:none"
   transform="matrix(1,0,0,-1,697.4496,82.741)"><tspan
     id="tspan1506"
     y="0"
     x="0 0.38 9.8800001 19.379999 31.254999 37.810001 46.739052 56.239052 65.739052 75.239052 84.739052 94.239052 103.73905 113.23905"> （昭和59年７月１日制定）</tspan></text>
<text
   id="text1518"
   style="font-variant:normal;font-weight:300;font-stretch:normal;font-size:9.5px;font-family:RyuminPr6;-inkscape-font-specification:RyuminPr6-Light;writing-mode:lr-tb;fill:#000000;fill-opacity:1;fill-rule:nonzero;stroke:none"
   transform="matrix(1,0,0,-1,629.4486,63.456)"><tspan
     id="tspan1510"
     y="0"
     x="0 9.1199999 18.24 27.360001 36.48 45.599998 54.720001">わたくしたちは</tspan><tspan
     id="tspan1512"
     y="15.0005"
     x="0 9.1199999 18.24 27.360001 36.48 45.599998 54.720001 63.84 72.959999 82.080002 91.199997 100.32 109.44 118.56 127.68 136.8 145.92 155.03999 164.16 173.28 182.39999 191.52 200.64 209.75999 218.88 228 237.12 246.24001 255.36 264.48001 268.84906 296.81134 305.93134 315.05136 324.17136 333.29135 342.41135 351.53134 360.65134 369.77136 378.89136 388.01135 397.13135 406.25134 415.37134 424.49136 433.61136 442.73135 451.85135 460.97134 470.09134 479.21136 488.33136 497.45135 506.57135 515.69135 524.81134 533.93134">一 思いやりとあたたかい心がはぐくむ住みよい町をつくります。 一 働くことに喜びをもち活力ある豊かな町をつくります。</tspan><tspan
     id="tspan1514"
     y="30.000999"
     x="0 9.1199999 18.24 27.360001 36.48 45.599998 54.720001 63.84 72.959999 82.080002 91.199997 100.32 109.44 118.56 127.68 136.8 145.92 155.03999 164.16 173.28 182.39999 191.52 200.64 209.75999 218.88 228 232.37 296.8085 305.9285 315.04849 324.16849 333.28851 342.40851 351.5285 360.6485 369.76849 378.88849 388.00851 397.12851 406.2485 415.3685 424.48849 433.60849 442.72849 451.84851 460.96851 470.0885 479.2085 488.32849 497.44849 506.56851 515.68848 524.80847 533.92853">一 情操と創造力にみちた教育と文化の町をつくります。 一 伝統と自然を守り快適な環境と健康の町をつくります。</tspan><tspan
     id="tspan1516"
     y="45.001499"
     x="0 9.1199999 18.24 27.360001 36.48 45.599998 54.720001 63.84 72.959999 82.080002 91.199997 100.32 109.44 118.56 127.68 136.8 145.92 155.03999 164.16 173.28 182.39999 191.52 200.64 209.75999 218.88 228 237.12 246.24001 255.36">一 すすんできまりを守り互いに助けあう和の町をつくります。</tspan></text>
</g></g><g
     id="g1554"
     transform="matrix(1.3333333,0,0,-1.3333333,-397.29306,740.46838)"><g
       clip-path="url(#clipPath1560)"
       id="g1556"><text
   id="text1596"
   style="font-variant:normal;font-weight:normal;font-stretch:normal;font-size:7.2px;font-family:RodinNTLGPro;-inkscape-font-specification:RodinNTLGPro-DB;writing-mode:lr-tb;fill:#0068b7;fill-opacity:1;fill-rule:nonzero;stroke:none"
   transform="matrix(1,0,0,-1,642.2294,726.2137)"><tspan
     id="tspan1562"
     y="0"
     x="0 6.7687201 13.31928 17.35128 21.996">平成12年</tspan><tspan
     id="tspan1564"
     y="-29.7288"
     x="0.4752 7.2431998 15.876 21.996">平成7年</tspan><tspan
     id="tspan1566"
     y="29.736"
     x="0 6.7687201 13.31928 17.27928 21.5208">平成17年</tspan><tspan
     id="tspan1568"
     y="59.464802"
     x="0 6.7680001 13.60944 18.183599 22.8312">平成22年</tspan><tspan
     id="tspan1570"
     y="89.193604"
     x="0 6.7687201 13.61016 18.117359 22.356001">平成27年</tspan><tspan
     id="tspan1572"
     y="-55.058399"
     x="319.06799 325.83527 332.34409 340.02649 347.70889">第１次産業</tspan><tspan
     id="tspan1574"
     y="-55.058399"
     x="380.90881 388.07352 395.28217 402.96457 410.64697">第２次産業</tspan><tspan
     id="tspan1576"
     y="189.6768"
     x="154.0656 161.26559 168.46561">農家数</tspan><tspan
     id="tspan1578"
     y="189.6768"
     x="197.25121 204.4512 211.6512 218.8512">農家人口</tspan><tspan
     id="tspan1580"
     y="180.53281"
     x="413.62561">田</tspan><tspan
     id="tspan1582"
     y="180.53281"
     x="446.6088">畑</tspan><tspan
     id="tspan1584"
     y="180.53281"
     x="479.79361 486.99359 494.1936">樹園地</tspan><tspan
     id="tspan1586"
     y="406.18079"
     x="331.1568 338.35681 345.55679 352.75681">専業農家</tspan><tspan
     id="tspan1588"
     y="406.18079"
     x="297.15839 304.4736">総数</tspan><tspan
     id="tspan1590"
     y="406.18079"
     x="380.73599 387.21527 393.47064 400.88663 408.30264 415.69992 423.0144">第１種兼業農家</tspan><tspan
     id="tspan1592"
     y="406.18079"
     x="449.7912 456.66791 463.45535 470.87137 478.28735 485.68463 492.99911">第２種兼業農家</tspan><tspan
     id="tspan1594"
     y="-55.058399"
     x="443.94479 451.19305 458.40671 466.08911 473.77151">第３次産業</tspan></text>
<text
   id="text1614"
   style="font-variant:normal;font-weight:normal;font-stretch:normal;font-size:7.2px;font-family:RodinNTLGPro;-inkscape-font-specification:RodinNTLGPro-L;writing-mode:lr-tb;fill:#000000;fill-opacity:1;fill-rule:nonzero;stroke:none"
   transform="matrix(1,0,0,-1,659.6102,387.9001)"><tspan
     id="tspan1598"
     y="0"
     x="0">0</tspan><tspan
     id="tspan1600"
     y="-20.5056"
     x="-17.388 -12.42 -9.9359999 -4.9679999 0">1,000</tspan><tspan
     id="tspan1602"
     y="-41.0112"
     x="-17.388 -12.42 -9.9359999 -4.9679999 0">2,000</tspan><tspan
     id="tspan1604"
     y="-61.5168"
     x="-17.388 -12.42 -9.9359999 -4.9679999 0">3,000</tspan><tspan
     id="tspan1606"
     y="-82.0224"
     x="-17.388 -12.42 -9.9359999 -4.9679999 0">4,000</tspan><tspan
     id="tspan1608"
     y="-102.528"
     x="-17.388 -12.42 -9.9359999 -4.9679999 0">5,000</tspan><tspan
     id="tspan1610"
     y="-123.0336"
     x="-17.388 -12.42 -9.9359999 -4.9679999 0">6,000</tspan><tspan
     id="tspan1612"
     y="-143.5392"
     x="-17.388 -12.42 -9.9359999 -4.9679999 0">7,000</tspan></text>
<text
   id="text1620"
   style="font-variant:normal;font-weight:normal;font-stretch:normal;font-size:7.2px;font-family:RodinNTLGPro;-inkscape-font-specification:RodinNTLGPro-DB;writing-mode:lr-tb;fill:#595757;fill-opacity:1;fill-rule:nonzero;stroke:none"
   transform="matrix(0.9,0,0,-1,672.7012,382.2762)"><tspan
     id="tspan1616"
     y="0"
     x="0 6.7968001 17.2584 25.207199 45.597599 52.396561 60.778801 64.846802 71.316002 90.777603 97.576561 105.9588 109.9548 116.028 135.0936 141.8904 150.55992 155.16216 161.6328 180.27361 187.07256 195.74208 200.27808 206.35201">平成7年平成12年平成17年平成22年平成27年</tspan><tspan
     id="tspan1618"
     y="0.108"
     x="304.73279 311.5296 321.99121 329.94 350.34479 357.14377 365.526 369.59399 376.0632 395.53201 402.33096 410.7132 414.7092 420.78241 439.84079 446.6376 455.30713 459.90936 466.38 485.02802 491.82697 500.49649 505.03247 511.10641">平成7年平成12年平成17年平成22年平成27年</tspan></text>
<text
   id="text1644"
   style="font-variant:normal;font-weight:normal;font-stretch:normal;font-size:7.2px;font-family:RodinNTLGPro;-inkscape-font-specification:RodinNTLGPro-L;writing-mode:lr-tb;fill:#000000;fill-opacity:1;fill-rule:nonzero;stroke:none"
   transform="matrix(1,0,0,-1,933.8436,388.3797)"><tspan
     id="tspan1622"
     y="0"
     x="0">0</tspan><tspan
     id="tspan1624"
     y="-14.8968"
     x="-9.9359999 -4.9679999 0">200</tspan><tspan
     id="tspan1626"
     y="-29.7936"
     x="-9.9359999 -4.9679999 0">400</tspan><tspan
     id="tspan1628"
     y="-44.690399"
     x="-9.9359999 -4.9679999 0">600</tspan><tspan
     id="tspan1630"
     y="-59.5872"
     x="-9.9359999 -4.9679999 0">800</tspan><tspan
     id="tspan1632"
     y="-74.484001"
     x="-17.388 -12.42 -9.9359999 -4.9679999 0">1,000</tspan><tspan
     id="tspan1634"
     y="-89.380798"
     x="-17.388 -12.42 -9.9359999 -4.9679999 0">1,200</tspan><tspan
     id="tspan1636"
     y="-104.2776"
     x="-17.388 -12.42 -9.9359999 -4.9679999 0">1,400</tspan><tspan
     id="tspan1638"
     y="-119.1744"
     x="-17.388 -12.42 -9.9359999 -4.9679999 0">1,600</tspan><tspan
     id="tspan1640"
     y="-134.0712"
     x="-17.388 -12.42 -9.9359999 -4.9679999 0">1,800</tspan><tspan
     id="tspan1642"
     y="-147.9456"
     x="-17.388 -12.42 -9.9359999 -4.9679999 0">2,000</tspan></text>
<text
   id="text1672"
   style="font-variant:normal;font-weight:normal;font-stretch:normal;font-size:7.2px;font-family:RodinNTLGPro;-inkscape-font-specification:RodinNTLGPro-DB;writing-mode:lr-tb;fill:#009944;fill-opacity:1;fill-rule:nonzero;stroke:none"
   transform="matrix(1,0,0,-1,1032.39,459.3717)"><tspan
     id="tspan1646"
     y="0"
     x="0 4.5071998 7.03584 11.7432 16.35408 -40.161598 -35.6544 -33.521759 -28.866961 -24.25824">1,8191,716</tspan><tspan
     id="tspan1648"
     y="-68.587196"
     x="5.7672 10.7352">90</tspan><tspan
     id="tspan1650"
     y="-62.294399"
     x="-37.173599 -32.205601 -27.2376">141</tspan><tspan
     id="tspan1652"
     y="-76.9608"
     x="8.2511997">6</tspan><tspan
     id="tspan1654"
     y="-72.575996"
     x="-32.205601">7</tspan><tspan
     id="tspan1656"
     y="1.2789769e-14"
     x="-81.201599 -76.694397 -74.164322 -69.01992 -64.182961">1,807</tspan><tspan
     id="tspan1658"
     y="-68.990402"
     x="-77.104797 -72.136803 -67.1688">122</tspan><tspan
     id="tspan1660"
     y="-79.041603"
     x="-72.136803">7</tspan><tspan
     id="tspan1662"
     y="-73.036797"
     x="48.708">4</tspan><tspan
     id="tspan1664"
     y="-65.145599"
     x="47.0592 52.027199">80</tspan><tspan
     id="tspan1666"
     y="-65.361603"
     x="86.680801 91.648804">57</tspan><tspan
     id="tspan1668"
     y="-74.102402"
     x="89.164803">5</tspan><tspan
     id="tspan1670"
     y="1.2789769e-14"
     x="40.3848 44.891998 47.023201 51.973202 56.886478 79.869598 84.376801 86.906883 92.051277 97.146004">1,7871,805</tspan></text>
<text
   id="text1676"
   style="font-variant:normal;font-weight:normal;font-stretch:normal;font-size:7.2px;font-family:RodinNTLGPro;-inkscape-font-specification:RodinNTLGPro-L;writing-mode:lr-tb;fill:#000000;fill-opacity:1;fill-rule:nonzero;stroke:none"
   transform="matrix(1,0,0,-1,671.8716,135.5373)"><tspan
     id="tspan1674"
     y="0"
     x="0 69.2136 74.181602 79.149597 143.3952 148.3632 153.33121 217.5768 222.5448 227.5128 291.75839 296.72641 301.6944 362.21759 367.18561 369.66959 374.6376 379.60559 434.70001 439.668 442.15201 447.12 452.08801">02004006008001,0001,200</tspan></text>
</g></g><g
     id="g1686"
     transform="matrix(1.3333333,0,0,-1.3333333,-397.29306,740.46838)"><g
       clip-path="url(#clipPath1692)"
       id="g1688"><g
         transform="translate(849.6953,447.5101)"
         id="g1694"><path
           id="path1696"
           style="fill:none;stroke:#ffffff;stroke-width:1;stroke-linecap:round;stroke-linejoin:round;stroke-miterlimit:10;stroke-dasharray:none;stroke-opacity:1"
           d="m 0,0 v 0.727 h -2.967 c 0.029,0.619 0.57,1.21 1.311,1.548 1.159,0.533 1.62,1.109 1.62,1.901 0,0.907 -0.684,1.57 -1.887,1.57 -1.029,0 -1.849,-0.663 -1.9,-1.721 l 0.756,-0.18 c 0.029,0.734 0.511,1.195 1.101,1.195 0.698,0 1.087,-0.36 1.087,-0.9 0,-0.482 -0.345,-0.9 -1.26,-1.332 C -3.11,2.34 -3.823,1.455 -3.866,0.382 L -3.874,0 Z" /></g><g
         transform="translate(851.9999,447.5604)"
         id="g1698"><path
           id="path1700"
           style="fill:none;stroke:#ffffff;stroke-width:1;stroke-linecap:round;stroke-linejoin:round;stroke-miterlimit:10;stroke-dasharray:none;stroke-opacity:1"
           d="M 0,0 V 0.972 H -0.9 V -0.05 h 0.482 c 0,-0.303 -0.144,-0.569 -0.395,-0.699 l 0.309,-0.288 C -0.173,-0.828 0,-0.446 0,0 Z" /></g><g
         transform="translate(857.3495,449.3748)"
         id="g1702"><path
           id="path1704"
           style="fill:none;stroke:#ffffff;stroke-width:1;stroke-linecap:round;stroke-linejoin:round;stroke-miterlimit:10;stroke-dasharray:none;stroke-opacity:1"
           d="m 0,0 c 0,1.368 -0.965,1.894 -1.901,1.894 -0.569,0 -1.015,-0.166 -1.224,-0.439 H -3.14 l 0.152,1.591 h 2.606 V 3.751 H -3.701 L -3.968,0.706 -3.197,0.54 c 0.187,0.432 0.713,0.72 1.174,0.72 0.583,0 1.231,-0.353 1.231,-1.267 0,-0.879 -0.634,-1.282 -1.238,-1.282 -0.619,0 -1.159,0.295 -1.311,0.879 l -0.756,-0.245 c 0.231,-0.821 1.036,-1.339 2.059,-1.339 C -0.914,-1.994 0,-1.332 0,0 Z" /></g><g
         transform="translate(862.4833,449.3675)"
         id="g1706"><path
           id="path1708"
           style="fill:none;stroke:#ffffff;stroke-width:1;stroke-linecap:round;stroke-linejoin:round;stroke-miterlimit:10;stroke-dasharray:none;stroke-opacity:1"
           d="m 0,0 c 0,1.282 -0.965,1.843 -1.951,1.843 -0.677,0 -1.26,-0.374 -1.425,-0.705 0,1.447 0.669,2.073 1.403,2.073 0.598,0 1.023,-0.237 1.239,-0.784 l 0.627,0.36 c -0.318,0.734 -0.958,1.101 -1.866,1.101 -1.209,0 -2.173,-0.886 -2.173,-3.045 0,-2.002 0.92,-2.83 2.167,-2.83 C -0.85,-1.987 0,-1.31 0,0 Z m -0.784,-0.043 c 0,-0.893 -0.634,-1.267 -1.21,-1.267 -0.662,0 -1.21,0.482 -1.311,1.404 0.109,0.669 0.67,1.087 1.296,1.087 0.613,0 1.225,-0.396 1.225,-1.224 z" /></g><g
         transform="translate(867.5497,449.3748)"
         id="g1710"><path
           id="path1712"
           style="fill:none;stroke:#ffffff;stroke-width:1;stroke-linecap:round;stroke-linejoin:round;stroke-miterlimit:10;stroke-dasharray:none;stroke-opacity:1"
           d="m 0,0 c 0,1.368 -0.965,1.894 -1.901,1.894 -0.569,0 -1.015,-0.166 -1.224,-0.439 H -3.14 l 0.152,1.591 h 2.606 V 3.751 H -3.701 L -3.968,0.706 -3.197,0.54 c 0.187,0.432 0.713,0.72 1.174,0.72 0.583,0 1.231,-0.353 1.231,-1.267 0,-0.879 -0.634,-1.282 -1.238,-1.282 -0.619,0 -1.159,0.295 -1.311,0.879 l -0.756,-0.245 c 0.231,-0.821 1.036,-1.339 2.059,-1.339 C -0.914,-1.994 0,-1.332 0,0 Z" /></g></g></g><g
     id="g1714"
     transform="matrix(1.3333333,0,0,-1.3333333,-397.29306,740.46838)"><g
       clip-path="url(#clipPath1720)"
       id="g1716"><text
   id="text1724"
   style="font-variant:normal;font-weight:normal;font-stretch:normal;font-size:7.2px;font-family:RodinNTLGPro;-inkscape-font-specification:RodinNTLGPro-DB;writing-mode:lr-tb;fill:#e94709;fill-opacity:1;fill-rule:nonzero;stroke:none"
   transform="matrix(1,0,0,-1,845.2167,447.5101)"><tspan
     id="tspan1722"
     y="0"
     x="0 5.08392 7.5967202 12.70224 17.796961 22.764959">2,565 </tspan></text>
</g></g><g
     id="g1732"
     transform="matrix(1.3333333,0,0,-1.3333333,-397.29306,740.46838)"><g
       clip-path="url(#clipPath1738)"
       id="g1734"><text
   id="text1744"
   style="font-variant:normal;font-weight:normal;font-stretch:normal;font-size:7.2px;font-family:RodinNTLGPro;-inkscape-font-specification:RodinNTLGPro-L;writing-mode:lr-tb;fill:#000000;fill-opacity:1;fill-rule:nonzero;stroke:none"
   transform="matrix(1,0,0,-1,1123.2832,614.7537)"><tspan
     id="tspan1740"
     y="0"
     x="0 7.1999998 14.4">（人）</tspan><tspan
     id="tspan1742"
     y="0.43920001"
     x="-450.9216 -382.284 -377.31601 -372.34799 -312.40799 -307.44 -304.95599 -299.98801 -295.01999 -238.8024 -233.8344 -231.3504 -226.3824 -221.4144 -165.19679 -160.22881 -157.7448 -152.77679 -147.80881 -91.591202 -86.623199 -84.139198 -79.171204 -74.203201 -19.972799 -15.0048 -12.5208 -7.5528002 -2.5848">05001,0001,5002,0002,5003,000</tspan></text>
</g></g><g
     id="g1754"
     transform="matrix(1.3333333,0,0,-1.3333333,-55.665199,145.10386)"
     style="fill:#c4c0d7;fill-opacity:1"><g
       clip-path="url(#clipPath1760)"
       id="g1756"
       style="fill:#c4c0d7;fill-opacity:1"><g
         transform="translate(-9.5516,781.6496)"
         id="g1762"
         style="fill:#c4c0d7;fill-opacity:1" /><g
         transform="translate(91.7589,31.2419)"
         id="g1766"
         style="fill:#c4c0d7;fill-opacity:1"><path
           id="path1768"
           style="fill:#c4c0d7;fill-opacity:1;fill-rule:nonzero;stroke:none"
           d="M 0,0 H 5.424 C 4.718,-3.678 2.751,-6.894 0,-9.163 Z M 5.691,3.835 H 0 V 15.209 C 3.29,12.495 5.46,8.428 5.691,3.835 M -24.745,0 h 5.423 v -9.163 c -2.752,2.269 -4.718,5.485 -5.423,9.163 m 5.423,15.208 V 3.835 h -5.691 c 0.23,4.592 2.401,8.659 5.691,11.373 m 20.031,49.609 4.79,5.359 h -9.997 l -5.163,7.41 -5.162,-7.41 h -9.998 l 4.79,-5.359 C -37.29,60.103 -50.01,43.912 -50.01,24.656 c 0,-20.615 14.582,-37.714 33.702,-40.979 v 3.316 1.897 V 0 3.835 17.156 21.145 C -23.511,18.399 -28.64,11.322 -28.64,3.021 c 0,-5.625 2.358,-10.688 6.119,-14.222 -13.176,5.184 -22.515,18.09 -22.515,33.2 0,19.684 15.838,35.641 35.375,35.641 19.536,0 35.374,-15.957 35.374,-35.641 0,-15.11 -9.338,-28.016 -22.514,-33.2 3.761,3.534 6.118,8.597 6.118,14.222 0,8.301 -5.129,15.378 -12.332,18.124 v -3.989 -28.266 -1.897 -3.316 c 19.12,3.265 33.703,20.364 33.703,40.979 0,19.256 -12.721,35.447 -29.979,40.161" /></g><g
         transform="translate(83.4225,45.9547)"
         id="g1770"
         style="fill:#c4c0d7;fill-opacity:1"><path
           id="path1772"
           style="fill:#c4c0d7;fill-opacity:1;fill-rule:nonzero;stroke:none"
           d="m 0,0 h -2.65 v 3.918 c 0.437,0.038 0.879,0.061 1.325,0.061 0.447,0 0.888,-0.023 1.325,-0.061 z m 0,-8.019 h -2.65 v 4.462 H 0 Z M -5.962,7.07 V 3.253 -11.435 H 3.312 V 3.253 7.07 c -1.484,0.38 -3.037,0.584 -4.637,0.584 -1.6,0 -3.153,-0.204 -4.637,-0.584" /></g><g
         transform="translate(77.4606,19.3219)"
         id="g1774"
         style="fill:#c4c0d7;fill-opacity:1"><path
           id="path1776"
           style="fill:#c4c0d7;fill-opacity:1;fill-rule:nonzero;stroke:none"
           d="m 0,0 v -1.407 -3.285 c 1.522,-0.18 3.068,-0.283 4.637,-0.283 1.569,0 3.114,0.103 4.637,0.283 V -1.408 0 6.481 H 5.738 V -0.683 -1.694 C 5.372,-1.706 5.006,-1.721 4.637,-1.721 c -0.472,0 -0.941,0.015 -1.409,0.034 v 1.028 11.033 h 6.046 v 3.417 H 0 Z" /></g></g></g><g
     id="g1888"
     transform="matrix(1.3333333,0,0,-1.3333333,-397.29306,740.46838)"><g
       clip-path="url(#clipPath1894)"
       id="g1890"><g
         transform="translate(1172.1257,18.7096)"
         id="g1896"><path
           id="path1898"
           style="fill:#ffffff;fill-opacity:1;fill-rule:nonzero;stroke:none"
           d="m 0,0 c 0,-3.288 -2.666,-5.953 -5.953,-5.953 -3.288,0 -5.953,2.665 -5.953,5.953 0,3.287 2.665,5.952 5.953,5.952 C -2.666,5.952 0,3.287 0,0" /></g></g></g><g
     id="g1992"
     transform="matrix(1.3333333,0,0,-1.3333333,-397.29306,740.46838)"><g
       clip-path="url(#clipPath1998)"
       id="g1994"><text
   id="text2002"
   style="font-variant:normal;font-weight:normal;font-stretch:normal;font-size:13px;font-family:RodinNTLGPro;-inkscape-font-specification:RodinNTLGPro-DB;writing-mode:lr-tb;fill:#000000;fill-opacity:1;fill-rule:nonzero;stroke:none"
   transform="matrix(1,0,0,-1,654.0131,788.0442)"><tspan
     id="tspan2000"
     y="0"
     x="0 13 26 39 52 65 78 91 104 117 130 143">産業分類別就業者数の推移</tspan></text>
<g
   transform="translate(649.025,786.0011)"
   id="g2004"><path
     id="path2006"
     style="fill:#009140;fill-opacity:1;fill-rule:nonzero;stroke:none"
     d="m 0,0 c 0.148,-0.766 -0.355,-1.513 -1.121,-1.662 l -19.942,-3.877 c -0.766,-0.148 -1.514,0.356 -1.663,1.122 l -3.876,19.942 c -0.149,0.766 0.356,1.514 1.121,1.662 l 19.943,3.876 c 0.766,0.149 1.513,-0.355 1.662,-1.12 z" /></g><text
   id="text2010"
   style="font-variant:normal;font-weight:normal;font-stretch:normal;font-size:22px;font-family:RodinNTLGPro;-inkscape-font-specification:RodinNTLGPro-EB;writing-mode:lr-tb;fill:#fff100;fill-opacity:1;fill-rule:nonzero;stroke:none"
   transform="matrix(1,0,0,-1,628.4642,785.3074)"><tspan
     id="tspan2008"
     y="0"
     x="0">5</tspan></text>
<text
   id="text2014"
   style="font-variant:normal;font-weight:normal;font-stretch:normal;font-size:13px;font-family:RodinNTLGPro;-inkscape-font-specification:RodinNTLGPro-DB;writing-mode:lr-tb;fill:#000000;fill-opacity:1;fill-rule:nonzero;stroke:none"
   transform="matrix(1,0,0,-1,654.0131,322.8548)"><tspan
     id="tspan2012"
     y="0"
     x="0 13 26 39 52 65 78 91 104 117 130">専・兼業別農家数の推移</tspan></text>
<g
   transform="translate(649.025,320.8112)"
   id="g2016"><path
     id="path2018"
     style="fill:#009140;fill-opacity:1;fill-rule:nonzero;stroke:none"
     d="m 0,0 c 0.148,-0.766 -0.355,-1.514 -1.121,-1.662 l -19.942,-3.876 c -0.766,-0.149 -1.514,0.355 -1.663,1.12 l -3.876,19.943 c -0.149,0.766 0.356,1.513 1.121,1.662 l 19.943,3.876 c 0.766,0.149 1.513,-0.355 1.662,-1.121 z" /></g><text
   id="text2022"
   style="font-variant:normal;font-weight:normal;font-stretch:normal;font-size:22px;font-family:RodinNTLGPro;-inkscape-font-specification:RodinNTLGPro-EB;writing-mode:lr-tb;fill:#fff100;fill-opacity:1;fill-rule:nonzero;stroke:none"
   transform="matrix(1,0,0,-1,628.4642,320.118)"><tspan
     id="tspan2020"
     y="0"
     x="0">8</tspan></text>
<text
   id="text2026"
   style="font-variant:normal;font-weight:normal;font-stretch:normal;font-size:13px;font-family:RodinNTLGPro;-inkscape-font-specification:RodinNTLGPro-DB;writing-mode:lr-tb;fill:#000000;fill-opacity:1;fill-rule:nonzero;stroke:none"
   transform="matrix(1,0,0,-1,653.4467,560.2005)"><tspan
     id="tspan2024"
     y="0"
     x="0 13 26 39 52 65 78 91">販売農家数の推移</tspan></text>
<g
   transform="translate(648.4586,558.1574)"
   id="g2028"><path
     id="path2030"
     style="fill:#009140;fill-opacity:1;fill-rule:nonzero;stroke:none"
     d="m 0,0 c 0.148,-0.765 -0.356,-1.513 -1.121,-1.662 l -19.943,-3.876 c -0.765,-0.149 -1.513,0.355 -1.662,1.121 l -3.877,19.942 c -0.148,0.766 0.356,1.514 1.122,1.662 l 19.942,3.877 c 0.766,0.148 1.514,-0.356 1.662,-1.121 z" /></g><text
   id="text2034"
   style="font-variant:normal;font-weight:normal;font-stretch:normal;font-size:22px;font-family:RodinNTLGPro;-inkscape-font-specification:RodinNTLGPro-EB;writing-mode:lr-tb;fill:#fff100;fill-opacity:1;fill-rule:nonzero;stroke:none"
   transform="matrix(1,0,0,-1,627.8975,557.4637)"><tspan
     id="tspan2032"
     y="0"
     x="0">6</tspan></text>
<text
   id="text2038"
   style="font-variant:normal;font-weight:normal;font-stretch:normal;font-size:13px;font-family:RodinNTLGPro;-inkscape-font-specification:RodinNTLGPro-DB;writing-mode:lr-tb;fill:#000000;fill-opacity:1;fill-rule:nonzero;stroke:none"
   transform="matrix(1,0,0,-1,923.5864,563.0355)"><tspan
     id="tspan2036"
     y="0"
     x="0 13 26 39 52 65 78">耕地面積の推移</tspan></text>
<g
   transform="translate(918.5983,560.9919)"
   id="g2040"><path
     id="path2042"
     style="fill:#009140;fill-opacity:1;fill-rule:nonzero;stroke:none"
     d="m 0,0 c 0.149,-0.765 -0.355,-1.513 -1.121,-1.662 l -19.942,-3.876 c -0.766,-0.149 -1.513,0.355 -1.663,1.121 l -3.876,19.943 c -0.149,0.765 0.356,1.513 1.121,1.661 l 19.943,3.877 c 0.766,0.149 1.513,-0.356 1.662,-1.121 z" /></g><text
   id="text2046"
   style="font-variant:normal;font-weight:normal;font-stretch:normal;font-size:22px;font-family:RodinNTLGPro;-inkscape-font-specification:RodinNTLGPro-EB;writing-mode:lr-tb;fill:#fff100;fill-opacity:1;fill-rule:nonzero;stroke:none"
   transform="matrix(1,0,0,-1,898.0375,560.2986)"><tspan
     id="tspan2044"
     y="0"
     x="0">7</tspan></text>
</g></g></svg>
