<svg xmlns="http://www.w3.org/2000/svg" width="240" height="200"><path fill="#58b847" d="M143.8 35.66s30.819 11.277 45.51 38.164l46.426-38.164h-91.936zm-5.737 2l2.063-3.068-23.684-32.781-27.1 35.873H4.262l36.725 30.609s1.752 2.493 12.59 2.493h10.7l-44.019 58.228h39.345c7.9 0 10.4-2.635 12.59-5.25l42.779-55.445c26.5-.668 48.764 21.467 48.764 47.986s-21.488 48-48 48c-22.564 0-41.484-15.578-46.614-36.559l-5.666 7.355c7.9 22.22 29.114 37.416 52.981 37.416a56.31 56.31 0 0 0 30.7-9.129h6.339c-10.52 8.3-23.607 12.826-37 12.826-24.65 0-46.7-15.2-55.6-37.7l-6.168 8c11.44 23.316 35.5 38.56 61.8 38.56 19.123 0 36.2-7.9 49.2-21.719h5c-13.816 16.168-32.837 25.414-54.139 25.414-27.115 0-52-15.367-64.312-39.03l-6.608 8.574c14.238 23.885 40.34 39.844 70.17 39.844 45.2 0 81.2-36.648 81.2-81.84 0-37.272-24.786-68.747-58.856-78.688l.004.024h0z"/></svg>