<svg xmlns="http://www.w3.org/2000/svg" width="250" height="250"><path d="M118.922 174.111l-6.323 56.619 11.834 11.668 11.833-11-7.811-57.393c-1.835.215-3.372.301-5.266.301a41.26 41.26 0 0 1-4.267-.195zM86.765 209.73c-18.314 6.58-27.832-7.332-36.832-15.832s-4.334-19.668-4.334-19.668c-21.666-6.166-23.451-37.492-18.666-48.5 3.332-7.666 12.577-15 25.744-14 9.972.757 19.598 4.115 23.852 5.736.599-3.173 1.43-5.831 2.624-8.748l-53.754-19.18s-12.783-2.576-17.073 10.644-9.061 46.716 9.436 77.173c5.174 8.521 12.604 6.912 12.604 6.912s-5.966 6.857.067 14.797c19.5 25.666 48 36.834 61.833 38.166s15.667-9.5 15.667-9.5l8.479-53.912c-2.949-.42-5.224-.922-7.973-1.857-.895 8.945-4.506 31.603-21.674 37.769zM37.438 63.438L20.409 65.82l6.577 16.755 53.565 23.04c1.283-2.632 2.664-4.847 4.393-7.179L37.438 63.438zm170.366-22.891c-9.02-10.573-35.705-32.945-73.701-32.344-9.969.158-12.485 7.125-12.485 7.125s-2.698-8.369-12.646-7.687C74.849 9.98 52.876 28.321 44.501 39.412s.488 19.271.488 19.271L87.653 95.11c1.98-2.223 3.78-3.955 6.142-5.774-5.462-4.356-27.779-20.939-23.242-39.794 4.553-18.92 28.336-23.039 33.618-23.58 11.144-1.141 19.027 8.599 19.027 8.599 17.15-16.33 41.223-2.365 48.098 7.473 4.789 6.852 2.803 21.404-2.611 28.739-5.881 7.967-13.522 14.909-17.158 17.751 2.629 1.916 4.701 3.82 6.885 6.223l48.529-36.083c-.001.001 9.882-7.544.863-18.117zm18.446 28.155l-17.238-4.368-48.496 32.913c2.13 2.646 3.729 5.207 5.26 8.274l53.641-19.919 6.833-16.9zm15.183 29.112c-5.952-12.558-16.723-8.384-16.723-8.384l-57.305 19.74c1.073 2.701 1.807 5.008 2.373 7.925 7.433-3.347 31.32-12.782 45.2-.774 14.717 12.732 7.995 32.033 4.449 44.25-3.45 11.889-16.657 11.811-16.657 11.811 5.821 21.764-17.151 35.367-29.054 36.906-8.29 1.074-19.831-5.918-25.729-17.73-4.552-9.121-7.156-17.102-7.909-20.352-2.855 1.117-5.403 1.797-8.498 2.348l10.857 56.621s1.348 11.295 14.896 8.193 46.746-11.191 63.401-42.693c4.66-8.814.465-14.365.465-14.365s8.313-1.238 13.667-9.65c13.483-21.18 12.521-61.288 6.567-73.846zm-94.142-12.098l3.866-6.581a54.73 54.73 0 0 0-27.892-7.612c-11.081 0-21.4 3.301-30.049 8.954l4.12 6.324c7.444-4.83 16.317-7.646 25.853-7.646 8.798 0 17.033 2.397 24.102 6.561zM75.613 126.73l.161-3.752-7.428-.567-.164 4.194c0 21.902 12.852 40.855 31.407 49.727l3.158-6.633c-16.043-7.646-27.134-24.011-27.134-42.969zm102.564-4.416l-7.578.592.167 3.824c0 18.352-10.397 34.266-25.616 42.201l3.404 6.584c17.681-9.178 29.795-27.65 29.795-48.91 0-1.445-.063-2.874-.172-4.291zm7.974-.624l-4.984.39.182 4.525c0 22.418-12.773 41.896-31.418 51.574l2.296 4.439c20.248-10.512 34.122-31.666 34.122-56.014 0-1.652-.072-3.291-.198-4.914zm-120.968 4.915l.174-4.423-4.985-.381-.188 4.804c0 25.084 14.718 46.789 35.969 56.949l2.148-4.514c-19.568-9.354-33.118-29.339-33.118-52.435zm58.083-58.082a57.71 57.71 0 0 1 29.411 8.027l2.532-4.309c-9.377-5.53-20.292-8.718-31.943-8.718-12.69 0-24.509 3.78-34.413 10.254l2.728 4.188c9.119-5.962 20-9.442 31.685-9.442zm0 16.75c-11.614 0-22.118 4.822-29.634 12.561l6.5 6.216c5.875-6.025 14.072-9.777 23.134-9.777 12.354 0 23.107 6.967 28.55 17.177H84.829a41.04 41.04 0 0 0-2.896 15.156c0 22.791 18.542 41.334 41.333 41.334 12.944 0 24.513-5.986 32.098-15.33l-6.952-5.709c-5.933 7.336-14.998 12.039-25.146 12.039-12.255 0-22.938-6.854-28.421-16.928h66.767a41.06 41.06 0 0 0 2.987-15.406c0-22.791-18.542-41.333-41.333-41.333zm-3.417 47.957h-28.23c-.447-2.139-.686-4.354-.686-6.625 0-2.183.229-4.313.646-6.375h28.271v13zm8 0v-13h27.115c.414 2.062.635 4.193.635 6.375 0 2.273-.249 4.486-.7 6.625h-27.05z"/></svg>