<?xml version="1.0" encoding="utf-8"?>
<svg viewBox="0 0 765 765" xmlns="http://www.w3.org/2000/svg">
  <ellipse style="fill: rgb(60, 55, 142);" cx="382.5" cy="382.5" rx="373.37" ry="373.37" transform="matrix(1, 0, 0, 1, 0, -1.1368683772161603e-13)"/>
  <g transform="matrix(1, 0, 0, 1, 89.49997711181686, 203.407012939453)">
    <path d="M 293 -164 C 482.486 -164 636.093 -10.393 636.093 179.104 C 636.093 358.833 497.849 506.199 321.906 520.888 L 321.906 479.106 C 474.801 464.544 594.421 335.812 594.421 179.104 C 594.421 12.629 459.477 -122.317 293 -122.317 C 126.545 -122.317 -8.399 12.629 -8.399 179.104 C -8.399 336.117 111.062 465.079 264.383 479.236 L 264.383 470.756 L 305.868 470.756 L 305.868 521.869 C 301.589 522.037 297.32 522.186 293 522.186 C 103.514 522.186 -50.093 368.588 -50.093 179.104 C -50.093 -10.393 103.514 -164 293 -164 Z" fill="#C1CDD8" fill-rule="evenodd"/>
    <path d="M 293.008 -107.835 C 451.014 -107.835 579.09 20.282 579.09 178.337 C 579.09 326.6 466.377 448.518 321.987 463.05 L 321.987 420.825 C 443.229 406.462 537.312 303.455 537.312 178.337 C 537.312 43.367 427.935 -66.027 293.008 -66.027 C 158.084 -66.027 48.707 43.367 48.707 178.337 C 48.707 313.298 158.084 422.703 293.008 422.703 C 297.369 422.703 301.608 422.286 305.908 422.047 L 305.908 470.798 L 264.32 470.798 L 264.32 463.02 C 120.059 448.361 6.91 326.499 6.91 178.337 C 6.91 20.282 135.005 -107.835 293.008 -107.835 Z" fill="#BD9E7B" fill-rule="evenodd"/>
    <path d="M 293.005 29.833 C 355.463 29.833 413.496 45.8 459.013 71.793 C 462.932 128.975 447.988 193.887 412.939 254.473 C 381.878 308.103 340.023 349.804 295.023 376.152 C 258.898 355.003 222.188 323.961 193.057 284.812 C 233.073 277.001 269.425 255.555 293.453 224.623 C 300.286 215.83 306.783 206.591 312.513 196.666 C 321.388 181.344 328.183 165.276 333.368 149.199 C 320.203 146.996 306.763 145.478 293.005 145.478 C 279.234 145.478 265.784 146.996 252.641 149.199 C 257.814 165.276 264.601 181.333 273.484 196.666 C 276.281 201.508 279.404 206.243 282.766 210.897 C 258.659 241.662 222.666 263.295 182.183 269.251 C 179.019 264.426 175.975 259.505 173.069 254.473 C 137.998 193.887 123.066 128.975 126.987 71.793 C 172.501 45.8 230.545 29.833 293.005 29.833 Z" fill="#BEA478" fill-rule="evenodd"/>
  </g>
</svg>