<svg xmlns="http://www.w3.org/2000/svg" width="200" height="180"><path fill="#7dc442" d="M105.129 78.573c2.098-11.443-.393-21.375-4.75-27.098-7.207-9.462-18.501-22.912-41.669-22.824-8.232.031-17.328 3.377-28.521 10.352 0 0 19.964-22.134 53.11-24.822 8.429-.683 18.057-.594 27.194 2.92 35.592 13.688 40.867 44.11 34.5 67.867l-39.864-6.395z"/><path fill="#016028" d="M190.525 51.631C167.225 7.216 105.018 4.63 105.018 4.63s33.281 9.974 48.855 43.783c4.023 8.737 8.514 21.04 7.428 32.531-26.902-16.507-65.589-22.868-83.66-21.863C50.292 60.6 5.547 69.119 2.202 110.793c-1.461 18.193 19.469 43.195 50.8 54.449 42.123 15.133 73.309 8.822 73.309 8.822-56.579-3.955-76.917-32.908-73.917-46.541 3.346-15.209 24.078-29.793 52.33-28.223 18.885 1.049 33.359 4.492 44.482 8.334-29.586 34.186-77.125 28.676-77.125 28.676 9.114 7.887 45.951 15.023 77.439 3.967 10.199-3.582 19.746-9.119 27.639-16.158 8.982 10.031 8.773 19.223 8.773 19.223 4.813-11.975 5.428-21.504 2.564-30.676 10.873-15.814 13.231-39.682 2.029-61.035z"/><path fill="#7dc442" d="M104.713 99.234a73.54 73.54 0 0 0-8.229.006c-5.878 8.758-14.872 17.496-27.969 25.242-5.829 3.449-11.287 5.637-16.366 6.857-31.533 7.57-48.426-22.371-48.426-22.371 9.829 32.953 35.006 45.264 60.942 43.473 8.577-.592 17.237-2.725 25.452-6.166 1.426-.596 2.838-1.248 4.236-1.939-10.427-1.791-18.533-4.826-22.188-7.99 0 0 20.097 2.299 41.754-5.018 10.529-8.809 18.723-18.73 22.504-25.4l1.217-2.229c-9.138-2.162-20.001-3.746-32.927-4.465z"/></svg>