<?xml version="1.0" encoding="utf-8"?>
<!-- created with Adobe Illustrator, saved as plain SVG -->
<!DOCTYPE svg PUBLIC "-//W3C//DTD SVG 1.1//EN" "http://www.w3.org/Graphics/SVG/1.1/DTD/svg11.dtd">
<svg
 xmlns="http://www.w3.org/2000/svg"
 version="1.1"
 width="500"
 height="500px"
 id="Onagawa-town"
 viewBox="0 0 500 500"
 overflow="visible"
 xml:space="preserve"
>

<path id="path0" d="M378.284,35.207c-0.271-0.171-0.536-0.349-0.813-0.515c-17.721-10.554-40.646-4.743-51.199,12.979
	c-10.556,17.724-4.743,40.646,12.979,51.199c17.723,10.555,40.646,4.742,51.199-12.979c0.118-0.2,0.225-0.405,0.341-0.606
	c46.142,39.73,75.377,98.547,75.377,164.215c0,119.662-97.006,216.666-216.666,216.666c-119.661,0-216.668-97.004-216.668-216.666
	c0-65.668,29.235-124.482,75.378-164.214c0.115,0.202,0.22,0.406,0.341,0.607c10.554,17.721,33.476,23.532,51.198,12.979
	c17.722-10.553,23.533-33.476,12.979-51.199c-10.556-17.722-33.478-23.533-51.2-12.979c-0.292,0.173-0.57,0.359-0.854,0.539
	C48.073,78.979-0.498,158.56-0.498,249.502c0,138.069,111.928,249.997,249.998,249.997c138.072,0,250-111.928,250-249.997
	C499.499,158.541,450.91,78.947,378.284,35.207z"/>
<path id="path1" d="M272.446,317.405c11.31-11.062,21.228-23.637,29.345-37.689c8.118-14.064,14.054-28.964,17.982-44.311
	c39.099,20.669,70.646,58.014,86.694,104.729l27.642-7.389c-19.317-57.788-59.516-103.445-109.326-126.725
	c4.746-54.755-14.701-112.346-55.055-157.953L249.5,68.348l-20.188-20.259c-40.345,45.604-59.842,103.167-55.1,157.915
	c-49.825,23.272-89.955,68.976-109.273,126.763l27.626,7.379l-7.427,27.632c59.693,12.144,119.319,0.179,164.374-31.333
	c45.057,31.491,104.678,43.482,164.372,31.331l-7.414-27.638C357.992,349.588,309.888,340.932,272.446,317.405z M277.047,265.433
	c-7.492,12.975-16.804,24.492-27.547,34.439c-10.739-9.945-20.063-21.458-27.553-34.438c-7.5-12.995-12.819-26.839-16.068-41.136
	c13.994-4.333,28.631-6.644,43.621-6.644c14.992,0,29.62,2.317,43.614,6.647C289.867,238.598,284.55,252.439,277.047,265.433z
	 M249.517,68.327c32.388,37.227,48.968,83.163,47.329,127.316c-15.249-4.272-31.105-6.561-47.347-6.561
	c-16.234,0-32.094,2.307-47.344,6.575C200.511,151.494,217.121,105.559,249.517,68.327z M92.565,340.143
	c16.047-46.716,47.548-84.1,86.649-104.763c3.926,15.358,9.865,30.266,17.99,44.34c8.117,14.06,18.029,26.65,29.354,37.715
	C189.127,340.961,141.024,349.58,92.565,340.143z"/>
</svg>
