<svg xmlns="http://www.w3.org/2000/svg" viewBox="0 0 300 300" height="300" width="300">
<path fill="#0598db" d="M166.913 254.466c2.638.836 81.22 17.098 112.085-.417 0 0-43.454 26.48-99.902 19.391 0 0-16.247-2.71-31.07-7.298s-46.091-11.887-58.682-13.554c-12.589-1.665-50.153-7.085-80.408 4.589 0 0 31.065-16.471 75.942-16.888 0 0 21.74-.002 37.843 4.093l44.192 10.084m30.394 34.851c13.858 2.092 35.853 4.936 59.557-1.88 0 0-35.939 15.428-70.257 12.09 0 0-17.056-.833-38.78-8.13-18.067-6.067-40.41-12.928-49.344-14.387-8.936-1.458-44.672-9.8-72.897-1.667 0 0 32.488-14.596 80.61-7.51 0 0 13.21 2.184 19.902 4.379 3.96 1.301 41.363 11.948 57.037 14.744 0 0 11.07 1.893 14.172 2.361m17.108-178.265c-30.974-2.598-46.689 22.69-46.689 22.69-19.196-6.457-34.523-.88-38.43.805 15.204-23.421 46.245-43.126 81.772-49.325 49.87-8.698 89.67 12.5 88.896 47.355-.633 28.486-28.195 57.273-65.476 71.586 15.745-27.872-9.009-40.603-9.009-40.603s12.927-6.048 16.89-20.434c4.32-15.685-5.134-24.19-11.386-27.599 0 0-5.202-3.782-16.568-4.475M69.918 225.509c14.424.227 43.632 3.783 78.237 13.32 40.85 11.26 54.06 9.863 54.06 9.863 54.73 2.166 97.752-34.467 97.752-34.467-32.106 22.311-86.168 13.97-101.816 12.72-15.649-1.253-61.989-11.467-61.989-11.467-24.9-5.957-37.188-5.212-37.188-5.212C39.427 207.973 0 239.038 0 239.038c26.055-11.881 41.263-13.304 51.586-13.316l18.332-.213"/>
<path fill="#0caa44" d="M278.701 29.701h-66.097l8.757-17.514s2.658-5.336 9.071-12.13h-27.055s-28.95-2.71-42.526 29.332h-48.797s-16.055-.939-21.789 8.966L77.443 60.143s8.234-1.562 15.638-1.25h53.191c-1.524 3.424-12.403 27.774-17.487 29.373h-26.53s-30.025-1.33-42.64 22.334L25.21 178.883s-4.274 10.428-13.446 21.893h20.118s29.967.788 43.37-13.864c0 0 4.275-3.23 13.763-22.83l31.69-60.573s2.711-6.985 10.009-13.55h24.813s16.84 1.449 30.024-11.781c0 0 5.33-3.606 11.93-19.285h64.224s23.49 1.054 31.069-15.64c0 0 6.15-11.987 7.192-15.012 0 0-11.777 1.772-21.266 1.46"/>
<path fill="#ee7721" d="M204.248 169.11c-.34 15.333-18.408 30.87-40.352 34.698-21.945 3.827-39.458-5.5-39.117-20.833.34-15.338 18.406-30.873 40.351-34.703 21.945-3.829 39.459 5.5 39.118 20.837"/>
</svg>