<?xml version="1.0" encoding="UTF-8" standalone="no"?>
<!-- Created with Inkscape (http://www.inkscape.org/) -->

<svg
   xmlns:dc="http://purl.org/dc/elements/1.1/"
   xmlns:cc="http://creativecommons.org/ns#"
   xmlns:rdf="http://www.w3.org/1999/02/22-rdf-syntax-ns#"
   xmlns:svg="http://www.w3.org/2000/svg"
   xmlns="http://www.w3.org/2000/svg"
   xmlns:sodipodi="http://sodipodi.sourceforge.net/DTD/sodipodi-0.dtd"
   xmlns:inkscape="http://www.inkscape.org/namespaces/inkscape"
   width="500"
   height="500"
   id="svg3965"
   version="1.1"
   inkscape:version="0.48.2 r9819"
   sodipodi:docname="TEST.svg">
  <defs
     id="defs3967">
    <clipPath
       clipPathUnits="userSpaceOnUse"
       id="clipPath4145">
      <path
         sodipodi:type="arc"
         style="opacity:0.64485928;fill:#ff0000;fill-opacity:1;stroke:none"
         id="path4147"
         sodipodi:cx="408.2132"
         sodipodi:cy="565.86151"
         sodipodi:rx="192.36348"
         sodipodi:ry="192.36348"
         d="m 600.57668,565.86151 a 192.36348,192.36348 0 1 1 -384.72696,0 192.36348,192.36348 0 1 1 384.72696,0 z"
         transform="matrix(1.0116279,0,0,1.0116279,-15.930588,1.4857459)" />
    </clipPath>
  </defs>
  <sodipodi:namedview
     id="base"
     pagecolor="#ffffff"
     bordercolor="#666666"
     borderopacity="1.0"
     inkscape:pageopacity="0.0"
     inkscape:pageshadow="2"
     inkscape:zoom="0.6322529"
     inkscape:cx="428.83979"
     inkscape:cy="296.37575"
     inkscape:document-units="px"
     inkscape:current-layer="layer7"
     showgrid="false"
     inkscape:window-width="1440"
     inkscape:window-height="852"
     inkscape:window-x="0"
     inkscape:window-y="0"
     inkscape:window-maximized="1"
     showguides="true"
     inkscape:guide-bbox="true"
     objecttolerance="5"
     inkscape:snap-bbox="true"
     inkscape:snap-global="true"
     inkscape:bbox-nodes="false" />
  <metadata
     id="metadata3970">
    <rdf:RDF>
      <cc:Work
         rdf:about="">
        <dc:format>image/svg+xml</dc:format>
        <dc:type
           rdf:resource="http://purl.org/dc/dcmitype/StillImage" />
      </cc:Work>
    </rdf:RDF>
  </metadata>
  <g
     inkscape:label="Innards"
     inkscape:groupmode="layer"
     id="layer1"
     style="display:inline"
     transform="translate(0,-552.36218)" />
  <g
     inkscape:groupmode="layer"
     id="layer7"
     inkscape:label="Circle"
     style="display:inline"
     transform="translate(0,-552.36218)">
    <g
       id="g5101"
       transform="matrix(0.61241501,0,0,0.61241501,7.4656278,456.32179)">
      <path
         inkscape:connector-curvature="0"
         id="rect4754"
         d="m 438.40982,480.58411 90.03058,0 0,283.39956 -90.03058,0 z"
         clip-path="url(#clipPath4145)"
         style="fill:#006666;fill-opacity:1;stroke:none;display:inline"
         transform="matrix(-1,0,0,1,796.05827,1.9639426)" />
      <path
         inkscape:connector-curvature="0"
         id="path5079"
         d="m 383.59375,510.40625 -377.75,0 0,0.15625 10.75,20.90625 44.9375,0 5.5,9.90625 -45.34375,0 12.21875,23.71875 44.03125,0 7.90625,9.875 -46.875,0 10.625,20.625 334,0 0,-85.1875 z"
         style="fill:#006666;fill-opacity:1;stroke:none;display:inline" />
      <rect
         clip-path="url(#clipPath4145)"
         y="480.58411"
         x="438.40982"
         height="283.39957"
         width="90.030579"
         id="rect4808"
         style="fill:#006666;fill-opacity:1;stroke:none;display:inline"
         transform="translate(-2.00027,1.9639426)" />
      <path
         inkscape:connector-curvature="0"
         id="path5055"
         d="m 719.5,574.96875 c 10e-4,0.54156 0.0328,1.08344 0.0312,1.625 -0.0161,5.55138 -0.16793,11.11324 -0.46875,16.65625 -0.0425,0.78285 -0.13931,1.56123 -0.1875,2.34375 l 25.59375,0 10.625,-20.625 -35.59375,0 z"
         style="fill:#006666;fill-opacity:1;stroke:none;display:inline" />
      <path
         inkscape:connector-curvature="0"
         id="path5053"
         d="m 713,510.40625 c 1.10018,5.44103 2.05047,10.91605 2.875,16.40625 0.82453,5.4902 1.51589,11.00627 2.0625,16.53125 0.54661,5.52498 0.95234,11.04838 1.21875,16.59375 0.0825,1.71674 0.0695,3.43846 0.125,5.15625 l 40.875,0 12.21875,-23.71875 -25.625,0 4.125,-9.90625 26.59375,0 10.75,-20.90625 0,-0.15625 -75.21875,0 z"
         style="fill:#006666;fill-opacity:1;stroke:none;display:inline" />
      <path
         inkscape:connector-curvature="0"
         id="path5076"
         d="m 410.46875,510.40625 0,85.1875 288.375,0 c 0.0772,-1.09841 0.21616,-2.1795 0.28125,-3.28125 0.33923,-5.74157 0.5,-11.51438 0.5,-17.34375 0,-5.53957 -0.14028,-11.03385 -0.4375,-16.5 -0.29722,-5.46615 -0.7591,-10.89603 -1.34375,-16.28125 -0.58465,-5.38522 -1.29395,-10.73448 -2.15625,-16.03125 -0.8623,-5.29677 -1.86984,-10.54918 -3,-15.75 l -282.21875,0 z"
         style="fill:#006666;fill-opacity:1;stroke:none;display:inline" />
      <path
         inkscape:connector-curvature="0"
         id="path4091"
         d="m 397.03125,272.375 c -134.46076,0 -248.42111,87.68733 -287.84375,209 l 92.90625,0 c 34.38615,-73.17153 108.74186,-123.84375 194.9375,-123.84375 86.19564,0 160.55135,50.67222 194.9375,123.84375 l 92.875,0 c -39.41473,-121.31267 -153.35174,-209 -287.8125,-209 z m -295.6875,238.03125 c -4.521584,20.80326 -6.9375,42.40423 -6.9375,64.5625 0,152.2674 112.48007,278.23307 258.875,299.4375 l 30,-86.71875 C 270.78594,780.59906 181.75,687.12759 181.75,572.84375 c 0,-21.71382 3.24004,-42.67403 9.21875,-62.4375 l -89.625,0 z m 501.75,0 c 5.97871,19.76347 9.21875,40.72368 9.21875,62.4375 0,114.28384 -89.03594,207.75531 -201.53125,214.84375 l 30,86.71875 C 587.17156,853.20182 699.625,727.23615 699.625,574.96875 c 0,-22.15827 -2.41687,-43.75924 -6.9375,-64.5625 l -89.59375,0 z"
         style="fill:#006666;fill-opacity:1;stroke:none;display:inline" />
    </g>
  </g>
</svg>
