<?xml version="1.0" encoding="UTF-8" standalone="no"?>
<!-- Created with Inkscape (http://www.inkscape.org/) -->

<svg
   xmlns:dc="http://purl.org/dc/elements/1.1/"
   xmlns:cc="http://creativecommons.org/ns#"
   xmlns:rdf="http://www.w3.org/1999/02/22-rdf-syntax-ns#"
   xmlns:svg="http://www.w3.org/2000/svg"
   xmlns="http://www.w3.org/2000/svg"
   xmlns:sodipodi="http://sodipodi.sourceforge.net/DTD/sodipodi-0.dtd"
   xmlns:inkscape="http://www.inkscape.org/namespaces/inkscape"
   width="500"
   height="500"
   id="svg6046"
   version="1.1"
   inkscape:version="0.48.2 r9819"
   sodipodi:docname="YOKTOE.svg">
  <defs
     id="defs6048" />
  <sodipodi:namedview
     id="base"
     pagecolor="#ffffff"
     bordercolor="#666666"
     borderopacity="1.0"
     inkscape:pageopacity="0.0"
     inkscape:pageshadow="2"
     inkscape:zoom="0.6322529"
     inkscape:cx="598.67846"
     inkscape:cy="475.26431"
     inkscape:document-units="px"
     inkscape:current-layer="layer1"
     showgrid="false"
     inkscape:window-width="1440"
     inkscape:window-height="852"
     inkscape:window-x="0"
     inkscape:window-y="0"
     inkscape:window-maximized="0"
     showguides="true"
     inkscape:guide-bbox="true" />
  <metadata
     id="metadata6051">
    <rdf:RDF>
      <cc:Work
         rdf:about="">
        <dc:format>image/svg+xml</dc:format>
        <dc:type
           rdf:resource="http://purl.org/dc/dcmitype/StillImage" />
        <dc:title></dc:title>
      </cc:Work>
    </rdf:RDF>
  </metadata>
  <g
     inkscape:label="Layer 1"
     inkscape:groupmode="layer"
     id="layer1"
     transform="translate(0,-552.36218)">
    <g
       id="g6154"
       transform="matrix(1.0239486,0,0,1.0239486,-506.0297,226.99121)">
      <path
         id="path6152"
         d="m 709.40213,736.89694 c -42.5357,-2.70473 -80.97736,-33.02687 -94.02553,-74.16575 -3.42139,-10.7871 -3.10581,-11.98453 1.34498,-5.10342 15.30544,23.66285 48.10423,35.52649 74.68055,27.01267 40.17244,-12.86937 50.47867,-60.19869 19.89417,-91.35997 l -7.1181,-7.25233 4.94542,-7.01938 c 35.3398,-50.16027 108.20979,-77.42201 196.27851,-73.43069 l 18,0.81577 -11.5,1.30551 c -45.39991,5.15391 -87.58422,26.77617 -105.46255,54.05657 l -2.76763,4.2231 3.70337,5.57936 c 15.41362,27.90191 22.53085,60.0414 14.21979,87.75851 -15.60638,50.69802 -59.34207,80.94069 -112.19298,77.58005 z"
         style="fill:#08529c;fill-opacity:1"
         inkscape:connector-curvature="0" />
      <path
         id="path6150"
         d="m 608.07677,624.39124 c -12.86301,-60.22963 16.54968,-107.1315 86.85762,-138.5043 33.97127,-15.15865 58.83316,-21.18846 139.46774,-33.82538 65.06349,-10.19664 96.46668,-20.10535 124.8666,-39.39939 l 9.8666,-6.70307 -2.7499,4.78685 c -18.83605,32.78838 -51.41253,51.45807 -136.4833,78.21906 -144.45106,45.44045 -185.61551,70.09259 -215.01628,128.76672 l -5.77148,11.51795 z"
         style="fill:#319c18;fill-opacity:1"
         inkscape:connector-curvature="0" />
      <path
         id="path6127"
         d="m 613.06564,522.98883 c -27.72054,-16.80515 -64.46445,-20.57719 -97.36901,-9.99566 -11.15108,3.58599 -10.75236,3.99676 -4.47943,-4.61483 38.1531,-52.37717 94.17506,-85.16183 163.18493,-95.49758 18.69223,-2.79958 81.50625,-0.52087 78.15032,2.83506 -0.23762,0.23762 -4.86864,1.33201 -10.29117,2.43198 -54.73678,11.10349 -104.00766,53.22421 -121.10899,103.53372 l -1.75016,5.14871 z"
         style="fill:#e77308;fill-opacity:1"
         inkscape:connector-curvature="0" />
    </g>
  </g>
</svg>
