<?xml version="1.0" encoding="UTF-8" standalone="no"?>
<!-- Created with Inkscape (http://www.inkscape.org/) -->

<svg
   xmlns:dc="http://purl.org/dc/elements/1.1/"
   xmlns:cc="http://creativecommons.org/ns#"
   xmlns:rdf="http://www.w3.org/1999/02/22-rdf-syntax-ns#"
   xmlns:svg="http://www.w3.org/2000/svg"
   xmlns="http://www.w3.org/2000/svg"
   xmlns:xlink="http://www.w3.org/1999/xlink"
   xmlns:sodipodi="http://sodipodi.sourceforge.net/DTD/sodipodi-0.dtd"
   xmlns:inkscape="http://www.inkscape.org/namespaces/inkscape"
   version="1.1"
   width="500"
   height="500"
   id="svg2"
   xml:space="preserve"
   inkscape:version="0.48.2 r9819"
   sodipodi:docname="Symbol of Yuzawa, Akita.svg"><sodipodi:namedview
     pagecolor="#ffffff"
     bordercolor="#666666"
     borderopacity="1"
     objecttolerance="10"
     gridtolerance="10"
     guidetolerance="10"
     inkscape:pageopacity="0"
     inkscape:pageshadow="2"
     inkscape:window-width="1440"
     inkscape:window-height="852"
     id="namedview10"
     showgrid="false"
     inkscape:zoom="0.99916667"
     inkscape:cx="328.89908"
     inkscape:cy="297.50962"
     inkscape:window-x="0"
     inkscape:window-y="0"
     inkscape:window-maximized="1"
     inkscape:current-layer="svg2" /><defs
     id="defs6" /><g
     id="g2987"
     transform="translate(-198.1568,50.043369)"><path
       inkscape:connector-curvature="0"
       style="fill:#00ab4e;fill-opacity:1;fill-rule:nonzero;stroke:none"
       id="path618"
       d="m 292.37395,201.33933 c 0,-69.64219 32.015,-131.75894 82.14208,-172.49834 -83.49411,13.0866 -147.37104,85.3053 -147.37104,172.49834 0,87.11651 63.87693,159.41172 147.37104,172.49833 -50.12708,-40.76491 -82.14208,-102.85615 -82.14208,-172.49833" /><use
       xlink:href="#path618"
       height="600"
       width="900"
       y="0"
       x="0"
       id="use3706"
       transform="matrix(-1,0,0,1,900,0)" /><path
       inkscape:connector-curvature="0"
       style="fill:#007dc5;fill-opacity:1;fill-rule:nonzero;stroke:none"
       id="path622"
       d="m 377.016,196.74752 c 0,-55.25456 25.96914,-104.41224 66.3514,-135.99358 -66.3514,9.7193 -117.37133,66.88711 -117.37133,135.99359 0,69.08097 51.01993,126.2743 117.37133,135.94257 C 402.98514,301.10878 377.016,251.97659 377.016,196.74753" /><path
       inkscape:connector-curvature="0"
       style="fill:#f36f21;fill-opacity:1;fill-rule:nonzero;stroke:none"
       id="path624"
       d="m 393.06176,-37.7145 c 51.60665,57.6525 84.23389,142.75373 84.23389,237.75281 0,94.87154 -32.62724,179.99827 -84.23389,237.67629 86.75936,-19.54063 152.80465,-118.57029 152.80465,-237.67629 0,-119.23355 -66.04529,-218.212185 -152.80465,-237.75281" /></g><metadata
     id="metadata3708"><rdf:RDF><cc:Work
         rdf:about=""><dc:title /><dc:format>image/svg+xml</dc:format><dc:type
           rdf:resource="http://purl.org/dc/dcmitype/StillImage" /></cc:Work></rdf:RDF></metadata></svg>