<?xml version="1.0" encoding="UTF-8" standalone="no"?>
<!-- Created with Inkscape (http://www.inkscape.org/) -->

<svg
   xmlns:dc="http://purl.org/dc/elements/1.1/"
   xmlns:cc="http://creativecommons.org/ns#"
   xmlns:rdf="http://www.w3.org/1999/02/22-rdf-syntax-ns#"
   xmlns:svg="http://www.w3.org/2000/svg"
   xmlns="http://www.w3.org/2000/svg"
   xmlns:sodipodi="http://sodipodi.sourceforge.net/DTD/sodipodi-0.dtd"
   xmlns:inkscape="http://www.inkscape.org/namespaces/inkscape"
   width="500"
   height="500"
   id="svg2"
   version="1.1"
   inkscape:version="0.48.2 r9819"
   sodipodi:docname="Noshiro.svg">
  <defs
     id="defs4">
    <clipPath
       clipPathUnits="userSpaceOnUse"
       id="clipPath3881">
      <path
         style="fill:#3a98ef;fill-opacity:1"
         d="M 521.06531,774.08329 C 412.40854,749.67176 381.96065,606.8507 471.55462,541.84491 c 11.5232,-8.36077 12.63715,-7.53513 5.48843,4.06793 -12.66422,20.55523 -16.07589,50.6247 -8.50718,74.97977 20.05532,64.53532 101.76263,86.55029 127.46395,34.34351 27.23839,-55.32904 -46.26215,-102.46094 -87.50139,-56.10988 -10.6548,11.97553 -10.96889,0.91087 -0.57707,-20.32924 31.54219,-64.46992 124.06759,-58.18606 156.75582,10.64606 46.31012,97.51594 -39.62552,208.00247 -143.61187,184.64023 z"
         id="path3883"
         inkscape:connector-curvature="0" />
    </clipPath>
  </defs>
  <sodipodi:namedview
     id="base"
     pagecolor="#ffffff"
     bordercolor="#666666"
     borderopacity="1.0"
     inkscape:pageopacity="0.0"
     inkscape:pageshadow="2"
     inkscape:zoom="0.93174956"
     inkscape:cx="218.54602"
     inkscape:cy="212.84297"
     inkscape:document-units="px"
     inkscape:current-layer="g2991"
     showgrid="false"
     inkscape:window-width="1440"
     inkscape:window-height="852"
     inkscape:window-x="0"
     inkscape:window-y="0"
     inkscape:window-maximized="1"
     objecttolerance="10000" />
  <metadata
     id="metadata7">
    <rdf:RDF>
      <cc:Work
         rdf:about="">
        <dc:format>image/svg+xml</dc:format>
        <dc:type
           rdf:resource="http://purl.org/dc/dcmitype/StillImage" />
        <dc:title />
      </cc:Work>
    </rdf:RDF>
  </metadata>
  <g
     transform="translate(0,-552.36217)"
     inkscape:label="Original"
     inkscape:groupmode="layer"
     id="g2991"
     style="display:inline">
    <g
       id="g3795">
      <path
         style="fill:#2aa20e;fill-opacity:1;display:inline"
         d="m 249.02948,1006.4503 c 184.01328,-95.18507 82.96758,-390.61163 -106.97881,-312.77312 -13.85552,5.67788 -14.96778,5.83149 -16.94714,2.34057 -11.28125,-19.8963 -34.06201,-28.71579 -53.35311,-20.65545 -10.54752,4.40703 -10.59963,3.29489 -0.45957,-9.809 34.87188,-45.06454 81.41206,-56.151 95.27017,-22.69456 2.99528,7.23124 3.88476,7.04701 20.54763,-4.25588 154.98619,-105.13149 333.31966,49.78381 267.2541,232.15915 -30.154,83.24076 -104.58166,137.99089 -192.62292,141.69649 -26.4799,1.1145 -26.4799,1.1145 -12.71035,-6.0082 z"
         id="path2993"
         inkscape:connector-curvature="0" />
      <path
         inkscape:connector-curvature="0"
         transform="translate(0,552.36217)"
         id="path3025"
         d="m 271.125,204.53125 c 0.28435,4.20983 0.5814,8.44088 0.5625,12.40625 -0.0255,5.34365 -0.33327,10.47126 -0.875,15.375 -0.54173,4.90374 -1.3253,9.56278 -2.34375,14.03125 -1.01845,4.46847 -2.2631,8.74341 -3.71875,12.78125 -1.45565,4.03784 -3.11545,7.85691 -4.96875,11.46875 -1.8533,3.61184 -3.91357,6.99702 -6.125,10.1875 -2.21143,3.19048 -4.59498,6.195 -7.125,8.96875 -2.53002,2.77375 -5.19093,5.32584 -8,7.6875 -2.80907,2.36166 -5.7639,4.51455 -8.8125,6.46875 -3.0486,1.9542 -6.18892,3.69863 -9.4375,5.25 -3.24858,1.55137 -6.59096,2.90932 -10,4.0625 -3.40904,1.15318 -6.90754,2.11537 -10.4375,2.875 -3.52996,0.75963 -7.1074,1.31679 -10.71875,1.6875 -3.61135,0.37071 -7.25305,0.54482 -10.90625,0.53125 -3.6532,-0.0136 -7.31323,-0.20053 -10.96875,-0.59375 -2.23073,-0.23996 -4.43651,-0.68256 -6.65625,-1.0625 -30.3226,-2.38394 -63.010364,-25.41774 -74.71875,-63.09375 -7.56871,-24.35507 -4.16422,-54.41352 8.5,-74.96875 7.14872,-11.60306 6.0232,-12.45452 -5.5,-4.09375 -89.59397,65.00579 -59.15677,207.83847 49.5,232.25 103.98635,23.36224 189.93512,-87.10906 143.625,-184.625 -3.07791,-6.4812 -6.83692,-12.22851 -10.875,-17.59375 z"
         style="fill:#121dba;fill-opacity:1" />
      <path
         inkscape:connector-curvature="0"
         transform="translate(0,552.36217)"
         id="path2995"
         d="m 191.53125,166.78125 c -27.02732,1.80729 -52.48154,16.48191 -66.28125,44.6875 -10.39182,21.24011 -10.0923,32.28803 0.5625,20.3125 41.23924,-46.35106 114.73839,0.79596 87.5,56.125 -10.69677,21.72823 -31.10171,30.44952 -52.71875,28.75 2.21974,0.37994 4.42552,0.82254 6.65625,1.0625 3.65552,0.39322 7.31555,0.58018 10.96875,0.59375 3.6532,0.0136 7.2949,-0.16054 10.90625,-0.53125 3.61135,-0.37071 7.18879,-0.92787 10.71875,-1.6875 3.52996,-0.75963 7.02846,-1.72182 10.4375,-2.875 3.40904,-1.15318 6.75142,-2.51113 10,-4.0625 3.24858,-1.55137 6.3889,-3.2958 9.4375,-5.25 3.0486,-1.9542 6.00343,-4.10709 8.8125,-6.46875 2.80907,-2.36166 5.46998,-4.91375 8,-7.6875 2.53002,-2.77375 4.91357,-5.77827 7.125,-8.96875 2.21143,-3.19048 4.2717,-6.57566 6.125,-10.1875 1.8533,-3.61184 3.5131,-7.43091 4.96875,-11.46875 1.45565,-4.03784 2.7003,-8.31278 3.71875,-12.78125 1.01845,-4.46847 1.80202,-9.12751 2.34375,-14.03125 0.54173,-4.90374 0.84953,-10.03135 0.875,-15.375 0.0189,-3.96537 -0.27815,-8.19642 -0.5625,-12.40625 -20.08502,-26.68619 -50.66121,-39.68469 -79.59375,-37.75 z"
         style="fill:#3a98ef;fill-opacity:1" />
    </g>
  </g>
</svg>
