<?xml version="1.0" encoding="UTF-8" standalone="no"?>
<!-- Created with Inkscape (http://www.inkscape.org/) -->

<svg
   xmlns:dc="http://purl.org/dc/elements/1.1/"
   xmlns:cc="http://creativecommons.org/ns#"
   xmlns:rdf="http://www.w3.org/1999/02/22-rdf-syntax-ns#"
   xmlns:svg="http://www.w3.org/2000/svg"
   xmlns="http://www.w3.org/2000/svg"
   xmlns:xlink="http://www.w3.org/1999/xlink"
   xmlns:sodipodi="http://sodipodi.sourceforge.net/DTD/sodipodi-0.dtd"
   xmlns:inkscape="http://www.inkscape.org/namespaces/inkscape"
   width="500"
   height="500"
   id="svg4612"
   version="1.1"
   inkscape:version="0.48.2 r9819"
   sodipodi:docname="New document 9">
  <defs
     id="defs4614">
    <clipPath
       id="clipPath5491"
       clipPathUnits="userSpaceOnUse">
      <path
         id="path5493"
         d="m 349.51855,-472.96289 c 0,-28.54004 -23.1333,-51.67578 -51.6748,-51.67578 -28.53955,0 -51.67432,23.13574 -51.67432,51.67578 0,28.54101 23.13477,51.6748 51.67432,51.6748 28.5415,0 51.6748,-23.13379 51.6748,-51.6748 z"
         inkscape:connector-curvature="0" />
    </clipPath>
    <clipPath
       id="clipPath5479"
       clipPathUnits="userSpaceOnUse">
      <path
         id="path5481"
         d="m 349.51855,-315.08789 c 0,-28.53906 -23.1333,-51.67627 -51.6748,-51.67627 -28.53955,0 -51.67432,23.13721 -51.67432,51.67627 0,28.54101 23.13477,51.67725 51.67432,51.67725 28.5415,0 51.6748,-23.13624 51.6748,-51.67725 z"
         inkscape:connector-curvature="0" />
    </clipPath>
    <clipPath
       id="clipPath5467"
       clipPathUnits="userSpaceOnUse">
      <path
         id="path5469"
         d="m 349.51855,-157.45361 c 0,-28.53955 -23.1333,-51.67627 -51.6748,-51.67627 -28.53955,0 -51.67432,23.13672 -51.67432,51.67627 0,28.54101 23.13477,51.67675 51.67432,51.67675 28.5415,0 51.6748,-23.13574 51.6748,-51.67675 z"
         inkscape:connector-curvature="0" />
    </clipPath>
    <mask
       id="mask5073"
       height="1"
       width="1"
       y="0"
       x="0"
       maskUnits="userSpaceOnUse">
      <image
         sodipodi:absref="/Users/Steven/Desktop/13_1_img6.png"
         id="image5075"
         xlink:href="/Users/Steven/Desktop/13_1_img6.png"
         height="1"
         width="1" />
    </mask>
    <mask
       id="mask5053"
       height="1"
       width="1"
       y="0"
       x="0"
       maskUnits="userSpaceOnUse">
      <image
         sodipodi:absref="/Users/Steven/Desktop/13_1_img4.png"
         id="image5055"
         xlink:href="/Users/Steven/Desktop/13_1_img4.png"
         height="1"
         width="1" />
    </mask>
    <mask
       id="mask4659"
       height="1"
       width="1"
       y="0"
       x="0"
       maskUnits="userSpaceOnUse">
      <image
         sodipodi:absref="/Users/Steven/Desktop/13_1_img2.png"
         id="image4661"
         xlink:href="/Users/Steven/Desktop/13_1_img2.png"
         height="1"
         width="1" />
    </mask>
  </defs>
  <sodipodi:namedview
     id="base"
     pagecolor="#ffffff"
     bordercolor="#666666"
     borderopacity="1.0"
     inkscape:pageopacity="0.0"
     inkscape:pageshadow="2"
     inkscape:zoom="0.89414062"
     inkscape:cx="239.67453"
     inkscape:cy="296.32154"
     inkscape:document-units="px"
     inkscape:current-layer="layer3"
     showgrid="false"
     inkscape:window-width="1440"
     inkscape:window-height="852"
     inkscape:window-x="0"
     inkscape:window-y="0"
     inkscape:window-maximized="1" />
  <metadata
     id="metadata4617">
    <rdf:RDF>
      <cc:Work
         rdf:about="">
        <dc:format>image/svg+xml</dc:format>
        <dc:type
           rdf:resource="http://purl.org/dc/dcmitype/StillImage" />
        <dc:title></dc:title>
      </cc:Work>
    </rdf:RDF>
  </metadata>
  <g
     inkscape:groupmode="layer"
     id="layer3"
     inkscape:label="Layer"
     transform="translate(0,-552.36218)">
    <g
       id="g6022"
       transform="matrix(5.1926488,0,0,5.1926488,-1223.277,-1643.158)">
      <path
         inkscape:connector-curvature="0"
         d="m 280.80923,455.53993 c 0,-7.10694 5.76172,-12.86865 12.86927,-12.86865 1.31957,0 2.59277,0.20019 3.7915,0.56763 l 7.39868,-17.44752 c -28.25501,2.146 -46.43982,20.42237 -52.31385,28.06885 -5.87523,7.64893 -14.08141,19.58374 -14.08141,34.50439 0,14.91944 10.72326,21.35255 10.72326,21.35255 -3.26232,-9.0442 1.67969,-20.60547 14.1748,-30.39917 12.49574,-9.79004 24.05884,-12.40357 24.05884,-12.40357 l 0.0434,-0.10012 c -3.97217,-2.18994 -6.66443,-6.41846 -6.66443,-11.27441 z"
         style="fill:#0a58a5;fill-opacity:1;fill-rule:nonzero;stroke:none"
         id="path5531" />
      <path
         inkscape:connector-curvature="0"
         d="m 304.12222,455.53993 c 0,5.76783 -4.67529,10.44434 -10.44372,10.44434 -5.76783,0 -10.44373,-4.67651 -10.44373,-10.44434 0,-5.76782 4.6759,-10.44434 10.44373,-10.44434 5.76843,0 10.44372,4.67652 10.44372,10.44434 z"
         style="fill:#ff6600;fill-opacity:1;fill-rule:nonzero;stroke:none"
         id="path5533" />
      <path
         inkscape:connector-curvature="0"
         d="m 328.6608,476.92421 c -4.10523,-10.55054 -24.50928,-12.4585 -45.57373,-4.2627 -6.91529,2.69165 -13.04139,6.13647 -18.00599,9.92432 3.57239,-2.27174 8.22693,-4.25049 13.48084,-5.55176 12.86804,-3.19336 24.45068,-1.13891 25.87158,4.5874 0.23071,0.93262 0.17395,1.90674 -0.13123,2.89551 l 24.56299,0 c 0.73547,-2.67579 0.70679,-5.25146 -0.20446,-7.59277 m -44.95484,20.84838 c -12.86865,3.1897 -24.45251,1.13648 -25.87341,-4.59106 -0.44007,-1.77369 0.14953,-3.69262 1.55212,-5.59204 -6.32446,6.48559 -9.18822,13.40454 -7.005,19.01245 4.10461,10.55175 24.50684,12.4585 45.5719,4.26269 14.4757,-5.63231 25.49683,-14.57031 29.64294,-23.0371 l -25.19531,0 c -3.34229,4.01123 -10.24475,7.84911 -18.69324,9.94506 z"
         style="fill:#008f62;fill-opacity:1;fill-rule:nonzero;stroke:none"
         id="path5535" />
    </g>
  </g>
</svg>
