<?xml version="1.0" encoding="UTF-8" standalone="no"?>
<!-- Creator: CorelDRAW -->

<svg
   xmlns:dc="http://purl.org/dc/elements/1.1/"
   xmlns:cc="http://creativecommons.org/ns#"
   xmlns:rdf="http://www.w3.org/1999/02/22-rdf-syntax-ns#"
   xmlns:svg="http://www.w3.org/2000/svg"
   xmlns="http://www.w3.org/2000/svg"
   xmlns:sodipodi="http://sodipodi.sourceforge.net/DTD/sodipodi-0.dtd"
   xmlns:inkscape="http://www.inkscape.org/namespaces/inkscape"
   xml:space="preserve"
   width="500"
   height="500"
   style="fill-rule:evenodd"
   viewBox="0 0 500 500"
   id="svg2"
   version="1.1"
   inkscape:version="0.48.2 r9819"
   sodipodi:docname="Symbol of Senboku, Akita.svg"><metadata
   id="metadata20"><rdf:RDF><cc:Work
       rdf:about=""><dc:format>image/svg+xml</dc:format><dc:type
         rdf:resource="http://purl.org/dc/dcmitype/StillImage" /></cc:Work></rdf:RDF></metadata><sodipodi:namedview
   pagecolor="#ffffff"
   bordercolor="#666666"
   borderopacity="1"
   objecttolerance="10"
   gridtolerance="10"
   guidetolerance="10"
   inkscape:pageopacity="0"
   inkscape:pageshadow="2"
   inkscape:window-width="1440"
   inkscape:window-height="852"
   id="namedview18"
   showgrid="false"
   inkscape:zoom="0.70651753"
   inkscape:cx="450"
   inkscape:cy="175.87636"
   inkscape:window-x="0"
   inkscape:window-y="0"
   inkscape:window-maximized="0"
   inkscape:current-layer="svg2" />
 <defs
   id="defs4"><style
   type="text/css"
   id="style6">
   
    .fil2 {fill:#0072BA;fill-rule:nonzero}
    .fil1 {fill:#559E37;fill-rule:nonzero}
    .fil3 {fill:#C45D80;fill-rule:nonzero}
    .fil0 {fill:white;fill-rule:nonzero}
   
  </style>
  
  
  
  
  
 </defs>
 <g
   id="g3001"
   transform="matrix(2.009749,0,0,2.009749,-244.24477,-306.80239)"><path
     class="fil1"
     d="m 228.05666,274.83824 c -2.73747,-35.94219 24.30352,-67.29022 60.39355,-70.02047 15.53586,-1.17596 30.21826,3.15172 42.11955,11.318 0.50033,-2.52536 1.0618,-6.41321 -0.14973,-11.20443 -2.36066,-9.28671 -9.10701,-10.0347 -15.14468,-9.12952 -6.03956,0.90708 -8.56054,1.47542 -13.04356,-6.58979 -6.64404,-11.9587 -16.41738,-13.86766 -26.95364,-8.95046 -5.26846,2.45674 -11.23877,6.05699 -17.37621,-2.05872 -12.86953,-17.01688 -34.82732,-4.47866 -34.82732,-4.47866 -20.72324,11.55067 -33.94956,36.70142 -32.02497,61.94486 1.89028,24.82131 18.01633,45.18083 39.80383,53.74988 -1.45607,-4.64335 -2.41182,-9.52192 -2.79673,-14.58136 z"
     id="path12"
     inkscape:connector-curvature="0"
     style="fill:#559e37;fill-rule:nonzero" /><path
     class="fil2"
     d="M 255.78015,297.97433 C 225.89,318.30829 185.11053,310.6648 164.6899,280.90194 c -8.78888,-12.80836 -12.36668,-27.63617 -11.21569,-41.98481 -2.44863,0.8316 -6.11129,2.28892 -9.66849,5.732 -6.89794,6.67836 -4.17359,12.87385 -0.36932,17.62953 3.80864,4.7519 5.5654,6.64403 0.7923,14.53894 -7.077,11.71415 -3.85169,21.09441 5.69079,27.72222 4.77187,3.31205 10.89064,6.66464 6.89921,16.01309 -8.36464,19.60901 13.52333,32.27391 13.52333,32.27391 20.4032,12.09841 48.88777,10.92993 69.87943,-3.34948 20.64274,-14.04423 30.28319,-38.12628 26.84013,-61.20327 -3.31079,3.57781 -7.07324,6.83995 -11.28118,9.70035 z"
     id="path14"
     inkscape:connector-curvature="0"
     style="fill:#0072ba;fill-rule:nonzero" /><path
     class="fil3"
     d="m 262.57647,262.63952 c 32.62637,15.61198 46.37053,54.60503 30.69554,87.09391 -6.74449,13.98371 -17.84599,24.48691 -30.90138,30.66434 1.94705,1.69875 5.04449,4.12992 9.81887,5.47307 9.25428,2.60709 13.27935,-2.8348 15.51463,-8.49193 2.22779,-5.66397 2.99512,-8.12072 12.24879,-7.95539 13.72229,0.24705 20.26655,-7.22548 21.26595,-18.77055 0.49597,-5.76754 0.34687,-12.72353 10.47516,-13.95565 21.23416,-2.59212 21.30462,-27.79712 21.30462,-27.79712 0.32129,-23.64723 -14.94132,-47.63008 -37.85489,-58.58922 -22.53178,-10.78209 -48.29698,-7.05519 -66.64475,7.45381 4.76625,1.0618 9.48446,2.67759 14.0773,4.8748 z"
     id="path16"
     inkscape:connector-curvature="0"
     style="fill:#c45d80;fill-rule:nonzero" /></g>
</svg>