<?xml version="1.0" encoding="UTF-8" standalone="no"?>
<!-- Created with Inkscape (http://www.inkscape.org/) -->

<svg
   xmlns:dc="http://purl.org/dc/elements/1.1/"
   xmlns:cc="http://creativecommons.org/ns#"
   xmlns:rdf="http://www.w3.org/1999/02/22-rdf-syntax-ns#"
   xmlns:svg="http://www.w3.org/2000/svg"
   xmlns="http://www.w3.org/2000/svg"
   xmlns:xlink="http://www.w3.org/1999/xlink"
   xmlns:sodipodi="http://sodipodi.sourceforge.net/DTD/sodipodi-0.dtd"
   xmlns:inkscape="http://www.inkscape.org/namespaces/inkscape"
   width="500"
   height="500"
   id="svg2"
   version="1.1"
   inkscape:version="0.48.2 r9819"
   sodipodi:docname="New document 1">
  <defs
     id="defs4">
    <clipPath
       id="clipPath3408"
       clipPathUnits="userSpaceOnUse">
      <path
         id="path3410"
         d="m 0,841.89 595.28,0 L 595.28,0 0,0 0,841.89 z"
         inkscape:connector-curvature="0" />
    </clipPath>
    <clipPath
       id="clipPath3352"
       clipPathUnits="userSpaceOnUse">
      <path
         id="path3354"
         d="m 0,841.89 595.28,0 L 595.28,0 0,0 0,841.89 z"
         inkscape:connector-curvature="0" />
    </clipPath>
    <clipPath
       id="clipPath3148"
       clipPathUnits="userSpaceOnUse">
      <path
         id="path3150"
         d="m 0,841.89 595.28,0 L 595.28,0 0,0 0,841.89 z"
         inkscape:connector-curvature="0" />
    </clipPath>
    <clipPath
       id="clipPath3132"
       clipPathUnits="userSpaceOnUse">
      <path
         id="path3134"
         d="m 304.333,120.049 247.668,0 0,-77.0636 -247.668,0 0,77.0636 z"
         inkscape:connector-curvature="0" />
    </clipPath>
    <clipPath
       id="clipPath3124"
       clipPathUnits="userSpaceOnUse">
      <path
         id="path3126"
         d="m 0,841.89 595.28,0 L 595.28,0 0,0 0,841.89 z"
         inkscape:connector-curvature="0" />
    </clipPath>
    <mask
       id="mask3114"
       height="1"
       width="1"
       y="0"
       x="0"
       maskUnits="userSpaceOnUse">
      <image
         sodipodi:absref="/Users/Steven/Desktop/127P01_img2.png"
         id="image3116"
         xlink:href="/Users/Steven/Desktop/127P01_img2.png"
         height="1"
         width="1" />
    </mask>
    <clipPath
       id="clipPath3106"
       clipPathUnits="userSpaceOnUse">
      <path
         id="path3108"
         d="m 358.863,820.57 c -5.501,0 -10.001,-4.5 -10.001,-10.002 l 0,0 0,-121.716 c 0,-5.502 4.5,-10.001 10.001,-10.001 l 0,0 206.742,0 c 5.503,0 10.002,4.499 10.002,10.001 l 0,0 0,121.716 c 0,5.502 -4.499,10.002 -10.002,10.002 l 0,0 -206.742,0 z"
         inkscape:connector-curvature="0" />
    </clipPath>
    <mask
       id="mask3096"
       height="1"
       width="1"
       y="0"
       x="0"
       maskUnits="userSpaceOnUse">
      <image
         sodipodi:absref="/Users/Steven/Desktop/127P01_img0.png"
         id="image3098"
         xlink:href="/Users/Steven/Desktop/127P01_img0.png"
         height="1"
         width="1" />
    </mask>
    <clipPath
       id="clipPath3088"
       clipPathUnits="userSpaceOnUse">
      <path
         id="path3090"
         d="m 0,0 595.281,0 0,841.89 L 0,841.89 0,0 z"
         inkscape:connector-curvature="0" />
    </clipPath>
  </defs>
  <sodipodi:namedview
     id="base"
     pagecolor="#ffffff"
     bordercolor="#666666"
     borderopacity="1.0"
     inkscape:pageopacity="0.0"
     inkscape:pageshadow="2"
     inkscape:zoom="0.6322529"
     inkscape:cx="466.42533"
     inkscape:cy="373.2305"
     inkscape:document-units="px"
     inkscape:current-layer="layer2"
     showgrid="false"
     inkscape:window-width="1440"
     inkscape:window-height="852"
     inkscape:window-x="0"
     inkscape:window-y="0"
     inkscape:window-maximized="1" />
  <metadata
     id="metadata7">
    <rdf:RDF>
      <cc:Work
         rdf:about="">
        <dc:format>image/svg+xml</dc:format>
        <dc:type
           rdf:resource="http://purl.org/dc/dcmitype/StillImage" />
        <dc:title></dc:title>
      </cc:Work>
    </rdf:RDF>
  </metadata>
  <g
     inkscape:groupmode="layer"
     id="layer2"
     inkscape:label="Layer"
     transform="translate(0,-552.36217)">
    <g
       id="g4158"
       transform="matrix(30.123936,0,0,30.123936,-13943.451,-4503.6356)">
      <path
         inkscape:connector-curvature="0"
         d="m 0,0 c 0,-0.875 -0.709,-1.584 -1.584,-1.584 -0.875,0 -1.584,0.709 -1.584,1.584 0,0.875 0.709,1.585 1.584,1.585 C -0.709,1.585 0,0.875 0,0"
         style="fill:#f47216;fill-opacity:1;fill-rule:nonzero;stroke:none"
         id="path3390"
         transform="matrix(1.25,0,0,-1.25,474.43375,172.20428)" />
      <path
         inkscape:connector-curvature="0"
         d="m 0,0 4.531,-2.797 c 0,0 3.035,-1.484 2.532,-3.644 0,0 -0.286,1.387 -2.145,1.902 -1.904,0.527 -2.652,0.746 -2.74,0.789 -0.089,0.043 -1.448,0.252 -1.815,2.067 L 0,0 z"
         style="fill:#0b904b;fill-opacity:1;fill-rule:nonzero;stroke:none"
         id="path3394"
         transform="matrix(1.25,0,0,-1.25,463.384,169.6054)" />
      <path
         inkscape:connector-curvature="0"
         d="m 0,0 3.296,-0.819 c 0,0 2.821,-0.542 2.559,-2.62 0,0 -0.562,1.293 -1.908,1.021 C 2.434,-2.723 1.229,-2.854 0.771,-2.17 0.148,-1.235 0,0 0,0"
         style="fill:#0b904b;fill-opacity:1;fill-rule:nonzero;stroke:none"
         id="path3398"
         transform="matrix(1.25,0,0,-1.25,464.756,174.3979)" />
      <path
         inkscape:connector-curvature="0"
         d="m 0,0 c -0.047,-0.019 -4.519,1.453 -4.838,-3.598 -0.147,-2.332 -2.227,-2.59 -2.631,-1.992 -0.31,0.457 -0.21,1.299 1.258,1.891 0,0 -1.838,0.5 -3.347,-1.2 -1.649,-1.855 0.164,-3.338 2.488,-2.47 1.924,0.718 2.595,2.018 3.076,2.803 C -3.494,-3.748 -2.36,-0.968 0,0"
         style="fill:#0b904b;fill-opacity:1;fill-rule:nonzero;stroke:none"
         id="path3402"
         transform="matrix(1.25,0,0,-1.25,478.93087,173.3359)" />
    </g>
  </g>
</svg>
