<?xml version="1.0" encoding="UTF-8" standalone="no"?>
<!-- Created with Inkscape (http://www.inkscape.org/) -->

<svg
   xmlns:dc="http://purl.org/dc/elements/1.1/"
   xmlns:cc="http://creativecommons.org/ns#"
   xmlns:rdf="http://www.w3.org/1999/02/22-rdf-syntax-ns#"
   xmlns:svg="http://www.w3.org/2000/svg"
   xmlns="http://www.w3.org/2000/svg"
   xmlns:sodipodi="http://sodipodi.sourceforge.net/DTD/sodipodi-0.dtd"
   xmlns:inkscape="http://www.inkscape.org/namespaces/inkscape"
   width="500"
   height="500"
   id="svg2"
   version="1.1"
   inkscape:version="0.48.2 r9819"
   sodipodi:docname="Katagami.svg">
  <defs
     id="defs4" />
  <sodipodi:namedview
     id="base"
     pagecolor="#ffffff"
     bordercolor="#666666"
     borderopacity="1.0"
     inkscape:pageopacity="0.0"
     inkscape:pageshadow="2"
     inkscape:zoom="0.89414062"
     inkscape:cx="162.56979"
     inkscape:cy="237.5313"
     inkscape:document-units="px"
     inkscape:current-layer="g3090"
     showgrid="false"
     inkscape:window-width="1440"
     inkscape:window-height="852"
     inkscape:window-x="0"
     inkscape:window-y="0"
     inkscape:window-maximized="1" />
  <metadata
     id="metadata7">
    <rdf:RDF>
      <cc:Work
         rdf:about="">
        <dc:format>image/svg+xml</dc:format>
        <dc:type
           rdf:resource="http://purl.org/dc/dcmitype/StillImage" />
      </cc:Work>
    </rdf:RDF>
  </metadata>
  <g
     inkscape:label="Layer 1"
     inkscape:groupmode="layer"
     id="layer1"
     style="display:inline"
     transform="translate(0,-552.36218)" />
  <g
     style="display:inline"
     id="g3090"
     inkscape:groupmode="layer"
     inkscape:label="Layer 1 copy"
     transform="translate(0,-552.36218)">
    <g
       id="g3104"
       transform="matrix(1.5213671,0,0,1.5213671,-569.81722,264.79995)">
      <path
         inkscape:connector-curvature="0"
         id="path3074"
         d="M 506.50058,474.71695 C 433.32942,456.71333 378.83157,379.30448 391.8546,311.87361 l 1.50151,-7.77455 2.78392,10.70522 c 36.44305,140.13721 243.04448,142.94416 287.12863,3.90106 2.22336,-7.01257 4.63365,-9.9727 4.99262,-9.91664 0.12426,0.0194 2.01215,6.81125 1.99417,19.01003 -0.14175,96.18281 -91.87355,169.52545 -183.75487,146.91822 z"
         style="fill:#0c3c91;fill-opacity:1;display:inline"
         sodipodi:nodetypes="sscsssss" />
      <path
         inkscape:connector-curvature="0"
         id="path3072"
         d="m 486.55727,370.07766 c -9.71039,-2.67937 -14.28517,-5.65259 -14.21869,-5.94881 0.10556,-0.47037 1.90665,-1.55585 5.44175,-2.15759 60.00265,-10.21357 83.0483,-82.03907 39.66137,-123.61107 -5.22476,-5.0062 -9.11438,-9.09153 -8.64359,-9.0785 12.91366,0.35736 35.98322,12.26131 46.65568,24.07444 46.46909,51.43573 -2.82748,134.95186 -68.89652,116.72153 z"
         style="fill:#2d9d37;fill-opacity:1;display:inline"
         sodipodi:nodetypes="sssssss" />
      <path
         sodipodi:type="arc"
         style="fill:#ff000f;fill-opacity:1"
         id="path3100"
         sodipodi:cx="596.67578"
         sodipodi:cy="273.79715"
         sodipodi:rx="17.002689"
         sodipodi:ry="17.002689"
         d="m 613.67847,273.79715 c 0,9.39033 -7.61236,17.00269 -17.00269,17.00269 -9.39032,0 -17.00269,-7.61236 -17.00269,-17.00269 0,-9.39033 7.61237,-17.00269 17.00269,-17.00269 9.39033,0 17.00269,7.61236 17.00269,17.00269 z"
         transform="matrix(1.2209302,0,0,1.2209302,-126.2979,-37.753915)" />
    </g>
  </g>
</svg>
