<?xml version="1.0" encoding="UTF-8" standalone="no"?>
<!-- Created with Inkscape (http://www.inkscape.org/) -->

<svg
   xmlns:dc="http://purl.org/dc/elements/1.1/"
   xmlns:cc="http://creativecommons.org/ns#"
   xmlns:rdf="http://www.w3.org/1999/02/22-rdf-syntax-ns#"
   xmlns:svg="http://www.w3.org/2000/svg"
   xmlns="http://www.w3.org/2000/svg"
   xmlns:sodipodi="http://sodipodi.sourceforge.net/DTD/sodipodi-0.dtd"
   xmlns:inkscape="http://www.inkscape.org/namespaces/inkscape"
   width="500"
   height="500"
   id="svg2"
   version="1.1"
   inkscape:version="0.48.2 r9819"
   sodipodi:docname="Symbol of Yurihonjo, Akita.svg">
  <defs
     id="defs4">
    <inkscape:path-effect
       effect="skeletal"
       id="path-effect3906"
       is_visible="true"
       pattern="m -14.23481,27.933861 c 0,-2.76 2.24,-5 4.9999997,-5 2.76,0 5,2.24 5,5 0,2.76 -2.24,5 -5,5 -2.7599997,0 -4.9999997,-2.24 -4.9999997,-5 z"
       copytype="single_stretched"
       prop_scale="1"
       scale_y_rel="false"
       spacing="0"
       normal_offset="0"
       tang_offset="0"
       prop_units="false"
       vertical_pattern="false"
       fuse_tolerance="0" />
    <inkscape:path-effect
       effect="spiro"
       id="path-effect3900"
       is_visible="true" />
    <inkscape:path-effect
       effect="spiro"
       id="path-effect3896"
       is_visible="true" />
  </defs>
  <sodipodi:namedview
     id="base"
     pagecolor="#ffffff"
     bordercolor="#666666"
     borderopacity="1.0"
     inkscape:pageopacity="0.0"
     inkscape:pageshadow="2"
     inkscape:zoom="1.3176929"
     inkscape:cx="251.51342"
     inkscape:cy="324.8016"
     inkscape:document-units="px"
     inkscape:current-layer="layer1"
     showgrid="false"
     showguides="true"
     inkscape:guide-bbox="true"
     inkscape:window-width="1440"
     inkscape:window-height="852"
     inkscape:window-x="0"
     inkscape:window-y="0"
     inkscape:window-maximized="0"
     inkscape:snap-global="true"
     inkscape:snap-object-midpoints="true" />
  <metadata
     id="metadata7">
    <rdf:RDF>
      <cc:Work
         rdf:about="">
        <dc:format>image/svg+xml</dc:format>
        <dc:type
           rdf:resource="http://purl.org/dc/dcmitype/StillImage" />
      </cc:Work>
    </rdf:RDF>
  </metadata>
  <g
     inkscape:label="Layer 1"
     inkscape:groupmode="layer"
     id="layer1"
     style="display:inline"
     transform="translate(0, -552.362)">
    <g
       id="g2999">
      <path
         id="path3995"
         transform="translate(0,552.362)"
         d="M 250 190.375 C 236.9416 214.65406 229.91057 238.85972 224.78125 259.65625 C 215.88665 295.71883 213.5022 327.37124 215.5 371.9375 C 217.379 413.8536 225.88626 456.64135 238.15625 476.21875 C 242.08119 482.48125 245.39379 484.89755 250 484.90625 C 254.60621 484.89755 257.91881 482.48125 261.84375 476.21875 C 274.11374 456.64135 282.58975 413.8536 284.46875 371.9375 C 286.46655 327.37124 284.11335 295.71883 275.21875 259.65625 C 270.08943 238.85972 263.0584 214.65406 250 190.375 z "
         style="fill:#0b0531;fill-opacity:1;stroke:none" />
      <path
         id="path2991"
         transform="translate(0,552.362)"
         d="M 250 187.125 C 209.83539 188.38926 160.3471 194.52633 100.71875 275.75 C 85.143305 297.75608 76.320033 316.83352 71.21875 332.21875 C 52.89213 387.49094 76.754613 425.09845 121.21875 422.28125 C 168.52221 419.28415 198.336 391.92018 216.375 378.28125 C 199.7418 359.95404 188.27349 339.65774 184.34375 318.125 C 179.5636 291.93264 181.93554 268.9014 188.59375 248.28125 C 193.99899 231.5415 201.62535 220.14042 209.9375 210.90625 C 216.3513 203.781 224.68556 197.17143 233.78125 194.34375 C 240.37766 192.29305 250 191.59375 250 191.59375 C 250 191.59375 259.62234 192.29305 266.21875 194.34375 C 275.31444 197.17143 283.6487 203.781 290.0625 210.90625 C 298.37466 220.14042 306.00101 231.5415 311.40625 248.28125 C 318.06446 268.9014 320.43639 291.93264 315.65625 318.125 C 311.7265 339.65774 300.25821 359.95404 283.625 378.28125 C 301.664 391.92018 331.47779 419.28415 378.78125 422.28125 C 423.24539 425.09845 447.10787 387.49094 428.78125 332.21875 C 423.67997 316.83352 414.8567 297.75608 399.28125 275.75 C 339.6529 194.52633 290.16461 188.38926 250 187.125 z "
         style="fill:#0b0531;fill-opacity:1;stroke:none" />
      <path
         id="path2996"
         transform="translate(0,552.362)"
         d="M 116.625 141.6875 C 43.436674 141.78797 30.907519 173.40167 27.5625 191.0625 C 25.474023 239.94531 84.01083 267.23368 100.71875 277.46875 C 99.673909 252.41505 112.97455 213.10156 159.75 189.34375 C 196.77246 172.22917 225.49279 174.75182 250 187.21875 C 274.50721 174.75182 303.22754 172.22917 340.25 189.34375 C 387.02546 213.10156 400.32609 252.41505 399.28125 277.46875 C 415.98917 267.23368 474.52598 239.94531 472.4375 191.0625 C 468.74645 171.57469 453.87363 135.1012 358.65625 142.71875 C 319.93179 146.50667 271.84742 162.22147 250 184.21875 C 228.15258 162.22147 180.06821 146.50667 141.34375 142.71875 C 132.41712 142.0046 124.19621 141.67711 116.625 141.6875 z "
         style="fill:#0b0531;fill-opacity:1;stroke:none" />
      <path
         id="path4001"
         transform="translate(0,552.362)"
         d="M 250 18.375 C 245.04522 18.47501 240.55214 20.80675 236.53125 23.71875 C 197.90949 51.68937 202.37807 176.02527 250 185.09375 C 297.62193 176.02527 302.09051 51.68937 263.46875 23.71875 C 259.44786 20.80675 254.95478 18.47501 250 18.375 z M 250 105.28125 C 258.14427 105.19039 261.55151 168.61368 250 184.21875 C 238.44849 168.61368 241.85573 105.19039 250 105.28125 z "
         style="fill:#0b0531;fill-opacity:1;stroke:none;display:inline" />
    </g>
  </g>
</svg>
