<?xml version="1.0" encoding="UTF-8" standalone="no"?>
<!-- Created with Inkscape (http://www.inkscape.org/) -->

<svg
   xmlns:dc="http://purl.org/dc/elements/1.1/"
   xmlns:cc="http://creativecommons.org/ns#"
   xmlns:rdf="http://www.w3.org/1999/02/22-rdf-syntax-ns#"
   xmlns:svg="http://www.w3.org/2000/svg"
   xmlns="http://www.w3.org/2000/svg"
   xmlns:sodipodi="http://sodipodi.sourceforge.net/DTD/sodipodi-0.dtd"
   xmlns:inkscape="http://www.inkscape.org/namespaces/inkscape"
   width="500"
   height="500"
   id="svg2"
   version="1.1"
   inkscape:version="0.48.2 r9819"
   sodipodi:docname="TEST copy FINALLLL.svg"
   inkscape:export-filename="/Users/Steven/Desktop/TEST copy.png"
   inkscape:export-xdpi="90"
   inkscape:export-ydpi="90">
  <defs
     id="defs4" />
  <sodipodi:namedview
     id="base"
     pagecolor="#ffffff"
     bordercolor="#666666"
     borderopacity="1.0"
     inkscape:pageopacity="0.0"
     inkscape:pageshadow="2"
     inkscape:zoom="0.35355339"
     inkscape:cx="378.98059"
     inkscape:cy="253.73207"
     inkscape:document-units="px"
     inkscape:current-layer="layer2"
     showgrid="false"
     inkscape:window-width="1440"
     inkscape:window-height="852"
     inkscape:window-x="0"
     inkscape:window-y="0"
     inkscape:window-maximized="1"
     showguides="true"
     inkscape:guide-bbox="true"
     objecttolerance="12"
     guidetolerance="14"
     gridtolerance="10" />
  <metadata
     id="metadata7">
    <rdf:RDF>
      <cc:Work
         rdf:about="">
        <dc:format>image/svg+xml</dc:format>
        <dc:type
           rdf:resource="http://purl.org/dc/dcmitype/StillImage" />
        <dc:title></dc:title>
      </cc:Work>
    </rdf:RDF>
  </metadata>
  <g
     inkscape:groupmode="layer"
     id="layer2"
     inkscape:label="Logo"
     style="display:inline"
     transform="translate(0,-552.36218)">
    <g
       id="g4515">
      <path
         d="m 414.15625,701.20593 -77.1875,22.28125 -7.375,-4.9375 0,169.90625 6.28125,-4.34375 78.96875,22.75 -52.0625,-59.8125 0,-86.75 51.375,-59.09375 z m -328.3125,0 51.375,59.09375 0,86.75 -52.0625,59.8125 78.96875,-22.75 6.28125,4.34375 0,-169.90625 -7.375,4.9375 -77.1875,-22.28125 z M 250,609.95593 l -19.84375,68.75 -47.5,31.65625 0,186.5625 47.6875,32.9375 19.65625,67.96875 19.65625,-67.96875 47.6875,-32.9375 0,-186.5625 L 269.875,678.70593 250,609.95593 z m -45.84375,147.1875 c 2.36595,-0.0505 4.56405,2.13373 4.53125,4.5 l 0,31.15625 c -0.003,0.15767 -0.0117,0.31227 -0.0312,0.46875 0.24728,2.18641 0.47694,2.24438 1.90625,3.9375 0.7481,0.88618 1.96123,2.32737 3.75,3.5625 l 0,-39.125 c -0.0318,-2.30999 2.03387,-4.4613 4.34375,-4.5 2.30988,0.0387 4.37555,2.19001 4.34375,4.5 l 0,39.125 c 1.78877,-1.23513 3.00189,-2.67632 3.75,-3.5625 1.42931,-1.69312 1.65897,-1.75109 1.90625,-3.9375 -0.0196,-0.15648 -0.0292,-0.31108 -0.0312,-0.46875 l 0,-31.15625 c -0.0328,-2.36627 2.1653,-4.5504 4.53125,-4.5 2.30988,0.0387 4.37555,2.19001 4.34375,4.5 l 0,31.15625 c -9e-4,0.44481 -0.0859,0.88799 -0.21875,1.3125 l 0.1875,0.0312 c -0.33138,2.97196 -1.3033,7.6806 -4,10.875 -2.2842,2.70577 -5.55576,6.49097 -10.46875,9.1875 l 0,17 c 0.0137,0.74109 0.93746,1.41069 1.3125,1.625 2.33245,1.01909 5.81226,1.36365 9.1875,1.40625 2.39369,-0.095 4.63035,2.1047 4.59375,4.5 -0.0365,2.3953 -2.32907,4.51175 -4.71875,4.34375 -0.10166,-10e-4 -0.21084,0.002 -0.3125,0 l -14.40625,0 -14.40625,0 c -0.10164,0.002 -0.21083,-10e-4 -0.3125,0 -2.38968,0.168 -4.68215,-1.94845 -4.71875,-4.34375 -0.0366,-2.3953 2.20006,-4.595 4.59375,-4.5 3.37523,-0.0425 6.85504,-0.38716 9.1875,-1.40625 0.37503,-0.21431 1.2988,-0.88391 1.3125,-1.625 l 0,-17 c -4.91299,-2.69653 -8.18455,-6.48173 -10.46875,-9.1875 -2.6967,-3.1944 -3.66861,-7.90304 -4,-10.875 l 0.1875,-0.0312 c -0.13284,-0.42451 -0.21784,-0.86769 -0.21875,-1.3125 l 0,-31.15625 c -0.0318,-2.30999 2.03387,-4.4613 4.34375,-4.5 z m 56.9375,0.59375 2.53125,0 34.4375,0 c 2.39475,-0.13666 4.6875,2.03886 4.6875,4.4375 0,2.39864 -2.29275,4.54291 -4.6875,4.40625 l -34.6875,0 c -2.58169,-0.0775 -2.96981,0.24 -3.8125,1.6875 -0.8427,1.44749 -1.5983,4.84039 -1.5,9.90625 l -0.0937,0 0.0312,7.46875 32.375,-0.5 c 5.78787,0.13938 11.52645,0.20936 10.6875,11.375 -0.38058,3.35749 -1.55701,5.21529 -3.1875,7.25 l -12.8125,12.53125 11.40625,20.46875 a 4.4339945,4.4339945 0 0 1 -7.71875,4.3125 l -10.25,-18.375 -4.34375,4.25 c -1.63448,1.69017 -4.69465,1.70723 -6.34375,0.0312 -1.64909,-1.67599 -1.59145,-4.73681 0.125,-6.34375 l 6.0625,-5.9375 -3.3125,-5.96875 a 4.4206454,4.4206454 0 0 1 3.71875,-6.65625 4.4206454,4.4206454 0 0 1 4.03125,2.34375 l 2.15625,3.875 10.375,-10.15625 c 0.52857,-1.97962 0.62626,-3.02186 -2.0625,-4.125 l -30.84375,0.5 0.3125,44.65625 c 0.0176,2.3197 -2.08654,4.4198 -4.40625,4.4375 -2.3197,0.0177 -4.4198,-2.0553 -4.4375,-4.375 l -0.375,-63.125 c 4.2e-4,-0.36308 0.0361,-0.74174 0.125,-1.09375 7.1e-4,-0.0226 -7.4e-4,-0.04 0,-0.0625 0.14232,-4.31231 0.0717,-9.77988 1.15625,-12.78125 2.28516,-4.05725 3.15935,-4.3989 10.65625,-4.4375 z"
         style="fill:#014ab1;fill-opacity:1;stroke:none;display:inline"
         id="path4010" />
      <path
         d="m 270.59794,566.94792 a 11.658406,11.658406 0 0 1 0.7912,0.0527 c 113.12008,10.83365 202.83442,100.5326 213.67808,213.6517 0.72875,7.60218 1.07447,15.14116 1.08131,22.62846 -0.007,7.48731 -0.35256,15.02629 -1.08131,22.62847 -10.84366,113.1191 -100.558,202.81805 -213.67808,213.65175 a 11.658406,11.658406 0 0 1 -0.7912,0.053 11.658406,11.658406 0 0 1 -1.42417,-23.2614 c 3.28107,-0.3142 6.54935,-0.7014 9.78457,-1.1604 6.22576,-56.6382 56.61026,-98.54365 113.77526,-93.94246 a 8.7584958,8.7584958 0 0 1 6.6725,13.6351 8.7584958,8.7584958 0 0 1 -8.09666,3.79778 C 345.2132,934.9721 304.72439,967.10328 297.1033,1011.8161 364.00876,996.36747 418.70665,949.8088 445.32236,888.07162 398.08617,854.20926 386.97167,788.26285 420.61039,740.77564 a 8.7584958,8.7584958 0 0 1 15.16476,1.21318 8.7584958,8.7584958 0 0 1 -0.87032,8.91424 c -27.28596,38.51911 -19.50088,91.07456 16.93178,120.13128 5.02331,-15.08983 8.42356,-30.94168 9.99556,-47.34043 0.65725,-6.85631 0.99188,-13.66346 1.00219,-20.41309 -0.0103,-6.74962 -0.34494,-13.55677 -1.00219,-20.41308 -3.96333,-41.34471 -19.54238,-79.1984 -43.46353,-110.24122 -52.51517,24.58778 -115.36498,2.19196 -140.43887,-50.21514 a 8.7584958,8.7584958 0 0 1 8.43952,-12.6329 8.7584958,8.7584958 0 0 1 7.35821,5.09008 c 20.3223,42.47578 69.83991,61.24387 112.87856,43.78001 -34.76411,-37.93931 -83.0614,-63.23206 -137.43229,-68.43923 a 11.658406,11.658406 0 0 1 1.42417,-23.26142 z m -41.19564,0 a 11.658406,11.658406 0 0 0 -0.79121,0.0527 c -113.12007,10.83365 -202.834411,100.5326 -213.678071,213.6517 -0.728752,7.60218 -1.074477,15.14116 -1.081313,22.62846 0.0068,7.48731 0.352561,15.02629 1.081313,22.62847 10.84366,113.1191 100.558001,202.81805 213.678071,213.65175 a 11.658406,11.658406 0 0 0 0.79121,0.053 11.658406,11.658406 0 0 0 1.42417,-23.2614 c -3.28108,-0.3142 -6.54936,-0.7014 -9.78457,-1.1604 -6.22577,-56.6382 -56.61026,-98.54365 -113.77527,-93.94246 a 8.7584958,8.7584958 0 0 0 -6.67249,13.6351 8.7584958,8.7584958 0 0 0 8.09666,3.79778 c 46.09624,-3.71026 86.58505,28.42092 94.20613,73.13378 C 135.99147,996.36747 81.293591,949.8088 54.67788,888.07162 101.91407,854.20926 113.02856,788.26285 79.389847,740.77564 a 8.7584958,8.7584958 0 0 0 -15.164761,1.21318 8.7584958,8.7584958 0 0 0 0.870325,8.91424 c 27.285953,38.51911 19.500876,91.07456 -16.931785,120.13128 -5.023312,-15.08983 -8.42356,-30.94168 -9.995556,-47.34043 -0.657252,-6.85631 -0.991888,-13.66346 -1.002192,-20.41309 0.0103,-6.74962 0.34494,-13.55677 1.002192,-20.41308 3.963325,-41.34471 19.542374,-79.1984 43.463524,-110.24122 52.515176,24.58778 115.364986,2.19196 140.438876,-50.21514 a 8.7584958,8.7584958 0 0 0 -8.43952,-12.6329 8.7584958,8.7584958 0 0 0 -7.35821,5.09008 c -20.3223,42.47578 -69.83991,61.24387 -112.878566,43.78001 34.764106,-37.93931 83.061396,-63.23206 137.432296,-68.43923 a 11.658406,11.658406 0 0 0 -1.42417,-23.26142 z"
         style="font-size:medium;font-style:normal;font-variant:normal;font-weight:normal;font-stretch:normal;text-indent:0;text-align:start;text-decoration:none;line-height:normal;letter-spacing:normal;word-spacing:normal;text-transform:none;direction:ltr;block-progression:tb;writing-mode:lr-tb;text-anchor:start;baseline-shift:baseline;color:#000000;fill:#014ab1;fill-opacity:1;stroke:none;stroke-width:27.89999962;marker:none;visibility:visible;display:inline;overflow:visible;enable-background:accumulate;font-family:Sans;-inkscape-font-specification:Sans"
         id="path3990" />
    </g>
  </g>
</svg>
