<?xml version="1.0" encoding="UTF-8" standalone="no"?>
<!-- Created with Inkscape (http://www.inkscape.org/) -->

<svg
   xmlns:dc="http://purl.org/dc/elements/1.1/"
   xmlns:cc="http://creativecommons.org/ns#"
   xmlns:rdf="http://www.w3.org/1999/02/22-rdf-syntax-ns#"
   xmlns:svg="http://www.w3.org/2000/svg"
   xmlns="http://www.w3.org/2000/svg"
   xmlns:xlink="http://www.w3.org/1999/xlink"
   xmlns:sodipodi="http://sodipodi.sourceforge.net/DTD/sodipodi-0.dtd"
   xmlns:inkscape="http://www.inkscape.org/namespaces/inkscape"
   id="svg3078"
   version="1.1"
   inkscape:version="0.48.2 r9819"
   width="500"
   height="500"
   xml:space="preserve"
   sodipodi:docname="asdasd.svg"><metadata
     id="metadata3084"><rdf:RDF><cc:Work
         rdf:about=""><dc:format>image/svg+xml</dc:format><dc:type
           rdf:resource="http://purl.org/dc/dcmitype/StillImage" /><dc:title /></cc:Work></rdf:RDF></metadata><defs
     id="defs3082"><clipPath
       clipPathUnits="userSpaceOnUse"
       id="clipPath3092"><path
         d="m 0,0 595.27559,0 0,841.88977 L 0,841.88977 0,0 z"
         id="path3094"
         inkscape:connector-curvature="0" /></clipPath><clipPath
       clipPathUnits="userSpaceOnUse"
       id="clipPath3100"><path
         d="m -507.40158,-287.71654 0,858.89765 1207.55907,0 0,-858.89765 -1207.55907,0 z"
         id="path3102"
         inkscape:connector-curvature="0" /></clipPath><clipPath
       clipPathUnits="userSpaceOnUse"
       id="clipPath3116"><path
         d="m 623.61902,19.84103 0,858.89701 603.79118,0 0,-858.89701 -603.79118,0 m 82.99896,50.94797 435.00212,0 0,4.84201 31.93,0 c 3.6199,0.01 6.5598,2.953 6.5699,6.57001 l -0.9,0 0.9,0 0,734.17599 -0.9,0 0.9,0 c -0.01,3.62702 -2.95,6.56098 -6.5699,6.57001 l -392.26012,0 0,26.172 -107,0 0,-26.1828 c -3.45996,-0.19476 -6.20996,-3.0531 -6.20996,-6.55921 l 0,-734.17599 c 0,-3.61701 2.94195,-6.56006 6.57,-6.57001 l 31.96796,0 0,-4.84201"
         id="path3118"
         inkscape:connector-curvature="0" /></clipPath><linearGradient
       x1="0"
       y1="0"
       x2="1"
       y2="0"
       gradientUnits="userSpaceOnUse"
       gradientTransform="matrix(-3e-5,858.89801,607.784,3e-5,621.61902,19.84198)"
       spreadMethod="pad"
       id="linearGradient3134"><stop
         style="stop-opacity:1;stop-color:#ffffff"
         offset="0"
         id="stop3136" /><stop
         style="stop-opacity:1;stop-color:#ddeefa"
         offset="0.95"
         id="stop3138" /><stop
         style="stop-opacity:1;stop-color:#ddeefa"
         offset="1"
         id="stop3140" /></linearGradient><clipPath
       clipPathUnits="userSpaceOnUse"
       id="clipPath3150"><path
         d="m 781.28998,756.85101 0,10.31403 303.95002,0 0,46.00793 -303.95002,0 0,7.97406 392.26012,0 c 1.3098,0 2.4899,-0.53106 3.3701,-1.40399 0.8598,-0.86401 1.3996,-2.052 1.3996,-3.36603 l 0.9002,0 -0.9002,0 0,-59.526 -397.02982,0 m -111.41095,0 0,59.526 c 0,1.31403 0.53094,2.50202 1.40399,3.36603 0.78497,0.79248 1.83594,1.3031 3.00696,1.3905 l 0,-64.28253 -4.41095,0"
         id="path3152"
         inkscape:connector-curvature="0" /></clipPath><linearGradient
       x1="0"
       y1="0"
       x2="1"
       y2="0"
       gradientUnits="userSpaceOnUse"
       gradientTransform="matrix(0,65.1958,513.33698,2e-5,667.87903,756.85101)"
       spreadMethod="pad"
       id="linearGradient3168"><stop
         style="stop-opacity:1;stop-color:#ffffff"
         offset="0"
         id="stop3170" /><stop
         style="stop-opacity:1;stop-color:#77c0ec"
         offset="0.5"
         id="stop3172" /><stop
         style="stop-opacity:1;stop-color:#77c0ec"
         offset="0.5"
         id="stop3174" /><stop
         style="stop-opacity:1;stop-color:#77c0ec"
         offset="1"
         id="stop3176" /></linearGradient><clipPath
       clipPathUnits="userSpaceOnUse"
       id="clipPath3192"><path
         d="m 68.0318,792.28302 510.23718,0 0,-16.724 -510.23718,0 0,16.724"
         id="path3194"
         inkscape:connector-curvature="0" /></clipPath><linearGradient
       x1="0"
       y1="0"
       x2="1"
       y2="0"
       gradientUnits="userSpaceOnUse"
       gradientTransform="matrix(0,16.7247,514.237,2e-5,66.0318,775.55902)"
       spreadMethod="pad"
       id="linearGradient3208"><stop
         style="stop-opacity:1;stop-color:#9ed853"
         offset="0"
         id="stop3210" /><stop
         style="stop-opacity:1;stop-color:#ffffff"
         offset="0.5"
         id="stop3212" /><stop
         style="stop-opacity:1;stop-color:#9ed853"
         offset="1"
         id="stop3214" /></linearGradient><clipPath
       clipPathUnits="userSpaceOnUse"
       id="clipPath3262"><path
         d="m 674.65002,822.047 0,0.90002 c -0.12103,-3.6e-4 -0.24102,-0.004 -0.36004,-0.0108 l 0,26.1828 107,0 0,-26.172 -106.63996,0 0,-0.90002"
         id="path3264"
         inkscape:connector-curvature="0" /></clipPath><clipPath
       clipPathUnits="userSpaceOnUse"
       id="clipPath3270"><path
         d="M 0,1 0,0 1,0 1,1 0,1 z"
         id="path3272"
         inkscape:connector-curvature="0" /></clipPath><clipPath
       clipPathUnits="userSpaceOnUse"
       id="clipPath3282"><path
         d="m 674.28998,742.117 0,14.73401 107,0 0,-14.73401 -107,0"
         id="path3284"
         inkscape:connector-curvature="0" /></clipPath><clipPath
       clipPathUnits="userSpaceOnUse"
       id="clipPath3290"><path
         d="M 0,1 0,0 1,0 1,1 0,1 z"
         id="path3292"
         inkscape:connector-curvature="0" /></clipPath><clipPath
       clipPathUnits="userSpaceOnUse"
       id="clipPath3302"><path
         d="m 674.28998,756.85101 0,64.28253 c 0.11798,0.009 0.23797,0.0135 0.36004,0.0135 l 0,0.89997 0,-0.89997 106.63996,0 0,-7.97406 -10.052,0 0,-46.00793 10.052,0 0,-10.31403 -107,0"
         id="path3304"
         inkscape:connector-curvature="0" /></clipPath><clipPath
       clipPathUnits="userSpaceOnUse"
       id="clipPath3310"><path
         d="M 0,1 0,0 1,0 1,1 0,1 z"
         id="path3312"
         inkscape:connector-curvature="0" /></clipPath><clipPath
       clipPathUnits="userSpaceOnUse"
       id="clipPath3322"><path
         d="m 674.28998,822.93622 c 0.11902,0.007 0.23901,0.0104 0.36004,0.0108 l 0,-1.79999 c -0.12207,0 -0.24206,-0.005 -0.36004,-0.0135 l 0,1.80268 m 0.36004,-1.78919 0,1.79999 106.63996,0 0,-1.79999 -106.63996,0 m 0,0.89997 0,0.90002 0,-0.90002"
         id="path3324"
         inkscape:connector-curvature="0" /></clipPath><clipPath
       clipPathUnits="userSpaceOnUse"
       id="clipPath3330"><path
         d="M 0,1 0,0 1,0 1,1 0,1 z"
         id="path3332"
         inkscape:connector-curvature="0" /></clipPath><clipPath
       clipPathUnits="userSpaceOnUse"
       id="clipPath3342"><path
         d="m 762.52002,800.78699 c 0,-21.91699 -17.76703,-39.68494 -39.68402,-39.68494 -21.91699,0 -39.685,17.76795 -39.685,39.68494 0,21.91754 17.76801,39.68512 39.685,39.68512 21.91699,0 39.68402,-17.76758 39.68402,-39.68512"
         id="path3344"
         inkscape:connector-curvature="0" /></clipPath><linearGradient
       x1="0"
       y1="0"
       x2="1"
       y2="0"
       gradientUnits="userSpaceOnUse"
       gradientTransform="matrix(0,79.37021,83.3692,0,681.151,761.10205)"
       spreadMethod="pad"
       id="linearGradient3360"><stop
         style="stop-opacity:1;stop-color:#ffffff"
         offset="0"
         id="stop3362" /><stop
         style="stop-opacity:1;stop-color:#77c0ec"
         offset="0.5"
         id="stop3364" /><stop
         style="stop-opacity:1;stop-color:#77c0ec"
         offset="0.5"
         id="stop3366" /><stop
         style="stop-opacity:1;stop-color:#77c0ec"
         offset="1"
         id="stop3368" /></linearGradient><clipPath
       clipPathUnits="userSpaceOnUse"
       id="clipPath3378"><path
         d="m 706.61798,70.789 0,4.84201 435.00212,0 0,-4.84201 -435.00212,0"
         id="path3380"
         inkscape:connector-curvature="0" /></clipPath><clipPath
       clipPathUnits="userSpaceOnUse"
       id="clipPath3386"><path
         d="M 0,1 0,0 1,0 1,1 0,1 z"
         id="path3388"
         inkscape:connector-curvature="0" /></clipPath><clipPath
       clipPathUnits="userSpaceOnUse"
       id="clipPath3398"><path
         d="m 706.61798,399.79404 335.23202,0 0,-322.36304 -335.23202,0 0,322.36304 z"
         id="path3400"
         inkscape:connector-curvature="0" /></clipPath><clipPath
       clipPathUnits="userSpaceOnUse"
       id="clipPath3406"><path
         d="M 0,1 0,0 1,0 1,1 0,1 z"
         id="path3408"
         inkscape:connector-curvature="0" /></clipPath><clipPath
       clipPathUnits="userSpaceOnUse"
       id="clipPath3418"><path
         d="m 1040.76,399.79404 100.8601,0 0,-322.36304 -100.8601,0 0,322.36304 z"
         id="path3420"
         inkscape:connector-curvature="0" /></clipPath><clipPath
       clipPathUnits="userSpaceOnUse"
       id="clipPath3426"><path
         d="M 0,1 0,0 1,0 1,1 0,1 z"
         id="path3428"
         inkscape:connector-curvature="0" /></clipPath><clipPath
       clipPathUnits="userSpaceOnUse"
       id="clipPath3438"><path
         d="m 706.61798,75.63101 0,1.79999 435.00212,0 0,-1.79999 -435.00212,0"
         id="path3440"
         inkscape:connector-curvature="0" /></clipPath><clipPath
       clipPathUnits="userSpaceOnUse"
       id="clipPath3446"><path
         d="M 0,1 0,0 1,0 1,1 0,1 z"
         id="path3448"
         inkscape:connector-curvature="0" /></clipPath><clipPath
       clipPathUnits="userSpaceOnUse"
       id="clipPath3594"><path
         d="m 781.28998,767.16504 0,46.00793 303.95002,0 0,-46.00793 -303.95002,0"
         id="path3596"
         inkscape:connector-curvature="0" /></clipPath><clipPath
       clipPathUnits="userSpaceOnUse"
       id="clipPath3602"><path
         d="M 0,1 0,0 1,0 1,1 0,1 z"
         id="path3604"
         inkscape:connector-curvature="0" /></clipPath><clipPath
       clipPathUnits="userSpaceOnUse"
       id="clipPath3614"><path
         d="m 771.23798,767.16504 0,46.00793 10.052,0 0,-46.00793 -10.052,0"
         id="path3616"
         inkscape:connector-curvature="0" /></clipPath><clipPath
       clipPathUnits="userSpaceOnUse"
       id="clipPath3622"><path
         d="M 0,1 0,0 1,0 1,1 0,1 z"
         id="path3624"
         inkscape:connector-curvature="0" /></clipPath><linearGradient
       inkscape:collect="always"
       xlink:href="#linearGradient3134"
       id="linearGradient3903"
       gradientUnits="userSpaceOnUse"
       gradientTransform="matrix(-3e-5,858.89801,607.784,3e-5,621.61902,19.84198)"
       spreadMethod="pad"
       x1="0"
       y1="0"
       x2="1"
       y2="0" /><linearGradient
       inkscape:collect="always"
       xlink:href="#linearGradient3168"
       id="linearGradient3905"
       gradientUnits="userSpaceOnUse"
       gradientTransform="matrix(0,65.1958,513.33698,2e-5,667.87903,756.85101)"
       spreadMethod="pad"
       x1="0"
       y1="0"
       x2="1"
       y2="0" /><linearGradient
       inkscape:collect="always"
       xlink:href="#linearGradient3208"
       id="linearGradient3907"
       gradientUnits="userSpaceOnUse"
       gradientTransform="matrix(0,16.7247,514.237,2e-5,66.0318,775.55902)"
       spreadMethod="pad"
       x1="0"
       y1="0"
       x2="1"
       y2="0" /><linearGradient
       inkscape:collect="always"
       xlink:href="#linearGradient3360"
       id="linearGradient3909"
       gradientUnits="userSpaceOnUse"
       gradientTransform="matrix(0,79.37021,83.3692,0,681.151,761.10205)"
       spreadMethod="pad"
       x1="0"
       y1="0"
       x2="1"
       y2="0" /><linearGradient
       inkscape:collect="always"
       xlink:href="#linearGradient3208"
       id="linearGradient4227"
       gradientUnits="userSpaceOnUse"
       gradientTransform="matrix(0,16.7247,514.237,2e-5,66.0318,775.55902)"
       spreadMethod="pad"
       x1="0"
       y1="0"
       x2="1"
       y2="0" /></defs><sodipodi:namedview
     pagecolor="#ffffff"
     bordercolor="#666666"
     borderopacity="1"
     objecttolerance="10"
     gridtolerance="10"
     guidetolerance="10"
     inkscape:pageopacity="0"
     inkscape:pageshadow="2"
     inkscape:window-width="1440"
     inkscape:window-height="852"
     id="namedview3080"
     showgrid="false"
     inkscape:zoom="0.90321845"
     inkscape:cx="203.44594"
     inkscape:cy="220.37358"
     inkscape:window-x="0"
     inkscape:window-y="0"
     inkscape:window-maximized="0"
     inkscape:current-layer="layer2"
     showguides="true"
     inkscape:guide-bbox="true" /><g
     inkscape:groupmode="layer"
     id="layer2"
     inkscape:label="Layer"
     style="display:inline"><g
       style="display:inline"
       id="g4397"
       transform="matrix(3.0759842,0,0,-3.0759842,-479.63842,1973.7114)"><g
         transform="translate(-812.33576,82.671338)"
         id="g4222"><path
           style="fill:#f36717;fill-opacity:1;fill-rule:nonzero;stroke:none"
           d="m 1106.33,526.55798 c -2.38,3.16803 -11.44,0.37006 -20.22,-6.24896 -1.02,-0.77002 -1.9999,-1.56006 -2.9201,-2.35797 1.69,3.38196 2.0401,6.24298 0.6801,8.03595 -3.4,4.51202 -16.23,0.57703 -28.65,-8.78803 -12.43,-9.36395 -19.75,-20.61196 -16.35,-25.12295 3.4,-4.51001 16.2299,-0.57703 28.66,8.789 2.5,1.883 4.79,3.84299 6.8301,5.80698 -0.5801,-1.69095 -0.56,-3.111 0.1699,-4.082 2.3899,-3.16898 11.44,-0.37 20.22,6.24902 8.79,6.61801 13.97,14.55197 11.58,17.71896"
           id="path4218"
           inkscape:connector-curvature="0" /></g><path
         style="fill:#1575c5;fill-opacity:1;fill-rule:nonzero;stroke:none"
         d="m 161.3692,506.59135 64.39504,0 c 15.61,29.082 -3.9,56.651 -27.33,56.413 -7.4801,-0.076 -15.36302,-2.99701 -19.92503,-7.89002 0,0 17.11513,1.48603 21.53503,-11.87997 -2.79,1.88498 -7.3,3.69198 -10.9,3.992 -6.77303,0.56299 -14.10299,-1.87903 -17.50197,-7.27502 0.55591,0.13702 1.89593,0.13702 1.89593,0.13702 6.95209,-0.75 11.46308,-4.70001 9.96106,-12.59002 0,0 -2.30499,-14.84699 -22.13006,-20.90699"
         id="path4214"
         inkscape:connector-curvature="0" /><path
         style="fill:#59c134;fill-opacity:1;fill-rule:nonzero;stroke:none"
         d="m 257.35414,571.44838 c -1.9799,2.32196 -3.7799,4.28998 -5.3999,5.94998 -12.2399,-7.65298 -24.1201,-9.85098 -28.02,-4.67902 -3.06,4.04902 -0.42,11.56501 6.01,19.27601 -4.32,1.423 -8.94,2.191 -13.74,2.191 -22.6,0 -41.46407,-16.66601 -44.52206,-38.83401 9.74707,13.37204 27.05196,12.88 27.05196,12.88 9.0801,-0.0279 23.7601,-4.63 31.6601,-17.80999 l 30,-43.97199 54.05,0 -57.0901,64.99802"
         id="path4216"
         inkscape:connector-curvature="0" /></g></g></svg>