<?xml version="1.0" encoding="UTF-8"?><svg width="453" height="354" viewBox="24 73 453 354" xmlns:rdf="http://www.w3.org/1999/02/22-rdf-syntax-ns#" xmlns="http://www.w3.org/2000/svg">
 <path xmlns="http://www.w3.org/2000/svg" fill="#8080ff" d="m260.1 74.31c-74.1 0-137.5 45.89-163.2 110.9h69.7c20.6-29.6 54.8-49 93.5-49s72.9 19.4 93.5 49h10.4 59.4c-25.8-65-89.2-110.9-163.3-110.9zm174.1 152.1l-60.7 32.3c-4.5 58.7-53.5 105.1-113.4 105.1-20.4 0-39.6-5.4-56.1-14.9l-60.5 32.4c31 27.6 71.8 44.4 116.6 44.4 97 0 175.6-78.8 175.6-175.8 0-8-0.5-15.8-1.5-23.5zm-348.9 7.6c-0.48 5.2-0.78 10.5-0.78 15.9 0 37.9 12.03 73 32.42 101.8l46.1-42.5c-8.1-13.3-13.6-28.4-15.7-44.6l-62.04-30.6z"/>
 <path xmlns="http://www.w3.org/2000/svg" fill="#a349a4" d="m25 194.1 121.4 59.87h90.13l-173.5 159.6 299.6-159.7 112.4-59.8h-173.3-276.7z"/>
</svg>