<?xml version="1.0" encoding="UTF-8" standalone="no"?>
<!-- Created with Inkscape (http://www.inkscape.org/) -->

<svg
   xmlns:dc="http://purl.org/dc/elements/1.1/"
   xmlns:cc="http://creativecommons.org/ns#"
   xmlns:rdf="http://www.w3.org/1999/02/22-rdf-syntax-ns#"
   xmlns:svg="http://www.w3.org/2000/svg"
   xmlns="http://www.w3.org/2000/svg"
   xmlns:sodipodi="http://sodipodi.sourceforge.net/DTD/sodipodi-0.dtd"
   xmlns:inkscape="http://www.inkscape.org/namespaces/inkscape"
   width="500"
   height="500"
   id="svg3128"
   version="1.1"
   inkscape:version="0.48.2 r9819"
   sodipodi:docname="Mitane.svg">
  <defs
     id="defs3130" />
  <sodipodi:namedview
     id="base"
     pagecolor="#ffffff"
     bordercolor="#666666"
     borderopacity="1.0"
     inkscape:pageopacity="0.0"
     inkscape:pageshadow="2"
     inkscape:zoom="1.2645058"
     inkscape:cx="296.33325"
     inkscape:cy="257.7801"
     inkscape:document-units="px"
     inkscape:current-layer="g3251"
     showgrid="false"
     inkscape:window-width="1440"
     inkscape:window-height="852"
     inkscape:window-x="0"
     inkscape:window-y="0"
     inkscape:window-maximized="1" />
  <metadata
     id="metadata3133">
    <rdf:RDF>
      <cc:Work
         rdf:about="">
        <dc:format>image/svg+xml</dc:format>
        <dc:type
           rdf:resource="http://purl.org/dc/dcmitype/StillImage" />
      </cc:Work>
    </rdf:RDF>
  </metadata>
  <g
     id="g3251"
     inkscape:groupmode="layer"
     inkscape:label="Layer 1 copy"
     style="display:inline"
     transform="translate(0,-552.36218)">
    <g
       transform="matrix(1.5746836,0,0,1.5746836,-527.06263,-124.53541)"
       id="g3255">
      <g
         id="g3265">
        <path
           id="path3257"
           d="m 388.50468,722.26858 c -22.00404,-6.19445 -36.42038,-23.27202 -40.89165,-48.44017 -2.42766,-13.66499 -0.52521,-31.26608 4.87134,-45.06859 11.56857,-29.58844 30.59281,-49.91267 57.8145,-61.76517 10.5689,-4.60177 27.95359,-6.07902 38.95449,-3.31012 16.98995,4.27633 31.60051,17.84362 37.52874,34.849 2.68542,7.70326 4.57538,17.07203 3.56936,17.69379 -1.03259,0.63817 -10.15966,-2.24223 -13.46925,-4.25074 -2.77034,-1.68126 -2.92945,-2.15501 -3.17157,-9.4436 -0.43757,-13.1721 -7.0119,-24.03689 -17.13949,-28.32487 -6.12511,-2.59334 -18.30334,-1.66265 -25.77228,1.96958 -11.28801,5.48949 -21.88064,18.6562 -26.6146,33.08213 -2.10441,6.41285 -1.70477,20.14477 0.74214,25.5 2.64713,5.79344 6.6635,10.50801 11.78956,13.83904 3.64974,2.37169 7.6955,3.91177 12.67848,3.35606 4.96537,-0.2756 10.05522,-1.00046 16.14334,-3.99493 8.14159,-4.00448 16.21956,-11.21162 20.26108,-18.07689 1.86247,-3.16375 3.51302,-4.90854 4.35298,-4.60153 2.81774,1.02989 15.76208,3.47665 18.39702,3.47743 3.33744,9.9e-4 3.47642,1.49407 1.19082,12.79298 -5.20315,25.72179 -19.77359,49.40606 -39.65189,64.45418 -8.93276,6.76221 -13.81592,9.46525 -24.78893,13.72172 -7.4798,2.90144 -9.88026,3.34122 -20,3.66414 -8.13457,0.25957 -13.04932,-0.0692 -16.79419,-1.12344 z"
           style="fill:#fe4101;fill-opacity:1"
           inkscape:connector-curvature="0" />
        <path
           id="path3259"
           d="m 569.31949,721.7525 c -15.26953,-4.12158 -29.12606,-12.34157 -40.7203,-24.15616 -14.48088,-14.7561 -22.54385,-28.30363 -28.17287,-47.33652 -2.14251,-7.24426 -4.16157,-20.13255 -3.29041,-21.00371 0.27296,-0.27296 1.88379,-0.50294 3.57963,-0.51107 2.95604,-0.0142 13.31784,-2.16998 16.70457,-3.47545 1.17276,-0.45206 2.3225,0.56664 4.15636,3.68265 3.97117,6.74765 13.5072,15.55267 20.68356,19.09802 5.06189,2.50074 8.05298,3.2724 13.81142,3.56319 9.30924,0.4701 14.68304,-1.46715 20.6659,-7.45 13.02685,-13.02685 11.15784,-37.54816 -4.24519,-55.69683 -9.3377,-11.00217 -18.84099,-15.95052 -30.69329,-15.98193 -16.25411,-0.0431 -26.24516,10.60633 -27.45134,29.26025 -0.54866,8.48512 -0.54866,8.48512 -4.55409,10.69001 -2.20298,1.21269 -5.91548,2.63405 -8.25,3.15858 -3.9379,0.88479 -4.24457,0.80343 -4.24457,-1.12612 0,-4.66274 3.47151,-15.673 7.2558,-23.01256 9.78417,-18.97619 27.09589,-29.15655 49.2442,-28.95864 11.33296,0.10126 19.40829,2.18806 31,8.01091 9.82805,4.93691 14.89957,8.56336 23.33761,16.68779 9.25522,8.91124 15.92953,17.88802 21.70819,29.19696 13.72285,26.85589 15.16024,54.37 4.01966,76.94308 -6.64552,13.46518 -16.90054,22.7839 -30.39371,27.61871 -8.5183,3.05225 -24.42433,3.42431 -34.15113,0.79884 z"
           style="fill:#2c71b2;fill-opacity:1"
           inkscape:connector-curvature="0" />
        <path
           sodipodi:nodetypes="cssssszsssssssscc"
           id="path3261"
           d="m 484.68693,625.70873 c -22.99021,-2.99972 -43.51645,-16.44178 -56.75687,-37.16848 -3.65371,-5.71957 -3.65371,-5.71957 -1.15602,-7.35612 8.03154,-5.26247 19.82911,-7.77992 25.80741,-5.50697 2.12439,0.80769 2.48903,1.73398 3.0508,7.7498 1.20523,12.9065 10.55996,26.18592 22.61873,32.10819 4.91678,2.41472 10.33598,3.16951 15.54789,3.16951 5.21191,0 10.70509,-0.77525 15.76825,-3.14787 7.52582,-3.52664 16.1073,-12.13611 19.30603,-19.36901 1.36421,-3.08472 2.99367,-8.91023 3.62104,-12.94557 0.94326,-6.06731 1.50095,-7.43373 3.22267,-7.89603 6.09821,-1.63745 17.35607,0.67481 23.68848,4.8654 2.14144,1.41714 3.89353,2.81555 3.89353,3.10759 0,2.13947 -11.23729,16.41376 -17.37069,22.06531 -12.19154,11.23375 -26.1335,17.92598 -42.32086,20.31429 -7.95285,1.17337 -9.99565,1.17445 -18.92039,0.01 z"
           style="fill:#41a529;fill-opacity:1"
           inkscape:connector-curvature="0" />
        <path
           sodipodi:nodetypes="ssssccsssssssscsszsss"
           id="path3263"
           d="m 448.79887,561.09213 c -5.09171,-1.44551 -24.59547,-1.35675 -29.11228,0.13249 -2.7857,0.91847 -3.34248,-1.0674 -4.05549,-14.4648 -0.39583,-7.43767 -0.0818,-13.27068 1.07679,-20 0.67473,-3.91898 1.69201,-8.23954 2.75526,-12.00662 2.00941,-6.54049 4.74881,-12.48001 8.23876,-17.93259 3.34039,-5.09045 8.46244,-11.7232 12.18932,-15.41874 15.11702,-14.98989 33.28098,-22.60732 53.90764,-22.60732 20.95782,0 38.17206,7.0633 53.5324,21.96527 16.81656,16.31474 24.9676,36.18007 24.9676,60.84984 0,5.97906 -0.29099,12.99405 -0.64665,15.58887 -0.57667,4.20723 -0.8743,4.65002 -2.75,4.09109 -1.15684,-0.34472 -6.64472,-0.89094 -12.19529,-1.21383 -7.63439,-0.4441 -11.97641,-0.16781 -17.83054,1.13461 -4.25623,0.94692 -7.85841,1.57042 -8.00486,1.38555 -0.14644,-0.18487 -1.55581,-2.74289 -3.13192,-5.68448 -3.64425,-6.80149 -10.85558,-13.29296 -19.18106,-17.26634 -6.12807,-2.92466 -7.65734,-3.62194 -15.41698,-3.54992 -7.75964,0.072 -10.50787,1.75535 -15.0785,3.99155 -7.20224,3.52373 -15.9098,12.07889 -18.36187,18.04051 -2.12151,5.15793 -2.66079,5.30458 -10.90233,2.96486 z"
           style="fill:#41a529;fill-opacity:1"
           inkscape:connector-curvature="0" />
      </g>
    </g>
  </g>
</svg>
