<svg xmlns="http://www.w3.org/2000/svg" width="900" height="860"><path fill="#9dc600" d="M148.2 452.2c0-90.4 40-171.5 103.4-226.7L192 144a403.2 403.2 0 0 0-93.6 112.6l-48.8-19.3c-12.5 23.2-23.3 47.7-31.8 73.7C9.3 336.8 3.6 363 0 389l50.5 12.9c-2 16.5-3.2 33.3-3.2 50.4 0 33.8 4.2 66.5 12 98l96.4-31.2c-5-21.6-7.6-44-7.6-66.8zm148-259c45.4-27 98.4-42.5 155-42.5s109.7 15.5 155 42.5l59.5-81.5c-41.4-26-88-44.3-137.6-54l3.2-50.4c-26-4.7-52.8-7.3-80.2-7.3C423.8 0 397 2.6 371 7.3l3.2 50.5c-49.7 9.6-96.2 28-137.6 54l59.5 81.5h0zM729.7 571c-43 99.4-138 171.2-251 181.3V853c49.8-3.3 97-15.7 140.3-35.4L646 860c23.8-11.4 47-25 69.2-41s42.3-33.7 60.5-52.8l-31.5-38c34.6-36.3 62.6-79 81.7-126.2L729.7 571h0zm-557 0l-96.3 31c18.3 45.3 44.8 86.4 77.5 121.8l-33.5 40.3c18.3 19 38.4 36.8 60.6 52.8 22 16 45.3 29.6 69.2 41l27.4-43c44.8 21.3 94 34.7 146 38.2V752.4c-113-10.2-208-82-251-181.4h0zM900 392.2c-3.6-26-9.4-52.2-17.8-78-8.5-26-19.2-50.4-31.7-73.6l-45.4 18c-24.2-43.8-56.5-82.6-94.7-114.4l-59.6 81.6c63.3 55.3 103.4 136.3 103.4 226.7 0 23-2.7 45.2-7.6 66.7l96.4 31c8-31.3 12-64 12-98 0-16.2-1-32-3-47.8l47.8-12h0zm-448.8-141c-111.6 0-202 90-202 201s90.4 201 202 201 202-90 202-201-90.5-201-202-201zm0 301.5c-55.8 0-101-45-101-100.5s45.2-100.5 101-100.5 101 45 101 100.5-45.2 100.5-101 100.5z"/></svg>