<?xml version="1.0" encoding="UTF-8" standalone="no"?>
<!-- Created with Inkscape (http://www.inkscape.org/) -->
<svg
   xmlns:dc="http://purl.org/dc/elements/1.1/"
   xmlns:cc="http://web.resource.org/cc/"
   xmlns:rdf="http://www.w3.org/1999/02/22-rdf-syntax-ns#"
   xmlns:svg="http://www.w3.org/2000/svg"
   xmlns="http://www.w3.org/2000/svg"
   xmlns:sodipodi="http://sodipodi.sourceforge.net/DTD/sodipodi-0.dtd"
   xmlns:inkscape="http://www.inkscape.org/namespaces/inkscape"
   width="500"
   height="500"
   id="svg2"
   sodipodi:version="0.32"
   inkscape:version="0.46dev+devel"
   version="1.0"
   sodipodi:docname="Hachirougata.svg"
   inkscape:output_extension="org.inkscape.output.svg.inkscape">
  <defs
     id="defs4" />
  <sodipodi:namedview
     id="base"
     pagecolor="#ffffff"
     bordercolor="#666666"
     borderopacity="1.0"
     gridtolerance="10000"
     guidetolerance="10"
     objecttolerance="10"
     inkscape:pageopacity="0.0"
     inkscape:pageshadow="2"
     inkscape:zoom="1.032"
     inkscape:cx="250"
     inkscape:cy="250"
     inkscape:document-units="px"
     inkscape:current-layer="layer1"
     width="500px"
     height="500px"
     inkscape:window-width="1024"
     inkscape:window-height="712"
     inkscape:window-x="0"
     inkscape:window-y="22" />
  <metadata
     id="metadata7">
    <rdf:RDF>
      <cc:Work
         rdf:about="">
        <dc:format>image/svg+xml</dc:format>
        <dc:type
           rdf:resource="http://purl.org/dc/dcmitype/StillImage" />
      </cc:Work>
    </rdf:RDF>
  </metadata>
  <g
     inkscape:label="Layer 1"
     inkscape:groupmode="layer"
     id="layer1">
    <g
       id="g2141">
      <path
         id="path3574"
         d="M 43.9375 184.03125 L 43.9375 245.09375 L 25 245.09375 L 25 254.90625 L 43.9375 254.90625 L 43.9375 315.96875 L 250 257.90625 L 456.0625 315.96875 L 456.0625 254.90625 L 475 254.90625 L 475 245.09375 L 456.0625 245.09375 L 456.0625 184.03125 L 250 242.125 L 43.9375 184.03125 z M 53.3125 245.09375 L 221.125 245.09375 L 221.125 254.90625 L 53.3125 254.90625 L 53.3125 245.09375 z M 278.875 245.09375 L 446.6875 245.09375 L 446.6875 254.90625 L 278.875 254.90625 L 278.875 245.09375 z "
         style="fill:#b3b3b3;fill-opacity:1;stroke:none;stroke-width:1;stroke-linecap:round;stroke-miterlimit:4;stroke-dasharray:none;stroke-opacity:1" />
      <path
         id="rect2150"
         d="M 155.21348,92.016708 L 155.21348,202.07289 L 250,229.07289 L 344.78652,202.07289 L 344.78652,92.016708 L 155.21348,92.016708 z M 193.33708,119.25266 L 306.66292,119.25266 L 306.66292,191.15154 L 250,212.4212 L 193.33708,191.15154 L 193.33708,119.25266 z"
         style="fill:#1b9f7e;fill-opacity:1;stroke:none;stroke-width:1;stroke-linecap:round;stroke-miterlimit:4;stroke-dasharray:none;stroke-opacity:1" />
      <path
         id="rect3118"
         d="M 208.03371,132.2639 L 208.03371,184.61222 L 250,202.94929 L 291.96629,184.61222 L 291.96629,132.2639 L 208.03371,132.2639 z M 215.92135,139.64592 L 284.07865,139.64592 L 284.07865,179.8257 L 250.03371,191.96053 L 215.92135,179.8257 L 215.92135,139.64592 z"
         style="fill:#ffcc00;fill-opacity:1;stroke:none;stroke-width:1;stroke-linecap:round;stroke-miterlimit:4;stroke-dasharray:none;stroke-opacity:1" />
      <path
         id="rect3523"
         d="M 219.94944,144.80323 L 219.94944,177.16278 L 249.98315,187.57851 L 280.05057,177.16278 L 280.05057,144.80323 L 219.94944,144.80323 z"
         style="fill:#ffff00;fill-opacity:1;stroke:none;stroke-width:1;stroke-linecap:round;stroke-miterlimit:4;stroke-dasharray:none;stroke-opacity:1" />
      <path
         style="fill:#1b9f7e;fill-opacity:1;stroke:none;stroke-width:1;stroke-linecap:round;stroke-miterlimit:4;stroke-dasharray:none;stroke-opacity:1"
         d="M 155.4061,407.98329 L 155.4061,297.92711 L 250.19262,270.92711 L 344.97913,297.92711 L 344.97913,407.98329 L 155.4061,407.98329 z M 193.52969,380.74734 L 306.85554,380.74734 L 306.85554,308.84846 L 250.19262,287.5788 L 193.52969,308.84846 L 193.52969,380.74734 z"
         id="path3599" />
      <path
         style="fill:#ffcc00;fill-opacity:1;stroke:none;stroke-width:1;stroke-linecap:round;stroke-miterlimit:4;stroke-dasharray:none;stroke-opacity:1"
         d="M 208.22632,367.7361 L 208.22632,315.38779 L 250.19262,297.05071 L 292.15891,315.38779 L 292.15891,367.7361 L 208.22632,367.7361 z M 216.11396,360.35408 L 284.27127,360.35408 L 284.27127,320.1743 L 250.22632,308.03947 L 216.11396,320.1743 L 216.11396,360.35408 z"
         id="path3601" />
      <path
         style="fill:#ffff00;fill-opacity:1;stroke:none;stroke-width:1;stroke-linecap:round;stroke-miterlimit:4;stroke-dasharray:none;stroke-opacity:1"
         d="M 220.14206,355.19677 L 220.14206,322.83722 L 250.17577,312.42149 L 280.24318,322.83722 L 280.24318,355.19677 L 220.14206,355.19677 z"
         id="path3603" />
    </g>
  </g>
</svg>
