<?xml version="1.0" encoding="UTF-8" standalone="no"?>
<!-- Creator: CorelDRAW -->

<svg
   xmlns:dc="http://purl.org/dc/elements/1.1/"
   xmlns:cc="http://creativecommons.org/ns#"
   xmlns:rdf="http://www.w3.org/1999/02/22-rdf-syntax-ns#"
   xmlns:svg="http://www.w3.org/2000/svg"
   xmlns="http://www.w3.org/2000/svg"
   xmlns:sodipodi="http://sodipodi.sourceforge.net/DTD/sodipodi-0.dtd"
   xmlns:inkscape="http://www.inkscape.org/namespaces/inkscape"
   xml:space="preserve"
   width="500"
   height="500"
   style="fill-rule:evenodd"
   viewBox="0 0 500 500"
   id="svg2"
   version="1.1"
   inkscape:version="0.48.2 r9819"
   sodipodi:docname="Symbol of Misato, Akita.svg"><metadata
   id="metadata18"><rdf:RDF><cc:Work
       rdf:about=""><dc:format>image/svg+xml</dc:format><dc:type
         rdf:resource="http://purl.org/dc/dcmitype/StillImage" /></cc:Work></rdf:RDF></metadata><sodipodi:namedview
   pagecolor="#ffffff"
   bordercolor="#666666"
   borderopacity="1"
   objecttolerance="10"
   gridtolerance="10"
   guidetolerance="10"
   inkscape:pageopacity="0"
   inkscape:pageshadow="2"
   inkscape:window-width="1440"
   inkscape:window-height="852"
   id="namedview16"
   showgrid="false"
   inkscape:zoom="2.2003387"
   inkscape:cx="293.33437"
   inkscape:cy="350"
   inkscape:window-x="0"
   inkscape:window-y="0"
   inkscape:window-maximized="0"
   inkscape:current-layer="svg2" />
 <defs
   id="defs4">
  <style
   type="text/css"
   id="style6">
   
    .fil0 {fill:#027FC2}
    .fil1 {fill:white}
    .fil2 {fill:white;fill-rule:nonzero}
   
  </style>
 
  
  
  
  
 </defs>
 <g
   id="g3003"
   style="fill:#2255a4;fill-opacity:1"
   transform="matrix(0.7798584,0,0,0.7798584,-138.67895,-21.630339)"><circle
     class="fil1"
     cx="566.81702"
     cy="426.01001"
     r="36.500198"
     id="circle12"
     sodipodi:cx="566.81702"
     sodipodi:cy="426.01001"
     sodipodi:rx="36.500198"
     sodipodi:ry="36.500198"
     style="fill:#2255a4;fill-opacity:1"
     d="m 603.31721,426.01001 c 0,20.1585 -16.34169,36.5002 -36.50019,36.5002 -20.15851,0 -36.5002,-16.3417 -36.5002,-36.5002 0,-20.1585 16.34169,-36.5002 36.5002,-36.5002 20.1585,0 36.50019,16.3417 36.50019,36.5002 z" /><path
     id="path14"
     d="m 801.928,530.195 c -108.565,-56.1981 -296.86,-74.3304 -446.515,-48.7146 54.1028,-138.967 124.583,-320.181 162.826,-418.981 -69.1878,73.3512 -126.3,99.5363 -168.212,99.5363 -30.9461,0 -53.7993,-19.5402 -63.9686,-36.9933 8.263,60.3237 32.387,100.639 72.7123,100.639 59.6882,0 94.9524,-64.493 128.92,-114.021 1.78583,-2.28543 3.24685,-1.11496 1.89685,1.27087 -41.6658,74.0505 -152.386,269.82 -221.675,391.702 -16.4386,6.03426 -34.9158,14.7095 -47.8737,21.5126 -19.5307,10.2484 -28.3382,31.1918 -16.8307,49.7741 4.76339,7.6819 11.4213,12.4335 20.2323,13.65 -3.69213,18.1559 3.34488,34.4835 19.9288,42.7784 23.8099,11.9221 50.6752,2.92441 62.0623,-24.7016 6.18898,-14.9882 12.8244,-31.2272 19.7953,-48.4122 93.4761,-49.0465 313.21,-72.456 476.702,-29.0398 z"
     style="fill:#2255a4;fill-opacity:1;fill-rule:nonzero"
     inkscape:connector-curvature="0" /></g>
</svg>