<?xml version="1.0" encoding="UTF-8" standalone="no"?>
<!-- Created with Inkscape (http://www.inkscape.org/) -->

<svg
   xmlns:dc="http://purl.org/dc/elements/1.1/"
   xmlns:cc="http://creativecommons.org/ns#"
   xmlns:rdf="http://www.w3.org/1999/02/22-rdf-syntax-ns#"
   xmlns:svg="http://www.w3.org/2000/svg"
   xmlns="http://www.w3.org/2000/svg"
   xmlns:sodipodi="http://sodipodi.sourceforge.net/DTD/sodipodi-0.dtd"
   xmlns:inkscape="http://www.inkscape.org/namespaces/inkscape"
   width="500"
   height="500"
   id="svg2"
   version="1.1"
   inkscape:version="0.48.2 r9819"
   sodipodi:docname="Symbol of Higashinaruse, Akita (no grids).svg">
  <defs
     id="defs4" />
  <sodipodi:namedview
     id="base"
     pagecolor="#ffffff"
     bordercolor="#666666"
     borderopacity="1.0"
     inkscape:pageopacity="0.0"
     inkscape:pageshadow="2"
     inkscape:zoom="0.84157337"
     inkscape:cx="520.93806"
     inkscape:cy="234.86231"
     inkscape:document-units="px"
     inkscape:current-layer="svg2"
     showgrid="false"
     showguides="true"
     inkscape:guide-bbox="true"
     inkscape:window-width="1440"
     inkscape:window-height="852"
     inkscape:window-x="0"
     inkscape:window-y="0"
     inkscape:window-maximized="0"
     gridtolerance="1"
     guidetolerance="4" />
  <metadata
     id="metadata7">
    <rdf:RDF>
      <cc:Work
         rdf:about="">
        <dc:format>image/svg+xml</dc:format>
        <dc:type
           rdf:resource="http://purl.org/dc/dcmitype/StillImage" />
        <dc:title />
      </cc:Work>
    </rdf:RDF>
  </metadata>
  <g
     inkscape:groupmode="layer"
     id="layer2"
     inkscape:label="Inside"
     style="display:inline"
     transform="translate(0,-552.36218)">
    <g
       id="g3785"
       transform="matrix(1.8750062,0,0,1.8750062,-634.06502,-102.89569)">
      <path
         inkscape:connector-curvature="0"
         id="path3227"
         d="M 344.40625,379.375 379.5,417.65625 c -15.0062,18.18295 -24.03125,41.49232 -24.03125,66.90625 0,58.08899 47.09851,105.15625 105.1875,105.15625 56.89637,0 103.24566,-45.15554 105.125,-101.59375 l -47.625,0 c -2.37218,29.70277 -27.18566,53.0625 -57.5,53.0625 -31.88343,0 -57.71875,-25.83532 -57.71875,-57.71875 0,-31.88343 25.83532,-57.71875 57.71875,-57.71875 13.949,0 26.74203,4.9544 36.71875,13.1875 l 31.96875,-34.03125 C 510.91452,389.00283 486.90602,379.375 460.65625,379.375 l -116.25,0 z"
         style="fill:#115a11;fill-opacity:1;stroke:none;display:inline" />
      <path
         id="rect4095"
         d="m 527.375,429.1875 2.15625,8.0625 -7.625,0 -64.8125,0 -20.96875,46.125 16.25,0 16.3125,0 0.0937,0 5.75,-12.03125 8.25,0 -5.75,12.03125 0.0625,0 31.75,0 0.0625,0 12,-25.15625 -40.125,0 2.28125,-4.75 50.875,0 1.3125,4.75 -6.125,0 -12,25.15625 0.1875,0 17.8125,0 4.40625,-9.28125 2.53125,9.28125 31.28125,0 -2.6875,-9.90625 9.5,0 0.0625,0 4.40625,-10.15625 2.21875,-5.09375 -0.0312,0 -20.28125,0 -1.3125,-4.75 14.90625,0 8.75,0 0.0625,0 10.59375,-24.28125 -0.34375,0 -25.65625,0 2.1875,8.0625 -14.875,0 -2.1875,-8.0625 -31.28125,0 z"
         style="fill:#115a11;fill-opacity:1;stroke:none;display:inline"
         inkscape:connector-curvature="0" />
    </g>
  </g>
</svg>
