<?xml version="1.0" encoding="UTF-8"?><svg width="412" height="453" viewBox="44 23 412 453" xmlns="http://www.w3.org/2000/svg">
 <path xmlns="http://www.w3.org/2000/svg" fill="#000000" d="m250 25-67.8 67.8c-79.4 28-136.4 103.7-136.4 192.7 0.07 83.5 51.04 158.6 128.7 189.5l58.56-83.64c-11.48 8.164-22.26 13.97-34.2 14.17-7.563-0.0193-15.01-1.84-21.73-5.312-4.72-2.912-8.339-5.743-12.28-8.854-32.14-25.77-50.87-64.71-50.97-105.9 0-75.18 60.95-136.1 136.1-136.1 75.18 0 136.1 60.95 136.1 136.1-0.0905 41.19-18.83 80.13-50.97 105.9-3.939 3.111-7.559 5.942-12.28 8.854-6.719 3.472-14.17 5.293-21.73 5.312-11.94-0.1952-22.72-6.002-34.2-14.17l58.6 83.6c77.63-30.9 128.6-106 128.7-189.5 0-89.01-56.95-164.7-136.4-192.7l-67.8-67.8z"/>
</svg>