<?xml version="1.0" encoding="UTF-8" standalone="no"?>
<svg
   xmlns:dc="http://purl.org/dc/elements/1.1/"
   xmlns:cc="http://creativecommons.org/ns#"
   xmlns:rdf="http://www.w3.org/1999/02/22-rdf-syntax-ns#"
   xmlns:svg="http://www.w3.org/2000/svg"
   xmlns="http://www.w3.org/2000/svg"
   xmlns:sodipodi="http://sodipodi.sourceforge.net/DTD/sodipodi-0.dtd"
   xmlns:inkscape="http://www.inkscape.org/namespaces/inkscape"
   version="1.0"
   width="593.000000pt"
   height="564.000000pt"
   viewBox="0 0 593.000000 564.000000"
   preserveAspectRatio="xMidYMid meet"
   id="svg2"
   inkscape:version="0.48.4 r9939"
   sodipodi:docname="jjj.svg">
  <defs
     id="defs22" />
  <sodipodi:namedview
     pagecolor="#ffffff"
     bordercolor="#666666"
     borderopacity="1"
     objecttolerance="10"
     gridtolerance="10"
     guidetolerance="10"
     inkscape:pageopacity="0"
     inkscape:pageshadow="2"
     inkscape:window-width="1600"
     inkscape:window-height="844"
     id="namedview20"
     showgrid="false"
     inkscape:zoom="0.48"
     inkscape:cx="227.99639"
     inkscape:cy="352.5"
     inkscape:window-x="-4"
     inkscape:window-y="-4"
     inkscape:window-maximized="1"
     inkscape:current-layer="svg2" />
  <metadata
     id="metadata4">
Created by potrace 1.11, written by Peter Selinger 2001-2013
<rdf:RDF>
  <cc:Work
     rdf:about="">
    <dc:format>image/svg+xml</dc:format>
    <dc:type
       rdf:resource="http://purl.org/dc/dcmitype/StillImage" />
  </cc:Work>
</rdf:RDF>
</metadata>
  <g
     transform="translate(0.000000,564.000000) scale(0.100000,-0.100000)"
     fill="#000000"
     stroke="none"
     id="g6">
    <path
       d="M2835 5354 c-561 -58 -1004 -234 -1412 -563 -127 -102 -338 -319 -432 -444 -188 -251 -330 -535 -414 -827 -38 -133 -72 -288 -64 -296 2 -2 26 15 53 39 151 135 412 318 604 422 412 225 893 370 1415 425 170 18 556 24 740 11 861 -60 1567 -337 2158 -844 37 -32 67 -52 67 -45 -1 29 -42 206 -71 306 -185 624 -613 1159 -1192 1492 -261 150 -557 252 -872 301 -125 19 -478 33 -580 23z"
       id="path8"
       style="fill:#0055d4" />
    <path
       d="M1930 3459 c-167 -8 -377 -32 -529 -59 -116 -21 -333 -71 -328 -76 2 -2 77 7 168 20 250 37 410 48 689 48 518 -1 981 -72 1517 -233 651 -196 1403 -576 1935 -977 l108 -81 14 52 c9 29 27 106 42 172 l26 119 -22 16 c-125 85 -582 320 -845 433 -798 343 -1555 529 -2306 567 -212 11 -253 11 -469 -1z"
       id="path10"
       style="fill:#0055d4" />
    <path
       d="M1420 3250 c-120 -12 -350 -41 -350 -46 0 -2 102 -1 228 3 1088 28 2232 -323 3320 -1019 241 -154 650 -455 676 -497 16 -25 35 -7 69 66 34 74 77 186 77 204 0 12 -135 110 -310 225 -882 578 -1821 931 -2790 1050 -156 19 -765 28 -920 14z"
       id="path12"
       style="fill:#0055d4" />
    <path
       d="M1075 3061 c-72 -5 -61 -7 100 -13 711 -30 1401 -208 2126 -551 570 -269 1232 -715 1683 -1134 50 -46 92 -83 95 -83 10 0 108 142 145 210 l35 65 -62 50 c-367 295 -828 587 -1287 816 -702 349 -1347 546 -2050 625 -144 17 -647 26 -785 15z"
       id="path14"
       style="fill:#0055d4" />
    <path
       d="M1120 2904 c896 -97 1770 -469 2635 -1119 275 -207 468 -377 738 -647 131 -131 241 -238 245 -238 7 0 108 102 210 211 l44 46 -129 116 c-1145 1032 -2541 1653 -3698 1646 l-170 -1 125 -14z"
       id="path16"
       style="fill:#0055d4" />
    <path
       d="M516 2343 c30 -173 118 -445 199 -620 315 -677 950 -1204 1670 -1388 451 -115 884 -112 1326 9 294 81 628 245 854 421 l54 42 -113 124 c-142 156 -377 385 -525 513 -101 87 -117 97 -143 92 -67 -13 -312 -46 -428 -57 -182 -17 -602 -15 -800 5 -805 80 -1477 357 -2028 834 l-73 64 7 -39z"
       id="path18"
       style="fill:#00aa44" />
  </g>
</svg>
