<?xml version="1.0" encoding="utf-8" standalone="no"?>
<svg xmlns:svg="http://www.w3.org/2000/svg" xmlns="http://www.w3.org/2000/svg" version="1.1" width="500" height="500" viewBox="-250,-257,500,500">
	<title>Yamagata, Yamagata Chapter</title>
	<polygon points="250,243 -250,243 -250,-257 250,-257 " style="fill:none;stroke:none" />
	<path d="M 0,-240 A 240,240 0 0 0 -22,-238.84375 L -22,67.28125 -32,80.09375 -32,-237.5 A 240,240 0 0 0 -75,-227.59375 L -75,-227.8125 A 240,240 0 0 0 -77.34375,-226.90625 240,240 0 0 0 -82,-225.34375 L -82,-225.125 A 240,240 0 0 0 -240,0 240,240 0 0 0 -92,221.4375 L -92,166.1875 A 190,190 0 0 1 -190,0 190,190 0 0 1 -82,-171.0625 L -82,225.28125 0,120.34375 82,225.28125 82,-171.09375 A 190,190 0 0 1 190,0 190,190 0 0 1 92,166 L 92,221.59375 A 240,240 0 0 0 240,0 240,240 0 0 0 82,-225.15625 L 82,-225.25 A 240,240 0 0 0 79.8125,-225.9375 240,240 0 0 0 75,-227.65625 L 75,-227.40625 A 240,240 0 0 0 32,-237.59375 L 32,80.09375 22,67.28125 22,-238.59375 A 240,240 0 0 0 0,-240 z" style="fill:#ffc90d;stroke:none" />
</svg>