<svg xmlns="http://www.w3.org/2000/svg" width="200" height="150"><path fill="#298193" d="M17.354 143.164l27.842-54.48s-14.512 1.746-21.961-2.238C5.53 76.969 1.346 60.406 1.346 60.406h45.996s2.598-20.035 21.065-36.469 43.229-17.101 43.229-17.101V38.94c-13.401 0-26.647 10.623-30.723 21.637h17.832l-16.28 32.004c6.796 11.561 16.188 16.66 29.171 18.367v32.215c-20.274-1.84-32.549-8.238-45.151-19.078l-9.756 19.078H17.354zm99.064-32.215s33.693-2.793 33.693-35.988-33.693-36.021-33.693-36.021V6.836h82.237c0 .87-14.509 31.526-14.509 31.526h-12.115s10.272 17.707 10.272 36.598-10.272 36.247-10.272 36.247h12.115l14.508 31.955h-82.236v-32.213h0z"/></svg>