<?xml version="1.0" encoding="UTF-8" standalone="no"?>
<!-- Created with Inkscape (http://www.inkscape.org/) -->

<svg
   xmlns:dc="http://purl.org/dc/elements/1.1/"
   xmlns:cc="http://creativecommons.org/ns#"
   xmlns:rdf="http://www.w3.org/1999/02/22-rdf-syntax-ns#"
   xmlns:svg="http://www.w3.org/2000/svg"
   xmlns="http://www.w3.org/2000/svg"
   xmlns:sodipodi="http://sodipodi.sourceforge.net/DTD/sodipodi-0.dtd"
   xmlns:inkscape="http://www.inkscape.org/namespaces/inkscape"
   width="300"
   height="265.63641"
   id="svg2"
   version="1.1"
   inkscape:version="0.48.4 r"
   sodipodi:docname="Symbol of Kitakata Fukushima.svg">
  <defs
     id="defs4" />
  <sodipodi:namedview
     id="base"
     pagecolor="#ffffff"
     bordercolor="#666666"
     borderopacity="1.0"
     inkscape:pageopacity="0.0"
     inkscape:pageshadow="2"
     inkscape:zoom="1.4161109"
     inkscape:cx="100.05875"
     inkscape:cy="12.309479"
     inkscape:document-units="px"
     inkscape:current-layer="layer1"
     showgrid="false"
     inkscape:window-width="1280"
     inkscape:window-height="961"
     inkscape:window-x="-8"
     inkscape:window-y="-8"
     inkscape:window-maximized="1"
     fit-margin-top="0"
     fit-margin-left="0"
     fit-margin-right="0"
     fit-margin-bottom="0" />
  <metadata
     id="metadata7">
    <rdf:RDF>
      <cc:Work
         rdf:about="">
        <dc:format>image/svg+xml</dc:format>
        <dc:type
           rdf:resource="http://purl.org/dc/dcmitype/StillImage" />
        <dc:title></dc:title>
      </cc:Work>
    </rdf:RDF>
  </metadata>
  <g
     inkscape:label="レイヤー 1"
     inkscape:groupmode="layer"
     id="layer1"
     transform="translate(-81.208815,-310.39955)">
    <g
       id="g3809"
       transform="matrix(1.1563718,0,0,1.1563718,-12.698765,-90.075759)">
      <path
         transform="matrix(1.2995258,0,0,1.2819647,-48.870741,-123.48353)"
         d="m 152.40163,442.40289 c 0,7.20893 -5.76502,13.05292 -12.87653,13.05292 -7.11151,0 -12.87653,-5.84399 -12.87653,-13.05292 0,-7.20892 5.76502,-13.05291 12.87653,-13.05291 7.11151,0 12.87653,5.84399 12.87653,13.05291 z"
         sodipodi:ry="13.052917"
         sodipodi:rx="12.876527"
         sodipodi:cy="442.40289"
         sodipodi:cx="139.5251"
         id="path3789"
         style="fill:#f70010;fill-opacity:1;stroke:none"
         sodipodi:type="arc" />
      <path
         sodipodi:type="arc"
         style="fill:#f70010;fill-opacity:1;stroke:none"
         id="path3791"
         sodipodi:cx="139.5251"
         sodipodi:cy="442.40289"
         sodipodi:rx="12.876527"
         sodipodi:ry="13.052917"
         d="m 152.40163,442.40289 c 0,7.20893 -5.76502,13.05292 -12.87653,13.05292 -7.11151,0 -12.87653,-5.84399 -12.87653,-13.05292 0,-7.20892 5.76502,-13.05291 12.87653,-13.05291 7.11151,0 12.87653,5.84399 12.87653,13.05291 z"
         transform="matrix(1.1860729,0,0,1.170045,42.051503,-127.19016)" />
      <path
         transform="matrix(1.1821899,0,0,1.1662144,-11.079513,11.433728)"
         d="m 152.40163,442.40289 c 0,7.20893 -5.76502,13.05292 -12.87653,13.05292 -7.11151,0 -12.87653,-5.84399 -12.87653,-13.05292 0,-7.20892 5.76502,-13.05291 12.87653,-13.05291 7.11151,0 12.87653,5.84399 12.87653,13.05291 z"
         sodipodi:ry="13.052917"
         sodipodi:rx="12.876527"
         sodipodi:cy="442.40289"
         sodipodi:cx="139.5251"
         id="path3793"
         style="fill:#f70010;fill-opacity:1;stroke:none"
         sodipodi:type="arc" />
      <path
         sodipodi:type="arc"
         style="fill:#f70010;fill-opacity:1;stroke:none"
         id="path3795"
         sodipodi:cx="139.5251"
         sodipodi:cy="442.40289"
         sodipodi:rx="12.876527"
         sodipodi:ry="13.052917"
         d="m 152.40163,442.40289 c 0,7.20893 -5.76502,13.05292 -12.87653,13.05292 -7.11151,0 -12.87653,-5.84399 -12.87653,-13.05292 0,-7.20892 5.76502,-13.05291 12.87653,-13.05291 7.11151,0 12.87653,5.84399 12.87653,13.05291 z"
         transform="matrix(1.3015932,0,0,1.2840041,81.043821,-42.966944)" />
      <path
         transform="matrix(1.6125466,0,0,1.5907555,43.42592,-251.77671)"
         d="m 152.40163,442.40289 c 0,7.20893 -5.76502,13.05292 -12.87653,13.05292 -7.11151,0 -12.87653,-5.84399 -12.87653,-13.05292 0,-7.20892 5.76502,-13.05291 12.87653,-13.05291 7.11151,0 12.87653,5.84399 12.87653,13.05291 z"
         sodipodi:ry="13.052917"
         sodipodi:rx="12.876527"
         sodipodi:cy="442.40289"
         sodipodi:cx="139.5251"
         id="path3797"
         style="fill:#f70010;fill-opacity:1;stroke:none"
         sodipodi:type="arc" />
      <path
         sodipodi:nodetypes="cscsc"
         inkscape:connector-curvature="0"
         id="path3799"
         d="m 122.76798,407.47752 c -26.061465,10.82234 -47.177806,43.35176 -40.217098,69.85074 11.296992,43.00694 60.179568,31.721 78.153978,25.12926 -23.2764,-2.01323 -47.44967,-9.1703 -55.28927,-31.40763 -6.073814,-17.22863 -0.50027,-41.14312 17.35239,-63.57237 z"
         style="fill:#3b8b42;fill-opacity:1;stroke:none" />
      <path
         style="fill:#3b8b42;fill-opacity:1;stroke:none"
         d="m 144.23864,463.53289 c -22.34497,12.25176 -52.910478,48.04376 -41.07475,80.14256 16.73643,45.38962 76.18906,29.14805 93.59171,18.83982 -14.98577,0.27384 -55.94666,-1.43072 -69.58346,-30.54998 -8.60363,-18.37171 -5.3603,-44.00196 17.0665,-68.4324 z"
         id="path3801"
         inkscape:connector-curvature="0"
         sodipodi:nodetypes="cscsc" />
      <path
         sodipodi:nodetypes="cscsc"
         inkscape:connector-curvature="0"
         id="path3803"
         d="m 214.56605,346.32054 c -25.20381,5.96231 -60.39606,36.82246 -50.4231,67.84955 15.32025,47.66315 85.05145,19.428 102.4541,9.11977 -14.12812,0.55973 -69.79454,11.45737 -81.3905,-19.11462 -9.67343,-25.50338 17.79628,-48.29022 29.3595,-57.8547 z"
         style="fill:#3b8b42;fill-opacity:1;stroke:none" />
      <path
         style="fill:#3b8b42;fill-opacity:1;stroke:none"
         d="m 287.18053,370.62066 c -20.6658,5.31171 -141.39155,63.61782 -131.81407,116.44979 4.34899,23.99017 37.47038,28.35151 61.68041,25.95473 44.42224,-4.39778 86.59433,-31.67292 103.01045,-58.85988 -12.66848,7.40649 -26.63163,17.86523 -53.64466,27.77413 -31.47248,11.54471 -67.34212,15.31768 -74.05902,-5.14971 -11.8307,-36.04993 80.69072,-94.03163 94.82689,-106.16906 z"
         id="path3805"
         inkscape:connector-curvature="0"
         sodipodi:nodetypes="csscssc" />
      <path
         style="fill:#3b8b42;fill-opacity:1;stroke:none"
         d="m 230.86142,478.37018 c -45.78744,20.82826 -63.47274,78.17116 -11.25702,94.836 51.40456,16.40596 106.45271,-42.70998 121.03655,-69.811 -7.27553,5.79423 -68.28774,56.77219 -109.97888,46.381 -45.23226,-11.27379 -9.74267,-60.52738 0.19935,-71.406 z"
         id="path3807"
         inkscape:connector-curvature="0"
         sodipodi:nodetypes="cscsc" />
    </g>
  </g>
</svg>
