<?xml version="1.0" encoding="UTF-8" standalone="no"?>
<!-- Created with Inkscape (http://www.inkscape.org/) -->

<svg
   xmlns:dc="http://purl.org/dc/elements/1.1/"
   xmlns:cc="http://creativecommons.org/ns#"
   xmlns:rdf="http://www.w3.org/1999/02/22-rdf-syntax-ns#"
   xmlns:svg="http://www.w3.org/2000/svg"
   xmlns="http://www.w3.org/2000/svg"
   version="1.0"
   width="382"
   height="381.59375"
   id="svg2">
  <metadata
     id="metadata8">
    <rdf:RDF>
      <cc:Work
         rdf:about="">
        <dc:format>image/svg+xml</dc:format>
        <dc:type
           rdf:resource="http://purl.org/dc/dcmitype/StillImage" />
        <dc:title></dc:title>
      </cc:Work>
    </rdf:RDF>
  </metadata>
  <defs
     id="defs5" />
  <path
     d="M 191,2 C 86.672,2 2,86.672 2,191 2,291.28431 80.24298,373.37836 178.96875,379.59375 l 0,-24.03125 C 93.49935,349.39313 26,278.03349 26,191 26,103.96651 93.49935,32.60687 178.96875,26.4375 l 0,24.0625 C 108.73526,56.44885 53.10747,113.9654 50.125,185 l 24.03125,0 249,0 8.71875,0 C 328.89164,113.94445 273.23158,56.42016 202.96875,50.5 l 0,-24.0625 C 288.46768,32.57665 356,103.94534 356,191 c -10e-6,87.05466 -67.53232,158.42335 -153.03125,164.5625 l 0,24.03125 C 301.72389,373.40899 380,291.30538 380,191 380,86.672 295.328,2 191,2 z m 11.96875,72.59375 c 48.86892,4.97043 88.85516,40.07627 101.125,86.40625 L 250,161 l 0,-49.9375 -24,0 0,49.9375 -23.03125,0 0,-86.40625 z m -24,0.0312 0,86.375 -23.875,0 0,-49.9375 -24,0 0,49.9375 -53.1875,0 c 12.26436,-46.3093 52.22331,-81.37993 101.0625,-86.375 z M 50.125,197 c 3.15102,75.04881 65.05577,135.00001 140.875,135 75.81923,0 137.72398,-59.95119 140.875,-135 l -8.71875,0 -249,0 -24.03125,0 z m 27.78125,24 226.1875,0 C 290.83605,271.06005 245.2139,308 191,308 136.7861,308 91.16395,271.06005 77.90625,221 z M 120,242 l 0,24 141,0 0,-24 -141,0 z"
     id="rect2388"
     style="fill:#000000;stroke:none" />
</svg>
