<?xml version="1.0" encoding="UTF-8" standalone="no"?>
<!-- Created with Inkscape (http://www.inkscape.org/) -->
<svg id="svg13508" xmlns:rdf="http://www.w3.org/1999/02/22-rdf-syntax-ns#" xmlns="http://www.w3.org/2000/svg" height="360" width="360" version="1.1" xmlns:cc="http://creativecommons.org/ns#" xmlns:dc="http://purl.org/dc/elements/1.1/" viewBox="0 0 360 360.00001">
 <metadata id="metadata13513">
  <rdf:RDF>
   <cc:Work rdf:about="">
    <dc:format>image/svg+xml</dc:format>
    <dc:type rdf:resource="http://purl.org/dc/dcmitype/StillImage"/>
    <dc:title/>
   </cc:Work>
  </rdf:RDF>
 </metadata>
 <g id="layer28" fill-rule="evenodd" transform="translate(0 -692.36)" fill="#082e5e">
  <path id="path14126" d="m205 692.36-70.6 53.602-52.121-30.771-19.629 86.439-59.707 9.9297 40.527 78.836-39.355 45.984 81.719 34.342-0.58789 60.523 84.674-26.221 38.453 46.742 48.01-74.514 59.502 11.09-11.119-87.941 52.709-29.752-65.045-60.221 21.254-56.672l-88.52-4.26-20.15-57.08zm-5 32 32.691 47.863 56.592 2.832-5.7226 57.68 41.531 38.547-41.457 40.506 7.0371 56.225-57.797 4.3789-30.748 47.594-47.09-33.795-54.148 16.695l-14.341-56.17-52.211-22.02 25.106-52.24-25.844-50.43 52.812-23.88 12.616-55.24 55.812 15.65 45.17-34.21z"/>
  <path id="circle14152" d="m178.5 80.123v23.053c30.905 1.4659 57.931 21.288 68.615 50.324h-45.615v-38.252c-7.3252-2.9777-15.102-4.6927-23-5.0723v66.324h96.322c-1.86-52.41-43.91-94.481-96.32-96.377zm-7 0.05273c-52.44 1.838-94.535 43.894-96.432 96.324h23.109c1.458-30.91 21.283-57.95 50.323-68.64v45.637h-38.252c-2.9777 7.3252-4.6927 15.102-5.0723 23h66.324v-96.324zm-96.322 103.32c1.8659 52.414 43.909 94.481 96.322 96.377v-23.053c-30.91-1.47-57.93-21.29-68.62-50.33h45.615v38.252c7.3252 2.9777 15.102 4.6927 23 5.0723v-66.324h-96.322zm103.32 0v96.324c52.436-1.838 94.535-43.89 96.432-96.324h-23.109c-1.45 30.91-21.28 57.95-50.32 68.64v-45.637h38.252c2.9777-7.3252 4.6927-15.102 5.0723-23h-66.324z" transform="translate(0 692.36)"/>
 </g>
</svg>
