<?xml version="1.0" encoding="UTF-8" standalone="no"?>
<svg
   width="904.35638"
   height="571.31451"
   viewBox="-1 -1 267.02663 168.69026"
   version="1.1"
   id="svg16702"
   sodipodi:docname="Emblem_of_Iwaki,_Fukushima.svg"
   inkscape:version="1.2.1 (9c6d41e410, 2022-07-14)"
   xmlns:inkscape="http://www.inkscape.org/namespaces/inkscape"
   xmlns:sodipodi="http://sodipodi.sourceforge.net/DTD/sodipodi-0.dtd"
   xmlns="http://www.w3.org/2000/svg"
   xmlns:svg="http://www.w3.org/2000/svg">
  <defs
     id="defs16706" />
  <sodipodi:namedview
     id="namedview16704"
     pagecolor="#ffffff"
     bordercolor="#666666"
     borderopacity="1.0"
     inkscape:showpageshadow="2"
     inkscape:pageopacity="0.0"
     inkscape:pagecheckerboard="0"
     inkscape:deskcolor="#d1d1d1"
     showgrid="false"
     inkscape:zoom="1.3978022"
     inkscape:cx="356.98899"
     inkscape:cy="285.09041"
     inkscape:window-width="1920"
     inkscape:window-height="996"
     inkscape:window-x="1912"
     inkscape:window-y="-8"
     inkscape:window-maximized="1"
     inkscape:current-layer="svg16702" />
  <path
     d="m 132.7783,124.0294 c -22.516,0 -40.781001,-18.268 -40.781001,-40.793004 0,-22.526 18.266001,-40.791 40.781001,-40.791 22.539,0 40.805,18.265 40.805,40.791 0,22.526004 -18.266,40.793004 -40.805,40.793004 m 119.138,-75.632004 c -19.479,-35.969 -49.453,-53.1949996 -91.406,-48.69499962 C 118.5573,4.1893964 98.322299,44.658396 95.330299,52.142396 c -2.992,7.495 -5.234,12.362 -5.234,12.362 0,0 -2.266,-15.734 1.482,-29.594 3.752,-13.854 10.119001,-25.8459996 10.119001,-25.8459996 L 0.53629915,30.035396 c 0,0 -7.86499995,44.588 11.99599985,85.047004 19.854,40.461 60.313,61.44 101.146001,49.075 40.833,-12.362 52.081,-40.088 55.44,-46.828 3.388,-6.748 6.008,-16.107 6.008,-16.107 0,0 1.492,17.607 -1.136,28.841 -2.62,11.239 -10.484,26.971 -10.484,26.971 l 101.526,-21.727 c -0.001,0.001 6.367,-50.944004 -13.116,-86.910004"
     id="path16700" />
</svg>
