<?xml version="1.0" encoding="UTF-8"?><svg width="453" height="421" viewBox="23 40 453 421" xmlns="http://www.w3.org/2000/svg">
 <path xmlns="http://www.w3.org/2000/svg" d="m328.5 226.1a109.1 109.1 0 1 0 -156.2 0 97 97 0 0 1 156.2 0z" fill="#f47216"/>
 <path xmlns="http://www.w3.org/2000/svg" d="m261 379.6a109.1 109.1 0 1 0 78 -135.3 97 97 0 0 1 -78 135.3z" fill="#00a768"/>
 <path xmlns="http://www.w3.org/2000/svg" d="m222.8 319.6c-6.7 15.7-26 19.1-39.2 13.6-22-9.2-37.3-42.3-19.6-88a109.1 109.1 0 1 0 -29.1 213.9c99.7 0 132.4-97.5 114-165.5-5.1-18.8-18.3-31.7-37-31.7a30.3 30.3 0 1 0 10.8 57.7z" fill="#1c63b7"/>
</svg>