<svg xmlns="http://www.w3.org/2000/svg" width="300" height="200"><path d="M4.178 189.979h291.645L215.714 53.197l-30.788 16.236-33.966-57.286c-1.379-2.834-4.768-2.834-6.468 0L111.44 68.212 85.057 53.656 4.178 189.979z"/><path fill="#fff" d="M11.554 185.078H287.55L213.396 59.659l-30.328 15.853-35.211-59.306-34.836 57.41-26.422-14.273z"/><path d="M185.078 79.332l28.032 47.381 14.281-7.756-28.12-47.53zm28.271-15.749l-10.984 6.119 28.141 47.563 9.101-4.943 40.286 68.62h-39.519L171.447 62.234l-15.624 24.814 53.409 93.894H93.785l75.21-123.609-8.77-15.484-82.816 139.093h-3.963L158.38 38.594l-9.603-16.951-93.876 159.299H21.72L76.862 88.12l20.507 12.149 13.9-22.775L87.92 64.541 16.283 183.393h267.898z"/></svg>