<svg width="650" height="500" xmlns="http://www.w3.org/2000/svg"><path d="M77.46 39.988c-38.202 0-40.395 50.27-40.395 50.27v319.44s4.86 50.27 40.395 50.27c25.201 0 57.478-28.032 57.478-28.032l102.994-87.276v64.081h74.567V265.046h-74.567L112.808 365.96V133.983l125.126 100.914h74.568v-143.7h-74.568v64.08l-101.282-87.96S106.886 39.97 77.46 39.97zm494.97 0c38.203 0 40.396 50.27 40.396 50.27v319.44s-4.86 50.27-40.395 50.27c-25.201 0-57.478-28.032-57.478-28.032L411.959 344.66v64.081h-74.567V265.046h74.567L537.083 365.96V133.983L411.96 234.897h-74.567v-143.7h74.567v64.08l101.28-87.96s29.766-27.347 59.192-27.347z"/></svg>