<?xml version="1.0" encoding="UTF-8"?><svg width="457" height="258" viewBox="23 121 457 258" xmlns="http://www.w3.org/2000/svg">
 <path xmlns="http://www.w3.org/2000/svg" d="m250 152.7-40.9 58.4h-184.1l20.5 29.2h163.7l-4.5 9.7h-152.3l20.5 29.2h172.1l5.2-29.2 5.2 29.2h172.1l20.5-29.2h-152.3l-4.5-9.7h163.7l20.5-29.21h-184.1zm-95.3 48.7a107.1 107.1 0 0 1 190.7 0h21.4a126.6 126.6 0 0 0 -233.5 0zm75.6 116.8h-86.7a126.6 126.6 0 0 0 226.7 -29.2h-240.6a126.6 126.6 0 0 0 8 19.5h201.9a107.1 107.1 0 0 1 -151 29.2z" fill="#000065"/>
</svg>