<?xml version="1.0" encoding="UTF-8" standalone="no"?>
<!-- Created with Inkscape (http://www.inkscape.org/) -->

<svg
   xmlns:dc="http://purl.org/dc/elements/1.1/"
   xmlns:cc="http://creativecommons.org/ns#"
   xmlns:rdf="http://www.w3.org/1999/02/22-rdf-syntax-ns#"
   xmlns:svg="http://www.w3.org/2000/svg"
   xmlns="http://www.w3.org/2000/svg"
   xmlns:sodipodi="http://sodipodi.sourceforge.net/DTD/sodipodi-0.dtd"
   xmlns:inkscape="http://www.inkscape.org/namespaces/inkscape"
   width="95.200386mm"
   height="95.200386mm"
   viewBox="0 0 95.200386 95.200386"
   version="1.1"
   id="svg8"
   inkscape:version="0.92.4 (5da689c313, 2019-01-14)"
   sodipodi:docname="Emblem_of_Hitachi,_Ibaraki.svg">
  <defs
     id="defs2" />
  <sodipodi:namedview
     id="base"
     pagecolor="#ffffff"
     bordercolor="#666666"
     borderopacity="1.0"
     inkscape:pageopacity="0.0"
     inkscape:pageshadow="2"
     inkscape:zoom="0.49497475"
     inkscape:cx="-403.08385"
     inkscape:cy="315.12755"
     inkscape:document-units="mm"
     inkscape:current-layer="layer1"
     showgrid="false"
     fit-margin-top="0"
     fit-margin-left="0"
     fit-margin-right="0"
     fit-margin-bottom="0"
     inkscape:window-width="1920"
     inkscape:window-height="996"
     inkscape:window-x="1912"
     inkscape:window-y="-8"
     inkscape:window-maximized="1" />
  <metadata
     id="metadata5">
    <rdf:RDF>
      <cc:Work
         rdf:about="">
        <dc:format>image/svg+xml</dc:format>
        <dc:type
           rdf:resource="http://purl.org/dc/dcmitype/StillImage" />
        <dc:title></dc:title>
      </cc:Work>
    </rdf:RDF>
  </metadata>
  <g
     inkscape:label="レイヤー 1"
     inkscape:groupmode="layer"
     id="layer1"
     transform="translate(-38.578377,-38.489091)">
    <g
       id="g825"
       transform="matrix(0.26458333,0,0,0.26458333,-32.883927,6.7142867)"
       style="fill:#2e3192;fill-opacity:1">
      <path
         style="fill:#2e3192;fill-opacity:1;stroke:none"
         id="rect2389"
         d="m 450,120.09375 c -99.31433,0 -179.90625,80.59192 -179.90625,179.90625 0,99.31433 80.59192,179.90625 179.90625,179.90625 99.31433,0 179.90628,-80.59192 179.90625,-179.90625 0,-99.31433 -80.59192,-179.90625 -179.90625,-179.90625 z m 0,5.375 c 96.34632,0 174.53125,78.18493 174.53125,174.53125 3e-5,96.34632 -78.18493,174.53125 -174.53125,174.53125 -96.34632,0 -174.53125,-78.18493 -174.53125,-174.53125 0,-96.34632 78.18493,-174.53125 174.53125,-174.53125 z M 450,138 c 0,0 -32.75,20.25 -35,55 0,0 -13.44718,-12.5 -40.5,-12.5 -44.90998,0 -62.5,33.5 -62.5,33.5 0,0 9.51804,-11 22.5,-11 8.66386,0 29.5,7.35321 29.5,30 v 94 24 1 c -37.15393,2.21562 -52.7015,30.57332 -53.78125,32.625 4.35069,-0.4088 8.76162,-0.625 13.21875,-0.625 56.15352,10e-6 104.62249,33.18346 126.8125,81 h 0.25 c 22.19001,-47.81654 70.65898,-81 126.8125,-81 4.19075,0 8.34035,0.20061 12.4375,0.5625 C 588.50247,382.20895 572.9316,354.20235 536,352 v -1 -24 -94 c 0,-22.64679 20.83614,-30 29.5,-30 12.98196,0 22.5,11 22.5,11 0,0 -17.59002,-33.5 -62.5,-33.5 -27.05282,0 -40.5,12.5 -40.5,12.5 -2,-34.75 -35,-55 -35,-55 z m 0,76 c 16.62,0 30,13.37459 30,30 v 108 c 0,16.62541 -13.38,30 -30,30 -16.62,0 -30,-13.37459 -30,-30 V 244 c 0,-16.62541 13.38,-30 30,-30 z"
         inkscape:connector-curvature="0" />
    </g>
  </g>
</svg>
