<?xml version="1.0" encoding="UTF-8" standalone="no"?>
<!-- Created with Inkscape (http://www.inkscape.org/) -->

<svg
   xmlns:dc="http://purl.org/dc/elements/1.1/"
   xmlns:cc="http://creativecommons.org/ns#"
   xmlns:rdf="http://www.w3.org/1999/02/22-rdf-syntax-ns#"
   xmlns:svg="http://www.w3.org/2000/svg"
   xmlns="http://www.w3.org/2000/svg"
   xmlns:sodipodi="http://sodipodi.sourceforge.net/DTD/sodipodi-0.dtd"
   xmlns:inkscape="http://www.inkscape.org/namespaces/inkscape"
   width="300"
   height="271.30048"
   id="svg2"
   version="1.1"
   inkscape:version="0.48.4 r"
   sodipodi:docname="Symbol of Koga Ibaraki.svg">
  <defs
     id="defs4" />
  <sodipodi:namedview
     id="base"
     pagecolor="#ffffff"
     bordercolor="#666666"
     borderopacity="1.0"
     inkscape:pageopacity="0.0"
     inkscape:pageshadow="2"
     inkscape:zoom="1.0060573"
     inkscape:cx="166.80824"
     inkscape:cy="-63.000597"
     inkscape:document-units="px"
     inkscape:current-layer="layer1"
     showgrid="false"
     inkscape:window-width="1280"
     inkscape:window-height="961"
     inkscape:window-x="-8"
     inkscape:window-y="-8"
     inkscape:window-maximized="1"
     fit-margin-top="0"
     fit-margin-left="0"
     fit-margin-right="0"
     fit-margin-bottom="0" />
  <metadata
     id="metadata7">
    <rdf:RDF>
      <cc:Work
         rdf:about="">
        <dc:format>image/svg+xml</dc:format>
        <dc:type
           rdf:resource="http://purl.org/dc/dcmitype/StillImage" />
        <dc:title></dc:title>
      </cc:Work>
    </rdf:RDF>
  </metadata>
  <g
     inkscape:label="レイヤー 1"
     inkscape:groupmode="layer"
     id="layer1"
     transform="translate(-97.747315,-374.82454)">
    <g
       id="g3828"
       transform="matrix(1.2009045,0,0,1.2009045,-19.637875,-129.80942)">
      <path
         id="path3793"
         d="m 273.71875,526.5 c 17.20693,8.05228 28.15625,20.10498 28.15625,33.5625 0,24.24358 -35.46948,43.875 -79.21875,43.875 -43.74927,0 -79.21875,-19.63142 -79.21875,-43.875 0,-13.44592 10.91245,-25.47904 28.09375,-33.53125 -36.60205,10.45075 -61.6875,31.74279 -61.6875,56.34375 0,34.91833 50.5094,63.25 112.8125,63.25 62.3031,0 112.8125,-28.33167 112.8125,-63.25 0,-24.61575 -25.11208,-45.93105 -61.75,-56.375 z"
         style="fill:#1a85ba;fill-opacity:1;stroke:none"
         inkscape:connector-curvature="0" />
      <path
         transform="matrix(1.0840228,0,0,1.1734267,24.74841,-90.122265)"
         d="m 201.01492,451.95309 c 0,9.4132 -8.26025,17.0441 -18.4498,17.0441 -10.18954,0 -18.44979,-7.6309 -18.44979,-17.0441 0,-9.41319 8.26025,-17.04409 18.44979,-17.04409 10.18955,0 18.4498,7.6309 18.4498,17.04409 z"
         sodipodi:ry="17.044098"
         sodipodi:rx="18.449797"
         sodipodi:cy="451.95309"
         sodipodi:cx="182.56512"
         id="path3789"
         style="fill:#fc0c0e;fill-opacity:1;stroke:none"
         sodipodi:type="arc" />
      <path
         sodipodi:nodetypes="zszsz"
         inkscape:connector-curvature="0"
         id="path3795"
         d="m 222.65317,487.96875 c -5.46264,0 -19.63607,39.18823 -20.53125,64.65625 -0.50371,14.33073 5.28778,32 20.53125,32 15.24347,0 21.03496,-17.66927 20.53125,-32 -0.89518,-25.46802 -15.06861,-64.65625 -20.53125,-64.65625 z"
         style="fill:#2f974e;fill-opacity:1;stroke:none" />
      <path
         sodipodi:nodetypes="cscsc"
         inkscape:connector-curvature="0"
         id="path3802"
         d="m 229.883,484.40818 c 15.59431,-22.75525 34.60047,-34.31495 56.1767,-37.19932 23.0067,-3.0756 42.42061,5.60267 61.49932,6.67707 -6.65667,16.6616 -19.12411,23.76488 -34.43962,26.35684 -30.14089,5.10098 -55.84061,-12.45337 -83.2364,4.16541 z"
         style="fill:#2f974e;fill-opacity:1;stroke:none" />
      <path
         style="fill:#2f974e;fill-opacity:1;stroke:none"
         d="m 215.42333,484.40818 c -15.59431,-22.75525 -34.60047,-34.31495 -56.1767,-37.19932 -23.0067,-3.0756 -42.42061,5.60267 -61.499315,6.67707 6.656665,16.6616 19.124105,23.76488 34.439615,26.35684 30.14089,5.10098 55.84061,-12.45337 83.2364,4.16541 z"
         id="path3804"
         inkscape:connector-curvature="0"
         sodipodi:nodetypes="cscsc" />
    </g>
  </g>
</svg>
