<?xml version="1.0" encoding="UTF-8" standalone="no"?>
<!-- Created with Inkscape (http://www.inkscape.org/) -->

<svg
   xmlns:dc="http://purl.org/dc/elements/1.1/"
   xmlns:cc="http://creativecommons.org/ns#"
   xmlns:rdf="http://www.w3.org/1999/02/22-rdf-syntax-ns#"
   xmlns:svg="http://www.w3.org/2000/svg"
   xmlns="http://www.w3.org/2000/svg"
   xmlns:sodipodi="http://sodipodi.sourceforge.net/DTD/sodipodi-0.dtd"
   xmlns:inkscape="http://www.inkscape.org/namespaces/inkscape"
   width="300"
   height="273.33157"
   id="svg2"
   version="1.1"
   inkscape:version="0.48.4 r"
   sodipodi:docname="Symbol of Shimotsuma Ibaraki.svg">
  <defs
     id="defs4" />
  <sodipodi:namedview
     id="base"
     pagecolor="#ffffff"
     bordercolor="#666666"
     borderopacity="1.0"
     inkscape:pageopacity="0.0"
     inkscape:pageshadow="2"
     inkscape:zoom="2.4566667"
     inkscape:cx="150"
     inkscape:cy="136.66579"
     inkscape:document-units="px"
     inkscape:current-layer="layer1"
     showgrid="false"
     inkscape:window-width="1280"
     inkscape:window-height="961"
     inkscape:window-x="-8"
     inkscape:window-y="-8"
     inkscape:window-maximized="1"
     fit-margin-top="0"
     fit-margin-left="0"
     fit-margin-right="0"
     fit-margin-bottom="0" />
  <metadata
     id="metadata7">
    <rdf:RDF>
      <cc:Work
         rdf:about="">
        <dc:format>image/svg+xml</dc:format>
        <dc:type
           rdf:resource="http://purl.org/dc/dcmitype/StillImage" />
        <dc:title></dc:title>
      </cc:Work>
    </rdf:RDF>
  </metadata>
  <g
     inkscape:label="レイヤー 1"
     inkscape:groupmode="layer"
     id="layer1"
     transform="translate(-38.017833,-257.76229)">
    <path
       style="fill:#000000;fill-opacity:1;stroke:none"
       d="m 38.017833,368.84103 21.865891,-61.66184 278.134106,-49.4169 -39.79592,101.79966 -60.498,0 0,17.29473 50.87703,0 -24.92712,64.15776 -27.98834,0 c 0,0 -10.71724,91.05701 -88.77551,90.07148 -50.990804,-0.64383 -79.162656,-40.47331 -79.154526,-75.65598 0.007,-30.66391 23.394084,-65.70642 62.099106,-67.34696 l 9.18368,18.80469 c -20.67761,3.68845 -28.34837,16.13445 -33.23614,32.79882 -3.36808,11.48312 -0.16373,34.27507 23.61518,34.98543 25.0572,0.74855 31.67064,-23.47065 31.48685,-42.41984 -0.64076,-66.06435 -66.238823,-69.39223 -83.090369,-69.0962 -13.397916,0.23537 -25.623035,3.8093 -39.795918,5.68515 z"
       id="path3789"
       inkscape:connector-curvature="0"
       sodipodi:nodetypes="cccccccccssccssssc" />
  </g>
</svg>
