<?xml version="1.0" encoding="UTF-8" standalone="no"?>
<!-- Created with Inkscape (http://www.inkscape.org/) -->

<svg
   xmlns:dc="http://purl.org/dc/elements/1.1/"
   xmlns:cc="http://creativecommons.org/ns#"
   xmlns:rdf="http://www.w3.org/1999/02/22-rdf-syntax-ns#"
   xmlns:svg="http://www.w3.org/2000/svg"
   xmlns="http://www.w3.org/2000/svg"
   xmlns:sodipodi="http://sodipodi.sourceforge.net/DTD/sodipodi-0.dtd"
   xmlns:inkscape="http://www.inkscape.org/namespaces/inkscape"
   width="600"
   height="518.65448"
   id="svg2"
   version="1.1"
   inkscape:version="0.48.4 r"
   sodipodi:docname="Symbol of Bando Ibaraki.svg.2014_05_31_10_14_05.0.svg">
  <defs
     id="defs4" />
  <sodipodi:namedview
     id="base"
     pagecolor="#ffffff"
     bordercolor="#666666"
     borderopacity="1.0"
     inkscape:pageopacity="0.0"
     inkscape:pageshadow="2"
     inkscape:zoom="0.27215658"
     inkscape:cx="132.9703"
     inkscape:cy="-306.61911"
     inkscape:document-units="px"
     inkscape:current-layer="layer1"
     showgrid="false"
     inkscape:window-width="1280"
     inkscape:window-height="961"
     inkscape:window-x="-8"
     inkscape:window-y="-8"
     inkscape:window-maximized="1"
     fit-margin-top="0"
     fit-margin-left="0"
     fit-margin-right="0"
     fit-margin-bottom="0" />
  <metadata
     id="metadata7">
    <rdf:RDF>
      <cc:Work
         rdf:about="">
        <dc:format>image/svg+xml</dc:format>
        <dc:type
           rdf:resource="http://purl.org/dc/dcmitype/StillImage" />
        <dc:title></dc:title>
      </cc:Work>
    </rdf:RDF>
  </metadata>
  <g
     inkscape:label="レイヤー 1"
     inkscape:groupmode="layer"
     id="layer1"
     transform="translate(-44.092266,-325.5141)">
    <g
       id="g3764"
       transform="matrix(0.91458063,0,0,0.91458063,3.7663337,72.108348)">
      <path
         sodipodi:nodetypes="cssscssssc"
         inkscape:connector-curvature="0"
         id="path3800"
         d="m 473.07327,277.07317 c 75.3219,85.80467 117.04717,222.64389 107.4749,369.27273 C 569.06904,822.18413 370.65492,909.21833 294.312,787.55293 252.35758,720.69144 313.9272,632.56931 370.19131,600.41645 478.88788,538.30038 609.52167,570.31617 656.654,622.46259 582.28896,610.18495 451.06769,587.65435 389.48168,668.39203 c -35.21338,46.16384 -16.47548,109.3863 56.84108,55.11534 40.11927,-29.6974 59.68498,-93.81946 61.43968,-171.79374 0.77151,-34.28424 -0.44793,-98.93826 -2.53856,-123.0733 -4.32027,-49.87497 -17.48249,-79.84632 -32.15061,-151.56716 z"
         style="fill:#2559a5;fill-opacity:1;stroke:none" />
      <path
         sodipodi:nodetypes="ccccc"
         inkscape:connector-curvature="0"
         id="path3794"
         d="M 210.057,777.70411 C 281.86198,531.56064 430.89219,448.70758 608.10583,458.03518 565.65728,410.27066 377.71292,351.07226 247.538,482.47418 200.56551,406.76352 119.52899,377.6194 44.092266,402.91985 199.98942,507.32661 198.29206,641.8152 210.057,777.70411 z"
         style="fill:#6ab634;fill-opacity:1;stroke:none" />
      <path
         transform="matrix(1.1302083,0,0,1.1119791,293.06184,-9.2662924)"
         d="m 290.27407,335.86285 c 0,15.72701 -12.54362,28.47626 -28.01696,28.47626 -15.47334,0 -28.01696,-12.74925 -28.01696,-28.47626 0,-15.727 12.54362,-28.47625 28.01696,-28.47625 15.47334,0 28.01696,12.74925 28.01696,28.47625 z"
         sodipodi:ry="28.476255"
         sodipodi:rx="28.01696"
         sodipodi:cy="335.86285"
         sodipodi:cx="262.25711"
         id="path3796"
         style="fill:#6ab634;fill-opacity:1;stroke:none"
         sodipodi:type="arc" />
      <path
         sodipodi:type="arc"
         style="fill:#6ab634;fill-opacity:1;stroke:none"
         id="path3798"
         sodipodi:cx="262.25711"
         sodipodi:cy="335.86285"
         sodipodi:rx="28.01696"
         sodipodi:ry="28.476255"
         d="m 290.27407,335.86285 c 0,15.72701 -12.54362,28.47626 -28.01696,28.47626 -15.47334,0 -28.01696,-12.74925 -28.01696,-28.47626 0,-15.727 12.54362,-28.47625 28.01696,-28.47625 15.47334,0 28.01696,12.74925 28.01696,28.47625 z"
         transform="matrix(1.3597165,0,0,1.3377856,305.44021,-131.95433)" />
    </g>
  </g>
</svg>
