<?xml version="1.0" encoding="UTF-8" standalone="no"?>
<!-- Created with Inkscape (http://www.inkscape.org/) -->

<svg
   xmlns:dc="http://purl.org/dc/elements/1.1/"
   xmlns:cc="http://creativecommons.org/ns#"
   xmlns:rdf="http://www.w3.org/1999/02/22-rdf-syntax-ns#"
   xmlns:svg="http://www.w3.org/2000/svg"
   xmlns="http://www.w3.org/2000/svg"
   xmlns:sodipodi="http://sodipodi.sourceforge.net/DTD/sodipodi-0.dtd"
   xmlns:inkscape="http://www.inkscape.org/namespaces/inkscape"
   width="249.99998"
   height="249.99998"
   id="svg2"
   version="1.1"
   inkscape:version="0.48.4 r"
   sodipodi:docname="Symbol of Omitama Ibaraki.svg">
  <defs
     id="defs4" />
  <sodipodi:namedview
     id="base"
     pagecolor="#ffffff"
     bordercolor="#666666"
     borderopacity="1.0"
     inkscape:pageopacity="0.0"
     inkscape:pageshadow="2"
     inkscape:zoom="1.5494838"
     inkscape:cx="146.17772"
     inkscape:cy="106.31323"
     inkscape:document-units="px"
     inkscape:current-layer="layer1"
     showgrid="false"
     inkscape:window-width="1280"
     inkscape:window-height="961"
     inkscape:window-x="-8"
     inkscape:window-y="-8"
     inkscape:window-maximized="1"
     inkscape:object-paths="false"
     fit-margin-top="0"
     fit-margin-left="0"
     fit-margin-right="0"
     fit-margin-bottom="0" />
  <metadata
     id="metadata7">
    <rdf:RDF>
      <cc:Work
         rdf:about="">
        <dc:format>image/svg+xml</dc:format>
        <dc:type
           rdf:resource="http://purl.org/dc/dcmitype/StillImage" />
        <dc:title></dc:title>
      </cc:Work>
    </rdf:RDF>
  </metadata>
  <g
     inkscape:label="レイヤー 1"
     inkscape:groupmode="layer"
     id="layer1"
     transform="translate(-172.79967,-267.09393)">
    <g
       id="g3878"
       transform="matrix(1.1745705,0,0,1.1745705,77.475932,-125.13921)">
      <path
         id="path3837"
         d="m 187.59375,333.9375 c -58.77443,0 -106.4375,47.63183 -106.4375,106.40625 0,9.51265 1.252353,18.7252 3.59375,27.5 -5.263231,-46.51085 31.32471,-95.42239 102.53125,-95.65625 71.13996,-0.23364 111.31134,51.80756 102.6875,97.28125 C 292.59836,460.20979 294,450.4456 294,440.34375 294,381.56933 246.36818,333.9375 187.59375,333.9375 z"
         style="fill:#46a50d;fill-opacity:1;stroke:none"
         inkscape:connector-curvature="0" />
      <path
         sodipodi:nodetypes="ssccssscsssssssccssscsscsccsscssc"
         inkscape:connector-curvature="0"
         id="path3832"
         d="M 181.4375,393.84375 C 148.83955,393.94982 104.93659,412.49954 94,447.9375 c -4.048909,13.11973 1.927478,33.41517 20.59375,35.65625 -4.32733,-7.13514 -5.17893,-13.84836 -2.875,-19.8125 2.43006,-7.7507 13.56633,-15.8104 21.875,-15.75 9.65546,0.0702 24.4951,7.3664 24.4375,22.375 -0.0582,15.15367 -5.69683,25.43156 -35.53125,26.8125 -14.77253,0.68378 -26.042221,-7.59666 -35.15625,-21.0625 14.70511,41.15525 54.04135,70.625 100.25,70.625 37.62737,0 71.58931,-18.81772 89.625,-48.84334 9.41677,-15.67693 8.75279,-40.9341 -0.1875,-57.15666 -15.40334,-27.95007 -45.62526,-47.10009 -95.59375,-46.9375 z M 175,407.96875 c 0.93979,-0.002 1.87427,-0.0207 2.78125,0 33.64119,0.76615 66.36732,17.3266 79.0625,44.28125 6.29215,13.35961 5.38822,34.95863 -1.75,48.5 -6.06838,2.91639 -16.44902,5.57318 -28.75,7.5 10.31756,-19.67707 9.1708,-39.59229 3,-51.75 -11.71736,-23.08556 -38.4409,-33.46759 -52.625,-35.8125 -15.87128,-2.62383 -29.83616,-1.05504 -43.65625,2.90625 -8.85014,2.53674 -18.91732,6.58867 -31.15625,20.9375 3.60099,-12.2444 19.07222,-23.8153 30.5,-28.96875 11.0404,-4.97876 28.49694,-7.56194 42.59375,-7.59375 z M 148.65625,428.25 c 21.98231,0.0981 56.59351,11.00681 62.5625,41.90625 2.14419,11.09972 2.21658,23.12711 -15.15625,40.96875 -15.86087,0.58725 -31.90769,-0.26233 -44.625,-3.34375 10.6541,-5.17928 31.4939,-12.79885 33.03125,-36.90625 1.11909,-17.54873 -17.44926,-34.29951 -40.15625,-36.53125 -9.37854,-0.92177 -19.84291,0.81828 -31.375,5.4375 8.2776,-7.1567 21.3422,-11.15756 33.625,-11.5 0.68139,-0.019 1.38464,-0.0344 2.09375,-0.0312 z"
         style="fill:#0930b9;fill-opacity:1;stroke:none" />
    </g>
  </g>
</svg>
