<?xml version="1.0" encoding="UTF-8"?><svg width="454" height="391" viewBox="24 55 454 391" xmlns="http://www.w3.org/2000/svg" version="1.1">
 <path xmlns="http://www.w3.org/2000/svg" d="m263.2 443.3a198.6 198.6 0 0 1 0-386.6 225.1 193.6 0 1 0 0 386.6z" fill="#eb1923"/>
 <path xmlns="http://www.w3.org/2000/svg" d="m263.2 56.7a226.6 226.6 0 0 0-107.9 180.2 166.9 130.4 0 0 1 302.2-62.2 225.1 193.6 0 0 0-194.3-118zm-108 206.3a226.6 226.6 0 0 0 107.9 180.3 225.1 193.6 0 0 0 194.3-118 166.9 130.4 0 0 1-302.2-62.3z" fill="#00a64f"/>
 <path xmlns="http://www.w3.org/2000/svg" d="m475 257.3a77.3 49.4 0 1 1 0-14.5 225.1 193.6 0 0 0-17.6-68.2 149.6 108.4 0 1 0 0 150.8 225.1 193.6 0 0 0 17.6-68.2z" fill="#00abee"/>
</svg>