<?xml version="1.0" encoding="UTF-8"?><svg width="456" height="453" viewBox="22 24 456 453" xmlns="http://www.w3.org/2000/svg">
 <path xmlns="http://www.w3.org/2000/svg" stroke="#000000" stroke-width="18" fill="none" d="m401.2 98.8c6.2 40 29.3 36.5 26.9 77.4 30.6 27.3 11.8 41.1 35.7 73.8-23.9 32.7-5.1 46.5-35.7 73.8 2.4 40.9-20.7 37.4-26.9 77.4-40 6.2-36.5 29.3-77.4 26.9-27.3 30.7-41.1 11.9-73.8 35.8-32.7-23.9-46.5-5.1-73.8-35.8-40.9 2.4-37.4-20.6-77.4-26.9-6.2-40-29.3-36.5-26.9-77.4-30.6-27.3-11.8-41.1-35.7-73.8 23.9-32.7 5.1-46.5 35.7-73.8-2.4-40.9 20.7-37.4 26.9-77.4 40-6.2 36.5-29.3 77.4-26.9 27.3-30.6 41.1-11.8 73.8-35.7 32.7 23.9 46.5 5.1 73.8 35.7 40.9-2.4 37.4 20.7 77.4 26.9z"/>
 <path xmlns="http://www.w3.org/2000/svg" fill="#000000" d="m262.4 229.5c-4.5 11.9 10.3 17.3 19.7 16.2 10.9 0.4 21.2-6.7 24-17.3 3.5-7.6 0.9-17.1 6.2-23.9 8.1-8.1 24.3-0.4 22.2 11.2-2.1 14.5-3.8 30.1-12.2 42.4-10.1 12.1-27.2 17.3-42.5 14-9.9-3.3-21.6 4.2-17.7 15.3 4.8 11.8 19.5 11.2 29.6 15.5 15.3 5.2 30.1 15.4 35.3 31.3 4.3 11.2 5.8 26.1-3.1 35.5-14.5 7.6-23.7-10.5-24.4-22.6-4.2-13.9-18-21.1-31.5-23.2-16.6-3-33.5-3.7-50.3-3.5-14.9 0.1-30-7.4-36.9-21-11.4-21.5-7.2-46.6-9.6-69.9-1.7-9.1-8.4-18.1-4.8-27.4 8.7-12.3 28.6-3.4 31.3 9.7 3.5 19.9 2.7 40.3 3.1 60.4-0.1 12.5 11.3 23.7 24 21.1 11.7-1.7 9.7-15.2 10.2-23.9-0.6-15.9 1.6-33.4-7.3-47.5-6.8-9.9-18.9-14.2-26.6-23.3-15.1-15.4-25.7-36.2-26.5-58 0.5-11.8 14.2-11.8 23.3-11.8l103-0.1c18.6 0 16.4 13.1 13.8 26.4-1.5 7.5-3.2 14.9-6.2 21.4-10.2 21.8-38.8 29.1-46 52.9zm-47.3-60.3c4 8.4 10.6 16.3 21.6 23.4 10.2 6.5 22.4 3.6 30.9-5.2 5.6-5.8 11.7-11.4 14.6-18.5 3.9-9.6-2-18.8-12.9-18.6l-47.7 0.9c-9.7 0.2-10.2 10.3-6.5 18.1z"/>
</svg>