<svg
   xmlns:dc="http://purl.org/dc/elements/1.1/"
   xmlns:cc="http://creativecommons.org/ns#"
   xmlns:rdf="http://www.w3.org/1999/02/22-rdf-syntax-ns#"
   xmlns:svg="http://www.w3.org/2000/svg"
   xmlns="http://www.w3.org/2000/svg"
   version="1.0"
   width="400"
   height="400">
<path d="m 200,3.125 -71.04749,303.31815 142.09499,0 L 200,3.125 z m -19.15664,35.29603 c -90.23741,9.57878 -160.6254,85.99299 -160.6254,178.75732 0,97.41152 77.60212,176.80444 174.31684,179.69665 l 0,-54.33881 C 127.80373,339.67508 74.5283,284.60973 74.5283,217.17835 c 0,-57.96503 39.38069,-106.78991 92.82286,-121.17355 l 13.4922,-57.58377 z m 38.31327,0 13.49219,57.58377 c 53.44218,14.38364 92.82287,63.20852 92.82287,121.17355 0,67.43138 -53.27542,122.49673 -120.0065,125.35784 l 0,54.33881 c 96.71472,-2.89221 174.31685,-82.28513 174.31685,-179.69665 0,-92.76433 -70.388,-169.17854 -160.62541,-178.75732 z" style="fill:#000"/>
</svg>
