<?xml version="1.0" encoding="utf-8"?>
<!DOCTYPE svg PUBLIC "-//W3C//DTD SVG 1.1//EN" "http://www.w3.org/Graphics/SVG/1.1/DTD/svg11.dtd">
<svg version="1.1" id="Layer_2" xmlns="http://www.w3.org/2000/svg" x="0" y="0" width="509" height="465" viewBox="0 0 509 465">
<style type="text/css">
	.st0{fill:#F7B101;}
	.st1{fill:#0270BE;}
	.st2{fill:#6FB72E;}
</style>
	<ellipse class="st0" cx="411.6" cy="262.8" rx="62.5" ry="62.1"/>
	<path class="st1" d="M143.9,107c-21.7,9.3-92.5,44.1-106.8,134.2s44.7,198.8,169.6,210.6s207.4-83,228-115.4
		c-22.4,6.6-46.5,4.8-65.3-8.8c-26.1-18.8-31.2-38.9-32.3-46.9c-14.9,14.7-47.8,59.3-124.8,48.7C135.2,318.8,61.3,207.6,143.9,107z"
		/>
	<path class="st1" d="M303.5,149.3c-4.5,2.3-72.3,43.3-76.8,46.2c5.9,4.5,33.1,28.3,13.8,61c-19.3,32.6-71.9,32.9-102.9,5.2
		c45.6,55.1,114.1,52,151.2,18.8C323.7,249.2,335.2,196.9,303.5,149.3z"/>
	<path class="st2" d="M127.8,240.6c-3.7-8.3-14-53.3,4.7-93S192.2,73,195.8,70c3.7-3,65.7-55.7,68.3-57.7c5.3,1,20.3,8.3,21.3,12.7
		c-22.7,14.3-88.7,66.7-106,83.3C165.3,121.9,110.8,174,127.8,240.6z"/>
	<path class="st2" d="M143.2,244c-6-4.7-9.7-45.3,6.3-75.7s47.3-66.7,142-131.3c1.7,8.7,2.1,19.5,4,23.3
		C162.2,145.3,133.2,189,143.2,244z"/>
	<path class="st2" d="M299.8,73.6c-45.7,35-159,90-144,172.3c-1-73.7,107.3-124.7,156.3-154.3C309.8,88.6,302.2,79,299.8,73.6z"/>
	<path class="st2" d="M322.2,100c-7,5-171,89.3-151.3,147c2.3-53.3,144.3-119.3,171.7-133C338.5,112,325.8,103.6,322.2,100z"/>
</svg>
