<?xml version="1.0" encoding="UTF-8"?>
<!DOCTYPE svg PUBLIC "-//W3C//DTD SVG 1.1//EN" "http://www.w3.org/Graphics/SVG/1.1/DTD/svg11.dtd">
<!-- Creator: CorelDRAW -->
<svg xmlns="http://www.w3.org/2000/svg" xml:space="preserve" width="500px" height="500px" style="shape-rendering:geometricPrecision; text-rendering:geometricPrecision; image-rendering:optimizeQuality; fill-rule:evenodd; clip-rule:evenodd"
viewBox="0 0 500 500"
 xmlns:xlink="http://www.w3.org/1999/xlink">
 <defs>
  <style type="text/css">
   <![CDATA[
    .fil1 {fill:#00A062}
    .fil2 {fill:#3D8ECF}
    .fil0 {fill:#EF8760}
   ]]>
  </style>
 </defs>
 <g id="Layer_x0020_1">
  <metadata id="CorelCorpID_0Corel-Layer"/>
  <g id="_208995464">
   <circle id="_208994240" class="fil0" cx="455.846" cy="61.14" r="27.5007"/>
   <polygon id="_7261048" class="fil1" points="119.83,410.71 81.5483,410.447 189.362,197.946 260.977,339.875 442.751,85.7058 259.935,416.439 189.102,275.291 "/>
   <path id="_208995680" class="fil2" d="M98.4759 361.229c-18.4028,7.11735 -79.2062,18.9945 -81.7727,47.9175 -1.40434,15.8386 26.3859,35.3848 62.3742,44.9718 35.9895,9.58704 75.5802,12.091 106.379,12.0603 20.2678,-0.0200788 43.1446,1.44331 70.6384,-3.57521 28.3867,-5.18269 93.8389,-16.7162 102.462,-47.9742 8.43782,-30.5989 -42.9639,-41.8832 -63.2033,-49.7541l-9.89649 17.1875c8.50751,3.64607 42.3096,6.45356 39.3237,30.991 -1.17756,9.67562 -28.6938,18.0603 -58.4317,23.6068 -29.7379,5.54766 -63.012,8.5831 -78.2884,7.90278 -97.3101,-4.33584 -117.237,-22.9808 -121.068,-25.3123 -44.0458,-26.8028 14.0622,-51.0155 31.4836,-58.0218z"/>
   <path id="_7259608" class="fil2" d="M224.46 355.237c-25.6052,-2.10591 -37.1481,-1.65827 -64.8451,-8.59373l-9.37444 16.9264c24.4808,5.60553 52.3454,9.32838 83.0731,11.4591l-8.85357 -19.7918z"/>
   <path id="_208995488" class="fil2" d="M305.327 263.956c-26.0198,-3.21261 -51.1525,-2.82048 -77.868,-3.25631l0.781892 1.5626 1.69253 2.86536c25.4339,-1.20827 50.3057,-2.0504 75.3935,-1.17166z"/>
   <path id="_210267304" class="fil2" d="M140.672 280.425l4.94765 -10.6772c-10.0477,2.85355 -46.4257,9.58231 -66.312,30.7784 -21.0308,22.4162 4.95474,42.632 26.4674,49.9513l11.1981 -22.6572c-30.7761,-22.5284 11.6221,-44.9281 23.6989,-47.3954z"/>
  </g>
 </g>
</svg>
