<svg xmlns="http://www.w3.org/2000/svg" width="250" height="250"><path fill="#138135" d="M244.772 34.155l-87.82 13.798-32.219-36.793-29.894 36.358-89.61-13.362 21.908 48.07 34.307 4.215c-13.81 16.181-22.229 37.589-22.229 61.086 0 49.104 36.704 89.139 82.717 91.215l-15.892-53.975C86.542 176.875 71.384 160.1 71.384 133.5c0-14.319 6.431-27.326 15.519-36.937.293-.309 38.776 142.277 38.776 142.277l37.917-142.21c8.995 9.605 15.459 19.713 15.459 36.872 0 27.227-15.884 43.873-34.868 52.008l-14.297 53.219c45.797-2.322 82.254-42.264 82.254-91.201 0-23.274-8.261-44.499-21.837-60.624-.298-.354 34.157-4.405 34.157-4.405l20.308-48.344z"/></svg>