<svg xmlns="http://www.w3.org/2000/svg" width="424" height="360">
<path d="m237.217 47.272-23.78 88.403c42.156 0 76.331 34.134 76.331 76.29 0 42.155-34.175 76.33-76.33 76.33-42.115 0-76.29-34.175-76.29-76.33 0-34.134 22.388-63.03 53.289-72.77L82.92 115.048c-16.863 25.048-26.726 55.211-26.726 87.708C56.194 289.604 126.589 360 213.438 360s157.285-70.396 157.285-157.244c0-78.786-57.954-144.025-133.506-155.484zm109.89 58.485 51.16-11.46 11.951-44.447-96.548 21.692a166.662 166.662 0 0 1 33.438 34.215zm65.117-63.356 11.132-41.296-177.053 39.782c21.896 4.42 42.155 13.178 59.959 25.293zm-205.826 66.63L18.008 66.712l7.163 26.644 188.39 42.32zM188.513 42.32 0 0l7.244 26.726 188.472 42.319Zm9.168 34.216L9.25 34.215l6.712 25.048 188.43 42.279z"/>
</svg>