<svg xmlns="http://www.w3.org/2000/svg" width="429" height="420">
<path d="m 428.53834,48.10045 c 0,26.5615 -21.53895,48.10045 -48.10045,48.10045 -26.56147,0 -48.10042,-21.53895 -48.10042,-48.10045 C 332.33747,21.53895 353.87642,0 380.43789,0 c 26.5615,0 48.10045,21.53895 48.10045,48.10045" fill="#eb1923"/>
<path d="m 390.42501,103.00063 c 0,0 -67.9588,291.88673 -154.65552,291.88673 0,0 -18.71859,5.37019 -37.78493,-38.92469 -19.04698,-44.2756 -46.55505,-176.52286 -46.55505,-192.61429 0,-16.1108 3.68963,3.86346 3.68963,3.86346 0,0 24.76496,100.85642 67.64974,125.67935 31.4295,21.48101 45.93687,-0.32825 55.24789,-10.06439 36.83838,-38.44171 112.40824,-179.82617 112.40824,-179.82617" fill="#b8d430"/>
<path d="M 0,420 C 0,420 67.97813,5.60204 154.67488,5.60204 c 0,0 18.71856,-7.63039 37.76558,55.24793 19.04701,62.87828 46.57436,250.62462 46.57436,273.49645 0,22.87188 -3.68962,-5.48613 -3.68962,-5.48613 0,0 -24.78429,-143.20028 -67.6497,-178.45463 -31.4295,-30.48294 -45.93691,0.48294 -55.2479,14.29492 C 75.58919,219.25305 0,420 0,420" fill="#00a64f"/>
</svg>