<?xml version="1.0" encoding="UTF-8" standalone="no"?>
<!-- Created with Inkscape (http://www.inkscape.org/) -->
<svg id="svg31142" xmlns:rdf="http://www.w3.org/1999/02/22-rdf-syntax-ns#" xmlns="http://www.w3.org/2000/svg" height="300" width="300" version="1.1" xmlns:cc="http://creativecommons.org/ns#" xmlns:dc="http://purl.org/dc/elements/1.1/" viewBox="0 0 300 300">
 <metadata id="metadata31147">
  <rdf:RDF>
   <cc:Work rdf:about="">
    <dc:format>image/svg+xml</dc:format>
    <dc:type rdf:resource="http://purl.org/dc/dcmitype/StillImage"/>
    <dc:title/>
   </cc:Work>
  </rdf:RDF>
 </metadata>
 <g id="layer60" transform="translate(0 -752.36)">
  <path id="path31738" d="m150 0a150 150 0 0 0 -150 150 150 150 0 0 0 150 150 150 150 0 0 0 150 -150 150 150 0 0 0 -150 -150zm0 15a135 135 0 0 1 100.41 45h-200.84a135 135 0 0 1 100.43 -45zm-100.41 225h200.84a135 135 0 0 1 -100.43 45 135 135 0 0 1 -100.41 -45z" fill-rule="evenodd" transform="translate(0 752.36)"/>
  <text id="text31690" line-height="89.99999762%" style="word-spacing:0px;letter-spacing:1px;text-anchor:middle;text-align:center" font-family="Kochi Gothic" xml:space="preserve" font-size="50px" stroke="#ffffff" y="977.36218" x="180.5" stroke-width="2" fill="#ffffff"><tspan id="tspan31694" x="180" y="977.36218">おおた</tspan></text>
 </g>
</svg>
