<?xml version="1.0" encoding="UTF-8"?><svg width="452" height="453" viewBox="24 23 452 453" xmlns="http://www.w3.org/2000/svg" version="1.1">
 <path xmlns="http://www.w3.org/2000/svg" d="m238.8 25.3a225 225 0 0 0-211.2 191h22.8a202.5 202.5 0 0 1 188.4-168.4v-22.5zm22.5 75.141a150 150 0 0 1 138.3 138.3h22.6a172.5 172.5 0 0 0-138.4-157.9v-30.5a202.5 202.5 0 0 1 168.4 188.4h22.5a225 225 0 0 0-213.5-213.5zm-22.5-22.6a172.5 172.5 0 0 0-160.9 160.9h-52.6a225 225 0 0 0 213.5 236v-22.5a202.5 202.5 0 0 1-190.9-190.9h52.6a150 150 0 0 1 138.3-160.8v-22.6zm160.8 183.4a150 150 0 0 1-138.3 138.3v75.1a225 225 0 0 0 213.5-213.5h-75.1zm-318.7 22.5a172.5 172.5 0 0 0 157.9 138.4v-22.6a150 150 0 0 1-134.9-115.8h-23zm338.3 0h30.5a202.5 202.5 0 0 1-165.9 165.9v-30.5a172.5 172.5 0 0 0 135.4-135.4z" fill="#000000"/>
 <path xmlns="http://www.w3.org/2000/svg" d="m250 186.25v127.5m-63.75-63.75h127.5" fill="none" stroke="#000000" stroke-linecap="round" stroke-width="22.5"/>
</svg>