<?xml version="1.0" encoding="UTF-8" standalone="no"?>
<!-- Created with Inkscape (http://www.inkscape.org/) -->
<svg
   xmlns:svg="http://www.w3.org/2000/svg"
   xmlns="http://www.w3.org/2000/svg"
   version="1.0"
   width="520"
   height="480"
   id="svg2">
  <defs
     id="defs4" />
  <g
     transform="translate(20,-492.36218)"
     id="layer1">
    <path
       d="M 240,512.375 C 221.99719,521.61291 210.48728,533.69303 202.09375,550.1875 C 183.80433,553.07118 168.76013,560.29058 154.40625,574.5625 C 157.62812,594.53429 165.56818,609.20371 178.65625,622.28125 C 175.74683,640.56699 177.95579,657.1256 187.09375,675.1875 C 207.0882,678.29566 223.5143,675.28569 240,666.875 C 256.4857,675.28568 272.91179,678.29565 292.90625,675.1875 C 302.0442,657.1256 304.25318,640.56699 301.34375,622.28125 C 314.43182,609.20372 322.37186,594.53433 325.59375,574.5625 C 311.23987,560.29063 296.19567,553.07117 277.90625,550.1875 C 269.51272,533.69303 258.00281,521.61291 240,512.375 z M 240,527.375 C 249.03356,543.67967 256.4055,560.99489 252.34375,585.375 C 274.28003,573.97208 293.04259,575.63392 311.34375,579.1875 C 298.62827,592.81771 284.41198,605.20445 259.96875,608.875 C 277.58253,626.21061 281.81853,644.53174 284.09375,663.03125 C 267.20855,655.15343 251.04393,645.49887 240,623.40625 C 228.9561,645.49887 212.79145,655.15342 195.90625,663.03125 C 198.18147,644.53174 202.41745,626.21062 220.03125,608.875 C 195.58805,605.20444 181.37173,592.81771 168.65625,579.1875 C 186.95741,575.63392 205.71994,573.97212 227.65625,585.375 C 223.5945,560.99489 230.96644,543.67967 240,527.375 z M 120,632.375 L 0,752.375 L 120,872.375 L 165,827.375 L 240,952.375 L 315,827.375 L 360,872.375 L 480,752.375 L 360,632.375 L 288,704.375 L 240,672.375 L 192,704.375 L 120,632.375 z M 120,682.375 L 162,724.375 L 120,752.375 L 150,802.375 L 125,827.375 L 50,752.375 L 120,682.375 z M 360,682.375 L 435,757.375 L 365,827.375 L 333.75,796.125 L 360,752.375 L 318,724.375 L 360,682.375 z M 240,714.375 L 312.84375,762.9375 L 240,884.375 L 167.15625,762.9375 L 240,714.375 z "
       style="opacity:1;fill:#000000;fill-opacity:1;fill-rule:evenodd;stroke:none;stroke-width:1px;stroke-linecap:butt;stroke-linejoin:miter;stroke-opacity:1"
       id="path3161" />
  </g>
</svg>
