<?xml version="1.0" encoding="UTF-8" standalone="no"?>
<!-- Created with Inkscape (http://www.inkscape.org/) -->
<svg id="svg9452" xmlns:rdf="http://www.w3.org/1999/02/22-rdf-syntax-ns#" xmlns="http://www.w3.org/2000/svg" height="200" width="200" version="1.1" xmlns:cc="http://creativecommons.org/ns#" xmlns:dc="http://purl.org/dc/elements/1.1/" viewBox="0 0 200 200">
 <metadata id="metadata9457">
  <rdf:RDF>
   <cc:Work rdf:about="">
    <dc:format>image/svg+xml</dc:format>
    <dc:type rdf:resource="http://purl.org/dc/dcmitype/StillImage"/>
    <dc:title/>
   </cc:Work>
  </rdf:RDF>
 </metadata>
 <g id="layer19" fill-rule="evenodd">
  <path id="path10022" d="m100 0a100 100 0 0 0 -100 100 100 100 0 0 0 100 100 100 100 0 0 0 2.93 -0.1 85 85 0 0 1 -82.93 -84.9 85 85 0 0 1 85 -85 85 85 0 0 1 85 85 85 85 0 0 1 -31.2 65.73 100 100 0 0 0 41.2 -80.73 100 100 0 0 0 -100 -100z" fill="#6eb92b"/>
  <path id="path10050" d="m127.57 939.39s-11.691 19.921-15.733 30.679c-3.0421 8.0965-6.2932 16.524-6.2932 25.173 0 10.95 7.9398 19.515 17.601 21.558a25.173 22.026 0 0 0 25.14 21.446 25.173 22.026 0 0 0 4.3892 -0.343 25.173 22.026 0 0 1 -20.872 -21.06c9.749-1.9686 17.794-10.578 17.794-21.601 0-8.6492-3.2511-17.076-6.2932-25.173-4.0423-10.758-15.733-30.679-15.733-30.679z" transform="translate(0 -852.36)" fill="#a9cd06"/>
  <path id="path10046" d="m107.63 922.48s-14.41 24.555-19.393 37.816c-3.7498 9.98-7.7572 20.368-7.7572 31.029 0 13.497 9.7868 24.055 21.696 26.573a31.029 27.15 0 0 0 30.988 26.435 31.029 27.15 0 0 0 5.4103 -0.4227 31.029 27.15 0 0 1 -25.728 -25.959c12.017-2.4265 21.934-13.038 21.934-26.626 0-10.661-4.0074-21.049-7.7572-31.029-4.9827-13.261-19.393-37.816-19.393-37.816z" transform="translate(0 -852.36)" fill="#6db82b"/>
  <path id="path10029" d="m85 41.25s-18.577 31.655-25 48.75c-4.834 12.866-10 26.256-10 40 0 17.4 12.616 31.01 27.969 34.256a40 35 0 0 0 39.947 34.078 40 35 0 0 0 6.9746 -0.54492 40 35 0 0 1 -33.166 -33.465c15.495-3.13 28.275-16.81 28.275-34.33 0-13.74-5.17-27.13-10-40-6.42-17.095-25-48.75-25-48.75z" fill="#14a73c"/>
 </g>
</svg>
