<?xml version="1.0" encoding="UTF-8" standalone="no"?>
<!-- Created with Inkscape (http://www.inkscape.org/) -->

<svg
   xmlns:dc="http://purl.org/dc/elements/1.1/"
   xmlns:cc="http://creativecommons.org/ns#"
   xmlns:rdf="http://www.w3.org/1999/02/22-rdf-syntax-ns#"
   xmlns:svg="http://www.w3.org/2000/svg"
   xmlns="http://www.w3.org/2000/svg"
   xmlns:sodipodi="http://sodipodi.sourceforge.net/DTD/sodipodi-0.dtd"
   xmlns:inkscape="http://www.inkscape.org/namespaces/inkscape"
   width="380"
   height="406.56192"
   id="svg2"
   version="1.1"
   inkscape:version="0.48.4 r"
   sodipodi:docname="Symbol_of_Tomioka_Gunma.svg">
  <defs
     id="defs4" />
  <sodipodi:namedview
     id="base"
     pagecolor="#ffffff"
     bordercolor="#666666"
     borderopacity="1.0"
     inkscape:pageopacity="0.0"
     inkscape:pageshadow="2"
     inkscape:zoom="1.8374119"
     inkscape:cx="184.63457"
     inkscape:cy="196.62424"
     inkscape:document-units="px"
     inkscape:current-layer="layer1"
     showgrid="false"
     inkscape:window-width="1280"
     inkscape:window-height="961"
     inkscape:window-x="-8"
     inkscape:window-y="-8"
     inkscape:window-maximized="1"
     fit-margin-top="0"
     fit-margin-left="0"
     fit-margin-right="0"
     fit-margin-bottom="0">
    <inkscape:grid
       type="xygrid"
       id="grid3797"
       empspacing="5"
       visible="true"
       enabled="true"
       snapvisiblegridlinesonly="true"
       originx="-125.15053px"
       originy="76.231414px" />
  </sodipodi:namedview>
  <metadata
     id="metadata7">
    <rdf:RDF>
      <cc:Work
         rdf:about="">
        <dc:format>image/svg+xml</dc:format>
        <dc:type
           rdf:resource="http://purl.org/dc/dcmitype/StillImage" />
        <dc:title />
      </cc:Work>
    </rdf:RDF>
  </metadata>
  <g
     inkscape:label="レイヤー 1"
     inkscape:groupmode="layer"
     id="layer1"
     transform="translate(-125.15053,-722.03168)">
    <g
       id="g2993"
       transform="matrix(1.0094888,0,0,1.0094888,-1.1875239,-10.708959)">
      <path
         sodipodi:type="arc"
         style="fill:#eb8d07;fill-opacity:1;stroke:none"
         id="path3791"
         sodipodi:cx="86.890732"
         sodipodi:cy="412.75754"
         sodipodi:rx="28.038225"
         sodipodi:ry="28.31583"
         d="m 114.92896,412.75754 c 0,15.6384 -12.55314,28.31583 -28.038228,28.31583 -15.485084,0 -28.038225,-12.67743 -28.038225,-28.31583 0,-15.6384 12.553141,-28.31583 28.038225,-28.31583 15.485088,0 28.038228,12.67743 28.038228,28.31583 z"
         transform="matrix(2.2841515,0,0,2.2617578,0.37024872,-143.66087)" />
      <path
         sodipodi:nodetypes="cccccccssc"
         inkscape:connector-curvature="0"
         id="path3795"
         d="m 277.87971,913.08437 78.97553,-98.65706 18.08753,18.68344 23.45227,-24.82 22.76384,24.82 21.13619,-18.21138 42.83306,53.34088 c -6.6476,2.29163 -11.66385,10.7923 -13.26881,16.09871 -2.69128,8.89805 -28.34957,95.1952 -116.42022,99.07985 -54.19046,2.39026 -73.7258,-33.08065 -77.55939,-70.33444 z"
         style="fill:#14994a;fill-opacity:1;stroke:none" />
      <path
         sodipodi:nodetypes="csssssssssccc"
         style="fill:#477cb1;fill-opacity:1;stroke:none"
         d="m 162.73382,861.9448 c -45.46915,69.23108 -51.02016,151.6953 -9.3045,213.0077 54.83096,80.589 187.88339,58.6456 251.16828,10.6924 65.53436,-49.6577 103.53292,-131.90717 96.04674,-187.70954 -3.18498,-23.74103 -14.26274,-14.68259 -19.92893,4.58542 -11.98897,40.76885 -55.01961,89.14502 -122.84695,96.95899 -38.69157,4.45753 -77.91112,-21.00858 -89.87612,-58.47734 -13.21964,-41.39775 5.07275,-86.03948 31.88932,-117.54126 22.99095,-27.00775 55.73087,-44.75533 91.0958,-50.34591 26.06978,-4.12117 5.28388,-17.49454 -18.29122,-18.82941 -32.52263,-1.84149 -66.17822,0.67561 -96.33783,13.55782 13.84603,43.19994 -16.68576,93.2076 -61.26843,101.06564 -17.5576,3.58455 -36.38929,1.28514 -52.34616,-6.96451 z"
         id="path2987"
         inkscape:connector-curvature="0" />
    </g>
  </g>
</svg>
