<?xml version="1.0" encoding="UTF-8" standalone="no"?>
<!-- Created with Inkscape (http://www.inkscape.org/) -->
<svg id="svg6223" xmlns:rdf="http://www.w3.org/1999/02/22-rdf-syntax-ns#" xmlns="http://www.w3.org/2000/svg" height="240" width="260" version="1.1" xmlns:cc="http://creativecommons.org/ns#" xmlns:dc="http://purl.org/dc/elements/1.1/" viewBox="0 0 260 240">
 <metadata id="metadata6228">
  <rdf:RDF>
   <cc:Work rdf:about="">
    <dc:format>image/svg+xml</dc:format>
    <dc:type rdf:resource="http://purl.org/dc/dcmitype/StillImage"/>
    <dc:title/>
   </cc:Work>
  </rdf:RDF>
 </metadata>
 <g id="layer13" fill-rule="evenodd">
  <path id="circle6877" d="m130 126.38a56.81 56.81 0 0 0 -56.811 56.81 56.81 56.81 0 0 0 56.811 56.81 56.81 56.81 0 0 0 56.81 -56.81 56.81 56.81 0 0 0 -56.81 -56.81zm0 30a26.81 26.81 0 0 1 26.81 26.81 26.81 26.81 0 0 1 -26.81 26.81 26.81 26.81 0 0 1 -26.81 -26.81 26.81 26.81 0 0 1 26.81 -26.81z"/>
  <path id="circle6888" d="m130 1.9043l-46.879 44.647h-83.121l50.453 33.056a100 100 0 0 0 -20.453 60.393 100 100 0 0 0 12.801 48.86l25.166-16.49a70 70 0 0 1 -7.967 -32.37 70 70 0 0 1 70 -70 70 70 0 0 1 54.45 26.051l25.13-16.465 50.42-33.035h-83.12l-46.88-44.647zm85.13 86.004l-25.01 16.382a70 70 0 0 1 9.88 35.71 70 70 0 0 1 -70 70 70 70 0 0 1 -56.734 -29.15l-25.145 16.47a100 100 0 0 0 81.879 42.68 100 100 0 0 0 100 -100 100 100 0 0 0 -14.87 -52.092z"/>
 </g>
</svg>
