<?xml version="1.0" encoding="UTF-8" standalone="no"?>
<svg
   xmlns:dc="http://purl.org/dc/elements/1.1/"
   xmlns:cc="http://creativecommons.org/ns#"
   xmlns:rdf="http://www.w3.org/1999/02/22-rdf-syntax-ns#"
   xmlns:svg="http://www.w3.org/2000/svg"
   xmlns="http://www.w3.org/2000/svg"
   id="svg2"
   height="500"
   width="600"
   version="1.0">
  <metadata
     id="metadata28">
    <rdf:RDF>
      <cc:Work
         rdf:about="">
        <dc:format>image/svg+xml</dc:format>
        <dc:type
           rdf:resource="http://purl.org/dc/dcmitype/StillImage" />
        <dc:title></dc:title>
      </cc:Work>
    </rdf:RDF>
  </metadata>
  <defs
     id="defs5" />
  <g
     transform="translate(-151,-34.46875)"
     id="g2408">
    <path
       style="fill:#007067;stroke:none"
       id="path2394"
       d="m 550.625,51.9375 c -24.84,0 -45,20.159997 -45,45 0,24.84 20.16,45 45,45 24.84,0 45.00001,-20.16 45,-45 0,-24.84 -20.15999,-45 -45,-45 z M 487,134.5 c -13.32896,0.21348 -24.19615,2.9946 -37.9375,21.09375 L 368.25,258.1875 c -22.45658,25.95363 -33.34375,47.25786 -33.34375,63.875 0,42.73359 30.12714,70.9375 76.0625,70.9375 21.72329,0 54.98093,-19.06539 62,-41 0,-10e-6 -5.11427,0.88502 -9.0625,1.03125 -10e-6,0 -25.78125,2.59099 -25.78125,-30.03125 0,-6.55335 1.13232,-10.34546 4.5625,-15.4375 0.0353,-0.0525 0.0579,-0.1035 0.0937,-0.15625 L 518.9687,210.625 c 16.98852,-18.98604 18.53394,-47.85944 -3.09375,-66.0625 L 514,143.09375 c -7.06849,-5.5649 -15.55555,-8.54763 -24.3125,-8.59375 -0.91218,-0.005 -1.7989,-0.0142 -2.6875,0 z m 27,167.40625 c -22.82886,0 -42.00001,8.09375 -42,8.09375 0,0 28.09375,11.53344 28.09375,42 0,17.84255 -24.51964,123.125 -171.9375,123.125 -49.77347,0 -76.12501,-8.12501 -76.125,-8.125 0,0 44.4099,50.00002 140.4375,50 145.09326,0 183.59375,-96.19384 183.59375,-139.625 0,-27.60042 -15.54983,-75.46874 -62.0625,-75.46875 z" />
    <path
       style="fill:#86c879;stroke:none"
       id="path2388"
       d="m 407,162 c -167.50919,18.61213 -225,94.75217 -225,151 0,42.61688 37.61029,109.22059 165,139 l 32,-9 C 279.73529,415.2886 244,361.44155 244,315 244,264.25478 280.01838,200.92096 395,179 Z m 150,9 v 19 c 0,0 106,45.65724 106,120 0,55.06334 -61,96 -61,96 l -14,37 C 694.74843,407.3197 720,349.29881 720,310 720,264.04995 677.49412,201.12353 557,171 Z" />
  </g>
</svg>
