<?xml version="1.0" encoding="UTF-8" standalone="no"?>
<!-- Created with Inkscape (http://www.inkscape.org/) -->
<svg
   xmlns:svg="http://www.w3.org/2000/svg"
   xmlns="http://www.w3.org/2000/svg"
   version="1.0"
   width="640"
   height="640"
   id="svg2">
  <defs
     id="defs4" />
  <g
     transform="translate(20,-432.36218)"
     id="layer1">
    <path
       d="M 285,452.71875 C 126.35466,460.50816 -1.6105635e-013,591.78154 0,752.375 C 4.5452497e-015,911.27326 123.71399,1041.443 280,1051.7188 L 280,996.5625 C 154.10353,986.37491 55,880.8811 55,752.375 C 54.999998,637.83147 133.73343,541.59392 240,514.8125 L 240,572.0625 C 169.03923,595.6878 116.63778,660.04947 110.59375,737.375 L 165.84375,737.375 C 173.13881,671.53931 227.82561,619.92057 295,617.46875 L 295,562.4375 C 291.64537,562.52703 288.31195,562.70957 285,562.96875 L 285,512.375 L 285,507.84375 L 285,452.71875 z M 315,452.75 L 315,507.84375 L 315,512.375 L 315,562.96875 C 311.68805,562.70957 308.35463,562.52703 305,562.4375 L 305,617.46875 C 372.1744,619.92056 426.86119,671.53931 434.15625,737.375 L 489.40625,737.375 C 483.36222,660.04948 430.96077,595.6878 360,572.0625 L 360,514.8125 C 466.26657,541.59392 545,637.83147 545,752.375 C 544.99999,880.88111 445.89647,986.37491 320,996.5625 L 320,1051.6875 C 476.22852,1041.3497 599.90624,911.23033 599.90625,752.375 C 599.90625,591.82395 473.58819,460.60251 315,452.75 z M 111.65625,777.375 C 123.90842,870.45276 203.59466,942.37502 300,942.375 C 396.40534,942.375 476.09157,870.45273 488.34375,777.375 L 111.65625,777.375 z M 181.6875,817.375 L 418.3125,817.375 C 395.33608,859.09313 350.96254,887.375 300,887.375 C 249.03746,887.375 204.66392,859.09313 181.6875,817.375 z "
       style="opacity:1;fill:#000000;fill-opacity:1;fill-rule:nonzero;stroke:none;stroke-width:10;stroke-linecap:round;stroke-linejoin:round;stroke-miterlimit:4;stroke-dasharray:none;stroke-opacity:1"
       id="path3141" />
  </g>
</svg>
