<?xml version="1.0" encoding="UTF-8" standalone="no"?>
<!-- Created with Inkscape (http://www.inkscape.org/) -->
<svg
   xmlns:svg="http://www.w3.org/2000/svg"
   xmlns="http://www.w3.org/2000/svg"
   version="1.0"
   width="640"
   height="640"
   id="svg2">
  <defs
     id="defs4" />
  <g
     transform="translate(20,-432.36218)"
     id="layer1">
    <path
       d="M 299.15625,452.375 C 248.4294,452.45572 197.05531,465.39511 150,492.5625 C 107.31392,517.20732 72.992381,550.77628 48,589.5625 L 189.9375,683.03125 L 198.25,668.625 L 106.3125,578.875 C 124.20992,558.89115 145.51234,541.3567 170,527.21875 C 210.78127,503.67368 255.31797,492.44495 299.28125,492.375 C 372.22892,492.25893 443.61059,522.85879 493.71875,578.90625 L 401.78125,668.625 L 410.09375,683.03125 L 551.96875,589.59375 C 495.01331,501.27354 398.34123,452.21717 299.15625,452.375 z M 300,520.75 C 295.2242,538.3695 284.3534,565.93927 259.75,595.125 C 229.62988,630.85494 223.73237,675.90875 233.90625,714.1875 C 195.65805,724.50981 159.60578,752.16401 143.71875,796.125 C 130.74487,832.02502 112.27728,855.21054 99.40625,868.15625 C 117.05309,863.48246 146.39146,859.12946 183.96875,865.84375 C 229.98361,874.06567 271.93651,856.65026 300,828.6875 C 328.06349,856.65025 370.0164,874.06567 416.03125,865.84375 C 453.60853,859.12944 482.94692,863.48246 500.59375,868.15625 C 487.72271,855.21054 469.25513,832.02507 456.28125,796.125 C 440.39421,752.16401 404.34194,724.50985 366.09375,714.1875 C 376.26763,675.90875 370.37012,630.85494 340.25,595.125 C 315.64659,565.93927 304.7758,538.3695 300,520.75 z M 300,572.03125 C 306.4309,583.54209 314.57348,595.73696 324.9375,608.03125 C 356.15748,645.06588 355.91108,694.78393 338.84375,729.9375 C 377.82397,732.72998 421.00436,757.37891 437.46875,802.9375 C 442.9339,818.06015 449.40301,831.2065 456.15625,842.53125 C 442.97211,842.34512 428.36043,843.29664 412.53125,846.125 C 364.83156,854.64795 321.90313,829.53029 300,797.15625 C 278.09686,829.53029 235.16845,854.64797 187.46875,846.125 C 171.63958,843.29664 157.02788,842.34514 143.84375,842.53125 C 150.59698,831.20653 157.06609,818.06015 162.53125,802.9375 C 178.99562,757.37893 222.17604,732.72998 261.15625,729.9375 C 244.08892,694.78393 243.84251,645.06588 275.0625,608.03125 C 285.42652,595.73696 293.56909,583.54209 300,572.03125 z M 33.0625,615.53125 C -11.69534,703.10456 -12.584175,810.8864 40.21875,902.34375 C 93.018899,993.7963 186.8144,1046.9089 285.03125,1051.9375 L 295,882.375 L 278.34375,882.375 L 246.625,1006.7813 C 176.81484,992.09948 113.29082,948.93602 74.84375,882.34375 C 36.392447,815.74415 30.797488,739.16717 53,671.375 L 176.59375,706.125 L 184.9375,691.6875 L 33.0625,615.53125 z M 566.96875,615.5625 L 415.09375,691.6875 L 423.4375,706.125 L 547.09375,671.375 C 584.70794,785.8266 538.43481,914.9264 430,977.53125 C 405.51228,991.66925 379.66348,1001.3381 353.40625,1006.8438 L 321.65625,882.375 L 305,882.375 L 314.96875,1052 C 361.05978,1049.7501 407.31039,1036.8031 450,1012.1563 C 589.04712,931.87704 639.50189,756.85151 566.96875,615.5625 z M 299.9375,663.8125 C 298.00445,663.8469 296.46537,665.44196 296.5,667.375 L 296.5,750.34375 L 224.625,791.84375 C 223.52721,792.46157 222.84838,793.6153 222.84375,794.875 C 222.83912,796.13466 223.50054,797.31162 224.59375,797.9375 C 225.68697,798.56336 227.04102,798.548 228.125,797.90625 L 300,756.40625 L 371.875,797.90625 C 372.95898,798.548 374.31303,798.56339 375.40625,797.9375 C 376.49946,797.31159 377.16088,796.13469 377.15625,794.875 C 377.15162,793.61527 376.47279,792.46157 375.375,791.84375 L 303.5,750.34375 L 303.5,667.375 C 303.51702,666.42505 303.14058,665.51557 302.46875,664.84375 C 301.79692,664.17193 300.88745,663.79548 299.9375,663.8125 z "
       style="opacity:1;fill:#000000;fill-opacity:1;fill-rule:nonzero;stroke:none;stroke-width:30;stroke-linecap:round;stroke-linejoin:round;stroke-miterlimit:4;stroke-dasharray:none;stroke-opacity:1"
       id="path3141" />
  </g>
</svg>
