<?xml version="1.0" encoding="UTF-8" standalone="no"?>
<!-- Created with Inkscape (http://www.inkscape.org/) -->
<svg
   xmlns:svg="http://www.w3.org/2000/svg"
   xmlns="http://www.w3.org/2000/svg"
   version="1.0"
   width="640"
   height="640"
   id="svg2">
  <defs
     id="defs4" />
  <g
     transform="translate(20,-432.36218)"
     id="layer1">
    <path
       d="M 290,452.5625 C 129.02116,457.84107 -2.93691e-013,590.11997 0,752.375 C 0,917.97501 134.39999,1052.375 300,1052.375 C 465.60001,1052.375 600,917.97503 600,752.375 C 600,590.11995 470.97883,457.84107 310,452.5625 L 310,482.59375 C 454.40873,487.86495 570,606.68606 570,752.375 C 570.00001,901.41497 449.04001,1022.375 300,1022.375 C 150.96,1022.375 30,901.415 30,752.375 C 29.999999,606.68603 145.59127,487.86495 290,482.59375 L 290,452.5625 z M 290,497.59375 C 153.8657,502.84797 44.999999,614.96136 45,752.375 C 45,893.13501 159.23999,1007.375 300,1007.375 C 440.76001,1007.375 555.00001,893.13502 555,752.375 C 555,614.96134 446.13429,502.84797 310,497.59375 L 310,527.59375 C 429.56157,532.83578 525,631.52888 525,752.375 C 525.00001,876.57497 424.2,977.375 300,977.375 C 175.79999,977.37503 75,876.57499 75,752.375 C 74.999997,631.52885 170.43843,532.83578 290,527.59375 L 290,497.59375 z M 290,542.625 C 178.71486,547.84741 90.000001,639.80533 90,752.375 C 90,868.295 184.07999,962.37503 300,962.375 C 415.92,962.375 510,868.29502 510,752.375 C 510,639.80531 421.28514,547.84743 310,542.625 L 310,572.65625 C 404.71008,577.85543 480,656.37374 480,752.375 C 480,851.73502 399.36,932.375 300,932.375 C 200.63999,932.37501 120,851.73499 120,752.375 C 120,656.37377 195.28992,577.85545 290,572.65625 L 290,542.625 z M 300,579.5625 C 296.37962,596.49433 290.85431,612.71215 283.65625,628 C 261.3568,675.36147 223.00604,713.68288 175.65625,736 C 174.50931,736.54058 173.34493,737.04084 172.1875,737.5625 C 168.8921,739.04775 165.56484,740.4525 162.1875,741.78125 C 161.04157,742.23209 159.90501,742.69253 158.75,743.125 C 157.66169,743.5325 156.5653,743.94902 155.46875,744.34375 C 154.37073,744.7367 153.26308,745.12214 152.15625,745.5 C 149.94742,746.2587 147.73807,746.9748 145.5,747.65625 C 144.65292,747.91417 143.78877,748.12685 142.9375,748.375 C 138.92933,749.54339 134.87834,750.58361 130.78125,751.53125 C 129.8739,751.74112 128.974,751.95742 128.0625,752.15625 C 127.75834,752.22184 127.46033,752.31004 127.15625,752.375 C 131.39226,753.28006 135.57278,754.2983 139.71875,755.4375 C 143.86472,756.5767 147.98388,757.85222 152.03125,759.21875 C 156.07862,760.58528 160.05978,762.03797 164,763.625 C 167.94022,765.21203 171.83175,766.91804 175.65625,768.71875 C 223.01331,791.01611 261.3475,829.34368 283.65625,876.6875 C 283.7634,876.915 283.86208,877.14725 283.96875,877.375 C 284.19565,877.86078 284.40148,878.35609 284.625,878.84375 C 286.02194,881.89142 287.36519,884.97714 288.625,888.09375 C 289.05304,889.18975 289.48197,890.27711 289.90625,891.375 C 290.12416,891.93868 290.34901,892.49664 290.5625,893.0625 C 290.99458,894.20774 291.4293,895.34426 291.84375,896.5 C 292.261,897.66444 292.66472,898.82807 293.0625,900 C 293.85495,902.32987 294.59646,904.67247 295.3125,907.03125 C 295.54479,907.79647 295.74443,908.57511 295.96875,909.34375 C 297.08768,913.17774 298.11411,917.05318 299.03125,920.96875 C 299.31908,922.19758 299.60743,923.41977 299.875,924.65625 C 299.91125,924.82459 299.96399,924.98782 300,925.15625 C 300.9056,920.92092 301.92328,916.73687 303.0625,912.59375 C 304.20172,908.45063 305.47743,904.3563 306.84375,900.3125 C 308.21007,896.2687 309.66309,892.28112 311.25,888.34375 C 312.82821,884.42798 314.52254,880.5535 316.3125,876.75 C 316.07777,876.17153 315.87277,875.58683 315.65625,875 C 315.87473,875.56787 316.11611,876.12618 316.34375,876.6875 C 338.64835,829.3307 376.98909,791.01961 424.34375,768.71875 C 424.47893,768.65509 424.61467,768.59465 424.75,768.53125 C 425.4632,768.19712 426.189,767.88934 426.90625,767.5625 C 430.55163,765.90139 434.25372,764.34401 438,762.875 C 439.07559,762.45323 440.13517,761.99935 441.21875,761.59375 C 445.76482,759.8921 450.38266,758.31653 455.0625,756.90625 C 455.30862,756.83208 455.56603,756.7921 455.8125,756.71875 C 460.07922,755.44904 464.41279,754.33154 468.78125,753.3125 C 470.03177,753.02079 471.27283,752.70823 472.53125,752.4375 C 472.63479,752.41523 472.74016,752.39713 472.84375,752.375 C 468.60713,751.46994 464.42717,750.45456 460.28125,749.3125 C 456.13533,748.17044 452.01584,746.90162 447.96875,745.53125 C 443.92166,744.16088 439.94012,742.68375 436,741.09375 C 432.09036,739.51605 428.23384,737.81668 424.4375,736.03125 C 418.51107,738.43513 412.66426,740.98666 406.96875,743.8125 C 406.00326,744.29015 405.05249,744.79212 404.09375,745.28125 C 400.38313,747.18147 396.72763,749.1759 393.125,751.25 C 392.87873,751.39178 392.6262,751.5227 392.375,751.65625 C 394.39068,750.46733 396.40492,749.27785 398.46875,748.15625 C 402.08183,746.1927 405.75301,744.32254 409.46875,742.53125 C 413.18449,740.73996 416.9682,739.01992 420.78125,737.40625 C 421.95614,736.90904 423.15996,736.48001 424.34375,736 C 376.97025,713.69489 338.64926,675.35727 316.34375,628 C 315.86174,629.18893 315.43685,630.4138 314.9375,631.59375 C 313.32383,635.4068 311.63504,639.15926 309.84375,642.875 C 308.05246,646.59074 306.1823,650.26192 304.21875,653.875 C 302.86795,656.36057 301.39893,658.7839 299.96875,661.21875 C 322.06078,698.80971 353.52392,730.25481 391.125,752.34375 C 353.52232,774.44222 322.08914,805.91071 300,843.53125 C 277.90475,805.94141 246.47382,774.46253 208.875,752.375 C 246.45485,730.27512 277.88432,698.81687 299.96875,661.21875 C 306.20016,650.60995 311.67495,639.51618 316.34375,628 C 314.54334,624.1775 312.83699,620.28118 311.25,616.34375 C 309.66301,612.40632 308.21037,608.41938 306.84375,604.375 C 305.47713,600.33062 304.20178,596.23711 303.0625,592.09375 C 301.92589,587.96012 300.90343,583.78672 300,579.5625 z M 206.5,753.71875 C 204.85405,754.67876 203.21241,755.64887 201.53125,756.5625 C 197.91817,758.52605 194.24699,760.42746 190.53125,762.21875 C 187.98975,763.44396 185.40524,764.61193 182.8125,765.75 C 186.29443,764.19899 189.71902,762.56776 193.125,760.875 C 194.03485,760.42164 194.9399,759.96463 195.84375,759.5 C 196.00159,759.41918 196.15481,759.3311 196.3125,759.25 C 199.75339,757.48039 203.15179,755.63769 206.5,753.71875 z M 300.84375,845 C 301.98467,846.93455 303.14563,848.86912 304.21875,850.84375 C 306.1823,854.45683 308.05246,858.12801 309.84375,861.84375 C 311.63504,865.55949 313.32383,869.31195 314.9375,873.125 C 314.95403,873.16406 314.95236,873.21085 314.96875,873.25 C 312.93647,868.44676 310.75067,863.74147 308.4375,859.09375 C 308.08942,858.39201 307.72914,857.69819 307.375,857 C 305.3047,852.935 303.12214,848.93577 300.84375,845 z "
       style="opacity:1;fill:#000000;fill-opacity:1;fill-rule:nonzero;stroke:none;stroke-width:30;stroke-linecap:round;stroke-linejoin:round;stroke-miterlimit:4;stroke-dasharray:none;stroke-opacity:1"
       id="path3141" />
  </g>
</svg>
