<?xml version="1.0" encoding="UTF-8"?>
<!DOCTYPE svg PUBLIC "-//W3C//DTD SVG 1.1//EN" "http://www.w3.org/Graphics/SVG/1.1/DTD/svg11.dtd">
<!-- Creator: CorelDRAW Home & Student X7 -->
<svg xmlns="http://www.w3.org/2000/svg" xml:space="preserve" width="158.635mm" height="132.406mm" version="1.1" style="shape-rendering:geometricPrecision; text-rendering:geometricPrecision; image-rendering:optimizeQuality; fill-rule:evenodd; clip-rule:evenodd"
viewBox="0 0 15863 13241"
 xmlns:xlink="http://www.w3.org/1999/xlink">
 <defs>
  <style type="text/css">
   <![CDATA[
    .str0 {stroke:black;stroke-width:20}
    .fil1 {fill:none}
    .fil0 {fill:black}
   ]]>
  </style>
 </defs>
 <g id="Layer_x0020_1">
  <metadata id="CorelCorpID_0Corel-Layer"/>
  <polygon class="fil0" points="7932,3102 7932,3102 4907,4444 9484,6620 4682,8697 7932,10138 15863,6620 "/>
  <polygon class="fil0" points="0,6620 3966,4863 7932,6620 3966,8378 "/>
  <line class="fil1 str0" x1="1435" y1="5343" x2="2271" y2= "4991" />
  <line class="fil1 str0" x1="14429" y1="5343" x2="13592" y2= "4991" />
  <line class="fil1 str0" x1="13592" y1="8249" x2="14429" y2= "7898" />
  <path class="fil0" d="M2271 4991c707,-2460 2974,-4260 5661,-4260 2687,0 4954,1800 5660,4260l837 352c-595,-3045 -3278,-5343 -6497,-5343 -3220,0 -5902,2298 -6497,5343l836 -352z"/>
  <path class="fil0" d="M7932 12509c-2686,0 -4951,-1797 -5659,-4254l-837 -352c597,3042 3278,5338 6496,5338 3219,0 5902,-2298 6497,-5343l-837 351c-706,2460 -2973,4260 -5660,4260z"/>
 </g>
</svg>
