<?xml version="1.0" encoding="UTF-8"?><svg width="400" height="400" viewBox="50 50 400 400" xmlns:rdf="http://www.w3.org/1999/02/22-rdf-syntax-ns#" xmlns="http://www.w3.org/2000/svg" xmlns:cc="http://creativecommons.org/ns#" xmlns:dc="http://purl.org/dc/elements/1.1/" version="1.1">
 <path xmlns="http://www.w3.org/2000/svg" fill-rule="evenodd" fill="#34972a" d="m249.9 50c-52.87 0.0405-103.6 21.02-141 58.33h135.2l18.12-33.07c4.805 10.61 8.337 21.72 10.56 33.07h118.2c-37.6-37.28-88.3-58.25-141.1-58.3zm-155.3 74.2c-8.39 10.35-15.72 21.52-21.9 33.33h144.3l18.27-33.33zm180.3 0c0.3658 4.205 0.5635 8.43 0.573 12.67 0 6.932-0.5042 13.84-1.462 20.67h153.1c-6.165-11.81-13.5-22.98-21.88-33.33zm-209.6 49.1c-4.445 10.78-7.937 21.93-10.44 33.33h135.4l18.25-33.33zm205.7 0c-1.985 7.877-4.6 15.6-7.852 23.08 5.327 3.237 10.51 6.662 15.56 10.24h166.2c-2.51-11.4-6.012-22.55-10.46-33.33zm-218.9 49.2c-1.35 9.1-2.06 18.3-2.14 27.5 0 110.4 89.55 200 200 200s200-89.55 200-200c-0.0738-9.205-0.783-18.4-2.122-27.5h-149c32.83 28.53 58.08 64.95 73.07 106.4-24.5-45.67-70.67-73.83-122.7-73.83-51.67 0-101 28.67-125.8 73.83l58.27-106.4h-129.5zm197.8 70.83c33.13 0 60 26.87 60 60s-26.87 60-60 60-60-26.87-60-60 26.87-60 60-60z"/>
</svg>