<?xml version="1.0" encoding="UTF-8" standalone="no"?>
<svg
   id="svg32"
   xml:space="preserve"
   enable-background="new 0 0 110.67 106.67"
   viewBox="0 0 500.01356 500.01406"
   height="500"
   width="500"
   version="1.1"
   sodipodi:docname="Emblem_of_Shiki.svg"
   inkscape:version="1.2.1 (9c6d41e410, 2022-07-14)"
   xmlns:inkscape="http://www.inkscape.org/namespaces/inkscape"
   xmlns:sodipodi="http://sodipodi.sourceforge.net/DTD/sodipodi-0.dtd"
   xmlns="http://www.w3.org/2000/svg"
   xmlns:svg="http://www.w3.org/2000/svg"
   xmlns:rdf="http://www.w3.org/1999/02/22-rdf-syntax-ns#"
   xmlns:cc="http://creativecommons.org/ns#"
   xmlns:dc="http://purl.org/dc/elements/1.1/"><sodipodi:namedview
     id="namedview20"
     pagecolor="#ffffff"
     bordercolor="#666666"
     borderopacity="1.0"
     inkscape:showpageshadow="2"
     inkscape:pageopacity="0.0"
     inkscape:pagecheckerboard="0"
     inkscape:deskcolor="#d1d1d1"
     showgrid="false"
     inkscape:zoom="0.70710678"
     inkscape:cx="101.82338"
     inkscape:cy="212.83914"
     inkscape:window-width="1920"
     inkscape:window-height="996"
     inkscape:window-x="1912"
     inkscape:window-y="-8"
     inkscape:window-maximized="1"
     inkscape:current-layer="svg32" /><title
     id="title845">Emblem_of_Shiki</title><metadata
     id="metadata38"><rdf:RDF><cc:Work
         rdf:about=""><dc:format>image/svg+xml</dc:format><dc:type
           rdf:resource="http://purl.org/dc/dcmitype/StillImage" /><dc:title>Emblem_of_Shiki</dc:title></cc:Work></rdf:RDF></metadata><defs
     id="defs36" /><path
     style="fill:#e30e21;fill-opacity:1;stroke-width:5.34208393;stroke-linejoin:round"
     id="path4"
     d="m 278.24643,205.21834 c 0,15.51755 -12.75211,28.08068 -28.50426,28.08068 -15.75916,0 -28.53979,-12.56313 -28.53979,-28.08068 0,-15.5255 12.78063,-28.1162 28.53979,-28.1162 15.75215,0 28.50426,12.5907 28.50426,28.1162 z" /><path
     id="rect6"
     style="fill:#e30e21;fill-opacity:1;stroke-width:5.34208393;stroke-linejoin:round"
     d="M 249.21196 0 C 249.21196 13.695313 225.64142 23.470348 222.6038 27.115983 C 142.71689 37.119775 75.822801 89.796018 44.928975 161.72517 L 83.367537 161.72517 C 111.16249 108.71521 162.81934 70.449918 223.8929 61.792722 L 223.8929 77.965044 L 223.8929 112.42889 L 144.96885 112.42889 C 127.7516 125.95036 113.09192 142.67914 101.88758 161.72517 L 387.61227 161.72517 L 398.66531 161.72517 C 387.4602 142.67682 372.79391 125.95134 355.57427 112.42889 L 276.11505 112.42889 L 276.11505 77.965044 L 276.11505 77.873245 L 276.11505 61.734127 C 337.42098 70.243878 389.30386 108.56133 417.17949 161.72517 L 455.50672 161.72517 C 448.07345 144.42489 438.63958 128.19117 427.35555 113.44063 L 427.35555 112.42889 L 426.56842 112.42889 C 390.48228 65.804012 336.73138 33.780607 275.51347 26.803475 C 271.45261 22.989958 249.21196 13.798018 249.21196 0 z M 38.823338 177.63186 C 33.537426 193.05317 29.835891 209.2125 27.973429 225.92811 L 27.973429 224.29916 C 24.751638 225.34582 14.517431 250.80966 0 250.80966 C 14.517431 250.80966 24.751638 276.24045 27.973429 277.32211 L 27.973429 276.74007 C 29.792064 293.06232 33.34594 308.86501 38.432702 323.96012 L 75.570447 323.96012 C 66.440995 301.54821 61.364976 277.0315 61.364976 251.33311 C 61.364976 225.22699 66.551288 200.33071 75.916159 177.63186 L 38.823338 177.63186 z M 424.63087 177.63186 C 433.99574 200.33071 439.18205 225.22699 439.18205 251.33311 C 439.18205 277.03139 434.13827 301.54829 425.04885 323.96012 L 462.06354 323.96012 C 467.1402 308.90735 470.72932 293.16881 472.55407 276.89046 C 476.26045 273.2472 485.6937 250.80966 500.01381 250.80966 C 485.99625 250.80966 476.02211 227.19065 472.39586 224.51987 C 470.48586 208.29896 466.81855 192.62299 461.68072 177.63186 L 424.63087 177.63186 z M 83.648795 205.21856 C 79.937945 218.94731 77.864165 233.33591 77.599799 248.1592 L 173.29385 248.1592 L 173.29385 205.21856 L 83.648795 205.21856 z M 325.62423 205.21856 L 325.62423 248.1592 L 422.94723 248.1592 C 422.68286 233.33591 420.60909 218.94731 416.89823 205.21856 L 325.62423 205.21856 z M 223.8929 330.79429 L 223.8929 339.86681 L 109.93468 339.86681 L 101.27038 339.86681 C 112.41186 359.11346 127.07138 376.02815 144.3243 389.71389 L 223.8929 389.71389 L 223.8929 424.70118 C 224.14928 424.74146 224.41356 424.75569 224.67027 424.79494 L 223.8929 424.79494 L 223.8929 440.85397 C 162.68226 432.10544 110.67236 393.39674 82.924165 339.86681 L 44.503182 339.86681 C 75.866159 413.95794 145.29411 467.89586 227.93012 476.21042 C 235.76409 481.07948 249.74127 489.35398 249.74127 500.01381 C 249.74127 489.4037 263.84979 481.16468 271.64422 476.28659 C 334.69651 470.22165 390.13198 437.60764 426.97664 389.71389 L 427.35555 389.71389 L 427.35555 389.22755 C 438.87477 374.16959 448.47881 357.57396 455.98134 339.86681 L 417.72247 339.86681 C 389.98446 393.58421 337.8279 432.3562 276.11505 440.92429 L 276.11505 424.79494 L 276.11505 389.71389 L 356.21882 389.71389 C 373.47267 376.02785 388.13274 359.11418 399.2747 339.86681 L 397.71997 339.86681 L 276.11505 339.86681 L 276.11505 330.79429 L 223.8929 330.79429 z " /><path
     style="fill:none;stroke:#e30e21;stroke-width:37.39459229;stroke-linejoin:miter;stroke-opacity:1"
     id="path22"
     d="m 353.06689,205.21834 c 0,56.19636 -46.28014,101.78876 -103.32472,101.78876 -57.04405,0 -103.36025,-45.5924 -103.36025,-101.78876" /></svg>
