<?xml version="1.0" encoding="UTF-8" standalone="no"?>
<svg
   xmlns:dc="http://purl.org/dc/elements/1.1/"
   xmlns:cc="http://creativecommons.org/ns#"
   xmlns:rdf="http://www.w3.org/1999/02/22-rdf-syntax-ns#"
   xmlns:svg="http://www.w3.org/2000/svg"
   xmlns="http://www.w3.org/2000/svg"
   xmlns:xlink="http://www.w3.org/1999/xlink"
   id="svg62"
   viewBox="-250 -250 500 500"
   height="500"
   width="500"
   version="1.1">
  <metadata
     id="metadata68">
    <rdf:RDF>
      <cc:Work
         rdf:about="">
        <dc:format>image/svg+xml</dc:format>
        <dc:type
           rdf:resource="http://purl.org/dc/dcmitype/StillImage" />
        <dc:title>Emblem of Koshigaya, Saitama.svg </dc:title>
      </cc:Work>
    </rdf:RDF>
  </metadata>
  <defs
     id="defs66" />
  <title
     id="title40">Emblem of Koshigaya, Saitama.svg </title>
  <path
     id="path44"
     style="fill:none;stroke:black;stroke-width:8;stroke-linecap:round;stroke-linejoin:round;stroke-miterlimit:4"
     d="M -37.391056,-115.07784 A 66,66 0 1 1 37.391056,-115.07784 66,66 0 1 1 97.891056,-71.122015 66,66 0 1 1 121,0 66,66 0 1 1 97.891056,71.122015 66,66 0 1 1 37.391056,115.07784 66,66 0 1 1 -37.391056,115.07784 66,66 0 1 1 -97.891056,71.122015 66,66 0 1 1 -121,0 66,66 0 1 1 -97.891056,-71.122015 66,66 0 1 1 -37.391056,-115.07784 z" />
  <path
     style="fill:black;stroke:none"
     id="northeast"
     d="M 8,-119.71875 8,-79.625 A 80,80 0 0 1 79.59375,-8 L 95.65625,-8 A 96,96 0 0 0 24,-92.9375 L 24,-101.21875 A 104,104 0 0 1 103.6875,-8 L 119.71875,-8 A 120,120 0 0 0 8,-119.71875 z" />
  <use
     id="use47"
     transform="rotate(180)"
     xlink:href="#northeast" />
  <path
     style="fill:black;stroke:none"
     id="northwest"
     d="M -8,-119.71875 A 120,120 0 0 0 -119.71875,-8 L -103.6875,-8 A 104,104 0 0 1 -24,-101.21875 L -24,-92.9375 A 96,96 0 0 0 -95.65625,-8 L -79.59375,-8 A 80,80 0 0 1 -8,-79.625 L -8,-119.71875 z" />
  <use
     id="use50"
     transform="rotate(180)"
     xlink:href="#northwest" />
  <g
     id="g60"
     style="fill:black;stroke:none">
    <path
       id="path52"
       d="M -8,-71.53125 A 72,72 0 0 0 -72,0 72,72 0 0 0 -8,71.53125 L -8,55.40625 A 56,56 0 0 1 -56,0 56,56 0 0 1 -8,-55.40625 L -8,-71.53125 z M 8,-71.53125 8,-55.40625 A 56,56 0 0 1 56,0 56,56 0 0 1 8,55.40625 L 8,71.53125 A 72,72 0 0 0 72,0 72,72 0 0 0 8,-71.53125 z" />
    <path
       id="path54"
       d="M -8,-47.3125 A 48,48 0 0 0 -47.34375,-8 L -31,-8 A 32,32 0 0 1 -8,-31 L -8,-47.3125 z" />
    <path
       id="path56"
       d="M 8,-47.3125 8,-31 A 32,32 0 0 1 31,-8 L 47.34375,-8 A 48,48 0 0 0 8,-47.3125 z" />
    <path
       id="path58"
       d="M -48,0 A 48,48 0 0 0 0,48 48,48 0 0 0 48,0 L -48,0 z M -27.75,16 27.75,16 A 32,32 0 0 1 0,32 32,32 0 0 1 -27.75,16 z" />
  </g>
</svg>
