<?xml version="1.0" encoding="UTF-8" standalone="no"?>
<!-- Created with Inkscape (http://www.inkscape.org/) -->

<svg
   version="1.0"
   width="640"
   height="640"
   id="svg2"
   sodipodi:docname="埼玉県蕨市市章.svg"
   inkscape:version="1.2.1 (9c6d41e410, 2022-07-14)"
   xmlns:inkscape="http://www.inkscape.org/namespaces/inkscape"
   xmlns:sodipodi="http://sodipodi.sourceforge.net/DTD/sodipodi-0.dtd"
   xmlns="http://www.w3.org/2000/svg"
   xmlns:svg="http://www.w3.org/2000/svg">
  <sodipodi:namedview
     id="namedview6"
     pagecolor="#ffffff"
     bordercolor="#666666"
     borderopacity="1.0"
     inkscape:showpageshadow="2"
     inkscape:pageopacity="0.0"
     inkscape:pagecheckerboard="0"
     inkscape:deskcolor="#d1d1d1"
     showgrid="false"
     inkscape:zoom="0.65703125"
     inkscape:cx="394.19738"
     inkscape:cy="172.74673"
     inkscape:window-width="1920"
     inkscape:window-height="996"
     inkscape:window-x="1912"
     inkscape:window-y="-8"
     inkscape:window-maximized="1"
     inkscape:current-layer="svg2" />
  <defs
     id="defs4" />
  <g
     transform="matrix(1.0666667,0,0,1.0666667,0,-482.51967)"
     id="layer1">
    <path
       d="M 320,20 C 154.4,20.000001 20,154.4 20,320 20,485.6 154.4,620 320,620 485.6,620 620.00001,485.6 620,320 620,154.4 485.60001,20 320,20 Z m 0,55 c 135.24,1.3e-5 245,109.76 245,245 C 565,455.24001 455.24,565 320,565 184.76,565.00001 75,455.24 75,320 75,184.76001 184.76,75 320,75 Z m -5,55.0625 C 212.42586,132.71409 130,216.79024 130,320 c 0,103.20979 82.42586,187.28589 185,189.9375 V 454.90625 C 274.7289,453.43234 238.93238,434.28056 215.15625,405 H 265 c 30.36,0 55,-24.64002 55,-55 h -90 c -22.96431,-10e-6 -41.92315,-17.23946 -44.65625,-39.46875 C 190.08404,242.05646 245.93939,187.60852 315,185.09375 Z m 10,0 v 55.03125 c 37.94055,1.38721 71.90954,18.44996 95.59375,44.90625 h 66.75 C 455.98671,171.86246 395.20919,131.88206 325,130.0625 Z M 267.5,235 c -15.18,0 -27.5,12.32 -27.5,27.5 0,15.18 12.32,27.5 27.5,27.5 15.18,0 27.5,-12.32 27.5,-27.5 0,-15.18 -12.32,-27.49999 -27.5,-27.5 z m 107.5,0 c -30.36,0 -54.99999,24.64 -55,55 h 90 c 22.96431,0 41.92315,17.23946 44.65625,39.46875 C 449.90119,397.92919 394.05059,452.39083 325,454.90625 V 509.9375 C 427.57414,507.28591 509.99999,423.20982 510,320 c 0,-30.55347 -7.23075,-59.41636 -20.0625,-85 H 424.84375 405 Z m -2.5,115 c -15.18,0 -27.5,12.32001 -27.5,27.5 0,15.18 12.32,27.5 27.5,27.5 15.18,0 27.5,-12.32 27.5,-27.5 0,-15.18 -12.32,-27.49999 -27.5,-27.5 z"
       transform="translate(-20,432.36218)"
       style="opacity:1;fill:#000000;fill-opacity:1;fill-rule:nonzero;stroke:none;stroke-width:70;stroke-linecap:round;stroke-linejoin:round;stroke-miterlimit:4;stroke-dasharray:none;stroke-opacity:1"
       id="path3141" />
  </g>
</svg>
