<svg xmlns="http://www.w3.org/2000/svg" xmlns:xlink="http://www.w3.org/1999/xlink" width="400" height="373" viewBox="-100 -96.6 200 186.5">
<g id="b">
<path d="M-75.480351-49.017513a90 90 0 0 1 150.960702 0L62.900293-40.847928a75 75 0 0 0-125.800585 0zM-8.484202-64.443916a65 65 0 0 1 16.968405 0L7.178941-54.529467A55 55 0 0 1 53.12592 14.235047L38.637033 10.352762A40 40 0 0 0 5.221048-39.657794L4.307364-32.71768a33 33 0 0 0-8.614729 0z"/>
<path id="a" d="M-50-86.60254A100 100 0 0 1-25.881905-96.592583L-16.823238-62.785179A65 65 0 0 0-32.5-56.291651z"/>
<use transform="scale(-1 1)" xlink:href="#a"/>
</g>
<use transform="rotate(120)" xlink:href="#b"/>
<use transform="rotate(240)" xlink:href="#b"/>
</svg>
