<?xml version="1.0" encoding="UTF-8" standalone="no"?>
<svg
   height="500.20001"
   width="500"
   version="1.1"
   id="svg4"
   sodipodi:docname="Emblem_of_Fujimi,_Saitama.svg"
   inkscape:version="1.2.1 (9c6d41e410, 2022-07-14)"
   xmlns:inkscape="http://www.inkscape.org/namespaces/inkscape"
   xmlns:sodipodi="http://sodipodi.sourceforge.net/DTD/sodipodi-0.dtd"
   xmlns="http://www.w3.org/2000/svg"
   xmlns:svg="http://www.w3.org/2000/svg">
  <defs
     id="defs8" />
  <sodipodi:namedview
     id="namedview6"
     pagecolor="#ffffff"
     bordercolor="#666666"
     borderopacity="1.0"
     inkscape:showpageshadow="2"
     inkscape:pageopacity="0.0"
     inkscape:pagecheckerboard="0"
     inkscape:deskcolor="#d1d1d1"
     showgrid="false"
     inkscape:zoom="0.5946768"
     inkscape:cx="380.03836"
     inkscape:cy="222.8101"
     inkscape:window-width="1920"
     inkscape:window-height="996"
     inkscape:window-x="1912"
     inkscape:window-y="-8"
     inkscape:window-maximized="1"
     inkscape:current-layer="svg4" />
  <path
     fill="#009900"
     d="M 199.875,100 C 172.5,201.125 145.125,278.75 94.75,357.5 c 109.75,-22 210,-20.75 312.5,0.2 -52,-80 -84,-163.75 -104,-257.5 z m 36.375,50 H 259 c 13.75,51.125 32.125,100.75 55.375,148.75 -45.625,-4.9 -91.125,-3.7 -133.75,0.46 24,-46 42,-96 56,-147.5 z M 257.5,0 v 10.1 c 128.75,4 232.5,109.875 232.5,240 0,132.5 -107.5,240 -240,240 -132.5,0 -240,-107.5 -240,-240 0,-130 102,-236.25 232.5,-240 V 0.2 C 107.5,4.7 0,113.825 0,250.2 c 0.125,137.5 112.5,250 250,250 137.5,0 250,-112 250,-250 C 500,113.95 392,3.95 257.5,0.2 Z m 0,25 v 10.1 c 116,4.2 206.25,98.75 207.5,213.75 0,118 -98,216.25 -216.25,216.25 -118,0 -216.25,-98 -216.25,-216.25 3.625,-116.25 93.75,-210 210,-213.75 V 25.2 C 122.5,28.7 26.25,127.575 26.25,248.95 26.25,373.075 127,472.7 250,472.7 c 124.125,0 223.75,-100.75 223.75,-223.75 0,-122 -96,-220 -216.25,-223.75 z m 0,25 v 10.1 c 101.75,4.0125 182.5,87.625 182.5,190 0,105 -85,190 -190,190 -105,0 -190,-85 -190,-190 0.5,-102.5 81.25,-186.25 182.5,-190 v -9.9 c -106.25,3.875 -191.25,92.375 -191.25,200 0,110.375 89.625,200 200,200 110.375,0 200,-89.625 200,-200 0,-107.375 -85,-196.25 -192.5,-200 z"
     id="path2"
     style="stroke-width:1.25" />
</svg>
