<?xml version="1.0" encoding="UTF-8" standalone="no"?>
<svg
   xml:space="preserve"
   height="450.20999"
   width="435.29999"
   version="1.1"
   id="svg4"
   sodipodi:docname="Emblem_of_Niiza,_Saitama.svg"
   inkscape:version="1.2.1 (9c6d41e410, 2022-07-14)"
   xmlns:inkscape="http://www.inkscape.org/namespaces/inkscape"
   xmlns:sodipodi="http://sodipodi.sourceforge.net/DTD/sodipodi-0.dtd"
   xmlns="http://www.w3.org/2000/svg"
   xmlns:svg="http://www.w3.org/2000/svg"><defs
   id="defs8" /><sodipodi:namedview
   id="namedview6"
   pagecolor="#ffffff"
   bordercolor="#666666"
   borderopacity="1.0"
   inkscape:showpageshadow="2"
   inkscape:pageopacity="0.0"
   inkscape:pagecheckerboard="0"
   inkscape:deskcolor="#d1d1d1"
   showgrid="false"
   inkscape:zoom="0.4205"
   inkscape:cx="820.45184"
   inkscape:cy="495.83829"
   inkscape:window-width="1920"
   inkscape:window-height="996"
   inkscape:window-x="1912"
   inkscape:window-y="-8"
   inkscape:window-maximized="1"
   inkscape:current-layer="svg4" />
 <path
   fill="#005f3e"
   fill-rule="evenodd"
   d="M 217.6,0 C 133.5,0.6 83.8,13.6 44.4,24.4 33.7,27.8 27.5,35.6 24.5,46.3 13.4,86.6 0,137.7 0,225.2 v 191.5 c 0,18.5 14.8,33.5 33.1,33.5 h 98.6 l 13.2,-35.6 a 212.5,212.5 0 0 1 -16.4,-6.9 l 11.5,-24.8 4.3,-9.3 0.9,-2 9.5,-20.6 a 150,150 0 0 0 11.9,5.1 l 49.9,-134.3 -5,143.1 a 150,150 0 0 0 6.1,0.3 150,150 0 0 0 6.1,-0.3 l -5,-143.1 49.9,134.3 a 150,150 0 0 0 9.4,-3.9 l 9.1,20.71 5.1,11.5 11,24.9 a 212.5,212.5 0 0 1 -12.8,5.4 l 13.2,35.5 h 98.6 c 18.27,0 33.1,-15 33.1,-33.5 v -191.5 c 0,-87.5 -13.4,-138.6 -24.5,-178.9 -3.2,-10.7 -9.3,-18.5 -20,-21.9 C 351.4,13.51 301.7,0.53 217.6,0.01 Z m 0,2.7 a 212.5,212.5 0 0 1 212.5,212.5 212.5,212.5 0 0 1 -88.9,172.3 l -16,-22.3 a 185,185 0 0 0 77.4,-150 185,185 0 0 0 -185,-185 185,185 0 0 0 -185,185 185,185 0 0 0 95.3,161.3 l -13.3,24 A 212.5,212.5 0 0 1 5.1,215.2 212.5,212.5 0 0 1 217.6,2.7 Z m 0,40 a 172.5,172.5 0 0 1 172.5,172.5 172.5,172.5 0 0 1 -72.3,139.7 l -13.1,-18.2 a 150,150 0 0 0 62.9,-121.5 150,150 0 0 0 -150,-150 150,150 0 0 0 -150,150 150,150 0 0 0 77.3,130.8 L 134,365.7 A 172.5,172.5 0 0 1 45.1,215.2 172.5,172.5 0 0 1 217.6,42.7 Z m 79.4,299.2 12,19.2 a 172.5,172.5 0 0 1 -9.1,5.4 l -10.7,-19.8 a 150,150 0 0 0 7.9,-4.8 z m 18.6,29.7 14.7,23.5 a 212.5,212.5 0 0 1 -11.3,6.5 l -13.1,-24 a 185,185 0 0 0 9.7,-5.9 z m -106.2,55.7 -0.8,22.9 h 18.1 l -0.8,-22.8 a 212.5,212.5 0 0 1 -8.3,0.3 212.5,212.5 0 0 1 -8.3,-0.4 z"
   id="path2" />
</svg>
