<?xml version="1.0" encoding="UTF-8" standalone="no"?>
<svg
   id="svg16"
   viewBox="-250 -250 500 500"
   height="500"
   width="500"
   version="1.1"
   sodipodi:docname="Hasuda, Saitama Chapter.svg"
   inkscape:version="1.2.1 (9c6d41e410, 2022-07-14)"
   xmlns:inkscape="http://www.inkscape.org/namespaces/inkscape"
   xmlns:sodipodi="http://sodipodi.sourceforge.net/DTD/sodipodi-0.dtd"
   xmlns="http://www.w3.org/2000/svg"
   xmlns:svg="http://www.w3.org/2000/svg"
   xmlns:rdf="http://www.w3.org/1999/02/22-rdf-syntax-ns#"
   xmlns:cc="http://creativecommons.org/ns#"
   xmlns:dc="http://purl.org/dc/elements/1.1/">
  <sodipodi:namedview
     id="namedview11"
     pagecolor="#ffffff"
     bordercolor="#666666"
     borderopacity="1.0"
     inkscape:showpageshadow="2"
     inkscape:pageopacity="0.0"
     inkscape:pagecheckerboard="0"
     inkscape:deskcolor="#d1d1d1"
     showgrid="false"
     inkscape:zoom="0.4205"
     inkscape:cx="-211.65279"
     inkscape:cy="293.69798"
     inkscape:window-width="1920"
     inkscape:window-height="996"
     inkscape:window-x="1912"
     inkscape:window-y="-8"
     inkscape:window-maximized="1"
     inkscape:current-layer="svg16" />
  <metadata
     id="metadata22">
    <rdf:RDF>
      <cc:Work
         rdf:about="">
        <dc:format>image/svg+xml</dc:format>
        <dc:type
           rdf:resource="http://purl.org/dc/dcmitype/StillImage" />
        <dc:title>Hasuda, Saitama Chapter</dc:title>
      </cc:Work>
    </rdf:RDF>
  </metadata>
  <defs
     id="defs20" />
  <title
     id="title2">Hasuda, Saitama Chapter</title>
  <path
     id="path6"
     style="fill:#309a02;stroke:none;stroke-width:1.04167"
     d="m 0,-250 -41.829427,101.04167 -33.919271,-33.88672 v 47.91666 l -101.041662,-41.86197 41.86197,101.041662 h -47.91666 l 33.88672,33.919271 L -250,0 l 101.04167,41.861979 -33.88672,33.886719 h 47.91666 l -41.86197,101.041662 101.041662,-41.86197 v 47.91666 L -41.861979,148.95833 0,250 41.861979,148.95833 75.748698,182.84505 V 134.92839 L 176.79036,176.79036 134.92839,75.748698 h 47.91666 L 148.95833,41.861979 250,0 148.95833,-41.861979 182.84505,-75.748698 h -47.91666 l 41.86197,-101.041662 -101.041662,41.86197 v -47.91666 l -33.886719,33.88672 z" />
  <circle
     id="circle8"
     style="fill:#ffffff;stroke:none;stroke-width:1.04167"
     r="103.55338"
     cy="0"
     cx="0" />
  <path
     id="path10"
     style="fill:#309a02;stroke:none;stroke-width:1.04167"
     d="M -73.209635,-93.847656 -93.847656,-73.209635 -20.605469,0 -93.847656,73.209635 -73.209635,93.84766 0,20.605469 73.209635,93.84766 93.84766,73.209635 20.605469,0 93.84766,-73.209635 73.209635,-93.847656 0,-20.605469 Z" />
  <path
     id="path12"
     style="fill:none;stroke:#ffffff;stroke-width:4.16667;stroke-linecap:square;stroke-linejoin:miter;stroke-miterlimit:4"
     d="M 107.53916,-83.96893 23.570226,0 107.53916,83.96893 83.96893,107.53916 0,23.570226 -83.96893,107.53916 -107.53916,83.96893 0,-23.570226 -23.570226,0 -107.53916,-83.96893" />
  <circle
     id="circle14"
     style="fill:none;stroke:#ffffff;stroke-width:12.5"
     r="135.41667"
     cy="0"
     cx="0" />
</svg>
