<?xml version="1.0" encoding="UTF-8" standalone="no"?>
<!-- Created with Inkscape (http://www.inkscape.org/) -->
<svg
   xmlns:svg="http://www.w3.org/2000/svg"
   xmlns="http://www.w3.org/2000/svg"
   version="1.0"
   width="640"
   height="670"
   id="svg2">
  <defs
     id="defs4" />
  <g
     transform="translate(20,-402.36218)"
     id="layer1">
    <path
       d="M 277.5,422.375 L 277.5,453.1875 C 127.32879,464.33915 7.7957844,586.20981 0.34375,737.375 L 45.46875,737.375 L 150.75,737.375 L 175,737.375 L 196.09375,737.375 C 203.38388,686.51741 247.13625,647.375 300,647.375 C 352.86375,647.37498 396.61612,686.51742 403.90625,737.375 L 435,737.375 L 449.25,737.375 L 580,737.375 L 599.65625,737.375 C 592.20422,586.20981 472.67121,464.33915 322.5,453.1875 L 322.5,422.375 L 277.5,422.375 z M 300,497.375 C 420.09619,497.375 520.84555,580.53606 547.84375,692.375 L 516.875,692.375 C 490.59686,597.27433 403.42305,527.37501 300,527.375 C 196.57695,527.375 109.40314,597.27434 83.125,692.375 L 52.15625,692.375 C 79.154454,580.53605 179.90381,497.375 300,497.375 z M 300,572.375 C 378.32039,572.37498 444.98945,622.4926 469.71875,692.375 L 437.5,692.375 C 414.34544,639.40688 361.47736,602.37501 300,602.375 C 238.52264,602.375 185.65456,639.40688 162.5,692.375 L 130.28125,692.375 C 155.01055,622.4926 221.67961,572.375 300,572.375 z M 0.34375,767.375 C 7.9195236,921.05025 131.32362,1044.4233 285,1052 L 285,1006.9375 C 200.07358,1002.0034 126.26736,955.43952 83.6875,887.375 L 120.03125,887.375 C 161.09205,942.0122 226.44098,977.37499 300,977.375 C 373.55902,977.375 438.90795,942.01221 479.96875,887.375 L 516.3125,887.375 C 473.73264,955.43952 399.92642,1002.0034 315,1006.9375 L 315,1052 C 468.67638,1044.4233 592.08048,921.05027 599.65625,767.375 L 570,767.375 L 45.46875,767.375 L 0.34375,767.375 z M 52.15625,812.375 L 83.125,812.375 C 85.977451,822.69803 89.550481,832.70304 93.78125,842.375 L 61.40625,842.375 C 57.733231,832.64626 54.631309,822.62783 52.15625,812.375 z M 130.28125,812.375 L 469.71875,812.375 C 466.01179,822.85047 461.3653,832.89054 455.875,842.375 L 144.125,842.375 C 138.6347,832.89054 133.98821,822.85047 130.28125,812.375 z M 516.875,812.375 L 547.84375,812.375 C 545.36869,822.62783 542.26677,832.64626 538.59375,842.375 L 506.21875,842.375 C 510.44952,832.70304 514.02255,822.69803 516.875,812.375 z M 181,887.375 L 277.5,887.375 L 277.5,930.96875 C 240.74497,926.3804 207.43032,910.69359 181,887.375 z M 322.5,887.375 L 419,887.375 C 392.56968,910.69359 359.25503,926.38039 322.5,930.96875 L 322.5,887.375 z "
       style="opacity:1;fill:#000000;fill-opacity:1;fill-rule:nonzero;stroke:none;stroke-width:70;stroke-linecap:round;stroke-linejoin:round;stroke-miterlimit:4;stroke-dasharray:none;stroke-opacity:1"
       id="path3141" />
  </g>
</svg>
