<?xml version="1.0" encoding="UTF-8"?><svg width="456" height="420" viewBox="22 40 456 420" xmlns="http://www.w3.org/2000/svg" version="1.1">
 <path xmlns="http://www.w3.org/2000/svg" d="m91.55 162.57h6.641a155.88 155.88 0 0 0 16.84 113.48c19.62 33.97 49.75 47.06 71.2 71.33a321.17 321.17 0 0 1 63.78 110.49l48.49-104.86-3.33-5.75a155.88 155.88 0 0 0 89.84-71.27c19.63-34 15.9-66.65 26.19-97.42a321.17 321.17 0 0 1 63.8-110.46l-115 10.42a409.18 409.18 0 0 0-45.08 119.44 64.95 64.95 0 1 1-2.55-17.98 415.67 415.67 0 0 1 39.39-100 155.88 155.88 0 0 0-101.79-37.85c-39.23 0-64.95 19.5-97.42 26a321.17 321.17 0 0 1-127.56 0z" fill="#4352a1"/>
</svg>