<?xml version="1.0" encoding="UTF-8"?><svg width="400" height="391" viewBox="50 54 400 391" xmlns="http://www.w3.org/2000/svg" version="1.1">
 <path xmlns="http://www.w3.org/2000/svg" d="m171 354.3c-15.25-72.9 27.29-100.9 96.47-113.5 69.18-12.61 80.19-13.95 114.8-32.36-10.6 76.24-47.37 98.01-115.6 104.8-68.27 6.812-87.08 9.647-95.66 41.09z" fill="#96c61a"/>
 <path xmlns="http://www.w3.org/2000/svg" d="m145.4 318.9c-40.1-151.4 69.5-189.6 148.2-209.8 78.9-20.08 115.3-24.45 156.3-53.07 3.3 127-72.7 147.2-174 161.7-101.2 14.5-125.4 48.6-130.6 101.1z" fill="#51aa1c"/>
 <path xmlns="http://www.w3.org/2000/svg" fill="#3aa9fa" d="m235.1 73.7c-102.2 0-185.1 82.9-185.1 185.1-0.06 102.3 82.8 185.2 185.1 185.2 102.3 0.0553 185.3-82.89 185.2-185.2-0.0709-21.42-3.86-42.67-11.2-62.8 3.311 12.63 4.991 25.64 5 38.7 0 84.55-68.55 153.1-153.1 153.1s-153.1-68.55-153.1-153.1 68.55-153.1 153.1-153.1c17.06 0.03559 33.99 2.922 50.1 8.54-26.1-9.706-52.46-16.26-76-16.44z"/>
</svg>