<svg xmlns="http://www.w3.org/2000/svg" width="426" height="400" viewBox="-53.25 -50 106.5 100">
<path d="M31.93895-22.380873a39 39 0 0 0-63.8779 0l-11.147808-2.987046a50 50 0 0 1 86.173516 0zM47.762404 14.790293a50 50 0 0 1-95.524808 0l13.359758 3.579736a39 39 0 0 0 68.805291 0zM-53.12592-25.469714-18.365306-16.155635a5 5 0 0 1 2.517504 1.593627 22.5 22.5 0 0 1 .427877 28.604477 11 11 0 0 1-11.441713 3.759977l-21.678566-5.808754-1.310205-10.70383 21.65025 5.801167a5 5 0 0 0 4.829629-1.294095l-26.807431-7.183029-1.310205-10.70383 29.163843 7.814428a11.5 11.5 0 0 0-.476769-1.037903 5 5 0 0 0-3.140214-2.519455l-25.874411-6.933028zM12.741268-14.648679a25 25 0 0 0 5.433694 34.778712l-11.704486 3.136208a25 25 0 0 1-12.940952 0l-11.704486-3.136208a25 25 0 0 0 5.433694-34.778712l5.753154 1.541553a27 27 0 0 0 13.976228 0zM53.12592-25.469714l-1.310205 10.70383-40.995734 10.984774a22.5 22.5 0 0 1 5.027819-10.780898 5 5 0 0 1 2.517505-1.593627zM51.488164-12.089926l-1.310205 10.70383-37.898885 10.154976a22.5 22.5 0 0 1-1.751451-9.883462zM49.850408 1.289862l-1.310205 10.70383-21.678566 5.808754a11 11 0 0 1-11.441713-3.759977 22.5 22.5 0 0 1-2.016355-2.986706z"/>
</svg>