<svg xmlns="http://www.w3.org/2000/svg" width="504" height="432">
<path d="M285.004 59.77c0 33.014-26.757 59.785-59.77 59.785-33.014 0-59.772-26.77-59.772-59.784C165.462 26.758 192.22 0 225.233 0c33.014 0 59.771 26.758 59.771 59.77" fill="#f1892f"/>
<path d="M85.108 273.066c0-52.627 84.247-96.43 188.245-100.556-18.835-3.483-42.315-6.105-62.94-5.832C96.227 168.194 0 226.067 0 299.346 0 372.612 94.205 432 210.414 432c81.61 0 156.598-28.916 191.946-73.102-40.539 12.662-72.746 16.309-111.974 16.309-113.792 0-205.278-46.044-205.278-102.14" fill="#28abe4"/>
<path d="M277.068 170.735c20.243-14.93 46.932-22.264 78.702-20.051 39.761 2.786 58.774 24.49 106.853 34.12 23.698 4.739 35.212 2.868 41.29 1.966-17.865 10.572-56.137 26.17-92.073 20.243-33.041-5.45-44.146-20.393-87.294-32.467-33.682-9.425-47.478-3.811-47.478-3.811m-82.499 43.722c20.243-14.943 46.932-22.278 78.702-20.052 39.775 2.787 58.774 24.49 106.853 34.106 23.698 4.74 35.212 2.882 41.29 1.981-17.865 10.572-56.137 26.17-92.073 20.242-33.041-5.45-44.146-20.392-87.307-32.467-33.67-9.424-47.465-3.81-47.465-3.81" fill="#80bf44"/>
</svg>