<svg xmlns="http://www.w3.org/2000/svg" width="345" height="360">
<path d="m172.164 243.405 172.165 61.113-140.604-114.543L183.23 76.37 201.39 0l-29.226 50.178L142.961 0l18.16 76.37-20.495 113.605L0 304.518l172.164-61.113m.131-139.731c-57.466 0-104.459 46.994-104.459 104.46 0 57.45 46.987 104.46 104.46 104.46 57.455 0 104.458-47.004 104.458-104.46 0-57.472-47.009-104.46-104.459-104.46zm0 39.113c36.316 0 65.348 29.012 65.348 65.348 0 36.309-29.038 65.345-65.348 65.345-36.336 0-65.347-29.03-65.347-65.345 0-36.342 29.005-65.348 65.347-65.348zm0-86.52c-83.653 0-151.865 68.214-151.865 151.868C20.43 291.788 88.642 360 172.295 360c83.654 0 151.868-68.212 151.868-151.865 0-83.654-68.214-151.867-151.868-151.867zm0 36.319c64.022 0 115.547 51.527 115.547 115.549s-51.525 115.547-115.547 115.547c-64.021 0-115.547-51.525-115.547-115.547 0-64.022 51.526-115.55 115.547-115.55z" fill="#008200"/>
</svg>