<?xml version="1.0" encoding="UTF-8" standalone="no"?>
<!-- Created with Inkscape (http://www.inkscape.org/) -->

<svg
   xmlns:dc="http://purl.org/dc/elements/1.1/"
   xmlns:cc="http://creativecommons.org/ns#"
   xmlns:rdf="http://www.w3.org/1999/02/22-rdf-syntax-ns#"
   xmlns:svg="http://www.w3.org/2000/svg"
   xmlns="http://www.w3.org/2000/svg"
   xmlns:sodipodi="http://sodipodi.sourceforge.net/DTD/sodipodi-0.dtd"
   xmlns:inkscape="http://www.inkscape.org/namespaces/inkscape"
   width="88.781708mm"
   height="75.451424mm"
   viewBox="0 0 88.781708 75.451424"
   version="1.1"
   id="svg8"
   inkscape:version="0.92.1 r15371"
   sodipodi:docname="Miyashiro saitama chapter.svg">
  <defs
     id="defs2" />
  <sodipodi:namedview
     id="base"
     pagecolor="#ffffff"
     bordercolor="#666666"
     borderopacity="1.0"
     inkscape:pageopacity="0.0"
     inkscape:pageshadow="2"
     inkscape:zoom="0.98994948"
     inkscape:cx="-120.84493"
     inkscape:cy="181.58301"
     inkscape:document-units="mm"
     inkscape:current-layer="layer1"
     showgrid="false"
     inkscape:window-width="1920"
     inkscape:window-height="1017"
     inkscape:window-x="-8"
     inkscape:window-y="-8"
     inkscape:window-maximized="1"
     fit-margin-top="0"
     fit-margin-left="0"
     fit-margin-right="0"
     fit-margin-bottom="0" />
  <metadata
     id="metadata5">
    <rdf:RDF>
      <cc:Work
         rdf:about="">
        <dc:format>image/svg+xml</dc:format>
        <dc:type
           rdf:resource="http://purl.org/dc/dcmitype/StillImage" />
        <dc:title></dc:title>
      </cc:Work>
    </rdf:RDF>
  </metadata>
  <g
     inkscape:label="レイヤー 1"
     inkscape:groupmode="layer"
     id="layer1"
     style="opacity:1"
     transform="translate(-115.35519,-226.9394)">
    <path
       style="display:inline;opacity:1;fill:#571d84;fill-opacity:1;stroke:none;stroke-width:0.25153595;stroke-linecap:butt;stroke-linejoin:miter;stroke-miterlimit:4;stroke-dasharray:none;stroke-dashoffset:0;stroke-opacity:1;paint-order:markers fill stroke"
       d="m 158.91708,226.9394 -2.65395,4.59678 3.15743,21.44442 a 22.499995,22.499995 0 0 1 3.2257,-0.25471 22.499995,22.499995 0 0 1 2.50847,0.16397 l 2.36048,-21.12465 c -2.75485,-1.77781 -5.62542,-3.39069 -8.59813,-4.82581 z m 14.6622,9.1519 -4.89748,17.51232 a 22.499995,22.499995 0 0 1 5.274,2.23299 l 7.45076,-12.71179 c -2.45194,-2.51386 -5.06683,-4.86338 -7.82728,-7.03352 z m -22.10407,3.73781 -5.31534,9.20641 4.54055,7.16137 a 22.499995,22.499995 0 0 1 5.20826,-2.4122 z m 33.96671,7.75694 -8.53204,10.30464 a 22.499995,22.499995 0 0 1 3.92715,4.17799 l 10.04068,-7.19481 c -1.67711,-2.53762 -3.49268,-4.97014 -5.43579,-7.28782 z m -41.89352,5.97271 -3.67331,6.3624 4.14688,2.75766 a 22.499995,22.499995 0 0 1 3.7977,-4.31327 z m 50.25053,6.09058 -11.07261,5.49068 a 22.499995,22.499995 0 0 1 1.90505,5.42644 l 13.19925,-2.71524 c -1.18352,-2.8016 -2.52889,-5.54028 -4.03169,-8.20188 z m -56.13471,4.10115 -3.72923,6.45919 6.59474,1.11828 a 22.499995,22.499995 0 0 1 1.72759,-5.49625 z m 62.31712,9.78478 -14.87315,0.61712 a 22.499995,22.499995 0 0 1 0.038,1.07347 22.499995,22.499995 0 0 1 -0.5208,4.67372 l 18.06985,3.96493 c -0.67381,-3.50105 -1.58076,-6.95182 -2.71394,-10.32924 z m -68.74097,1.34167 -5.5993,9.69822 15.20931,-3.89826 a 22.499995,22.499995 0 0 1 -0.70415,-5.45104 22.499995,22.499995 0 0 1 0.0161,-0.29042 z m 52.32109,8.48599 a 22.499995,22.499995 0 0 1 -2.76649,5.06771 l 18.95181,13.96018 h 4.21406 c 0.0845,-1.17137 0.1432,-2.34445 0.17606,-3.51839 -0.003,-2.51022 -0.12527,-5.01178 -0.36266,-7.49686 z m -41.56712,0.7657 -21.53316,9.41839 -5.10599,8.8438 h 12.83606 l 16.79226,-13.29785 a 22.499995,22.499995 0 0 1 -2.98917,-4.96434 z m 36.43855,7.05967 a 22.499995,22.499995 0 0 1 -4.60582,3.50707 l 4.37591,7.69545 h 11.191 z m -30.98131,0.58053 -9.69099,10.62199 h 10.62349 l 3.81847,-7.29661 a 22.499995,22.499995 0 0 1 -4.75097,-3.32538 z m 23.08882,4.49146 a 22.499995,22.499995 0 0 1 -5.64917,1.32989 l 0.47274,4.80064 h 7.4534 z m -14.98534,0.25585 -1.95151,5.87468 h 7.34167 l 0.29993,-4.73506 a 22.499995,22.499995 0 0 1 -5.69009,-1.13962 z"
       id="path4496"
       inkscape:connector-curvature="0" />
    <path
       sodipodi:nodetypes="cccsccssssccccsccssccsscscssccccccscscsscsscsscsscsccssscccccsccccccssccccscccccccccccsssccc"
       inkscape:connector-curvature="0"
       id="path4494"
       d="m 161.69896,295.22384 c -0.0402,-0.065 -0.43841,-2.10332 -0.56926,-2.91365 -0.34401,-2.13046 -0.46657,-4.5938 -0.34356,-6.90562 0.12421,-2.33449 0.55982,-4.09074 1.47985,-5.96636 0.41715,-0.8504 0.63417,-1.20582 1.16743,-1.91191 0.32161,-0.42584 0.35525,-0.47889 0.32313,-0.5095 -0.066,-0.0629 -1.32226,-0.84619 -1.35713,-0.84619 -0.0227,0 -0.36579,0.26754 -0.76239,0.59453 -1.24116,1.02334 -1.63819,1.30389 -2.70015,1.90802 -1.82037,1.03558 -4.13677,1.97522 -5.6669,2.29877 -2.01746,0.42659 -3.824,0.23888 -5.46364,-0.5677 -1.06616,-0.52446 -1.99282,-1.34448 -2.66997,-2.36267 -0.57146,-0.85929 -0.92747,-1.81355 -1.07802,-2.8896 -0.0437,-0.31231 -0.0434,-1.22885 4.7e-4,-1.54781 0.1401,-1.01813 0.49179,-1.95678 1.05578,-2.81781 1.22203,-1.86567 3.16126,-3.04017 5.39925,-3.27007 0.44959,-0.0462 1.50943,-0.0169 1.97562,0.0545 1.14387,0.17531 2.20205,0.49003 3.4893,1.03777 1.44249,0.61379 2.67255,1.29955 5.10415,2.84555 0.5354,0.34041 0.99313,0.61513 1.01718,0.6105 0.0551,-0.0106 0.96693,-0.96993 1.39644,-1.46914 1.13295,-1.31678 1.91401,-2.59516 2.52642,-4.13506 0.87496,-2.2001 0.9023,-3.80127 0.0937,-5.4901 -0.41093,-0.85831 -0.87917,-1.45802 -1.41109,-1.8073 -0.76872,-0.50477 -1.61173,-0.57405 -2.47459,-0.20337 -0.79021,0.33948 -1.72314,1.21396 -2.13094,1.99744 -0.34086,0.65489 -0.46822,1.34266 -0.44706,2.4143 0.0106,0.53842 0.0358,0.82477 0.20158,2.29489 0.22865,2.02751 0.27623,2.43143 0.36317,3.08279 0.0701,0.52551 0.20921,1.37672 0.23658,1.44806 0.009,0.0228 0.003,0.0493 -0.0123,0.0589 -0.0155,0.01 -0.74818,-0.37317 -1.62812,-0.8506 -1.53055,-0.83042 -1.60163,-0.87229 -1.63969,-0.9659 -0.12526,-0.30803 -0.39242,-1.56917 -0.52856,-2.49507 -0.23247,-1.58105 -0.30304,-2.50023 -0.25466,-3.31692 0.0915,-1.54399 0.47312,-2.73012 1.25691,-3.9062 0.3089,-0.46352 0.57522,-0.78121 1.00994,-1.20475 0.39572,-0.38555 0.6758,-0.61487 1.0812,-0.88524 1.59239,-1.06199 3.29483,-1.39178 4.991,-0.96683 1.45001,0.36328 2.72448,1.31929 3.67601,2.75748 0.78913,1.19272 1.29058,2.54073 1.48286,3.98631 0.0711,0.53436 0.0778,1.51213 0.0139,2.02863 -0.18602,1.50463 -0.61373,2.87023 -1.39197,4.4444 -0.8461,1.71142 -1.54333,2.68723 -3.1131,4.35689 -0.29648,0.31535 -0.53905,0.58491 -0.53905,0.59902 0,0.0283 0.82366,0.56065 0.86753,0.56065 0.0151,0 0.17957,-0.16966 0.3655,-0.37703 0.18592,-0.20737 0.59475,-0.63707 0.9085,-0.95489 2.22426,-2.25313 4.10036,-3.52033 6.07378,-4.10249 3.29893,-0.97319 6.37555,-0.20523 8.15104,2.03459 0.95731,1.20766 1.44775,2.64173 1.44775,4.23326 0,1.89478 -0.70058,3.58178 -2.02219,4.86945 -0.5551,0.54084 -1.09845,0.92248 -1.80868,1.27037 -1.46345,0.71682 -2.99636,0.93313 -4.76784,0.67278 -1.20188,-0.17664 -2.46937,-0.56228 -3.73636,-1.13679 -1.01719,-0.46126 -2.27991,-1.14886 -3.23007,-1.75892 -0.25467,-0.1635 -0.48967,-0.31134 -0.52223,-0.32852 -0.0561,-0.0296 -0.0783,-0.006 -0.42466,0.45786 -0.42594,0.57005 -0.61635,0.87935 -0.94872,1.54106 -0.62424,1.24279 -0.96124,2.4177 -1.10668,3.85833 -0.20718,2.05227 -0.12322,4.94842 0.1979,6.82625 0.0959,0.56061 0.20292,1.08155 0.50562,2.46063 0.13097,0.59663 0.24039,1.12646 0.24318,1.17739 l 0.005,0.0926 -1.67181,0.007 c -0.96015,0.004 -1.67802,-0.003 -1.6864,-0.0168 z m 14.51731,-16.37986 c 0.97216,-0.1662 1.91118,-0.7044 2.48373,-1.42356 0.68277,-0.85762 0.90546,-2.30996 0.5243,-3.41939 -0.31638,-0.92088 -1.06376,-1.67408 -1.9508,-1.96599 -0.47585,-0.1566 -0.72496,-0.18922 -1.44779,-0.1896 -0.68459,-4e-4 -0.97135,0.0301 -1.53458,0.16276 -1.37497,0.32394 -2.85662,1.26708 -4.4814,2.85261 -0.45367,0.44271 -1.24683,1.2896 -1.24683,1.3313 0,0.043 0.57192,0.40874 1.21708,0.7782 0.66795,0.3825 1.72308,0.91866 2.2225,1.12935 0.7447,0.31415 1.74162,0.60339 2.46063,0.7139 0.49767,0.0765 0.46507,0.0739 0.98294,0.0783 0.35747,0.003 0.53813,-0.008 0.77022,-0.0479 z m -24.00462,-0.9795 c 1.37807,-0.24228 3.46061,-1.06445 5.14614,-2.03168 0.79958,-0.45882 0.90911,-0.53507 1.67543,-1.16637 0.41324,-0.34044 0.4298,-0.35775 0.38364,-0.4012 -0.13001,-0.12237 -2.05518,-1.30024 -2.86463,-1.75267 -1.87936,-1.05041 -3.56825,-1.64797 -4.99329,-1.7667 -0.89154,-0.0743 -1.79018,0.14886 -2.53552,0.62962 -1.2098,0.78033 -1.92848,2.21661 -1.71913,3.43567 0.12499,0.72785 0.48739,1.44962 0.99379,1.97933 0.51876,0.54263 1.24268,0.91571 2.07911,1.07148 0.40953,0.0763 0.41889,0.0769 0.98779,0.0684 0.38529,-0.006 0.59969,-0.0225 0.84667,-0.0659 z"
       style="display:inline;fill:#571d84;fill-opacity:1;stroke-width:0.02645833" />
  </g>
</svg>
