<?xml version="1.0" encoding="UTF-8" standalone="no"?>
<!-- Created with Inkscape (http://www.inkscape.org/) -->

<svg
   xmlns:dc="http://purl.org/dc/elements/1.1/"
   xmlns:cc="http://creativecommons.org/ns#"
   xmlns:rdf="http://www.w3.org/1999/02/22-rdf-syntax-ns#"
   xmlns:svg="http://www.w3.org/2000/svg"
   xmlns="http://www.w3.org/2000/svg"
   xmlns:sodipodi="http://sodipodi.sourceforge.net/DTD/sodipodi-0.dtd"
   xmlns:inkscape="http://www.inkscape.org/namespaces/inkscape"
   version="1.0"
   width="420.59375"
   height="396.84375"
   id="svg2"
   inkscape:version="0.48.5 r10040"
   sodipodi:docname="Matsudo Chiba chapter.svg">
  <metadata
     id="metadata3839">
    <rdf:RDF>
      <cc:Work
         rdf:about="">
        <dc:format>image/svg+xml</dc:format>
        <dc:type
           rdf:resource="http://purl.org/dc/dcmitype/StillImage" />
        <dc:title></dc:title>
      </cc:Work>
    </rdf:RDF>
  </metadata>
  <sodipodi:namedview
     pagecolor="#ffffff"
     bordercolor="#666666"
     borderopacity="1"
     objecttolerance="10"
     gridtolerance="10"
     guidetolerance="10"
     inkscape:pageopacity="0"
     inkscape:pageshadow="2"
     inkscape:window-width="1853"
     inkscape:window-height="941"
     id="namedview3837"
     showgrid="false"
     inkscape:zoom="1.1125147"
     inkscape:cx="241.97083"
     inkscape:cy="221.78593"
     inkscape:window-x="0"
     inkscape:window-y="0"
     inkscape:window-maximized="0"
     inkscape:current-layer="svg2"
     fit-margin-top="0"
     fit-margin-left="0"
     fit-margin-right="0"
     fit-margin-bottom="0" />
  <defs
     id="defs5" />
  <path
     d="M 201.40625,0 C 190.88154,12.46891 175.511,20.94319 161.5625,24.1875 97.66568,42.15963 47.73034,94.48745 33.71875,160.5 26.17477,176.00508 14.46689,189.15568 0,198.4375 c 14.50898,9.30849 26.31391,22.53321 33.875,38.21875 14.35975,66.13008 65.04928,119.17674 130.65625,136.375 14.77276,4.0848 26.36806,12.2474 37.1875,23.8125 l 4.1875,-3.28125 c -10.16202,-12.4545 -24.45379,-21.28491 -39.875,-26.1875 l 4.28125,-16.09375 C 115.49755,336.92798 72.54745,294.00096 57.78125,239.8125 l 29.46875,-8 c 11.93362,43.74617 46.61207,78.39924 90.875,89.96875 l 16.46875,-62.125 c -28.07958,-7.24707 -48.46025,-33.14541 -47.5625,-63.34375 0.85435,-28.73808 20.71091,-52.46686 47.15625,-59.5 L 177.59375,74.71875 C 133.76489,86.39808 98.96168,120.89767 87.125,165.03125 l -29.46875,-8 C 72.33683,102.42164 115.44419,59.75933 169.6875,45.28125 L 165.53125,29.6875 c 15.61119,-4.86961 29.79116,-13.81777 40.0625,-26.40625 L 201.40625,0 z m 18.3125,0 -4.34375,3.125 c 10.07949,12.367 24.02358,21.41896 39.84375,25.9375 l -4.28125,16.09375 c 54.95897,14.48104 97.93459,57.70691 112.46875,112.21875 L 334,165.3125 C 322.28965,121.25469 287.53867,86.34893 243.125,74.65625 l -16.46875,62.125 c 27.85245,7.31008 48.06414,32.99225 47.3125,63 l 0,0.28125 c -0.85733,28.83901 -20.85699,52.62608 -47.4375,59.5625 l 16.625,62.0625 c 43.8912,-11.59625 78.7849,-46.02625 90.6875,-90.15625 l 29.4375,7.9375 C 348.54569,294.10971 305.38563,336.7904 251.0625,351.1875 l 4.28125,16 c -15.95193,4.50926 -29.81045,13.88005 -39.96875,26.34375 l 4.34375,3.125 c 9.72184,-11.2031 22.91129,-20.01849 37.15625,-23.75 1.07807,-0.31963 2.1659,-0.61058 3.25,-0.90625 63.75792,-18.19936 113.48575,-70.63624 127.28125,-136.6875 7.57927,-15.09072 19.09941,-27.83654 33.1875,-36.875 -14.01725,-8.99333 -25.44036,-21.62042 -33,-36.5 C 374.13311,95.91179 324.5619,42.6357 259.90625,24.3125 L 256.6875,23.625 C 242.64791,20.15316 229.41713,11.17607 219.71875,0 z"
     id="path2386"
     style="fill:#00693f;fill-opacity:1;stroke:none"
     inkscape:connector-curvature="0" />
</svg>
