<?xml version="1.0" encoding="UTF-8" standalone="no"?>
<!-- Created with Inkscape (http://www.inkscape.org/) -->
<svg
   xmlns:svg="http://www.w3.org/2000/svg"
   xmlns="http://www.w3.org/2000/svg"
   version="1.0"
   width="640"
   height="640"
   id="svg2">
  <defs
     id="defs4" />
  <g
     transform="translate(20,-432.36218)"
     id="layer1">
    <path
       d="M 302.125,452.0625 C 299.59193,452.038 297.08249,452.05442 294.5625,452.09375 C 143.36345,454.45387 14.73515,571.56421 1.40625,726.53125 C -12.811243,891.82945 109.75991,1037.3648 273.8125,1051.5313 C 279.16693,1052.2271 284.45642,1049.8213 287.59375,1045.25 C 290.73109,1040.6787 291.21042,1034.6743 288.84375,1029.625 C 286.47707,1024.5757 281.64118,1021.2998 276.25,1021.0625 C 127.46069,1008.2141 17.943682,877.41459 30.6875,729.25 C 43.43131,581.08544 173.83569,470.8391 322.625,483.6875 C 471.41433,496.53589 580.90007,627.30416 568.15625,775.46875 C 556.81968,907.27216 456.00403,1008.9792 323.71875,1020.9375 C 315.62696,1021.6702 309.64012,1029.1058 310.34375,1037.5313 C 311.04739,1045.9568 318.18946,1052.2015 326.28125,1051.4688 C 471.6983,1038.3233 584.86395,924.76711 597.46875,778.21875 C 611.68627,612.92057 489.14634,467.32267 325.09375,453.15625 C 317.40378,452.49221 309.72422,452.13601 302.125,452.0625 z M 299.46875,497.0625 C 171.00455,496.98996 60.113974,594.7183 46.65625,726.28125 C 32.301346,866.61505 134.51152,992.02262 273.65625,1006.3125 C 278.92337,1006.9289 284.11157,1004.565 287.21875,1000.0938 C 290.32593,995.62269 290.89672,989.73541 288.6875,984.71875 C 286.47829,979.70212 281.84387,976.34097 276.5625,975.875 C 152.66292,963.15077 63.269406,852.73255 75.875,729.5 C 88.480592,606.26748 198.60041,516.15082 322.5,528.875 C 446.3996,541.59917 535.79309,651.9862 523.1875,775.21875 C 512.22796,882.3592 431.10913,964.25788 323.46875,975.78125 C 318.13322,976.19779 313.4184,979.59243 311.1875,984.65625 C 308.9566,989.72009 309.57282,995.64236 312.75,1000.125 C 315.92718,1004.6076 321.16398,1006.9458 326.46875,1006.2188 C 446.84203,993.33226 539.98518,899.89738 552.40625,778.46875 C 566.76112,638.13492 464.51972,512.69607 325.375,498.40625 C 316.67846,497.51315 308.03303,497.06733 299.46875,497.0625 z M 299.625,542.03125 C 195.99481,541.96084 105.45303,619.43604 92,725.84375 C 77.422327,841.14691 159.19882,946.50745 273.375,961 C 278.62323,961.73492 283.83042,959.45511 287.03125,955.0625 C 290.23207,950.6699 290.93678,944.84616 288.84375,939.78125 C 286.75073,934.71631 282.20151,931.19382 276.9375,930.59375 C 177.97393,918.0322 108.70213,828.13461 121.125,729.875 C 133.54787,631.61539 223.34893,561.56341 322.3125,574.125 C 421.27609,586.68658 490.51662,676.61539 478.09375,774.875 C 467.66418,857.36849 406.2103,919.53021 323.21875,930.5 C 317.95654,931.12598 313.41336,934.64232 311.34375,939.71875 C 309.27413,944.79517 309.99597,950.6548 313.21875,955.03125 C 316.44155,959.40768 321.66086,961.63882 326.90625,960.875 C 422.04073,948.30018 495.09954,874.94876 507.25,778.84375 C 521.82766,663.54062 440.01994,558.21129 325.84375,543.71875 C 318.70773,542.81298 311.60785,542.26606 304.5625,542.09375 C 302.91125,542.05336 301.26992,542.03237 299.625,542.03125 z M 275,594.875 C 266.88569,594.76024 259.34064,599.02255 255.25,606.03125 C 251.15935,613.03991 251.15935,621.71006 255.25,628.71875 C 259.34064,635.72748 266.88569,639.98976 275,639.875 L 325,639.875 C 333.11431,639.98976 340.65936,635.72745 344.75,628.71875 C 348.84065,621.71009 348.84065,613.03994 344.75,606.03125 C 340.65936,599.02252 333.11431,594.76024 325,594.875 L 275,594.875 z M 299.65625,654.53125 C 298.43579,654.54988 297.2274,654.67015 296.0625,654.875 L 195,654.875 C 186.88569,654.76024 179.34064,659.02255 175.25,666.03125 C 171.15935,673.03991 171.15935,681.71006 175.25,688.71875 C 179.34064,695.72748 186.88569,699.98976 195,699.875 L 277.5,699.875 L 277.5,734.875 L 226.34375,734.875 C 225.24808,731.60674 223.39172,728.61047 220.90625,726.125 C 216.60186,721.82061 210.74285,719.43816 204.65625,719.53125 C 192.22975,719.72089 182.30994,729.94851 182.5,742.375 L 182.5,847.375 C 182.38524,855.48931 186.64755,863.03436 193.65625,867.125 C 200.66494,871.21568 209.33506,871.21565 216.34375,867.125 C 223.35245,863.03439 227.61476,855.48931 227.5,847.375 L 227.5,779.875 L 277.5,779.875 L 277.5,892.375 C 277.38524,900.48931 281.64755,908.03436 288.65625,912.125 C 295.66494,916.21568 304.33506,916.21565 311.34375,912.125 C 318.35245,908.03439 322.61476,900.48931 322.5,892.375 L 322.5,779.875 L 372.5,779.875 L 372.5,847.375 C 372.38524,855.48931 376.64755,863.03436 383.65625,867.125 C 390.66494,871.21568 399.33506,871.21565 406.34375,867.125 C 413.35245,863.03439 417.61476,855.48931 417.5,847.375 L 417.5,742.375 C 417.59309,736.2884 415.21063,730.42939 410.90625,726.125 C 406.60187,721.82061 400.74285,719.43816 394.65625,719.53125 C 384.85273,719.68086 376.60615,726.07937 373.65625,734.875 L 322.5,734.875 L 322.5,699.875 L 405,699.875 C 413.11431,699.98976 420.65936,695.72745 424.75,688.71875 C 428.84065,681.71009 428.84065,673.03994 424.75,666.03125 C 420.65936,659.02252 413.11431,654.76024 405,654.875 L 303.9375,654.875 C 302.5349,654.62574 301.10182,654.50914 299.65625,654.53125 z "
       style="opacity:1;fill:#000000;fill-opacity:1;fill-rule:nonzero;stroke:none;stroke-width:34.61402512;stroke-linecap:round;stroke-linejoin:round;stroke-miterlimit:4;stroke-dasharray:none;stroke-opacity:1"
       id="path3141" />
  </g>
</svg>
