<?xml version="1.0" encoding="UTF-8" standalone="no"?>
<!-- Created with Inkscape (http://www.inkscape.org/) -->
<svg
   xmlns:svg="http://www.w3.org/2000/svg"
   xmlns="http://www.w3.org/2000/svg"
   version="1.0"
   width="740"
   height="700"
   id="svg2">
  <defs
     id="defs4" />
  <g
     transform="translate(70,-372.36218)"
     id="layer1">
    <path
       d="M 299.40625,391.8125 C 277.32714,392.14026 259.68928,410.29565 260,432.375 L 260,455.0625 C 129.51483,472.631 21.65534,575.63629 2.875,712.375 L -10,712.375 C -24.425437,712.17099 -37.852746,719.75885 -45.125,732.21875 C -52.397254,744.67867 -52.397254,760.07134 -45.125,772.53125 C -37.852746,784.99114 -24.425437,792.57901 -10,792.375 L 2.5,792.375 C 19.613392,925.06646 123.99204,1034.782 262.3125,1052.375 L 278,1052.3438 L 278,972.34375 L 272.34375,972.375 C 174.64155,959.94826 100.01174,884.83916 83.4375,792.375 L 219.125,792.375 C 232.00914,818.78923 257.47429,838.40499 288.6875,842.375 L 311.78125,842.3125 C 342.90765,838.18984 368.24311,819.24053 381.03125,792.375 L 516.53125,792.375 C 499.69738,887.8637 425.64682,959.38899 328.78125,972.21875 L 322,972.25 L 322,1052.2188 L 339.21875,1052.1563 C 476.18175,1034.0156 579.70256,929.82496 597.46875,792.375 L 610,792.375 C 624.42544,792.57901 637.85274,784.99115 645.125,772.53125 C 652.39722,760.07133 652.39725,744.67866 645.125,732.21875 C 637.85271,719.75886 624.42544,712.17099 610,712.375 L 597.1875,712.375 C 579.2382,581.50616 476.33766,473.50035 340,455.09375 L 340,432.375 C 340.15211,421.5658 335.9282,411.14107 328.28125,403.5 C 320.63428,395.85893 310.21533,391.65206 299.40625,391.8125 z M 299.65625,532.375 C 308.90143,532.36991 318.24487,532.92796 327.65625,534.125 C 424.743,546.47347 499.05473,620.71248 516.25,712.375 L 380.5,712.375 C 367.50849,686.31933 342.24582,667.02815 311.3125,663.09375 C 272.37281,658.141 236.07143,678.99404 219.46875,712.375 L 83.8125,712.375 C 103.37105,607.65779 194.89219,532.43272 299.65625,532.375 z "
       style="opacity:1;fill:#000000;fill-opacity:1;fill-rule:nonzero;stroke:none;stroke-width:45;stroke-linecap:round;stroke-linejoin:round;stroke-miterlimit:4;stroke-dasharray:none;stroke-opacity:1"
       id="path3141" />
  </g>
</svg>
