<?xml version="1.0" encoding="UTF-8"?><svg width="455" height="309" viewBox="22 96 455 309" xmlns="http://www.w3.org/2000/svg" version="1.1">
 <path xmlns="http://www.w3.org/2000/svg" fill="#ff0000" d="m327.7 109.6c-57.67 3.876-124.5 33.31-145.4 50.73-0.8542 0.7094-1.262 1.826-1.263 2.936 0.002 1.011 0.3764 1.989 1.064 2.729l39.56 42.7c0.4912 0.53 1.425 0.9069 2.393 0.9588 0.9673 0.0519 1.905-0.5305 2.497-1.198 29.32-33.04 63.73-65.78 102.9-91.82 1.356-0.9017 2.445-2.567 1.992-4.322-0.4529-1.755-2.009-2.819-3.692-2.706z"/>
 <path xmlns="http://www.w3.org/2000/svg" fill="#4c4c4c" fill-rule="evenodd" d="m470.2 97.2c-101.7 18.5-186.6 95.7-243.1 166.4l130.8 138.1c0.9099 0.9605 1.918 1.352 3.028 1.26 3.023-0.2489 4.148-2.996 3.295-5.382-45.84-128.1-10.35-239.5 108.6-293.2 1.741-0.7869 2.671-3.196 1.956-4.953-0.7146-1.757-2.244-2.524-4.65-2.17zm-323.1 82.25c-2.103 0.0138-3.848 1.63-3.808 3.671 1.36 69.82-51.46 129.3-115.6 161.6-2.548 1.284-2.979 2.995-2.512 4.721 0.5081 1.724 2.014 2.731 3.942 2.732 45.3 0.0261 90.61 0.009 135.9 0.009 14.68-23.66 35.6-55.43 62.12-88.62l-77.34-83.11c-0.7376-0.7926-1.842-1.06-2.679-1.054zm55.32 187.8-12.32 34.91h6.965l2.311-7.551h13.03l2.311 7.551h6.966l-12.32-34.91h-6.966zm3.482 6.063 4.805 15.7h-9.612l4.805-15.7zm-47.98-6.063v6.192h10.21v28.73h6.966v-28.73h10.21v-6.192zm-14.7 0.00004h6.966v34.91h-6.966zm-18.08 34.37c-0.8337 0-1.13-0.706-1.13-3.388v-7.005c0-1.229-0.586-2.929-1.911-2.929h-9.165l-0.0765 13.32h-6.966v-34.41h16.97c5.05 0 9.143 4.093 9.143 9.143s-4.093 9.143-9.143 9.143c5.019 0 7.971 1.689 8.149 4.868l0.44 7.866c-0.008 1.53 0.5472 3.388 0.5472 3.388zm-12.21-18.92v-9.889h9.166c2.531 0 4.583 2.214 4.583 4.944s-2.052 4.944-4.583 4.944zm-34.09-15.45-12.32 34.91h6.966l2.311-7.551h13.03l2.311 7.551h6.966l-12.32-34.91h-6.966zm3.482 6.063 4.805 15.7h-9.612l4.805-15.7zm-55.16-6.063v34.91h6.965v-28.85l13.37 28.85h11.25v-34.91h-6.966v28.85l-13.37-28.85h-11.25z"/>
</svg>