<?xml version="1.0" encoding="UTF-8"?><svg width="456" height="338" viewBox="22 71 456 338" xmlns="http://www.w3.org/2000/svg">
 <path xmlns="http://www.w3.org/2000/svg" fill="#000000" d="m191.4 73c-90.7 0-164.4 72.5-166.4 162.7h71.1c1.7-43.8 33-80 74.4-89.2-17.9 26.6-28.5 58.6-28.5 93 0 34.5 10.5 66.5 28.5 93.1-41.4-9.2-72.7-45.4-74.4-89.2h-71.1c2 90.2 75.7 162.6 166.4 162.6 20.6 0 40.4-3.8 58.6-10.6 18.2 6.9 38 10.6 58.6 10.6 90.6 0 164.4-72.5 166.4-162.6h-71.1c-1.7 43.8-33 80-74.5 89.2 17.3-25.6 27.7-56.2 28.4-89.2h-71.1c-1.2 29-15.2 54.7-36.6 71.4-22.4-17.5-36.8-44.7-36.8-75.2 0-30.6 14.4-57.7 36.8-75.2 21.4 16.7 35.5 42.3 36.6 71.3h71.1c-0.7-33-11.1-63.7-28.4-89.2 41.5 9.2 72.7 45.4 74.5 89.2h71.1c-2-90.2-75.8-162.7-166.4-162.7-20.6 0-40.4 3.8-58.6 10.7-18.2-6.9-38-10.6-58.6-10.6z"/>
</svg>