<?xml version="1.0" encoding="UTF-8"?><svg width="452" height="298" viewBox="24 101 452 298" xmlns="http://www.w3.org/2000/svg" version="1.1">
 <path xmlns="http://www.w3.org/2000/svg" d="m257.4 101.7v74.41c37.97 3.816 66.87 35.77 66.87 73.93-0.063 38.11-28.95 69.99-66.87 73.8v74.42c73.28-3.72 132.9-60.37 140.3-133.4h37.27l12.01-22.29h-24.02l1.981-3.715h24.02l12.01-22.29h-23.9l1.981-3.715h23.9l12-22.2h-88.91c-22.56-51.63-72.39-86.05-128.7-88.9zm-14.86 0.1114c-56.25 2.824-106.1 37.2-128.7 88.79h-88.91l12.01 22.29h23.9l1.981 3.715h-23.9l12.01 22.29h24.02l1.981 3.715h-24.02l12.01 22.29h37.15c7.377 73.09 67.05 129.8 140.4 133.5v-74.42c-37.97-3.816-66.87-35.77-66.87-73.93 0.063-38.11 28.95-69.99 66.87-73.8z" fill="#4280f8"/>
</svg>