<?xml version="1.0" encoding="UTF-8" standalone="no"?>
<svg
   width="500"
   height="386.69186"
   version="1.1"
   viewBox="0 0 500 386.69186"
   id="svg16210"
   sodipodi:docname="Emblem_of_Ichihara,_Chiba.svg"
   inkscape:version="1.2.1 (9c6d41e410, 2022-07-14)"
   xmlns:inkscape="http://www.inkscape.org/namespaces/inkscape"
   xmlns:sodipodi="http://sodipodi.sourceforge.net/DTD/sodipodi-0.dtd"
   xmlns="http://www.w3.org/2000/svg"
   xmlns:svg="http://www.w3.org/2000/svg">
  <defs
     id="defs16214" />
  <sodipodi:namedview
     id="namedview16212"
     pagecolor="#ffffff"
     bordercolor="#666666"
     borderopacity="1.0"
     inkscape:showpageshadow="2"
     inkscape:pageopacity="0.0"
     inkscape:pagecheckerboard="0"
     inkscape:deskcolor="#d1d1d1"
     showgrid="false"
     inkscape:zoom="1.1893536"
     inkscape:cx="215.24297"
     inkscape:cy="213.98178"
     inkscape:window-width="1920"
     inkscape:window-height="996"
     inkscape:window-x="1912"
     inkscape:window-y="-8"
     inkscape:window-maximized="1"
     inkscape:current-layer="svg16210" />
  <path
     d="M 249.94446,0 A 76.427461,76.427461 0 0 1 211.06421,36.32526 205.17663,205.17663 0 0 0 0,143.74583 l 59.320151,34.21462 a 136.85848,136.85848 0 0 1 105.087759,-74.31682 205.17663,205.17663 0 0 0 10.99756,283.04822 l 35.88091,-62.09732 a 136.85848,136.85848 0 0 1 4.44346,-175.73872 v 237.83604 h 68.42924 V 148.85581 a 136.85848,136.85848 0 0 1 4.44345,175.73872 l 35.88092,62.09732 A 205.17663,205.17663 0 0 0 335.481,103.64363 136.85848,136.85848 0 0 1 440.67985,177.96045 L 500,143.74583 A 205.17663,205.17663 0 0 0 288.93579,36.32526 76.427461,76.427461 0 0 1 250.05554,0 Z"
     fill="#4b64a1"
     id="path16208"
     style="stroke-width:1.11086" />
</svg>
