<?xml version="1.0" encoding="UTF-8" standalone="no"?>
<!-- Created with Inkscape (http://www.inkscape.org/) -->
<svg
   xmlns:svg="http://www.w3.org/2000/svg"
   xmlns="http://www.w3.org/2000/svg"
   version="1.0"
   width="590"
   height="640"
   id="svg2">
  <defs
     id="defs4" />
  <g
     transform="translate(10,-432.36218)"
     id="layer1">
    <path
       d="M 168.53125,452.375 L 150.53125,482.375 L 105.4375,482.375 L 39.4375,592.375 L 84.53125,592.375 L 18.53125,702.375 C 9.1946799,757.98475 35.413918,812.42944 127.4375,812.375 L 162.53125,812.375 L 80.6875,948.78125 L 18.53125,1052.375 L 193.4375,1052.375 L 209.3125,1025.9375 L 337.4375,812.375 L 372.53125,812.375 L 290.6875,948.78125 L 228.53125,1052.375 L 403.4375,1052.375 L 478.53125,1052.375 L 540.6875,948.78125 L 544.53125,942.375 L 469.4375,942.375 L 547.4375,812.375 C 556.90852,756.6409 530.47172,702.48974 438.53125,702.375 L 403.4375,702.375 L 553.4375,452.375 L 378.53125,452.375 L 360.53125,482.375 L 325.4375,482.375 L 343.4375,452.375 L 168.53125,452.375 z M 259.4375,592.375 L 294.53125,592.375 L 228.53125,702.375 L 193.4375,702.375 L 259.4375,592.375 z "
       style="opacity:1;fill:#000000;fill-opacity:1;fill-rule:nonzero;stroke:none;stroke-width:80;stroke-linecap:round;stroke-linejoin:round;stroke-miterlimit:4;stroke-dasharray:none;stroke-opacity:1"
       id="rect2170" />
  </g>
</svg>
