<?xml version="1.0" encoding="UTF-8" standalone="no"?>
<!-- Created with Inkscape (http://www.inkscape.org/) -->

<svg
   version="1.0"
   width="640"
   height="658.13336"
   id="svg2"
   sodipodi:docname="Emblem_of_Yotsukaido,_Chiba.svg"
   inkscape:version="1.2.1 (9c6d41e410, 2022-07-14)"
   xmlns:inkscape="http://www.inkscape.org/namespaces/inkscape"
   xmlns:sodipodi="http://sodipodi.sourceforge.net/DTD/sodipodi-0.dtd"
   xmlns="http://www.w3.org/2000/svg"
   xmlns:svg="http://www.w3.org/2000/svg">
  <sodipodi:namedview
     id="namedview6"
     pagecolor="#ffffff"
     bordercolor="#666666"
     borderopacity="1.0"
     inkscape:showpageshadow="2"
     inkscape:pageopacity="0.0"
     inkscape:pagecheckerboard="0"
     inkscape:deskcolor="#d1d1d1"
     showgrid="false"
     inkscape:zoom="0.63712121"
     inkscape:cx="274.67301"
     inkscape:cy="350.79667"
     inkscape:window-width="1920"
     inkscape:window-height="996"
     inkscape:window-x="1912"
     inkscape:window-y="-8"
     inkscape:window-maximized="1"
     inkscape:current-layer="svg2" />
  <defs
     id="defs4" />
  <g
     transform="matrix(1.0666667,0,0,1.0666667,0,-464.40001)"
     id="layer1">
    <path
       d="m 300,435.375 -17.53125,17.53125 c -49.33297,2.85004 -95.47539,17.62141 -135.59375,41.5 10.60103,7.08017 20.74918,14.79649 30.375,23.09375 31.69574,-16.61109 67.14512,-27.00503 104.75,-29.53125 v 10.0625 c -34.6184,2.41474 -67.33368,11.71397 -96.78125,26.59375 9.0503,8.35855 17.59072,17.25199 25.59375,26.625 27.27015,-12.122 57.43677,-18.875 89.1875,-18.875 31.75073,0 61.91735,6.753 89.1875,18.875 7.99334,-9.36266 16.52437,-18.27425 25.5625,-26.625 C 385.3138,509.75503 352.60089,500.4499 318,498.03125 v -10.0625 c 37.60488,2.52622 73.05426,12.92016 104.75,29.53125 9.63271,-8.30536 19.76557,-16.03862 30.375,-23.125 -40.11566,-23.87412 -86.2634,-38.62319 -135.59375,-41.46875 z M 137.5,500.21875 C 54.793594,553.65429 0,646.65092 0,752.375 c 0,105.72408 54.793593,198.72066 137.5,252.1563 10.59629,-6.84624 20.72072,-14.3488 30.34375,-22.43755 C 88.461753,936.30215 35,850.5418 35,752.375 35,654.20821 88.461753,568.44785 167.84375,522.65625 158.22072,514.5675 148.09629,507.06488 137.5,500.21875 Z m 325,0 c -10.59629,6.84613 -20.72072,14.34875 -30.34375,22.4375 C 511.53825,568.44785 565,654.2082 565,752.375 c 10e-6,98.16681 -53.46175,183.92715 -132.84375,229.71875 9.62303,8.08875 19.74746,15.59127 30.34375,22.43755 C 545.20641,951.09559 600,858.09908 600,752.375 600,646.65092 545.20641,553.65429 462.5,500.21875 Z M 175.875,529.625 C 97.816789,573.23664 45,656.66488 45,752.375 c 0,95.71012 52.816789,179.13836 130.875,222.75 9.04132,-8.15914 17.56978,-16.87043 25.5625,-26.0625 -0.0919,-0.0462 -0.18939,-0.0787 -0.28125,-0.125 -1.02607,-0.51733 -2.0457,-1.0609 -3.0625,-1.59375 -0.39448,-0.20677 -0.79443,-0.41591 -1.1875,-0.625 -0.16889,-0.0898 -0.33166,-0.19045 -0.5,-0.28125 -13.98169,-7.48402 -27.05757,-16.44626 -39.03125,-26.65625 -0.83176,-0.7094 -1.67608,-1.40622 -2.5,-2.125 C 108.9794,877.33307 80,818.22519 80,752.375 80,691.67198 104.63244,636.71339 144.4375,596.90625 182.03095,637.85398 205,692.44817 205,752.375 c 0,56.3414 -20.29915,107.96331 -53.96875,147.96875 16.50069,16.61754 35.76008,30.45896 57.03125,40.84375 C 249.90726,889.61368 275,823.91455 275,752.375 275,677.14672 247.26557,608.36364 201.46875,555.6875 193.46804,546.48364 184.9268,537.7936 175.875,529.625 Z m 248.25,0 c -9.0518,8.1686 -17.59304,16.85864 -25.59375,26.0625 C 352.73443,608.36364 325,677.14672 325,752.375 c 0,71.53955 25.09274,137.23867 66.9375,188.8125 21.27117,-10.38479 40.53056,-24.22621 57.03125,-40.84375 C 415.29915,860.33831 395,808.71639 395,752.375 395,692.44817 417.96905,637.85398 455.5625,596.90625 495.36756,636.71339 520,691.67198 520,752.375 c 0,65.85019 -28.9794,124.95807 -74.875,165.28125 -0.82366,0.71863 -1.66922,1.41612 -2.5,2.125 -13.40233,11.4282 -28.17522,21.29908 -44.0625,29.28125 7.99272,9.19207 16.52118,17.90336 25.5625,26.0625 C 502.18321,931.51336 555.00001,848.08512 555,752.375 555,656.66488 502.18321,573.23664 424.125,529.625 Z M 300,949.375 282.53125,971.6875 C 257.1745,969.68835 233.03304,963.37737 210.8125,953.5 c -8.00303,9.373 -16.54345,18.26645 -25.59375,26.625 29.44757,14.87978 62.16285,24.179 96.78125,26.5938 v 10.0625 c -37.60488,-2.5263 -73.05426,-12.9202 -104.75,-29.5313 -9.63339,8.30378 -19.79616,16.009 -30.40625,23.0938 44.84196,26.6954 97.21541,42.0312 153.15625,42.0312 55.94084,0 108.31429,-15.3358 153.15625,-42.0312 -10.61009,-7.085 -20.77286,-14.79002 -30.40625,-23.0938 -31.69574,16.6111 -67.14512,27.005 -104.75,29.5313 v -10.0625 c 34.6184,-2.4148 67.33368,-11.71402 96.78125,-26.5938 -9.0503,-8.35855 -17.59072,-17.25199 -25.59375,-26.625 -22.22054,9.87737 -46.362,16.18835 -71.71875,18.1875 z"
       style="opacity:1;fill:#000000;fill-opacity:1;fill-rule:nonzero;stroke:none;stroke-width:120;stroke-linecap:round;stroke-linejoin:round;stroke-miterlimit:4;stroke-dasharray:none;stroke-opacity:1"
       id="path2160" />
  </g>
</svg>
