<svg xmlns="http://www.w3.org/2000/svg" width="400" height="320">
<path d="M142.244 102.575c10.085-5.064 68.567-8.675 86.667-5.064 0 0 27.436-34.658 80.854-61.39 0 0-28.184-36.816-67.863-36.111-39.722.748-74.424 43.334-99.658 102.565m-13.784 54.872c-3.567 12.287-10.834 80.194-3.567 116.305 0 0 21.667-67.158 55.62-113.399 0 0-34.702-5.769-52.053-2.906" fill="#faae17"/>
<path d="M316.283 49.861c-8.675 2.863-44.082 23.825-52.01 34.658 0 0 54.873 28.185 135.727 1.454 0 0-44.743-1.454-83.717-36.112" fill="#eb1923"/>
<path d="M0 182.725c39.634-39.723 94.903-57.514 115.512-63.547 29.594-8.676 86.492-22.768 166.069-4.316 77.992 18.056 109.788 58.483 109.788 97.5 0 0 7.926 44.788-61.39 84.466-69.316 39.767-187.735 19.51-224.595 2.907 39.722 2.158 99.658-10.085 119.872-21.667s36.86-29.594 36.86-58.527c0-28.845-30.342-62.094-93.89-70.726C104.68 140.14 31.708 163.26 0 182.725" fill="#0099d9"/>
</svg>