<?xml version="1.0" encoding="UTF-8" standalone="no"?>
<!-- Created with Inkscape (http://www.inkscape.org/) -->

<svg
   version="1.0"
   width="640"
   height="699.21704"
   id="svg2"
   sodipodi:docname="Emblem_of_Abiko,_Chiba.svg"
   inkscape:version="1.2.1 (9c6d41e410, 2022-07-14)"
   xmlns:inkscape="http://www.inkscape.org/namespaces/inkscape"
   xmlns:sodipodi="http://sodipodi.sourceforge.net/DTD/sodipodi-0.dtd"
   xmlns="http://www.w3.org/2000/svg"
   xmlns:svg="http://www.w3.org/2000/svg">
  <sodipodi:namedview
     id="namedview6"
     pagecolor="#ffffff"
     bordercolor="#666666"
     borderopacity="1.0"
     inkscape:showpageshadow="2"
     inkscape:pageopacity="0.0"
     inkscape:pagecheckerboard="0"
     inkscape:deskcolor="#d1d1d1"
     showgrid="false"
     inkscape:zoom="0.42476915"
     inkscape:cx="379.02941"
     inkscape:cy="563.83568"
     inkscape:window-width="1920"
     inkscape:window-height="996"
     inkscape:window-x="1912"
     inkscape:window-y="-8"
     inkscape:window-maximized="1"
     inkscape:current-layer="svg2" />
  <defs
     id="defs4" />
  <g
     transform="matrix(1.0666667,0,0,1.0666667,0,-482.53335)"
     id="layer1">
    <path
       d="m 300,452.375 c -165.6,0 -300,134.4 -300,300 0,138.74071 94.356921,255.5606 222.34375,289.8125 L 242.15625,968.25 C 182.05368,942.03479 140,882.0991 140,812.375 c 0,-93.83999 76.15999,-170 170,-170 93.83999,0 170,76.15999 170,170 0,69.19215 -41.41207,128.7564 -100.78125,155.28125 C 392.34996,926.81759 400.05741,875.55952 400,812.375 c 0,-49.68 -40.32,-89.99999 -90,-90 -49.68,0 -90,40.32 -90,90 0,42.61428 29.67543,78.32437 69.46875,87.625 -9.32634,123.136 -63.63027,217.8431 -194.46875,137.375 7.73055,8.9685 16.23114,17.1473 25.3125,24.4688 0.10586,0.091 0.20647,0.19 0.3125,0.2812 56.03885,48.186 136.0739,77.9976 228.375,-13.7812 142.3135,-23.417 251,-147.05789 251,-295.9688 0,-165.6 -134.4,-300 -300,-300 z"
       style="opacity:1;fill:#000000;fill-opacity:1;fill-rule:nonzero;stroke:none;stroke-width:120;stroke-linecap:round;stroke-linejoin:round;stroke-miterlimit:4;stroke-dasharray:none;stroke-opacity:1"
       id="path3141" />
  </g>
</svg>
