<svg xmlns="http://www.w3.org/2000/svg" width="570" height="300" viewBox="-95 -50 190 100">
<path d="M-29.590057-40.30412A50 50 0 0 1-9-49.183331V-36.91883A38 38 0 0 0-37.252517-7.5H-18.540496a20 20 0 0 0 0 15H-94.703485zM-10.618337-20.402228A23 23 0 0 0-20.845079 9.72022L-31.720773 14.791639A35 35 0 0 1-14.745728-31.742141zM6 49.638695A50 50 0 0 1-48.885069 10.5H-36.520542A38 38 0 0 0-6 37.523326V19.078784a20 20 0 0 0 12 0zM-19.399143 12.356102A23 23 0 0 0 7.866463 21.61293L11.970705 32.889242A35 35 0 0 1-30.336178 17.456126zM36.520542-10.5A38 38 0 0 0 6-37.523326V-19.078784a20 20 0 0 0-12 0V-49.638695A50 50 0 0 1 48.885069-10.5zM-11.970705-32.889242A35 35 0 0 1 33.387872-10.5H20.463382A23 23 0 0 0-7.866463-21.61293zM29.590057 40.3042A50 50 0 0 1 28.678822 40.957602L20.075175 28.670322L27.200109 22.026214 29.531547 23.914175A38 38 0 0 0 37.252517 7.5H18.540496a20 20 0 0 0 0-15H94.703485zM10.618337 20.402228A23 23 0 0 0 20.463382 10.5H33.387872A35 35 0 0 1 14.745728 31.742141zM26.169697 42.604541a50 50 0 0 1-6.280422 3.269381l-4.113998-11.303116a38 38 0 0 0 3.495141-1.819455zM17.101007 46.984631A50 50 0 0 1 9 49.183331V36.91883a38 38 0 0 0 3.996765-1.21051z" fill="#079807"/>
</svg>