<?xml version="1.0" encoding="UTF-8" standalone="no"?>
<!-- Created with Inkscape (http://www.inkscape.org/) -->

<svg
   version="1.0"
   width="640"
   height="640"
   id="svg2"
   sodipodi:docname="千葉県流山市市章.svg"
   inkscape:version="1.2.1 (9c6d41e410, 2022-07-14)"
   xmlns:inkscape="http://www.inkscape.org/namespaces/inkscape"
   xmlns:sodipodi="http://sodipodi.sourceforge.net/DTD/sodipodi-0.dtd"
   xmlns="http://www.w3.org/2000/svg"
   xmlns:svg="http://www.w3.org/2000/svg">
  <sodipodi:namedview
     id="namedview6"
     pagecolor="#ffffff"
     bordercolor="#666666"
     borderopacity="1.0"
     inkscape:showpageshadow="2"
     inkscape:pageopacity="0.0"
     inkscape:pagecheckerboard="0"
     inkscape:deskcolor="#d1d1d1"
     showgrid="false"
     inkscape:zoom="0.65703125"
     inkscape:cx="506.82521"
     inkscape:cy="163.61474"
     inkscape:window-width="1920"
     inkscape:window-height="996"
     inkscape:window-x="1912"
     inkscape:window-y="-8"
     inkscape:window-maximized="1"
     inkscape:current-layer="svg2" />
  <defs
     id="defs4" />
  <g
     transform="matrix(1.0666667,0,0,1.0666667,0,-482.53335)"
     id="layer1">
    <path
       d="m 300,452.375 c -165.60001,0 -300,134.39999 -300,300 0,165.59999 134.4,300 300,300 165.60001,0 300,-134.40002 300,-300 0,-165.59999 -134.39998,-300 -300,-300 z m -10.53125,60.25 c -28.34584,63.55499 -32.83901,103.94461 -34.46875,169 -0.52349,20.775 1.78982,41.05698 5.6875,60.75 H 185 v -115 h -60 v 145 c 0,16.56 13.44,30 30,30 h 90.28125 c 3.08298,9.93656 6.25654,19.57177 9.3125,28.875 14.22348,43.30039 25.3417,80.55703 25.40625,101.3125 0.0594,19.69521 0.60618,39.69121 1.75,59.125 C 157.78042,982.35733 60.000001,878.71865 60,752.375 60,623.42558 161.87131,518.146 289.46875,512.625 Z M 353,518.28125 c 4.92368,1.11122 9.78961,2.37222 14.59375,3.78125 -0.59584,1.65397 -1.26446,3.28097 -2.0625,4.875 C 332.51899,595.31949 331.73455,614.26108 330,683.5 c -0.44948,17.83808 2.66792,37.72227 7.8125,58.875 h -15.46875 c -4.84796,-20.68611 -7.81299,-40.62772 -7.34375,-59.25 1.74383,-69.60937 3.41843,-93.09276 37.03125,-162.71875 0.35113,-0.70208 0.67616,-1.40458 0.96875,-2.125 z m 28.875,8.4375 C 474.08205,560.21173 539.99999,648.64229 540,752.375 c 0,107.62957 -70.96292,198.8082 -168.625,229.21875 -0.85855,-16.06509 -1.32535,-32.83781 -1.375,-49.3125 -0.13729,-44.1426 -16.02676,-86.84054 -29.90625,-129.09375 -0.0896,-0.27284 -0.19177,-0.53973 -0.28125,-0.8125 H 445 c 16.56,0 30,-13.44 30,-30 v -145 h -60 v 115 h -61.6875 c -5.47385,-21.73548 -8.77002,-41.58307 -8.34375,-58.5 1.72527,-68.86846 1.6508,-83.29951 34.0625,-150.4375 1.09607,-2.19144 2.03312,-4.44217 2.84375,-6.71875 z M 261,802.375 h 15.75 c 2.09868,6.59987 4.23707,13.11792 6.34375,19.53125 14.10881,42.95133 26.81745,82.01132 26.90625,110.5625 0.06,19.90447 0.65648,40.16891 1.84375,59.625 -3.92463,0.19105 -7.87203,0.28125 -11.84375,0.28125 -1.05598,0 -2.10348,-0.0489 -3.15625,-0.0625 C 295.65703,972.72718 295.0601,952.43851 295,932.5 294.92332,907.84667 283.0099,869.71961 268.84375,826.59375 266.25555,818.71451 263.59676,810.62672 261,802.375 Z"
       style="opacity:1;fill:#000000;fill-opacity:1;fill-rule:nonzero;stroke:none;stroke-width:150;stroke-linecap:round;stroke-linejoin:round;stroke-miterlimit:4;stroke-dasharray:none;stroke-opacity:1"
       id="path3141" />
  </g>
</svg>
