<?xml version="1.0" encoding="UTF-8"?><svg width="455" height="424" viewBox="22 38 455 424" xmlns="http://www.w3.org/2000/svg">
 <path xmlns="http://www.w3.org/2000/svg" d="m299.4 244.9c0 15.8 12.9 28.7 28.7 28.7s28.7-12.9 28.7-28.7c0-10.7-5.9-20.1-14.6-25 4.4 1.7 8.7 3.8 12.6 6.5 41.8 28.7 38.8 105.6-6.6 171.7-9.9 14.5-21 27.2-32.8 38h125.6c64.3-105.4 28.3-192.9-32.5-218.3-53.8-22.4-109.1-8.1-109.1 27.1z" fill="#0088cb"/>
 <path xmlns="http://www.w3.org/2000/svg" d="m340.8 342.2c-16.2 7.4-31.6 8.8-44.7 2.9-41-18.6-43.2-102.3-4.8-187 11.6-25.6 25.6-48.3 40.6-67.1l-87.2-51c-120.6 132.8-73.8 307.2 8.9 325.6 29.7 6.6 60.4-1.5 87.8-22.3l-0.4-1" fill="#e44826"/>
 <path xmlns="http://www.w3.org/2000/svg" d="m339.5 358.2c-32.2 31.1-75.3 46.8-118.6 38.3-75.9-14.7-126-97.4-103.4-198.2l-89 59.5c-35.2 208.3 203.7 276.5 309.3 105.2 0.9-1.4 1.6-2.8 2.4-4.2l-0.7-0.6" fill="#30b53e"/>
</svg>