<?xml version="1.0" encoding="UTF-8"?><svg width="454" height="424" viewBox="22 38 454 424" xmlns="http://www.w3.org/2000/svg">
 <path xmlns="http://www.w3.org/2000/svg" fill="#000000" d="m234.1 40.9c-115.5 0-209.1 93.6-209.1 209.1s93.6 209.1 209.1 209.1 209.1-93.6 209.1-209.1c-0.1-23.9-4.4-47.6-10.4-65.1-6-17.5-8.1-30.5-8.2-43.7h-128.2c39 22.3 63 63.8 63.1 108.7 0 69.3-56.2 125.5-125.5 125.5-69.3 0-125.5-56.2-125.5-125.5 0-69.3 56.2-125.5 125.5-125.5h191.8c4.6-33.3 22.3-63.4 49.2-83.6zm54.2 147.2c-3.1 2.8-7.6 6-12.4 8.8-25.9 14.9-57.8 14.9-83.6 0-4.8-2.8-9.3-6-12.5-8.8-3.3-2.8-6.4-2.9-8.4-0.9s-2 5.4 0.8 8.5c2.9 3.2 6.1 7.6 8.9 12.4 14.9 25.9 14.9 57.8 0 83.6-2.8 4.8-6 9.3-8.9 12.4-2.9 3.1-2.9 6.4-0.8 8.5s5.4 2 8.5-0.8 7.6-6.1 12.4-8.9c25.9-14.9 57.8-14.9 83.6 0 4.8 2.8 9.2 6 12.4 8.9 3.2 2.9 6.5 2.9 8.5 0.8s2-5.4-0.8-8.5c-2.9-3.2-6.1-7.6-8.9-12.4-14.9-25.9-14.9-57.8 0-83.6 2.8-4.8 6-9.3 8.9-12.4 2.9-3.1 3.3-6.4 0.8-8.5s-6.4-1-8.5 0.9zm-54.2 45.1c9.2 0 16.7 7.5 16.7 16.7 0 9.2-7.5 16.7-16.7 16.7-9.2 0-16.7-7.5-16.7-16.7 0-9.2 7.5-16.7 16.7-16.7z"/>
</svg>