<?xml version="1.0" encoding="UTF-8"?><svg width="452" height="451" viewBox="24 24 452 451" xmlns="http://www.w3.org/2000/svg" version="1.1">
 <path xmlns="http://www.w3.org/2000/svg" d="m231.3 100a151.2 151.2 0 0 0-37.5 9.7v121.6h-34.4a71.9 71.9 0 1 0 71.9 71.9v-34.4h37.5v131.3a151.2 151.2 0 0 0 37.5-9.7v-121.6h34.4a71.9 71.9 0 1 0 0-143.8 71.9 71.9 0 0 0-71.7 71.9v34.4h-37.5zm75 131.3v-34.4a34.4 34.4 0 1 1 34.4 34.4zm-112.5 37.5v34.4a34.4 34.4 0 1 1-34.4-34.4zm37.5 167.8a187.5 187.5 0 1 1 37.5 0v37.7a225 225 0 1 0-37.5 0z" fill="#10a255"/>
</svg>