<?xml version="1.0" encoding="UTF-8" standalone="no"?>
<!-- Created with Inkscape (http://www.inkscape.org/) -->
<svg
   xmlns:svg="http://www.w3.org/2000/svg"
   xmlns="http://www.w3.org/2000/svg"
   version="1.0"
   width="640"
   height="640"
   id="svg2">
  <defs
     id="defs4" />
  <g
     id="layer1">
    <path
       d="M 320,20 C 154.4,20 20,154.4 20,320 C 20,485.6 154.40001,619.99999 320,620 C 485.6,620 620,485.59999 620,320 C 620,193.54435 541.63269,85.272435 430.84375,41.15625 C 418.92305,54.744152 406.75207,68.121595 394.3125,81.25 C 496.05908,112.91846 570,207.875 570,320 C 570,356.05016 562.34697,390.31285 548.59375,421.28125 C 505.52053,389.71297 448.92531,364.48283 385.96875,353.5 C 391.73694,286.75245 374.14253,210.17228 327.5625,138.875 C 361.38633,107.26122 393.39783,73.835444 425,40 L 245,145 L 267.6875,175.28125 C 309.2708,235.81717 327.75511,295.44327 330.65625,347.75 C 252.97066,345.1584 169.31719,365.41719 91.46875,421.4375 C 77.672472,390.42878 70,356.10988 70,320 C 70.000003,182 182,70 320,70 C 332.59321,70 344.96767,70.949993 357.0625,72.75 C 362.57512,69.535298 368.08113,66.308453 373.59375,63.09375 C 389.13996,55.203042 403.31831,44.39793 419.09375,36.8125 C 388.06586,25.946115 354.72263,20 320,20 z M 319.90625,399.75 C 322.70103,399.7479 325.48504,399.80695 328.28125,399.90625 C 325.35205,418.98345 320.25161,436.43127 313.46875,451.8125 C 294.46296,494.91121 200.61526,541.45517 138.09375,483 C 138.64773,481.82273 139.2686,480.79173 140,480 C 187.63837,428.43206 253.39517,399.79994 319.90625,399.75 z M 375.84375,406.625 C 418.98607,417.47804 460.35175,441.39246 495,480 C 497.32705,482.59296 498.64053,488.03175 499.375,494.0625 C 453.93173,540.88492 390.35264,570 320,570 C 273.91327,570 230.74016,557.49835 193.65625,535.71875 C 285.42356,544.22928 350.85796,488.46491 375.84375,406.625 z "
       style="opacity:1;fill:#000000;fill-opacity:1;fill-rule:nonzero;stroke:none;stroke-width:100;stroke-linecap:square;stroke-linejoin:miter;stroke-miterlimit:4;stroke-dasharray:none;stroke-opacity:1"
       id="path2170" />
  </g>
</svg>
