<?xml version="1.0" encoding="UTF-8" standalone="no"?>
<!-- Created with Inkscape (http://www.inkscape.org/) -->
<svg
   xmlns:svg="http://www.w3.org/2000/svg"
   xmlns="http://www.w3.org/2000/svg"
   version="1.0"
   width="1000"
   height="1000"
   id="svg2">
  <defs
     id="defs4" />
  <g
     id="layer1">
    <path
       d="M 498.21875,20.012817 C 480.51015,20.578567 479.62363,30.073467 460,30.012817 C 426.88,30.012817 400,56.892807 400,90.012817 C 400,115.2705 415.63867,136.88612 437.75,145.73157 C 443.19722,158.38618 447.00133,179.8285 400,180.01282 C 388.96,180.01282 380,188.97284 380,200.01282 L 380,225.01282 C 310.82859,255.26261 255.24836,310.84065 225,380.01282 L 200,380.01282 C 188.96,380.01282 180,388.97283 180,400.01282 C 179.89921,446.66888 158.37052,443.04162 145.6875,437.70032 C 136.82575,415.62324 115.23301,400.01282 90,400.01282 C 56.88,400.01282 30,426.89282 30,460.01282 C 29.96538,479.78697 20.0287,480.57487 20,500.01282 C 19.9991,500.62024 19.98175,501.22282 20,501.79407 C 20.56575,519.50267 30.06065,520.38919 30,540.01282 C 30,573.13282 56.87999,600.01282 90,600.01282 C 115.25768,600.01282 136.8733,584.37415 145.71875,562.26282 C 158.37336,556.8156 179.81568,553.01149 180,600.01282 C 180,611.05282 188.96002,620.01282 200,620.01282 L 225.03125,620.01282 C 255.28332,689.16752 310.84116,744.73722 380,774.98162 L 380,799.98162 C 380,811.02152 388.96,819.98162 400,819.98162 C 447.00133,820.16582 443.19722,841.60822 437.75,854.26282 C 415.63867,863.10832 400,884.72392 400,909.98162 C 400,943.10152 426.88,969.98162 460,969.98162 C 479.62363,969.92092 480.51015,979.41582 498.21875,979.98162 C 498.79,979.99982 499.39258,979.98252 500,979.98162 C 519.43795,979.95282 520.22585,970.01622 540,969.98162 C 573.12,969.98162 600,943.10162 600,909.98162 C 600,884.74862 584.38958,863.15582 562.3125,854.29412 C 556.9712,841.61102 553.34394,820.08242 600,819.98162 C 611.03999,819.98162 620,811.02162 620,799.98162 L 620,774.98162 C 689.15883,744.73732 744.71669,689.16752 774.96875,620.01282 L 800,620.01282 C 811.0399,620.01282 819.99998,611.05282 820,600.01282 C 820.1843,553.01149 841.62664,556.8156 854.28125,562.26282 C 863.12675,584.37415 884.74228,600.01282 910,600.01282 C 943.12,600.01282 969.99998,573.13282 970,540.01282 C 969.9393,520.38919 979.43418,519.50267 980,501.79407 C 980.0182,501.22282 980.00088,500.62024 980,500.01282 C 979.9713,480.57487 970.03458,479.78697 970,460.01282 C 970,426.89282 943.11998,400.01282 910,400.01282 C 884.767,400.01282 863.17418,415.62324 854.3125,437.70032 C 841.6294,443.04162 820.10078,446.66888 820,400.01282 C 820,388.97283 811.03998,380.01282 800,380.01282 L 775,380.01282 C 744.75164,310.84064 689.17141,255.26262 620,225.01282 L 620,200.01282 C 620,188.97282 611.03999,180.01282 600,180.01282 C 553.34394,179.91203 556.9712,158.38334 562.3125,145.70032 C 584.38958,136.83857 600,115.24583 600,90.012817 C 600,56.892817 573.12,30.012817 540,30.012817 C 520.22585,29.978197 519.43795,20.041517 500,20.012817 C 499.39258,20.011917 498.79,19.994567 498.21875,20.012817 z "
       style="opacity:1;fill:#000000;fill-opacity:1;fill-rule:nonzero;stroke:none;stroke-width:20;stroke-linecap:round;stroke-linejoin:round;stroke-miterlimit:4;stroke-dasharray:none;stroke-opacity:1"
       id="path2170" />
    <path
       d="M 500,220.01282 C 493.27401,220.01282 486.60776,220.26441 480,220.73157 L 480,240.76282 C 352.41444,250.48066 250.50443,352.42808 240.78125,480.01282 L 402.03125,480.01282 C 409.99089,440.84651 440.83221,409.96961 480,402.01282 L 480,422.54407 C 485.75822,421.05833 491.75526,420.16962 497.9375,420.01282 C 498.62333,419.99542 499.31,420.01282 500,420.01282 C 506.9,420.01282 513.61123,420.89905 520,422.54407 L 520,402.01282 C 559.16779,409.96963 590.00911,440.84653 597.96875,480.01282 L 759.21875,480.01282 C 749.49557,352.4281 647.58555,250.48069 520,240.76282 L 520,220.73157 C 513.39224,220.26441 506.72599,220.01282 500,220.01282 z M 480,301.01282 L 480,341.26282 C 429.29396,347.5941 385.94806,377.67002 361.4375,420.01282 L 316.6875,420.01282 C 345.02816,355.22166 406.70438,308.30231 480,301.01282 z M 520,301.01282 C 593.29563,308.30232 654.97184,355.22166 683.3125,420.01282 L 638.5625,420.01282 C 614.05194,377.67002 570.70603,347.59411 520,341.26282 L 520,301.01282 z M 500,440.01282 C 466.88001,440.01282 440.00001,466.89282 440,500.01282 C 440,533.13281 466.88001,560.0128 500,560.01282 C 533.11999,560.01282 559.99999,533.1328 560,500.01282 C 560,466.89283 533.12,440.01282 500,440.01282 z M 240.78125,520.01282 C 246.93434,600.72485 289.98139,671.15392 353.09375,714.48162 L 343.0625,731.85662 C 354.06232,739.32052 365.61581,746.02382 377.65625,751.88782 L 387.6875,734.54412 C 421.68953,750.86812 459.78374,760.01282 500,760.01282 C 540.21625,760.01282 578.31047,750.86772 612.3125,734.54412 L 622.34375,751.88782 C 634.38419,746.02382 645.93768,739.32052 656.9375,731.85662 L 646.90625,714.48162 C 710.01862,671.15422 753.06568,600.72486 759.21875,520.01282 L 597.96875,520.01282 C 590.00911,559.1791 559.16779,590.05602 520,598.01282 L 520,577.48157 C 513.61123,579.12659 506.9,580.01282 500,580.01282 C 493.1,580.01282 486.38877,579.12659 480,577.48157 L 480,598.01282 C 440.83221,590.05602 409.99089,559.17912 402.03125,520.01282 L 240.78125,520.01282 z M 316.6875,580.01282 L 361.4375,580.01282 C 385.94714,622.354 429.29853,652.43032 480,658.76282 L 480,699.01282 C 406.7016,691.72522 345.02978,644.80762 316.6875,580.01282 z M 638.5625,580.01282 L 683.3125,580.01282 C 654.97022,644.80762 593.2984,691.72522 520,699.01282 L 520,658.76282 C 570.70147,652.43032 614.05286,622.354 638.5625,580.01282 z "
       style="opacity:1;fill:#ffffff;fill-opacity:1;fill-rule:nonzero;stroke:none;stroke-width:20;stroke-linecap:round;stroke-linejoin:round;stroke-miterlimit:4;stroke-dasharray:none;stroke-opacity:1"
       id="path4156" />
  </g>
</svg>
