<?xml version="1.0" encoding="UTF-8"?>
<!-- Created with Inkscape (http://www.inkscape.org/) -->
<svg width="210" height="185" version="1.1" viewBox="0 0 210 185" xmlns="http://www.w3.org/2000/svg" xmlns:cc="http://creativecommons.org/ns#" xmlns:dc="http://purl.org/dc/elements/1.1/" xmlns:rdf="http://www.w3.org/1999/02/22-rdf-syntax-ns#">
 <metadata>
  <rdf:RDF>
   <cc:Work rdf:about="">
    <dc:format>image/svg+xml</dc:format>
    <dc:type rdf:resource="http://purl.org/dc/dcmitype/StillImage"/>
    <dc:title/>
   </cc:Work>
  </rdf:RDF>
 </metadata>
 <g transform="translate(0 -937.52)">
  <path d="m104.81 1021.2a260 260 0 0 0-99.479 20.01 337.5 337.5 0 0 0 44.846 77.863 260 260 0 0 0 52.447-53.93 263.5 263.5 0 0 1-8.918-13.352 245 245 0 0 1-40.543 45.701 322.5 322.5 0 0 1-27.602-47.754 245 245 0 0 1 74.131-13.42 241.5 241.5 0 0 0 8.1856-14.965 260 260 0 0 0-3.0684-0.1542z"/>
  <path d="m92.279 1042.8a260 260 0 0 0 67.068 76.146 337.5 337.5 0 0 0 45.009-77.769 260 260 0 0 0-72.928-18.456 263.5 263.5 0 0 1-7.1038 14.399 245 245 0 0 1 59.85 12.261 322.5 322.5 0 0 1-27.555 47.781 245 245 0 0 1-48.687-57.489 241.5 241.5 0 0 0-17.053 0.3935 260 260 0 0 0 1.4006 2.7344z"/>
  <path d="m117.14 1043.2a260 260 0 0 0 32.41-96.156 337.5 337.5 0 0 0-89.854-0.094 260 260 0 0 0 20.481 72.386 263.5 263.5 0 0 1 16.022-1.0475 245 245 0 0 1-19.307-57.962 322.5 322.5 0 0 1 55.157-0.027 245 245 0 0 1-25.443 70.909 241.5 241.5 0 0 0 8.8672 14.571 260 260 0 0 0 1.6678-2.5802z"/>
 </g>
</svg>
