<?xml version="1.0" encoding="UTF-8"?><!-- Created with Inkscape (http://www.inkscape.org/) --><svg width="400" height="455" viewBox="50 23 400 455" xmlns:dc="http://purl.org/dc/elements/1.1/" xmlns:cc="http://web.resource.org/cc/" xmlns:rdf="http://www.w3.org/1999/02/22-rdf-syntax-ns#" xmlns:svg="http://www.w3.org/2000/svg" xmlns="http://www.w3.org/2000/svg" xmlns:sodipodi="http://sodipodi.sourceforge.net/DTD/sodipodi-0.dtd" xmlns:inkscape="http://www.inkscape.org/namespaces/inkscape" id="svg2" sodipodi:version="0.32" inkscape:version="0.46dev+devel" version="1.0" sodipodi:docname="Koutou.svg" inkscape:output_extension="org.inkscape.output.svg.inkscape">
  <defs xmlns="http://www.w3.org/2000/svg" id="defs4"/>
  <sodipodi:namedview xmlns:sodipodi="http://sodipodi.sourceforge.net/DTD/sodipodi-0.dtd" xmlns:inkscape="http://www.inkscape.org/namespaces/inkscape" id="base" pagecolor="#ffffff" bordercolor="#666666" borderopacity="1.0" gridtolerance="10000" guidetolerance="10" objecttolerance="10" inkscape:pageopacity="0.0" inkscape:pageshadow="2" inkscape:zoom="1.032" inkscape:cx="250" inkscape:cy="250" inkscape:document-units="px" inkscape:current-layer="layer1" width="500px" height="500px" inkscape:window-width="1024" inkscape:window-height="712" inkscape:window-x="-4" inkscape:window-y="-4" showguides="true" inkscape:guide-bbox="true"/>
  <metadata xmlns="http://www.w3.org/2000/svg" xmlns:rdf="http://www.w3.org/1999/02/22-rdf-syntax-ns#" xmlns:cc="http://web.resource.org/cc/" xmlns:dc="http://purl.org/dc/elements/1.1/" id="metadata7">
    <rdf:RDF>
      <cc:Work rdf:about="">
        <dc:format>image/svg+xml</dc:format>
        <dc:type rdf:resource="http://purl.org/dc/dcmitype/StillImage"/>
      </cc:Work>
    </rdf:RDF>
  </metadata>
  <g xmlns="http://www.w3.org/2000/svg" xmlns:inkscape="http://www.inkscape.org/namespaces/inkscape" inkscape:label="Layer 1" inkscape:groupmode="layer" id="layer1">
    <path style="opacity:1;fill:#000000;fill-opacity:1;stroke:none;stroke-width:5;stroke-linecap:round;stroke-linejoin:round;stroke-miterlimit:4;stroke-dasharray:none;stroke-opacity:1" d="M 249.97669,25 L 240.37146,32.646876 L 240.37146,55.774013 C 175.85664,58.909307 119.60636,93.546044 86.59465,144.59901 L 66.54492,133.03544 L 55.12123,137.51166 L 56.93969,149.63475 L 76.9428,161.19832 C 63.25048,187.81555 55.54088,217.99762 55.54088,249.97669 C 55.54088,281.97708 63.28002,312.16565 76.98943,338.80168 L 56.98632,350.36525 L 55.16786,362.53497 L 66.59154,367.01119 L 86.64128,355.44762 C 119.66858,406.47822 175.92052,441.10517 240.41809,444.22599 L 240.41809,467.35312 L 250.02331,475 L 259.62853,467.35312 L 259.62853,444.22599 C 324.11332,441.07529 380.3859,406.43883 413.40535,355.40099 L 433.45508,366.96456 L 444.87877,362.48834 L 443.0603,350.31862 L 423.01057,338.75505 C 436.70792,312.1326 444.45912,281.9548 444.45912,249.97669 C 444.45912,217.99762 436.7087,187.81555 423.01057,161.19832 L 443.01368,149.63475 L 444.83214,137.46503 L 433.40845,132.98881 L 413.40535,144.55238 C 380.37797,93.515397 324.0861,58.90871 259.58191,55.774013 L 259.58191,32.646876 L 249.97669,25 z M 249.97669,71.440783 C 348.54028,71.440783 428.55922,151.4131 428.55922,249.97669 C 428.55922,348.54028 348.54028,428.55922 249.97669,428.55922 C 151.41309,428.55922 71.44078,348.54028 71.44078,249.97669 C 71.44078,151.41308 151.41309,71.440783 249.97669,71.440783 z M 249.97669,78.621386 C 155.36342,78.621386 78.57476,155.36342 78.57476,249.97669 C 78.57476,344.58995 155.36343,421.37863 249.97669,421.37861 C 344.58995,421.37861 421.3786,344.58995 421.37861,249.97669 C 421.37861,155.36342 344.58997,78.621371 249.97669,78.621386 z M 249.97669,82.677961 C 342.33262,82.677976 417.32204,157.62075 417.32204,249.97669 C 417.32205,342.33263 342.33262,417.32204 249.97669,417.32204 C 157.62075,417.32205 82.67796,342.33263 82.67796,249.97669 C 82.67796,157.62075 157.62075,82.677961 249.97669,82.677961 z M 200.64501,100.62947 L 200.64501,115.45695 L 240.55797,115.45695 L 240.55797,100.62947 L 200.64501,100.62947 z M 254.31302,100.62947 L 254.31302,115.45695 L 267.36867,115.45695 L 267.36867,148.70221 L 254.31302,148.70221 L 254.31302,163.52969 L 299.35499,163.52969 L 299.35499,148.70221 L 280.14454,148.70221 L 280.14454,115.45695 L 299.35499,115.45695 L 299.35499,100.62947 L 254.31302,100.62947 z M 200.64501,124.64252 L 200.64501,139.47 L 240.55797,139.47 L 240.55797,124.64252 L 200.64501,124.64252 z M 200.64501,148.70221 L 200.64501,163.52969 L 240.55797,163.52969 L 240.55797,148.70221 L 200.64501,148.70221 z M 242.05005,173.74106 L 242.05005,177.33136 L 200.64501,177.33136 L 200.64501,182.41374 L 242.05005,182.41374 L 242.05005,188.05564 L 213.98042,188.05564 L 200.64501,188.05564 L 200.22536,188.05564 L 198.08051,189.82748 L 198.08051,195.70252 L 198.08051,207.9655 L 198.08051,213.88716 L 200.22536,215.659 L 213.98042,215.659 L 242.05005,215.659 L 242.05005,218.7364 L 229.27417,218.7364 L 211.36929,218.7364 L 198.08051,229.64719 L 198.08051,238.97265 L 198.08051,245.82686 L 218.08362,245.82686 L 218.08362,238.97265 L 218.08362,228.06186 L 218.08362,225.35748 L 229.27417,225.35748 L 242.05005,225.35748 L 242.05005,246.33976 L 257.94995,246.33976 L 257.94995,225.35748 L 270.72583,225.35748 L 281.91638,225.35748 L 281.91638,228.06186 L 281.91638,238.97265 L 281.91638,245.82686 L 301.91949,245.82686 L 301.91949,238.97265 L 301.91949,229.64719 L 288.63071,218.7364 L 270.72583,218.7364 L 257.94995,218.7364 L 257.94995,215.659 L 299.35499,215.659 L 299.77463,215.659 L 301.91949,213.88716 L 301.91949,207.9655 L 301.91949,195.70252 L 301.91949,189.82748 L 299.77463,188.05564 L 299.35499,188.05564 L 286.01958,188.05564 L 257.94995,188.05564 L 257.94995,182.41374 L 299.35499,182.41374 L 299.35499,177.33136 L 257.94995,177.33136 L 257.94995,173.74106 L 242.05005,173.74106 z M 213.98042,193.13802 L 242.05005,193.13802 L 242.05005,199.29282 L 213.98042,199.29282 L 213.98042,195.70252 L 213.98042,193.13802 z M 257.94995,193.13802 L 286.01958,193.13802 L 286.01958,195.70252 L 286.01958,199.29282 L 257.94995,199.29282 L 257.94995,193.13802 z M 213.98042,204.42182 L 242.05005,204.42182 L 242.05005,210.53 L 213.98042,210.53 L 213.98042,207.9655 L 213.98042,204.42182 z M 257.94995,204.42182 L 286.01958,204.42182 L 286.01958,207.9655 L 286.01958,210.53 L 257.94995,210.53 L 257.94995,204.42182 z" id="path2148"/>
  </g>
</svg>