<?xml version="1.0" encoding="UTF-8" standalone="no"?>
<!-- Created with Inkscape (http://www.inkscape.org/) -->
<svg
   xmlns:svg="http://www.w3.org/2000/svg"
   xmlns="http://www.w3.org/2000/svg"
   version="1.0"
   width="1500"
   height="1500"
   id="svg2">
  <defs
     id="defs4" />
  <g
     id="layer1">
    <path
       d="M 750,30 C 352.55999,30 30,352.56 30,750 C 30,1147.44 352.56002,1470 750,1470 C 1147.44,1470 1470,1147.44 1470,750 C 1470,352.56 1147.44,30.00001 750,30 z M 750,150 C 1081.2,149.99999 1350,418.8 1350,750 C 1350,1081.2 1081.2,1350 750,1350 C 418.8,1350 150,1081.2 150,750 C 150,418.80001 418.8,150 750,150 z M 550,290 L 550,410 L 740.9375,410 L 621.28125,614.75 L 541.5,572.875 C 443.75259,521.55645 322.78733,559.22129 271.46875,656.96875 C 220.15021,754.7162 257.81503,875.7127 355.5625,927.03125 L 355.78125,926.625 C 450.00616,976.74543 567.95347,943.87712 622.28125,850.90625 L 667.0625,774.3125 L 772.25,829.53125 L 549.9375,1209.9688 L 650,1209.9688 L 688.9375,1209.9688 L 950,1209.9688 L 950,1089.9688 L 759.0625,1089.9688 L 878.6875,885.21875 L 958.5,927.125 L 958.5,927.09375 C 1056.2475,978.41233 1177.2127,940.74746 1228.5313,843 C 1279.8497,745.25256 1242.185,624.25605 1144.4375,572.9375 L 1144.2188,573.34375 C 1114.896,557.74545 1083.2855,550.18131 1052,549.96875 C 982.74917,549.49824 915.14207,585.02014 877.71875,649.0625 L 832.96875,725.6875 L 727.75,670.4375 L 950.0625,290 L 850,290 L 811.0625,290 L 550,290 z M 449.96875,669.9375 C 461.42006,670.12676 473.0036,672.78035 483.90625,678.15625 C 484.52152,678.45964 485.10784,678.80426 485.71875,679.125 L 485.71875,679.09375 L 560.6875,718.46875 L 518.65625,790.375 C 496.37631,828.50253 447.37754,841.37368 409.25,819.09375 C 371.71819,797.1619 358.64686,749.29551 379.5,711.4375 C 379.831,710.83657 380.18315,710.25199 380.53125,709.65625 L 379.71875,709.1875 C 394.75241,683.75702 421.99027,669.47508 449.96875,669.9375 z M 1049.0938,669.96875 C 1063.2424,669.7222 1077.6436,673.21627 1090.75,680.875 C 1128.2818,702.80686 1141.3531,750.67324 1120.5,788.53125 C 1120.169,789.13219 1119.8168,789.71676 1119.4688,790.3125 L 1120.2813,790.78125 C 1099.0944,826.62019 1053.6344,840.32311 1016.0938,821.8125 C 1015.4785,821.5091 1014.8922,821.16449 1014.2813,820.84375 L 1014.2813,820.875 L 939.3125,781.5 L 981.34375,709.59375 C 995.965,684.57257 1022.0827,670.43944 1049.0938,669.96875 z "
       style="opacity:1;fill:#000000;fill-opacity:1;fill-rule:nonzero;stroke:none;stroke-width:20;stroke-linecap:round;stroke-linejoin:round;stroke-miterlimit:4;stroke-dasharray:none;stroke-opacity:1"
       id="path2178" />
  </g>
</svg>
