<?xml version="1.0" encoding="UTF-8" standalone="no"?>
<!-- Created with Inkscape (http://www.inkscape.org/) -->

<svg
   xmlns:svg="http://www.w3.org/2000/svg"
   xmlns="http://www.w3.org/2000/svg"
   version="1.0"
   width="420"
   height="440"
   id="svg2">
  <defs
     id="defs5" />
  <path
     d="m 210.0625,12.312537 -30,18 0,15.46875 C 83.8389,60.265867 10,143.35284 10,243.59379 c 0,82.88406 50.49526,154.05813 122.375,184.40623 l 47.21875,-47.21873 c 9.81085,2.1718 20.00759,3.3125 30.46875,3.3125 10.46116,0 20.6579,-1.1407 30.46875,-3.3125 L 287.75,428.00002 c 71.87973,-30.3481 122.37498,-101.52216 122.375,-184.40623 0,-100.24095 -73.83891,-183.327923 -170.0625,-197.812503 l 0,-15.46875 -30,-18 z m -30,94.000003 0,189 -57.875,57.875 c -32.06955,-25.7589 -52.625,-65.29057 -52.625,-109.59375 -1e-5,-67.26089 47.34207,-123.52723 110.5,-137.28125 z m 60,0 c 63.15793,13.75402 110.5,70.02035 110.5,137.28125 0,44.30318 -20.55545,83.83486 -52.625,109.59375 l -57.875,-57.875 0,-189 z"
     id="path2388"
     style="fill:#000000;fill-opacity:1;stroke:none" />
</svg>
