<svg xmlns:svg="http://www.w3.org/2000/svg" xmlns="http://www.w3.org/2000/svg" version="1" width="468.49" height="468.49"><defs><linearGradient><stop offset="0" style="stop-color:#000000;stop-opacity:1"/></linearGradient></defs><path d="m234.25 20c-24.1 0-43.96 18.5-46.14 42.04-8.23-11.62-21.08-18.46-34.58-19.42-8.91-0.63-18.09 1.29-26.39 6.08-20.87 12.05-28.82 37.99-18.96 59.46-7.24-3.33-14.98-4.63-22.53-4.1-14.85 1.06-28.94 9.22-36.93 23.05-12.05 20.87-5.96 47.31 13.32 60.97-23.53 2.19-42.02 22.05-42.02 46.15 0 24.09 18.49 43.95 42.02 46.14-19.28 13.67-25.37 40.11-13.32 60.98 12.05 20.87 37.98 28.81 59.46 18.95-9.87 21.48-1.91 47.42 18.96 59.47 20.87 12.05 47.31 5.96 60.97-13.32 2.19 23.53 22.05 42.02 46.15 42.02 24.09 0 43.95-18.49 46.15-42.02 13.67 19.28 40.11 25.37 60.98 13.32 20.87-12.05 28.81-37.99 18.95-59.46 21.48 9.87 47.42 1.92 59.47-18.95 12.05-20.87 5.96-47.31-13.32-60.97 23.53-2.2 42.02-22.05 42.02-46.15 0-24.09-18.49-43.95-42.02-46.14 19.28-13.67 25.37-40.11 13.32-60.98-7.99-13.83-22.08-21.99-36.93-23.05l-0.01 0c-7.55-0.54-15.29 0.77-22.53 4.1 9.87-21.48 1.91-47.42-18.95-59.47-8.3-4.79-17.48-6.72-26.39-6.08-13.49 0.96-26.35 7.8-34.58 19.42-2.18-23.54-22.04-42.04-46.14-42.04l0 0 0 0z" fill="#000"/><path d="m234.25 25.75c-22.45 0-40.61 18.16-40.61 40.61l0 0.03 0 0.03c-0.06 2.89 0.38 5.83 1.01 8.83 0.12 0.41 0.24 0.81 0.35 1.23l24.91 93.1c4.65-1.02 9.47-1.57 14.42-1.57 4.9 0 9.67 0.54 14.27 1.54l24.92-93.13 0.02-0.05c0.12-0.39 0.26-0.78 0.38-1.17 0.63-2.82 0.86-5.78 0.94-8.85-0.01-22.43-18.17-40.58-40.61-40.58zm-83.07 22.49c-7.18-0.16-14.49 1.59-21.17 5.45-19.44 11.22-26.09 36.03-14.86 55.47l0.01 0.02 0.01 0.03c1.39 2.53 3.24 4.85 5.28 7.14 0.31 0.29 0.62 0.58 0.92 0.89l68.03 68.07c7.09-6.42 15.57-11.34 24.92-14.27l-24.99-93.12-0.01-0.06c-0.09-0.4-0.17-0.81-0.26-1.22-0.86-2.75-2.14-5.43-3.6-8.11-7.37-12.75-20.58-19.99-34.29-20.29zm166.14 0c-13.71 0.3-26.93 7.55-34.29 20.31l-0.01 0.03-0.01 0.02c-1.49 2.47-2.58 5.23-3.54 8.14-0.1 0.42-0.2 0.83-0.31 1.25l-24.95 93.01c9.38 2.91 17.87 7.83 24.98 14.24l68-68.05 0.04-0.04c0.31-0.28 0.63-0.56 0.94-0.84 1.95-2.12 3.62-4.56 5.21-7.17 11.21-19.44 4.56-44.23-14.87-55.45-6.68-3.86-14-5.6-21.18-5.45zM87.96 109.69c-13.71 0.31-26.91 7.55-34.28 20.31-11.22 19.44-4.58 44.25 14.86 55.47l0.03 0.01 0.02 0.02c2.47 1.49 5.23 2.58 8.14 3.54 0.42 0.1 0.83 0.2 1.25 0.31l92.65 24.86c3.05-9.35 8.1-17.79 14.65-24.83l-68.1-68.05-0.04-0.04c-0.28-0.3-0.55-0.62-0.83-0.93-2.12-1.95-4.57-3.63-7.18-5.22-6.68-3.85-14-5.6-21.18-5.44zm292.55 0c-7.18-0.16-14.5 1.59-21.18 5.45l-0.02 0.01-0.02 0.01c-2.52 1.39-4.85 3.23-7.13 5.28-0.29 0.31-0.59 0.62-0.9 0.93l-67.97 67.92c6.58 7.04 11.65 15.5 14.72 24.88l92.56-24.84 0.06-0.01c0.4-0.09 0.81-0.17 1.22-0.26 2.75-0.86 5.43-2.14 8.11-3.6 19.43-11.23 26.07-36.02 14.85-55.46-7.37-12.76-20.58-20.01-34.29-20.31zm-146.19 60.3c-35.91 0-65 29.09-65 65 0 28.99 18.96 53.53 45.16 61.91l5.55 1.49 0 0.01c4.6 1.03 9.37 1.59 14.29 1.59 4.85 0 9.57-0.55 14.12-1.55l-0.01-0.05 0.03-0.01 5.55-1.49 0.01 0.05c26.27-8.34 45.29-32.91 45.29-61.95 0-35.91-29.09-65-65-65zM66.33 193.63c-22.43 0.02-40.58 18.17-40.58 40.61 0 22.45 18.16 40.61 40.61 40.61l0.03 0 0.03 0c2.88 0.06 5.81-0.38 8.81-1 0.41-0.12 0.82-0.25 1.24-0.36L168.76 248.8c-0.93-4.45-1.43-9.07-1.43-13.8 0-5.24 0.62-10.33 1.76-15.22l-92.68-24.8-0.05-0.02c-0.39-0.12-0.79-0.26-1.19-0.39-2.82-0.63-5.78-0.86-8.83-0.94zm335.74 0c-2.89-0.06-5.83 0.38-8.83 1.01-0.41 0.12-0.81 0.24-1.23 0.35l-92.46 24.74c1.14 4.9 1.77 10.01 1.77 15.26 0 4.75-0.5 9.38-1.44 13.85l92.2 24.67 0.06 0.02c0.39 0.12 0.78 0.26 1.17 0.38 2.82 0.63 5.78 0.86 8.85 0.94 22.43-0.02 40.58-18.17 40.58-40.61 0-22.45-18.16-40.61-40.61-40.61l-0.03 0-0.03 0zm-231.88 60.76-92.27 24.76-0.06 0.01c-0.4 0.09-0.81 0.17-1.22 0.26-2.75 0.86-5.43 2.14-8.11 3.6-19.43 11.23-26.07 36.03-14.85 55.46 11.22 19.44 36.03 26.09 55.47 14.86l0.02-0.02 0.03-0.01c2.52-1.39 4.84-3.23 7.12-5.27 0.29-0.31 0.59-0.62 0.9-0.93l67.34-67.29c-6.52-7.23-11.48-15.88-14.37-25.44zm128.26 0.05c-2.9 9.58-7.89 18.25-14.44 25.49l67.29 67.24 0.04 0.04c0.28 0.3 0.56 0.63 0.84 0.94 2.12 1.95 4.57 3.63 7.17 5.22 19.44 11.21 44.23 4.56 55.45-14.87 11.22-19.44 4.58-44.25-14.86-55.47l-0.02-0.01-0.02-0.01c-2.47-1.49-5.23-2.58-8.14-3.54-0.42-0.1-0.83-0.2-1.25-0.31l-92.05-24.7zm-109.83 29.51-67.3 67.35-0.04 0.04c-0.3 0.28-0.62 0.55-0.93 0.83-1.95 2.12-3.63 4.57-5.22 7.18-11.21 19.44-4.56 44.23 14.87 55.45 19.44 11.22 44.25 4.58 55.47-14.86l0.01-0.03 0.02-0.02c1.49-2.47 2.58-5.23 3.54-8.14 0.1-0.42 0.2-0.83 0.31-1.25l24.6-91.68c-9.55-3.05-18.17-8.19-25.33-14.87zm91.33 0.09c-7.18 6.68-15.82 11.81-25.39 14.84l24.61 91.69 0.01 0.05c0.09 0.4 0.17 0.81 0.26 1.22 0.86 2.75 2.14 5.43 3.6 8.11 11.23 19.43 36.03 26.07 55.46 14.85 19.44-11.22 26.09-36.03 14.86-55.47l-0.02-0.02-0.01-0.03c-1.39-2.53-3.24-4.85-5.28-7.13-0.31-0.29-0.62-0.58-0.92-0.88l-67.18-67.23zm-60.42 16.29-24.55 91.75-0.02 0.05c-0.12 0.39-0.26 0.79-0.39 1.19-0.63 2.82-0.86 5.78-0.94 8.83 0.02 22.43 18.17 40.58 40.61 40.58 22.45 0 40.61-18.16 40.61-40.61l0-0.03 0-0.03c0.06-2.88-0.38-5.82-1-8.82-0.12-0.4-0.24-0.81-0.35-1.22l0 0c0 0 0-0.01 0-0.01l-24.52-91.65c-4.71 1.05-9.61 1.63-14.64 1.63-5.09 0-10.04-0.59-14.8-1.66z" fill="#fff"/><path d="m234.33 292.74c-31.86 0-57.75-25.89-57.75-57.75 0-31.86 25.89-57.75 57.75-57.75 31.86 0 57.75 25.89 57.75 57.75 0 31.86-25.89 57.75-57.75 57.75zm0-6.05c28.59 0 51.7-23.11 51.7-51.7 0-28.59-23.11-51.7-51.7-51.7-28.59 0-51.7 23.11-51.7 51.7 0 28.59 23.11 51.7 51.7 51.7zm-53.22-87.82a5.5 5.5 0 0 0-4.54 2.68 5.5 5.5 0 0 0 2.04 7.62l2.96 1.71a5.5 5.5 0 0 0 0.24 0.13c1.54-3.35 3.38-6.53 5.5-9.51a5.5 5.5 0 0 0-0.25-0.15l-2.96-1.71a5.5 5.5 0 0 0-3-0.77zm105.74 60.11c-1.54 3.35-3.39 6.53-5.51 9.5a5.5 5.5 0 0 0 0.25 0.15l2.96 1.71a5.5 5.5 0 0 0 7.62-2.04 5.5 5.5 0 0 0-2.12-7.48l-2.96-1.71a5.5 5.5 0 0 0-0.24-0.13zm-105.04 0a5.5 5.5 0 0 0-0.24 0.13l-2.96 1.71a5.5 5.5 0 0 0-2.12 7.48 5.5 5.5 0 0 0 7.62 2.04l2.96-1.71a5.5 5.5 0 0 0 0.25-0.15c-2.12-2.97-3.97-6.15-5.5-9.5zm105.74-60.11a5.5 5.5 0 0 0-2.99 0.77l-2.96 1.71a5.5 5.5 0 0 0-0.25 0.15c2.12 2.97 3.97 6.15 5.51 9.5a5.5 5.5 0 0 0 0.24-0.13l2.96-1.71a5.5 5.5 0 0 0 2.04-7.62 5.5 5.5 0 0 0-4.54-2.68zm-58.71 93.61a5.5 5.5 0 0 0-0.01 0.27l0 3.42a5.5 5.5 0 0 0 5.42 5.58 5.5 5.5 0 0 0 5.58-5.58l0-3.42a5.5 5.5 0 0 0-0.01-0.27c-1.81 0.17-3.64 0.27-5.49 0.27-1.85 0-3.68-0.1-5.49-0.27zm5.41-124.23a5.5 5.5 0 0 0-5.42 5.58l0 3.42a5.5 5.5 0 0 0 0.01 0.27c1.81-0.17 3.64-0.27 5.49-0.27 1.85 0 3.68 0.1 5.49 0.27a5.5 5.5 0 0 0 0.01-0.27l0-3.42a5.5 5.5 0 0 0-5.58-5.58z" style="baseline-shift:baseline;block-progression:tb;color-interpolation-filters:linearRGB;color-interpolation:sRGB;color-rendering:auto;direction:ltr;fill:#000;font-family:sans-serif;font-size:medium;image-rendering:auto;isolation:auto;letter-spacing:normal;line-height:normal;mix-blend-mode:normal;shape-rendering:auto;solid-color:#000000;solid-opacity:1;text-align:start;text-anchor:start;text-decoration-color:#000000;text-decoration-line:none;text-decoration-style:solid;text-decoration:none;text-indent:0;text-rendering:auto;text-transform:none;white-space:normal;word-spacing:normal;writing-mode:lr-tb"/><path d="m206.98 238.87c-1.19 0-2.16 0.96-2.16 2.16l0 10.69c0 1.2 0.96 2.16 2.16 2.16l7.59 0 2.88 8.88-16.37 0c-1.38 0-2.5 1.12-2.5 2.5l0 0.13c0 1.39 1.12 2.5 2.5 2.5l66.5 0c1.39 0 2.5-1.11 2.5-2.5l0-0.12c0-1.38-1.11-2.5-2.5-2.5l-18.5 0 4.5-8.87 7.09 0c1.19 0 2.16-0.96 2.16-2.16l0-10.69c0-1.2-0.96-2.16-2.16-2.16l-53.69 0zm5.5 3.5 43.69 0c1.19 0 2.16 0.97 2.16 2.16l0 3.69c0 1.19-0.97 2.16-2.16 2.16l-43.69 0c-1.19 0-2.16-0.97-2.16-2.16l0-3.69c0-1.19 0.97-2.16 2.16-2.16zm7 11.5 27.72 0-4 8.88-19.66 0-4.06-8.87zm-18.41-24c-1.38 0-2.5 1.12-2.5 2.5l0 0.13c0 1.39 1.12 2.5 2.5 2.5l66.5 0c1.39 0 2.5-1.11 2.5-2.5l0-0.12c0-1.38-1.11-2.5-2.5-2.5l-66.5 0zm23.25-33.19c-1.38 0-2.5 1.21-2.5 2.72l0 2.97-15.62 0c-1.31 0-2.37 1.07-2.37 2.38l0 19.75c0 1.31 1.07 2.38 2.38 2.38l55.25 0c1.31 0 2.38-1.07 2.38-2.37l0-19.75c0-1.31-1.07-2.37-2.37-2.37l-15.12 0 0-2.97c0-1.51-1.11-2.72-2.5-2.72-1.38 0-2.5 1.21-2.5 2.72l0 2.97-14.5 0 0-2.97c0-1.51-1.11-2.72-2.5-2.72zm-12.97 9.19 10.47 0 0 6.5-12.5 0 0-4.47c0-1.12 0.91-2.03 2.03-2.03zm15.47 0 14.5 0 0 6.5-14.5 0 0-6.5zm19.5 0 10.47 0c1.12 0 2.03 0.91 2.03 2.03l0 4.47-12.5 0 0-6.5zm-37 10.5 12.5 0 0 6.5-10.47 0c-1.12 0-2.03-0.91-2.03-2.03l0-4.47zm17.5 0 14.5 0 0 6.5-14.5 0 0-6.5zm19.5 0 12.5 0 0 4.47c0 1.12-0.91 2.03-2.03 2.03l-10.47 0 0-6.5z" style="fill:#000;stroke:#000"/></svg>