<?xml version="1.0" encoding="UTF-8" standalone="no"?>
<!-- Created with Inkscape (http://www.inkscape.org/) -->
<svg
   xmlns:svg="http://www.w3.org/2000/svg"
   xmlns="http://www.w3.org/2000/svg"
   version="1.0"
   width="1280"
   height="1280"
   id="svg2">
  <defs
     id="defs4" />
  <g
     transform="translate(40,187.63782)"
     id="layer1">
    <path
       d="M 625,40.59375 L 439.875,365.1875 C 479.96725,335.92995 526.67422,315.20109 577.34375,305.75 L 625,222.21875 L 625,40.59375 z M 655,40.59375 L 655,222.25 L 702.625,305.75 C 753.30616,315.1985 800.02479,335.92414 840.125,365.1875 L 655,40.59375 z M 637.9375,329.96875 C 635.98832,329.97923 634.04456,330.01496 632.09375,330.0625 C 582.49374,331.27131 532.49343,344.43109 486.40625,370.71875 C 482.53671,372.9259 478.76887,375.2473 475.03125,377.59375 C 469.79557,380.88067 464.66101,384.26432 459.6875,387.8125 C 451.16353,393.89364 443.01974,400.33269 435.28125,407.125 C 431.41201,410.52116 427.63798,414.00187 423.96875,417.5625 C 416.42559,424.88241 409.33841,432.57357 402.65625,440.53125 C 321.57731,537.08692 304.62991,677.72775 370.71875,793.59375 C 376.64926,803.99104 383.11083,813.8667 390.03125,823.28125 C 409.74721,814.70056 428.10155,803.01019 444.03125,788.5625 C 450.65795,782.81248 456.81936,776.58599 462.5,769.96875 C 457.63585,763.31111 453.08776,756.33097 448.90625,749 C 401.07719,665.1467 414.55601,563.03102 475.0625,494.4375 C 484.79099,505.48726 493.5468,517.68272 501.125,530.96875 C 548.95417,614.82203 535.47637,716.93614 474.96875,785.53125 C 471.06617,789.95546 466.97327,794.24092 462.6875,798.375 C 458.40173,802.50908 453.91446,806.49836 449.25,810.3125 C 444.58554,814.12664 439.72614,817.75435 434.6875,821.21875 C 429.64886,824.68315 424.43957,827.97764 419.03125,831.0625 C 413.66887,834.12114 408.21723,836.87621 402.71875,839.4375 C 423.72436,864.47188 448.16955,885.56178 474.96875,902.375 C 481.94576,897.99503 488.70521,893.36914 495.21875,888.53125 C 501.73229,883.69336 507.99247,878.63863 514.03125,873.375 C 520.07003,868.11137 525.88478,862.65721 531.4375,857 C 536.99022,851.34279 542.28837,845.48737 547.34375,839.46875 C 628.44544,742.91405 645.37759,602.25419 579.28125,486.375 C 578.61884,485.21376 577.9875,484.05567 577.3125,482.90625 C 568.38579,467.70716 558.28903,453.61319 547.3125,440.53125 C 601.14123,415.45796 660.8458,414.0597 713.6875,432.8125 C 715.88763,430.14505 718.11807,427.49951 720.40625,424.90625 C 739.43094,402.79157 761.49926,383.08004 785.71875,366.5 C 740.33058,342.36093 689.46979,329.69155 637.9375,329.96875 z M 805,377.59375 C 798.02211,381.9751 791.26368,386.597 784.75,391.4375 C 778.23632,396.278 771.97604,401.32701 765.9375,406.59375 C 759.89896,411.86049 754.08371,417.33995 748.53125,423 C 742.97879,428.66005 737.68044,434.5108 732.625,440.53125 C 670.20117,514.87088 645.81789,615.35137 668.0625,710.53125 L 755.0625,687.21875 C 740.05368,618.82278 758.82829,546.91845 805,494.53125 C 814.73073,505.56432 823.51852,517.7192 831.09375,531 C 878.91875,614.84615 865.43082,716.93784 804.9375,785.53125 C 795.209,774.48149 786.45321,762.28602 778.875,749 C 771.03716,735.25881 764.85731,721.02471 760.25,706.53125 L 673.25,729.84375 C 679.85786,751.61693 688.97195,772.99943 700.71875,793.59375 C 710.14157,810.11373 720.91001,825.3639 732.71875,839.4375 C 679.00889,864.45835 619.45224,865.92862 566.6875,847.3125 C 551.84853,865.73462 535.06839,882.57623 516.59375,897.34375 C 509.55645,903.16655 502.26422,908.6417 494.75,913.78125 C 585.42686,961.76036 697.94673,963.83736 793.59375,909.28125 C 797.4555,907.07854 801.20714,904.7477 804.9375,902.40625 C 814.66804,896.29864 823.99308,889.77029 832.8125,882.78125 C 834.97956,881.06395 837.10721,879.30021 839.21875,877.53125 C 846.86443,871.12941 854.16225,864.42108 861.0625,857.40625 C 862.97793,855.46612 864.86514,853.48696 866.71875,851.5 C 870.37894,847.57645 873.912,843.55557 877.34375,839.46875 C 958.42268,742.9131 975.37005,602.27227 909.28125,486.40625 C 908.61889,485.24502 907.95632,484.08692 907.28125,482.9375 C 898.34631,467.72441 888.17592,453.68629 877.1875,440.59375 C 874.70795,437.6394 872.29282,434.62487 869.71875,431.78125 C 869.17827,431.18347 868.60628,430.62418 868.0625,430.03125 C 864.18447,425.8141 860.20232,421.71627 856.125,417.75 C 855.17302,416.8247 854.2124,415.91154 853.25,415 C 849.08851,411.05539 844.84901,407.21588 840.5,403.53125 C 839.97148,403.08309 839.46853,402.6002 838.9375,402.15625 C 834.16072,398.1643 829.26426,394.36409 824.28125,390.6875 C 822.94383,389.70241 821.5714,388.77394 820.21875,387.8125 C 816.43954,385.11731 812.60343,382.51464 808.71875,380 C 807.47254,379.20996 806.25095,378.37827 805,377.59375 z M 365.15625,439.875 L 40.59375,625 L 222.21875,625 L 305.78125,577.34375 C 315.22951,526.68095 335.90647,479.96428 365.15625,439.875 z M 914.84375,439.875 C 944.09353,479.96428 964.77049,526.68096 974.21875,577.34375 L 1057.75,625 L 1239.375,625 L 914.84375,439.875 z M 40.59375,655 L 365.1875,840.125 C 335.93386,800.0381 315.23409,753.31796 305.78125,702.65625 L 222.25,655 L 40.59375,655 z M 1057.7188,655 L 974.21875,702.625 C 964.76852,753.29839 944.07197,800.03011 914.8125,840.125 L 1239.375,655 L 1057.7188,655 z M 668.875,713.96875 C 669.857,717.96245 670.94608,721.93491 672.09375,725.90625 L 668.875,713.96875 z M 789.1875,801.75 C 787.90598,802.93648 786.59904,804.09335 785.28125,805.25 C 781.16245,808.86515 776.90144,812.35196 772.46875,815.6875 C 773.93415,814.57606 775.37586,813.41972 776.8125,812.28125 C 779.69862,809.99413 782.53535,807.66014 785.28125,805.25 C 786.59877,804.09358 787.90111,802.93347 789.1875,801.75 z M 439.84375,914.75 L 625,1239.375 L 625,1057.75 L 577.34375,974.21875 C 526.66018,964.76469 479.9433,944.02075 439.84375,914.75 z M 840.15625,914.75 C 800.04876,944.02654 753.32017,964.76728 702.625,974.21875 L 655,1057.7188 L 655,1239.375 L 840.15625,914.75 z "
       transform="translate(-40,-187.63782)"
       style="opacity:1;fill:#000000;fill-opacity:1;fill-rule:nonzero;stroke:none;stroke-width:20;stroke-linecap:round;stroke-linejoin:round;stroke-miterlimit:4;stroke-dasharray:none;stroke-opacity:1"
       id="rect3174" />
  </g>
</svg>
