<?xml version="1.0" encoding="UTF-8" standalone="no"?>
<!-- Created with Inkscape (http://www.inkscape.org/) -->

<svg
   xmlns:svg="http://www.w3.org/2000/svg"
   xmlns="http://www.w3.org/2000/svg"
   version="1.0"
   width="450"
   height="450"
   id="svg2">
  <defs
     id="defs5" />
  <path
     d="M 225,23.5 C 170.69454,23.5 147.20489,34.12616 124.28125,62.0625 107.40174,82.63304 105,107.24533 105,120.5 c 0,17.50781 5.742,41.37391 23.8125,60.625 17.62609,18.77763 37.89103,29.57559 70.1875,33.09375 L 199,367.75 c -27.49321,-10.44987 -47.08059,-36.98865 -47.25,-68.09375 13.32957,3.3906 24.89156,4.84096 33.25,5.4375 L 185,251.75 C 158.91682,248.88594 102.89878,234.87329 74,168.375 l -49,21.03125 c 19.4211,44.17929 47.28481,71.57427 75.03125,88.5625 C 98.85793,284.88858 98.25,291.99767 98.25,299.25 c 0,69.966 56.78399,126.74999 126.75,126.75 69.966,0 126.75003,-56.78401 126.75,-126.75 0,-2.30956 -0.0676,-4.59706 -0.1875,-6.875 C 332.24725,303.43777 313.20532,310.05026 296.78125,314 291.72042,338.7445 274.15694,358.9483 251,367.75 l 0,-62.25 c 0,0 120.28344,6.4408 174,-116 l -49,-21.03125 c -38.3876,88.33277 -124.65252,84.08008 -125,84.0625 l 0,-38.3125 C 283.29647,210.70059 303.56141,199.90263 321.1875,181.125 339.258,161.87391 345,138.00781 345,120.5 345,107.24533 342.59823,82.63304 325.71875,62.0625 302.79511,34.12616 279.30546,23.5 225,23.5 z m 0,53.5 c 32.34428,0 42.35899,1.90285 55.0625,14.125 9.35405,8.99961 11.4375,17.75175 11.4375,28.3125 0,11.41241 -4.25746,22.37988 -14.6875,30.28125 C 262.65424,160.44446 251.7337,161 225,161 198.2663,161 183.59577,158.94446 171.6875,148.21875 161.96485,139.46161 158.5,128.84717 158.5,119.4375 c 0,-5.79891 0.83343,-17.81289 11.4375,-28.3125 C 182.4642,78.7217 192.40572,77 225,77 z"
     id="path2413"
     style="fill:#000000;fill-opacity:1;stroke:none" />
</svg>
