<?xml version="1.0" encoding="UTF-8" standalone="no"?>
<svg
   xmlns:dc="http://purl.org/dc/elements/1.1/"
   xmlns:cc="http://creativecommons.org/ns#"
   xmlns:rdf="http://www.w3.org/1999/02/22-rdf-syntax-ns#"
   xmlns:svg="http://www.w3.org/2000/svg"
   xmlns="http://www.w3.org/2000/svg"
   xmlns:sodipodi="http://sodipodi.sourceforge.net/DTD/sodipodi-0.dtd"
   xmlns:inkscape="http://www.inkscape.org/namespaces/inkscape"
   version="1"
   width="600"
   height="662.78998"
   id="svg4"
   sodipodi:docname="Emblem_of_Musashino,_Tokyo.svg"
   inkscape:version="0.92.4 (5da689c313, 2019-01-14)">
  <metadata
     id="metadata10">
    <rdf:RDF>
      <cc:Work
         rdf:about="">
        <dc:format>image/svg+xml</dc:format>
        <dc:type
           rdf:resource="http://purl.org/dc/dcmitype/StillImage" />
        <dc:title></dc:title>
      </cc:Work>
    </rdf:RDF>
  </metadata>
  <defs
     id="defs8" />
  <sodipodi:namedview
     pagecolor="#ffffff"
     bordercolor="#666666"
     borderopacity="1"
     objecttolerance="10"
     gridtolerance="10"
     guidetolerance="10"
     inkscape:pageopacity="0"
     inkscape:pageshadow="2"
     inkscape:window-width="1920"
     inkscape:window-height="996"
     id="namedview6"
     showgrid="false"
     fit-margin-top="0"
     fit-margin-left="0"
     fit-margin-right="0"
     fit-margin-bottom="0"
     inkscape:zoom="0.44931934"
     inkscape:cx="995.16365"
     inkscape:cy="276.86075"
     inkscape:window-x="1912"
     inkscape:window-y="-8"
     inkscape:window-maximized="1"
     inkscape:current-layer="svg4" />
  <path
     d="m 556.08,518.78 v -0.03 l -0.03,0.01 C 583.93,473.09 600,419.39 600,361.91 600,316.04 589.75,272.57 571.46,233.67 l -43.48,25.17 c 14.16,31.43 22.04,66.32 22.04,103.06 0,138.49 -111.94,250.75 -250.03,250.75 -138.08,0 -250.03,-112.26 -250.03,-250.75 0,-138.49 111.96,-250.77 250.03,-250.77 83.58,0 157.54,41.13 202.95,104.29 l 43.48,-25.17 C 501.23,125.14 431.05,78.790001 349.8,65.170001 h 0.18 l -0.04,-0.03 C 323.14,54.480001 303.44,29.740001 299.97,0 296.49,29.740001 276.79,54.480001 250,65.140001 v 0.03 h 0.14 C 108.18,89.010001 0,212.77 0,361.91 0,419.39 16.08,473.1 43.96,518.79 v -0.06 0.03 c 9.56,27.28 3.85,58.42 -16.24,80.56 24.67,-16.87 56.21,-18.2 81.81,-4.9 v 0 l -0.16,-0.18 c 51.84,42.82 118.25,68.55 190.65,68.55 72.4,0 138.79,-25.71 190.61,-68.51 l -0.13,0.14 h 0.03 c 25.62,-13.3 57.16,-11.96 81.81,4.9 -20.09,-22.14 -25.8,-53.29 -16.22,-80.56 M 440.58,309.42 c 6.06,16.33 9.4,34.02 9.4,52.47 0,74.56 -54.07,136.4 -125.01,148.35 v 50.7 c 98.66,-12.34 175.02,-96.75 175.02,-199.05 0,-27.6 -5.58,-53.88 -15.62,-77.82 z m -25.06,-43.39 43.8,-25.37 C 427.54,198.74 379.69,169.7 324.96,162.87 v 50.7 c 36.26,6.1 68.08,25.26 90.57,52.47 m -265.58,95.87 c 0,-18.45 3.32,-36.14 9.4,-52.47 l -43.79,-25.35 c -10.06,23.92 -15.62,50.22 -15.62,77.82 0,102.3 76.36,186.71 175.02,199.05 V 510.24 C 204.02,498.29 149.95,436.45 149.95,361.91 m 34.46,-95.87 c 22.48,-27.21 54.3,-46.37 90.57,-52.47 v -50.7 c -54.73,6.85 -102.58,35.87 -134.37,77.8 z m 225.57,70.79 h -13.16 c -9.04,-35.25 -36.71,-63 -71.85,-72.06 v 53.72 c 7.58,4.4 13.89,10.75 18.29,18.34 h -86.59 c 4.39,-7.59 10.7,-13.94 18.29,-18.34 v -53.72 c -35.16,9.06 -62.81,36.81 -71.86,72.06 h -13.16 v 50.15 h 13.16 c 9.06,35.25 36.71,63 71.86,72.08 v -53.73 c -7.59,-4.4 -13.91,-10.75 -18.29,-18.34 h 86.59 c -4.4,7.59 -10.71,13.94 -18.29,18.34 v 53.73 c 35.14,-9.07 62.81,-36.83 71.85,-72.08 h 13.16 z"
     id="path2"
     style="fill:#000066;fill-opacity:1"
     inkscape:connector-curvature="0" />
</svg>
