<?xml version="1.0" encoding="UTF-8" standalone="no"?>
<!-- Created with Inkscape (http://www.inkscape.org/) -->

<svg
   xmlns:dc="http://purl.org/dc/elements/1.1/"
   xmlns:cc="http://creativecommons.org/ns#"
   xmlns:rdf="http://www.w3.org/1999/02/22-rdf-syntax-ns#"
   xmlns:svg="http://www.w3.org/2000/svg"
   xmlns="http://www.w3.org/2000/svg"
   xmlns:sodipodi="http://sodipodi.sourceforge.net/DTD/sodipodi-0.dtd"
   xmlns:inkscape="http://www.inkscape.org/namespaces/inkscape"
   version="1.0"
   width="660"
   height="567.51056"
   id="svg2"
   sodipodi:docname="Emblem_of_Ome,_Tokyo.svg"
   inkscape:version="0.92.4 (5da689c313, 2019-01-14)">
  <metadata
     id="metadata8">
    <rdf:RDF>
      <cc:Work
         rdf:about="">
        <dc:format>image/svg+xml</dc:format>
        <dc:type
           rdf:resource="http://purl.org/dc/dcmitype/StillImage" />
        <dc:title></dc:title>
      </cc:Work>
    </rdf:RDF>
  </metadata>
  <sodipodi:namedview
     pagecolor="#ffffff"
     bordercolor="#666666"
     borderopacity="1"
     objecttolerance="10"
     gridtolerance="10"
     guidetolerance="10"
     inkscape:pageopacity="0"
     inkscape:pageshadow="2"
     inkscape:window-width="1920"
     inkscape:window-height="996"
     id="namedview6"
     showgrid="false"
     fit-margin-top="0"
     fit-margin-left="0"
     fit-margin-right="0"
     fit-margin-bottom="0"
     inkscape:zoom="0.54713836"
     inkscape:cx="351.25675"
     inkscape:cy="409.84284"
     inkscape:window-x="1912"
     inkscape:window-y="-8"
     inkscape:window-maximized="1"
     inkscape:current-layer="svg2" />
  <defs
     id="defs4" />
  <g
     transform="translate(30,-452.375)"
     id="layer1"
     style="fill:#1441fe;fill-opacity:1">
    <path
       d="m 300,452.375 c -68.88281,0 -125.30478,53.6644 -129.71875,121.4375 -43.30831,-11.02043 -87.748764,1.2718 -119.15625,29.625 L -30,592.375 l 40.5,66.0625 4.53125,0.1875 c -0.0031,0.009 0.0031,0.0219 0,0.0312 l 20.9375,0.875 c 0.0035,-0.009 -0.0035,-0.0223 0,-0.0312 l 4.21875,0.1875 c -0.0036,0.009 0.0036,0.0223 0,0.0312 l 2.125,0.0937 c 0.0037,-0.009 -0.0037,-0.0224 0,-0.0312 l 217.15625,9.1875 3.125,6.8125 -218.5625,-9.25 -2.09375,-0.0937 -2.0625,-0.0937 h -0.34375 l -5.875,-0.25 L 13,665.21875 c -17.6909095,63.89061 15.798276,130.92307 77.125,155.34375 -36.27482,57.42542 -22.200086,134.00884 33.53125,174.5 55.73277,40.4922 132.93909,30.2484 176.34375,-22 43.40466,52.2483 120.61099,62.4922 176.34375,22 55.73133,-40.49119 69.80608,-117.07456 33.53125,-174.5 61.32673,-24.4207 94.81591,-91.45316 77.125,-155.34375 l -20.65625,0.875 -8.28125,0.34375 -2.09375,0.0937 -218.5625,9.25 3.125,-6.8125 217.15625,-9.1875 c 0.004,0.009 -0.004,0.0224 0,0.0312 l 2.125,-0.0937 c -0.004,-0.009 0.004,-0.0223 0,-0.0312 l 4.21875,-0.1875 c 0.004,0.009 -0.004,0.0223 0,0.0312 l 20.9375,-0.875 c -0.003,-0.009 0.003,-0.0219 0,-0.0312 L 589.5,658.4375 630,592.375 548.875,603.4375 C 517.46751,575.0843 473.02706,562.79207 429.71875,573.8125 425.30478,506.0394 368.8828,452.375 300,452.375 Z m 0,20 c 60.72,0 110,49.27999 110,110 0,7.36121 -0.74387,14.54249 -2.125,21.5 6.19459,-3.46729 12.80581,-6.37964 19.8125,-8.65625 32.57818,-10.58529 66.52779,-5.104 93.3125,12.03125 l -5.84375,0.78125 c -25.51889,-15.06515 -57.12527,-19.52559 -87.5,-9.65625 -8.59078,2.79132 -16.58798,6.55911 -23.90625,11.15625 2.10808,-8.37589 3.25,-17.12907 3.25,-26.15625 0,-59.064 -47.93602,-106.99999 -107,-107 -59.064,0 -106.99999,47.93601 -107,107 0,9.02718 1.14192,17.78036 3.25,26.15625 -7.31827,-4.59714 -15.31547,-8.36493 -23.90625,-11.15625 -30.37473,-9.86935 -61.98111,-5.4089 -87.5,9.65625 L 79,607.25 c 26.78471,-17.13525 60.73432,-22.61654 93.3125,-12.03125 7.00669,2.27661 13.61791,5.18896 19.8125,8.65625 -1.38113,-6.95751 -2.125,-14.1388 -2.125,-21.5 0,-60.71999 49.28,-110 110,-110 z m 0,6 c 57.95999,0 105,47.04 105,105 0,10.72838 -1.59946,21.06147 -4.59375,30.8125 8.34635,-5.85824 17.67515,-10.59212 27.875,-13.90625 28.92072,-9.3969 58.99146,-5.5503 83.625,8.1875 l -3.34375,0.46875 c -23.7038,-12.42759 -52.20973,-15.66791 -79.65625,-6.75 -12.15414,3.94912 -23.07443,9.95797 -32.5,17.5 C 400.67066,608.3878 403,596.16119 403,583.375 c 0,-56.856 -46.144,-103 -103,-103 -56.856,0 -103.00001,46.14402 -103,103 0,12.78618 2.32934,25.01281 6.59375,36.3125 -9.42557,-7.54203 -20.34586,-13.55088 -32.5,-17.5 -27.44653,-8.91791 -55.95246,-5.67759 -79.65625,6.75 l -3.34375,-0.46875 c 24.63354,-13.7378 54.70428,-17.58441 83.625,-8.1875 10.19985,3.31413 19.52865,8.04802 27.875,13.90625 C 196.59946,604.43647 195,594.10338 195,583.375 c -1e-5,-57.96 47.04,-105 105,-105 z m 0,4 c 55.75201,-10e-6 101,45.248 101,101 0,14.77798 -3.19363,28.78547 -8.90625,41.4375 l -51.125,6.96875 L 300,542.375 l -40.96875,89.40625 -51.125,-6.96875 C 202.19363,612.16047 199,598.15297 199,583.375 c 0,-55.75198 45.248,-101 101,-101 z m -160.09375,116.75 c 10.12928,0.0634 20.41678,1.67221 30.5625,4.96875 13.67255,4.44248 25.77124,11.51807 35.875,20.5 l -111.375,-15.1875 c 13.81945,-6.75253 29.18669,-10.3799 44.9375,-10.28125 z m 320.1875,0 c 15.75081,-0.0987 31.11805,3.52872 44.9375,10.28125 l -111.375,15.1875 c 10.10376,-8.98193 22.20245,-16.05752 35.875,-20.5 10.14572,-3.29655 20.43322,-4.90531 30.5625,-4.96875 z m -431.15625,89.40625 3.46875,5.65625 c -2.643793,47.31901 26.635783,92.39012 73.8125,107.71875 8.58942,2.79087 17.25361,4.4486 25.875,5.03125 -6.62889,5.53722 -12.69383,11.94668 -18,19.25 -34.716946,47.78378 -24.096271,114.75178 23.6875,149.46875 46.64853,33.89215 111.54783,24.57635 146.90625,-20.34375 l 0.625,1.34375 -0.1875,-1.90625 c 0.70822,-0.91205 1.41012,-1.84031 2.09375,-2.78125 5.30623,-7.3034 9.56346,-15.04686 12.78125,-23.0625 3.21779,8.01564 7.47502,15.7591 12.78125,23.0625 0.68363,0.94094 1.38553,1.8692 2.09375,2.78125 l -0.1875,1.90625 0.625,-1.34375 c 35.35842,44.9201 100.25772,54.2359 146.90625,20.34375 47.78378,-34.71694 58.40445,-101.68498 23.6875,-149.46875 -5.30617,-7.30332 -11.37111,-13.71278 -18,-19.25 8.62138,-0.58266 17.28558,-2.24037 25.875,-5.03125 47.17671,-15.32865 76.45629,-60.39976 73.8125,-107.71875 l 3.46875,-5.65625 c 5.26784,50.50875 -25.17552,99.5853 -75.40625,115.90625 -7.00028,2.27453 -14.05062,3.78849 -21.09375,4.625 5.2125,4.82037 10.01289,10.22658 14.34375,16.1875 35.69032,49.12352 24.81101,117.93468 -24.3125,153.625 -49.12352,35.6903 -117.96593,24.811 -153.65625,-24.3125 -4.3269,-5.95546 -7.9653,-12.21556 -10.9375,-18.65625 -2.9722,6.44069 -6.61061,12.70079 -10.9375,18.65625 -35.69032,49.1235 -104.53274,60.0028 -153.65625,24.3125 -49.123507,-35.69029 -60.002824,-104.50148 -24.3125,-153.625 4.33086,-5.96092 9.13125,-11.36714 14.34375,-16.1875 -7.04313,-0.83651 -14.09348,-2.35047 -21.09375,-4.625 C 54.113026,788.11655 23.66966,739.04 28.9375,688.53125 Z m 5.34375,8.75 1.96875,3.1875 c 0.136501,43.29523 27.784945,83.52264 71.1875,97.625 12.15212,3.94846 24.50586,5.49812 36.5625,4.9375 -10.07861,6.632 -19.1489,15.16702 -26.65625,25.5 -33.419112,45.99746 -23.21622,110.45585 22.78125,143.875 45.43604,33.01125 108.87262,23.44672 142.625,-21.125 l 0.96875,2.03125 C 249.15571,998.0429 184.97472,1007.4793 138.9375,974.03125 92.04688,939.96324 81.650721,874.26562 115.71875,827.375 122.02339,818.6974 129.41061,811.28425 137.5625,805.15625 127.36587,804.99006 117.01328,803.31443 106.8125,800 61.506065,785.27904 33.038512,742.61748 34.28125,697.28125 Z m 531.4375,0 C 566.96149,742.61748 538.49393,785.27904 493.1875,800 c -10.20078,3.31444 -20.55337,4.99005 -30.75,5.15625 8.15189,6.128 15.53911,13.54115 21.84375,22.21875 34.06804,46.89059 23.67188,112.58822 -23.21875,146.65625 -46.03721,33.44805 -110.21819,24.01164 -144.78125,-20.71875 l 0.96875,-2.03125 c 33.75239,44.57173 97.18897,54.13625 142.625,21.125 45.99748,-33.41912 56.20036,-97.87756 22.78125,-143.875 -7.50735,-10.33299 -16.57764,-18.868 -26.65625,-25.5 12.05664,0.56062 24.41038,-0.98904 36.5625,-4.9375 43.40255,-14.10235 71.051,-54.32976 71.1875,-97.625 z m -527.40625,6.5625 0.5,0.8125 241.71875,10.21875 3.125,6.8125 L 43,711.5 l 22,35.875 235,10 235,-10 22,-35.875 -240.65625,10.1875 3.125,-6.8125 241.71875,-10.21875 0.5,-0.8125 c -1.52398,41.14776 -28.32554,78.88413 -69.75,92.34375 -14.82774,4.81783 -29.97398,6.02634 -44.46875,4.09375 12.86275,6.95633 24.39828,16.82403 33.5625,29.4375 32.77021,45.10434 22.76057,108.29229 -22.34375,141.0625 C 413.85463,1003.3542 351.15391,993.6627 318.21875,949.25 l 90.625,-189.5 L 300,764.375 191.15625,759.75 l 90.625,189.5 c -32.93517,44.4127 -95.63589,54.1043 -140.46875,21.53125 -45.104324,-32.77021 -55.113959,-95.95818 -22.34375,-141.0625 9.16422,-12.61347 20.69974,-22.48117 33.5625,-29.4375 -14.49477,1.93259 -29.64101,0.72407 -44.46875,-4.09375 -41.424458,-13.45963 -68.22602,-51.19599 -69.75,-92.34375 z M 300,757.375 h -7.40625 l 7.40625,0.3125 7.40625,-0.3125 z m -30,50 h 60 l -14.21875,138.46875 c -6.0565,-8.90485 -10.49204,-18.46868 -13.375,-28.3125 L 315,892.375 l -12.5,-25 12.5,-25 -15,-30 -15,30 12.5,25 -12.5,25 12.59375,25.15625 c -2.88296,9.84382 -7.3185,19.40765 -13.375,28.3125 z m 28.875,112.78125 1.125,2.21875 1.125,-2.21875 c 3.16843,10.02491 7.91681,19.74202 14.34375,28.75 l -0.28125,2.96875 c -0.26747,-0.35857 -0.5488,-0.69955 -0.8125,-1.0625 -6.30618,-8.67972 -11.06591,-18.00717 -14.375,-27.65625 -3.30909,9.64908 -8.06881,18.97653 -14.375,27.65625 -0.2637,0.36295 -0.54503,0.70393 -0.8125,1.0625 l -0.28125,-2.96875 c 6.42694,-9.00798 11.17532,-18.72509 14.34375,-28.75 z"
       style="opacity:1;fill:#1441fe;fill-opacity:1;fill-rule:nonzero;stroke:none;stroke-width:50;stroke-linecap:round;stroke-linejoin:round;stroke-miterlimit:4;stroke-dasharray:none;stroke-opacity:1"
       id="path3145"
       inkscape:connector-curvature="0" />
  </g>
</svg>
