<?xml version="1.0" encoding="UTF-8" standalone="no"?>
<!-- Created with Inkscape (http://www.inkscape.org/) -->
<svg
   xmlns:svg="http://www.w3.org/2000/svg"
   xmlns="http://www.w3.org/2000/svg"
   version="1.0"
   width="640"
   height="640"
   id="svg2">
  <defs
     id="defs4" />
  <g
     transform="translate(20,-432.36218)"
     id="layer1">
    <path
       d="M 300,452.375 C 289.59579,452.375 279.3198,452.93332 269.1875,453.96875 C 278.66601,471.78207 288.17216,489.59229 297.65625,507.40625 C 298.43908,507.39888 299.21544,507.375 300,507.375 C 435.24,507.37501 545,617.135 545,752.375 C 544.99998,849.39479 488.51533,933.32312 406.65625,973 C 415.31625,989.15334 423.96899,1005.3088 432.5625,1021.5 C 531.72647,972.52782 599.99999,870.38989 600,752.375 C 600,586.775 465.6,452.37499 300,452.375 z M 250.21875,456.5 C 247.14876,457.01349 244.10066,457.5819 241.0625,458.1875 C 240.091,458.38129 239.12435,458.57809 238.15625,458.78125 C 233.59675,459.73718 229.07522,460.80878 224.59375,461.96875 C 223.6955,462.20125 222.80123,462.41567 221.90625,462.65625 C 221.65457,462.72402 221.40765,462.80634 221.15625,462.875 C 220.9071,462.94268 220.65514,462.9942 220.40625,463.0625 C 219.1214,463.41789 217.83924,463.78687 216.5625,464.15625 C 208.02392,466.62251 199.64366,469.46828 191.4375,472.65625 C 188.8786,473.65034 186.33653,474.6566 183.8125,475.71875 L 310,712.34375 C 314.61529,720.99745 314.14806,729.0253 310,732.34375 L 260.03125,772.34375 L 260,772.375 C 231.78111,794.95011 230.18142,823.96515 240,842.375 L 349.78125,1048.2188 C 354.65559,1047.4035 359.48837,1046.484 364.28125,1045.4375 C 365.17931,1045.2411 366.07005,1045.0131 366.96875,1044.8125 C 383.97158,1040.9365 400.42129,1035.6347 416.1875,1029 L 290,792.375 C 285.3847,783.72131 285.85194,775.69345 290,772.375 L 339.96875,732.375 L 340,732.34375 C 368.21888,709.76865 369.81858,680.7536 360,662.34375 L 250.21875,456.5 z M 178.9375,477.84375 C 177.27206,478.57977 175.61814,479.32846 173.96875,480.09375 C 175.62465,479.32522 177.26544,478.58281 178.9375,477.84375 z M 172.5,480.78125 C 171.08627,481.44655 169.68282,482.12587 168.28125,482.8125 C 169.67832,482.12802 171.09086,481.44457 172.5,480.78125 z M 167.4375,483.21875 C 68.266741,532.18852 3.3158661e-014,634.35515 0,752.375 C -4.7369516e-015,917.975 134.4,1052.375 300,1052.375 C 310.40421,1052.375 320.6802,1051.8167 330.8125,1050.7813 C 321.33382,1032.9676 311.85926,1015.158 302.375,997.34375 C 301.58176,997.35132 300.79502,997.375 300,997.375 C 164.75998,997.37501 55,887.615 55,752.375 C 55.000001,655.35522 111.48467,571.42688 193.34375,531.75 C 184.6794,515.58857 176.03532,499.41811 167.4375,483.21875 z "
       style="opacity:1;fill:#000000;fill-opacity:1;fill-rule:nonzero;stroke:none;stroke-width:50;stroke-linecap:round;stroke-linejoin:round;stroke-miterlimit:4;stroke-dasharray:none;stroke-opacity:1"
       id="path3141" />
  </g>
</svg>
