<?xml version="1.0" encoding="UTF-8" standalone="no"?>
<!-- Created with Inkscape (http://www.inkscape.org/) -->

<svg
   xmlns:svg="http://www.w3.org/2000/svg"
   xmlns="http://www.w3.org/2000/svg"
   version="1.0"
   width="400"
   height="400"
   id="svg2">
  <defs
     id="defs5" />
  <path
     d="M 200,20 C 109.51229,20 34.54244,86.8807 21.875,173.875 32.50215,165.22464 51.64503,152.91363 79.59375,147.0625 99.97689,100.81558 146.24341,68.5 200,68.5 c 58.69943,0 108.45256,38.52805 125.34375,91.65625 C 315.85824,157.61726 304.59452,156 291.3125,156 c -45.39184,0 -70.96875,20.96875 -70.96875,20.96875 L 200,92 179.75,176.78125 C 178.45008,175.74086 153.20492,156 109,156 c -8.23993,0 -15.89409,0.6779 -22.96875,1.8125 -3.58669,0.57668 -7.0235,1.26381 -10.3125,2.0625 -31.79371,7.7207 -49.71312,24.725 -54.40625,29.6875 0,0 -1.09375,1.1875 -1.09375,1.1875 l 0,0.375 C 20.0755,194.0681 20,197.02159 20,200 c 0,99.36 80.64,180.00001 180,180 75.65639,0 140.45043,-46.76418 167.0625,-112.9375 C 362.53628,259.15366 351.24669,244.32249 326.75,235.125 311.37696,290.68233 260.42946,331.5 200,331.5 135.50605,331.5 81.82969,285.00311 70.65625,223.71875 c 3.18335,-1.3578 21.727,-8.74999 48.84375,-8.75 26.06109,0 45.45635,8.20843 48.8125,9.71875 L 152,293 l 96,0 -16.28125,-68.1875 c 2.04261,-0.94655 21.95619,-9.84375 49.125,-9.84375 5.78474,-0.0128 11.56523,0.358 17.3125,1 27.91612,3.52053 55.70379,15.44307 73.65625,37.78125 l 0.15625,-0.5 C 377.1817,236.41603 380,218.53977 380,200 380,100.64 299.36,20 200,20 z"
     id="path2386"
     style="fill:#000000;fill-opacity:1;stroke:none" />
</svg>
