<?xml version="1.0" encoding="UTF-8" standalone="no"?>
<!-- Created with Inkscape (http://www.inkscape.org/) -->
<svg
   xmlns:svg="http://www.w3.org/2000/svg"
   xmlns="http://www.w3.org/2000/svg"
   version="1.0"
   width="640"
   height="640"
   id="svg2">
  <defs
     id="defs4" />
  <g
     transform="translate(20,-432.36218)"
     id="layer1">
    <path
       d="M 290,452.5625 C 129.02117,457.8411 -2e-005,590.0887 0,752.34375 C 4.556768e-020,914.59878 129.02116,1046.8775 290,1052.1563 L 290,452.5625 z M 310,452.5625 L 310,712.375 L 370,712.375 L 370,575.65625 C 384.26592,581.31696 397.67126,588.695 410,597.46875 L 410,682.34375 L 487.375,682.34375 C 467.12821,628.24573 424.10082,585.24898 370,565 L 370,522.90625 C 446.15769,546.15315 506.297,606.19521 529.53125,682.34375 L 529.625,682.34375 C 532.59832,692.09832 534.94262,702.13328 536.65625,712.375 L 597.34375,712.375 C 578.20997,568.8881 457.53178,457.40016 310,452.5625 z M 230,522.75 L 230,522.78125 L 230,565.25 L 230,682.375 L 230,722.375 L 190,722.375 L 112.375,722.375 C 114.58041,708.48621 118.26659,695.09151 123.3125,682.375 L 190,682.375 L 190,585.65625 C 155.03829,608.77579 127.77469,642.5667 112.8125,682.375 C 108.0084,695.15674 104.37798,708.4986 102.28125,722.375 L 62.0625,722.375 C 63.780654,708.64612 66.623247,695.28336 70.5625,682.375 C 89.562366,620.11519 133.12642,568.54321 190,539.09375 L 190,539.03125 C 190.07019,538.99496 190.14852,538.97373 190.21875,538.9375 C 191.74497,538.15025 193.26747,537.38025 194.8125,536.625 C 196.42229,535.83799 198.02671,535.06414 199.65625,534.3125 C 200.78645,533.79119 201.92297,533.28537 203.0625,532.78125 C 204.02635,532.35476 204.9983,531.91411 205.96875,531.5 C 206.45429,531.29281 206.95032,531.11032 207.4375,530.90625 C 208.89355,530.29632 210.34207,529.70687 211.8125,529.125 C 211.9909,529.0544 212.16514,528.97643 212.34375,528.90625 C 213.52676,528.44144 214.71465,528.00762 215.90625,527.5625 C 215.98006,527.53484 216.05115,527.49634 216.125,527.46875 C 216.93613,527.16585 217.74725,526.85684 218.5625,526.5625 C 219.34358,526.28057 220.1214,525.9928 220.90625,525.71875 C 222.19937,525.26723 223.5093,524.83621 224.8125,524.40625 C 225.35012,524.22887 225.89804,524.07893 226.4375,523.90625 C 227.5386,523.5516 228.64197,523.18283 229.75,522.84375 C 229.83513,522.8177 229.91483,522.77596 230,522.75 z M 388.5625,722.34375 L 388.5625,722.375 L 310,722.375 L 310,1052.1563 C 470.97883,1046.8777 600,914.59878 600,752.34375 C 600,742.23439 599.47823,732.22793 598.5,722.375 L 490,722.375 L 490,722.34375 L 388.5625,722.34375 z M 370,782.34375 L 410,782.34375 L 487.625,782.34375 C 485.41959,796.23254 481.73341,809.62723 476.6875,822.34375 L 410,822.34375 L 410,919.0625 C 444.96171,895.94296 472.22531,862.15204 487.1875,822.34375 C 491.9916,809.56201 495.62202,796.22014 497.71875,782.34375 L 537.9375,782.34375 C 536.21935,796.07263 533.37675,809.43538 529.4375,822.34375 C 510.43763,884.60356 466.87358,936.17553 410,965.625 L 410,965.6875 C 409.92981,965.72379 409.85148,965.74501 409.78125,965.78125 C 408.25503,966.5685 406.73253,967.33849 405.1875,968.09375 C 403.57771,968.88076 401.97329,969.6546 400.34375,970.40625 C 399.21355,970.92756 398.07703,971.43337 396.9375,971.9375 C 395.97365,972.36399 395.0017,972.80463 394.03125,973.21875 C 393.54571,973.42594 393.04968,973.60842 392.5625,973.8125 C 391.10645,974.42243 389.65793,975.01187 388.1875,975.59375 C 388.0091,975.66435 387.83486,975.74231 387.65625,975.8125 C 386.47324,976.27731 385.28535,976.71112 384.09375,977.15625 C 384.01994,977.18391 383.94885,977.2224 383.875,977.25 C 383.06387,977.5529 382.25275,977.8619 381.4375,978.15625 C 380.65642,978.43818 379.8786,978.72594 379.09375,979 C 377.80063,979.45152 376.4907,979.88253 375.1875,980.3125 C 374.64988,980.48988 374.10196,980.63981 373.5625,980.8125 C 372.4614,981.16715 371.35803,981.53591 370.25,981.875 C 370.16487,981.90105 370.08517,981.94278 370,981.96875 L 370,981.9375 L 370,939.46875 L 370,822.34375 L 370,782.34375 z M 61.875,782.375 L 61.9375,782.375 L 102.25,782.375 L 230,782.375 L 230,929.0625 C 215.73408,923.40179 202.32874,916.02374 190,907.25 L 190,822.375 L 112.625,822.375 C 132.87179,876.47302 175.89918,919.46976 230,939.71875 L 230,981.8125 C 153.84231,958.5656 93.702999,898.52353 70.46875,822.375 L 70.375,822.375 C 66.44257,809.47387 63.589674,796.09469 61.875,782.375 z "
       style="opacity:1;fill:#000000;fill-opacity:1;fill-rule:nonzero;stroke:none;stroke-width:50;stroke-linecap:round;stroke-linejoin:round;stroke-miterlimit:4;stroke-dasharray:none;stroke-opacity:1"
       id="path3141" />
  </g>
</svg>
