<?xml version="1.0" encoding="UTF-8" standalone="no"?>
<svg
   xmlns:dc="http://purl.org/dc/elements/1.1/"
   xmlns:cc="http://creativecommons.org/ns#"
   xmlns:rdf="http://www.w3.org/1999/02/22-rdf-syntax-ns#"
   xmlns:svg="http://www.w3.org/2000/svg"
   xmlns="http://www.w3.org/2000/svg"
   xmlns:sodipodi="http://sodipodi.sourceforge.net/DTD/sodipodi-0.dtd"
   xmlns:inkscape="http://www.inkscape.org/namespaces/inkscape"
   width="380"
   height="361.39642"
   id="svg2"
   version="1.1"
   sodipodi:docname="Emblem_of_Tachikawa,_Tokyo.svg"
   inkscape:version="0.92.4 (5da689c313, 2019-01-14)">
  <metadata
     id="metadata9">
    <rdf:RDF>
      <cc:Work
         rdf:about="">
        <dc:format>image/svg+xml</dc:format>
        <dc:type
           rdf:resource="http://purl.org/dc/dcmitype/StillImage" />
        <dc:title></dc:title>
      </cc:Work>
    </rdf:RDF>
  </metadata>
  <sodipodi:namedview
     pagecolor="#ffffff"
     bordercolor="#666666"
     borderopacity="1"
     objecttolerance="10"
     gridtolerance="10"
     guidetolerance="10"
     inkscape:pageopacity="0"
     inkscape:pageshadow="2"
     inkscape:window-width="1920"
     inkscape:window-height="996"
     id="namedview7"
     showgrid="false"
     inkscape:zoom="1"
     inkscape:cx="104.39469"
     inkscape:cy="-9.0838254"
     inkscape:window-x="1912"
     inkscape:window-y="-8"
     inkscape:window-maximized="1"
     inkscape:current-layer="g2414"
     fit-margin-top="0"
     fit-margin-left="0"
     fit-margin-right="0"
     fit-margin-bottom="0" />
  <defs
     id="defs5" />
  <g
     id="g2414"
     transform="translate(-259.78125,-100.41608)">
    <path
       d="m 449.78125,100.41608 -83.52883,60.68014 c 1.26901,-0.16413 2.55707,-0.24971 3.87054,-0.24971 16.54095,0 29.9655,13.42454 29.9655,29.9655 -10e-6,16.54095 -13.42454,29.9655 -29.9655,29.9655 -16.54096,0 -29.9655,-13.42455 -29.9655,-29.9655 0,-4.60246 1.04629,-8.96234 2.90291,-12.8602 l -83.27912,60.49286 31.55742,97.13816 c 2.80715,-13.63586 14.8784,-23.90997 29.34122,-23.90997 16.54094,0 29.9655,13.42454 29.9655,29.9655 -1e-5,16.54095 -13.42455,29.9655 -29.9655,29.9655 -7.76923,0 -14.83826,-2.94837 -20.16429,-7.80352 l 31.83835,98.01216 h 103.03762 c -9.27458,-5.09577 -15.57582,-14.95945 -15.57582,-26.28224 0,-16.54097 13.42454,-29.9655 29.9655,-29.9655 16.54096,-10e-6 29.9655,13.42454 29.9655,29.9655 0,11.32278 -6.30124,21.18647 -15.57582,26.28224 h 103.03762 l 31.83835,-98.01216 c -5.32603,4.85515 -12.39506,7.80352 -20.16429,7.80352 -16.54095,0 -29.9655,-13.42455 -29.9655,-29.9655 0,-16.54096 13.42455,-29.9655 29.9655,-29.9655 14.46282,0 26.53407,10.27411 29.34122,23.90997 l 31.55742,-97.13816 -82.52998,-59.96222 c 1.70119,3.76073 2.65319,7.93587 2.65319,12.32956 -10e-6,16.54095 -13.42454,29.9655 -29.9655,29.9655 -16.54096,0 -29.9655,-13.42455 -29.9655,-29.9655 -10e-6,-16.54096 13.42455,-29.9655 29.9655,-29.9655 1.10936,0 2.19927,0.0696 3.27748,0.18728 z m 0,124.35683 c 41.90376,-1e-5 75.9126,34.00884 75.9126,75.9126 0,41.90375 -34.00884,75.9126 -75.9126,75.9126 -41.90376,0 -75.9126,-34.00885 -75.9126,-75.9126 0,-41.90377 34.00884,-75.9126 75.9126,-75.9126 z"
       id="path2384"
       style="fill:#10086b;fill-opacity:1;stroke:none;stroke-width:0.99884999"
       inkscape:connector-curvature="0" />
    <path
       d="m 422.46875,242.03125 c 0,0 -28.46875,1.83533 -28.46875,32.46875 10e-6,24.9455 16,28.92284 16,56.5 10e-6,16.97886 -7.5,28.96875 -7.5,28.96875 0,-10e-6 28.46875,-3.22768 28.46875,-32.96875 -10e-6,-23.87942 -16.4375,-30.71537 -16.4375,-56 0,-17.14824 7.9375,-28.96875 7.9375,-28.96875 z m 37.5,0 c 0,0 -28.46875,1.83533 -28.46875,32.46875 10e-6,24.9455 16,28.92284 16,56.5 10e-6,16.97886 -7.5,28.96875 -7.5,28.96875 0,-10e-6 28.46875,-3.22768 28.46875,-32.96875 -10e-6,-23.87942 -16.4375,-30.71537 -16.4375,-56 0,-17.14824 7.9375,-28.96875 7.9375,-28.96875 z m 37.5,0 c 0,0 -28.46875,1.83533 -28.46875,32.46875 10e-6,24.9455 16,28.92284 16,56.5 10e-6,16.97886 -7.5,28.96875 -7.5,28.96875 0,-10e-6 28.46875,-3.22768 28.46875,-32.96875 -10e-6,-23.87942 -16.4375,-30.71537 -16.4375,-56 0,-17.14824 7.9375,-28.96875 7.9375,-28.96875 z"
       id="path2404"
       style="fill:#10086b;fill-opacity:1;stroke:none"
       inkscape:connector-curvature="0" />
  </g>
</svg>
