<?xml version="1.0" encoding="UTF-8" standalone="no"?>
<!-- Created with Inkscape (http://www.inkscape.org/) -->
<svg
   xmlns:svg="http://www.w3.org/2000/svg"
   xmlns="http://www.w3.org/2000/svg"
   version="1.0"
   width="880"
   height="880"
   id="svg2">
  <defs
     id="defs4" />
  <g
     transform="translate(40,-212.36218)"
     id="layer1">
    <path
       d="M 400,252.375 C 179.2,252.375 1.6105635e-013,431.57499 0,652.375 C -9.4739031e-015,873.175 179.2,1052.375 400,1052.375 C 620.8,1052.375 800,873.175 800,652.375 L 740,652.375 L 700,652.375 L 300,652.375 C 300,616.50809 318.92087,585.02356 347.3125,567.375 L 645.71875,567.375 L 790.84375,567.375 C 789.75922,562.37094 788.67631,557.37003 787.40625,552.4375 C 786.10026,547.36541 784.62302,542.36731 783.125,537.375 L 633.15625,537.375 L 400,537.375 L 400,452.375 C 332.39369,452.375 272.58164,485.9737 236.375,537.375 L 166.84375,537.375 C 166.45956,538.15189 166.03287,538.90625 165.65625,539.6875 C 163.82984,543.4761 162.08281,547.29969 160.4375,551.1875 C 158.79219,555.07531 157.24,559.01843 155.78125,563 C 155.25161,564.44562 154.78581,565.91751 154.28125,567.375 L 218.9375,567.375 C 206.79463,593.17697 200,621.98613 200,652.375 C 200,688.79506 209.74919,722.95225 226.78125,752.375 L 270,752.375 L 400,752.375 L 682.875,752.375 C 641.66095,868.85461 530.54005,952.375 400,952.375 C 234.39999,952.37502 100,817.975 100,652.375 C 100,486.775 234.4,352.375 400,352.375 C 488.78446,352.375 568.58741,391.01417 623.53125,452.375 L 746.40625,452.375 C 677.2115,332.84403 547.9586,252.375 400,252.375 z "
       style="opacity:1;fill:#000000;fill-opacity:1;fill-rule:nonzero;stroke:none;stroke-width:50;stroke-linecap:round;stroke-linejoin:round;stroke-miterlimit:4;stroke-dasharray:none;stroke-opacity:1"
       id="path2170" />
  </g>
</svg>
