<svg xmlns="http://www.w3.org/2000/svg" viewBox="-39 -39 78 78" width="400" height="400" fill="#be2900">
<mask id="a">
<circle r="37" stroke="#fff" stroke-width="4" fill="#000"/>
<circle r="31" stroke="#fff" stroke-width="4" fill="#000"/>
<path d="M30-5.2v12h10.4v-12z" fill="#fff"/>
<path d="M-40-1.2h80v2.4h-80z" fill="#000"/>
</mask>
<circle r="39" mask="url(#a)"/>
<path d="M-21 0A42.953463 42.953463 0 0 0 0-21 42.953463 42.953463 0 0 0 21 0 42.953463 42.953463 0 0 0 14.538462 3.692308 49.203658 49.203658 0 0 1 0-9 49.203658 49.203658 0 0 1-14.538462 3.692308 42.953463 42.953463 0 0 0-21 0M-13.20783 4.652308A50.702663 50.702663 0 0 0 0-6.6 50.702663 50.702663 0 0 0 13.20783 4.652308 42.953463 42.953463 0 0 0 0 21 42.953463 42.953463 0 0 0-5.588653 12.005891L2.402971 5.058878 1.090959 3.549582-6.881431 10.479875A42.953463 42.953463 0 0 0-13.20783 4.652308z"/>
</svg>