<?xml version="1.0" encoding="UTF-8" standalone="no"?>
<svg
   version="1.1"
   height="247.30322"
   width="250"
   id="svg6"
   sodipodi:docname="Emblem_of_Fussa,_Tokyo.svg"
   inkscape:version="1.2.1 (9c6d41e410, 2022-07-14)"
   xmlns:inkscape="http://www.inkscape.org/namespaces/inkscape"
   xmlns:sodipodi="http://sodipodi.sourceforge.net/DTD/sodipodi-0.dtd"
   xmlns="http://www.w3.org/2000/svg"
   xmlns:svg="http://www.w3.org/2000/svg">
  <defs
     id="defs10" />
  <sodipodi:namedview
     id="namedview8"
     pagecolor="#ffffff"
     bordercolor="#666666"
     borderopacity="1.0"
     inkscape:showpageshadow="2"
     inkscape:pageopacity="0.0"
     inkscape:pagecheckerboard="0"
     inkscape:deskcolor="#d1d1d1"
     showgrid="false"
     inkscape:zoom="1.0327118"
     inkscape:cx="-18.398163"
     inkscape:cy="21.787298"
     inkscape:window-width="1920"
     inkscape:window-height="996"
     inkscape:window-x="1912"
     inkscape:window-y="-8"
     inkscape:window-maximized="1"
     inkscape:current-layer="svg6" />
  <g
     transform="matrix(0.92992114,0,0,0.92992114,-130.05877,-309.63584)"
     id="g4">
    <path
       d="m 314.19,332.97 -36.36,50.81 c 42.09,1.86 75.64,36.56 75.64,79.11 0,33.76 -21.13,62.58 -50.88,73.97 l 22.52,51.96 c 49.04,-20.28 83.59,-69.02 83.59,-125.94 0,-61.06 -39.77,-112.72 -94.52,-129.91 z M 195.1,462.89 c 0,-42.55 33.56,-77.25 75.64,-79.11 l -36.36,-50.81 c -54.76,17.2 -94.52,68.86 -94.52,129.91 0,66.1 46.62,121.19 108.4,133.45 l -2.72,-59.64 C 216.02,525.18 195.1,496.48 195.1,462.88 Z m 107.16,53.66 -47.16,-65.07 6.61,56.29 -12.16,10.14 3.32,79.27 c 6.98,1.13 14.13,1.73 21.42,1.73 16.38,0 32.07,-2.97 46.59,-8.39 l -20.83,-48.05 c 1.67,-4.03 6.8,-17.88 2.21,-25.9 z"
       fill="#333399"
       id="path2" />
  </g>
</svg>
