<?xml version="1.0"?>
<svg xmlns="http://www.w3.org/2000/svg" width="500" height="500">
 <path style="fill:#060;stroke:none" d="M 126.72671,25 L 53.728766,151.33937 L 280.1988,151.33937 C 297.63221,151.33937 311.78367,173.3421 311.78365,200.48068 C 311.78362,234.57336 293.97423,264.65635 267.01045,282.21486 L 418.46649,282.21486 C 445.30471,254.97303 461.89567,217.55988 461.89565,176.12003 C 461.89565,92.425144 394.4705,25 310.77562,25 L 126.72671,25 z M 81.533507,217.78514 C 54.695289,245.02697 38.104322,282.44012 38.104349,323.87997 C 38.104349,407.57483 105.52949,475 189.22438,475 L 373.27328,475 L 446.27123,348.66063 L 219.80119,348.66063 C 202.36779,348.6606 188.21633,326.6579 188.21635,299.51932 C 188.21638,265.42661 206.02577,235.34365 232.98954,217.78514 L 81.533507,217.78514 z" />
</svg>
