<?xml version="1.0"?>
<svg xmlns="http://www.w3.org/2000/svg" width="1300" height="1300">
<path
   d="m 1300,650 c 0,0 -126.555,-0.578 -172.027,147.211 -0.082,0.273 -0.164,0.516 -0.246,0.789 -0.313,1 -0.641,2 -0.961,3 -0.406,1.281 -0.82,2.563 -1.223,3.773 -49.324,151.633 -169.137,271.445 -320.77,320.77 -1.211,0.402 -2.492,0.816 -3.773,1.223 -1,0.32 -2,0.648 -3,0.961 -0.273,0.082 -0.516,0.164 -0.789,0.246 C 649.422,1173.445 650,1300 650,1300 c 0,0 0.578,-126.555 -147.211,-172.027 -0.273,-0.082 -0.516,-0.164 -0.785,-0.246 -1.004,-0.313 -2,-0.641 -3.004,-0.961 -1.281,-0.406 -2.563,-0.82 -3.773,-1.223 -151.637,-49.324 -271.445,-169.137 -320.77,-320.77 -0.402,-1.211 -0.816,-2.492 -1.223,-3.773 -0.32,-1 -0.648,-2 -0.961,-3 -0.082,-0.273 -0.164,-0.516 -0.246,-0.789 C 126.555,649.422 0,650 0,650 c 0,0 126.555,0.578 172.027,-147.211 0.059,-0.203 0.121,-0.375 0.184,-0.578 0.41,-1.336 0.844,-2.656 1.27,-3.984 0.297,-0.918 0.594,-1.855 0.887,-2.734 49.289,-151.844 169.234,-271.797 321.059,-321.102 0.969,-0.324 1.996,-0.648 3.008,-0.977 1.246,-0.398 2.48,-0.801 3.73,-1.188 0.215,-0.07 0.406,-0.133 0.625,-0.199 C 650.578,126.555 650,0 650,0 c 0,0 -0.578,126.555 147.211,172.027 0.219,0.066 0.41,0.129 0.625,0.199 1.25,0.387 2.484,0.789 3.73,1.188 1.012,0.328 2.043,0.652 3.008,0.977 151.824,49.305 271.77,169.258 321.059,321.102 0.297,0.879 0.594,1.816 0.887,2.734 0.426,1.328 0.859,2.648 1.27,3.984 0.063,0.203 0.121,0.375 0.184,0.578 C 1173.445,650.578 1300,650 1300,650 Z M 650,250 c -220.898,0 -400,179.063 -400,400 0,220.898 179.102,400 400,400 220.938,0 400,-179.102 400,-400 0,-220.937 -179.062,-400 -400,-400 z m 298.023,361.371 c -9.238,6.535 -51.258,32.551 -134.984,32.551 -17.941,0 -36.461,-2.852 -55.34,-7.492 -1.023,-0.254 -2.066,-0.543 -3.098,-0.809 C 673.551,614.91 586.352,562.5 512.426,562.5 420.305,562.5 350,688.887 350,688.887 l 1.977,-0.258 c 9.234,-6.535 51.258,-32.555 134.992,-32.555 17.93,0 36.453,2.863 55.328,7.5 1.031,0.25 2.07,0.535 3.102,0.805 81.055,20.715 168.242,73.121 242.176,73.121 92.121,0 162.426,-126.391 162.426,-126.391 z"
   style="fill:#009600" />
</svg>