<?xml version="1.0" encoding="UTF-8" standalone="no"?>
<svg
   version="1.1"
   width="430"
   height="454.125"
   viewBox="-250 -238 430 454.125"
   id="svg14"
   sodipodi:docname="Kiyose, Tokyo Chapter.svg"
   inkscape:version="1.2.1 (9c6d41e410, 2022-07-14)"
   xmlns:inkscape="http://www.inkscape.org/namespaces/inkscape"
   xmlns:sodipodi="http://sodipodi.sourceforge.net/DTD/sodipodi-0.dtd"
   xmlns="http://www.w3.org/2000/svg"
   xmlns:svg="http://www.w3.org/2000/svg"
   xmlns:rdf="http://www.w3.org/1999/02/22-rdf-syntax-ns#"
   xmlns:cc="http://creativecommons.org/ns#"
   xmlns:dc="http://purl.org/dc/elements/1.1/">
  <defs
     id="defs18" />
  <sodipodi:namedview
     id="namedview16"
     pagecolor="#ffffff"
     bordercolor="#666666"
     borderopacity="1.0"
     inkscape:showpageshadow="2"
     inkscape:pageopacity="0.0"
     inkscape:pagecheckerboard="0"
     inkscape:deskcolor="#d1d1d1"
     showgrid="false"
     inkscape:zoom="0.841"
     inkscape:cx="158.14507"
     inkscape:cy="296.67063"
     inkscape:window-width="1920"
     inkscape:window-height="996"
     inkscape:window-x="1912"
     inkscape:window-y="-8"
     inkscape:window-maximized="1"
     inkscape:current-layer="svg14" />
  <title
     id="title2">Kiyose, Tokyo Chapter</title>
  <polygon
     points="-250,-238 250,-238 250,262 -250,262 "
     style="fill:none;stroke:none"
     id="polygon4"
     transform="translate(-35,-23.875)" />
  <g
     style="fill:#0f3679;stroke:none"
     id="g12"
     transform="translate(-35,-23.875)">
    <path
       d="m 18,-214.125 v 50.15625 A 165,165 0 0 1 165,0 165,165 0 0 1 0,165 165,165 0 0 1 -165,0 165,165 0 0 1 -18,-163.8125 v -50.28125 A 215,215 0 0 0 -215,0 215,215 0 0 0 0,215 215,215 0 0 0 215,0 215,215 0 0 0 18,-214.125 Z"
       id="path6" />
    <path
       d="M -18,-148.78125 A 150,150 0 0 0 -150,0 150,150 0 0 0 0,150 150,150 0 0 0 150,0 150,150 0 0 0 18,-148.71875 v 50.4375 A 100,100 0 0 1 100,0 100,100 0 0 1 0,100 100,100 0 0 1 -100,0 100,100 0 0 1 -18,-98.3125 Z"
       id="path8" />
    <rect
       width="56"
       height="240"
       x="-28"
       y="0"
       id="rect10" />
  </g>
  <metadata
     id="metadata857">
    <rdf:RDF>
      <cc:Work
         rdf:about="">
        <dc:title>Kiyose, Tokyo Chapter</dc:title>
      </cc:Work>
    </rdf:RDF>
  </metadata>
</svg>
