<?xml version="1.0" encoding="UTF-8" standalone="no"?>
<!-- Created with Inkscape (http://www.inkscape.org/) -->
<svg
   xmlns:svg="http://www.w3.org/2000/svg"
   xmlns="http://www.w3.org/2000/svg"
   version="1.0"
   width="640"
   height="640"
   id="svg2">
  <defs
     id="defs4" />
  <g
     transform="translate(20,-432.36218)"
     id="layer1">
    <path
       d="M 300,452.375 C 148.89577,452.375 23.779433,564.28884 3.03125,709.6875 C 16.98631,688.26948 40.632779,672.98469 66.4375,672.53125 C 67.241589,672.46855 68.041875,672.40057 68.84375,672.375 C 75.679051,672.15703 82.422403,673.27864 88.78125,675.5 C 121.84482,602.88748 195.05485,552.375 280,552.375 C 329.02287,552.375 374.128,569.21832 409.875,597.40625 C 264.29603,621.91916 148.28889,733.88781 117.84375,877.375 L 201,877.375 C 233.21786,770.38412 332.55354,692.375 450,692.375 C 459.66732,692.375 469.2006,692.93331 478.59375,693.96875 C 480.94217,700.78221 482.94768,707.76528 484.59375,714.875 C 473.29279,713.23165 461.75129,712.375 450,712.375 C 343.71451,712.375 253.52218,781.59777 222,877.375 L 310.09375,877.375 C 336.04162,832.55026 384.51505,802.375 440,802.375 C 455.59382,802.375 470.6118,804.76145 484.75,809.1875 C 463.45631,902.59711 379.8297,972.375 280,972.375 C 170.8138,972.37499 81.034438,888.91035 70.96875,782.34375 C 98.118809,781.82301 120,759.64887 120,732.375 C 120,704.775 97.599996,682.375 70,682.375 C 69.1375,682.375 68.289319,682.39427 67.4375,682.4375 C 67.406295,682.43863 67.374944,682.43633 67.34375,682.4375 C 29.937253,683.84009 -7.1054274e-015,714.62743 0,752.375 C 0,917.975 134.40002,1052.375 300,1052.375 C 465.59999,1052.375 600.00003,917.975 600,752.375 C 600,586.775 465.60001,452.375 300,452.375 z "
       style="opacity:1;fill:#000000;fill-opacity:1;fill-rule:nonzero;stroke:none;stroke-width:50;stroke-linecap:round;stroke-linejoin:round;stroke-miterlimit:4;stroke-dasharray:none;stroke-opacity:1"
       id="path3141" />
  </g>
</svg>
