<?xml version="1.0" encoding="UTF-8" standalone="no"?>
<svg
   version="1.1"
   height="242.76225"
   width="325"
   id="svg6"
   sodipodi:docname="Emblem_of_Musashimurayama,_Tokyo.svg"
   inkscape:version="1.2.1 (9c6d41e410, 2022-07-14)"
   xmlns:inkscape="http://www.inkscape.org/namespaces/inkscape"
   xmlns:sodipodi="http://sodipodi.sourceforge.net/DTD/sodipodi-0.dtd"
   xmlns="http://www.w3.org/2000/svg"
   xmlns:svg="http://www.w3.org/2000/svg">
  <defs
     id="defs10" />
  <sodipodi:namedview
     id="namedview8"
     pagecolor="#ffffff"
     bordercolor="#666666"
     borderopacity="1.0"
     inkscape:showpageshadow="2"
     inkscape:pageopacity="0.0"
     inkscape:pagecheckerboard="0"
     inkscape:deskcolor="#d1d1d1"
     showgrid="false"
     inkscape:zoom="1.6771029"
     inkscape:cx="105.53914"
     inkscape:cy="133.86179"
     inkscape:window-width="1920"
     inkscape:window-height="996"
     inkscape:window-x="1912"
     inkscape:window-y="-8"
     inkscape:window-maximized="1"
     inkscape:current-layer="svg6" />
  <g
     transform="matrix(1.0385995,0,0,1.0385995,-730.70668,-787.62193)"
     id="g4">
    <path
       d="m 1016.46,766.75 c -141.26,-3.91 -195,103.8 -195,103.8 l -24.93,-83.94 -92.98,-28.26 c 19.24,46.25 69.4,167.31 79.46,181.5 22.74,32.06 63.74,41.75 74.55,52.24 9.7,-10.12 41.01,-24.65 60.77,-44.04 13.59,-13.34 33.06,-39.41 19.76,-81.63 0.23,0.66 30.57,0 30.57,0 0,0 48.11,-99.65 47.81,-99.66 M 853.41,931.88 c -18.4,0 -33.31,-14.91 -33.31,-33.31 0,-18.4 14.91,-33.31 33.31,-33.31 18.4,0 33.31,14.91 33.31,33.31 0,18.4 -14.92,33.31 -33.31,33.31 z"
       fill="#008050"
       id="path2" />
  </g>
</svg>
