<?xml version="1.0" encoding="UTF-8" standalone="no"?>
<svg
   height="150"
   width="150"
   version="1"
   id="svg4"
   sodipodi:docname="Emblem_of_Tama,_Tokyo.svg"
   inkscape:version="1.2.1 (9c6d41e410, 2022-07-14)"
   xmlns:inkscape="http://www.inkscape.org/namespaces/inkscape"
   xmlns:sodipodi="http://sodipodi.sourceforge.net/DTD/sodipodi-0.dtd"
   xmlns="http://www.w3.org/2000/svg"
   xmlns:svg="http://www.w3.org/2000/svg">
  <defs
     id="defs8" />
  <sodipodi:namedview
     id="namedview6"
     pagecolor="#ffffff"
     bordercolor="#666666"
     borderopacity="1.0"
     inkscape:showpageshadow="2"
     inkscape:pageopacity="0.0"
     inkscape:pagecheckerboard="0"
     inkscape:deskcolor="#d1d1d1"
     showgrid="false"
     inkscape:zoom="2.0365644"
     inkscape:cx="43.210026"
     inkscape:cy="96.486023"
     inkscape:window-width="1920"
     inkscape:window-height="996"
     inkscape:window-x="1912"
     inkscape:window-y="-8"
     inkscape:window-maximized="1"
     inkscape:current-layer="svg4" />
  <path
     d="M 75,0 C 33.602273,0 0,33.602273 0,75 c 0,41.39773 33.602273,75 75,75 41.39773,0 75,-33.60227 75,-75 C 150,33.602273 116.39773,0 75,0 Z m 0,5.863636 c 38.17045,0 69.13636,30.965909 69.13636,69.136364 0,38.17045 -30.96591,69.13636 -69.13636,69.13636 C 36.829545,144.13636 5.863636,113.17045 5.863636,75 5.863636,36.829545 36.829545,5.863636 75,5.863636 Z m -4.181818,13.022728 c -12.409091,0 -19.193182,7.659091 -21.613637,10.068181 l -37.568181,37.579546 8.25,8.261364 37.579545,-37.579546 c 3.75,-3.75 7.272727,-6.261364 13.352273,-6.261364 9.113636,0 16.511363,7.409091 16.511363,16.522728 0,7.261363 -4.465909,11.465909 -6.306818,13.306818 L 70.75,71.034091 51.659091,51.943182 l -8.261364,8.25 19.113637,19.102273 -36.056819,36.045455 8.261364,8.25 54.556818,-54.556819 c 3.590909,-3.590909 7.522723,-6.261364 13.443183,-6.261364 9.11364,0 16.51136,7.409091 16.51136,16.522728 0.125,5.465909 -3.17045,10.125 -6.31818,13.272727 l -10.31818,10.318178 -19.102274,-19.113633 -8.261363,8.261364 19.102277,19.113639 -19.034095,19.03409 8.25,8.26136 37.613635,-37.61363 c 5.79546,-5.79546 10.14773,-12.250005 10.14773,-21.534095 0,-14.227273 -10.44318,-26.045455 -24.05682,-28.21591 l 14.27273,-14.28409 -8.25,-8.261364 -14.26137,14.261364 C 96.77273,29.238636 85,18.886364 70.818182,18.886364 Z"
     fill="#a048a0"
     id="path2"
     style="stroke-width:1.13636" />
</svg>
