<?xml version="1.0"?>
<svg xmlns="http://www.w3.org/2000/svg" width="250" height="157.9613">
<path transform="translate(-29.614816,-645.04109)" style="fill:#000;stroke:none" d="m 167.13418,649.79422 c 27.11589,5.76014 47.45081,29.84153 47.45081,58.67693 0,33.13013 -26.84012,59.97024 -59.97024,59.97024 -33.13012,0 -60.007436,-26.84011 -60.007436,-59.97024 0,-28.84371 20.374876,-52.93265 47.509796,-58.68427 1.56935,-0.33265 3.19695,-0.41554 4.77325,-0.81129 8.35414,-2.09741 3.56564,-3.9345 0.0592,-3.9345 l -117.334744,0 58.556549,36.23512 c -7.943718,12.3222 -12.574405,26.99466 -12.574405,42.74553 0,43.63022 35.38764,78.98066 79.01785,78.98066 43.63022,0 78.98066,-35.35044 78.98066,-78.98066 0,-15.73265 -4.61037,-30.39495 -12.5372,-42.70833 l 58.55655,-36.27232 -117.15367,0 c -3.58906,0 -8.37259,1.8725 -0.004,3.92309 2.31414,0.44875 3.50854,0.582 4.67618,0.83004 z" />
</svg>
