<svg xmlns:svg="http://www.w3.org/2000/svg" xmlns="http://www.w3.org/2000/svg" version="1.1" height="377.07" width="384"><g transform="translate(-974.9718,-230.03683)"><path d="m1344.97 418.59c0 96.4-79.69 174.52-178 174.52-98.3 0-178-78.12-178-174.52 0-96.41 79.7-174.56 178-174.56 98.3 0 178 78.15 178 174.56" fill="#0042ce"/><path d="m1308.8 316.45c32.25 44.79-5.2 126.85-83.62 183.28-78.41 56.41-168.1 65.87-200.34 21.09-32.24-44.79 5.21-126.84 83.62-183.27 78.41-56.44 168.09-65.88 200.34-21.1" fill="#fff"/><path d="m1248.43 295.69c-32.2 0.7-71.59 14.72-108.08 40.98-64.86 46.68-95.98 114.36-69.49 151.16 26.49 36.81 100.55 28.79 165.41-17.89 64.86-46.68 95.99-114.37 69.48-151.17-11.59-16.1-32.28-23.62-57.32-23.08zm6.08 1.53c21.4 0.29 39.06 7.23 49.39 21.24 25.45 34.49-3.19 98.75-63.94 143.55-60.73 44.79-130.59 53.15-156.02 18.67-25.42-34.49 3.2-98.75 63.94-143.54 36.06-26.59 75.34-40.34 106.63-39.91zM1256.46 300.51c-28.65-0.2-64.7 12.58-97.89 37.06-55.91 41.22-82.52 100.02-59.43 131.32 23.07 31.3 87.1 23.25 143.01-17.97 55.91-41.23 82.53-100.03 59.43-131.32-9.38-12.72-25.52-18.94-45.12-19.08zm0.97 1.6c18.61 0.23 33.95 6.22 42.91 18.37 22.08 29.91-2.9 85.77-55.77 124.75-52.86 38.99-113.6 46.36-135.66 16.44-22.05-29.91 2.93-85.76 55.79-124.74 31.39-23.15 65.54-35.15 92.73-34.82zM1254.78 306.32c-23.82 0.72-52.82 11.37-79.54 31.08-47.49 35.02-69.79 85.4-49.79 112.52 20 27.12 74.72 20.71 122.22-14.32 47.5-35.02 69.8-85.4 49.78-112.52-8.75-11.87-24.15-17.31-42.68-16.75zm1.05 2.72c17.43-0.58 31.89 4.49 40.09 15.61 18.75 25.41-2.36 72.79-47.15 105.81-44.78 33.02-96.28 39.21-115.02 13.79-18.74-25.41 2.38-72.78 47.17-105.81 25.19-18.58 52.5-28.66 74.91-29.41zM1258 312.88c-19.61 0.52-43.46 9.22-65.41 25.4-38.99 28.76-57.2 70.27-40.65 92.72 16.56 22.45 61.6 17.32 100.59-11.44 39.01-28.77 57.22-70.27 40.65-92.72-7.24-9.82-19.93-14.36-35.18-13.96zm0.85 2.11c14.37-0.37 26.33 3.93 33.16 13.19 15.62 21.18-1.48 60.29-38.21 87.37-36.71 27.08-79.15 31.86-94.76 10.69-15.62-21.18 1.5-60.29 38.21-87.36 20.66-15.23 43.12-23.42 61.6-23.89zM1288.99 331.05c12.36 16.74-1.73 48.09-31.47 70.02-29.72 21.92-63.83 26.12-76.19 9.38-12.35-16.75 1.74-48.1 31.48-70.01 29.73-21.92 63.84-26.13 76.18-9.38" fill="#0042ce"/><path d="m1078.18 331.91c9.6 13.02-0.64 36.84-22.86 53.23-22.22 16.39-48 19.13-57.6 6.11-9.6-13.01 0.64-36.84 22.86-53.22 22.22-16.39 48-19.12 57.6-6.12" fill="#fff"/></g></svg>