<?xml version="1.0" encoding="UTF-8" standalone="no"?>
<!-- Created with Inkscape (http://www.inkscape.org/) -->

<svg
   xmlns:svg="http://www.w3.org/2000/svg"
   xmlns="http://www.w3.org/2000/svg"
   version="1.1"
   width="520"
   height="550"
   id="svg2816"
   xml:space="preserve"><defs
     id="defs2820" /><g
     transform="matrix(1.25,0,0,-1.25,-138.15,615.50043)"
     id="g2826"><path
       d="m 154.49,412.5404 c 0.96,8.82 8.49,15.42 17.37,15.42 2.52,0 5.04,-0.54 7.35,-1.62 l 55.41,-25.86 -24.06,-228.42 -84.12,0 28.05,240.48 z m 356.55,-240.48 -28.05,240.48 c -1.05,8.82 -8.55,15.42 -17.37,15.42 -2.58,0 -5.1,-0.54 -7.41,-1.62 l -55.35,-25.86 24.06,-228.42 84.12,0 z m -180.3,-100.140056 96.18,0 -64.14,132.240056 40.08,96.18 -12.06,100.14 -28.02,0 -16.05,56.07 c -3.63,12.57 -15.03,21.15 -28.05,21.15 -13.08,0 -24.48,-8.58 -28.02,-21.15 l -15.96,-56.07 -28.08,0 -12,-100.14 72.12,0 0,-8.04 -68.76,0 36.72,-88.14 -64.14,-132.240056 96.18,0 11.94,32.040056 12.06,-32.040056 z"
       id="path2886"
       style="fill:#178633;fill-opacity:1;stroke:none" /></g></svg>