<svg xmlns:svg="http://www.w3.org/2000/svg" xmlns="http://www.w3.org/2000/svg" version="1" width="384" height="384"><g transform="translate(-257.99999,-107.99999)"><path d="m636.12 285.25a179.92 179.92 0 1 1-359.83 0 179.92 179.92 0 1 1 359.83 0z" transform="matrix(1.0004598,0,0,1.0004598,-6.4138031,14.620674)" fill="#30539b"/><path d="m384.94 146.44c-4.5 0.06-23.25 0.88-35.94 10.06 26 5 36 67.75 46 129.5 18 136 105.25 157 120 157 6.75 0 32.44 1.75 40-2.5C529.25 422.25 490.47 368 485.97 295 478.26 241.24 459.44 150.44 385.94 146.44c0 0-0.36-0.01-1 0zm1.03 1.53c4.88 0 11.78 7.84 18.97 13.03-20.44 14.13-27.97 30-27.97 30-3.06-16.44-3.5-30-3.5-30 0-6.41 7.68-13.03 12.5-13.03zm-0.69 4.97c-4.73 0-8.56 3.83-8.56 8.56 0 4.73 3.83 8.59 8.56 8.59 4.73 0 8.56-3.86 8.56-8.59 0-4.73-3.83-8.56-8.56-8.56zm0 2.81c3.17 0 5.75 2.58 5.75 5.75 0 3.17-2.58 5.75-5.75 5.75-3.17 0-5.75-2.58-5.75-5.75 0-3.17 2.58-5.75 5.75-5.75zM521 175c0 0 8.06 10.22 8.06 22.25 0 35-32.06 61.39-32.06 113.72 0 34.69 19.22 73.13 68.03 83.03 0 0-11.06-6.74-11.06-20.53 0-28.31 31.03-64.66 31.03-114.87 0 0 1.76-69.81-64-83.59zm26.44 16.38c7.26 0 11.19 5.88 17.56 21.63-15.35-1.62-38.06 12-38.06 12-1.69-1.12 5.19-15.94 10.94-26.69 1.77-3.31 6.32-6.94 9.56-6.94zm0.5 3.19c-4.67 0-8.47 3.79-8.47 8.47 0 4.67 3.79 8.47 8.47 8.47 4.67 0 8.47-3.79 8.47-8.47 0-4.67-3.79-8.47-8.47-8.47zm0 2.5c3.29 0 5.97 2.67 5.97 5.97 0 3.29-2.67 5.97-5.97 5.97-3.29 0-5.97-2.67-5.97-5.97 0-3.29 2.67-5.97 5.97-5.97zM316.97 238c0 0 12 10.61 12 31.94 0 20.51-13.97 54.04-13.97 71 0 53.43 50.76 84.06 71.94 84.06 0 0-1.87-14.54-1.87-25.09 0-20.33 4.88-63.44 4.88-80.03 0-63.71-45.67-81.87-72.97-81.87zm29.41 9.94c0 0 8-0.94 20.63 19.06-17.44 2.63-36 13-36 13 1.38-21.62 3.56-32.06 15.38-32.06zm-0.03 3.94c-4.54 0-8.22 3.68-8.22 8.22 0 4.54 3.68 8.22 8.22 8.22 4.54 0 8.22-3.68 8.22-8.22 0-4.54-3.68-8.22-8.22-8.22zm0 2.5c3.16 0 5.72 2.56 5.72 5.72 0 3.16-2.56 5.72-5.72 5.72-3.16 0-5.72-2.56-5.72-5.72 0-3.16 2.56-5.72 5.72-5.72z" fill="#fff"/></g></svg>