<?xml version="1.0" encoding="UTF-8" standalone="no"?>
<!-- Created with Inkscape (http://www.inkscape.org/) -->

<svg
   version="1.0"
   width="300"
   height="298.99039"
   id="svg2"
   sodipodi:docname="神奈川県川崎市市章.svg"
   inkscape:version="1.2.1 (9c6d41e410, 2022-07-14)"
   xmlns:inkscape="http://www.inkscape.org/namespaces/inkscape"
   xmlns:sodipodi="http://sodipodi.sourceforge.net/DTD/sodipodi-0.dtd"
   xmlns="http://www.w3.org/2000/svg"
   xmlns:svg="http://www.w3.org/2000/svg">
  <sodipodi:namedview
     id="namedview6"
     pagecolor="#ffffff"
     bordercolor="#666666"
     borderopacity="1.0"
     inkscape:showpageshadow="2"
     inkscape:pageopacity="0.0"
     inkscape:pagecheckerboard="0"
     inkscape:deskcolor="#d1d1d1"
     showgrid="false"
     inkscape:zoom="0.99112801"
     inkscape:cx="58.519182"
     inkscape:cy="115.52494"
     inkscape:window-width="1920"
     inkscape:window-height="996"
     inkscape:window-x="1912"
     inkscape:window-y="-8"
     inkscape:window-maximized="1"
     inkscape:current-layer="svg2" />
  <defs
     id="defs4" />
  <g
     id="layer1"
     transform="matrix(1.1538462,0,0,1.1538462,-23.076924,-23.076924)">
    <path
       d="M 150,20 C 78.24,20 20,78.24001 20,150 20,216.68588 70.29881,271.6787 135,279.125 V 259 C 81.36375,251.68026 40,205.63532 40,150 39.999997,89.28 89.28001,40 150,40 c 60.71999,10e-7 110,49.28 110,110 0,55.63532 -41.36375,101.68026 -95,109 v 20.125 C 229.70119,271.6787 280.00001,216.68588 280,150 280,78.24 221.76001,20.000002 150,20 Z m 0,30 C 94.8,50 49.999999,94.8 50,150 c 0,50.09809 36.91334,91.62608 85,98.875 V 228.5625 C 98.01062,221.52871 70,189.02747 70,150 c 0,-43.47 34.73005,-78.90411 77.9375,-80 0.68583,-0.0174 1.3725,0 2.0625,0 44.15999,0 80,35.84 80,80 -1e-5,39.02747 -28.01062,71.52871 -65,78.5625 V 248.875 C 213.08666,241.62609 249.99999,200.09808 250,150 250,94.8 205.19999,50 150,50 Z m 0,30 c -38.63999,0 -70,31.36 -70,70 0,33.48554 23.56881,61.46529 55,68.34375 v -20.6875 C 114.72579,191.27998 100,172.37036 100,150 c 0,-27.59999 22.40001,-50 50,-50 27.6,0 50,22.4 50,50 0,22.37037 -14.72579,41.27998 -35,47.65625 v 20.6875 C 196.43119,211.46529 220.00001,183.48554 220,150 220,111.36 188.64,80 150,80 Z"
       style="opacity:1;fill:#000000;fill-opacity:1;fill-rule:nonzero;stroke:none;stroke-width:80;stroke-linecap:round;stroke-linejoin:round;stroke-miterlimit:4;stroke-dasharray:none;stroke-opacity:1"
       id="path2160" />
  </g>
</svg>
