<?xml version="1.0" encoding="UTF-8" standalone="no"?>
<!-- Created with Inkscape (http://www.inkscape.org/) -->
<svg
   xmlns:svg="http://www.w3.org/2000/svg"
   xmlns="http://www.w3.org/2000/svg"
   version="1.0"
   width="640"
   height="640"
   id="svg2">
  <defs
     id="defs4" />
  <g
     id="layer1">
    <path
       d="M 317.875,19.03125 C 310.34331,19.108657 302.72279,19.724229 295.0625,20.9375 C 210.55588,34.322034 152.83421,113.77463 166.21875,198.28125 C 170.84475,227.48873 183.47879,253.40138 201.375,274.375 C 208.83566,284.86611 221.80514,290.83676 235.375,288.6875 C 254.45713,285.6652 267.49107,267.73838 264.46875,248.65625 C 261.44645,229.57411 243.51964,216.5402 224.4375,219.5625 C 213.837,221.24146 205.12058,227.53792 199.96875,236.0625 C 193.82545,225.59755 189.3871,213.89133 187.375,201.1875 C 178.73984,146.66712 215.97959,95.416433 270.5,86.78125 C 311.89941,80.224224 351.40877,100.11139 371.8125,133.9375 C 385.38315,125.42631 400.16184,118.8838 415.6875,114.75 C 430.17648,110.56344 445.11957,108.71975 460.03125,108.96875 C 434.77298,54.321545 379.20446,18.400935 317.875,19.03125 z M 456.9375,119.21875 C 448.79647,119.29885 440.60889,120.04443 432.46875,121.4375 C 417.4408,124.00935 402.51273,128.84184 388.21875,136.125 C 361.87029,149.5502 341.13565,169.56098 326.71875,193.0625 C 319.04663,203.39994 317.38764,217.60218 323.625,229.84375 C 332.3961,247.05797 353.47325,253.92735 370.6875,245.15625 C 387.90174,236.38516 394.7711,215.27673 386,198.0625 C 381.12747,188.49963 372.44937,182.17168 362.75,179.90625 C 370.8044,170.82976 380.53972,162.99554 392,157.15625 C 441.18354,132.09596 501.43972,151.66018 526.5,200.84375 C 545.52665,238.18563 538.82555,281.9236 512.96875,311.78125 C 525.25732,322.0578 536.05185,334.10502 544.78125,347.59375 C 553.23489,360.07197 559.59783,373.68851 563.96875,387.9375 C 613.57307,342.00597 628.91474,267.0632 596.71875,203.875 C 569.10351,149.67702 513.92471,118.65808 456.9375,119.21875 z M 162.5625,121.59375 C 159.97997,121.90204 157.39278,122.28271 154.84375,122.71875 C 91.145971,133.61512 38.540804,183.94004 27.875,251.28125 C 14.490471,335.78787 72.180881,415.24044 156.6875,428.625 C 185.89498,433.251 214.49145,429.28911 239.96875,418.75 C 252.25186,414.89641 261.91324,404.38235 264.0625,390.8125 C 267.08483,371.73035 254.08214,353.80355 235,350.78125 C 215.91785,347.75891 197.95981,360.79288 194.9375,379.875 C 193.25855,390.47553 196.57837,400.68481 203.09375,408.21875 C 191.24258,410.82751 178.73507,411.41834 166.03125,409.40625 C 111.51086,400.77108 74.239819,349.52041 82.875,295 C 89.432739,253.59606 120.58103,222.16708 159.0625,213.21875 C 155.16675,197.69132 153.50933,181.59554 154.375,165.5625 C 154.87082,150.48562 157.71576,135.70148 162.5625,121.59375 z M 430.4375,285.375 C 429.04694,285.42047 427.66126,285.56995 426.28125,285.78125 C 419.18407,286.86791 412.33966,290.09784 406.875,295.5625 C 393.21372,309.22381 393.21368,331.43244 406.875,345.09375 C 420.53631,358.75504 442.68246,358.72377 456.34375,345.0625 C 463.93292,337.47335 467.2802,327.26846 466.4375,317.34375 C 477.55867,322.19915 488.03006,329.09255 497.125,338.1875 C 536.15729,377.21978 536.18855,440.56146 497.15625,479.59375 C 467.52258,509.22742 423.85447,516.36261 387.46875,501 C 381.49301,515.85825 373.37823,529.81424 363.25,542.28125 C 353.99185,554.18091 342.95559,564.46942 330.75,573.03125 C 389.76427,606.02423 465.81796,597.4633 515.96875,547.3125 C 576.46881,486.8124 576.4688,388.5938 515.96875,328.09375 C 495.05848,307.18349 469.58758,293.6364 442.78125,287.1875 C 438.77738,285.84147 434.60917,285.23858 430.4375,285.375 z M 353.28125,391.25 C 340.86353,391.58268 329.03014,398.5402 323,410.375 C 314.22891,427.58925 321.06703,448.66641 338.28125,457.4375 C 347.8441,462.31005 358.60271,462.33713 367.78125,458.46875 C 366.60013,470.54601 363.30808,482.6022 357.46875,494.0625 C 332.40849,543.24604 272.15231,562.84153 222.96875,537.78125 C 185.61569,518.74891 165.33495,479.42787 168.71875,440.0625 C 152.74,438.97093 136.9564,435.59291 121.96875,429.8125 C 107.78456,424.68251 94.574724,417.37393 82.65625,408.40625 C 69.515831,474.72671 101.18218,544.39542 164.375,576.59375 C 240.60953,615.43722 334.00032,585.10952 372.84375,508.875 C 386.26896,482.52655 391.30659,454.14339 389.15625,426.65625 C 389.28697,413.7835 382.30403,401.29989 370.0625,395.0625 C 364.68305,392.32153 358.92567,391.09878 353.28125,391.25 z "
       style="opacity:1;fill:#000000;fill-opacity:1;fill-rule:nonzero;stroke:none;stroke-width:80;stroke-linecap:round;stroke-linejoin:round;stroke-miterlimit:4;stroke-dasharray:none;stroke-opacity:1"
       id="path3148" />
  </g>
</svg>
