<?xml version="1.0" encoding="UTF-8" standalone="no"?>
<!-- Created with Inkscape (http://www.inkscape.org/) -->
<svg
   xmlns:svg="http://www.w3.org/2000/svg"
   xmlns="http://www.w3.org/2000/svg"
   version="1.0"
   width="640"
   height="640"
   id="svg2">
  <defs
     id="defs4" />
  <g
     id="layer1">
    <path
       d="M 321.0625,18.9375 C 313.90172,19.204305 299.9248,38.610928 293.65625,49.5 C 277.19909,49.441458 248.78263,58.594005 235,67.6875 C 231.98353,69.677707 231.87542,73.902752 232.6875,76.25 C 238.22488,92.255307 250.22247,104.78692 261.78125,114.21875 C 257.67495,126.49448 257.37707,156.55056 260.125,158.15625 C 265.53587,161.31799 303.24876,157.72231 322.21875,142 C 338.42901,151.69811 376.87156,166.6852 382.21875,161.0625 C 384.75099,158.3998 386.30555,125.20899 382.53125,114.25 C 394.30645,106.71741 410.57638,81.051336 409.25,73.1875 C 407.7508,64.298953 369.16436,49.861174 348.46875,50.875 C 343.59299,38.101425 326.28017,18.738335 321.0625,18.9375 z M 319.65625,28.9375 C 325.24069,29.004074 338.26989,49.213368 341.0625,58.5625 C 341.54901,60.191248 343.74664,60.52479 345.78125,59.84375 C 346.0904,60.042172 346.46394,60.108642 346.875,60.03125 C 365.01917,56.615201 397.47953,71.090625 397.875,75.5625 C 398.53867,83.067168 384.32004,102.31454 375.78125,110.5625 C 374.75793,111.55044 374.3023,112.45863 374.25,113.25 C 373.84607,113.9146 373.61799,114.69253 373.625,115.59375 C 373.69689,124.83324 375.94769,150.28481 372.875,151.59375 C 367.22862,153.99904 337.09304,144.60912 323.5,131.65625 C 322.65151,130.84809 321.6198,130.88306 320.65625,131.40625 C 320.25564,131.54776 319.86103,131.79431 319.46875,132.15625 C 300.79445,149.38652 270.08301,152.34797 266.0625,149.1875 C 263.4944,147.16875 264.67282,127.48619 271.71875,114.59375 C 272.68077,112.83348 271.56025,111.23679 269.78125,110.34375 C 269.64068,110.14962 269.47555,109.97454 269.28125,109.8125 C 262.09484,103.81906 242.18687,82.101348 243.75,76.25 C 244.5725,73.17108 278.54856,58.376565 296.78125,59.46875 C 297.71647,59.524772 298.53606,59.025376 299.15625,58.25 C 299.59473,58.178813 299.97256,58.009915 300.1875,57.6875 C 304.99117,50.482021 315.51019,28.885944 319.65625,28.9375 z M 322.53125,59.40625 C 319.72113,59.422356 317.24086,62.519471 317.3125,69.46875 C 317.38378,76.383647 317.44848,90.248591 317.46875,94.46875 C 315.26856,95.059313 313.14274,95.791724 311.125,96.65625 C 306.35341,93.821682 297.27809,88.708727 292.3125,87.84375 C 285.39286,86.638393 282.01422,91.098698 286.59375,93.75 C 291.45376,96.563691 296.11625,101.13181 298.875,104.09375 C 292.19645,109.45613 286.83754,116.09152 282.5,122.5 C 279.87912,126.37221 283.91552,131.1715 287.3125,127.3125 C 294.28514,119.3915 306.18209,101.50595 321.0625,100.71875 C 332.17411,100.12379 346.09462,111.06829 353.75,118.5625 C 357.99107,122.71429 366.46429,117.66964 362.3125,112.3125 C 360.50721,109.9831 357.25744,107.05087 353.375,104.1875 C 359.00358,101.48834 367.07393,97.22019 369.28125,93.9375 C 372.7088,88.840129 365.88353,81.868509 360.90625,86.0625 C 355.75172,90.405848 348.901,96.172734 345.5,99.03125 C 339.36162,95.451343 332.99522,92.777921 328.6875,92.84375 C 329.64004,86.045369 331.14667,73.262558 329.8125,67.84375 C 328.48134,62.43719 325.34137,59.390144 322.53125,59.40625 z M 400.5,128.3125 C 396.72208,128.32423 393.96346,129.09299 392.6875,130.375 C 390.21095,132.8633 407.80317,178.97541 389.65625,224.8125 C 387.93655,229.14429 394.63197,230.9045 395.96875,227.71875 C 416.72759,178.24726 400.01246,143.41262 402.9375,140.09375 C 406.79296,135.7192 427.29427,147.59111 437.40625,154.875 C 437.77225,155.13864 438.20638,155.26963 438.6875,155.28125 C 439.75051,156.00519 441.01537,156.19215 442.1875,155.375 C 450.32602,149.70125 467.98676,143.93511 471.25,146.28125 C 474.84303,148.86449 476.07928,167.66916 476.375,177.125 C 476.05352,178.18096 476.27834,179.2067 477.3125,179.875 C 477.45584,179.96763 477.54601,180.03362 477.6875,180.125 C 477.93974,180.32045 478.19774,180.51747 478.5,180.65625 C 488.26249,186.95869 493.4669,190.29696 493.21875,193.75 C 492.97031,197.20726 447.76489,198.62418 412.15625,232.78125 C 409.21319,235.60433 413.83356,241.81214 417.5625,238.09375 C 451.24985,204.50139 505.92194,207.2712 506.34375,201.34375 C 506.75382,195.58133 491.60493,179.47965 485.75,174.75 C 486.04749,162.75663 482.25471,137.85685 478.4375,135.1875 C 474.75179,132.61011 450.31692,139.55758 440.3125,145.9375 C 425.03219,132.82466 409.70388,128.28391 400.5,128.3125 z M 242.1875,130.8125 C 235.46755,130.84385 215.6378,136.90094 204.90625,144.875 C 194.262,138.3038 172.94943,134.37202 166.78125,135.90625 C 163.02394,136.84083 157.74703,158.56937 159.375,170.125 C 159.2811,170.1946 159.18577,170.26435 159.09375,170.34375 C 146.04074,181.60655 136.99452,197.82154 138.21875,202.15625 C 139.26108,205.84691 179.17719,199.78828 217.84375,228.75 C 220.9133,231.04913 223.05621,226.25692 221.0625,224.65625 C 178.58642,190.51892 150.19369,198.36567 148.5625,195.1875 C 147.94418,193.98278 157.01277,183.4319 165.9375,176.4375 C 166.6119,176.22129 167.18087,175.79911 167.53125,175.1875 C 167.72232,174.97265 167.79098,174.7043 167.8125,174.40625 C 167.82194,174.36395 167.83594,174.32478 167.84375,174.28125 C 169.1074,167.24086 167.63715,149.58446 171.78125,146.96875 C 176.05826,144.26915 191.42458,150.6579 203.75,155.90625 C 205.45843,156.63373 207.5572,154.99521 208.625,152.84375 C 217.6857,144.43134 233.47758,137.96419 236.4375,139.8125 C 239.93472,141.99634 223.40398,165.57373 248.03125,227.15625 C 249.69965,231.32823 256.9004,229.05187 254.8125,224.65625 C 232.81448,178.34423 249.95379,136.69225 244.28125,131.25 C 243.95902,130.94085 243.24366,130.80757 242.1875,130.8125 z M 346.65625,155.75 C 345.12331,155.83284 343.48965,156.58451 342.1875,158.28125 C 334.50577,168.29078 331.36174,188.27488 331.34375,208.40625 C 331.34129,211.15912 334.76775,211.3353 335.375,208.15625 C 340.81543,179.67466 343.24713,175.39606 351.03125,161.9375 C 352.95361,158.61377 350.02871,155.56776 346.65625,155.75 z M 296.25,159.90625 C 293.7877,160.08403 291.31859,162.05512 292.5625,164.09375 C 298.68229,174.12341 302.13897,183.33135 308.71875,205.625 C 310.0497,210.13452 313.73138,208.03751 313.40625,205 C 310.97479,182.28446 309.9253,172.43045 299.25,160.9375 C 298.48497,160.11388 297.36923,159.82544 296.25,159.90625 z M 328.90625,226.34375 C 326.90241,226.40389 324.82801,226.61686 322.6875,226.96875 C 316.39415,228.00335 318.44978,239.28134 325.53125,238.03125 C 399.19124,225.02811 370.31254,459.74863 321.78125,602.4375 C 321.354,599.90236 320.63913,596.65556 319.59375,592.65625 C 290.2697,480.84976 233.39291,281.70834 315.15625,238.46875 C 321.81091,234.94951 313.72253,223.85728 307.84375,227.21875 C 224.86099,274.66796 277.45715,474.84057 314.78125,593.78125 C 316.90935,600.57867 318.76545,605.0639 320.09375,607.3125 C 319.8236,608.08776 319.55252,608.88689 319.28125,609.65625 C 314.62622,622.85854 320.22257,623.6475 325,611.0625 C 378.42655,470.32308 412.3997,223.83774 328.90625,226.34375 z M 383,260.75 C 376.79226,260.73045 374.5672,264.54662 388.5625,272.15625 C 475.94473,319.66839 534.00043,414.9813 569.65625,470.71875 C 570.19275,471.55741 570.68742,472.30979 571.1875,473.0625 C 489.86413,428.56436 449.02054,399.79873 402.84375,361.4375 C 383.36108,345.25234 378.25996,355.96658 396.4375,370 C 477.35513,432.55145 498.25488,440.26298 572.15625,482.15625 C 584.65239,489.24009 589.31329,484.57761 579.09375,477.625 C 578.16607,475.16703 576.72741,471.92878 574.65625,467.84375 C 557.59457,434.19231 524.62181,383.49012 483.46875,338.5 C 485.08189,339.53634 487.8736,340.4638 491.9375,341 C 541.91163,347.59377 581.5301,337.62342 611.15625,334.6875 C 623.25788,333.48824 627.71582,331.20718 625.5625,329.75 C 625.69527,327.93233 622.19778,324.25065 614.4375,320.03125 C 548.36748,284.10782 472.95387,262.25598 423.5,269.03125 C 415.63615,270.10861 411.6586,272.75952 411.9375,274.96875 C 406.11177,271.01299 400.21561,267.31767 394.28125,263.9375 C 390.58556,261.83247 386.25168,260.76024 383,260.75 z M 263.3125,262.8125 C 261.03536,262.87022 257.56577,263.31753 252.78125,264.21875 C 215.68126,271.20703 125.85384,354.24382 66.65625,462.96875 C 63.471171,468.81861 62.421637,472.61307 62.96875,473.78125 C 58.553084,477.50785 65.211947,477.50402 72.71875,474.34375 C 132.62665,449.12324 213.04361,397.4791 251.78125,362.71875 C 260.43684,354.95185 258.52259,351.11635 247.25,356.40625 C 224.64783,367.01283 194.97583,408.86266 71.46875,468.78125 C 69.852135,469.56554 68.527844,470.27448 67.34375,470.9375 C 68.399336,469.62413 69.609631,467.93284 70.96875,465.75 C 123.74851,380.98184 195.36026,302.45794 255.0625,271.8125 C 266.26532,266.06204 270.14391,262.63934 263.3125,262.8125 z M 325.78125,266.46875 C 323.16141,266.39433 320.52995,267.99686 320.46875,271.28125 C 319.29217,334.42725 319.85328,434.92278 318.1875,510.6875 C 318.0712,515.95937 325.39951,515.74386 325.53125,511.71875 C 327.97935,436.66389 332.23446,333.78126 331.0625,271.8125 C 330.99646,268.32069 328.40109,266.54317 325.78125,266.46875 z M 210.4375,266.71875 C 160.24584,267.18432 70.167543,289.34933 32.3125,311.1875 C 13.550466,322.01112 19.327974,323.70703 33.84375,316.75 C 91.254606,289.2345 163.69598,280.06162 215.40625,277.34375 C 231.96364,276.47349 229.36369,267.03622 215.15625,266.75 C 213.62323,266.71912 212.05659,266.70373 210.4375,266.71875 z M 416.0625,277.8125 C 418.00805,278.27454 420.63684,278.50565 424,278.375 C 499.75034,275.4617 552.49259,294.71091 611.40625,326.59375 C 612.72717,327.30861 613.91552,327.91001 615.0625,328.4375 C 613.61956,328.46107 612.08806,328.50781 610.375,328.625 C 572.15556,331.2395 522.20602,333.31035 492.4375,332.90625 C 484.81347,332.80084 481.21122,334.75002 481.90625,336.8125 C 472.00962,326.08214 461.65723,315.66371 450.9375,305.9375 C 497.16536,306.84761 544.08553,316.91782 580.09375,322.3125 C 591.33481,323.99662 592.20608,319.08288 581.09375,316.75 C 541.66527,308.47255 495.94711,297.59728 445.71875,298.8125 C 444.77715,298.8354 443.97874,298.9696 443.28125,299.15625 C 434.40541,291.49217 425.32555,284.33254 416.0625,277.8125 z M 175.5,295.78125 C 141.79659,296.2814 101.08115,302.85768 68.1875,309.1875 C 49.316545,312.81888 48.322774,312.82689 68.6875,313.21875 C 100.34823,313.82312 143.19889,307.7785 175.78125,305.125 C 197.08583,303.38996 195.34778,295.48671 175.5,295.78125 z M 386.28125,301.53125 C 382.82604,301.43286 381.20514,305.55908 385.71875,308.9375 C 434.92252,345.7663 502.24959,406.97445 535.71875,438.03125 C 552.6143,453.70902 555.00782,451.35401 538.75,434.65625 C 497.55388,392.34538 439.16777,343.54913 390.1875,303.21875 C 388.7846,302.0636 387.43299,301.56405 386.28125,301.53125 z M 256.0625,303.625 C 252.68418,303.72426 244.92386,307.34381 233.84375,315.5 C 197.94749,341.92364 149.04247,388.83907 102.03125,435.9375 C 90.197393,447.79331 91.924046,452.49448 105.0625,438.96875 C 142.69309,400.23637 211.91883,340.70536 239.40625,322.3125 C 256.57627,310.82341 261.00005,303.47993 256.0625,303.625 z M 29.28125,321.84375 C 24.229741,322.0581 27.335315,324.54977 39.15625,328.125 C 62.522914,335.19224 95.438199,340.02231 140.40625,342.5 C 147.70926,342.9024 174.23717,330.65886 139.90625,332.65625 C 115.34681,334.10645 66.269709,327.35789 41.15625,323.0625 C 35.552066,322.10396 31.57739,321.74632 29.28125,321.84375 z "
       style="fill:#000000;fill-opacity:1;fill-rule:evenodd;stroke:none;stroke-width:1px;stroke-linecap:butt;stroke-linejoin:miter;stroke-opacity:1"
       id="path3141" />
  </g>
</svg>
