<?xml version="1.0" encoding="UTF-8" standalone="no"?>
<!-- Created with Inkscape (http://www.inkscape.org/) -->
<svg
   xmlns:svg="http://www.w3.org/2000/svg"
   xmlns="http://www.w3.org/2000/svg"
   version="1.0"
   width="640"
   height="640"
   id="svg2">
  <defs
     id="defs4" />
  <g
     id="layer1">
    <path
       d="M 320,20 C 154.4,20 19.999999,154.4 20,320 C 20,480.57244 146.35671,611.83556 305,619.65625 L 305,584.5625 C 165.69393,576.77248 55,461.24306 55,320 C 55,183.85988 157.8235,71.597864 290,56.6875 L 290,132.375 C 199.35415,146.76872 130,225.32454 130,320 C 130,419.83523 207.1182,501.75546 305,509.40625 L 305,474.28125 C 226.4702,466.7283 165,400.4994 165,320 C 165,244.70494 218.78424,181.92505 290,167.9375 L 290,234.9375 L 350,234.9375 L 350,167.9375 C 421.21577,181.92505 475,244.70494 475,320 C 475.00001,400.49939 413.5298,466.72829 335,474.28125 L 335,509.40625 C 432.8818,501.75547 510,419.83523 510,320 C 510,225.32455 440.64585,146.76873 350,132.375 L 350,56.6875 C 482.1765,71.597864 585,183.85988 585,320 C 585.00002,461.24305 474.30608,576.77248 335,584.5625 L 335,619.65625 C 493.64328,611.83557 620,480.57243 620,320 C 620,154.4 485.6,20 320,20 z M 275,79.15625 C 161.23573,100.31044 74.999999,200.13531 75,320 C 75,450.2002 176.74076,556.76823 305,564.53125 L 305,529.4375 C 196.07011,521.73993 110,430.8779 110,320 C 110,219.52457 180.68038,135.46156 275,114.84375 L 275,79.15625 z M 365,79.15625 L 365,114.84375 C 459.31962,135.46156 530,219.52457 530,320 C 529.99999,430.87789 443.92989,521.73994 335,529.4375 L 335,564.53125 C 463.25922,556.76824 564.99997,450.20019 565,320 C 565,200.13531 478.76426,100.31044 365,79.15625 z "
       style="opacity:1;fill:#000000;fill-opacity:1;fill-rule:nonzero;stroke:none;stroke-width:80;stroke-linecap:round;stroke-linejoin:round;stroke-miterlimit:4;stroke-dasharray:none;stroke-opacity:1"
       id="path2170" />
  </g>
</svg>
