<svg xmlns="http://www.w3.org/2000/svg" xmlns:xlink="http://www.w3.org/1999/xlink" viewBox="-14 -10 28 20" width="420" height="300">
<path id="a" d="M-13.991428-7H-7.5914284L-5.311115-4.559831A7 7 0 0 0 -5.744563-4H-12.3963zM-12.157031-3.55H-6.033034A7 7 0 0 0-6.978359-.55H-10.561903z"/>
<use xlink:href="#a" transform="scale(-1 1)"/>
<path d="M-7.141428-7a10 10 0 0 1 14.282857 0L-4.207417 5.14443 3.606828-5.999232A7 7 0 0 0-5.090302-4.805084z"/>
<path d="M-6.999286-.1a7 7 0 1 0 13.998571 0H9.9995A10 10 0 1 1-9.9995-.1z"/>
</svg>
