<?xml version="1.0" encoding="UTF-8" standalone="no"?>
<svg xmlns="http://www.w3.org/2000/svg" xmlns:xlink="http://www.w3.org/1999/xlink" width="640" height="640" version="1.0">
<defs>
	<path id="E" d="M 402.125,272.688 C 421.905,300.893 425.428,339.938 411,371.406 408.631,377.042 405.673,382.33 402.25,387.281 L 610,330 402.125,272.688 z"/>
	<path id="NE" d="M 525.063,124.938 377,209 C 381.607,225.731 386.201,242.458 390.813,259.188 407.542,263.799 424.27,268.42 441,273.031 L 525.063,124.938 z"/>
</defs>
<use xlink:href="#NE"/>
<use xlink:href="#NE" transform="translate(10,10)rotate(90,320,320)"/>
<use xlink:href="#NE" transform="translate(0,20)rotate(180,320,320)"/>
<use xlink:href="#NE" transform="translate(-10,10)rotate(270,320,320)"/>
<use xlink:href="#E"/>
<use xlink:href="#E" transform="translate(10,10)rotate(90,320,320)"/>
<use xlink:href="#E" transform="translate(0,20)rotate(180,320,320)"/>
<use xlink:href="#E" transform="translate(-10,10)rotate(270,320,320)"/>
<path d="M 320,10 305,35 320,60 335,35 320,10 z"/>
<path d="M 320,240 C 293.368,240 269.42,251.595 252.938,270 L 283.938,270 C 294.475,263.647 306.807,260 320,260 355.244,260 384.424,286.092 389.281,320 L 374.063,320 H 265.938 C 265.341,323.243 265,326.586 265,330 265,333.414 265.341,336.757 265.938,340 L 335,340 H 389.281 C 384.424,373.908 355.244,400 320,400 306.807,400 294.475,396.353 283.938,390 L 252.938,390 C 269.42,408.405 293.368,420 320,420 369.68,420 410,379.68 410,330 410,280.32 369.68,240 320,240 z"/>
<path d="M 245.156,280 C 235.579,294.302 230,311.507 230,330 230,348.493 235.579,365.698 245.156,380 L 250,380 H 342.906 C 352.393,375.645 360.404,368.668 366.063,360 L 315,360 H 256.781 C 252.453,350.904 250,340.738 250,330 250,319.262 252.453,309.096 256.781,300 L 273.938,300 H 366.063 C 360.404,291.332 352.393,284.355 342.906,280 L 315,280 H 245.156 z"/>
</svg>