<?xml version="1.0" encoding="UTF-8" standalone="no"?>
<!-- Created with Inkscape (http://www.inkscape.org/) -->
<svg
   xmlns:svg="http://www.w3.org/2000/svg"
   xmlns="http://www.w3.org/2000/svg"
   version="1.0"
   width="640"
   height="600"
   id="svg2">
  <defs
     id="defs4" />
  <g
     id="layer1">
    <path
       d="M 320,28.5 C 316.96576,30.9855 313.94772,33.47548 311.03125,36.0625 C 307.57586,39.12757 304.19662,42.26768 300.90625,45.46875 C 300.86408,45.50981 300.82339,45.55267 300.78125,45.59375 C 300.56487,45.80453 300.34054,46.00739 300.125,46.21875 C 299.60827,46.72546 299.10661,47.2398 298.59375,47.75 C 297.89421,48.44623 297.19172,49.14147 296.5,49.84375 C 295.96672,50.38484 295.43495,50.92407 294.90625,51.46875 C 294.73697,51.64327 294.57505,51.82512 294.40625,52 C 294.19641,52.21724 293.99034,52.43846 293.78125,52.65625 C 292.793,53.68639 291.81544,54.7075 290.84375,55.75 C 290.50294,56.1154 290.15111,56.47695 289.8125,56.84375 C 289.29241,57.40714 288.79496,57.9949 288.28125,58.5625 C 288.24166,58.60608 288.19581,58.6439 288.15625,58.6875 C 287.16446,59.78492 286.15902,60.88865 285.1875,62 C 256.11699,95.01704 235.04917,133.73075 222.8125,175 L 160,175 L 150,230 L 211.9375,230 C 209.2499,256.1795 209.97402,282.801 214.3125,309.1875 C 132.6602,339.9608 67.928057,405.32575 38.03125,487.40625 C 31.760643,504.62195 27.071532,522.60567 24.03125,541.125 C 30.75503,543.66184 37.528415,546.00601 44.34375,548.03125 C 51.714733,550.2216 59.146517,552.11849 66.59375,553.71875 C 70.135733,554.47985 73.696118,554.96469 77.25,555.59375 C 163.34868,570.83374 252.41405,547.68161 319.96875,492.3125 C 380.73453,542.11713 458.94043,566.01868 536.71875,559.21875 C 534.16996,540.84663 529.2011,522.85787 522.375,505.59375 C 461.7671,508.12867 400.30978,486.89967 353.34375,448.3125 C 355.39278,449.91896 357.5014,451.44149 359.5625,453.03125 C 370.55363,439.89285 380.64296,425.71584 389.5,410.375 C 398.40522,394.9507 405.76099,379.05292 411.65625,362.875 C 439.89096,374.44664 466.02226,391.22338 488.3125,412 C 515.86194,436.79829 536.32087,468.35879 549.15625,502.90625 C 549.136,502.90952 549.114,502.90298 549.09375,502.90625 C 549.25427,503.33806 549.44625,503.76324 549.625,504.1875 C 549.69041,504.36655 549.77875,504.53954 549.84375,504.71875 C 549.94517,504.9669 550.03431,505.21622 550.125,505.46875 C 550.48731,506.47782 550.83817,507.48613 551.1875,508.5 C 551.27767,508.76196 551.37947,509.01898 551.46875,509.28125 C 551.81177,510.28768 552.13853,511.30157 552.46875,512.3125 C 552.55668,512.5822 552.63173,512.85499 552.71875,513.125 C 553.04375,514.13146 553.3752,515.14557 553.6875,516.15625 C 553.77365,516.43555 553.8523,516.72038 553.9375,517 C 554.24297,518.00102 554.55074,518.99507 554.84375,520 C 554.92875,520.29166 555.00976,520.583 555.09375,520.875 C 556.58684,526.06561 557.93498,531.31429 559.09375,536.59375 C 560.25252,541.87321 561.24178,547.18656 562.0625,552.53125 C 562.23147,553.63162 562.31421,554.74122 562.46875,555.84375 C 580.51433,552.66544 598.40953,547.75312 615.96875,541.125 C 615.33346,537.25526 614.68829,533.38103 613.90625,529.5625 C 612.90664,524.68164 611.79626,519.85408 610.5625,515.0625 C 609.32874,510.27092 607.96162,505.5085 606.5,500.8125 C 605.34104,497.08891 604.08716,493.40711 602.78125,489.75 C 573.27149,406.59398 508.11889,340.26045 425.71875,309.1875 C 428.67906,291.16073 429.97103,273.03412 429.625,255 L 374.1875,255 C 374.52039,268.20279 373.82631,281.42619 372.09375,294.5 C 355.17666,291.53416 337.7631,290 320,290 C 302.20382,290 284.75962,291.55523 267.8125,294.53125 C 264.92039,273.15792 264.77978,251.40716 267.375,230 L 480,230 L 470,175 L 280.1875,175 C 289.34459,149.71588 303.1156,126.24095 320.28125,105.5 C 320.29054,105.5114 320.30321,105.51985 320.3125,105.53125 C 331.46471,119.22155 340.93145,134.17698 348.6875,150 L 408.59375,150 C 396.86717,120.30502 380.39507,92.38022 359.5,67.46875 C 347.72776,53.43368 334.51526,40.39014 320,28.5 z M 247.28125,298.90625 C 246.12881,299.19356 244.95964,299.48064 243.8125,299.78125 C 244.23096,299.67137 244.64357,299.54537 245.0625,299.4375 C 245.79836,299.24802 246.54363,299.08995 247.28125,298.90625 z M 232.625,302.96875 C 231.43374,303.3313 230.24744,303.68556 229.0625,304.0625 C 229.6472,303.87654 230.22627,303.68246 230.8125,303.5 C 231.41136,303.3136 232.02405,303.15199 232.625,302.96875 z M 323.75,345 C 335.47747,345.0485 347.13699,346.05307 358.65625,347.90625 C 354.32317,359.2924 349.09338,370.36682 342.90625,380.96875 C 341.96139,382.69473 340.98931,384.42772 340,386.125 C 334.11859,396.21531 327.45366,405.79575 320.125,414.8125 C 320.95973,415.83824 321.67922,416.95786 322.53125,417.96875 C 323.6195,419.2599 324.72696,420.54532 325.84375,421.8125 C 324.72193,420.54058 323.62516,419.2655 322.53125,417.96875 C 313.82127,407.6437 306.00113,396.53902 299.25,384.71875 C 298.22769,383.03749 297.22523,381.33041 296.25,379.625 C 290.44808,369.47911 285.48996,358.9259 281.34375,348.0625 C 280.09884,348.26273 278.83671,348.35345 277.59375,348.5625 C 290.83431,346.2038 304.29097,344.99929 317.84375,345.0625 C 319.81092,345.01778 321.78546,344.99187 323.75,345 z M 235.875,360.03125 C 233.40642,361.01834 230.96061,362.11276 228.5,363.125 C 234.38303,379.2151 241.64174,395.03205 250.5,410.375 C 259.40207,425.79384 269.47395,440.12001 280.53125,453.3125 C 256.39794,471.97014 228.81666,486.21216 199.6875,495.125 C 164.44453,506.58187 126.89321,508.49518 90.5625,502.34375 C 115.39406,437.06544 170.49533,384.53205 235.875,360.03125 z M 339.875,436.40625 C 340.84726,437.3352 341.82514,438.24432 342.8125,439.15625 C 341.82662,438.24643 340.84544,437.33246 339.875,436.40625 z "
       style="opacity:1;fill:#000000;fill-opacity:1;fill-rule:nonzero;stroke:none;stroke-width:100;stroke-linecap:square;stroke-linejoin:miter;stroke-miterlimit:4;stroke-dasharray:none;stroke-opacity:1"
       id="path3222" />
  </g>
</svg>
