<?xml version="1.0" encoding="UTF-8" standalone="no"?>
<svg
   width="450"
   height="262.93994"
   version="1.1"
   id="svg4"
   sodipodi:docname="Emblem_of_Minamiashigara,_Kanagawa.svg"
   inkscape:version="1.2.1 (9c6d41e410, 2022-07-14)"
   xmlns:inkscape="http://www.inkscape.org/namespaces/inkscape"
   xmlns:sodipodi="http://sodipodi.sourceforge.net/DTD/sodipodi-0.dtd"
   xmlns="http://www.w3.org/2000/svg"
   xmlns:svg="http://www.w3.org/2000/svg">
  <defs
     id="defs8" />
  <sodipodi:namedview
     id="namedview6"
     pagecolor="#ffffff"
     bordercolor="#666666"
     borderopacity="1.0"
     inkscape:showpageshadow="2"
     inkscape:pageopacity="0.0"
     inkscape:pagecheckerboard="0"
     inkscape:deskcolor="#d1d1d1"
     showgrid="false"
     inkscape:zoom="1.1893536"
     inkscape:cx="242.98913"
     inkscape:cy="50.027174"
     inkscape:window-width="1920"
     inkscape:window-height="996"
     inkscape:window-x="1912"
     inkscape:window-y="-8"
     inkscape:window-maximized="1"
     inkscape:current-layer="svg4" />
  <path
     d="m 79.9,207.5 h 60 V 166 h -84 z M 394.1,166 h -80 v 41.51 h 56 z M 53.3,161.4 h 80 v -41.5 h -104 z m 367.4,-41.5 h -100 v 41.5 h 76 z M 24,110.7 H 134 V 69.2 H 0 Z M 450,69.2 H 320 v 41.5 H 426 Z M 204.2,0 V 15.6 A 124.6,124.6 0 0 0 190.4,258.1 V 213.9 A 83,83 0 0 1 204.2,58 v 203.2 a 124.6,124.6 0 0 0 41.5,0 V 58 a 83,83 0 0 1 13.8,155.9 v 44.2 A 124.6,124.6 0 0 0 245.7,15.6 V 0 Z"
     fill="#000000"
     id="path2" />
</svg>
