<?xml version="1.0" encoding="UTF-8" standalone="no"?>
<!-- Created with Inkscape (http://www.inkscape.org/) -->
<svg
   xmlns:svg="http://www.w3.org/2000/svg"
   xmlns="http://www.w3.org/2000/svg"
   version="1.0"
   width="640"
   height="640"
   id="svg2">
  <defs
     id="defs4" />
  <g
     id="layer1">
    <path
       d="M 297.40625,31.03125 C 169.98159,42.464156 69.999998,149.61631 70,280 C 70,371.88839 119.66846,452.24304 193.59375,495.6875 L 125,610 L 240.03125,610 C 258.28194,585.72392 287.31241,570 320,570 C 352.68759,570 381.71806,585.72392 399.96875,610 L 515,610 L 446.40625,495.6875 C 520.33154,452.24304 570,371.88839 570,280 C 570,149.61631 470.01841,42.464157 342.59375,31.03125 L 335.84375,45.6875 C 430.55163,53.737391 505,133.22017 505,230 C 504.99999,307.42267 457.35755,373.77262 389.8125,401.34375 L 320,285 L 250.1875,401.34375 C 182.64245,373.77262 135,307.42267 135,230 C 135,133.22018 209.44836,53.737393 304.15625,45.6875 L 297.40625,31.03125 z M 256,420 L 319.1875,420 L 319.1875,435 L 295.09375,435 L 295.09375,442 L 319.1875,442 L 319.1875,457 L 295.09375,457 L 295.09375,464 L 319.1875,464 L 319.1875,479 L 319,479 L 319,532 L 304,532 L 304,479 L 295.09375,479 L 295.09375,532 L 280.09375,532 L 280.09375,479 L 271,479 L 271,532 L 256,532 L 256,479 L 256,464 L 280.09375,464 L 280.09375,457 L 256,457 L 256,442 L 280.09375,442 L 280.09375,435 L 256,435 L 256,420 z M 328,420 L 343,420 L 343,444 L 363,444 L 363,420 L 378,420 L 378,517 L 378,532 L 328,532 L 328,517 L 328,459 L 328,444 L 328,420 z M 343,459 L 343,517 L 363,517 L 363,459 L 343,459 z "
       style="opacity:1;fill:#000000;fill-opacity:1;fill-rule:nonzero;stroke:none;stroke-width:80;stroke-linecap:round;stroke-linejoin:round;stroke-miterlimit:4;stroke-dasharray:none;stroke-opacity:1"
       id="path2170" />
  </g>
</svg>
