<svg xmlns="http://www.w3.org/2000/svg" width="359" height="360">
<path fill="#33b53f" d="M215.997 16.834c1.238-6.487-1.931-8.517-2.625-12.677 22.335.99 31.67 21.889 33.6 28.054 0-6.537.942-13.792-.667-17.803 8.245 4.803 28.995 24.34 32.264 33.6 2.104-6.24-.495-13.395-.495-17.63 4.48 2.254 25.9 27.585 25.9 45.685 2.228-9.98 2.922-15.575 4.358-18.224 14.46 8.32 19.933 38.627 19.933 51.974 3.367-8.592 5.967-11.787 8.443-14.263 11.638 27.659 6.29 44.47 3.17 52.816 3.739-2.402 7.304-5.522 11.29-9.508 8.47 28.92.15 37.637-6.685 49.126 4.532 0 9.88-4.78 12.827-7.726 4.308 32.487-28.847 101.026-35.31 105.458-8.988 6.14-107.365 40.51-115.684 26.272-1.09-9.706 25.28-42.391 25.28-61.135 5.424 0 6.612 4.878 9.212 10.845 2.749-4.853-3.912-30.852-2.798-43.208 6.537 0 10.474 11.24 14.188 11.24-5.224-12.38-22.706-32.04-22.706-43.851 5.547-1.263 8.716 3.888 16.367 3.888-9.632-9.36-36.671-38.281-38.033-42.466 6.61 1.065 8.196-1.708 16.12-1.708-12.876-7.132-24.167-15.773-30.506-41.401 5.348 0 8.27 4.977 15.055 5.745-4.012-4.928-18.82-14.857-19.81-38.232 4.185 4.185 5.894 6.562 10.92 9.038-6.561-10.028-10.597-26.593-12.702-35.582 4.358 4.358 7.13 4.556 13 7.602-7.652-6.413-16.64-26.098-17.432-32.561 3.763 3.764 5.744 5.745 9.904 6.017-8.641-10.375-10.771-16.243-10.771-24.34 17.135-3.467 27.336 6.735 34.393 14.955m-78.047-1.436c-2.526-4.407 1.46-8.196 2.5-13.222-16.366 0-28.524 17.209-30.877 25.23-3.02-2.227.024-9.334.024-14.311-2.402.867-27.04 7.75-32.115 31.2-4.73-.024 1.684-15.352.396-14.783-10.5 4.68-25.157 14.634-26.643 38.85-3.021-1.213-4.086-8.047-4.086-13.42-13.94 10.622-19.19 25.108-22.755 50.117-3.244-4.655-2.501-11.366-2.501-14.808-4.78 7.23-16.194 29.243-6.34 58.115-3.565 0-7.824-9.98-9.88-14.015-4.802 27.46-2.475 44.075 4.78 51.33-5.026-2.526-5.596-4.383-8.94-7.75-2.252 23.424 9.683 49.572 11.02 58.362 1.337 8.79 9.533 17.184 16.219 24.043 30.654 31.447 90.007 55.465 108.825 55.465 12.307 0-5.274-36.622-12.157-66.558-4.11 0-8.716 10.053-12.356 10.053 3.44-6.314 9.31-28.55 3.912-39.048-5.1 2.525-11.217 7.527-14.337 6.165 10.004-13.222 19.264-22.334 27.015-43.183-6.612 0-12.282 4.977-18.546 3.516 3.763-5.423 27.93-19.636 37.76-44.867-4.58-2.204-8.493-.372-15.525-.372 9.36-3.095 23.4-8.097 27.46-36.225-3.342-1.164-9.632 5.398-14.782 3.862 11.118-5.026 22.087-20.031 20.18-40.063-6.314 1.807-7.725 4.828-14.906 5.992 2.278-2.352 21.64-15.03 19.017-34.294-5.275 2.154-10.202 3.96-14.14 7.898 7.677-9.235 16.566-19.685 16.566-25.43-4.432 1.536-6.735 1.338-13.272 2.898 5.968-5.968 16.144-16.615 16.144-24.093-27.187-3.244-33.378 8.122-37.661 13.346"/>
<path style="fill:none;stroke:#211e1e;stroke-width:2.37708" d="M216.022 16.834c1.213-6.487-1.956-8.517-2.65-12.677 22.335.99 31.67 21.889 33.626 28.054 0-6.537.916-13.792-.693-17.803 8.245 4.803 28.995 24.34 32.264 33.6 2.104-6.24-.495-13.395-.495-17.63 4.48 2.254 25.9 27.585 25.9 45.685 2.228-9.98 2.922-15.575 4.358-18.224 14.46 8.32 19.932 38.627 19.932 51.974 3.368-8.592 5.968-11.787 8.444-14.263 11.638 27.659 6.29 44.447 3.17 52.816 3.738-2.402 7.304-5.522 11.29-9.508 8.469 28.92.149 37.637-6.685 49.126 4.53 0 9.88-4.78 12.826-7.726 4.309 32.487-28.846 101.026-35.31 105.458-8.987 6.14-107.364 40.51-115.683 26.272-1.09-9.706 25.28-42.391 25.28-61.135 5.423 0 6.612 4.878 9.212 10.845 2.748-4.853-3.912-30.852-2.798-43.208 6.537 0 10.474 11.24 14.188 11.24-5.225-12.38-22.706-32.04-22.706-43.851 5.547-1.263 8.716 3.888 16.367 3.888-9.632-9.36-36.671-38.281-38.033-42.466 6.61 1.065 8.196-1.708 16.12-1.708-12.876-7.132-24.167-15.773-30.506-41.401 5.348 0 8.27 4.977 15.055 5.745-4.012-4.928-18.82-14.857-19.81-38.232 4.185 4.185 5.894 6.562 10.92 9.038-6.561-10.028-10.598-26.593-12.702-35.582 4.358 4.358 7.13 4.556 13 7.602-7.652-6.413-16.64-26.098-17.433-32.561 3.764 3.764 5.745 5.745 9.905 6.017-8.642-10.375-10.771-16.243-10.771-24.34 17.135-3.467 27.336 6.735 34.418 14.955zm-78.072-1.436c-2.526-4.407 1.46-8.17 2.5-13.222-16.366 0-28.524 17.209-30.877 25.23-3.02-2.227.024-9.334.024-14.311-2.402.892-27.04 7.75-32.115 31.2-4.73-.024 1.684-15.352.396-14.783-10.5 4.68-25.157 14.634-26.643 38.85-3.021-1.213-4.086-8.047-4.086-13.395-13.94 10.597-19.19 25.083-22.755 50.092-3.244-4.655-2.501-11.366-2.501-14.808-4.78 7.23-16.194 29.268-6.34 58.115-3.565 0-7.824-9.98-9.88-14.015-4.802 27.46-2.475 44.075 4.78 51.33-5.026-2.526-5.596-4.383-8.94-7.75-2.252 23.424 7.925 48.656 9.262 57.446 1.337 8.79 11.29 18.125 17.977 24.984 30.654 31.447 90.007 55.465 108.825 55.465 12.307 0-5.274-36.647-12.157-66.558-4.11 0-8.716 10.028-12.356 10.028 3.44-6.29 9.31-28.55 3.912-39.048-5.1 2.525-11.217 7.527-14.337 6.165 10.004-13.222 19.264-22.334 27.015-43.183-6.612 0-12.282 4.977-18.546 3.516 3.788-5.423 27.93-19.636 37.76-44.867-4.58-2.204-8.493-.372-15.525-.372 9.36-3.095 23.4-8.097 27.46-36.225-3.342-1.164-9.632 5.398-14.782 3.862 11.118-5.026 22.087-20.031 20.18-40.063-6.314 1.807-7.725 4.828-14.906 5.992 2.278-2.352 21.64-15.03 19.017-34.294-5.275 2.154-10.202 3.96-14.14 7.898 7.677-9.236 16.566-19.685 16.566-25.43-4.432 1.536-6.735 1.363-13.272 2.898 5.968-5.968 16.144-16.615 16.144-24.093-27.187-3.244-33.378 8.122-37.661 13.346z"/>
<path fill="#211e1e" d="M257.2 90.846c-1.907 0-32.586-13.173-35.953-16.54 3.838 10.077 37.19 20.848 40.038 23.027 12.232 18.224 23.746 41.87 25.876 63.166.37 3.64-39.89-15.575-44.818-20.478 5.05 13.644 43.803 27.56 46.279 27.56 4.803 19.51 1.213 54.276-8.47 70.817-2.821-1.857-9.754-21.666-19.832-24.54 6.958 8.643 13.792 19.835 17.407 29.145-6.215 13.594-34.84 51.132-60.467 54.524-3.417.47 2.427 9.014 2.427 9.014 19.635-4.21 30.134-15.922 45.907-34.394 11.29 1.189 51.132-34.022 49.176-35.978-5.77 5.745-40.04 35.582-45.412 31.546 11.315-14.683 26.568-44.966 26.568-62.448 4.953-1.684 34.17-25.925 36.102-41.277-3.74 10.375-31.496 32.982-35.26 32.982 1.634-24.018-1.931-51.156-12.702-76.388 2.005-5.274 14.683-26.866 10.325-37.637-1.436 8.394-9.954 28.772-14.114 32.932-6.042-12.603-18.893-31.793-31.397-48.457-.52-.67 4.507-18.77 2.352-20.924 0 2.7-5.051 17.383-5.62 16.615-12.381-16.095-23.796-28.871-27.238-29.342 3.12 5.274 39.692 54.103 38.826 57.075m-145.82-28.08c-3.17 0-.816-23.424-1.435-22.507-3.07 6.462-1.213 26.246-1.808 27.138-12.058 17.654-27.485 44.15-32.214 54.87 0 0-9.583-16.787-12.703-35.482-2.154 16.788 6.092 31 10.252 39.42 0 0-15.773 30.06-14.931 69.48-6.81-1.288-22.78-20.775-26-24.02 1.833 5.35 17.58 25.654 26.544 30.928.966 21.17 9.98 42.366 22.93 61.309 0 3.69-55.912-33.725-55.243-32.76-.545 2.452 56.282 42.367 59.7 38.975 11.736 15.698 25.999 29.59 40.26 40.212l5.052-6.24c-13.346-8.245-49.72-47.69-56.331-66.013 1.609-8.617 9.458-20.948 13.42-24.935-4.26 0-11.142 10.524-15.822 19.884-2.7-10.276-12.381-38.257-4.78-67.351 21.22-7.676 44-21.468 53.114-30.58-6.488 1.907-35.607 21.493-51.207 23.523 2.303-20.081 17.234-46.08 24.712-60.566 10.994-3.045 32.115-11.514 40.51-26.618-9.83 9.83-35.062 22.904-38.356 21.096 2.972-6.81 34.988-51.676 37.39-59.451-2.303.866-14.312 17.184-23.053 29.688M216.666 227.9c-16.07-20.502-32.636-32.016-37.761-37.117-21.468 14.708-29.441 26-38.95 37.117 11.589 11.588 24.786 52.593-7.255 67.722-50.91 24.018-57.842-25.85-58.758-39.99-.371-5.57-54.722-27.36-63.76-24.587C13.549 271.38 82.36 360 178.905 360c96.544 0 169.045-80.746 169.045-130.937-18.373 3.615-35.656 13.94-66.51 28.45 6.66 13.322-7.254 58.66-52.617 41.129-38.825-15.03-23.077-59.823-12.157-70.743"/>
<path d="M205.028 319.49c-12.48 7.28-41.673 6.934-53.88.397 9.88-7.305 22.087-16.145 27.757-30.68 6.562 15.897 17.556 23.053 26.123 30.283" fill="#fff"/>
</svg>