<svg xmlns="http://www.w3.org/2000/svg" width="360" height="360" viewBox="-58 -61 116 110">
<path d="M0 42.621806A37 37 0 1 1-36.911567-21.310903a37 37 0 1 1 73.823133 0A37 37 0 1 1 0 42.621806zM5.484381 30.058757A25 25 0 1 0 28.773838-10.279765l-1.358582 8.896868-5.5-9.526279-7.683205 2.692298 6.173201-5.307702-5.5-9.526279 8.384204 3.271868a25 25 0 1 0-46.578913 0l8.384204-3.271868-5.5 9.526279 6.173201 5.307702-7.683205-2.692298-5.5 9.526279-1.358582-8.896868A25 25 0 1 0-5.484381 30.058757l-7.025623-5.625h11l1.510004-8 1.510004 8h11z" fill="#0707ff"/>
</svg>