<svg width="575" height="420" xmlns="http://www.w3.org/2000/svg"><g fill="#464548"><path d="m287.472 238.62-60.73-86.474h121.456zm0 1.58-88.716 125.93s36.987 23.857 88.716 23.857 88.715-23.857 88.715-23.857z"/><path d="M58.102 235.048h119.335c7.206 32.75 23.291 57.993 48.665 73.973l-36.336 51.258c-19.475-14.963-38.089-28.908-55.157-58.694H98.705zm458.878 0H397.532c-7.207 32.75-23.084 57.993-48.458 73.973l36.335 51.258c19.476-14.963 38.09-28.908 55.158-58.694h35.904zM287.472 29.994C230.146 56.197 155.17 78.217 124.844 157.807H11.566l40.606 67.534h125.262c0-81.393 65.601-114.757 110.038-114.757s110.043 33.364 110.043 114.757h125.359l40.51-67.534h-113.28C419.782 78.214 344.798 56.197 287.472 29.994z"/></g></svg>