<?xml version="1.0" encoding="UTF-8" standalone="no"?>
<!-- Created with Inkscape (http://www.inkscape.org/) -->

<svg
   xmlns:dc="http://purl.org/dc/elements/1.1/"
   xmlns:cc="http://creativecommons.org/ns#"
   xmlns:rdf="http://www.w3.org/1999/02/22-rdf-syntax-ns#"
   xmlns:svg="http://www.w3.org/2000/svg"
   xmlns="http://www.w3.org/2000/svg"
   xmlns:sodipodi="http://sodipodi.sourceforge.net/DTD/sodipodi-0.dtd"
   xmlns:inkscape="http://www.inkscape.org/namespaces/inkscape"
   width="250"
   height="250"
   id="svg2"
   version="1.1"
   inkscape:version="0.48.4 r"
   sodipodi:docname="Symbol of Yamakita Kanagawa.svg">
  <defs
     id="defs4" />
  <sodipodi:namedview
     id="base"
     pagecolor="#ffffff"
     bordercolor="#666666"
     borderopacity="1.0"
     inkscape:pageopacity="0.0"
     inkscape:pageshadow="2"
     inkscape:zoom="2.458014"
     inkscape:cx="118.96188"
     inkscape:cy="134.25473"
     inkscape:document-units="px"
     inkscape:current-layer="layer1"
     showgrid="false"
     inkscape:window-width="1280"
     inkscape:window-height="961"
     inkscape:window-x="-8"
     inkscape:window-y="-8"
     inkscape:window-maximized="1"
     inkscape:snap-grids="true"
     fit-margin-top="0"
     fit-margin-left="0"
     fit-margin-right="0"
     fit-margin-bottom="0">
    <inkscape:grid
       type="xygrid"
       id="grid3828"
       empspacing="5"
       visible="true"
       enabled="true"
       snapvisiblegridlinesonly="true"
       originx="-161.0625px"
       originy="-370.95593px" />
  </sodipodi:namedview>
  <metadata
     id="metadata7">
    <rdf:RDF>
      <cc:Work
         rdf:about="">
        <dc:format>image/svg+xml</dc:format>
        <dc:type
           rdf:resource="http://purl.org/dc/dcmitype/StillImage" />
        <dc:title></dc:title>
      </cc:Work>
    </rdf:RDF>
  </metadata>
  <g
     inkscape:label="レイヤー 1"
     inkscape:groupmode="layer"
     id="layer1"
     transform="translate(-161.0625,-431.40625)">
    <path
       style="fill:#205f20;fill-opacity:1;stroke:none"
       d="m 286.0625,431.40625 -80.35714,160.71429 c -8.53779,-14.1345 -13.50447,-30.66709 -13.50447,-48.3817 0,-23.57764 8.73359,-45.08416 23.10268,-61.55134 l -35.65848,0 c -10.49139,18.10096 -16.51786,39.1175 -16.51786,61.55134 0,29.57702 10.39491,56.68495 27.79018,77.90178 l -29.85491,59.76563 48.3817,-41.51786 c 21.00473,16.76407 47.59723,26.78572 76.5625,26.78572 28.97071,0 55.59985,-10.01597 76.6183,-26.78572 l 48.4375,41.51786 -29.91071,-59.82143 c 17.37848,-21.20816 27.84598,-48.29634 27.84598,-77.84598 0,-22.43384 -6.07395,-43.45038 -16.57366,-61.55134 l -35.71429,0 c 14.36909,16.46718 23.10268,37.9737 23.10268,61.55134 0,17.67009 -4.95052,34.15891 -13.44866,48.27009 L 286.0625,431.40625 z m 0,142.85714 53.90625,46.20536 c -15.25959,10.75059 -33.88043,17.07589 -53.96205,17.07589 -20.06009,0 -38.65586,-6.29053 -53.90625,-17.02009 l 53.96205,-46.26116 z"
       id="path3824"
       inkscape:connector-curvature="0" />
  </g>
</svg>
