<svg width="1352" height="1551" xmlns="http://www.w3.org/2000/svg" xmlns:xlink="http://www.w3.org/1999/xlink" xml:space="preserve" overflow="hidden"><defs><clipPath id="clip0"><rect x="-1682" y="238" width="1352" height="1551"/></clipPath></defs><g clip-path="url(#clip0)" transform="translate(1682 -238)"><path d="M-1003.95 565.667C-963.939 565.667-926.771 578.407-895.94 600.224L-892.998 602.767-1006.17 1106.96-1118.62 605.983-1111.96 600.224C-1081.12 578.407-1043.96 565.667-1003.95 565.667ZM-1184.4 474.561-1225.27 489.375C-1427.46 574.057-1569.33 772.304-1569.33 1003.36-1569.33 1311.44-1317.12 1561.18-1006 1561.18-694.88 1561.18-442.667 1311.44-442.667 1003.36-442.667 772.304-584.536 574.057-786.725 489.375L-827.602 474.561-804.978 480.321C-529.8 565.073-330 819.238-330 1119.61-330 1489.31-632.655 1789-1006 1789-1379.34 1789-1682 1489.31-1682 1119.61-1682 819.238-1482.2 565.073-1207.02 480.321ZM-1006.17 238C-919.587 238-849.398 308.215-849.398 394.831L-850.778 408.525-849.398 408.525-851.902 419.682-852.583 426.438-855.604 436.171-879.077 540.747-887.048 534.383C-920.418 512.565-960.646 499.826-1003.95 499.826-1047.25 499.826-1087.48 512.565-1120.85 534.383L-1132.59 543.756-1156.74 436.171-1159.76 426.438-1160.44 419.682-1162.94 408.525-1161.56 408.525-1162.94 394.831C-1162.94 308.215-1092.75 238-1006.17 238Z" fill-rule="evenodd"/></g></svg>