<?xml version="1.0" encoding="UTF-8"?><svg width="438" height="454" viewBox="31 23 438 454" xmlns="http://www.w3.org/2000/svg">
 <path xmlns="http://www.w3.org/2000/svg" fill="#000000" d="m234.7 25.2v16.1c-112.4 7.9-201.6 102-201.6 216.6 0.2 101.3 70.3 188.9 168.9 211.5 9.9-30.9 16.8-62 17-90 0-49.8-15-98.5-43.1-139.6h-39.2c33 39 51 88.5 51.2 139.6 0 17.3-2.3 34.4-6.4 51.2-70.1-27.7-117.6-95.7-117.8-173 0-97.6 75.2-177.6 170.7-185.4v30.9c-78.4 7.8-139.6 73.8-139.6 154.5 0 49.8 24 96.4 64.3 125.5l11.1-30.4c-28.1-23.7-44.3-58.4-44.3-95 0-63.2 47.5-115.5 108.6-123v340h31.07v-340c61.26 7.6 108.6 59.9 108.6 123 0 36.7-16.2 71.5-44.3 95l11.1 30.2c40.3-29.1 64.3-75.7 64.3-125.5 0-80.5-61.3-146.7-139.6-154.5v-30.9c95.5 7.9 170.4 87.9 170.4 185.4 0 77.3-47.7 145.3-117.8 173-4.06-16.8-6.4-33.9-6.4-51.2 0-51 18.2-100.5 51.2-139.6h-39.2c-28.1 41.13-43.1 89.9-43.1 139.6 0.2 30.7 5.8 61.1 17.1 89.5 98.7-22.4 168.8-110.2 168.9-211.5 0-114.6-89-208.5-201.4-216.6v-15.9h-31.1z"/>
</svg>