<?xml version="1.0" encoding="UTF-8" ?>
<!DOCTYPE svg PUBLIC "-//W3C//DTD SVG 1.1//EN" "http://www.w3.org/Graphics/SVG/1.1/DTD/svg11.dtd">
<svg width="617pt" height="599pt" viewBox="0 0 617 599" version="1.1" xmlns="http://www.w3.org/2000/svg">
<g id="#fffffeff">
</g>
<g id="#171717ff">
<path fill="#171717" opacity="1.00" d=" M 295.68 27.99 C 298.74 25.80 302.89 24.60 306.38 26.57 C 309.75 29.52 315.10 27.56 317.98 31.43 C 316.53 33.01 314.15 34.47 314.73 36.99 C 315.27 40.25 319.64 41.02 321.80 38.81 C 322.29 37.29 322.83 35.79 323.38 34.29 C 326.56 35.26 328.72 37.80 330.21 40.65 C 334.14 41.60 336.88 45.01 337.66 48.89 C 337.31 49.99 336.98 51.11 336.66 52.23 C 338.95 54.81 339.28 58.19 339.06 61.50 C 336.56 60.69 333.18 59.95 331.35 62.43 C 329.72 64.13 331.40 66.22 332.61 67.58 C 334.50 69.10 336.91 67.68 338.92 67.15 C 338.93 69.77 339.47 72.64 337.88 74.95 C 336.06 77.53 338.03 80.97 336.28 83.59 C 335.10 86.02 332.70 87.53 330.17 88.25 C 328.77 91.16 326.49 93.67 323.30 94.60 C 322.45 92.45 322.08 88.48 318.93 88.82 C 316.81 88.40 315.24 90.25 314.60 92.04 C 314.35 94.42 316.59 95.87 317.83 97.57 C 315.53 99.85 312.44 100.77 309.27 100.79 C 305.20 103.82 299.21 104.26 295.38 100.57 C 292.20 100.81 289.09 99.86 286.73 97.71 C 287.81 96.38 288.97 95.10 289.91 93.65 C 290.74 90.90 287.77 88.06 285.05 88.86 C 282.49 89.24 282.30 92.41 281.16 94.23 C 278.09 93.65 275.62 91.31 274.55 88.43 C 272.28 87.15 269.44 86.28 268.22 83.77 C 267.22 81.47 268.07 78.88 267.51 76.56 C 265.75 73.91 264.83 70.70 265.80 67.57 C 268.09 67.84 271.39 69.27 272.86 66.68 C 274.32 64.93 273.52 62.28 271.80 61.04 C 269.86 60.00 267.73 61.18 265.75 61.41 C 264.96 58.29 265.57 54.87 267.73 52.44 C 267.67 49.76 267.14 46.75 268.75 44.38 C 269.96 42.28 272.49 41.65 274.48 40.53 C 275.59 37.43 278.24 35.08 281.51 34.50 C 281.96 36.49 282.42 38.76 284.31 39.93 C 286.55 40.68 288.44 39.18 290.21 38.05 C 290.02 35.45 288.81 33.11 286.83 31.43 C 288.93 28.57 292.56 28.58 295.68 27.99 Z" />
<path fill="#171717" opacity="1.00" d=" M 135.99 79.22 C 168.27 54.39 206.21 36.81 246.14 28.68 C 239.32 53.59 232.55 78.52 225.62 103.39 C 221.74 96.35 218.50 88.99 214.66 81.93 C 159.08 104.83 115.59 154.06 98.38 211.51 C 85.94 252.10 85.53 296.35 97.70 337.05 C 107.25 369.20 124.63 398.95 147.75 423.22 C 175.34 452.14 211.13 473.27 249.94 482.93 C 255.96 483.66 261.70 479.38 264.16 474.07 C 268.08 466.24 266.62 457.28 267.51 448.88 C 268.28 441.58 267.89 434.22 268.58 426.92 C 269.11 421.82 268.98 416.69 269.18 411.58 C 234.14 411.60 199.10 411.53 164.06 411.62 C 163.91 398.53 164.02 385.44 164.00 372.36 C 200.78 346.81 237.47 321.13 274.27 295.61 C 237.45 270.04 200.76 244.30 163.97 218.70 C 163.97 205.71 164.01 192.73 164.00 179.74 C 202.61 179.74 241.22 179.72 279.82 179.75 C 280.13 171.70 280.08 163.63 280.85 155.60 C 281.13 148.13 281.07 140.64 281.83 133.19 C 282.21 125.32 281.99 117.40 283.07 109.58 C 296.00 109.43 308.94 109.56 321.87 109.52 C 321.97 117.70 322.95 125.84 322.96 134.02 C 322.91 141.68 323.97 149.28 323.95 156.94 C 323.90 164.53 324.79 172.10 324.85 179.69 C 363.47 179.83 402.10 179.65 440.73 179.78 C 440.69 192.52 440.82 205.27 440.65 218.01 C 439.70 219.71 437.88 220.62 436.39 221.76 C 401.06 246.24 365.92 270.99 330.61 295.49 C 367.25 321.35 404.19 346.78 440.80 372.68 C 440.60 385.65 440.98 398.62 440.62 411.58 C 405.56 411.57 370.50 411.58 335.44 411.58 C 336.13 429.04 336.64 446.50 337.89 463.93 C 337.99 471.65 342.26 480.20 350.05 482.60 C 353.18 483.75 356.42 482.44 359.46 481.66 C 397.66 471.25 432.59 449.58 459.37 420.48 C 487.72 390.05 506.61 351.00 513.13 309.93 C 518.09 279.08 516.19 247.14 507.60 217.08 C 490.97 157.67 446.97 106.42 390.26 81.88 C 386.08 88.79 383.19 96.35 379.50 103.51 C 379.03 102.30 378.55 101.09 378.22 99.84 C 372.17 76.10 365.41 52.55 359.31 28.82 C 410.10 39.39 457.54 65.17 494.40 101.63 C 544.81 151.23 575.25 221.17 575.21 292.04 C 577.04 360.33 550.88 428.62 504.91 479.01 C 476.62 510.36 440.91 535.03 401.54 550.32 C 335.94 576.03 260.42 574.92 195.60 547.30 C 156.40 530.70 121.30 504.67 93.72 472.26 C 55.57 427.44 32.56 369.92 29.61 311.12 C 27.00 266.72 35.50 221.65 54.27 181.30 C 72.69 141.31 101.04 105.99 135.99 79.22 M 220.94 219.01 C 235.24 229.17 249.69 239.11 264.04 249.20 C 268.04 251.95 271.92 254.90 276.16 257.28 C 276.91 244.50 277.03 231.69 278.05 218.92 C 259.02 218.96 239.98 218.82 220.94 219.01 M 326.77 218.92 C 327.00 231.86 327.95 244.76 328.34 257.70 C 346.83 244.83 365.37 232.04 383.72 218.97 C 364.74 218.89 345.75 218.92 326.77 218.92 M 221.06 372.18 C 237.74 372.30 254.43 372.26 271.11 372.26 C 271.20 366.70 271.37 361.15 271.85 355.61 C 272.15 349.04 271.99 342.43 272.86 335.89 C 255.55 347.91 238.18 359.87 221.06 372.18 M 331.91 335.94 C 331.85 340.63 332.30 345.30 332.62 349.98 C 333.14 357.40 332.74 364.85 333.43 372.25 C 350.32 372.29 367.21 372.22 384.10 372.29 C 366.72 360.15 349.32 348.03 331.91 335.94 Z" />
</g>
</svg>
