<svg xmlns="http://www.w3.org/2000/svg" viewBox="0 0 100 100" fill-rule="evenodd" clip-rule="evenodd" stroke-linecap="round" stroke-linejoin="round"><path d="M50.04 4.2469c.0133.00795.0266.01601.0399.02397.7111.41564 1.398.86953 2.0775 1.3344.7624.51889 1.4988 1.07348 2.2213 1.64603 1.2205.95152 2.357 2.00098 3.4519 3.0923.5045.5004.9888 1.0204 1.4622 1.5501 6.1747 6.9322 9.9321 16.0673 9.9321 26.0727 0 .1444-.0064.2876-.008.4315v.1758c.0767.0399.1489.0849.2238.1279 12.4105 7.1652 19.4271 20.0979 19.6164 33.4638-1.532.8682-3.1359 1.6007-4.7702 2.2533-1.0901.4307-2.1976.8184-3.3241 1.1426-1.0408.3096-2.0941.5735-3.1562.7991-9.0907 1.8812-18.8779.56-27.5429-4.4427-.0945-.0546-.1858-.1126-.2797-.1678-.0958.0564-.1912.1121-.2876.1678-8.665 5.0027-18.4602 6.3239-27.551 4.4427-1.9663-.4049-3.8868-.9982-5.777-1.67-1.0993-.4065-2.1708-.8789-3.2362-1.3664-.7575-.358-1.4957-.7543-2.2293-1.1586.1894-13.3659 7.198-26.2986 19.6085-33.4638 0 0 .2836-.1519.3596-.1838v-.1838c-.0012-.1231-.008-.2442-.008-.3676 0-14.3304 7.6964-26.8726 19.177-33.7195zm8.4139 4.3388S74.8302 24.1566 90 26.3963c-5.6452 14.2573-.3516 36.2206-.3516 36.2206s-1.7211-6.0806-4.2908-10.5314c-.9908-1.7161-2.2693-3.3959-2.2693-3.3959s-2.4523-7.4406-2.6129-16.7959c-8.0216-4.8167-13.2401-10.6592-13.2401-10.6592s-.815-1.9514-1.8058-3.6676c-2.5697-4.4508-6.9756-8.9812-6.9756-8.9812zm-16.9078 0s-4.4059 4.5304-6.9756 8.9812c-.9908 1.7162-1.8058 3.6676-1.8058 3.6676s-5.2185 5.8425-13.2401 10.6592c-.1606 9.3553-2.6129 16.7959-2.6129 16.7959s-1.2785 1.6798-2.2693 3.3959c-2.5697 4.4508-4.2908 10.5314-4.2908 10.5314S15.6452 40.6536 10 26.3963C25.1698 24.1566 41.5461 8.5857 41.5461 8.5857zm8.374 9.5485c-4.236 4.2573-7.115 9.8589-7.9425 16.1087 2.6298-.5526 5.3149-.7799 7.9984-.799 2.6521-.0122 5.2885.2982 7.8946.775-.8333-6.2407-3.7191-11.833-7.9505-16.0847zm.1518 26.2086c-2.4791-.0231-4.9409.3261-7.3352.9508 1.2585 4.6472 3.7052 8.9757 7.1994 12.4891 3.3997-3.4215 5.9244-7.7107 7.2153-12.505-2.3067-.6372-4.692-.8839-7.0795-.9349zm17.2194 5.9848c-1.6621 5.005-4.3263 9.6835-7.9106 13.7116 5.767 2.3263 11.9731 2.6003 17.7068 1.0787-1.5496-5.726-4.8974-10.9608-9.7962-14.7903zm-34.6225 0c-4.8989 3.8295-8.2546 9.0643-9.8042 14.7903 5.7336 1.5216 11.9477 1.2476 17.7147-1.0787-3.5846-4.0283-6.2483-8.7062-7.9105-13.7116zm48.5258 27.0156S59.5246 83.7355 50 95.7531c-9.5246-12.0176-31.1946-18.4099-31.1946-18.4099s6.1271 1.5501 11.2665 1.5501c1.9816 0 4.0751-.2716 4.0751-.2716s7.6708 1.598 15.853 6.1366c8.1822-4.5386 15.853-6.1366 15.853-6.1366s2.0935.2716 4.0751.2716c5.1394 0 11.2665-1.5501 11.2665-1.5501z" fill="#3e55af" layerName="Untitled"/></svg>