<?xml version="1.0" encoding="UTF-8" standalone="no"?>
<!-- Created with Inkscape (http://www.inkscape.org/) -->

<svg
   xmlns:dc="http://purl.org/dc/elements/1.1/"
   xmlns:cc="http://creativecommons.org/ns#"
   xmlns:rdf="http://www.w3.org/1999/02/22-rdf-syntax-ns#"
   xmlns:svg="http://www.w3.org/2000/svg"
   xmlns="http://www.w3.org/2000/svg"
   version="1.1"
   width="300"
   height="294"
   id="svg3885">
  <defs
     id="defs3887" />
  <metadata
     id="metadata3890">
    <rdf:RDF>
      <cc:Work
         rdf:about="">
        <dc:format>image/svg+xml</dc:format>
        <dc:type
           rdf:resource="http://purl.org/dc/dcmitype/StillImage" />
        <dc:title></dc:title>
      </cc:Work>
    </rdf:RDF>
  </metadata>
  <g
     id="layer2"
     style="display:inline">
    <rect
       width="300"
       height="294"
       ry="0"
       x="0"
       y="0"
       id="rect4097"
       style="fill:#ff7a01;fill-opacity:1;fill-rule:evenodd;stroke:none" />
    <path
       d="m 178.15625,34.1875 c -1.92276,0.0066 -4.1742,0.08308 -6.71875,0.28125 -35.18389,2.74008 -65.50308,18.41197 -86.09375,44.5 -9.012977,11.41929 -10.84866,14.453468 -18.0625,29.5625 -6.61886,13.86287 -8.67989,16.68941 -13.8125,19.125 -5.07231,2.40696 -19.20725,3.15057 -32.09375,1.6875 -6.23448,-0.70783 -12.1612,-1.55918 -13.15625,-1.875 -2.69613,-0.85572 -5.27891,2.14568 -3.96875,4.59375 2.13801,3.9949 18.02585,15.20954 27.96875,19.75 11.50937,5.25579 17.94899,10.4614 22.78125,18.4375 2.7263,4.50002 3.65925,7.80223 5.6875,19.8125 3.04861,18.05235 9.31154,34.61587 16.96875,44.90625 10.609347,14.25771 25.48563,24.60445 41.0625,28.5625 6.86757,1.74506 22.55293,1.71619 31,-0.0625 21.1056,-4.44419 39.18892,-21.6909 46.4375,-44.25 0.75107,-2.3375 1.48363,-4.25 1.625,-4.25 0.37678,0 8.24418,3.42405 13.4375,5.84375 7.87281,3.66816 34.16517,11.94775 43.75,13.78125 10.74322,2.05508 14.75,1.35768 14.75,-2.53125 0,-1.83317 -1.43354,-3.18744 -6.5,-6.1875 -3.575,-2.11691 -7.175,-4.17841 -8,-4.5625 -2.12288,-0.98832 -13.09078,-8.61442 -22.5,-15.65625 -11.56443,-8.65479 -19.99709,-16.24456 -26.65625,-23.96875 -6.68436,-7.75342 -7.56973,-11.25262 -3.09375,-12.3125 20.62128,-4.88298 44.98287,-12.87871 65.1875,-21.34375 7.60121,-3.18464 19.67365,-9.57935 21.6875,-11.5 0.61434,-0.5859 2.30184,-2.07863 3.75,-3.3125 3.0359,-2.58664 3.22686,-3.51093 1.09375,-5.28125 -1.20929,-1.00362 -2.9699,-1.02671 -8.25,-0.15625 -37.58713,6.19651 -81.40207,6.92501 -123.71875,2.09375 -10.09212,-1.15221 -16.79849,-3.63786 -17.96875,-6.6875 -0.91874,-2.39419 -1.61649,-6.75621 2.53125,-9.78125 2.71822,-1.98246 4.88572,-2.53429 8.59375,-3.5625 8.09759,-2.24539 10.0213,-3.7594 8.4375,-6.71875 -0.99192,-1.85343 -6.50133,-3.580998 -9.90625,-4.15625 -2.55844,-0.432241 -7.05424,-2.947 -7.65625,-4.84375 -0.85659,-2.69887 0.96358,-6.779863 3.875,-8.6875 3.40975,-2.234154 5.57935,-2.31604 9.3125,-3.15625 7.8746,-1.77233 9.28125,-2.68387 9.28125,-5.90625 0,-2.72743 -2.65164,-4.67325 -8.78125,-6.46875 -5.76326,-1.68818 -9.21875,-5.03239 -9.21875,-8.90625 0,-6.21584 12.92981,-16.35592 27.5,-21.5625 2.75,-0.9827 5.59545,-2.35134 6.34375,-3.03125 1.59815,-1.451797 -1.13797,-2.238637 -6.90625,-2.21875 z M 133.625,169.3125 c 17.39534,0 31.5,14.10466 31.5,31.5 0,17.39534 -14.10466,31.5 -31.5,31.5 -17.39534,0 -31.5,-14.10466 -31.5,-31.5 0,-17.39534 14.10466,-31.5 31.5,-31.5 z"
       id="path4069"
       style="fill:#01519a;fill-opacity:1;display:inline" />
  </g>
</svg>
