<?xml version="1.0" encoding="UTF-8" standalone="no"?>
<!-- Created with Inkscape (http://www.inkscape.org/) -->

<svg
   xmlns:dc="http://purl.org/dc/elements/1.1/"
   xmlns:cc="http://creativecommons.org/ns#"
   xmlns:rdf="http://www.w3.org/1999/02/22-rdf-syntax-ns#"
   xmlns:svg="http://www.w3.org/2000/svg"
   xmlns="http://www.w3.org/2000/svg"
   xmlns:sodipodi="http://sodipodi.sourceforge.net/DTD/sodipodi-0.dtd"
   xmlns:inkscape="http://www.inkscape.org/namespaces/inkscape"
   width="250"
   height="255.82094"
   id="svg2"
   version="1.1"
   inkscape:version="0.48.4 r"
   sodipodi:docname="Symbol of Murakami Niigata.svg">
  <defs
     id="defs4" />
  <sodipodi:namedview
     id="base"
     pagecolor="#ffffff"
     bordercolor="#666666"
     borderopacity="1.0"
     inkscape:pageopacity="0.0"
     inkscape:pageshadow="2"
     inkscape:zoom="2.8926484"
     inkscape:cx="125"
     inkscape:cy="127.91047"
     inkscape:document-units="px"
     inkscape:current-layer="layer1"
     showgrid="false"
     inkscape:window-width="1280"
     inkscape:window-height="961"
     inkscape:window-x="-8"
     inkscape:window-y="-8"
     inkscape:window-maximized="1"
     fit-margin-top="0"
     fit-margin-left="0"
     fit-margin-right="0"
     fit-margin-bottom="0" />
  <metadata
     id="metadata7">
    <rdf:RDF>
      <cc:Work
         rdf:about="">
        <dc:format>image/svg+xml</dc:format>
        <dc:type
           rdf:resource="http://purl.org/dc/dcmitype/StillImage" />
        <dc:title />
      </cc:Work>
    </rdf:RDF>
  </metadata>
  <g
     inkscape:label="レイヤー 1"
     inkscape:groupmode="layer"
     id="layer1"
     transform="translate(-35.010766,-617.33587)">
    <g
       id="g3815">
      <g
         id="g3819"
         transform="matrix(1.0600239,0,0,1.0600239,-2.1014817,-52.410252)">
        <path
           style="fill:#1f8077;fill-opacity:1;stroke:none"
           d="m 35.010765,632.15678 c 23.802588,22.35656 36.949006,34.95628 54.46875,60.28125 -11.45332,9.42686 -21.662296,29.13188 -26.0625,43.1875 10.52662,-13.35435 19.00394,-27.58257 31.8125,-34.65625 2.31212,3.51099 4.693641,7.19881 7.218745,11.21875 2.60977,4.15471 4.93107,8.36771 7,12.6875 -11.967942,-0.8411 -28.477839,4.13545 -38.656245,14.4375 -7.162263,7.24927 -12.125,16.89369 -12.125,27.75 0,58.5894 47.504345,106.09375 106.093745,106.09375 58.5894,0 106.09375,-47.50435 106.09375,-106.09375 0,-27.95304 -10.82878,-53.36851 -28.5,-72.3125 -4.05473,6.98294 -9.90692,12.76894 -16.9375,16.75 10.30046,15.04229 12.8859,32.13518 13.28125,42.8125 0.4351,11.75075 -7.88292,66.63023 -63.25,68.6875 -0.20708,0.008 -0.43797,-10e-4 -0.65625,0 8.83163,-44.45689 5.04041,-88.76469 -16.84534,-117.21875 -7.26133,-9.4406 -15.07089,-16.50805 -22.52966,-23.15625 8.42399,-1.50297 15.70689,-2.15372 23.125,-2.0313 -0.53329,-2.78286 -0.84375,-5.6554 -0.84375,-8.59375 0,-3.73726 0.46082,-7.36906 1.3125,-10.84375 -13.64524,0.74752 -26.53988,4.13712 -38.3125,9.59375 C 98.404853,654.5788 73.574133,644.5774 35.010765,632.15678 z m 76.374995,96.96875 c 6.47093,14.99079 9.87787,31.35159 10.4375,50.75 -19.50427,7.52237 -32.752794,-1.61072 -36.531245,-14 -8.157425,-26.74762 10.45055,-35.95251 26.093745,-36.75 z"
           id="path3810"
           inkscape:connector-curvature="0"
           sodipodi:nodetypes="ccccscssssccsccsccscccccsc" />
        <path
           sodipodi:type="arc"
           style="fill:#f98200;fill-opacity:1;stroke:none"
           id="path3793"
           sodipodi:cx="143.25714"
           sodipodi:cy="482.29077"
           sodipodi:rx="63.742855"
           sodipodi:ry="62.757141"
           d="m 207,482.29077 c 0,34.65981 -28.53865,62.75714 -63.74286,62.75714 -35.20421,0 -63.742854,-28.09733 -63.742854,-62.75714 0,-34.65981 28.538644,-62.75714 63.742854,-62.75714 35.20421,0 63.74286,28.09733 63.74286,62.75714 z"
           transform="matrix(0.63043144,0,0,0.64033348,112.78996,363.18029)" />
      </g>
    </g>
  </g>
</svg>
