<svg xmlns="http://www.w3.org/2000/svg" width="500" height="478">
<path d="M0 195.716S159.306 9.138 252.24 76.596c0 0 64.224 35.159-29.423 164.335C129.17 370.107 8.606 459.079 3.94 461.95c-4.66 2.868 170.076-192.315 113.746-269.467 0 0-31.22-42.332-117.686 3.232" fill="#009a34"/>
<path d="M142.228 376.214s31.17 82.87 130.551 99.012c99.382 16.128 154.752-54.269 167.217-68.205 12.465-13.94 53.176-75.548 26.408-156.59 0 0-11.434-43.946-52.819-79.115 0 0-103.684 70.78-104.938 72.869 0 0-35.001 57.025-58.441 77.832-23.443 20.813-37.035 40.695-107.978 54.197" fill="#ce4b25"/>
<path d="M282.494 90.594c-1.94 1.074 50.766-53.409 99.632-75.156 0 0 69.748-34.387 101.586-.519 0 0 41.186 30.705-7.426 95.948 0 0-52.707 74.712-170.666 138.16 0 0 37.876-68.819 52.964-82.128 0 0 18.172-24.815 62.43-52.195 0 0 2.047-1.53-25.078-5.628 0 0-4.63.21-9.677-7.188 0 0-10.77-24.219-26.554-27.988 0 0-20.543-14.666-77.211 16.694" fill="#005c92"/>
</svg>