<?xml version="1.0" encoding="UTF-8" standalone="no"?>
<!-- Created with Inkscape (http://www.inkscape.org/) -->

<svg
   xmlns:dc="http://purl.org/dc/elements/1.1/"
   xmlns:cc="http://creativecommons.org/ns#"
   xmlns:rdf="http://www.w3.org/1999/02/22-rdf-syntax-ns#"
   xmlns:svg="http://www.w3.org/2000/svg"
   xmlns="http://www.w3.org/2000/svg"
   xmlns:sodipodi="http://sodipodi.sourceforge.net/DTD/sodipodi-0.dtd"
   xmlns:inkscape="http://www.inkscape.org/namespaces/inkscape"
   width="250"
   height="250.0407"
   id="svg2"
   version="1.1"
   inkscape:version="0.48.4 r"
   sodipodi:docname="Symbol of Joetsu Niigata.svg">
  <defs
     id="defs4" />
  <sodipodi:namedview
     id="base"
     pagecolor="#ffffff"
     bordercolor="#666666"
     borderopacity="1.0"
     inkscape:pageopacity="0.0"
     inkscape:pageshadow="2"
     inkscape:zoom="1.9367187"
     inkscape:cx="139.68122"
     inkscape:cy="87.35904"
     inkscape:document-units="px"
     inkscape:current-layer="layer1"
     showgrid="false"
     inkscape:window-width="1280"
     inkscape:window-height="961"
     inkscape:window-x="-8"
     inkscape:window-y="-8"
     inkscape:window-maximized="1"
     fit-margin-top="0"
     fit-margin-left="0"
     fit-margin-right="0"
     fit-margin-bottom="0" />
  <metadata
     id="metadata7">
    <rdf:RDF>
      <cc:Work
         rdf:about="">
        <dc:format>image/svg+xml</dc:format>
        <dc:type
           rdf:resource="http://purl.org/dc/dcmitype/StillImage" />
        <dc:title></dc:title>
      </cc:Work>
    </rdf:RDF>
  </metadata>
  <g
     inkscape:label="レイヤー 1"
     inkscape:groupmode="layer"
     id="layer1"
     transform="translate(-172.9375,-389.49056)">
    <g
       id="g3821"
       transform="matrix(1.3001788,0,0,1.3001788,-51.912167,-191.97371)">
      <path
         id="path3810"
         d="m 230.3125,455.34375 18.78125,51.09375 c 12.98298,-19.52312 34.99493,-36.9007 67.4375,-36.8125 l 6.0625,0.0312 1.25,5.9375 c 3.96693,18.81897 -0.48966,38.71585 -9.6875,55.53125 -5.63114,10.2948 -13.09036,19.51126 -21.84375,26.59375 l 68.84375,13.34375 c 2.63345,-8.76965 4.0625,-18.0602 4.0625,-27.6875 0,-53.09787 -43.05838,-96.15625 -96.15625,-96.15625 -13.78844,0 -26.89516,2.89744 -38.75,8.125 z"
         style="fill:#008027;fill-opacity:1;stroke:none"
         inkscape:connector-curvature="0" />
      <path
         id="path3791"
         d="m 355.65625,585.25 -111.3125,-21.5625 24.53125,-9.375 c 12.3605,-4.71721 24.36239,-16.18348 32.125,-30.375 6.66898,-12.19217 10.13586,-26.19188 9.0625,-39.03125 -30.0551,2.49903 -47.17408,22.9828 -55.46875,42.4375 l -7.40625,17.375 -30.21875,-82.15625 c -26.4988,17.11994 -44.03125,46.91741 -44.03125,80.8125 0,53.09787 43.02713,96.15625 96.125,96.15625 38.09002,0 71.02933,-22.15872 86.59375,-54.28125 z"
         style="fill:#008027;fill-opacity:1;stroke:none"
         inkscape:connector-curvature="0"
         sodipodi:nodetypes="cccsccccssc" />
    </g>
  </g>
</svg>
