<?xml version="1.0" encoding="UTF-8" ?>
<!DOCTYPE svg PUBLIC "-//W3C//DTD SVG 1.1//EN" "http://www.w3.org/Graphics/SVG/1.1/DTD/svg11.dtd">
<svg width="261pt" height="250pt" viewBox="0 0 261 250" version="1.1" xmlns="http://www.w3.org/2000/svg">
<g id="#fffffeff">
</g>
<g id="#df001fff">
<path fill="#df001f" opacity="1.00" d=" M 198.49 10.81 C 212.51 7.20 228.22 14.11 235.28 26.68 C 240.73 35.94 241.22 47.87 236.65 57.58 C 232.44 66.75 223.86 73.76 214.03 76.05 C 205.33 77.94 195.79 76.70 188.26 71.78 C 176.50 64.61 170.19 49.61 173.44 36.20 C 175.98 23.84 186.18 13.55 198.49 10.81 Z" />
</g>
<g id="#21298dff">
<path fill="#21298d" opacity="1.00" d=" M 104.89 18.55 C 123.13 15.85 141.85 18.76 159.01 25.24 C 155.80 34.71 154.63 45.01 157.08 54.79 C 160.86 71.77 174.17 86.18 190.77 91.37 C 205.14 96.13 221.47 93.73 234.10 85.46 C 245.13 102.67 250.93 123.57 248.58 144.01 C 246.39 165.15 236.24 184.67 223.04 201.02 C 214.45 211.95 203.11 220.52 190.73 226.75 C 165.83 239.27 137.64 243.67 110.00 244.12 C 97.88 244.11 85.75 243.31 73.78 241.36 C 80.67 240.14 87.65 239.31 94.33 237.13 C 123.19 228.35 147.47 208.12 164.81 183.81 C 173.35 172.22 179.85 158.54 180.44 143.96 C 181.06 131.03 176.38 117.94 167.53 108.47 C 157.37 97.31 142.03 91.10 126.96 92.21 C 112.71 93.27 98.48 95.91 85.13 101.07 C 70.61 106.62 57.35 115.38 46.41 126.41 C 35.47 137.12 26.62 149.77 19.04 163.02 C 17.50 165.87 15.97 168.73 14.11 171.39 C 9.96 147.79 7.76 123.27 12.79 99.63 C 16.48 81.86 25.76 65.39 38.90 52.89 C 56.94 35.48 79.74 21.96 104.89 18.55 Z" />
</g>
<g id="#19ac3fff">
<path fill="#19ac3f" opacity="1.00" d=" M 113.95 112.89 C 122.28 111.28 131.27 111.18 139.09 114.85 C 145.92 117.98 151.62 124.10 153.17 131.57 C 154.57 138.63 153.08 145.92 150.49 152.53 C 146.54 162.45 140.31 171.30 133.31 179.30 C 121.83 192.35 108.00 203.17 93.22 212.24 C 67.18 228.18 37.90 238.49 7.86 243.62 C 26.78 234.41 44.50 222.36 58.76 206.76 C 70.16 194.53 79.29 180.25 86.12 165.02 C 88.75 158.45 91.71 151.32 90.17 144.13 C 89.04 139.78 84.12 137.86 79.99 138.55 C 67.85 140.20 57.67 147.55 47.09 153.14 C 55.16 143.76 65.00 136.02 75.38 129.36 C 87.23 121.85 100.11 115.59 113.95 112.89 Z" />
</g>
</svg>
