<?xml version="1.0" encoding="UTF-8" standalone="no"?>
<!-- Created with Inkscape (http://www.inkscape.org/) -->

<svg
   xmlns:dc="http://purl.org/dc/elements/1.1/"
   xmlns:cc="http://creativecommons.org/ns#"
   xmlns:rdf="http://www.w3.org/1999/02/22-rdf-syntax-ns#"
   xmlns:svg="http://www.w3.org/2000/svg"
   xmlns="http://www.w3.org/2000/svg"
   xmlns:sodipodi="http://sodipodi.sourceforge.net/DTD/sodipodi-0.dtd"
   xmlns:inkscape="http://www.inkscape.org/namespaces/inkscape"
   width="300"
   height="287.22955"
   id="svg2"
   version="1.1"
   inkscape:version="0.48.4 r"
   sodipodi:docname="Symbol of Sado Niigata.svg">
  <defs
     id="defs4" />
  <sodipodi:namedview
     id="base"
     pagecolor="#ffffff"
     bordercolor="#666666"
     borderopacity="1.0"
     inkscape:pageopacity="0.0"
     inkscape:pageshadow="2"
     inkscape:zoom="1.4123585"
     inkscape:cx="-205.6665"
     inkscape:cy="81.300642"
     inkscape:document-units="px"
     inkscape:current-layer="layer1"
     showgrid="false"
     inkscape:window-width="1280"
     inkscape:window-height="961"
     inkscape:window-x="-8"
     inkscape:window-y="-8"
     inkscape:window-maximized="1"
     fit-margin-top="0"
     fit-margin-left="0"
     fit-margin-right="0"
     fit-margin-bottom="0" />
  <metadata
     id="metadata7">
    <rdf:RDF>
      <cc:Work
         rdf:about="">
        <dc:format>image/svg+xml</dc:format>
        <dc:type
           rdf:resource="http://purl.org/dc/dcmitype/StillImage" />
        <dc:title />
      </cc:Work>
    </rdf:RDF>
  </metadata>
  <g
     inkscape:label="レイヤー 1"
     inkscape:groupmode="layer"
     id="layer1"
     transform="translate(-266.84992,-386.98608)">
    <g
       id="g3800"
       transform="matrix(1.149817,0,0,1.149817,-39.978643,-101.00894)">
      <path
         sodipodi:nodetypes="ccsscsc"
         inkscape:connector-curvature="0"
         id="path3789"
         d="m 490.01357,485.44224 -99.48439,-61.03121 -71.96744,50.44777 c -15.08725,10.57587 -20.64621,40.64115 -13.05292,50.80053 20.42758,27.3309 54.37024,33.3745 119.59294,32.80869 -21.80459,-11.27769 -43.43078,-18.09021 -40.92266,-38.45319 4.56963,-37.09997 64.54173,-39.06401 105.83447,-34.57259 z"
         style="fill:#fc8b00;fill-opacity:1;stroke:none" />
      <path
         style="fill:#0082eb;fill-opacity:1;stroke:none"
         d="m 266.84991,598.72036 121.70963,75.49525 c 8.59001,-14.69766 7.20948,-28.28162 41.96762,-42.47408 10.32547,-4.2161 30.66509,-10.14067 50.90556,-14.38296 23.85036,-4.9989 46.32122,-18.90532 46.32828,-36.27729 0.009,-22.58074 -23.96477,-37.38516 -34.07255,-42.33378 -22.30366,-10.91954 -50.48965,-18.55767 -88.19539,-12.34736 53.45707,8.44738 76.70295,18.88468 75.83404,34.19756 -1.1239,19.80663 -70.54757,11.13599 -103.70378,8.84179 -19.70465,-1.36344 -76.15354,-6.16492 -110.77341,29.28087 z"
         id="path3796"
         inkscape:connector-curvature="0"
         sodipodi:nodetypes="ccsssscssc" />
    </g>
  </g>
</svg>
