<svg xmlns="http://www.w3.org/2000/svg" height="550" width="550" version="1.1" viewBox="0 0 550 550"><g transform="translate(0 -502.36216)"><path d="m 246.12109,527.36212 0,35.71094 c -40.46547,9.40475 -76.64552,29.97521 -105.11914,58.28906 l -116.00195,0 51.121094,156 0,191.64453 99.999996,0 0,-191.64453 c 1e-5,-48.4289 28.69077,-90.15259 70,-109.11328 l 0,218.1543 c -24.5541,-11.27897 -45.07657,-30.72615 -57.5,-55.84961 l 0,138.45312 c 18.0879,10.19711 37.45342,17.73481 57.5,22.46681 l 0,35.88874 100,0 0,-35.71104 c 97.41301,-22.64015 169.99999,-109.98619 170,-214.28904 -10e-6,-104.30285 -72.58699,-191.64889 -170,-214.28906 l 0,-35.71094 -100,0 z m 100,140.88672 c 41.30923,18.96069 69.99999,60.68438 70,109.11328 -10e-6,48.4289 -28.69077,90.15259 -70,109.11328 l 0,-218.22656 z"/></g></svg>