<svg xmlns="http://www.w3.org/2000/svg" width="250" height="300">
<path d="M237.225 291.907h-11.567L121.69 47.38 62.468 198.39l6.559 26.719 16.8-8.998 37.397-100.576 72.791 177.131h-12.31l-60.852-148.247-30.338 80.173-20.386 10.581 6.671 21.711-14.345 36.557H52.47l15.266-36.444-5.154-17.252-22.212 13.36-17.64 41.112H11.566l21.55-49.303L59.48 229.39l-7.883-29.142L121.302 22.34ZM19.644 53.147l70.997-.258-3.925 8.707H32.34l6.138 16.914h41.985l-3.683 7.754H40.886l6.09 17.333H71.24l-3.893 7.56-17.447.113 10.824 31.081-3.344 11.292zm199.86 1.163L186 147.116l-3.764-9.434 9.175-26.396-15.798-.048-3.037-6.494h20.742l6.946-18.9h-35.652l-2.31-7.27h39.868l6.543-18.109h-53.326l-2.697-6.154zm14.248-9.627h-92.435L121.302 0l-19.627 45.07H6.93l48.14 122.45L0 300h249.534L190.62 160.977Z"/>
</svg>