<?xml version="1.0" encoding="UTF-8" standalone="no"?>
<!-- Created with Inkscape (http://www.inkscape.org/) -->

<svg
   xmlns:svg="http://www.w3.org/2000/svg"
   xmlns="http://www.w3.org/2000/svg"
   version="1.0"
   width="400"
   height="400"
   id="svg2">
  <defs
     id="defs5" />
  <g
     transform="translate(12,-12)"
     id="g4195">
    <path
       d="M 188.5,24 153,59.5 156.5,78 131,80 l -10,34 -27,4 -4,27 -36,12 -1,24 -19,-3 -34,34 34,34 19,-3 1,24 36,12 4,27 27,4 10,34 25.5,2 -3.5,18.5 35.5,35.5 35,-35.5 -4,-18.5 25.5,-2 10,-34 27,-4 4,-27 36,-12 1,-24 19,3 34,-34 -34,-34 -19,3 -1,-24 -36,-12 -4,-27 -27,-4 -10,-34 -25.5,-2 4,-18.5 -35,-35.5 z m 0,2.75 32.875,33.375 -3.78125,17.46875 c 0,0 -0.50001,2.15624 -0.5,2.15625 0,0 2.25,0.1875 2.25,0.1875 l 24.15625,1.90625 9.625,32.71875 c 0,0 0.40623,1.12501 0.40625,1.125 0,0 1.1875,0.25 1.1875,0.25 l 25.5625,3.78125 3.78125,25.5625 c 0,0 0.21872,1.125 0.21875,1.125 0,0 1.09375,0.4375 1.09375,0.4375 l 34.75,11.59375 0.9375,22.65625 c 0,0 0.15627,2.15626 0.15625,2.15625 0,0 2.09375,-0.34375 2.09375,-0.34375 l 18,-2.84375 L 373,211.75 l 0.25,0 -0.125,0.125 0.125,0.125 -0.25,0 -31.6875,31.6875 -18,-2.84375 c 0,0 -2.09375,-0.34375 -2.09375,-0.34375 2e-5,1e-5 -0.15625,2.15625 -0.15625,2.15625 l -0.9375,22.65625 -34.75,11.59375 c 0,0 -1.09375,0.4375 -1.09375,0.4375 -3e-5,0 -0.21875,1.125 -0.21875,1.125 l -3.78125,25.5625 -25.5625,3.78125 c 0,0 -1.1875,0.25 -1.1875,0.25 -2e-5,-10e-6 -0.40625,1.125 -0.40625,1.125 l -9.625,32.71875 -24.15625,1.90625 c 0,0 -2.25,0.1875 -2.25,0.1875 -1e-5,-10e-6 0.5,2.15625 0.5,2.15625 L 221.375,363.625 188.5,397 155.09375,363.59375 158.40625,346.125 c 0,0 0.4375,-2.125 0.4375,-2.125 -1e-5,0 -2.1875,-0.1875 -2.1875,-0.1875 L 132.5,341.90625 122.875,309.1875 c 0,0 -0.375,-1.125 -0.375,-1.125 0,-10e-6 -1.21875,-0.25 -1.21875,-0.25 l -25.5625,-3.78125 -3.78125,-25.5625 c 0,0 -0.25,-1.1875 -0.25,-1.1875 -1e-5,0 -1.0625,-0.375 -1.0625,-0.375 L 55.875,265.3125 54.9375,242.65625 c 0,0 -0.125,-2.15625 -0.125,-2.15625 1e-5,1e-5 -2.125,0.34375 -2.125,0.34375 l -18,2.84375 L 3,212 l -0.25,0 0.125,-0.125 -0.125,-0.125 0.25,0 31.6875,-31.6875 18,2.84375 c 0,0 2.12501,0.34376 2.125,0.34375 0,0 0.125,-2.15625 0.125,-2.15625 l 0.9375,-22.65625 34.75,-11.59375 c 0,0 1.06249,-0.375 1.0625,-0.375 0,0 0.25,-1.1875 0.25,-1.1875 l 3.78125,-25.5625 25.5625,-3.78125 c 0,0 1.21875,-0.24999 1.21875,-0.25 0,0 0.375,-1.125 0.375,-1.125 L 132.5,81.84375 156.65625,79.9375 c 0,0 2.18749,-0.1875 2.1875,-0.1875 0,0 -0.4375,-2.125 -0.4375,-2.125 L 155.09375,60.15625 188.5,26.75 z"
       id="path2458"
       style="fill:#f00000;fill-opacity:1;stroke:none" />
    <path
       d="m 188,165 c -25.53,0 -46.24999,20.71999 -46.25,46.25 0,24.00921 18.3328,43.76287 41.75,46.03125 l 0,-6.8125 C 163.53496,248.23121 148,231.80935 148,211.25 c 1e-5,-22.08001 17.92,-40 40,-40 22.08,0 39.5,17.92 39.5,40 -1e-5,20.90131 -15.55623,37.53853 -36,39.3125 l 0,6.78125 c 23.89229,-1.79564 42.75,-21.74462 42.75,-46.09375 0,-25.53 -20.72,-46.25001 -46.25,-46.25 z m 0,11.5 c -7.54161,0 -15.02089,2.91363 -20.71875,7 l 41.4375,0 c -5.69786,-4.08638 -13.17714,-7 -20.71875,-7 z M 161.5,189 c -3.76315,4.85447 -7.23852,12.59352 -8,19 l 69,0 c -0.76148,-6.40648 -4.23685,-14.14553 -8,-19 l -53,0 z m 3.5625,6.375 45.5,0 c 1.51571,2.1344 2.74741,3.6702 3.625,6.1875 l -52.75,0 c 0.87759,-2.5173 2.10929,-4.0531 3.625,-6.1875 z m -11.6875,18.75 c 1.46228,17.83952 16.41046,31.87501 34.625,31.875 18.21455,0 33.16272,-14.03549 34.625,-31.875 l -69.25,0 z m 7.875,5.875 22.25,0 0,6.75 -18.78125,0 c -1.45502,-2.14591 -2.64693,-4.23726 -3.46875,-6.75 z m 30.25,0 22.75,0 c -0.82182,2.51274 -1.51373,4.60409 -2.96875,6.75 l -19.78125,0 0,-6.75 z m -21.90625,12.4375 13.90625,0 0,6.5625 -0.125,0 c -5.47616,-0.90816 -9.85762,-2.97365 -13.78125,-6.5625 z m 21.90625,0 14.78125,0 c -3.92363,3.58884 -8.18009,5.65434 -13.65625,6.5625 l -1.125,0 0,-6.5625 z"
       id="path2425"
       style="fill:#f00000;fill-opacity:1;stroke:#000000;stroke-width:0;stroke-miterlimit:0;stroke-opacity:1;stroke-dasharray:none" />
    <path
       d="M 188.5,36.46875 163,62 l 17.40625,97.28125 c 2.47717,-0.35903 5.0176,-0.53125 7.59375,-0.53125 2.69561,0 5.3509,0.20129 7.9375,0.59375 L 214,62 188.5,36.46875 z M 217,86.5 202.96875,160.9375 c 4.52426,1.34591 8.79479,3.27564 12.71875,5.71875 L 247.5,119 238.9375,88 217,86.5 z m -58,0.5 -21,1 -9,31 32,47 1.40625,-0.59375 c 3.31796,-1.85669 6.88212,-3.33031 10.59375,-4.4375 L 159,87 z m -36,36 -22,3 -3,21 47.875,32.90625 c 2.42202,-3.24912 5.24942,-6.17241 8.34375,-8.78125 L 155.0625,170.1875 123,123 z m 131,0 -32.53125,47.8125 c 3.31572,2.74855 6.28849,5.90105 8.84375,9.375 L 278,147.5 275.5,125.5625 254,123 z M 282.5,153.96875 234.03125,186 c 2.0686,3.76282 3.68041,7.81063 4.78125,12.0625 0.006,0.0224 0.0255,0.0401 0.0312,0.0625 L 239,198.5 315,184 314,164 282.5,153.96875 z M 94,154 l -31,10 -1,20 75,14 0.625,-1.53125 c 1.07541,-3.66608 2.5372,-7.18261 4.34375,-10.46875 L 94,154 z M 38,187 12.46875,212 38,237 l 98,-18.5 0,-0.0312 c -0.32459,-2.35856 -0.5,-4.77144 -0.5,-7.21875 0,-1.95198 0.13586,-3.88433 0.34375,-5.78125 L 38,187 z m 301,0 -98.78125,18.96875 c 0.17325,1.73449 0.28125,3.50138 0.28125,5.28125 0,2.28532 -0.15383,4.54144 -0.4375,6.75 L 339,237 364.03125,212 339,187 z M 137.40625,225.1875 62,239.96875 l 1,20 L 94.5,270 142.59375,237.59375 c -2.23956,-3.85015 -3.97968,-8.0162 -5.1875,-12.40625 z M 238.5,225.59375 c -1.20775,4.25548 -2.94408,8.28896 -5.125,12.03125 L 282,270 l 32,-9 1,-21 -76.5,-14.40625 z m -9,17.90625 -0.40625,0.375 c -2.4829,3.12209 -5.31754,5.95204 -8.4375,8.4375 L 254,301 l 21,-2 3,-23 -48.5,-32.5 z m -82.71875,0.21875 -47.78125,32.75 2.5,21.9375 21.5,2.5625 L 155.5625,252.5 c -3.26216,-2.56968 -6.2089,-5.5213 -8.78125,-8.78125 z M 161.375,256.5 129.5,304.96875 l 8.5625,31 21.9375,1.5 13.84375,-75.6875 C 169.42882,260.54565 165.23861,258.7794 161.375,256.5 z m 53.625,0 -1.40625,0.59375 c -3.31796,1.85669 -6.88212,3.33031 -10.59375,4.4375 L 218,337 l 20,-1 9.5,-31 -32.5,-48.5 z m -34,6.875 -18,98.625 25.5,25.5 25.5,-25.5 -18,-98.625 -1.84375,0 c -2.01783,0.23583 -4.07544,0.375 -6.15625,0.375 -2.08081,0 -4.13842,-0.13917 -6.15625,-0.375 l -0.84375,0 z"
       id="path2384"
       style="fill:#f00000;fill-opacity:1;stroke:none" />
  </g>
</svg>
