<?xml version="1.0" encoding="UTF-8" standalone="no"?>
<svg
   xmlns:dc="http://purl.org/dc/elements/1.1/"
   xmlns:cc="http://creativecommons.org/ns#"
   xmlns:rdf="http://www.w3.org/1999/02/22-rdf-syntax-ns#"
   xmlns:svg="http://www.w3.org/2000/svg"
   xmlns="http://www.w3.org/2000/svg"
   id="svg8"
   version="1.1"
   viewBox="0 0 128.94987 133.08578"
   height="133.08578mm"
   width="128.94987mm">
  <defs
     id="defs2">
    <pattern
       id="EMFhbasepattern"
       patternUnits="userSpaceOnUse"
       width="6"
       height="6"
       x="0"
       y="0" />
  </defs>
  <metadata
     id="metadata5">
    <rdf:RDF>
      <cc:Work
         rdf:about="">
        <dc:format>image/svg+xml</dc:format>
        <dc:type
           rdf:resource="http://purl.org/dc/dcmitype/StillImage" />
        <dc:title></dc:title>
      </cc:Work>
    </rdf:RDF>
  </metadata>
  <g
     transform="translate(-91.25125,-152.59402)"
     id="layer1">
    <path
       style="fill:#809cc9;fill-opacity:1;fill-rule:evenodd;stroke:none;stroke-width:0.26458332"
       d="m 146.9894,239.30606 -0.0199,-0.0299 -0.01,-0.0299 c -5.44929,-11.35684 -6.95357,-21.837 -4.56266,-32.04819 0.48814,-2.12194 1.14564,-4.1841 1.90277,-6.16656 -5.18031,9.01573 -7.81032,22.27533 -0.3686,40.72521 0,0 11.48634,26.79814 -3.08826,42.1996 2.35106,0.54792 4.74197,0.97629 7.18269,1.26519 5.04085,-10.56982 10.43036,-24.82564 -1.03606,-45.91548 z"
       id="path818" />
    <path
       style="fill:#809cc9;fill-opacity:1;fill-rule:evenodd;stroke:none;stroke-width:0.26458332"
       d="m 155.05873,239.5053 c -11.79517,-20.60169 -9.03566,-35.42535 -4.44312,-45.50703 -7.5513,13.12013 -9.72304,26.5989 -1.32496,44.10237 11.76528,21.65769 6.64474,36.40165 1.48436,47.37992 1.63379,0.12951 3.2875,0.19924 4.95118,0.19924 0.58776,0 1.16557,-0.01 1.75334,-0.0299 4.54273,-10.51006 9.24485,-24.7061 -2.4208,-46.14462 z"
       id="path820" />
    <path
       style="fill:#809cc9;fill-opacity:1;fill-rule:evenodd;stroke:none;stroke-width:0.26458332"
       d="m 163.76563,239.48538 c -7.58118,-12.28332 -11.27714,-23.06235 -11.27714,-32.87505 0,-0.32875 0,-0.6575 0.01,-0.98625 0.16936,-6.65471 1.98247,-12.36301 4.31361,-17.56324 -3.04841,5.02091 -6.10679,10.95834 -7.15281,18.33032 -1.3947,9.94221 1.11576,20.35265 7.69077,31.83899 11.84497,21.77723 7.62103,36.39168 3.03845,47.2803 2.22155,-0.1594 4.41322,-0.42838 6.55508,-0.80694 2.18171,-5.37955 4.20402,-11.66566 4.20402,-19.24684 0,-7.3421 -1.8928,-15.87965 -7.38194,-25.97129 z"
       id="path822" />
    <path
       style="fill:#809cc9;fill-opacity:1;fill-rule:evenodd;stroke:none;stroke-width:0.26458332"
       d="m 168.58731,232.91037 c -14.57461,-21.42855 -9.26479,-42.54828 -7.95975,-46.832 -6.64474,13.48873 -9.83263,27.48553 5.37955,52.09201 l 0.01,0.0299 0.0199,0.0299 c 11.18748,20.58177 8.13907,34.97706 3.94501,45.86567 2.17174,-0.48814 4.29368,-1.08587 6.37577,-1.78322 10.93838,-25.00496 -7.7705,-49.40223 -7.7705,-49.40223 z"
       id="path824" />
    <path
       style="fill:#ffffff;fill-opacity:1;fill-rule:evenodd;stroke:none;stroke-width:0.26458332"
       d="m 149.30061,238.12057 c -0.01,0 -0.01,-0.01 -0.01,-0.0199 -0.0199,-0.01 -0.0299,-0.0299 -0.0299,-0.0399 z"
       id="path826" />
    <path
       style="fill:#ff9e00;fill-opacity:1;fill-rule:evenodd;stroke:none;stroke-width:0.26458332"
       d="m 91.25125,156.00269 c 7.282321,0 13.17991,8.35823 13.17991,18.679 0,4.51285 -1.32497,8.85634 -3.20781,12.08407 -6.315996,9.9721 -9.9721,21.78719 -9.9721,34.45902 0,29.40823 19.69514,54.22391 46.61283,61.96449 15.0229,-16.17851 3.0783,-42.19961 3.0783,-42.19961 -15.01294,-37.25838 14.16616,-55.74811 14.16616,-55.74811 C 138.34226,137.8716 91.25125,156.00269 91.25125,156.00269 Z"
       id="path828" />
    <path
       style="fill:#008837;fill-opacity:1;fill-rule:evenodd;stroke:none;stroke-width:0.26458332"
       d="m 207.02122,174.69165 c 0,-10.32077 5.89759,-18.679 13.17991,-18.679 0,0 -39.56961,-18.06135 -56.67459,29.23886 0,0 -8.74675,23.0225 7.57122,47.01132 0,0 18.23071,21.68757 8.39808,48.91409 23.84935,-9.45407 40.70529,-32.73558 40.70529,-59.94217 0,-12.67184 -3.65611,-24.48693 -9.9721,-34.45903 -1.88285,-3.22773 -3.20781,-7.57122 -3.20781,-12.08407 z"
       id="path830" />
  </g>
</svg>
