<?xml version="1.0" encoding="UTF-8" standalone="no"?>
<!-- Created with Inkscape (http://www.inkscape.org/) -->

<svg
   xmlns:dc="http://purl.org/dc/elements/1.1/"
   xmlns:cc="http://creativecommons.org/ns#"
   xmlns:rdf="http://www.w3.org/1999/02/22-rdf-syntax-ns#"
   xmlns:svg="http://www.w3.org/2000/svg"
   xmlns="http://www.w3.org/2000/svg"
   xmlns:sodipodi="http://sodipodi.sourceforge.net/DTD/sodipodi-0.dtd"
   xmlns:inkscape="http://www.inkscape.org/namespaces/inkscape"
   version="1.1"
   id="svg2"
   xml:space="preserve"
   width="200"
   height="197.7388"
   viewBox="0 0 200 197.73879"
   sodipodi:docname="Emblem_of_Uozu,_Toyama.svg"
   inkscape:version="0.92.4 (5da689c313, 2019-01-14)"><metadata
     id="metadata8"><rdf:RDF><cc:Work
         rdf:about=""><dc:format>image/svg+xml</dc:format><dc:type
           rdf:resource="http://purl.org/dc/dcmitype/StillImage" /><dc:title></dc:title></cc:Work></rdf:RDF></metadata><defs
     id="defs6" /><sodipodi:namedview
     pagecolor="#ffffff"
     bordercolor="#666666"
     borderopacity="1"
     objecttolerance="10"
     gridtolerance="10"
     guidetolerance="10"
     inkscape:pageopacity="0"
     inkscape:pageshadow="2"
     inkscape:window-width="1920"
     inkscape:window-height="996"
     id="namedview4"
     showgrid="false"
     fit-margin-top="0"
     fit-margin-left="0"
     fit-margin-right="0"
     fit-margin-bottom="0"
     inkscape:zoom="1.6819306"
     inkscape:cx="80.521759"
     inkscape:cy="153.321"
     inkscape:window-x="1912"
     inkscape:window-y="-8"
     inkscape:window-maximized="1"
     inkscape:current-layer="g10" /><g
     id="g10"
     inkscape:groupmode="layer"
     inkscape:label="uozu"
     transform="matrix(1.3333333,0,0,-1.3333333,-244.96731,710.80709)"><path
       d="m 333.72549,520.01763 c 0,0 -10.90855,-5.5026 -28.11799,-10.36665 -2.1079,3.09174 -4.41521,5.7834 -6.82196,8.12067 -8.57975,8.63149 -19.5447,14.2939 -31.14926,15.25422 -0.36345,0.0468 -1.1031,0.0773 -1.13913,0.0791 -3.49008,0 -6.40557,-2.51196 -6.40557,-5.97817 0,-3.4668 2.82885,-6.27708 6.31834,-6.27708 0.0523,0 0.16339,0.005 0.16744,0.005 0.58501,-0.0125 1.96136,0.27039 2.03347,0.29337 2.1375,0.64635 3.79936,2.38901 4.30875,4.58295 9.65838,-3.37725 17.82877,-9.96777 23.25628,-18.50476 -8.52914,-1.97673 -18.1375,-3.62174 -28.42972,-4.39771 l -8.91641,12.14593 -9.02978,-12.15319 c -10.74951,0.80479 -20.75563,2.55763 -29.56593,4.64951 5.71737,8.86759 14.40674,15.60398 24.64484,18.76872 0.34743,-2.37971 2.03752,-4.32274 4.28201,-5.05364 0.0713,-0.0241 1.44179,-0.33582 2.02675,-0.33582 3.49008,0 6.31923,2.81028 6.31923,6.27708 0,3.46621 -2.91638,5.97817 -6.40617,5.97817 -15.38474,-0.86028 -29.75373,-10.02701 -39.07688,-23.50458 -17.31354,4.87632 -28.29831,10.41727 -28.29831,10.41727 8.7844,-5.76745 16.53935,-12.1448 23.38769,-18.89609 -3.72462,-7.81074 -5.87319,-16.57132 -5.87319,-25.72495 0,-30.86732 22.99518,-56.20762 52.32883,-58.90334 4.63582,-18.69167 5.14171,-31.69241 5.14171,-31.69241 0,0 0.53499,12.99842 5.16939,31.68777 29.36122,2.66779 52.38611,28.02036 52.38611,58.90798 -0.58442,10.30323 -2.76383,18.7783 -5.9032,25.74823 6.84226,6.74254 14.58874,13.11203 23.36266,18.87281 M 212.95185,482.6453 c 0,3.77089 0.45526,7.43425 1.31037,10.93851 13.3031,-15.00307 23.42663,-33.18416 29.9619,-48.52246 0,0 7.19899,16.72453 12.97108,24.48991 l -7.26586,11.54263 h 17.78423 c -8.54891,-7.97615 -22.35438,-39.24813 -22.35438,-39.24813 0.84606,-2.0602 0.66987,-1.32865 1.41881,-3.34236 -19.45633,5.08038 -33.82615,22.9173 -33.82615,44.1419 m 57.85929,-43.76743 c 6.43875,17.19523 16.30993,36.2553 31.4284,53.62469 0.69314,-3.17433 1.06005,-6.47245 1.06005,-9.85726 0,-20.73473 -13.71538,-38.23464 -32.48845,-43.76743 z"
       style="fill:#0a3dcc;fill-opacity:1;fill-rule:nonzero;stroke:none;stroke-width:0.5954355"
       id="path148"
       inkscape:connector-curvature="0" /></g></svg>