<?xml version="1.0" encoding="UTF-8" standalone="no"?>
<!-- Created with Inkscape (http://www.inkscape.org/) -->

<svg
   xmlns:dc="http://purl.org/dc/elements/1.1/"
   xmlns:cc="http://creativecommons.org/ns#"
   xmlns:rdf="http://www.w3.org/1999/02/22-rdf-syntax-ns#"
   xmlns:svg="http://www.w3.org/2000/svg"
   xmlns="http://www.w3.org/2000/svg"
   xmlns:sodipodi="http://sodipodi.sourceforge.net/DTD/sodipodi-0.dtd"
   xmlns:inkscape="http://www.inkscape.org/namespaces/inkscape"
   width="350"
   height="340.29416"
   id="svg2"
   version="1.1"
   inkscape:version="0.48.4 r"
   sodipodi:docname="Symbol of Takaoka Toyama.svg">
  <defs
     id="defs4" />
  <sodipodi:namedview
     id="base"
     pagecolor="#ffffff"
     bordercolor="#666666"
     borderopacity="1.0"
     inkscape:pageopacity="0.0"
     inkscape:pageshadow="2"
     inkscape:zoom="2.1057143"
     inkscape:cx="175"
     inkscape:cy="170.14709"
     inkscape:document-units="px"
     inkscape:current-layer="layer1"
     showgrid="false"
     inkscape:window-width="1280"
     inkscape:window-height="961"
     inkscape:window-x="-8"
     inkscape:window-y="-8"
     inkscape:window-maximized="1"
     fit-margin-top="0"
     fit-margin-left="0"
     fit-margin-right="0"
     fit-margin-bottom="0" />
  <metadata
     id="metadata7">
    <rdf:RDF>
      <cc:Work
         rdf:about="">
        <dc:format>image/svg+xml</dc:format>
        <dc:type
           rdf:resource="http://purl.org/dc/dcmitype/StillImage" />
        <dc:title></dc:title>
      </cc:Work>
    </rdf:RDF>
  </metadata>
  <g
     inkscape:label="レイヤー 1"
     inkscape:groupmode="layer"
     id="layer1"
     transform="translate(-192.63265,-260.73894)">
    <g
       id="g3806"
       transform="matrix(1.5106197,0,0,1.5106197,-98.362026,-306.89934)">
      <path
         transform="matrix(1.6942603,0,0,1.7818944,-101.28741,-189.89306)"
         d="m 249.34599,333.30521 c 0,8.75787 -7.46688,15.85753 -16.67775,15.85753 -9.21086,0 -16.67774,-7.09966 -16.67774,-15.85753 0,-8.75788 7.46688,-15.85753 16.67774,-15.85753 9.21087,0 16.67775,7.09965 16.67775,15.85753 z"
         sodipodi:ry="15.857531"
         sodipodi:rx="16.677748"
         sodipodi:cy="333.30521"
         sodipodi:cx="232.66824"
         id="path3789"
         style="fill:#008f45;fill-opacity:1;stroke:none"
         sodipodi:type="arc" />
      <path
         sodipodi:nodetypes="csscc"
         inkscape:connector-curvature="0"
         id="path3791"
         d="m 424.32564,397.32918 c -41.19387,41.90074 -86.83132,63.28229 -137.24965,73.43212 -21.44635,4.31741 -68.9296,7.70304 -86.39621,-10.93624 -8.36218,-8.92359 -11.13868,-24.06145 -3.82768,-44.45088 43.79429,28.88701 129.55476,26.62189 227.47354,-18.045 z"
         style="fill:#0078bd;fill-opacity:1;stroke:none" />
      <path
         sodipodi:nodetypes="csssssscssc"
         inkscape:connector-curvature="0"
         id="path3793"
         d="m 278.44603,601.03309 c 44.44019,-12.67407 90.31355,-39.15241 101.43797,-71.74489 14.56994,-42.68724 -28.10878,-61.6797 -56.87396,-60.75102 -42.82743,1.38268 -111.44219,23.42705 -123.57821,64.5437 -11.04945,37.43538 28.63349,53.14407 68.90039,40.0233 19.67243,-6.41016 43.7013,-19.40063 39.19103,-36.54667 -4.12577,-15.68436 -23.05155,-17.41817 -38.24287,-12.95833 -12.5316,3.67901 -24.59178,11.83033 -25.91665,21.1758 -7.983,-5.6176 1.3203,-22.00469 9.16564,-27.813 22.95182,-16.99243 70.32746,-24.24056 85.65139,-1.89634 20.03748,29.21718 -18.58713,64.03093 -59.73473,85.96745 z"
         style="fill:#008f45;fill-opacity:1;stroke:none" />
    </g>
  </g>
</svg>
