<?xml version="1.0" encoding="UTF-8"?><svg width="382" height="454" viewBox="59 23 382 454" xmlns="http://www.w3.org/2000/svg">
 <path xmlns="http://www.w3.org/2000/svg" d="m250 25-15.6 110.6a162.5 162.5 0 0 0 -119.5 251.9l14-20.2a140 140 0 0 1 102.2 -208.6l-44.7 316.3h127.2l-44.7-316.3a140 140 0 0 1 102.2 208.5l14 20.2a162.5 162.5 0 0 0 -119.5 -251.7l-15.6-110.7zm-45.1 241.3-144.6 208.7h88.6l56-208.7zm90.2 0l56 208.7h88.6l-144.6-208.7zm34.1 146.3a140 140 0 0 1 -17.9 10.5l3.3 23.3a162.5 162.5 0 0 0 20.7 -11zm-164.5 22.9a162.5 162.5 0 0 0 20.8 10.8l3.3-23.2a140 140 0 0 1 -18 -10.3z" fill="#1aae48"/>
</svg>