<svg xmlns="http://www.w3.org/2000/svg" xmlns:xlink="http://www.w3.org/1999/xlink" viewBox="0 0 97.474 79.375" height="300" width="368.407" fill="#1d5faf">
<path id="a" d="M35.79 78.753S.721 73.177.003 41.323c0 0-1.122-27.98 30.691-39.08 0 0 11.869-4.228 18.557 5.088 0 0 6.303 8.881-.682 17.936 0 0-2.895 3.418-7.159 7.175 0 0-11.418 9.572-10.567 22.896 0 0 1.133 20.852 23.491 23.927 0 0-23.148 2.906-33.033-21.02 0 0-8.01-18.111 10.393-36.227 0 0 2.9-2.214.856-5.124 0 0-1.707-2.22-4.946-.682 0 0-14.272 7.872-15.374 27.688 0 0-1.665 24.214 23.558 34.848"/>
<use transform="rotate(180 48.737 39.688)" xlink:href="#a"/>
</svg>
