<?xml version="1.0" encoding="UTF-8" standalone="no"?><!-- Created with Inkscape (http://www.inkscape.org/) --><svg xmlns="http://www.w3.org/2000/svg" height="640" width="640" version="1.1"> <path d="m590,320a270,270,0,1,1,-540,0,270,270,0,1,1,540,0z" fill-rule="nonzero" fill="#005731"/> <path fill="#ffbe00" d="M306.16,20.312c-159.26,7.236-286.16,138.65-286.16,299.69,0,165.69,134.31,300,300,300s300-134.31,300-300c0-161.04-126.9-292.45-286.16-299.69l-13.84,29.688c127.03,0,230,102.97,230,230,0,83.215-44.21,156.09-110.41,196.47l-8.5-18.25c59.4-37.1,98.91-103.03,98.91-178.22,0-115.98-94.02-210-210-210s-210,94.02-210,210c0,67.901,32.227,128.27,82.219,166.66l28.53-61.16c-37.01-29.31-60.75-74.63-60.75-125.5,0-88.366,71.634-160,160-160s160,71.634,160,160c0,58.161-31.027,109.08-77.438,137.09l-82.56-177.09-119.59,256.47c-66.2-40.38-110.41-113.26-110.41-196.47,0-127.03,102.97-230,230-230l-13.84-29.688z"/> <path fill="#FFF" d="m310,490,20,0,0,20,40,0,0,20-40,0,0,20,40,0,0,50-20,0,0-30-20,0,0,30-20,0,0-30-20,0,0,30-20,0,0-50,40,0,0-20-40,0,0-20,40,0z"/></svg>