<?xml version="1.0" encoding="UTF-8" standalone="no"?>
<!-- Created with Inkscape (http://www.inkscape.org/) -->

<svg
   xmlns:dc="http://purl.org/dc/elements/1.1/"
   xmlns:cc="http://creativecommons.org/ns#"
   xmlns:rdf="http://www.w3.org/1999/02/22-rdf-syntax-ns#"
   xmlns:svg="http://www.w3.org/2000/svg"
   xmlns="http://www.w3.org/2000/svg"
   version="1.1"
   width="253.4476"
   height="242"
   id="svg2">
  <metadata
     id="metadata8">
    <rdf:RDF>
      <cc:Work
         rdf:about="">
        <dc:format>image/svg+xml</dc:format>
        <dc:type
           rdf:resource="http://purl.org/dc/dcmitype/StillImage" />
        <dc:title></dc:title>
      </cc:Work>
    </rdf:RDF>
  </metadata>
  <defs
     id="defs6" />
  <path
     d="m 128.2238,44.0625 0,19 c 42.23704,1.580686 76,36.313877 76,78.9375 0,6.18403 -0.7186,12.19382 -2.0625,17.96875 l 18.28125,5.21875 c 1.80455,-7.43585 2.78125,-15.19668 2.78125,-23.1875 0,-53.11948 -42.26518,-96.350593 -95,-97.9375 z M 97.692552,47.90625 C 56.962374,59.797613 27.223802,97.428374 27.223802,142 c 0,16.78866 4.216617,32.59328 11.65625,46.40625 l 16.46875,-9.53125 c -5.822549,-11.00937 -9.125,-23.55398 -9.125,-36.875 0,-35.66451 23.633702,-65.775086 56.093748,-75.59375 l -4.624998,-18.5 z M 192.06755,184.0625 C 178.07915,206.24493 153.38631,221 125.2238,221 104.32541,221 85.321324,212.87545 71.192552,199.625 l -13.65625,13.25 C 75.128488,229.67788 98.975622,240 125.2238,240 c 35.20168,0 66.06371,-18.56945 83.34375,-46.4375 l -16.5,-9.5 z"
     id="path2989"
     style="fill:#000000;fill-opacity:1;fill-rule:nonzero;stroke:none" />
  <path
     d="M 122.2238,2 C 108.41668,2 97.223802,12.74517 97.223802,26 l 25.999998,104 0,-104 c 0,-1.104569 0.89543,-2 2,-2 1.10457,0 2,0.895431 2,2 l 0,14.03125 c 6.8507,0.132239 13.54397,0.924522 20,2.34375 l 0,-16.375 c 0,-13.25483 -11.19288,-24 -25,-24 z m 14.40625,144.28125 90.0625,52 c 0.95658,0.55228 1.27103,1.76216 0.71875,2.71875 -0.55229,0.95659 -1.76217,1.27103 -2.71875,0.71875 l -12.15625,-7 c -3.53987,5.86676 -7.57415,11.27478 -12.03125,16.15625 l 14.1875,8.1875 c 11.47902,6.62741 26.37769,2.30106 33.28125,-9.65625 6.90355,-11.95732 3.19777,-27.02884 -8.28125,-33.65625 l -103.0625,-29.46875 z m -20.8125,3.4375 -90.062498,52 c -0.956585,0.55228 -2.166465,0.23784 -2.71875,-0.71875 -0.552285,-0.95659 -0.237835,-2.16647 0.71875,-2.71875 L 35.911302,191.25 c -3.310828,-5.999 -5.969822,-12.1993 -7.96875,-18.5 l -14.1875,8.1875 C 2.2760324,187.56491 -1.4297578,202.63643 5.4738017,214.59375 12.377362,226.55106 27.276033,230.87742 38.755052,224.25 l 77.062498,-74.53125 z"
     id="path3766"
     style="fill:#000000;stroke:none" />
</svg>
