<?xml version="1.0" encoding="UTF-8"?><svg width="456" height="339" viewBox="22 81 456 339" xmlns="http://www.w3.org/2000/svg" version="1.1">
 <path xmlns="http://www.w3.org/2000/svg" d="m323.2 408.1a1.5 1.5 0 0 0 0.8-2.7 189 105 45 0 1-105.5-297.9 1.5 1.5 0 0 0-0.1-3 270 150 45 0 0-80.8 303.6z" fill="#6e28b4"/>
 <path xmlns="http://www.w3.org/2000/svg" d="m438.1 269.7a1.5 1.5 0 0 0-2.4 1.5 105 52.5 45 1 1-76.3-76.3 1.5 1.5 0 0 0 1-2.8 165 82.5 45 1 0 77.7 77.7z" fill="#1ec814"/>
 <ellipse xmlns="http://www.w3.org/2000/svg" transform="rotate(-45)" cx="86.25" cy="430.85" rx="30" ry="60" fill="#dcc800"/>
</svg>