<?xml version="1.0" encoding="UTF-8" standalone="no"?>
<svg
   xmlns:dc="http://purl.org/dc/elements/1.1/"
   xmlns:cc="http://creativecommons.org/ns#"
   xmlns:rdf="http://www.w3.org/1999/02/22-rdf-syntax-ns#"
   xmlns:svg="http://www.w3.org/2000/svg"
   xmlns="http://www.w3.org/2000/svg"
   id="svg2"
   height="447.625"
   width="462.46875"
   version="1.0">
  <metadata
     id="metadata8">
    <rdf:RDF>
      <cc:Work
         rdf:about="">
        <dc:format>image/svg+xml</dc:format>
        <dc:type
           rdf:resource="http://purl.org/dc/dcmitype/StillImage" />
        <dc:title></dc:title>
      </cc:Work>
    </rdf:RDF>
  </metadata>
  <defs
     id="defs5" />
  <path
     style="fill:#000000;stroke:none"
     id="path2417"
     d="M 230.875,0 C 178.70432,0 134.59353,34.62617 120.21875,82.125 118.69042,82.065 117.16795,82.0313 115.625,82.0313 51.80441,82.0313 0,133.83571 0,197.6563 c 0,39.92838 20.28519,75.13048 51.09375,95.90625 -4.24226,12.02668 -6.53125,24.96501 -6.53125,38.4375 0,63.82059 51.77317,115.62499 115.59375,115.625 26.62918,0 51.1655,-9.04135 70.71875,-24.1875 19.55325,15.14615 44.08957,24.1875 70.71875,24.1875 63.82059,0 115.59374,-51.80439 115.59375,-115.625 0,-13.32368 -2.25314,-26.11757 -6.40625,-38.03125 31.14506,-20.72157 51.6875,-56.12548 51.6875,-96.3125 0,-63.82059 -51.80442,-115.62499 -115.625,-115.625 -1.77157,0 -3.52906,0.046 -5.28125,0.125 C 327.1994,34.63846 283.05918,2e-6 230.875,0 Z m 0,16.625 c 49.43883,0 90.44298,36.30439 97.8125,83.6875 5.88444,-1.09173 11.95712,-1.65625 18.15625,-1.65625 54.64799,0 99,44.352 99,99 -10e-6,39.28823 -22.93197,73.22867 -56.125,89.21875 6.94667,13.53284 10.875,28.87657 10.875,45.125 -2e-5,54.64801 -44.352,99 -99,99 -27.69562,-10e-6 -52.74518,-11.39976 -70.71875,-29.75 -17.97357,18.35024 -43.02314,29.75 -70.71875,29.75 -54.64799,-2e-5 -99,-44.352 -99,-99 0,-16.36266 3.99295,-31.80388 11.03125,-45.40625 -32.88774,-16.10203 -55.5625,-49.87268 -55.5625,-88.9375 0,-54.648 44.352,-99 99,-99 5.96648,0 11.79206,0.51819 17.46875,1.53125 C 140.51631,52.86604 181.48,16.625 230.875,16.625 Z m -0.375,8.34375 c -16.92222,77.4585 -96.61539,135.85959 -196.625,157.125 4.97419,0.25412 9.98122,0 15.03125,0 57.58017,0 107.30113,-16.90377 147.5,-44.96875 l 14.46875,14.8125 v 21.21875 c -34.35937,1.85982 -67.46245,8.4589 -98.65625,19.1875 31.1938,10.7286 64.29688,17.32768 98.65625,19.1875 v 83.40625 c -53.78086,6.98064 -98.87003,41.73974 -120.40625,89.40625 37.26547,-33.37776 86.47909,-53.6875 140.40625,-53.6875 53.92717,0 103.14078,20.30974 140.40625,53.6875 -21.66852,-47.95935 -67.18814,-82.82036 -121.40625,-89.5 v -83.25 c 34.71732,-1.78451 68.15981,-8.41731 99.65625,-19.25 -31.49644,-10.83269 -64.93893,-17.46549 -99.65625,-19.25 V 152.4375 l 15.25,-15.65625 c 29.36491,21.77736 75.05698,45.3125 153.09375,45.3125 0,0 9.59375,0 9.59375,0 C 324.23264,161.11118 245.68931,98.4647 230.5,24.96875 Z m -0.0312,80.78125 9,9 -9,9 -9,-9 z m -101.875,109 c -31.00862,1e-5 -68.68755,11.84375 -68.68755,11.84375 -1e-5,-1e-5 27.51251,1.93482 64.28125,7.1875 30.40558,6.54073 36.65625,6.96147 36.65625,15.6875 0,7.77817 -7.34257,9.43782 -36.6875,15.625 -22.0971,3.53555 -64.28125,7.5 -64.28125,7.5 -1e-5,0 31.75428,11.96875 70.125,11.96875 50.93133,0 68.78125,-11.83072 68.78125,-35.34375 -1e-5,-24.99514 -20.49784,-34.46875 -70.1875,-34.46875 z m 203.71875,0 c -49.68966,0 -70.18751,9.47361 -70.1875,34.46875 0,23.51303 17.81865,35.34375 68.75,35.34375 38.37072,0 70.15627,-11.96875 70.15625,-11.96875 0,0 -42.18417,-3.96445 -64.28125,-7.5 -29.34493,-6.18718 -36.71877,-7.84683 -36.71875,-15.625 0,-8.72603 6.2819,-9.14677 36.6875,-15.6875 36.76874,-5.25268 64.25002,-7.18751 64.25,-7.1875 0,0 -37.64767,-11.84374 -68.65625,-11.84375 z" />
</svg>
