<?xml version="1.0" encoding="UTF-8"?><svg width="455" height="324" viewBox="22 88 455 324" xmlns="http://www.w3.org/2000/svg">
 <path xmlns="http://www.w3.org/2000/svg" d="m115.7 357.9c32.83 10 60.8 28.5 89.1 40.7 33.9 14.6 70.1 15 96.6 1.2 0.8-0.4 0.4-1.7-0.5-1.6-26.4 2.8-54.3-1.9-87.8-14.7-40.1-15.4-71-24-97-27.2-1.2-0.1-1.3 1.4-0.4 1.7zm-41.8-20.7c54.8 1.7 90.5 14.7 145.9 35 45.4 16.6 86.9 15.2 120.1-4.1 0.8-0.5 0.3-1.8-0.6-1.6-28.2 7-60.8 3-109.1-13.1-56.9-19.1-105.1-24.6-156.4-17.9-0.9 0.1-0.8 1.7 0.1 1.7z" fill="#00a5e3"/>
 <path xmlns="http://www.w3.org/2000/svg" d="m408 312.4l-63-109.2-61.8 107c45.3 15.1 91.6 29.4 124.8 2.2" fill="#6eba2b"/>
 <path xmlns="http://www.w3.org/2000/svg" d="m185.8 147.1 24.6 42.7-64.1 111c-18.2 0.3-35.6 2.1-51.9 4.6zm87.5-40.1 32.3 55.9-84.2 145.8c-20.8-4.9-40.8-7.3-60-7.8zm146.2 195.6c34.6-31.2 55.6-67.8 55.5-103.9-0.1-78.9-101-125.1-225.3-103.2-124.3 21.9-224.9 103.6-224.7 182.5 0 9.7 1.5 24.3 10.2 40.8 85.6-7.5 142.5 3.4 201.7 22.2 62 19.7 104.4 18.2 141.9-4.8 0.9-0.6 0.2-1.8-0.7-1.6-48.8 14.7-98.9-8.1-143.8-22.5l95.3-165z" fill="#005bac"/>
</svg>