<?xml version="1.0" encoding="UTF-8" standalone="no"?>
<!-- Created with Inkscape (http://www.inkscape.org/) -->

<svg
   xmlns:dc="http://purl.org/dc/elements/1.1/"
   xmlns:cc="http://creativecommons.org/ns#"
   xmlns:rdf="http://www.w3.org/1999/02/22-rdf-syntax-ns#"
   xmlns:svg="http://www.w3.org/2000/svg"
   xmlns="http://www.w3.org/2000/svg"
   xmlns:sodipodi="http://sodipodi.sourceforge.net/DTD/sodipodi-0.dtd"
   xmlns:inkscape="http://www.inkscape.org/namespaces/inkscape"
   width="197.97005"
   height="197.90158"
   id="svg2"
   version="1.1"
   inkscape:version="0.48.2 r9819"
   sodipodi:docname="新規ドキュメント 1">
  <defs
     id="defs4" />
  <sodipodi:namedview
     id="base"
     pagecolor="#ffffff"
     bordercolor="#666666"
     borderopacity="1.0"
     inkscape:pageopacity="0.0"
     inkscape:pageshadow="2"
     inkscape:zoom="4.1384207"
     inkscape:cx="50.899047"
     inkscape:cy="98.95079"
     inkscape:document-units="px"
     inkscape:current-layer="layer1"
     showgrid="false"
     fit-margin-left="10"
     fit-margin-bottom="10"
     fit-margin-right="10"
     fit-margin-top="10"
     inkscape:window-width="1920"
     inkscape:window-height="1018"
     inkscape:window-x="-8"
     inkscape:window-y="-8"
     inkscape:window-maximized="1" />
  <metadata
     id="metadata7">
    <rdf:RDF>
      <cc:Work
         rdf:about="">
        <dc:format>image/svg+xml</dc:format>
        <dc:type
           rdf:resource="http://purl.org/dc/dcmitype/StillImage" />
        <dc:title></dc:title>
      </cc:Work>
    </rdf:RDF>
  </metadata>
  <g
     inkscape:label="レイヤー 1"
     inkscape:groupmode="layer"
     id="layer1"
     transform="translate(-276.01788,-413.41967)">
    <path
       id="path3025"
       style="fill:#623993;fill-opacity:1;stroke:none;stroke-linecap:round"
       d="m 432.98194,503.71785 c -1.96504,-2.42021 -4.77886,-4.13698 -7.82955,-4.77702 -3.0507,-0.64003 -6.31674,-0.19882 -9.08832,1.2276 -2.77158,1.42642 -5.02922,3.82795 -6.2824,6.68245 -1.25317,2.85451 -1.49305,6.14187 -0.66726,9.14759 0.8258,3.00573 2.71151,5.70865 5.24744,7.52124 2.53592,1.81258 5.70416,2.72204 8.81578,2.53057 3.11161,-0.19148 6.14462,-1.48253 8.4396,-3.59254 -2.04436,11.465 -7.66985,22.26506 -15.89285,30.51176 -7.70017,-1.25361 -15.02123,-4.75246 -20.83337,-9.95659 -5.81213,-5.20413 -10.09536,-12.09564 -12.18863,-19.61096 -2.09327,-7.51533 -1.9894,-15.62863 0.29553,-23.08793 2.28492,-7.4593 6.74301,-14.23897 12.68624,-19.29287 5.94322,-5.0539 13.35116,-8.36465 21.08068,-9.42127 7.72953,-1.05661 15.75409,0.14457 22.8354,3.41826 7.0813,3.27368 13.19499,8.60863 17.39756,15.18148 4.20257,6.57285 6.47955,14.36099 6.47955,22.16254 0,21.17168 -7.90901,42.25192 -21.83531,58.19864 -13.92631,15.94672 -33.74962,26.62218 -54.72849,29.47296 -20.97887,2.85078 -42.93209,-2.14772 -60.60877,-13.79996 -17.67669,-11.65225 -30.92415,-29.85757 -36.57379,-50.26153 4.46597,7.17533 11.01309,13.03839 18.6358,16.68867 7.62271,3.65027 16.29505,5.07535 24.68503,4.05633 8.60605,8.13904 19.62931,13.68971 31.29265,15.75716 11.66335,2.06745 23.92287,0.64389 34.80212,-4.04117 10.87925,-4.68507 20.33728,-12.61401 26.84929,-22.50853 6.51201,-9.89453 10.05349,-21.7174 10.05349,-33.56257 0,-3.11754 -1.10238,-6.2241 -3.06742,-8.64431 z m 8.65127,-31.65445 c -7.62271,-3.65028 -16.29505,-5.07535 -24.68503,-4.05634 -8.60605,-8.13904 -19.62931,-13.68972 -31.29265,-15.75717 -11.66335,-2.06745 -23.92287,-0.6439 -34.80212,4.04117 -10.87926,4.68507 -20.33729,12.614 -26.8493,22.50853 -6.51201,9.89453 -10.05349,21.7174 -10.05349,33.56257 0,3.11754 1.10237,6.2241 3.06741,8.64431 1.96504,2.42022 4.77886,4.13699 7.82955,4.77702 3.0507,0.64004 6.31674,0.19883 9.08832,-1.22759 2.77158,-1.42641 5.02922,-3.82794 6.2824,-6.68244 1.25318,-2.85451 1.49306,-6.14187 0.66727,-9.14759 -0.82579,-3.00573 -2.7115,-5.70865 -5.24743,-7.52124 -2.53592,-1.81259 -5.70416,-2.72205 -8.81577,-2.53058 -3.11162,0.19147 -6.14462,1.48253 -8.43961,3.59253 2.04436,-11.465 7.66985,-22.26506 15.89285,-30.51176 7.70017,1.25361 15.02123,4.75246 20.83337,9.95659 5.81213,5.20413 10.09536,12.09564 12.18863,19.61096 2.09327,7.51533 1.9894,15.62863 -0.29553,23.08793 -2.28492,7.4593 -6.74301,14.23897 -12.68624,19.29287 -5.94322,5.0539 -13.35116,8.36465 -21.08068,9.42127 -7.72953,1.05661 -15.75409,-0.14457 -22.8354,-3.41826 -7.0813,-3.27368 -13.19499,-8.60863 -17.39756,-15.18148 -4.20257,-6.57285 -6.47955,-14.36099 -6.47955,-22.16254 10e-6,-21.17167 7.90902,-42.25191 21.83533,-58.19862 13.9263,-15.94671 33.74961,-26.62215 54.72847,-29.47293 20.97887,-2.85079 42.93208,2.14772 60.60876,13.79995 17.67668,11.65224 30.92414,29.85755 36.57379,50.2615 -4.46596,-7.17533 -11.01309,-13.03839 -18.63579,-16.68866 z"
       inkscape:connector-curvature="0"
       sodipodi:nodetypes="sssssssccssssssscssscscssscsscssscsssssssccssssssscssscs" />
    <g
       inkscape:label="ADD_LINE"
       id="g3027"
       transform="translate(140.29918,-184.3115)" />
  </g>
</svg>
