<svg xmlns="http://www.w3.org/2000/svg" width="508" height="360">
<path d="M429.344 222.101h-9.998s-30 127.895-167.892 127.895C117.792 349.996 86.213 222.1 86.213 222.1h-9.998S109.373 360 251.454 360c144.732 0 177.89-137.899 177.89-137.899M76.215 137.893h9.998s30-127.895 167.868-127.895c133.686 0 165.265 127.895 165.265 127.895h9.998S396.186 0 254.081 0C109.373 0 76.215 137.893 76.215 137.893m314.063 78.466h78.793l38.332-73.008h-79.101zm-78.183-73.008 36.199 73.008h35.594l38.03-73.008zM0 143.351h81.223l36.045 73.008H36.809Zm87.613 0 35.89 73.008h40.14l37.808-73.008zm130.781-21.6 34.682 68.753-43.502 86.09h-70.867zM177.027 89.81l81.526-38.943 113.776 225.727h-69.665l-80.618-160.627 6.087-13.384z" fill="#00a650"/>
</svg>