<svg xmlns="http://www.w3.org/2000/svg" height="424" width="360">
<path d="M179.973 72.732c-62.748 0-117.556 33.893-147.149 84.383 1.139 14.12 6.52 55.966 30.916 71.707 7.11-57.887 56.428-102.74 116.233-102.74 64.692 0 117.226 52.48 117.226 117.172 0 64.692-52.534 117.119-117.226 117.119-59.806 0-109.125-44.807-116.235-102.688-9.997-6.211-38.97-27.317-45.988-66.947-5.345 16.543-8.244 34.187-8.244 52.516 0 94.161 76.305 170.523 170.467 170.523 94.215 0 170.576-76.362 170.576-170.523 0-94.216-76.36-170.522-170.576-170.522zm.108-61.815c-41.03 0-75.546 28.059-85.206 66.05C120.6 64.103 149.689 56.83 180.407 56.83c30.446 0 59.21 7.11 84.772 19.7-9.877-37.772-44.285-65.614-85.098-65.614" fill="#0f6645"/>
<path d="M179.973 353.155c-60.73 0-109.9-49.17-109.9-109.9 0-60.73 49.17-109.955 109.9-109.955 60.73 0 110.009 49.225 110.009 109.955s-49.28 109.9-110.01 109.9zm0-287.857C81.74 65.298 2.07 144.968 2.07 243.255c0 98.286 79.671 177.902 177.903 177.902 98.286 0 177.957-79.616 177.957-177.902 0-98.286-79.671-177.957-177.957-177.957zm97.972 29.387C275.14 43.086 232.374 2.07 179.973 2.07c-52.268 0-94.96 40.97-97.805 92.53M24.81 157.45s-5.102 61.327 44.557 89.06" style="fill:none;stroke:#000;stroke-width:4.14028"/>
</svg>