<?xml version="1.0" encoding="UTF-8" ?>
<!DOCTYPE svg PUBLIC "-//W3C//DTD SVG 1.1//EN" "http://www.w3.org/Graphics/SVG/1.1/DTD/svg11.dtd">
<svg width="287pt" height="240pt" viewBox="0 0 287 240" version="1.1" xmlns="http://www.w3.org/2000/svg">
<g id="#ffffffff">
</g>
<g id="#179052ff">
<path fill="#179052" opacity="1.00" d=" M 122.94 34.92 C 130.16 27.39 136.93 19.44 143.64 11.46 C 164.74 18.79 184.34 29.85 202.82 42.28 C 220.22 54.15 236.70 67.48 251.30 82.69 C 260.60 92.59 269.25 103.27 275.50 115.39 C 279.89 124.21 282.95 134.11 281.79 144.05 C 280.46 158.99 272.71 172.74 262.22 183.22 C 244.30 201.25 220.31 212.01 195.94 218.17 C 172.80 224.03 148.70 225.45 124.94 223.88 C 104.27 222.57 83.66 219.19 63.93 212.82 C 48.71 207.80 33.75 201.03 21.44 190.59 C 13.28 183.61 6.33 174.13 5.41 163.11 C 4.72 157.42 6.65 151.64 10.24 147.22 C 16.94 138.73 26.90 133.66 36.74 129.68 C 56.41 122.19 77.62 119.45 98.58 119.46 C 80.56 121.81 61.94 124.69 46.03 134.04 C 40.71 137.28 35.35 141.69 33.78 148.00 C 32.46 153.47 35.71 158.76 39.58 162.35 C 47.01 168.93 56.47 172.59 65.83 175.46 C 88.57 181.98 112.55 183.32 136.06 181.59 C 153.11 180.09 170.19 176.77 185.91 169.84 C 196.08 165.22 206.58 159.01 211.78 148.70 C 215.39 141.95 214.10 133.46 209.62 127.45 C 202.82 118.08 192.18 112.51 181.68 108.24 C 162.39 100.77 141.60 97.98 121.02 97.54 C 95.14 97.48 69.27 97.60 43.39 97.48 C 72.66 80.49 99.84 59.72 122.94 34.92 Z" />
</g>
<g id="#f9bc26ff">
<path fill="#f9bc26" opacity="1.00" d=" M 96.25 130.20 C 109.46 128.89 122.79 129.18 136.04 129.74 C 150.18 131.11 164.59 133.12 177.57 139.26 C 181.59 141.51 186.34 144.17 187.53 148.98 C 188.60 153.44 185.12 157.04 181.76 159.37 C 176.31 162.98 170.06 165.24 163.75 166.83 C 149.17 170.77 134.02 171.76 118.99 172.23 C 101.54 171.84 83.89 170.53 67.18 165.12 C 61.55 163.16 55.71 160.84 51.56 156.38 C 48.10 153.17 48.70 147.17 52.09 144.11 C 56.82 139.78 62.92 137.34 68.97 135.47 C 77.81 132.60 87.04 131.21 96.25 130.20 Z" />
</g>
</svg>
