<?xml version="1.0" encoding="UTF-8" standalone="no"?>
<!-- Created with Inkscape (http://www.inkscape.org/) -->

<svg
   xmlns:dc="http://purl.org/dc/elements/1.1/"
   xmlns:cc="http://creativecommons.org/ns#"
   xmlns:rdf="http://www.w3.org/1999/02/22-rdf-syntax-ns#"
   xmlns:svg="http://www.w3.org/2000/svg"
   xmlns="http://www.w3.org/2000/svg"
   version="1.0"
   width="450"
   height="450"
   id="svg2">
  <path
     d="M 207.74261,0 166.59282,41.19546 183.91249,58.53432 141.64127,100.85238 124.3216,83.51352 83.26526,124.61538 100.52263,141.8919 58.22026,184.24116 40.96289,166.9647 0,208.00416 17.13277,225.15594 0.4361,241.8711 41.7105,283.22244 58.34486,266.56962 100.64723,308.91894 84.01287,325.5717 124.78886,366.42414 141.51668,349.67772 183.78789,392.02704 167.09122,408.74226 208.30332,450 225.03113,433.25364 241.75895,450 282.62839,409.08528 265.58908,392.02704 307.89143,349.67772 324.93076,366.73596 365.89365,325.72764 349.10354,308.91894 391.40592,266.56962 408.19602,283.37838 449.56386,241.9335 432.80496,225.15594 450,207.94182 408.88134,166.77756 391.40592,184.24116 349.10354,141.8919 366.57897,124.4283 325.58492,83.38878 308.26525,100.7277 265.96289,58.40958 283.28256,41.03952 242.28851,0 225.03114,17.27652 207.74262,0 z M 225.03113,99.69852 267.30235,142.04784 233.00566,176.38254 233.00566,274.14762 267.30235,308.51352 225.03113,350.83158 182.72878,308.51352 216.05979,275.14554 216.05979,175.38462 182.72878,142.04784 225.03113,99.69852 z M 142.10854,182.80668 158.24449,198.96054 158.24449,251.3514 142.10854,267.5052 99.80617,225.15594 142.10854,182.80668 z M 307.89143,182.80668 350.1938,225.15594 307.89143,267.5052 291.81778,251.41368 291.81778,198.89814 307.89143,182.80668 z" style="fill:#1b8845" />
</svg>
