<svg xmlns="http://www.w3.org/2000/svg" width="490" height="300">
<path d="M244.88 296.36c-32.186-34.613-78.849-57.646-78.849-57.646l4.833-14.007-99.541.044C64.873 124.315 4.096 75.97 4.096 75.97h163.532l-5.152-15.455C222.7 31.842 244.923 2.38 244.923 2.38s22.097 29.462 82.298 58.136l-5.152 15.455h163.553s-60.797 48.344-67.247 148.78l-99.52-.045 4.832 14.008s-46.62 23.033-78.806 57.646z" fill="#fff" stroke="#8b1935" stroke-width="2.8"/>
<path d="M318.514 63.517c-45.065-23.182-73.655-51.24-73.655-51.24s-28.589 28.058-73.676 51.24c0 0 32.463 77.274 2.682 171.706 0 0 30.207 14.22 70.994 50.962 40.766-36.742 70.973-50.962 70.973-50.962-29.781-94.432 2.682-171.706 2.682-171.706M23.83 83.527h146.82s18.67 51.389 1.597 133.985H77.815s-2.47-78.445-53.985-133.985m442.037 0h-146.82s-18.648 51.389-1.597 133.985h94.432s2.47-78.445 53.985-133.985" fill="#8b1935"/>
</svg>