<svg xmlns="http://www.w3.org/2000/svg" width="374" height="360">
<path d="M287.02 119.384a120.064 120.064 0 0 0-24.311-11.993l-.02.004a9.33 9.33 0 0 0-1.608-.427c-3.574-.636-6.827.79-7.249 3.178-.203 1.128.273 2.27 1.202 3.227l-.004.004c4.61 5.11 8.932 10.398 12.335 15.31 10.592 14.876 17.024 33.907 16.394 52.227a88.517 88.517 0 0 1-1.01 9.21c-10.144 57.51-88.29 91.8-174.545 76.586-42.584-7.51-79.188-25.68-104.107-49.07l-.177-.145v.07C21.196 298.942 93.466 360 179.993 360c49.792 0 94.872-20.214 127.452-52.895l.064-.048c21.795-21.94 35.246-52.148 35.246-85.507 0-45.28-24.76-82.235-55.735-102.166zm20.687-66.248C275.101 20.316 229.925 0 180.005 0 80.593 0 0 80.593 0 180c0 12.804 1.335 25.304 3.884 37.344l.454-.422L72.89 148.37c13.28 10.924 31.474 19.3 52.307 22.976 24.252 4.273 47.302 1.335 64.664-6.833.058-.028.117-.059.181-.085.096-.043.192-.09.294-.139 6.73-3.082 11.415-8.055 12.51-14.273 1.293-7.319-2.692-14.75-9.946-20.374-17.671-13.959-27.318-32.254-24.14-50.283 5.582-31.672 48.622-50.556 96.132-42.18 16.111 2.832 30.652 8.446 42.644 15.85h-.012l.182.107" fill="#1a854b"/>
<path d="M373.626 85.764c0 22.27-18.05 40.325-40.32 40.325-22.276 0-40.326-18.055-40.326-40.325 0-22.276 18.05-40.326 40.326-40.326 22.265 0 40.32 18.05 40.32 40.326" fill="#e83f22"/>
</svg>
