<?xml version="1.0" encoding="UTF-8" ?>
<!DOCTYPE svg PUBLIC "-//W3C//DTD SVG 1.1//EN" "http://www.w3.org/Graphics/SVG/1.1/DTD/svg11.dtd">
<svg width="350pt" height="304pt" viewBox="0 0 350 304" version="1.1" xmlns="http://www.w3.org/2000/svg">
<g id="#fefffeff">
</g>
<g id="#3191c8ff">
<path fill="#3191c8" opacity="1.00" d=" M 120.00 42.98 C 136.32 34.60 154.71 31.07 172.96 30.85 C 173.05 50.09 173.06 69.33 172.94 88.57 C 157.02 89.61 140.90 95.00 129.29 106.30 C 115.50 118.93 108.87 137.75 108.93 156.20 C 115.46 146.15 123.37 136.04 135.30 132.32 C 154.38 124.49 178.38 132.24 188.83 150.11 C 194.60 158.82 196.58 169.56 195.83 179.87 C 193.87 195.67 182.50 208.82 168.76 216.13 C 196.50 217.84 224.45 199.67 232.78 172.92 C 234.92 166.16 235.86 159.13 236.54 152.10 C 255.77 151.93 275.01 151.94 294.25 152.04 C 295.03 193.50 272.46 234.51 236.95 255.92 C 199.33 279.99 148.03 280.50 110.03 256.98 C 77.08 237.15 54.14 201.11 51.55 162.55 C 46.37 113.56 75.47 63.58 120.00 42.98 Z" />
<path fill="#3191c8" opacity="1.00" d=" M 237.45 47.55 C 256.55 45.50 275.31 60.77 277.33 79.83 C 280.81 98.39 267.25 117.88 249.03 122.01 C 237.30 125.09 224.21 121.93 215.25 113.74 C 202.42 103.33 198.52 83.61 205.90 68.94 C 211.30 56.57 224.12 48.39 237.45 47.55 Z" />
</g>
</svg>
