<svg xmlns="http://www.w3.org/2000/svg" width="388" height="360">
<path d="M189.578 0c-17.685 10.53-88.474 58.771-93.072 155.764 3.04-1.668 7.453-3.962 13.126-6.52 15.98-7.416 32.52-12.616 49.428-15.545 5.71-23.915 17.282-43.519 30.518-59.091zm7.967 0v74.608c13.2 15.572 24.81 35.176 30.52 59.091 16.906 2.93 33.47 8.162 49.525 15.614a170.29 170.29 0 0 1 13.014 6.451C286.006 58.771 215.194 10.53 197.545 0Zm-6.228 139.233c-23.84.11-50.495 4.783-78.265 17.685-10.715 4.82-16.838 8.746-16.838 8.746 0 24.285 4.195 45.646 10.72 64.333a141.09 141.09 0 0 1 19.382-13.5c22.506-12.978 44.974-18.025 65.849-18.396h2.78a135.027 135.027 0 0 1 32.952 4.672c-6.369 19.662-16.976 40.338-34.662 58.062-12.207-13.428-23.38-30.08-30.394-50.276a127.216 127.216 0 0 0-32.298 13.209 132.35 132.35 0 0 0-18.242 12.68l-2.225 1.85c26.881 66.145 83.507 95.282 83.507 95.282l.556.334c102.184-58.99 96.77-168.25 96.77-168.25h-.041s-6.081-3.926-16.796-8.746c-27.77-12.902-54.424-17.574-78.265-17.685h-2.266zm-102.93 31.283C6.707 222.98.297 308.414 0 328.992l64.625-37.304c6.86-19.206 18.056-39.042 35.927-55.949-5.895-16.128-9.681-33.072-11.276-50.721-.63-6.08-.852-11.016-.89-14.502zm210.337 0c-.076 3.486-.25 8.459-.918 14.613-1.557 17.538-5.302 34.482-11.234 50.61 17.87 16.87 29.068 36.743 35.927 55.95l64.625 37.303c-.296-20.578-6.72-106.012-88.4-158.476zM135.034 295.47c-23.581 7.008-46.346 6.79-66.405 3.156l-64.625 37.29c17.945 10.01 95.14 47.204 181.417 2.711a194.116 194.116 0 0 1-12.193-8.12c-14.423-10.121-27.182-21.875-38.194-35.037zm117.056 0c-11.012 13.162-23.808 24.911-38.305 35.107-4.968 3.56-9.116 6.229-12.082 8.009 86.277 44.529 163.471 7.34 181.417-2.67l-64.625-37.332c-20.059 3.671-42.824 3.894-66.405-3.114z"/>
</svg>