<svg xmlns="http://www.w3.org/2000/svg" width="411" height="360">
<path d="M214.902 0c-89.143 0-161.39 72.246-161.39 161.416 0 25.625 5.988 49.84 16.605 71.368a301.38 301.38 0 0 1 82.065-30.23c-7.77-11.814-12.294-25.944-12.294-41.138 0-41.458 33.582-75.04 75.014-75.04 41.458 0 75.066 33.582 75.066 75.04 0 15.194-4.55 29.324-12.32 41.139a301.38 301.38 0 0 1 82.065 30.229c10.617-21.528 16.605-45.743 16.605-71.368C376.318 72.246 304.072 0 214.902 0" fill="#3fb84c"/>
<path d="M343.774 246.168c-133.742-79.856-228.952-10.644-228.952-10.644 69.745-15.353 117.855 45.264 117.855 45.264 15.168 17.696 31.666 27.834 45.13 33.688-33.288-2.049-60.59-40.873-104.736-53.486C114.529 244.253 54.258 251.544 0 277.888c40.367-9.447 83.21 10.032 110.484 42.416 30.416 36.11 73.125 49.867 117.217 31.719 18.813-7.717 36.057-20.57 51.198-37.068 15.567 6.546 26.823 7.265 26.823 7.265 63.677 5.561 105.135-47.845 105.135-47.845-20.516.426-67.083-28.207-67.083-28.207" fill="#216ebf"/>
</svg>
