<?xml version="1.0" encoding="UTF-8" standalone="no"?>
<!-- Created with Inkscape (http://www.inkscape.org/) -->
<svg
   xmlns:svg="http://www.w3.org/2000/svg"
   xmlns="http://www.w3.org/2000/svg"
   version="1.0"
   width="640"
   height="640"
   id="svg2">
  <defs
     id="defs4" />
  <g
     transform="translate(20,-432.36218)"
     id="layer1">
    <path
       d="M 300,452.375 C 134.40001,452.375 -7.1527969e-013,586.775 0,752.375 L 0,802.375 L 0,902.375 L 0,914.875 L 288,746.875 L 288,634.375 L 90.03125,749.84375 C 91.393889,635.09285 184.92805,542.375 300,542.375 C 327.36897,542.375 353.51957,547.6197 377.5,557.15625 L 468.40625,504.125 C 420.38889,471.47107 362.40967,452.375 300,452.375 z M 600,452.375 L 487.3125,518.09375 L 401.1875,568.34375 L 312,620.375 L 312,732.875 L 600,564.875 L 600,452.375 z M 600,589.875 L 312,757.875 L 312,870.375 L 509.96875,754.90625 C 508.60611,869.65713 415.07195,962.375 300,962.375 C 272.63103,962.37499 246.48043,957.1303 222.5,947.59375 L 131.625,1000.5938 C 179.64176,1033.2488 237.59947,1052.375 300,1052.375 C 465.59999,1052.375 600,917.97498 600,752.375 L 600,702.375 L 600,612.375 L 600,589.875 z M 288,771.875 L 0,939.875 L 0,1052.375 L 112.6875,986.625 L 198.8125,936.40625 L 269.28125,895.28125 L 288,884.375 L 288,771.875 z "
       style="opacity:1;fill:#000000;fill-opacity:1;fill-rule:nonzero;stroke:none;stroke-width:50;stroke-linecap:round;stroke-linejoin:round;stroke-miterlimit:4;stroke-dasharray:none;stroke-opacity:1"
       id="path3141" />
  </g>
</svg>
