<?xml version="1.0" encoding="UTF-8" standalone="no"?>
<!-- Created with Inkscape (http://www.inkscape.org/) -->

<svg
   xmlns:dc="http://purl.org/dc/elements/1.1/"
   xmlns:cc="http://creativecommons.org/ns#"
   xmlns:rdf="http://www.w3.org/1999/02/22-rdf-syntax-ns#"
   xmlns:svg="http://www.w3.org/2000/svg"
   xmlns="http://www.w3.org/2000/svg"
   xmlns:sodipodi="http://sodipodi.sourceforge.net/DTD/sodipodi-0.dtd"
   xmlns:inkscape="http://www.inkscape.org/namespaces/inkscape"
   width="488.08652"
   height="378.83899"
   id="svg2"
   version="1.1"
   inkscape:version="0.92.4 (5da689c313, 2019-01-14)"
   sodipodi:docname="Emblem_of_Hokuto,_Yamanashi.svg">
  <defs
     id="defs4" />
  <sodipodi:namedview
     id="base"
     pagecolor="#ffffff"
     bordercolor="#666666"
     borderopacity="1.0"
     inkscape:pageopacity="0.0"
     inkscape:pageshadow="2"
     inkscape:zoom="0.4394307"
     inkscape:cx="-155.58331"
     inkscape:cy="472.89334"
     inkscape:document-units="px"
     inkscape:current-layer="layer1"
     showgrid="false"
     fit-margin-top="0"
     fit-margin-left="0"
     fit-margin-right="0"
     fit-margin-bottom="0"
     inkscape:window-width="1920"
     inkscape:window-height="996"
     inkscape:window-x="1912"
     inkscape:window-y="-8"
     inkscape:window-maximized="1"
     showguides="true"
     inkscape:guide-bbox="true" />
  <metadata
     id="metadata7">
    <rdf:RDF>
      <cc:Work
         rdf:about="">
        <dc:format>image/svg+xml</dc:format>
        <dc:type
           rdf:resource="http://purl.org/dc/dcmitype/StillImage" />
        <dc:title />
      </cc:Work>
    </rdf:RDF>
  </metadata>
  <g
     inkscape:label="レイヤー 1"
     inkscape:groupmode="layer"
     id="layer1"
     transform="translate(21.6007,-199.42507)">
    <path
       style="fill:#0062b2;fill-opacity:1"
       d="M 403.70312 0 L 395.05469 1.890625 C 356.27424 9.2243998 325.26832 27.962615 302.9668 53.78125 A 35.401142 35.401142 0 0 0 300.55469 53.660156 A 35.401142 35.401142 0 0 0 265.15234 89.060547 A 35.401142 35.401142 0 0 0 271.61133 109.37305 C 262.42101 136.76531 259.63185 167.17821 263.79883 198.14453 C 273.6104 269.42923 318.13531 316.53292 376.01562 333.7207 C 386.64938 337.24218 406.36523 342.1683 406.36523 341.30273 C 376.82017 314.58621 363.17154 296.30029 351.36523 266.07227 C 391.09393 277.60983 445.33876 277.48669 482.40625 246.01562 C 485.74695 243.06797 488.29637 240.4741 488.07227 240.25 C 487.84817 240.02591 483.88553 240.7317 479.26562 241.81836 C 430.95036 253.18271 377.38667 237.21395 352.17188 203.92969 C 342.09289 190.62513 337.39453 177.09779 337.39453 161.375 C 337.39453 150.34415 339.28024 141.98066 343.89844 132.50977 C 353.37256 113.08052 370.2044 98.128819 394.10938 87.912109 C 410.43912 80.932949 426.66649 77.761316 446.38477 77.691406 C 452.97454 77.668006 458.36523 77.482477 458.36523 77.279297 C 414.6939 52.045017 363.16293 68.085866 351.69141 72.535156 C 359.21962 49.960676 379.35002 24.84641 394.67578 9.1875 L 403.70312 0 z "
       transform="translate(-21.6007,199.42507)"
       id="path3006" />
    <path
       style="fill:#119935;fill-opacity:1"
       d="M 84.384766 37.4375 L 93.412109 46.625 C 108.73787 62.28391 128.86632 87.398176 136.39453 109.97266 C 124.92301 105.52337 73.392033 89.480564 29.720703 114.71484 C 29.720703 114.91802 35.113355 115.10355 41.703125 115.12695 C 61.421405 115.19686 77.646815 118.37045 93.976562 125.34961 C 117.88153 135.56632 134.71533 150.51606 144.18945 169.94531 C 148.80765 179.4162 150.69141 187.78165 150.69141 198.8125 C 150.69141 214.53529 145.99501 228.06263 135.91602 241.36719 C 110.70121 274.65145 57.135582 290.61826 8.8203125 279.25391 C 4.2004025 278.16725 0.23777187 277.46146 0.013671875 277.68555 C -0.21042812 277.90965 2.3389875 280.50547 5.6796875 283.45312 C 42.747178 314.92418 96.992002 315.04733 136.7207 303.50977 C 124.91439 333.73779 111.26576 352.02176 81.720703 378.73828 C 81.720703 379.60385 101.43852 374.67968 112.07227 371.1582 C 169.95258 353.97042 214.47554 306.86478 224.28711 235.58008 C 228.29227 205.81629 225.87557 176.56249 217.52148 150.01172 A 35.401142 35.401142 0 0 0 224.54297 128.91211 A 35.401142 35.401142 0 0 0 189.14258 93.509766 A 35.401142 35.401142 0 0 0 187.14258 93.609375 C 164.70874 66.558304 133.0002 46.884336 93.033203 39.326172 L 84.384766 37.4375 z "
       transform="translate(-21.6007,199.42507)"
       id="path3006-1" />
  </g>
</svg>
