<?xml version="1.0" encoding="UTF-8" standalone="no"?>
<!-- Created with Inkscape (http://www.inkscape.org/) -->
<svg
   xmlns:svg="http://www.w3.org/2000/svg"
   xmlns="http://www.w3.org/2000/svg"
   version="1.0"
   width="640"
   height="390"
   id="svg2">
  <defs
     id="defs4" />
  <g
     id="layer1">
    <path
       d="M 20,195 L 320,370 L 620,195 L 320,20 L 20,195 z "
       style="fill:#000000;fill-opacity:1;fill-rule:evenodd;stroke:none;stroke-width:1px;stroke-linecap:butt;stroke-linejoin:miter;stroke-opacity:1"
       id="path5171" />
    <path
       d="M 319.84375,89.84375 C 314.32085,89.92992 309.91358,94.4771 310,100 L 310,136.34375 C 281.90877,141.10138 260.5,165.5608 260.5,195 C 260.5,227.84521 287.15479,254.5 320,254.5 C 352.84521,254.5 379.5,227.84522 379.5,195 C 379.5,165.56079 358.09123,141.10137 330,136.34375 L 330,100 C 330.04235,97.29363 328.97642,94.69517 327.0625,92.78125 C 325.14859,90.86734 322.55012,89.8014 319.84375,89.84375 z M 229.0625,142.5 L 266.03125,168.46875 L 270.03125,161.53125 L 229.0625,142.5 z M 410.9375,142.5 L 369.96875,161.53125 L 373.96875,168.46875 L 410.9375,142.5 z M 320,148.25 C 345.80695,148.25001 366.75,169.19303 366.75,195 C 366.75001,220.80695 345.80695,241.75 320,241.75 C 294.19305,241.75 273.25,220.80697 273.25,195 C 273.24999,169.19302 294.19305,148.25 320,148.25 z M 266.03125,221.53125 L 229.0625,247.5 L 270.03125,228.46875 L 266.03125,221.53125 z M 373.96875,221.53125 L 369.96875,228.46875 L 410.9375,247.5 L 373.96875,221.53125 z M 316,255 L 320,300 L 324,255 L 316,255 z "
       style="opacity:1;fill:#ffffff;fill-opacity:1;fill-rule:nonzero;stroke:#ffffff;stroke-width:5;stroke-linecap:round;stroke-linejoin:round;stroke-miterlimit:4;stroke-dasharray:none;stroke-opacity:1"
       id="path3169" />
  </g>
</svg>
