<?xml version="1.0" encoding="UTF-8" standalone="no"?>
<!-- Created with Inkscape (http://www.inkscape.org/) -->
<svg
   xmlns:svg="http://www.w3.org/2000/svg"
   xmlns="http://www.w3.org/2000/svg"
   version="1.0"
   width="960"
   height="860"
   id="svg2">
  <defs
     id="defs4" />
  <g
     transform="translate(180,-232.36218)"
     id="layer1">
    <path
       d="M -125,277.375 L -90,472.375 L 91.59375,536.625 C 35.133009,591.18688 -5.8619776e-014,667.71779 0,752.375 C 0,892.14489 95.751718,1009.7005 225.1875,1042.9688 L 294.53125,917.28125 C 205.98088,914.39131 135,841.62394 135,752.375 C 134.99999,661.295 208.92001,587.375 300,587.375 C 391.07998,587.375 465,661.295 465,752.375 C 465,841.62393 394.01911,914.39132 305.46875,917.28125 L 374.8125,1042.9688 C 504.24829,1009.7005 600.00002,892.14487 600,752.375 C 600,667.7178 564.86699,591.18688 508.40625,536.625 L 690,472.375 L 725,277.375 L 359.1875,419.40625 L 300,277.375 L 240.8125,419.40625 L -125,277.375 z "
       style="opacity:1;fill:#000000;fill-opacity:1;fill-rule:nonzero;stroke:none;stroke-width:50;stroke-linecap:round;stroke-linejoin:round;stroke-miterlimit:4;stroke-dasharray:none;stroke-opacity:1"
       id="path3141" />
  </g>
</svg>
