<?xml version="1.0" encoding="UTF-8"?><svg width="411" height="452" viewBox="44 23 411 452" xmlns="http://www.w3.org/2000/svg">
  <path xmlns="http://www.w3.org/2000/svg" d="m362.1 168.1c43.6 27.7 41.3 94.1-4 118.7 75.5 46.5 93-22.2 93-22.5 6.3-48.4-34.7-96.2-89.1-96.2zm-101.2 3.1c96.5-125.7-7.9-146-7.9-146 101.1 11.6 145.6 111.7 64.8 222.3-80.9 110.6-58.2 161.4-58.2 161.4s-95.1-111.9 1.4-237.7zm-158.9-18.9c-0.4 0.3-61.6 48.9 19.2 104.1 6.8-61 71.2-87.5 118.1-57.6-24.3-54.3-90-75-137.4-46.6z" fill="#9bd3ae"/>
  <path xmlns="http://www.w3.org/2000/svg" d="m260.8 308.6c-89.5-73.3-133.6-54.3-133.6-54.3s99-77.2 200.5 9.9c101.6 87.1 123.5 0 123.5 0-15.1 86.5-100.8 117.6-190.3 44.4zm-103-31.6c-133.9-63.3-55.8-124.7-55.8-124.7-80.2 51.9-73.3 155 41.2 212.3 114.5 57.4 115.2 110.5 115.2 110.5s33.3-134.8-100.6-198.1zm95.2-251.8c-61.6-3.8-112.1 52.6-107.7 111.6 35.3-58.6 111.5-50.3 140.5-3.2 49.8-92-32.3-108.3-32.8-108.3z" fill="#009b69"/>
</svg>