<svg xmlns="http://www.w3.org/2000/svg" xmlns:xlink="http://www.w3.org/1999/xlink" width="616" height="364" viewBox="-154 -106 308 182">
<path id="a" d="M153.500653-105.869669l-12.759259 15.285768-120.741394 43.946274v-10.641778zm-17.862963 21.400076-12.759259 15.285768-87.878432 31.985133v-10.641778zm-17.862963 21.400076-12.759259 15.285768-60.015469 21.843844v-10.641778zm-17.862963 21.400076-12.759259 15.285768-37.152506 13.522406v-10.641778zM26.212865 18.354446A32 32 0 0 0 4-31.749016V-41.80909A42 42 0 0 1 27.679214 31.58894L11.296173 20.117411 18.021345 12.618682z"/>
<use xlink:href="#a" transform="scale(-1 1)"/>
<path d="M-17.36 59.52a62 62 0 1 1 34.72 0L0 50A50 50 0 0 0 0-50 50 50 0 0 0 0 50zM5-20V40h-10V-20zM0 56L-34.641016 76-50 73.320508-5 47.339746H5L50 73.320508 34.641016 76z"/>
</svg>