<?xml version="1.0" encoding="UTF-8"?><svg width="455" height="365" viewBox="23 67 455 365" xmlns="http://www.w3.org/2000/svg" xmlns:xlink="http://www.w3.org/1999/xlink" version="1.1">
 <path xmlns="http://www.w3.org/2000/svg" id="a" d="m212.8 142.6c-8.3-15-19.1-29.4-31.7-33.7-30.4-10.3-65.2 1.5-86.4 32.4-13.2 19.3-16.2 33.5-1.4 46.4-22.9-2.2-37.7 7.4-52.8 25.9-24.3 29.7-19 57.4 9.2 70.5 10.4 4.8 29.2 4.4 48.7 2.1l144-40.2-29.6-103.4" fill="#4dbd38"/>
 <use xmlns="http://www.w3.org/2000/svg" xmlns:xlink="http://www.w3.org/1999/xlink" transform="matrix(-.856 .518 .518 .856 333.2 -92.9)" xlink:href="#a"/>
 <use xmlns="http://www.w3.org/2000/svg" xmlns:xlink="http://www.w3.org/1999/xlink" transform="matrix(.85 -.527 -.527 -.85 168.7 592.4)" xlink:href="#a"/>
 <use xmlns="http://www.w3.org/2000/svg" xmlns:xlink="http://www.w3.org/1999/xlink" transform="rotate(180,250,250)" xlink:href="#a"/>
 <path xmlns="http://www.w3.org/2000/svg" d="m277.3 107.2c-1.8-13.7 1.5-21.1-10.8-25.9-34.6 34-54 63.6-66.5 98.7-37.7-8.2-76.1-1.5-111.2 13.1 6.8 4.1 14.1 8.4 20.3 12.9-16 5-30.4 8.6-46.7 12.6 43.1 14.2 77.1 32.3 105.6 48.5-48.3 33.6-74.8 88-86.8 143.4 15-12.4 33-23.7 47.4-32.7-1.5 10.3-1.6 17.4-1.6 27.2 50.1-15.9 89.8-41 112.2-75.8 16.1 27.3 43.1 46.6 73.5 55 3.8-7.9 5.3-17 5.4-25.3 17.7 2.6 32.5 6.1 48.8 12.8-16-36.6-34.8-67-55.5-89.7 39.1-9.7 73.7-33.7 98.4-65.3-6.1-5.7-13.9-10-20.8-13 11.9-7.8 16.1-12.5 22.5-24-15.7-0.7-34.5 0.1-48.3-4.5-18.1-6.4-42.4-2.7-66.8 9.8 10.2-36.2 15.5-73.5 16.6-111-13 10.2-25.1 22.4-35.8 33.2z" fill="#b01419"/>
 <path xmlns="http://www.w3.org/2000/svg" d="m98.9 220.2c10.2-2.9 20.2-6.1 30.3-9.3-5-7.2-11.5-12.2-16.3-15.5 33.9-10 59.8-12.2 96.2-2 2.8-33.5 34.7-74.4 56.5-96.6 2.3 13.8-0.7 26.6-2.9 40.9 12.9-13.3 26.2-27.2 38.4-39-3.4 39.4-12.2 75.3-23 109.8 18.9-13.8 56.1-30.8 81.6-23.2 8.2 2.9 20.8 4.2 30.2 4.7-8.5 6.4-17 10.8-26.4 15.9 10.6 3.5 22.2 7.3 31.1 12.5-11 12.4-51 53.1-106.4 55.3 23.8 23.3 44.9 50.2 59.7 80-13.6-3-27.3-5.3-41-7.5 0.7 8.4 0.9 17-0.7 24.7-35.2-15-53.3-29.4-67-68.6-13.5 47.3-60.4 74.2-101.2 88.3 0.3-13.1 4.5-25.3 8.4-37.6-15.6 11.1-32.6 20.6-47 30.3 23.1-51.2 36.8-88.3 90-116.4-29.4-17-59.3-33.6-90.6-46.8z" fill="#f9b3dd"/>
 <path xmlns="http://www.w3.org/2000/svg" d="m341.6 278.2-3.2 14.9c-0.4 2.3-0.3 4.1 0.6 5.4 1.5 2.2 4.5 2.7 6.6 2.7 5.7 0 9.9-2.5 11.2-8.4l3.1-14.6h-4.8l-3.2 14.8c-0.6 2.7-2.3 4.3-5.5 4.3-2.2 0-3.8-1.4-3.1-4.5l3.1-14.6h-4.8zm23 0-4.8 22.5h17.3l0.9-4h-12.6l1.3-5.8h11.1l0.9-4h-11.1l1-4.7h12.1l0.9-4h-16.7zm21.11 0-4.8 22.5h9.9c7.5 0 10.9-6.9 12-11.8 0.9-4.3 0.7-10.7-7-10.7h-10zm28 0-12.9 22.5h5l2.6-4.6h8.4l0.5 4.6h5.2l-3.2-22.5h-5.5zm-24.1 3.9h4.6c2 0 5.1 0.5 3.7 7.2-0.8 3.7-2.9 7.5-6.8 7.5h-4.6l3.2-14.7zm25.8 1.2 0.9 8.9h-5.8l4.9-8.9z" fill="#ffffff"/>
 <path xmlns="http://www.w3.org/2000/svg" id="b" d="m236.9 197.7a13.8 13.8 0 0 0 0 27.5 13.8 13.8 0 0 0 0-27.5zm-5.2 8.5h10.5v10.5h-10.5z" fill="#2e3192"/>
 <use xmlns="http://www.w3.org/2000/svg" xmlns:xlink="http://www.w3.org/1999/xlink" x="29.3" y="17.2" xlink:href="#b"/>
 <use xmlns="http://www.w3.org/2000/svg" xmlns:xlink="http://www.w3.org/1999/xlink" x="29.3" y="50.4" xlink:href="#b"/>
 <use xmlns="http://www.w3.org/2000/svg" xmlns:xlink="http://www.w3.org/1999/xlink" y="67.9" xlink:href="#b"/>
 <use xmlns="http://www.w3.org/2000/svg" xmlns:xlink="http://www.w3.org/1999/xlink" x="-29.6" y="50.4" xlink:href="#b"/>
 <use xmlns="http://www.w3.org/2000/svg" xmlns:xlink="http://www.w3.org/1999/xlink" x="-29.6" y="17.2" xlink:href="#b"/>
</svg>