<?xml version="1.0" encoding="UTF-8" standalone="no"?><!-- Created with Inkscape (http://www.inkscape.org/) --><svg xmlns="http://www.w3.org/2000/svg" height="320" width="280" version="1.1" xmlns:xlink="http://www.w3.org/1999/xlink"> <path id="p01" d="m159.18,21.071-2.4985,28.558,77.26,44.591l-93.94,65.78,69.294-32.312v56.899l17.323,8.078v-73.055l43.308-20.195v-14.427z" fill="#060"/> <use xlink:href="#p01" transform="matrix(0.5,0.8660254,-0.8660254,0.5,208.56406,-41.243562)" height="320" width="280" y="0" x="0"/> <use xlink:href="#p01" transform="matrix(-0.5,0.8660254,-0.8660254,-0.5,348.56407,118.75644)" height="320" width="280" y="0" x="0"/> <use xlink:href="#p01" transform="matrix(-1,0,0,-1,280.00001,320)" height="320" width="280" y="0" x="0"/> <use xlink:href="#p01" transform="matrix(-0.5,-0.8660254,0.8660254,-0.5,71.435939,361.24356)" height="320" width="280" y="0" x="0"/> <use xlink:href="#p01" transform="matrix(0.5,-0.8660254,0.8660254,0.5,-68.564065,201.24356)" height="320" width="280" y="0" x="0"/></svg>