<?xml version="1.0" encoding="UTF-8" standalone="no"?>
<svg
   version="1.1"
   width="500"
   height="500"
   viewBox="-250,-250,500,500"
   id="svg10"
   sodipodi:docname="Nagano, Nagano Chapter.svg"
   inkscape:version="1.2.1 (9c6d41e410, 2022-07-14)"
   xmlns:inkscape="http://www.inkscape.org/namespaces/inkscape"
   xmlns:sodipodi="http://sodipodi.sourceforge.net/DTD/sodipodi-0.dtd"
   xmlns="http://www.w3.org/2000/svg"
   xmlns:svg="http://www.w3.org/2000/svg"
   xmlns:rdf="http://www.w3.org/1999/02/22-rdf-syntax-ns#"
   xmlns:cc="http://creativecommons.org/ns#"
   xmlns:dc="http://purl.org/dc/elements/1.1/">
  <defs
     id="defs14" />
  <sodipodi:namedview
     id="namedview12"
     pagecolor="#ffffff"
     bordercolor="#666666"
     borderopacity="1.0"
     inkscape:showpageshadow="2"
     inkscape:pageopacity="0.0"
     inkscape:pagecheckerboard="0"
     inkscape:deskcolor="#d1d1d1"
     showgrid="false"
     inkscape:zoom="0.841"
     inkscape:cx="217.5981"
     inkscape:cy="152.79429"
     inkscape:window-width="1920"
     inkscape:window-height="996"
     inkscape:window-x="1912"
     inkscape:window-y="-8"
     inkscape:window-maximized="1"
     inkscape:current-layer="svg10" />
  <title
     id="title2">Nagano, Nagano Chapter</title>
  <g
     style="fill:#007b00;stroke:none"
     id="g8"
     transform="matrix(1.0416667,0,0,1.0416667,8e-6,8e-6)">
    <path
       d="M 40,20 V 236.46875 A 240,240 0 0 0 239.15625,20 Z"
       id="path4" />
    <path
       d="M 0,-240 A 240,240 0 0 0 -240,0 240,240 0 0 0 0,240 240,240 0 0 0 20,239 V 208.84375 A 210,210 0 0 1 0,210 210,210 0 0 1 -210,0 H 240 A 240,240 0 0 0 0,-240 Z"
       id="path6" />
  </g>
  <metadata
     id="metadata139">
    <rdf:RDF>
      <cc:Work
         rdf:about="">
        <dc:title>Nagano, Nagano Chapter</dc:title>
      </cc:Work>
    </rdf:RDF>
  </metadata>
</svg>
