<svg xmlns="http://www.w3.org/2000/svg" viewBox="-50 -50 100 100" width="400" height="400">
<path d="M-16.172789 34.386638A38 38 0 1 1 11.85122 36.104689L13.518022 38.707404A41 41 0 1 0-14.842952 38.218932z"/>
<path d="M-13.228773 41.964265A44 44 0 1 1  15.537193 41.165467L13.546513 48.129949A50 50 0 1 0-16.566298 47.175818z"/>
<path d="M-13.686977 35.449495A38 38 0 0 0 9.857042 36.699301L13.228773 41.964265 11.301775 48.705953A50 50 0 0 1-14.603724 47.819779L-11.225106 42.54406z" />
<path d="M-21.650635-12.5H-7.216878L0-25L7.216878-12.5H21.650635L15.011107-1H5V13.5l4 2L4.330127 17.5L0 25L-4.330127 17.5L-9 15.5l4-2V-1H-15.011107z" />
<path d="M-15.011107 1H-7V12.5H-21.650635z"/>
<path d="M15.011107 1H7V12.5H21.650635z"/>
</svg>