<?xml version="1.0" encoding="UTF-8"?><svg width="453" height="442" viewBox="23 28 453 442" xmlns="http://www.w3.org/2000/svg">
 <path xmlns="http://www.w3.org/2000/svg" d="m250 432.8a101.2 101.2 0 0 0 162.5 -118 101.2 101.2 0 0 0 -62 -191 101.2 101.2 0 0 0 -201 0 101.2 101.2 0 0 0 -62 191 101.2 101.2 0 0 0 162.5 118z" fill="none" stroke="#229344" stroke-width="8.5"/>
 <path xmlns="http://www.w3.org/2000/svg" d="m318.1 154.7a130.2 130.2 0 0 0 -136.3 0 218.3 218.3 0 0 1 0 221.7 130.2 130.2 0 0 0 136.3 0 218.3 218.3 0 0 1 0 -221.7zm-148.3 8.2a130.2 130.2 0 0 0 0 205.1 203.8 203.8 0 0 0 0 -205.1zm160.3 0a203.8 203.8 0 0 0 0 205.1 130.2 130.2 0 0 0 0 -205.1z" fill="#229344"/>
</svg>