<?xml version="1.0" encoding="UTF-8" standalone="no"?>
<svg
   xmlns:dc="http://purl.org/dc/elements/1.1/"
   xmlns:cc="http://creativecommons.org/ns#"
   xmlns:rdf="http://www.w3.org/1999/02/22-rdf-syntax-ns#"
   xmlns:svg="http://www.w3.org/2000/svg"
   xmlns="http://www.w3.org/2000/svg"
   id="svg8"
   version="1.1"
   viewBox="0 0 115.61466 95.398827"
   height="95.398827mm"
   width="115.61466mm">
  <defs
     id="defs2" />
  <metadata
     id="metadata5">
    <rdf:RDF>
      <cc:Work
         rdf:about="">
        <dc:format>image/svg+xml</dc:format>
        <dc:type
           rdf:resource="http://purl.org/dc/dcmitype/StillImage" />
        <dc:title></dc:title>
      </cc:Work>
    </rdf:RDF>
  </metadata>
  <g
     transform="translate(-24.990132,-17.148791)"
     id="layer1">
    <g
       transform="matrix(0.26458333,0,0,0.26458333,-49.51488,69.080358)"
       id="g825">
      <path
         d="m 718.56255,-196.27679 c -34.6123,34.909 -85.6474,52.0625 -138.75,52.0625 -6.0593,0 -12.0416,-0.27717 -17.9688,-0.78125 8.9469,-10.40812 19.1586,-19.7875 30.4375,-27.875 -1.5264,-0.0483 -3.0557,-0.0625 -4.5937,-0.0625 -32.4127,0 -50.9341,6.86962 -72.2813,19.5625 -25.1175,-10.97364 -53.4775,-16.65625 -82.625,-16.65625 -59.8145,0 -114.9179,24.41055 -151.1875,66.53125 13.9143,-2.41078 28.2125,-3.6875 42.8125,-3.6875 81.6186,-10e-6 159.9075,37.614322 199.625,99.9375022 -1.7907,-9.7338102 -2.75,-19.7508702 -2.75,-30.0000002 0,-21.11783 4.1708,-41.56371 11.7813,-60.5 22.7001,9.80158 40.1056,29.53138 46.75,53.71875 73.3678,-24.10261 126.1796,-78.502512 138.75,-152.250002 z m -287.4688,129.968752 c -33.942,22.52647 -56.3437,61.0830202 -56.3437,104.84375 0,69.413998 56.336,125.749998 125.75,125.749998 69.414,0 125.75,-56.336 125.75,-125.749998 0,-4.09196 -0.2109,-8.1329 -0.5938,-12.125 -0.01,-0.004 0,-0.0274 0,-0.0312 -17.5501,-13.26722 -32.2426,-30.1270998 -42.9375,-49.5 0,0.30254 0.031,0.60293 0.031,0.90625 0,45.402 -36.848,82.25 -82.25,82.25 -45.402,0 -82.25,-36.848 -82.25,-82.25 0,-16.22829 4.7204,-31.34326 12.8438,-44.09375 z"
         id="path2386"
         style="fill:#009f62;stroke:none" />
    </g>
  </g>
</svg>
