<svg xmlns="http://www.w3.org/2000/svg" width="480" height="502" viewBox="-60 -65.5 120 125.5">
<path d="M0-21.5a60 21.5 0 0 1 0 43 60 21.5 0 0 1 0-43zm0 0a48 15.5 0 0 0 0 31 48 15.5 0 0 0 0-31z" fill="#67bb52"/>
<path d="M0-25.466a48 17 0 0 1 0-34 48 17 0 0 1 0 34zm0 0a38.5 12 0 0 0 0-24L-6-52-12-48.868069A38.5 12 0 0 0-38.5-37.466 38.5 12 0 0 0 0-25.466z" transform="rotate(-20 0-42.466)" fill="#fc8004"/>
<path d="M-21.5 0a21.5 60 0 0 1 43 0 21.5 60 0 0 1-43 0zm0 0a15.5 48 0 0 0 31 0 15.5 48 0 0 0-31 0z" fill="#0771b1"/>
</svg>