<?xml version="1.0" encoding="UTF-8" standalone="no"?>
<!-- Created with Inkscape (http://www.inkscape.org/) -->

<svg
   xmlns:dc="http://purl.org/dc/elements/1.1/"
   xmlns:cc="http://creativecommons.org/ns#"
   xmlns:rdf="http://www.w3.org/1999/02/22-rdf-syntax-ns#"
   xmlns:svg="http://www.w3.org/2000/svg"
   xmlns="http://www.w3.org/2000/svg"
   version="1.1"
   width="401"
   height="446"
   id="svg4178">
  <defs
     id="defs4180" />
  <metadata
     id="metadata4183">
    <rdf:RDF>
      <cc:Work
         rdf:about="">
        <dc:format>image/svg+xml</dc:format>
        <dc:type
           rdf:resource="http://purl.org/dc/dcmitype/StillImage" />
        <dc:title></dc:title>
      </cc:Work>
    </rdf:RDF>
  </metadata>
  <g
     id="layer3"
     style="display:inline">
    <g
       transform="translate(0,6.03125)"
       id="g3976">
      <path
         d="m 25.1875,30.6875 c 22.474613,54.688226 47.924949,81.1898 77.65625,96.25 -23.471602,26.25506 -35.4375,60.5305 -35.4375,93.34375 0,55.10915 28.525299,98.6846 71.25,131.03125 18.66205,-12.57248 35.90881,-25.66657 51.625,-39.34375 -2.80561,-2.72419 -5.51259,-5.42923 -8.125,-8.0625 -44.70699,-45.06392 -63.54649,-102.69981 -24.9375,-133 C 153.88821,155.5674 152,137.96097 152,119.21875 c 0,-14.39941 1.09633,-28.135516 3.125,-40.6875 C 119.34255,74.962569 84.415795,66.499958 25.1875,30.6875 z m 350.59375,0 c -80.16853,48.473996 -115.861,46.874086 -169.375,50.8125 -1.54933,11.135379 -2.46875,24.09827 -2.46875,38 0,12.64676 0.73177,24.54161 2.03125,34.96875 0.15673,0.0349 0.31179,0.0584 0.46875,0.0937 83.37157,18.77738 67.62507,93.65257 12.375,149.34375 -52.02496,50.67251 -100.85393,85.1065 -191.59375,118.3125 165.41451,-6.70843 299.11979,-72.99483 306.34375,-201.9375 0,-32.81325 -11.9659,-67.08869 -35.4375,-93.34375 29.73171,-15.06012 55.1814,-41.561195 77.65625,-96.25 z m -113,338.84375 c -15.03397,10.10302 -29.30928,18.72347 -42.9375,25.09375 49.70614,18.47289 104.7279,27.59375 153.90625,27.59375 -46.15361,-16.25672 -82.08911,-34.39359 -110.96875,-52.6875 z"
         id="path4497"
         style="fill:#329834;fill-opacity:1;stroke:none" />
      <path
         d="m 199.71875,11.71875 c -23.43146,0 -42.4375,48.140307 -42.4375,107.5 0,59.35969 19.00604,107.46875 42.4375,107.46875 15.9661,0 29.85,-22.36187 37.09375,-55.375 l -7.03125,-4.0625 c -3.18764,16.29509 -7.96174,26.65625 -13.3125,26.65625 -9.59354,0 -17.375,-33.30357 -17.375,-74.40625 0,-41.102682 7.78146,-74.4375 17.375,-74.4375 5.90416,0 11.10996,12.645613 14.25,31.9375 L 238.75,76.96875 c -6.48196,-38.363351 -21.52002,-65.25 -39.03125,-65.25 z"
         id="path5043"
         style="fill:#e38514;fill-opacity:1;fill-rule:evenodd;stroke:none" />
    </g>
  </g>
</svg>
