<svg xmlns="http://www.w3.org/2000/svg" width="517" height="360">
<path d="m255.566 0-8.129 5.152a194.12 194.12 0 0 0-43.427 37.735H0v1.48l164.448 73.695v.017c-8.448 2.692-16.1 5.883-22.227 9.643C94.18 157.01 72.134 198.33 76.637 250.5c6.266 73.103 58.755 110.455 107.305 109.48 39.592-.742 51.752-8.494 68.23-21.026l4.96-3.76 6.597-4.176c56.022-35.647 89.482-96.543 89.482-162.916 0-5.013-.22-9.98-.592-14.9 8.215 3.992 14.8 8.599 19.303 13.751 26.085 29.845 36.992 61.766 31.608 92.354-3.528 20.05-14.945 46.09-36.343 59.04-17.359 10.489-39.632 11.51-66.228 2.923l-23.219 23.811c24.646 15.456 79.932 14.772 105.182-.452 37.92-22.976 48.323-66.977 50.598-79.927 7.101-40.102-6.278-80.854-38.675-117.94-11.466-13.096-28.212-22.101-46.839-28.266l168.782-75.61h-209.65a194.35 194.35 0 0 0-43.41-37.735Zm0 36.987c25.806 18.705 45.155 44.042 56.341 72.912-22.14-3.528-43.914-4.491-60.345-4.491-13.414 0-32.861 1.392-52.356 4.595 11.14-28.916 30.553-54.265 56.36-73.016zm-4.004 99.055c26.178 0 49.623 2.361 69.118 6.631 1.346 8.355 2.088 16.797 2.088 25.43 0 52.402-25.104 100.54-67.202 131.08-42.099-30.54-67.168-78.678-67.168-131.08 0-8.587.701-16.977 2.001-25.238 19.587-4.27 42.783-6.823 61.163-6.823zm-93.102 17.631c-.325 4.781-.557 9.556-.557 14.43 0 58.807 26.323 113.356 71.345 149.792-9.932 7.24-18.2 10.942-45.863 11.453-33.373.65-71.473-24.542-76.393-81.493-4.595-53.516 26.915-79.242 51.05-93.955.14-.093.278-.182.418-.227z" fill="#1c1e87"/>
</svg>
