<svg xmlns="http://www.w3.org/2000/svg" width="360" height="360">
<path d="M35.058 114.376C19.045 229.396 189.831 338.541 305.763 233.58c-115.637 40.72-191.603-34.79-214.08-86.774-19.903-46.003-12.848-98.47-4.211-121.216-34.012 23.873-47.773 55.069-52.414 88.786M0 179.986C0 279.396 80.605 360 180.013 360c93.91 0 170.947-71.807 179.263-163.49-18.509 27.843-74.624 97.504-170.974 92.944C81.062 284.41 18.428 203.538 6.089 133.635A179.571 179.571 0 0 0 0 179.987M123.228 9.147c-12.205 13.76-47.451 63.491-5.794 143.345 26.072 49.92 72.906 68.75 113.008 75.133-33.342-13.653-56.866-46.431-56.866-84.628 0-50.563 41.04-91.55 91.576-91.55 23.363 0 44.634 8.772 60.809 23.15C293.209 29.399 240.098 0 180.013 0c-19.85 0-38.894 3.219-56.785 9.147" fill="#f87f0f"/>
</svg>