<svg width="472" height="400" xmlns:xlink="http://www.w3.org/1999/xlink" xmlns="http://www.w3.org/2000/svg">
<g transform="translate(-214.241 -100.042)">
<path id="a" d="M388.53 442.267c8.884-9.664 20.191-16.9 31.793-23.84-14.977 3.565-23.895 13.195-31.793 23.84m-13.196-8.545c.078.312.418-.133.446-.156.273-.2.63-.523.902-.746 9.007-7.14 21.038-11.742 33.443-15.145-16.621.323-26.101 7.787-34.79 16.047m15.144-18.743c-36.405 6.244-62.145 24.826-79.629 49.935 20.258-23.477 47.111-40.371 81.128-50.09-.663-.09-1.181.1-1.499.155m-82.932-19.05c5.175-2.573 11.736-3.765 19.495-3.748-6.896-2.802-15.1.412-19.495 3.749m57.739-4.947c5.225 11.82 13.401 20.693 27.594 23.545-.006.24-.418.078-.451.295 4.116-.379 10.672.669 14.248-1.047-20.526-.173-31.967-11.524-41.391-22.793m-26.992 2.401c-4.701-5.798-8.133-12.867-10.2-21.3-1.314 10.645 4.813 16.365 10.2 21.3m2.25-10.054c.919 9.865 9.34 15.953 15.746 20.097.09-.011.179-.022.145-.15-6.7-5.693-14.727-13.39-13.64-26.391.144-1.788.846-3.604.896-5.253-1.743 3.236-3.61 6.762-3.147 11.697m-35.242-2.1c-11-8.695-29.08-12.833-48.442-11.246 18.47.128 35.92 4.378 48.442 11.246m-77.98-50.837c7.247-8.74 19.545-11.764 33.888-13.196-15.034-1.036-28.435 3.71-33.888 13.196m70.628 6.6c-.852 12.165 2.323 24.603 5.854 33.593 1.27 3.247 2.395 6.444 4.194 8.85-3.42-8.622-6.795-19.444-7.347-30.896-.59-12.22.797-24.174 4.501-33.588.084 0 .173-.122 0-.155-3.966 6.065-6.6 13.652-7.202 22.196M262.408 311.8c.161.006.384-.073.156-.15-4.852-3.693-14.004-5.788-22.347-4.05 8.589.212 15.267 2.323 22.19 4.2m6.3-23.99c-.45-.507-.702-1.449-1.498-1.354 4.294 6.1 7.648 13.145 11.396 19.796-.63-7.904-5.642-13.763-9.898-18.442m3.9-55.043c2.082 1.37 4.227 3.475 5.848 4.801-1.415-2.657-3.966-5.253-6.3-6.6-1.526-.88-3.409-.953-5.247-1.95-2.434-1.314-4.629-4.3-6.144-6.3-.579-.763-.952-1.693-1.804-2.094 2.89 5.704 6.606 10.589 13.646 12.143m6.15-15.596c.551 1.102 1.208 2.1 1.799 3.147 1.203-1.398 2.55-2.646 3.899-3.894-.78-.473-1.176-1.32-1.8-1.95-.774 1.421-1.86 2.535-3.898 2.697m4.801 6.45c.006.094.022.178.15.144 3.309-4.233 7.642-7.447 12.45-10.193-5.67 1.883-9.704 5.392-12.6 10.049m-11.246-10.5c.134.462.702.501 1.198.602-.09-.262.178-.88-.15-.897-.218.234-.586.312-1.048.295m10.494-1.348c-.056-.557.607-.39.451-1.047h-1.047c.028.518.44.657.596 1.047m-7.046-4.495c-.011.808.228 1.365.3 2.095 1.065-.452 2.05-.229 2.997-.602-.468-.479-.456-1.437-.896-1.95-.502.457-1.449.457-2.401.457m11.396 1.643c1.198-.094 1.766.435 2.702.602-.145-1.086.512-1.381.596-2.245-1.192-.006-1.889-.507-2.696-.908.016 1.075-.54 1.565-.602 2.551m-1.799-5.999c.262.14.44.368.746.452.229-.457-.044-.58.156-.897-.334.117-.818.083-.902.445m50.236 221.95c-2.802-2.808-5.503-7.776-4.796-14.093 4.507.44 10.372 1.42 13.948-.45-3.838-3.543-9.826-7.643-16.348-8.4-10.271-1.192-13.162 5.625-17.847 11.095-2.345 2.74-5.23 5.609-7.948 7.347-1.671 1.075-4.217 2.105-6.751 1.504-.05-3.454.551-5.893.752-9.748-7.002 2.496-10.823 8.171-15.145 13.346-1.615-2.484-2.267-5.932-2.1-10.199-4.846-1.376-10.115 4.206-13.797 6.3 2.557-13.14 8.951-22.442 19.345-27.744-1.187-1.22-3.95-2.084-6.6-1.348-10.918 3.04-17.418 16.192-23.545 23.99-4.545-9.224-2.874-24.391 2.701-30.892-6.561-2.729-8.433 6.863-8.694 13.051-2.657-.746-5.019-1.782-6-4.2-2.227.997-2.907 3.905-3.598 6.445-.89 3.275-1.56 6.5-1.955 10.349-7.52-3.816-11.658-12.432-11.842-22.943-.256-14.56 7.342-23.222 20.693-24.447-.79-3.203-2.88-5.119-4.65-7.347 5.029-3.431 14.72-4.562 21.594-2.4-.384-2.061-1.871-4.323-2.551-6.601 8.845-3.481 21.445-.991 28.496 3.453-2.768-7.24-11.112-13.028-21.144-9.898-.84.262-1.526.725-2.55 1.053 1.364-6.64 5.915-10.087 10.65-13.351-2.067-3.353-11.492-2.612-15.898-1.047-4.64 1.648-6.439 6.5-9.146 10.198-1.682 2.29-3.687 4.44-6.3 5.548-.222-3.03-.317-6.188-1.202-8.55-12.438 1.944-20.426 8.656-29.093 14.694-.601-18.448 7.965-30.318 17.1-40.037-1.927-.875-4.11-1.493-5.999-2.401 3.833-6.54 12.806-8.233 22.342-7.949 8.36.251 16.153 2.418 22.046 5.097-2.417-6.378-6.121-12.767-9.146-19.038-1.777-2.473-3.548-5.67-5.704-8.556-1.888-2.523-4.935-6.745-8.093-7.341-.613-.117-1.164.089-1.654 0 2.6-4.15 9.396-4.518 13.947-1.955 6.144 3.464 11.385 9.964 15.295 15 .77-10.55-3.291-18.988-7.346-26.096-3.398-5.954-7.637-11.095-11.547-16.047 6.127.824 11.151 2.367 15 5.548 1.236 1.03 1.955 2.612 3.598 3.152-.451-3.347-2.172-6.316-4.65-8.394-4.93-4.15-8.456-8.856-11.547-14.994-1.471-2.936-3.214-5.955-3.9-9.302-.523-2.551.98-5.002 3.599-3.153 1.415 1.003 2.846 3.86 3.899 4.952 1.286 1.331 2.807 2.44 4.65 2.997 3.91 1.18 8.824.724 11.547 3.447-2.868-5.057-11.88-5.87-16.648-9.296-1.872-1.348-4.094-5.615-2.1-9.146 2.434.312 2.005 3.498 3.748 4.5 1.677.418 3.142 1.059 4.952 1.349-2.128-2.696-.061-7.425 4.05-7.052-1.387-4.283 3.252-7.068 7.046-5.247-.346-6.5 10.471-5.854 9.446-.15 3.721-1.71 9.185 1.476 6.6 5.999 2.585.467 4.451 1.648 4.351 4.8 3.297.92 7.163-.835 10.199 0 1.197 2.452-1.777 4.028-3.604 5.398-6.918 5.192-15.624 10.533-20.242 17.696 1.17 2.824 1.872 5.877 1.8 9.597 3.09-2.857 8.884-4.896 14.844-3.447-5.593 2.4-10.5 6.95-13.797 12.298-1.287 2.089-2.869 4.612-3.147 7.347-.652 6.3-.084 12.293-.602 17.54.713-.356 1.13-1.17 1.654-1.793 5.554-6.707 17.073-10.884 27.74-8.695-9.993 5.536-20.148 12.839-21.897 26.842-.986 7.898 1.198 15.429 4.055 21.444 2.563-7.03 3.014-16.18 4.044-24.747 4.328 1.37 5.286 6.116 7.347 9.747 2.3-4.005 6.562-6.038 11.402-7.497 1.314 3.292.056 8.394 0 11.697 2.367-.568 6.071-.173 7.196 1.8-3.965 4.728-8.054 10.003-11.546 15.896-3.404 5.737-6.623 12.16-7.197 20.091-.858 11.736 5.192 19.662 12.744 24.302-.261-10.271 2.735-19.456 8.1-25.048-.212 10.811 2.645 18.553 5.697 26.095 5.693-5.948 11.982-14.66 22.047-15.897 6.528-.802 11.914 2.607 14.693 6.295-10.282 1.23-17.467 6.127-18.592 16.498-.936 8.634 3.615 14.198 7.798 18.598-1.755-5.169-5.994-14.142-4.35-21.745.54-2.507 2.49-4.356 5.547-4.651 3.676-.351 6.133 1.905 8.25 3.899.022-2.033.412-4.5 2.4-4.796 6.784-1.036 10.277 6.924 11.396 12.143 1.126-1.627 1.955-3.582 5.097-3.147 4.45.618 5.214 5.53 6.6 9.747 1.41 4.284 4.495 9.815 6.746 12.6-1.26-4.746-2.73-15.502 1.203-18.292 2.35-1.677 6.662-1.46 9.747 0 3.376 2.44 4.323 7.196 5.699 12.137 1.698 6.132 2.807 10.282 9.296 11.702 1.51.33 3.286.251 5.698.301.351 6.65.056 13.942.15 20.849-12.666 4.322-25.126 8.862-29.092 21.885-1.18-1.282-4.417-1.187-6.45-.446-7.642 2.768-13.184 13.184-17.395 18.749-2.395-6.668-1.148-16.805 0-23.846-2.54-.518-5.386.763-7.347 2.095-4.473 3.999-7.976 9.797-9.597 16.498-.262 1.086-.384 2.423-.451 3.604-.518 9.163-.463 19.45-1.047 29.387-3.354-6.388-8.144-11.357-13.196-16.047-.991 4.211-3.487 6.918-6.155 9.447-.139-3.548-1.56-5.832-2.996-8.093-1.833 3.414-4.857 5.642-8.846 6.9 1.042-2.929-.935-5.073-2.1-6.75-2.35 2.3-2.868 6.428-4.049 9.898-3.72-2.183-5.848-5.949-6.75-10.95-11.86 7.09-21.507 16.386-32.24 24.591-.669-3.921-1.398-6.807-1.053-11.396 1.31-17.19 11.965-28.368 21.896-37.342-5.631-5.113-12.895-12.828-9.748-23.388 1.426.824 2.607 2.005 3.9 2.996 4.79 3.671 10.956 6.217 18.598 7.347-2.602-5.553-4.295-12.8-4.651-20.096 7.374 1.871 14.03 4.467 20.993 6.75m113.074-.299c-2.869 7.325-6.144 14.26-9.146 21.445-3.849-1.704-7.63-3.47-11.251-5.397 2.534-5.264 4.729-10.873 7.352-16.048zm-.3-23.243c.346 6.846.051 14.343.151 21.445-3.654.345-7.943.05-11.847.15.072-8.778-.334-14.254.15-21.595zm-19.195-301.277c5.37.134 10.616 3.32 10.65 9.297.028 6.288-5.275 8.488-10.95 9.602-19.953 3.883-35.449 11.135-49.34 21.133-16.376 11.809-29.02 27.288-37.787 46.794a112.026 112.026 0 0 0-7.052 21.15c-3.459 15.245-3.888 32.751-.596 49.032 4.662 23.071 15.674 41.252 29.243 55.194 2.384 2.445 4.562 4.857 7.046 7.04 14.994 13.218 32.718 23.172 56.235 28.346 5.085 1.12 11.82 2.106 13.496 6.745 1.794 4.963-.607 10.333-4.05 11.998-3.659 1.783-8.689.858-13.64 0-13.563-2.334-25.522-6.929-35.693-12.142-7.108-3.649-13.602-7.642-19.796-12.149-18.415-13.379-32.323-31.504-42.588-53.238-3.437-7.269-5.994-15.306-8.1-23.845-2.122-8.606-2.974-17.824-3.453-27.594-.93-19.1 3.197-38.066 9.001-53.083 2.992-7.753 6.267-15.105 10.35-21.595 4.082-6.505 8.137-12.961 13.195-18.748 16.96-19.423 38.968-35.927 69.731-42.138 4.573-.93 9.33-1.921 14.098-1.799"/>
<circle r="36.65" cx="450" cy="233.673" fill="none" stroke="#000" stroke-width="15.5"/>
<path d="M481.825 150.286c-.234.769-.19 2.568.3 3.454.752 1.359 4.858 2.623 6.3 3.297a85.45 85.45 0 1 1-77.384.145c1.754-.824 5.525-1.721 6.45-2.997.913-1.253.858-4.122-.752-4.946-1.894-.97-4.478.451-6.896 1.649-6.344 3.147-12.237 6.895-17.395 10.8-5.693 4.306-10.254 8.428-15 13.34-1.855 1.933-3.832 4.473-6.3 5.704-5.503 2.74-11.274-1.554-10.343-7.804.412-2.785 2.902-5.447 4.795-7.491 10.3-11.096 19.557-20.286 33.744-27.745 5.14-2.701 12.13-5.625 18.893-4.795 5.414.651 8.907 3.503 11.553 6.895 2.668 3.42 4.767 7.687 4.946 13.346.195 6.255-1.89 10.689-4.796 13.502-3.197 3.074-8.02 4.556-11.848 6.444a69.7 69.4 0 1 0 64.184.145c-4.334-2.116-9.118-3.66-11.998-6.3-3.208-2.93-5.046-7.085-5.397-12.894-.334-5.409 2.356-11.057 4.946-14.393 3.04-3.921 7.475-6.762 13.346-6.896 6.795-.161 13.045 2.624 18.147 5.247 13.15 6.757 22.614 16.053 32.69 26.541 2.518 2.618 6.467 6.495 4.947 11.697-1.348 4.635-6.64 6.06-10.795 3.749-3.36-1.866-6.862-6.717-9.748-9.447-8.255-7.809-17.077-14.242-28.195-19.645-2.367-1.159-6.65-3.777-8.394-.602"/>
<use xlink:href="#a" transform="matrix(-1 0 0 1 900 0)"/>
</g>
</svg>