<svg xmlns="http://www.w3.org/2000/svg" width="200" height="200"><path d="M117.015 99.853l-1.353 4.121 1.353-4.121zM86.111 32.401v28.54c16.264 1.07 27.365 11.27 31.12 22.076l16.781-50.616H86.111zM50.163 86.682s6.834-24.875 31.704-25.8V32.42c-20.657.203-40.357 7.286-51.901 22.68l20.197 31.582z"/><path d="M139.144 32.401l-22.129 67.452-1.353 4.121-.009.027v-.002c-2.362 6.559-6.041 13.938-10.651 17.633-11.793 9.451-31.072 11.082-42.653-7.004L32.667 68.083H2.434l46.729 107.696H101.5l-9.266-16.248c9.266-.406 32.042-5.451 49.422-33.141 3.222-5.133 52.981-93.99 52.981-93.99l-55.493.001z"/><path d="M115.662 103.974l-.009.025v.002l.009-.027z"/></svg>