<?xml version="1.0" encoding="UTF-8" standalone="no"?>
<!-- Created with Inkscape (http://www.inkscape.org/) -->

<svg
   xmlns:dc="http://purl.org/dc/elements/1.1/"
   xmlns:cc="http://creativecommons.org/ns#"
   xmlns:rdf="http://www.w3.org/1999/02/22-rdf-syntax-ns#"
   xmlns:svg="http://www.w3.org/2000/svg"
   xmlns="http://www.w3.org/2000/svg"
   version="1.1"
   width="79"
   height="80"
   id="svg5969">
  <defs
     id="defs5971" />
  <metadata
     id="metadata5974">
    <rdf:RDF>
      <cc:Work
         rdf:about="">
        <dc:format>image/svg+xml</dc:format>
        <dc:type
           rdf:resource="http://purl.org/dc/dcmitype/StillImage" />
        <dc:title></dc:title>
      </cc:Work>
    </rdf:RDF>
  </metadata>
  <g
     id="layer5">
    <path
       d="m 39.5,5.125 c -9.617818,0 -18.283566,4.1557949 -24.34375,10.75 l 9.15625,4.9375 C 28.363059,17.279134 33.664896,15.125 39.5,15.125 c 5.835104,0 11.136941,2.154134 15.1875,5.6875 l 9.125,-4.9375 C 57.752985,9.2899297 49.110148,5.125 39.5,5.125 z M 1.6875,11.625 2,22.875 20.78125,32.25 c 0.602621,0.301311 1.3125,0.644421 1.3125,1.5625 0,1.014381 -0.696229,1.258944 -1.3125,1.53125 L 6.5625,41.65625 c 0.3398037,3.291818 1.1682376,6.436432 2.40625,9.375 l 17.90625,-8.125 c 2.878642,-1.307083 5,-5.53653 5,-8.875 0,-4.262968 -2.216084,-7.345465 -5,-8.84375 z m 75.625,0 -25.1875,13.5625 c -0.04594,0.02473 -0.07937,0.06816 -0.125,0.09375 -2.7191,1.524876 -4.875,4.557383 -4.875,8.75 0,3.33847 2.121358,7.567917 5,8.875 l 17.90625,8.125 c 1.238012,-2.938568 2.066446,-6.083182 2.40625,-9.375 l -14.21875,-6.3125 c -0.616271,-0.272306 -1.3125,-0.516869 -1.3125,-1.53125 0,-0.918079 0.709879,-1.261189 1.3125,-1.5625 L 77,22.875 z M 35,47.875 35,60.9375 C 28.16101,59.605902 22.442401,55.280709 19.21875,49.375 L 10.125,53.53125 C 14.998374,62.850366 24.187742,69.579644 35,71.0625 l 0,3.8125 9,0 0,-3.8125 C 54.812258,69.579644 64.001626,62.850366 68.875,53.53125 L 59.78125,49.375 C 56.557599,55.280709 50.83899,59.605902 44,60.9375 L 44,47.875 z"
       id="path6062"
       style="fill:#000000;fill-opacity:1;stroke:none" />
  </g>
</svg>
