<?xml version="1.0" encoding="UTF-8" standalone="no"?>
<!-- Created with Inkscape (http://www.inkscape.org/) -->

<svg
   xmlns:dc="http://purl.org/dc/elements/1.1/"
   xmlns:cc="http://creativecommons.org/ns#"
   xmlns:rdf="http://www.w3.org/1999/02/22-rdf-syntax-ns#"
   xmlns:svg="http://www.w3.org/2000/svg"
   xmlns="http://www.w3.org/2000/svg"
   xmlns:sodipodi="http://sodipodi.sourceforge.net/DTD/sodipodi-0.dtd"
   xmlns:inkscape="http://www.inkscape.org/namespaces/inkscape"
   width="450"
   height="358.29022"
   id="svg2"
   version="1.1"
   inkscape:version="0.48.4 r"
   sodipodi:docname="Symbol of Toyooka Nagano.svg">
  <defs
     id="defs4" />
  <sodipodi:namedview
     id="base"
     pagecolor="#ffffff"
     bordercolor="#666666"
     borderopacity="1.0"
     inkscape:pageopacity="0.0"
     inkscape:pageshadow="2"
     inkscape:zoom="1.2842578"
     inkscape:cx="262.30004"
     inkscape:cy="91.708347"
     inkscape:document-units="px"
     inkscape:current-layer="layer1"
     showgrid="false"
     inkscape:window-width="1280"
     inkscape:window-height="961"
     inkscape:window-x="-8"
     inkscape:window-y="-8"
     inkscape:window-maximized="1"
     fit-margin-top="0"
     fit-margin-left="0"
     fit-margin-right="0"
     fit-margin-bottom="0" />
  <metadata
     id="metadata7">
    <rdf:RDF>
      <cc:Work
         rdf:about="">
        <dc:format>image/svg+xml</dc:format>
        <dc:type
           rdf:resource="http://purl.org/dc/dcmitype/StillImage" />
        <dc:title></dc:title>
      </cc:Work>
    </rdf:RDF>
  </metadata>
  <g
     inkscape:label="レイヤー 1"
     inkscape:groupmode="layer"
     id="layer1"
     transform="translate(-41.875,-400.4598)">
    <g
       id="g3838"
       transform="matrix(0.94333443,0,0,0.94333443,2.3728709,42.995005)">
      <path
         id="path3792"
         d="M 400.40625,378.9375 C 295.52782,378.9375 210.5,463.96532 210.5,568.84375 210.5,673.72218 295.52782,758.75 400.40625,758.75 c 1.21391,0 2.38526,-0.16482 3.59375,-0.1875 -2.3162,-1.41919 -4.72206,-2.70092 -6.96875,-4.21875 -4.86883,-3.28932 -9.57379,-6.8323 -14.09375,-10.5625 -4.51996,-3.7302 -8.85959,-7.67209 -13,-11.8125 -4.14041,-4.14041 -8.0823,-8.48004 -11.8125,-13 -3.7302,-4.51996 -7.24193,-9.22492 -10.53125,-14.09375 -3.28932,-4.86883 -6.36973,-9.87546 -9.1875,-15.0625 -2.81777,-5.18704 -5.37195,-10.52542 -7.6875,-16 -2.31555,-5.47458 -4.37358,-11.1123 -6.15625,-16.84375 -1.78267,-5.73145 -3.28089,-11.57359 -4.5,-17.53125 -1.21911,-5.95766 -2.15636,-12.03431 -2.78125,-18.1875 -0.62489,-6.15319 -0.9375,-12.36944 -0.9375,-18.6875 0,-6.31806 0.31261,-12.56556 0.9375,-18.71875 0.62489,-6.15319 1.56214,-12.22984 2.78125,-18.1875 1.21911,-5.95766 2.71733,-11.7998 4.5,-17.53125 1.78267,-5.73145 3.8407,-11.33792 6.15625,-16.8125 2.31555,-5.47458 4.86973,-10.81296 7.6875,-16 2.81777,-5.18704 5.89818,-10.22492 9.1875,-15.09375 3.28932,-4.86883 6.80105,-9.57379 10.53125,-14.09375 3.7302,-4.51996 7.67209,-8.85959 11.8125,-13 4.14041,-4.14041 8.48004,-8.0823 13,-11.8125 4.51996,-3.7302 9.22492,-7.24193 14.09375,-10.53125 4.86883,-3.28932 9.90671,-6.36973 15.09375,-9.1875 5.18704,-2.81777 10.52542,-5.37195 16,-7.6875 5.47458,-2.31555 11.08105,-4.37358 16.8125,-6.15625 5.73145,-1.78267 11.57359,-3.31214 17.53125,-4.53125 5.95766,-1.21911 12.03431,-2.12511 18.1875,-2.75 6.15319,-0.62489 12.40069,-0.96875 18.71875,-0.96875 6.31806,0 12.56556,0.34386 18.71875,0.96875 0.27546,0.028 0.53741,0.0958 0.8125,0.125 -32.49113,-26.00036 -73.64985,-41.65625 -118.5,-41.65625 z"
         style="fill:#000000;fill-opacity:1;stroke:none"
         inkscape:connector-curvature="0" />
      <path
         sodipodi:nodetypes="csscsscsssssssssc"
         inkscape:connector-curvature="0"
         id="path3836"
         d="m 237.0625,459.59375 c -12.13464,-2.03693 -19.25715,-10.06773 -22.59375,-12.40625 -20.43923,-14.32518 -13.28271,-30.39753 -36.84375,-43.625 -36.71106,-20.61006 -66.84791,1.5583 -135.75,-3.375 34.973539,18.38947 56.289561,39.30584 74.25,57.40625 12.29263,12.38842 20.03948,19.57222 23,40.15625 1.28529,8.93641 38.09606,74.83692 67.78125,116.9375 -0.51361,-2.12873 -1.18379,-4.18773 -1.625,-6.34375 -1.26491,-6.18109 -2.22663,-12.49109 -2.875,-18.875 -0.64837,-6.38391 -1,-12.85135 -1,-19.40625 0,-6.5549 0.35163,-13.02234 1,-19.40625 0.64837,-6.38391 1.61009,-12.69391 2.875,-18.875 1.26491,-6.18109 2.80662,-12.24106 4.65625,-18.1875 1.84963,-5.94644 4.00373,-11.75753 6.40625,-17.4375 2.40252,-5.67997 5.07641,-11.24332 8,-16.625 2.92359,-5.38168 6.08717,-10.60469 9.5,-15.65625 1.00095,-1.48158 2.17748,-2.82984 3.21875,-4.28125 z"
         style="fill:#000000;fill-opacity:1;stroke:none" />
    </g>
  </g>
</svg>
