<?xml version="1.0" encoding="UTF-8" standalone="no"?>
<!-- Created with Inkscape (http://www.inkscape.org/) -->

<svg
   xmlns:dc="http://purl.org/dc/elements/1.1/"
   xmlns:cc="http://creativecommons.org/ns#"
   xmlns:rdf="http://www.w3.org/1999/02/22-rdf-syntax-ns#"
   xmlns:svg="http://www.w3.org/2000/svg"
   xmlns="http://www.w3.org/2000/svg"
   xmlns:sodipodi="http://sodipodi.sourceforge.net/DTD/sodipodi-0.dtd"
   xmlns:inkscape="http://www.inkscape.org/namespaces/inkscape"
   width="179.16922mm"
   height="181.32944mm"
   viewBox="0 0 634.85157 642.50588"
   id="svg2"
   version="1.1"
   inkscape:version="0.91 r13725"
   sodipodi:docname="agematsunagano.svg">
  <defs
     id="defs4" />
  <sodipodi:namedview
     id="base"
     pagecolor="#ffffff"
     bordercolor="#666666"
     borderopacity="1.0"
     inkscape:pageopacity="0.0"
     inkscape:pageshadow="2"
     inkscape:zoom="0.49497475"
     inkscape:cx="128.12451"
     inkscape:cy="389.16694"
     inkscape:document-units="px"
     inkscape:current-layer="layer1"
     showgrid="false"
     fit-margin-top="0"
     fit-margin-left="0"
     fit-margin-right="0"
     fit-margin-bottom="0"
     inkscape:window-width="1366"
     inkscape:window-height="715"
     inkscape:window-x="-8"
     inkscape:window-y="-8"
     inkscape:window-maximized="1" />
  <metadata
     id="metadata7">
    <rdf:RDF>
      <cc:Work
         rdf:about="">
        <dc:format>image/svg+xml</dc:format>
        <dc:type
           rdf:resource="http://purl.org/dc/dcmitype/StillImage" />
        <dc:title></dc:title>
      </cc:Work>
    </rdf:RDF>
  </metadata>
  <g
     inkscape:label="1. réteg"
     inkscape:groupmode="layer"
     id="layer1"
     transform="translate(-45.423828,-182.00586)">
    <path
       style="opacity:1;fill:#000000;fill-opacity:1;stroke:none;stroke-width:0.5;stroke-linecap:round;stroke-linejoin:round;stroke-miterlimit:4;stroke-dasharray:none;stroke-dashoffset:0;stroke-opacity:1"
       d="m 353.19922,182.00586 -150,13.21289 24.49023,19.92578 C 119.98463,267.48806 45.423633,380.4577 45.423828,507.375 45.424098,682.51873 187.40704,824.5113 362.55078,824.51172 l 0.59766,-0.004 0,0.004 c 1.70973,-10e-6 3.41583,-0.018 5.11914,-0.0449 l 1.99414,-0.0156 0,-0.0215 C 542.12003,820.64626 680.27512,680.15096 680.27539,507.38477 680.27559,380.46622 605.71398,267.49715 498.00781,215.1543 L 522.5,195.21875 l -150,-13.21289 129.64258,81.07031 -7.25586,-30.01953 c 4.85664,2.70218 9.63041,5.5431 14.31445,8.51953 12.73741,8.09388 24.81632,17.18286 36.13867,27.14453 44.42054,47.71082 67.85268,113.90254 67.91797,181.58985 1.8e-4,85.52301 -38.4695,172.44341 -108.28125,206.82226 -27.57016,13.57695 -71.04614,7.63157 -90.81445,-15.89843 -0.50145,-0.59687 3e-5,-2.33866 3e-5,-2.33866 l 0.002,-155.01486 88.26367,0 3.28711,0 0,-0.10938 c 27.81938,-1.69852 49.85938,-24.78841 49.85938,-53.03515 0,-28.24674 -22.04,-51.33668 -49.85938,-53.03516 l 0,-0.10937 -3.28711,0 -88.26367,0 0,-40.41797 -0.0391,0 c 0.0145,-0.50469 0.0371,-1.00743 0.0371,-1.51563 0,-28.73143 -23.29003,-52.02148 -52.02149,-52.02148 -28.73142,0 -52.02343,23.29005 -52.02343,52.02148 0,0.5082 0.0246,1.01093 0.0391,1.51563 l -0.0391,0 0,301.72189 c 0,0 0.49849,1.73932 0,2.33866 -18.60173,22.3648 -59.69738,28.72079 -85.8086,15.89843 -70.77461,-34.75508 -108.10563,-123.77727 -108.10547,-210.39453 0.0276,-66.5651 21.5655,-130.79794 63.91797,-177.82031 11.39069,-10.04347 23.55068,-19.20122 36.37696,-27.35156 4.68404,-2.97644 9.45781,-5.81718 14.31445,-8.51953 l -7.25586,30.02929 z M 83.371094,442.69336 c -0.331801,5.37178 -0.507994,10.77358 -0.511719,16.20312 -8.8e-5,155.91585 126.394695,282.31064 282.310545,282.31055 147.22473,9e-5 268.10759,-112.70235 281.12891,-256.53515 0.0487,2.17952 0.082,4.3621 0.082,6.55078 2.3e-4,158.62746 -124.53304,287.22375 -283.14844,287.26953 l -0.084,0.002 -0.59766,0 C 203.89521,778.4939 79.318129,649.86845 79.318359,491.21289 c 2.4e-5,-16.46685 1.391947,-32.68042 4.052735,-48.51953 z"
       id="rect3389"
       inkscape:connector-curvature="0"
       sodipodi:nodetypes="cccsccccccscccccsccaacccccsccccccssscccaaccscccccscsccssc" />
  </g>
</svg>
