<?xml version="1.0" encoding="UTF-8" standalone="no"?>
<!-- Created with Inkscape (http://www.inkscape.org/) -->

<svg
   xmlns:dc="http://purl.org/dc/elements/1.1/"
   xmlns:cc="http://creativecommons.org/ns#"
   xmlns:rdf="http://www.w3.org/1999/02/22-rdf-syntax-ns#"
   xmlns:svg="http://www.w3.org/2000/svg"
   xmlns="http://www.w3.org/2000/svg"
   xmlns:sodipodi="http://sodipodi.sourceforge.net/DTD/sodipodi-0.dtd"
   xmlns:inkscape="http://www.inkscape.org/namespaces/inkscape"
   width="350"
   height="281.75"
   id="svg2"
   version="1.1"
   inkscape:version="0.48.4 r"
   sodipodi:docname="新規ドキュメント 1">
  <defs
     id="defs4" />
  <sodipodi:namedview
     id="base"
     pagecolor="#ffffff"
     bordercolor="#666666"
     borderopacity="1.0"
     inkscape:pageopacity="0.0"
     inkscape:pageshadow="2"
     inkscape:zoom="2.1"
     inkscape:cx="175"
     inkscape:cy="140.875"
     inkscape:document-units="px"
     inkscape:current-layer="layer1"
     showgrid="false"
     fit-margin-top="0"
     fit-margin-left="0"
     fit-margin-right="0"
     fit-margin-bottom="0"
     inkscape:window-width="1280"
     inkscape:window-height="961"
     inkscape:window-x="-8"
     inkscape:window-y="-8"
     inkscape:window-maximized="1">
    <inkscape:grid
       type="xygrid"
       id="grid3785"
       empspacing="5"
       visible="true"
       enabled="true"
       snapvisiblegridlinesonly="true"
       originx="-221.46082px"
       originy="-191.9613px" />
  </sodipodi:namedview>
  <metadata
     id="metadata7">
    <rdf:RDF>
      <cc:Work
         rdf:about="">
        <dc:format>image/svg+xml</dc:format>
        <dc:type
           rdf:resource="http://purl.org/dc/dcmitype/StillImage" />
        <dc:title></dc:title>
      </cc:Work>
    </rdf:RDF>
  </metadata>
  <g
     inkscape:label="レイヤー 1"
     inkscape:groupmode="layer"
     id="layer1"
     transform="translate(-221.46082,-578.65088)">
    <path
       style="fill:#000000;fill-opacity:1;stroke:none"
       d="m 414.11707,578.65088 0,53.03125 c 32.90308,6.26149 59.35275,30.62646 68.625,62.34375 l -170.6875,0 c 9.24711,-31.64637 35.61786,-55.97721 68.40625,-62.3125 l 0,-53.03125 c -61.84217,7.39209 -111.42288,54.63728 -122.25,115.34375 l -21.75,0 -15,50 36.75,0 c 6.33906,35.26614 25.82525,65.95692 53.125,86.96875 l 27.6875,-45.03125 c -12.60135,-11.00019 -22.09317,-25.47616 -26.9375,-41.9375 l 170.65625,0 c -10.81653,36.92444 -44.92487,63.90625 -85.34375,63.90625 -9.67875,0 -18.96594,-1.60924 -27.6875,-4.46875 l -27.96875,45.5 c 17.08936,7.32901 35.88393,11.4375 55.65625,11.4375 69.55377,0 127.37004,-50.21866 139.1875,-116.375 l 19.875,0 15,-50 -34.875,0 C 525.74791,633.24398 476.06359,585.9568 414.11707,578.65088 z"
       id="path3797"
       inkscape:connector-curvature="0" />
  </g>
</svg>
