<svg xmlns="http://www.w3.org/2000/svg" width="200" height="200"><path fill="#aea6bc" d="M134.869 150.037c-.093-.008-3.578-.329-8.688-1.242l43.73-78.052h-19.396L134.74 50.049l18.045-15.048a1 1 0 0 0-.643-1.768c-.142 0-.285.03-.42.094l-21.939 10.218L99.999 4.473 68.724 45.504 39.635 31.58c-.138-.067-.285-.099-.431-.099a1 1 0 0 0-.622 1.783l24.545 19.582-13.642 17.897H30.088l69.911 124.784 23.514-41.968c4.014-.202 7.867-.719 11.492-1.552a1 1 0 0 0 .774-1.044c-.034-.488-.422-.883-.91-.926z"/><path d="M90.298 97.055c-4.559 9.646-11.548 31.093 3.857 41.427 15.416 10.342 40.626 12.552 40.626 12.552-4.813 1.104-9.944 1.626-15.119 1.626-22.734 0-46.274-10.051-46.962-24.717-.877-18.707 17.598-30.888 17.598-30.888M39.204 32.481l47.371 22.677 10.328-11.102L107.37 55.09l44.772-20.854-44.498 37.106s9.974 14.981 8.897 27.08c-1.999 22.48-24.61 23.063-24.61 23.063s11.871-13.092 11.236-25.351c-.867-16.797-18.19-26.473-21.874-29.805S39.204 32.481 39.204 32.481" fill="#fff"/></svg>