<?xml version="1.0" encoding="UTF-8"?><svg width="453" height="433" viewBox="23 34 453 433" xmlns="http://www.w3.org/2000/svg" version="1.1">
 <path xmlns="http://www.w3.org/2000/svg" d="m143.5 166.1v42.6h85.2v14.2h-85.2v99.4h85.2v14.2h-85.2v42.6h212.9v-99.4h-170.3v-14.2h170.3v-99.4zm127.8 42.6h42.6v14.2h-42.6zm0 113.6h42.6v14.2h-42.6zm-21.3-286.3-103.1 74.9a11.8 11.8 0 0 0-3.9 14.5 11.8 11.8 0 0 0-15-0.8l-103.1 74.9 39.4 121.2a11.8 11.8 0 0 0 12.6 8.2 11.8 11.8 0 0 0-5.4 14l39.4 121.2h127.4a11.8 11.8 0 0 0 11.6-9.5 11.8 11.8 0 0 0 11.6 9.5h127.4l39.4-121.2a11.8 11.8 0 0 0-5.4-14 11.8 11.8 0 0 0 12.6-8.2l39.4-121.2-103.1-74.9a11.8 11.8 0 0 0-15 0.8 11.8 11.8 0 0 0-3.9-14.5zm0 26.3 81.9 59.5a17.7 17.7 0 0 1 3.9 24.7l-5.6 7.8h11.7l1.6-2.2a17.7 17.7 0 0 1 24.7-4l81.9 59.5-31.3 96.2a17.7 17.7 0 0 1-22.3 11.3l-28.1-9.1v9.9l25.2 8.2a17.7 17.7 0 0 1 11.4 22.3l-31.3 96.2h-101.2a17.7 17.7 0 0 1-17.7-17.7v-34.1h-9.5v34.1a17.7 17.7 0 0 1-17.7 17.7h-101.2l-31.3-96.2a17.7 17.7 0 0 1 11.4-22.3l25.2-8.2v-9.9l-28.1 9.1a17.7 17.7 0 0 1-22.3-11.3l-31.3-96.2 81.9-59.5a17.7 17.7 0 0 1 24.7 4l1.6 2.2h11.7l-5.6-7.8a17.7 17.7 0 0 1 3.9-24.7z" fill="#373535"/>
</svg>