<?xml version="1.0" encoding="UTF-8"?>
<!-- Created with Inkscape (http://www.inkscape.org/) -->
<svg id="svg8" width="87.03965mm" height="95.382294mm" version="1.1" viewBox="0 0 87.03965 95.382294" xmlns="http://www.w3.org/2000/svg" xmlns:cc="http://creativecommons.org/ns#" xmlns:dc="http://purl.org/dc/elements/1.1/" xmlns:rdf="http://www.w3.org/1999/02/22-rdf-syntax-ns#">
 <metadata id="metadata5">
  <rdf:RDF>
   <cc:Work rdf:about="">
    <dc:format>image/svg+xml</dc:format>
    <dc:type rdf:resource="http://purl.org/dc/dcmitype/StillImage"/>
   </cc:Work>
  </rdf:RDF>
 </metadata>
 <g id="layer1" transform="translate(-43.862956,-45.891519)">
  <g id="g825" transform="matrix(.26458333 0 0 .26458333 -31.749999 14.273811)">
   <path id="rect2384" d="m384.5 119.5-65.75 65.75 33.21875 33.25 32.5-32.53125 32.28125 32.28125-32.75 32.75v65.5l-32.46875-32.5-65.75 65.78125 33.21875 33.21875 32.53125-32.53125 32.46875 32.46875v50.0625h-50v47h232v-47h-50v-49.48437l33-33.04688 32.53125 32.53125 33.21875-33.21875-65.75-65.78125-33 33v-66l-32.78125-32.78125 32.28125-32.25 32.53125 32.53125 33.21875-33.25-65.75-65.75-65.5 65.5zm65.46875 131.96875 19.03125 19v162.53125h-38v-162.5625z" fill="#3d117b"/>
  </g>
 </g>
</svg>
