<svg width="368" height="360" xmlns="http://www.w3.org/2000/svg">
<path d="M183.416 0c-99.412 0-180 80.588-180 180a180 180 0 0 0 20.212 82.64c20.327-6.228 38.883-14.973 57.265-26.697a116.838 116.838 0 0 1-14.316-55.944c0-64.527 52.311-116.837 116.839-116.837 18.375 0 35.752 4.254 51.22 11.812-33.07 24.66-57.649 54.526-74.196 83.94-33.893 60.246-67.089 92.775-132.837 112.327L0 341.206c98.359-12.176 164.994-68.29 199.928-125.937 34.644-57.171 41.14-68.108 82.625-97.077 11.204 17.931 17.7 39.106 17.7 61.807 0 64.528-52.31 116.838-116.837 116.839a116.836 116.836 0 0 1-38.38-6.628c-16.588 15.41-39.784 29.173-62.396 38.82A180 180 0 0 0 183.416 360c99.41 0 180-80.59 180-180-.001-32.527-8.672-63.01-23.764-89.344l27.809-69.373c-25.884 3.689-49.45 10.218-70.8 18.838C265.727 15.047 226.335 0 183.415 0Z" fill="#195aa1"/>
</svg>
