<svg width="509" height="360" xmlns="http://www.w3.org/2000/svg">
<path d="M337.787 95.219c-3.646-23.433-13.195-42.375-21.612-59.086-6.21-12.326-12.078-23.965-14.524-35.447a.873.873 0 0 0-.566-.64.873.873 0 0 0-.84.157c-6.868 5.746-15.993 11.462-26.562 18.082-27.04 16.94-60.692 38.025-82.563 75.518-21.836 37.435-7.903 81.718-1.01 98.8-21.944-18.102-62.689-36.61-87.952-39.64-20.817-2.5-71.623-4.775-93.752 27.943-9.662 14.28-11.024 32.636-3.935 53.081 6.22 17.941 18.883 36.443 34.75 50.757 28.87 26.045 82.064 39.417 122.217 43.24 34.955 3.329 84.262 13.458 117.806 31.907a.863.863 0 0 0 1.215-1.093c-5.472-13.07-17.819-27.554-34.759-40.793-16.428-12.845-35.794-23.229-53.135-28.51-12.546-3.818-23.652-6.264-33.445-8.427-15.144-3.334-28.218-6.22-40.652-12.85-12.927-6.892-22.886-18.506-25.376-29.583-1.465-6.523-.278-12.61 3.432-17.6 10.281-13.84 45.875-11.17 86.551 6.503 20.91 9.085 40.027 21.363 58.514 33.236 7.29 4.677 14.168 9.095 20.973 13.2a.873.873 0 0 0 1.103-.175.87.87 0 0 0 .015-1.118c-14.109-17.199-22.603-38.42-30.092-58.69-7.47-20.211-8.407-39.06-7.508-64.783.883-25.152 19.537-55.878 40.041-55.878 17.297 0 28.97 24.956 30.258 49.087 1.709 31.825-5.429 58.158-22.457 82.88-.22.318-.2.742.044 1.035a.863.863 0 0 0 1.01.254c23.546-10.066 42.65-28.97 52.413-51.86 11.233-26.319 14.63-52.325 10.398-79.507" fill="#0083bc"/>
<path d="M508.195 225.63c-1.885-14.334-12.674-22.95-29.003-23.4 21.065-19.498 28.085-40.944 17.843-55.033-7.982-10.97-23.853-14.246-48.536-10.013-30.029 5.145-55.615 20.28-80.532 47.623-3.92 4.306-8.07 9.017-12.463 14.01-21.373 24.278-47.97 54.493-76.441 69.26a.874.874 0 0 0-.44.996c.103.39.464.66.87.645 21.66-.82 39.309-8.265 55.155-16.189 14.094-7.044 27.202-18.658 39.876-29.882 3.417-3.027 6.947-6.16 10.432-9.139 14.612-12.493 28.618-17.955 35.692-13.913 1.762 1.005 2.944 2.65 3.505 4.872 1.2 4.79-.635 11.736-4.921 18.595a.86.86 0 0 0 .044.981c.215.288.586.41.932.308 13.074-3.798 27.974-3.222 30.278 4.315 3.159 10.335-12.546 25.128-38.196 35.96-16.618 7.026-43.678 15.427-69.772 17.946-26.177 2.524-51.714.42-71.91-5.921a.864.864 0 0 0-.806 1.499c21.124 17.12 65.979 34.832 104.478 34.832 50.703 0 87.708-23.282 105.253-37.161 21.276-16.828 30.917-34.051 28.662-51.192" fill="#389b3c"/>
</svg>