<?xml version="1.0" encoding="UTF-8" standalone="no"?>
<!-- Created with Inkscape (http://www.inkscape.org/) -->

<svg
   xmlns:dc="http://purl.org/dc/elements/1.1/"
   xmlns:cc="http://creativecommons.org/ns#"
   xmlns:rdf="http://www.w3.org/1999/02/22-rdf-syntax-ns#"
   xmlns:svg="http://www.w3.org/2000/svg"
   xmlns="http://www.w3.org/2000/svg"
   version="1.1"
   width="219.17702"
   height="253.42548"
   id="svg2">
  <metadata
     id="metadata8">
    <rdf:RDF>
      <cc:Work
         rdf:about="">
        <dc:format>image/svg+xml</dc:format>
        <dc:type
           rdf:resource="http://purl.org/dc/dcmitype/StillImage" />
        <dc:title></dc:title>
      </cc:Work>
    </rdf:RDF>
  </metadata>
  <defs
     id="defs6" />
  <path
     d="M 108.94859,2 31.742427,61.242036 53.212157,77.716338 104.27054,38.587966 c 1.53831,-1.180388 3.64273,-1.129318 5.04928,0.09306 0.20095,0.17464 0.39989,0.374024 0.56851,0.593788 1.34901,1.758072 0.98362,4.28031 -0.77446,5.629324 L 59.806903,82.776674 80.831163,98.909156 131.88955,59.780784 c 1.53831,-1.180386 3.64273,-1.129326 5.04928,0.09306 0.20095,0.17464 0.39988,0.374024 0.56851,0.593788 1.34901,1.758072 0.98362,4.28031 -0.77446,5.629326 l -49.306967,37.872522 21.469727,16.4743 77.20655,-59.241732 z m 29.48808,105.81818 -22.99547,17.64819 78.74032,60.41957 22.99549,-17.64818 z m -57.616307,1.16646 -45.990942,35.29636 106.805189,81.95452 45.99094,-35.29637 z m 8.149048,36.50432 50.427519,38.69441 -6.55597,5.0532 -50.427519,-38.6944 z M 26.609669,150.57849 2,169.509 l 106.75561,81.91648 24.65925,-18.89246 z"
     id="rect3759"
     style="fill:#000000;fill-opacity:1;fill-rule:nonzero;stroke:none" />
</svg>
