<?xml version="1.0" encoding="UTF-8" standalone="no"?>
<!-- Created with Inkscape (http://www.inkscape.org/) -->

<svg
   xmlns:dc="http://purl.org/dc/elements/1.1/"
   xmlns:cc="http://creativecommons.org/ns#"
   xmlns:rdf="http://www.w3.org/1999/02/22-rdf-syntax-ns#"
   xmlns:svg="http://www.w3.org/2000/svg"
   xmlns="http://www.w3.org/2000/svg"
   version="1.1"
   width="487"
   height="485"
   id="svg2">
  <defs
     id="defs4" />
  <metadata
     id="metadata7">
    <rdf:RDF>
      <cc:Work
         rdf:about="">
        <dc:format>image/svg+xml</dc:format>
        <dc:type
           rdf:resource="http://purl.org/dc/dcmitype/StillImage" />
        <dc:title></dc:title>
      </cc:Work>
    </rdf:RDF>
  </metadata>
  <g
     id="layer2">
    <path
       d="m 243.5,123.59375 -61,67.90625 51.0625,0 9.9375,-12.21875 9.9375,12.21875 51.0625,0 z m -61,83.90625 0,17 -33.46875,0 -25.15625,26.875 26.3125,28.125 32.3125,0 0,34.5 61,65.1875 61,-65.1875 0,-34.5 32.3125,0 26.3125,-28.125 -25.15625,-26.875 -33.46875,0 0,-17 -48,0 0,14 -13,0 -13,0 0,-14 z m 48,74.875 26,0 0,15.125 -13,12.9375 -13,-12.9375 z"
       id="rect3859"
       style="fill:#0198f3;fill-opacity:1;fill-rule:evenodd;stroke:none" />
    <path
       d="M 230.5,7.875 C 106.74511,14.606379 8.5,117.06482 8.5,242.5 c 0,125.41413 98.27442,227.86263 222,234.625 l 0,-83.9375 C 132.56588,386.39895 55.1875,304.81528 55.1875,205.15625 55.1875,105.47619 132.53651,23.883389 230.5,17.125 z m 26,0 0,9.21875 c 98.12594,6.59121 175.6875,88.26606 175.6875,188.0625 0,99.78525 -77.5772,181.42393 -175.6875,188.03125 l 0,83.9375 c 123.72558,-6.76237 222,-109.21087 222,-234.625 0,-125.42465 -98.25976,-227.878125 -222,-234.625 z"
       id="path3055"
       style="fill:#0198f3;fill-opacity:1;fill-rule:evenodd;stroke:none" />
  </g>
</svg>
