<?xml version="1.0" encoding="UTF-8"?><svg width="453" height="424" viewBox="23 39 453 424" xmlns="http://www.w3.org/2000/svg">
 <path xmlns="http://www.w3.org/2000/svg" fill="#356cbd" d="m475 190.8-164.8-131.9c-27-21.2-35.5-20-46.9-16-10.2 3.5-15.7 3.5-26.3 0-11.7-3.9-19.6-5.1-46.5 16 0 0-164.8 131.6-164.8 131.6l116.7 92.9c-40.1-11-87.2-4-117.4 26.2l163.5 131.4c41.2 28.7 101 23.3 137.4-11l148.6-119.9-116.8-94.6c37.6 10.9 81.9 7.1 112-19.9z"/>
 <path xmlns="http://www.w3.org/2000/svg" fill="#ffffff" d="m197.9 68.2c23.1-18.1 27.7-16.6 35.3-14.1 11.8 3.9 22.1 3.9 33.9 0 7.7-2.6 12.4-4.2 35.7 14.1l153.4 122.8c-40.4 30.1-101.9 19.6-138.8-8.4-36.9-27.9-60.4-28.2-74.2-28.2-30.6 0-58.9 23.6-59.1 56.8-0.2 29.8 24.2 54.1 54 54.1 23 0 42.5-14.5 50-36 13.2 7.6 25.6 23.9 25.6 45.9 0 32.3-25.9 58.6-57.7 58.6-25.6 0-40.8-8.5-53-17.8l-158-125.7"/>
</svg>