<?xml version="1.0" encoding="UTF-8" standalone="no"?>
<!-- Created with Inkscape (http://www.inkscape.org/) -->

<svg
   xmlns:dc="http://purl.org/dc/elements/1.1/"
   xmlns:cc="http://creativecommons.org/ns#"
   xmlns:rdf="http://www.w3.org/1999/02/22-rdf-syntax-ns#"
   xmlns:svg="http://www.w3.org/2000/svg"
   xmlns="http://www.w3.org/2000/svg"
   version="1.1"
   width="206"
   height="205"
   id="svg4531">
  <defs
     id="defs4533" />
  <metadata
     id="metadata4536">
    <rdf:RDF>
      <cc:Work
         rdf:about="">
        <dc:format>image/svg+xml</dc:format>
        <dc:type
           rdf:resource="http://purl.org/dc/dcmitype/StillImage" />
        <dc:title></dc:title>
      </cc:Work>
    </rdf:RDF>
  </metadata>
  <g
     id="layer3">
    <g
       transform="matrix(0.52223647,0,0,0.52223647,-132.00641,-54.074654)"
       id="g3178">
      <path
         d="m 450,120.1 c -96.87927,0 -180,80.54 -180,179.9 0,6.80284 0.38885,13.51754 1.125,20.125 3.34957,-10.98048 9.31794,-22.98564 18,-34.5 C 305.08614,264.45696 330.93511,246 367.40625,246 c 47.30511,-1e-5 72.5655,24.90392 88.46875,50.6875 16.02082,25.97417 41.52941,43.03125 73.53125,43.03125 30.84247,0 56.21637,-15.84393 70.15625,-34.75 13.93988,-18.90607 17.01654,-41.88593 17.01654,-50.92555 0,-11.41017 -2.50234,-23.91805 -5.8828,-32.61627 C 582.07182,159.90273 516.9117,120.1 450,120.1 z"
         id="path3165"
         style="fill:#4ead69;fill-opacity:1;stroke:none" />
      <path
         d="m 367.6875,260 c -28.0246,0 -53.40911,15.50937 -67.375,34.03125 C 286.34661,312.55313 282.5,333.57884 282.5,342.875 c 0,9.84161 1.13888,21.49075 4.4375,30.1875 25.43555,61.5147 87.91001,103.53393 155.5,106.46875 l 0,-0.5 c 0,0 53.25367,1.2206 56.5625,-39.3125 0,0 -0.0423,-27.75 -31.0625,-34.78125 0,0 7.03125,5.87353 7.03125,15.40625 0,12.20304 -8.76455,19.65624 -18.90625,19.65625 -11.236,0 -18.65624,-11.7672 -18.65625,-20.0625 0,-15.44014 25.72196,-40.96875 62.5625,-40.96875 45.09934,0 66.99997,41.70809 67,56.03125 l 0,0.5625 C 605.16829,402.63638 630.00001,354.15568 630,300 c 0,-7.64417 -0.47985,-15.16813 -1.40625,-22.5625 -3.19298,11.38094 -8.55307,23.92133 -17.34375,35.84375 -15.99877,21.69848 -43.20657,40.875 -81.84375,40.875 -41.78688,0 -70.26501,-24.0084 -85.46875,-50.125 C 430.4275,280.82411 406.08037,260 367.6875,260 z"
         id="path2384"
         style="fill:#0060b4;fill-opacity:1;stroke:none" />
    </g>
  </g>
</svg>
