<?xml version="1.0" encoding="UTF-8" standalone="no"?>
<!-- Created with Inkscape (http://www.inkscape.org/) -->
<svg
   xmlns:svg="http://www.w3.org/2000/svg"
   xmlns="http://www.w3.org/2000/svg"
   version="1.0"
   width="420"
   height="380"
   id="svg2">
  <defs
     id="defs4" />
  <g
     id="layer1">
    <path
       d="M 12,9.99998 L 125,215.46873 C 128.41478,210.99863 131.83514,206.53252 135.25,202.06248 L 12,9.99998 z M 100,9.99998 L 116.8125,31.99998 L 149.8125,31.99998 L 270.1875,31.99998 L 210,110.78123 L 152.84375,35.96873 C 149.24437,35.96087 145.66113,35.93508 142.0625,35.93748 C 134.67749,35.9424 127.28583,35.97798 119.90625,36.06248 L 193.5,132.40623 L 12,370 L 45,370 L 210,153.99998 L 264.8125,225.74998 C 269.8373,217.9187 274.85006,210.08117 279.875,202.24998 L 226.5,132.40623 L 320,9.99998 L 296,9.99998 L 133,9.99998 L 100,9.99998 z M 408,9.99998 L 210,318.56248 L 154.90625,232.71873 C 150.95013,237.89751 146.98739,243.07122 143.03125,248.24998 L 194.71875,342.2188 L 188,341 L 188,341.1875 L 210,370 L 232,341.1875 L 232,341 L 225.28125,342.2188 L 408,9.99998 z M 295.5625,222.78123 C 290.95109,231.1575 286.33047,239.53008 281.71875,247.90623 L 375,370 L 408,370 L 295.5625,222.78123 z "
       style="opacity:1;fill:#000000;fill-opacity:1;fill-rule:nonzero;stroke:none;stroke-width:20;stroke-linecap:round;stroke-linejoin:round;stroke-miterlimit:4;stroke-dasharray:none;stroke-opacity:1"
       id="rect5115" />
  </g>
</svg>
