<?xml version="1.0" encoding="UTF-8" standalone="no"?>
<!-- Created with Inkscape (http://www.inkscape.org/) -->
<svg
   xmlns:svg="http://www.w3.org/2000/svg"
   xmlns="http://www.w3.org/2000/svg"
   version="1.0"
   width="640"
   height="640"
   id="svg2">
  <defs
     id="defs4" />
  <g
     transform="translate(20,-432.36218)"
     id="layer1">
    <path
       d="M 220,452.375 L 0,672.375 L 0,803.21875 C -0.46456298,805.97307 -0.46456299,808.77693 0,811.53125 L 0,832.375 L 220,1052.375 L 380,1052.375 L 600,832.375 L 600,711.53125 C 600.46456,708.77693 600.46456,705.97307 600,703.21875 L 600,672.375 L 380,452.375 L 220,452.375 z M 238.4375,497.375 C 279.47342,497.375 320.52657,497.375 361.5625,497.375 C 422.62894,559.04012 483.68439,620.70976 544.75,682.375 L 375,682.375 C 384.0159,682.50251 392.39234,677.75619 396.9375,669.96875 C 401.48265,662.18128 401.48266,652.56869 396.9375,644.78125 C 392.39233,636.99384 384.0159,632.24749 375,632.375 L 265,632.375 L 104.75,632.375 C 149.31112,587.37411 193.87383,542.37556 238.4375,497.375 z M 55.25,682.375 L 265,682.375 L 365,682.375 C 355.9841,682.24749 347.60766,686.99381 343.0625,694.78125 C 338.51735,702.56872 338.51734,712.18131 343.0625,719.96875 C 347.60767,727.75616 355.9841,732.50251 365,732.375 L 555,732.375 C 555,760.5936 555,788.812 555,817.03125 C 549.93618,822.14472 544.87622,827.26152 539.8125,832.375 L 435,832.375 L 325,832.375 L 235,832.375 C 244.0159,832.50251 252.39234,827.75619 256.9375,819.96875 C 261.48265,812.18128 261.48266,802.56869 256.9375,794.78125 C 252.39233,786.99384 244.0159,782.24749 235,782.375 L 45,782.375 C 45,752.48969 45,722.60469 45,692.71875 C 48.415609,689.26965 51.834437,685.8241 55.25,682.375 z M 95,707.375 C 85.984102,707.24749 77.607659,711.99381 73.0625,719.78125 C 68.517337,727.56872 68.517341,737.18131 73.0625,744.96875 C 77.607655,752.75616 85.984102,757.50251 95,757.375 L 295,757.375 C 285.9841,757.24749 277.60766,761.99381 273.0625,769.78125 C 268.51735,777.56872 268.51734,787.18131 273.0625,794.96875 C 277.60767,802.75616 285.9841,807.50251 295,807.375 L 505,807.375 C 514.0159,807.50251 522.39234,802.75619 526.9375,794.96875 C 531.48265,787.18128 531.48266,777.56869 526.9375,769.78125 C 522.39233,761.99384 514.0159,757.24749 505,757.375 L 305,757.375 C 314.0159,757.50251 322.39234,752.75619 326.9375,744.96875 C 331.48265,737.18128 331.48266,727.56869 326.9375,719.78125 C 322.39233,711.99384 314.0159,707.24749 305,707.375 L 95,707.375 z M 60.1875,832.375 L 225,832.375 C 215.9841,832.24749 207.60766,836.99381 203.0625,844.78125 C 198.51734,852.56872 198.51734,862.18131 203.0625,869.96875 C 207.60766,877.75616 215.9841,882.50251 225,882.375 L 325,882.375 L 435,882.375 L 490.28125,882.375 C 447.37351,925.70631 404.47279,969.04402 361.5625,1012.375 C 320.52658,1012.375 279.47342,1012.375 238.4375,1012.375 C 179.01927,952.37423 119.60457,892.3759 60.1875,832.375 z "
       style="opacity:1;fill:#000000;fill-opacity:1;fill-rule:nonzero;stroke:none;stroke-width:20;stroke-linecap:round;stroke-linejoin:round;stroke-miterlimit:4;stroke-dasharray:none;stroke-opacity:1"
       id="rect2170" />
  </g>
</svg>
