<?xml version="1.0" encoding="UTF-8" standalone="no"?>
<!-- Created with Inkscape (http://www.inkscape.org/) -->
<svg
   xmlns:svg="http://www.w3.org/2000/svg"
   xmlns="http://www.w3.org/2000/svg"
   version="1.0"
   width="620"
   height="640"
   id="svg2">
  <defs
     id="defs4" />
  <g
     transform="translate(10,-432.36218)"
     id="layer1">
    <path
       d="M 305,20.1875 C 271.45275,22.742701 245,50.80186 245,85 C 245,119.19813 271.45275,147.22605 305,149.78125 L 305,20.1875 z M 315,20.1875 L 315,149.78125 C 348.54725,147.22605 375,119.19812 375,85 C 375,50.801873 348.54725,22.74271 315,20.1875 z M 172.53125,64.90625 C 160.61463,64.775753 148.55333,67.911986 137.8125,74.53125 L 214,179.375 C 239.63839,157.58922 244.5699,119.35436 224.46875,91.6875 C 211.90552,74.395706 192.39229,65.123746 172.53125,64.90625 z M 447.46875,64.90625 C 427.60772,65.123753 408.09447,74.395706 395.53125,91.6875 C 375.43008,119.35438 380.36161,157.58925 406,179.375 L 482.1875,74.53125 C 471.44666,67.91202 459.38537,64.775748 447.46875,64.90625 z M 129.75,80.40625 C 104.11161,102.19203 99.180089,140.42688 119.28125,168.09375 C 139.38241,195.76061 177.26405,202.90138 205.90625,185.25 L 129.75,80.40625 z M 490.25,80.40625 L 414.09375,185.25 C 442.73596,202.90139 480.61761,195.76061 500.71875,168.09375 C 520.81993,140.42689 515.88835,102.19203 490.25,80.40625 z M 85.1875,182.375 C 59.891605,182.90169 36.403766,198.28459 26.40625,222.59375 L 149.65625,262.65625 C 157.59279,229.96132 139.11809,196.1303 106.59375,185.5625 C 99.479047,183.25079 92.270351,182.22753 85.1875,182.375 z M 534.8125,182.375 C 527.72965,182.22752 520.52095,183.25079 513.40625,185.5625 C 480.8819,196.13032 462.4072,229.96134 470.34375,262.65625 L 593.59375,222.59375 C 583.59618,198.28463 560.10838,182.9017 534.8125,182.375 z M 23.34375,232.125 C 15.407221,264.81993 33.913141,298.65095 66.4375,309.21875 C 98.961858,319.78654 133.79695,303.27198 146.59375,272.15625 L 23.34375,232.125 z M 596.65625,232.125 L 473.40625,272.15625 C 486.20305,303.27199 521.03816,319.78656 553.5625,309.21875 C 586.08684,298.65097 604.59275,264.81991 596.65625,232.125 z M 84.8125,327.625 C 78.712477,327.78551 72.535815,328.79979 66.4375,330.78125 C 33.91314,341.34905 15.407234,375.18007 23.34375,407.875 L 146.59375,367.84375 C 136.19635,342.56221 111.24593,326.92944 84.8125,327.625 z M 532.15625,327.625 C 506.86828,328.15428 483.40373,343.53459 473.40625,367.84375 L 596.65625,407.875 C 604.59267,375.18007 586.08685,341.34906 553.5625,330.78125 C 546.44779,328.46955 539.23688,327.4768 532.15625,327.625 z M 149.65625,377.34375 L 26.40625,417.40625 C 39.203059,448.52199 74.069394,465.00531 106.59375,454.4375 C 139.11811,443.8697 157.59279,410.03867 149.65625,377.34375 z M 470.34375,377.34375 C 462.40721,410.03869 480.8819,443.8697 513.40625,454.4375 C 545.93058,465.0053 580.79693,448.52194 593.59375,417.40625 L 470.34375,377.34375 z M 171.21875,445.125 C 151.36309,445.33509 131.84447,454.61446 119.28125,471.90625 C 99.180088,499.57312 104.11163,537.80797 129.75,559.59375 L 205.90625,454.75 C 195.16543,448.13073 183.13214,444.99895 171.21875,445.125 z M 448.78125,445.125 C 436.86786,444.99894 424.83457,448.13073 414.09375,454.75 L 490.25,559.59375 C 515.88832,537.80789 520.8199,499.57312 500.71875,471.90625 C 488.15553,454.61446 468.6369,445.33509 448.78125,445.125 z M 214,460.625 L 137.8125,565.46875 C 166.4547,583.12008 204.3676,575.97935 224.46875,548.3125 C 244.56991,520.64559 239.63839,482.41076 214,460.625 z M 406,460.625 C 380.36158,482.41078 375.4301,520.64564 395.53125,548.3125 C 415.63239,575.97938 453.54531,583.12009 482.1875,565.46875 L 406,460.625 z M 305,490.21875 C 271.45275,492.77395 245,520.80188 245,555 C 244.99998,589.19814 271.45276,617.2573 305,619.8125 L 305,490.21875 z M 315,490.21875 L 315,619.8125 C 348.54724,617.25718 374.99999,589.19813 375,555 C 374.99999,520.80187 348.54724,492.77393 315,490.21875 z "
       transform="translate(-10,432.36218)"
       style="opacity:1;fill:#000000;fill-opacity:1;fill-rule:nonzero;stroke:none;stroke-width:20;stroke-linecap:round;stroke-linejoin:round;stroke-miterlimit:4;stroke-dasharray:none;stroke-opacity:1"
       id="path3143" />
  </g>
</svg>
