<?xml version="1.0" encoding="UTF-8" standalone="no"?>
<!-- Created with Inkscape (http://www.inkscape.org/) -->
<svg
   xmlns:svg="http://www.w3.org/2000/svg"
   xmlns="http://www.w3.org/2000/svg"
   version="1.0"
   width="640"
   height="620"
   id="svg2">
  <defs
     id="defs4" />
  <g
     transform="translate(20,-432.36218)"
     id="layer1">
    <path
       d="M 300,452.375 C 291.07701,452.38856 284.79111,457.40107 279.90625,465 C 260.9985,456.85024 238.96538,456.79531 231.40625,462.28125 C 214.95264,474.22252 213.57584,531.04718 164.8125,566.28125 C 116.48255,601.20044 62.354215,585.46015 45.3125,597.46875 C 37.63114,602.88151 30.777966,623.776 32.875,644.40625 C 24.140498,646.71608 17.428357,651.17694 14.6875,659.65625 C 11.941571,668.15124 14.776339,675.69038 20.5,682.6875 C 6.9127925,698.15034 0.056648603,719.08646 2.9375,727.96875 C 9.2098776,747.30712 62.809108,766.1729 81.25,823.4375 C 99.525347,880.19264 67.84532,926.80026 74,946.71875 C 76.776381,955.70395 94.523714,968.69205 114.8125,973.0625 C 114.31276,982.07816 116.44213,989.83786 123.65625,995.0625 C 130.88853,1000.3003 138.9496,999.93958 147.375,996.65625 C 157.92559,1014.357 175.99303,1027.3701 185,1027.375 C 205.33015,1027.3857 239.83956,982.21759 300,982.375 C 359.62473,982.53241 394.15448,1027.0733 415,1027.375 C 424.40208,1027.5111 442.22952,1014.6288 452.65625,996.6875 C 461.07952,999.95205 469.14295,1000.3109 476.34375,995.0625 C 483.55029,989.8099 485.66734,982.04321 485.15625,973.03125 C 505.24436,968.51141 523.109,955.60052 526,946.71875 C 532.29235,927.38687 500.00968,880.60484 518.75,823.4375 C 537.32477,766.77965 590.33398,747.70076 597.0625,727.96875 C 600.09712,719.06946 593.40185,698.11657 579.5625,682.65625 C 585.26028,675.65915 588.07647,668.11917 585.3125,659.65625 C 582.54077,651.16964 575.80584,646.734 567.0625,644.4375 C 568.96184,623.94562 562.23744,602.96017 554.6875,597.46875 C 538.24623,585.51049 483.76579,601.77002 435.1875,566.28125 C 387.0426,531.10736 385.28079,474.77801 368.59375,462.28125 C 361.06713,456.64464 339.07507,456.58204 320.09375,464.96875 C 315.19846,457.37919 308.90871,452.36146 300,452.375 z M 300,480.375 C 314.77722,480.35505 300.14033,522.39539 342,522.375 C 337.90058,513.84008 334.80902,502.86204 331.4375,492.15625 C 343.79066,487.21323 344.76169,487.9775 352.0625,493.53125 C 364.31292,502.8578 368.50237,561.73978 414.625,594.59375 C 460.89208,627.55268 517.63852,613.81937 530.0625,622.84375 C 537.00278,627.88493 537.77188,628.54464 537.53125,642.09375 C 526.40418,642.19783 515.10489,642.62467 505.75,641.34375 C 518.70074,681.423 554.0745,654.17981 558.6875,668.3125 C 563.27288,682.36029 518.76403,681.41415 531.71875,721.21875 C 538.56938,714.68232 548.04728,708.35875 557.1875,701.84375 C 565.69752,712.05583 565.27488,713.24933 562.25,721.90625 C 557.16551,736.43916 502.46205,758.60737 485.46875,812.625 C 468.42026,866.81248 498.99346,916.55164 494.25,931.15625 C 491.60006,939.31516 491.21269,940.22883 478.25,944.1875 C 474.71244,933.63676 470.82891,923.04324 469.15625,913.75 C 435.04062,938.45206 471.89051,963.6518 459.875,972.40625 C 447.93171,981.10821 435.07196,938.50402 401.21875,963.125 C 409.55618,967.62261 418.50626,974.66131 427.53125,981.34375 C 420.43667,992.61476 419.17385,992.57684 410,992.375 C 394.60719,992.03028 356.62506,946.84422 300,947.375 C 243.19637,947.90578 205.35559,992.37323 190,992.375 C 181.42717,992.376 180.41277,992.27056 172.65625,981.1875 C 181.59727,974.56283 190.45989,967.58748 198.78125,963.125 C 164.74588,938.31246 152.16398,981.12839 140.125,972.40625 C 128.15826,963.73656 164.72092,938.33799 130.84375,913.75 C 129.14255,923.06994 125.19173,933.75715 121.625,944.40625 C 108.72048,941.14323 108.39241,939.94181 105.75,931.15625 C 101.32121,916.4103 132.53415,866.31458 114.53125,812.625 C 96.473166,758.76556 42.496808,736.50972 37.75,721.90625 C 35.098061,713.74766 34.870152,712.76052 43.03125,701.9375 C 52.094344,708.39357 61.465953,714.68385 68.28125,721.21875 C 81.361873,681.18169 36.737472,682.45754 41.3125,668.3125 C 45.859939,654.25237 81.334046,681.16099 94.25,641.34375 C 84.866596,642.60501 73.472995,642.1643 62.25,642.0625 C 61.365902,628.78368 62.398947,628.07138 69.9375,622.84375 C 82.593164,614.07497 139.87635,628.30652 185.375,594.59375 C 231.01812,560.77601 235.5156,502.55847 247.9375,493.53125 C 254.87621,488.48874 255.72174,487.9913 268.53125,492.40625 C 265.19277,503.01828 262.10799,513.87598 258,522.375 C 300.11964,522.44328 285.1335,480.39495 300,480.375 z M 300,567.375 C 287.25623,567.375 276.72422,576.9203 275.1875,589.25 C 195.86351,601.22772 135,669.7266 135,752.375 C 135,838.39937 200.94009,909.10194 285,916.6875 L 285,886.53125 C 217.53717,879.0559 165,821.82044 165,752.375 C 165,677.85504 225.48,617.375 300,617.375 C 374.51999,617.37499 435,677.85501 435,752.375 C 434.99999,821.82047 382.46283,879.05589 315,886.53125 L 315,916.6875 C 399.05991,909.10194 465,838.39937 465,752.375 C 465,669.72661 404.13649,601.22771 324.8125,589.25 C 323.27579,576.92029 312.74378,567.37501 300,567.375 z M 300,642.375 C 298.57319,642.375 297.16367,642.41483 295.75,642.46875 C 294.33633,642.52267 292.93079,642.58063 291.53125,642.6875 C 290.20514,642.78876 288.87507,642.91457 287.5625,643.0625 C 287.4369,643.07666 287.31297,643.11042 287.1875,643.125 C 284.94882,643.38512 282.72693,643.7011 280.53125,644.09375 C 280.27836,644.13896 280.03354,644.20306 279.78125,644.25 C 279.43826,644.31381 279.09187,644.37052 278.75,644.4375 C 277.54893,644.67283 276.34299,644.91338 275.15625,645.1875 C 275.13436,645.19256 275.11563,645.21368 275.09375,645.21875 C 272.45969,645.82889 269.87041,646.51673 267.3125,647.3125 C 267.28105,647.32228 267.25018,647.33394 267.21875,647.34375 C 266.38933,647.60272 265.53963,647.87828 264.71875,648.15625 C 264.26895,648.30865 263.82217,648.46696 263.375,648.625 C 262.208,649.03745 261.05483,649.45588 259.90625,649.90625 C 259.83232,649.93523 259.76135,649.97086 259.6875,650 C 259.55242,650.05331 259.41607,650.10243 259.28125,650.15625 C 258.13614,650.61343 257.0008,651.09955 255.875,651.59375 C 254.6817,652.11743 253.48324,652.65436 252.3125,653.21875 C 252.27919,653.23481 252.25204,653.26515 252.21875,653.28125 C 251.16077,653.79279 250.1013,654.33089 249.0625,654.875 C 248.70795,655.06071 248.35226,655.24805 248,655.4375 C 247.86429,655.51051 247.72911,655.58269 247.59375,655.65625 C 246.76594,656.10596 245.93982,656.56108 245.125,657.03125 C 242.86313,658.33641 240.65673,659.6984 238.5,661.15625 C 238.45691,661.18537 238.41804,661.22082 238.375,661.25 C 237.2762,661.995 236.19497,662.77928 235.125,663.5625 C 234.05503,664.34572 233.0089,665.14829 231.96875,665.96875 C 230.99242,666.73887 230.01173,667.51041 229.0625,668.3125 C 228.94417,668.41249 228.83665,668.52452 228.71875,668.625 C 227.82123,669.38991 226.93481,670.14462 226.0625,670.9375 C 226.00799,670.98704 225.96066,671.04411 225.90625,671.09375 C 225.31029,671.63761 224.70885,672.19333 224.125,672.75 C 223.75602,673.10188 223.39532,673.45557 223.03125,673.8125 C 221.14161,675.66507 219.31523,677.60989 217.5625,679.59375 C 216.74006,680.52464 215.91603,681.44772 215.125,682.40625 C 215.10122,682.43507 215.08626,682.47116 215.0625,682.5 C 214.91681,682.6769 214.7696,682.85343 214.625,683.03125 C 214.06318,683.72204 213.514,684.42048 212.96875,685.125 C 212.68225,685.49519 212.40686,685.87608 212.125,686.25 C 211.51377,687.06097 210.90159,687.85931 210.3125,688.6875 C 210.25569,688.76733 210.21285,688.85751 210.15625,688.9375 C 209.41999,689.97804 208.70061,691.02698 208,692.09375 C 207.91748,692.21939 207.83202,692.34275 207.75,692.46875 C 207.12433,693.42995 206.50238,694.39338 205.90625,695.375 C 205.72027,695.68124 205.55807,696.00431 205.375,696.3125 C 205.11425,696.75153 204.84854,697.18206 204.59375,697.625 C 204.3198,698.1011 204.04825,698.58196 203.78125,699.0625 C 203.13378,700.2278 202.51214,701.40299 201.90625,702.59375 C 201.30036,703.78451 200.71957,704.97226 200.15625,706.1875 C 199.63995,707.3013 199.13601,708.42893 198.65625,709.5625 C 198.61247,709.66595 198.57472,709.77139 198.53125,709.875 C 194.58265,719.28614 191.87794,729.35173 190.6875,739.875 L 285,739.875 L 285,764.875 L 190.71875,764.875 C 191.91224,775.39586 194.58079,785.46641 198.53125,794.875 C 198.57102,794.96972 198.61622,795.06167 198.65625,795.15625 C 198.66902,795.18645 198.6747,795.21981 198.6875,795.25 C 199.15516,796.35302 199.65398,797.44697 200.15625,798.53125 C 200.16613,798.55258 200.17761,798.57243 200.1875,798.59375 C 200.74538,799.79604 201.3067,800.97793 201.90625,802.15625 C 202.35531,803.03879 202.80928,803.91262 203.28125,804.78125 C 203.37262,804.94938 203.47028,805.11365 203.5625,805.28125 C 203.63667,805.41607 203.70653,805.55302 203.78125,805.6875 C 204.04425,806.16076 204.324,806.62481 204.59375,807.09375 C 205.03541,807.86154 205.47799,808.61901 205.9375,809.375 C 206.39701,810.13099 206.86667,810.88109 207.34375,811.625 C 207.67772,812.14601 208.00129,812.67253 208.34375,813.1875 C 208.88042,813.99406 209.4428,814.80234 210,815.59375 C 210.08156,815.70962 210.168,815.82196 210.25,815.9375 C 210.78218,816.68727 211.32468,817.42053 211.875,818.15625 C 212.40305,818.86219 212.92429,819.5573 213.46875,820.25 C 214.01321,820.9427 214.56442,821.63333 215.125,822.3125 C 215.44548,822.70102 215.76807,823.08473 216.09375,823.46875 C 216.5318,823.98508 216.99016,824.49191 217.4375,825 C 217.52039,825.09416 217.60429,825.18737 217.6875,825.28125 C 217.99182,825.62452 218.28523,825.97308 218.59375,826.3125 C 219.13744,826.91085 219.69343,827.50754 220.25,828.09375 C 221.00816,828.89181 221.78094,829.66243 222.5625,830.4375 C 222.72427,830.59807 222.86849,830.77794 223.03125,830.9375 C 223.38752,831.28649 223.76403,831.62459 224.125,831.96875 C 224.71867,832.53513 225.30006,833.10313 225.90625,833.65625 C 226.60533,834.29397 227.31586,834.91149 228.03125,835.53125 C 228.66814,836.083 229.28794,836.619 229.9375,837.15625 C 229.96653,837.18026 230.00219,837.19477 230.03125,837.21875 C 230.67015,837.74643 231.31786,838.26783 231.96875,838.78125 C 232.70427,839.36142 233.437,839.93838 234.1875,840.5 C 234.42443,840.67723 234.66785,840.85589 234.90625,841.03125 C 235.18281,841.23473 235.47147,841.42405 235.75,841.625 C 236.11336,841.88711 236.47709,842.14849 236.84375,842.40625 C 237.35577,842.76628 237.85662,843.14853 238.375,843.5 C 238.41348,843.52608 238.46148,843.53647 238.5,843.5625 C 238.84982,843.79904 239.20984,844.0174 239.5625,844.25 C 239.94924,844.50496 240.32863,844.78106 240.71875,845.03125 C 241.05023,845.24389 241.38485,845.44708 241.71875,845.65625 C 242.61889,846.22002 243.52015,846.77431 244.4375,847.3125 C 244.66775,847.44761 244.89368,847.58527 245.125,847.71875 C 245.1654,847.74206 245.20957,847.75799 245.25,847.78125 C 245.59335,847.97879 245.93558,848.18107 246.28125,848.375 C 246.79357,848.66244 247.32641,848.93931 247.84375,849.21875 C 248.54167,849.59572 249.23062,849.95028 249.9375,850.3125 C 250.69277,850.6996 251.45349,851.09874 252.21875,851.46875 C 253.0493,851.87006 253.90801,852.24412 254.75,852.625 C 255.43475,852.93475 256.12038,853.23521 256.8125,853.53125 C 257.12518,853.66499 257.43585,853.80658 257.75,853.9375 C 259.13243,854.51361 260.52725,855.07314 261.9375,855.59375 C 262.12323,855.66231 262.3138,855.71366 262.5,855.78125 C 262.9594,855.9481 263.41277,856.12038 263.875,856.28125 C 264.49538,856.49706 265.12463,856.7013 265.75,856.90625 C 266.93741,857.2954 268.13895,857.68184 269.34375,858.03125 C 269.69508,858.13314 270.05348,858.21403 270.40625,858.3125 C 270.80377,858.4234 271.19443,858.54972 271.59375,858.65625 C 272.4007,858.87153 273.21712,859.05274 274.03125,859.25 C 274.38791,859.33642 274.73575,859.44832 275.09375,859.53125 C 276.00033,859.74123 276.92876,859.93761 277.84375,860.125 C 278.58243,860.27628 279.31852,860.42612 280.0625,860.5625 C 280.87216,860.71092 281.68426,860.83818 282.5,860.96875 C 282.73996,861.00718 282.97827,861.05688 283.21875,861.09375 C 284.1389,861.23474 285.07251,861.35074 286,861.46875 C 286.91721,861.58545 287.8259,861.68731 288.75,861.78125 C 290.3624,861.94516 291.99285,862.0941 293.625,862.1875 C 294.05091,862.21187 294.47906,862.23049 294.90625,862.25 C 296.59914,862.32749 298.28804,862.375 300,862.375 C 300.95471,862.375 301.89486,862.33672 302.84375,862.3125 C 303.59803,862.29337 304.34331,862.28427 305.09375,862.25 C 305.52218,862.23039 305.94785,862.21201 306.375,862.1875 C 308.00715,862.0941 309.6376,861.94516 311.25,861.78125 C 312.1741,861.68731 313.08279,861.58545 314,861.46875 C 315.17046,861.31982 316.34128,861.15421 317.5,860.96875 C 318.31283,860.83858 319.13071,860.7104 319.9375,860.5625 C 320.68148,860.42612 321.41757,860.27628 322.15625,860.125 C 323.4356,859.86299 324.70596,859.55606 325.96875,859.25 C 326.78288,859.05274 327.5993,858.87153 328.40625,858.65625 C 328.80385,858.5501 329.19793,858.42299 329.59375,858.3125 C 329.94802,858.21367 330.30343,858.13354 330.65625,858.03125 C 331.86105,857.68184 333.06259,857.2954 334.25,856.90625 C 334.87744,856.70056 335.50258,856.49788 336.125,856.28125 C 336.58679,856.12061 337.04103,855.94785 337.5,855.78125 C 337.68627,855.7136 337.8767,855.66238 338.0625,855.59375 C 339.47275,855.07314 340.86757,854.51361 342.25,853.9375 C 342.56406,853.80653 342.87492,853.66504 343.1875,853.53125 C 343.87962,853.23521 344.56525,852.93475 345.25,852.625 C 346.87414,851.89031 348.48148,851.12266 350.0625,850.3125 C 350.76938,849.95028 351.45833,849.59572 352.15625,849.21875 C 352.67722,848.93745 353.20288,848.66442 353.71875,848.375 C 354.33495,848.02928 354.9537,847.66967 355.5625,847.3125 C 357.22337,846.33793 358.83372,845.30778 360.4375,844.25 C 361.35534,843.64491 362.25786,843.03781 363.15625,842.40625 C 363.52198,842.14909 363.88756,841.88649 364.25,841.625 C 364.52713,841.4251 364.81857,841.23366 365.09375,841.03125 C 365.33423,840.85432 365.57352,840.67884 365.8125,840.5 C 366.563,839.93838 367.29573,839.36142 368.03125,838.78125 C 368.71148,838.24469 369.39537,837.70839 370.0625,837.15625 C 370.71206,836.619 371.33186,836.083 371.96875,835.53125 C 373.67659,834.05171 375.35531,832.51797 376.96875,830.9375 C 377.24166,830.66994 377.51112,830.39537 377.78125,830.125 C 378.45063,829.45562 379.09796,828.78011 379.75,828.09375 C 380.30657,827.50754 380.86256,826.91085 381.40625,826.3125 C 381.75443,825.92944 382.09468,825.5442 382.4375,825.15625 C 382.6772,824.88494 382.91919,824.61743 383.15625,824.34375 C 383.73267,823.67839 384.31442,822.99167 384.875,822.3125 C 385.43558,821.63333 385.98679,820.9427 386.53125,820.25 C 387.07571,819.5573 387.59695,818.86219 388.125,818.15625 C 388.54542,817.5942 388.96515,817.03903 389.375,816.46875 C 389.47951,816.32331 389.58368,816.17722 389.6875,816.03125 C 389.73898,815.95888 389.79244,815.885 389.84375,815.8125 C 390.30627,815.15883 390.77023,814.50784 391.21875,813.84375 C 391.51369,813.4073 391.80494,812.97213 392.09375,812.53125 C 392.28836,812.23401 392.46445,811.92423 392.65625,811.625 C 393.13333,810.88109 393.60299,810.13099 394.0625,809.375 C 394.52201,808.61901 394.9646,807.86154 395.40625,807.09375 C 395.676,806.62481 395.95575,806.16076 396.21875,805.6875 C 396.38634,805.38587 396.55392,805.08461 396.71875,804.78125 C 397.19072,803.91262 397.64469,803.03879 398.09375,802.15625 C 398.6933,800.97793 399.25462,799.79604 399.8125,798.59375 C 399.81837,798.58112 399.83789,798.57514 399.84375,798.5625 C 399.84775,798.55388 399.83975,798.53988 399.84375,798.53125 C 400.34602,797.44697 400.84484,796.35302 401.3125,795.25 C 401.36539,795.12534 401.41631,794.99989 401.46875,794.875 C 405.41921,785.46641 408.08776,775.39586 409.28125,764.875 L 315,764.875 L 315,739.875 L 409.3125,739.875 C 408.12206,729.35173 405.41735,719.28613 401.46875,709.875 C 401.42528,709.77139 401.38753,709.66595 401.34375,709.5625 C 400.86399,708.42893 400.36005,707.3013 399.84375,706.1875 C 399.28043,704.97226 398.69964,703.78451 398.09375,702.59375 C 397.48786,701.40299 396.86622,700.2278 396.21875,699.0625 C 395.95175,698.58196 395.6802,698.1011 395.40625,697.625 C 395.01376,696.94268 394.62536,696.26677 394.21875,695.59375 C 394.16789,695.50957 394.11358,695.42779 394.0625,695.34375 C 393.42219,694.2903 392.76806,693.24863 392.09375,692.21875 C 392.0652,692.17514 392.02861,692.13732 392,692.09375 C 391.29939,691.02698 390.58001,689.97804 389.84375,688.9375 C 389.78715,688.85751 389.74431,688.76733 389.6875,688.6875 C 388.97212,687.68177 388.24795,686.69902 387.5,685.71875 C 387.18075,685.30037 386.85633,684.88239 386.53125,684.46875 C 386.03702,683.83995 385.53878,683.21141 385.03125,682.59375 C 384.97952,682.53078 384.92687,682.4691 384.875,682.40625 C 384.08397,681.44772 383.25994,680.52464 382.4375,679.59375 C 380.68477,677.60989 378.85839,675.66507 376.96875,673.8125 C 375.13169,672.01148 373.24039,670.29462 371.28125,668.625 C 371.16237,668.52369 371.05681,668.41332 370.9375,668.3125 C 369.98827,667.51041 369.00758,666.73887 368.03125,665.96875 C 366.9911,665.14829 365.94497,664.34572 364.875,663.5625 C 363.80503,662.77928 362.7238,661.995 361.625,661.25 C 361.58196,661.22082 361.54309,661.18537 361.5,661.15625 C 359.34327,659.6984 357.13687,658.33641 354.875,657.03125 C 354.06018,656.56108 353.23406,656.10596 352.40625,655.65625 C 352.27109,655.58283 352.1355,655.51037 352,655.4375 C 351.64641,655.24726 351.2934,655.06147 350.9375,654.875 C 349.8987,654.33089 348.83923,653.79279 347.78125,653.28125 C 346.57691,652.69894 345.35327,652.13293 344.125,651.59375 C 342.9992,651.09955 341.86386,650.61343 340.71875,650.15625 C 340.51074,650.07322 340.30238,649.98804 340.09375,649.90625 C 338.94517,649.45588 337.792,649.03745 336.625,648.625 C 335.32088,648.16409 334.01363,647.72506 332.6875,647.3125 C 330.12959,646.51673 327.54031,645.82889 324.90625,645.21875 C 324.88437,645.21368 324.86564,645.19256 324.84375,645.1875 C 323.65701,644.91338 322.45107,644.67283 321.25,644.4375 C 320.90589,644.37004 320.564,644.31424 320.21875,644.25 C 319.96904,644.20355 319.71905,644.13851 319.46875,644.09375 C 317.27307,643.7011 315.05118,643.38512 312.8125,643.125 C 312.68627,643.11033 312.56386,643.07674 312.4375,643.0625 C 311.12493,642.91457 309.79486,642.78876 308.46875,642.6875 C 307.06921,642.58063 305.66367,642.52267 304.25,642.46875 C 302.83633,642.41483 301.42681,642.375 300,642.375 z M 297.9375,672.375 C 298.62333,672.3576 299.31,672.375 300,672.375 C 328.54178,672.37499 353.58965,687.36182 367.75,709.875 L 232.25,709.875 C 246.06744,687.89329 270.25008,673.07725 297.9375,672.375 z M 232.25,794.875 L 367.75,794.875 C 353.58964,817.38818 328.54177,832.375 300,832.375 C 271.45824,832.37498 246.41036,817.38817 232.25,794.875 z "
       style="opacity:1;fill:#000000;fill-opacity:1;fill-rule:evenodd;stroke:none;stroke-width:1px;stroke-linecap:butt;stroke-linejoin:miter;stroke-opacity:1"
       id="path3147" />
  </g>
</svg>
