<?xml version="1.0" encoding="UTF-8" standalone="no"?>
<!-- Created with Inkscape (http://www.inkscape.org/) -->

<svg
   xmlns:dc="http://purl.org/dc/elements/1.1/"
   xmlns:cc="http://creativecommons.org/ns#"
   xmlns:rdf="http://www.w3.org/1999/02/22-rdf-syntax-ns#"
   xmlns:svg="http://www.w3.org/2000/svg"
   xmlns="http://www.w3.org/2000/svg"
   xmlns:sodipodi="http://sodipodi.sourceforge.net/DTD/sodipodi-0.dtd"
   xmlns:inkscape="http://www.inkscape.org/namespaces/inkscape"
   width="300"
   height="300"
   viewBox="0 0 79.375002 79.375002"
   version="1.1"
   id="svg8"
   inkscape:version="0.92.4 (5da689c313, 2019-01-14)"
   sodipodi:docname="Former_Emblem_of_Shimada,_Shizuoka.svg">
  <defs
     id="defs2" />
  <sodipodi:namedview
     id="base"
     pagecolor="#ffffff"
     bordercolor="#666666"
     borderopacity="1.0"
     inkscape:pageopacity="0.0"
     inkscape:pageshadow="2"
     inkscape:zoom="1.4"
     inkscape:cx="-10.898595"
     inkscape:cy="68.860815"
     inkscape:document-units="mm"
     inkscape:current-layer="layer1"
     showgrid="false"
     units="px"
     fit-margin-top="0"
     fit-margin-left="0"
     fit-margin-right="0"
     fit-margin-bottom="0"
     inkscape:window-width="1920"
     inkscape:window-height="996"
     inkscape:window-x="1912"
     inkscape:window-y="-8"
     inkscape:window-maximized="1" />
  <metadata
     id="metadata5">
    <rdf:RDF>
      <cc:Work
         rdf:about="">
        <dc:format>image/svg+xml</dc:format>
        <dc:type
           rdf:resource="http://purl.org/dc/dcmitype/StillImage" />
        <dc:title></dc:title>
      </cc:Work>
    </rdf:RDF>
  </metadata>
  <g
     inkscape:label="レイヤー 1"
     inkscape:groupmode="layer"
     id="layer1"
     transform="translate(-110.8909,-89.868927)">
    <rect
       style="opacity:1;fill:#006600;fill-opacity:1;fill-rule:nonzero;stroke:none;stroke-width:4.93830967;stroke-linecap:round;stroke-linejoin:miter;stroke-miterlimit:4;stroke-dasharray:none;stroke-dashoffset:0;stroke-opacity:1;paint-order:markers stroke fill"
       id="rect890"
       width="79.375"
       height="79.375"
       x="110.8909"
       y="89.868927" />
    <path
       style="color:#000000;font-style:normal;font-variant:normal;font-weight:normal;font-stretch:normal;font-size:medium;line-height:normal;font-family:sans-serif;font-variant-ligatures:normal;font-variant-position:normal;font-variant-caps:normal;font-variant-numeric:normal;font-variant-alternates:normal;font-feature-settings:normal;text-indent:0;text-align:start;text-decoration:none;text-decoration-line:none;text-decoration-style:solid;text-decoration-color:#000000;letter-spacing:normal;word-spacing:normal;text-transform:none;writing-mode:lr-tb;direction:ltr;text-orientation:mixed;dominant-baseline:auto;baseline-shift:baseline;text-anchor:start;white-space:normal;shape-padding:0;clip-rule:nonzero;display:inline;overflow:visible;visibility:visible;opacity:1;isolation:auto;mix-blend-mode:normal;color-interpolation:sRGB;color-interpolation-filters:linearRGB;solid-color:#000000;solid-opacity:1;vector-effect:none;fill:#ffffff;fill-opacity:1;fill-rule:nonzero;stroke:none;stroke-width:5;stroke-linecap:round;stroke-linejoin:round;stroke-miterlimit:4;stroke-dasharray:none;stroke-dashoffset:0;stroke-opacity:1;paint-order:markers stroke fill;color-rendering:auto;image-rendering:auto;shape-rendering:auto;text-rendering:auto;enable-background:accumulate"
       d="m 150.58466,94.360045 -3.42408,7.111715 c -0.41488,0.0546 -0.8301,0.11606 -1.24592,0.18552 a 2.50025,2.50025 0 0 0 -0.48266,0.0408 2.50025,2.50025 0 0 0 -0.01,0 2.50025,2.50025 0 0 0 -0.0155,0.004 2.50025,2.50025 0 0 0 -0.0134,0.002 c -0.004,6.4e-4 -0.006,0.003 -0.01,0.004 a 2.50025,2.50025 0 0 0 -0.48059,0.14056 c -12.18298,2.49792 -21.00989,12.53667 -22.44876,24.31479 l -7.07243,3.38636 7.07243,3.40496 c 0.0719,0.59232 0.16074,1.18606 0.27131,1.78077 2.31526,12.45324 12.50374,21.49998 24.46362,22.95105 l 3.38377,7.06624 3.40393,-7.06985 c 0.5901,-0.0716 1.18171,-0.15979 1.77405,-0.26976 12.45619,-2.31244 21.50636,-12.50327 22.95777,-24.4662 l 7.06727,-3.38377 -4.66018,-2.24379 -2.41071,-1.16066 c -0.0714,-0.58782 -0.15933,-1.17676 -0.26871,-1.76681 -2.30943,-12.45813 -12.50127,-21.5058 -24.46518,-22.95881 z m -0.11834,11.858195 c 0.0972,-6.8e-4 0.19393,0.001 0.29094,0.002 l 6.3531,13.26896 -4.0318,4.03179 v 3.5357 h 3.5357 l 4.06384,-4.06435 13.23743,6.3717 c 0.001,0.12393 6.9e-4,0.24744 0,0.37104 l -13.26896,6.3531 -4.03127,-4.03127 h -3.53674 v 3.53466 l 4.06487,4.06487 -6.37429,13.23743 c -0.12288,0.001 -0.24536,6.7e-4 -0.36793,0 l -6.35414,-13.26998 4.03128,-4.03128 v -3.5357 h -3.53622 l -4.06435,4.06383 -13.2364,-6.37171 c -0.001,-0.12357 -1.6e-4,-0.24674 5.2e-4,-0.37 l 13.26999,-6.35362 4.03127,4.03128 h 3.53519 v -3.53673 l -4.06383,-4.06332 6.37273,-13.2364 c 0.0263,-2.8e-4 0.0528,-0.001 0.0791,-0.002 z m 6.17688,0.79685 c 3.1494,0.84549 6.06849,2.34091 8.57881,4.36252 l -4.38888,4.38888 z m -12.15998,0.0171 -4.18992,8.70283 -4.36149,-4.36149 c 2.45463,-1.97644 5.34282,-3.4786 8.55141,-4.34134 z m -12.08608,7.87756 4.39094,4.39094 -8.75553,4.192 c 0.84541,-3.15057 2.34218,-6.07162 4.36459,-8.58294 z m 36.36005,0.003 c 1.97576,2.45396 3.47856,5.33965 4.34134,8.54676 l -8.69973,-4.18837 z m 4.36666,20.70778 c -0.84547,3.14958 -2.3413,6.07029 -4.36304,8.58087 l -4.39043,-4.38991 z m -45.06857,0.031 8.7018,4.18993 -4.36149,4.36097 c -1.97595,-2.45452 -3.47769,-5.3428 -4.34031,-8.5509 z m 12.26747,7.69618 4.19251,8.75502 c -3.15054,-0.84541 -6.07176,-2.34213 -8.58294,-4.3646 z m 20.5419,0.0294 4.35994,4.36046 c -2.45443,1.97619 -5.34202,3.47851 -8.54986,4.34134 z"
       id="path826"
       inkscape:connector-curvature="0" />
  </g>
</svg>
