<svg xmlns="http://www.w3.org/2000/svg" viewBox="-5 -5.5 10 10.5" width="400" height="420" fill="#059945">
<circle r="5"/>
<path d="M-1.203938-4.852889h2.407875L1-5.5h-2z"/>
<path d="M-1.527759-3.57586L-0.811892-4.12078h1.623783L1.527759-3.57586 .945-5.425H-.945zM-1.496579-3.924316A4.2 4.2 0 0 0-3.476187 2.357143zM1.496579-3.924316A4.2 4.2 0 0 1 3.476187 2.357143zM-4.030942 2.8296875a5.8 5.8 0 0 1 8.061884 0A4.925 4.925 0 0 1 3.830732 3.0953375a5.47 5.47 0 0 0-7.661465 0A4.925 4.925 0 0 1-4.030942 2.8296875zM-3.447101 3.517545a4.9 4.9 0 0 1 6.894202 0A4.925 4.925 0 0 1 3.203482 3.740766a4.57 4.57 0 0 0-6.406963 0A4.925 4.925 0 0 1-3.447101 3.517545zM-2.744099 4.0896875a4 4 0 0 1 5.488199 0A4.925 4.925 0 0 1 2.453288 4.27048a3.67 3.67 0 0 0-4.906576 0A4.925 4.925 0 0 1-2.744099 4.0896875z" fill="#fff"/>
</svg>
