<?xml version="1.0" encoding="UTF-8" standalone="no"?>
<!-- Created with Inkscape (http://www.inkscape.org/) -->

<svg
   xmlns:dc="http://purl.org/dc/elements/1.1/"
   xmlns:cc="http://creativecommons.org/ns#"
   xmlns:rdf="http://www.w3.org/1999/02/22-rdf-syntax-ns#"
   xmlns:svg="http://www.w3.org/2000/svg"
   xmlns="http://www.w3.org/2000/svg"
   xmlns:sodipodi="http://sodipodi.sourceforge.net/DTD/sodipodi-0.dtd"
   xmlns:inkscape="http://www.inkscape.org/namespaces/inkscape"
   width="249.99998"
   height="247.19167"
   id="svg2"
   version="1.1"
   inkscape:version="0.48.4 r"
   sodipodi:docname="Symbol of Iwata Shizuoka.svg">
  <defs
     id="defs4" />
  <sodipodi:namedview
     id="base"
     pagecolor="#ffffff"
     bordercolor="#666666"
     borderopacity="1.0"
     inkscape:pageopacity="0.0"
     inkscape:pageshadow="2"
     inkscape:zoom="2.9936284"
     inkscape:cx="125"
     inkscape:cy="123.59584"
     inkscape:document-units="px"
     inkscape:current-layer="layer1"
     showgrid="false"
     inkscape:window-width="1280"
     inkscape:window-height="961"
     inkscape:window-x="-8"
     inkscape:window-y="-8"
     inkscape:window-maximized="1"
     fit-margin-top="0"
     fit-margin-left="0"
     fit-margin-right="0"
     fit-margin-bottom="0" />
  <metadata
     id="metadata7">
    <rdf:RDF>
      <cc:Work
         rdf:about="">
        <dc:format>image/svg+xml</dc:format>
        <dc:type
           rdf:resource="http://purl.org/dc/dcmitype/StillImage" />
        <dc:title />
      </cc:Work>
    </rdf:RDF>
  </metadata>
  <g
     inkscape:label="レイヤー 1"
     inkscape:groupmode="layer"
     id="layer1"
     transform="translate(-139.34355,-599.04063)">
    <g
       id="g3806"
       transform="matrix(1.2393215,0,0,1.2393215,-33.347916,-202.52163)">
      <path
         transform="matrix(1.3675676,0,0,1.3958622,2.601228,-16.78032)"
         d="m 193.48711,513.82758 c 0,10.86584 -8.99075,19.67435 -20.08141,19.67435 -11.09066,0 -20.08141,-8.80851 -20.08141,-19.67435 0,-10.86585 8.99075,-19.67436 20.08141,-19.67436 11.09066,0 20.08141,8.80851 20.08141,19.67436 z"
         sodipodi:ry="19.674355"
         sodipodi:rx="20.081411"
         sodipodi:cy="513.82758"
         sodipodi:cx="173.4057"
         id="path3792"
         style="fill:#f60d00;fill-opacity:1;stroke:none"
         sodipodi:type="arc" />
      <path
         sodipodi:nodetypes="csccsc"
         inkscape:connector-curvature="0"
         id="path3794"
         d="m 216.62447,646.77508 c -51.80137,13.37481 -72.99143,55.75544 -76.49147,84.84488 -5.13802,42.703 15.61372,84.77133 38.742,114.61238 l 70.31392,-33.64994 c -47.65061,-25.70182 -64.89323,-67.58625 -67.02946,-94.97956 -3.18354,-40.82316 13.79905,-58.08495 34.46501,-70.82776 z"
         style="fill:#1c71b1;fill-opacity:1;stroke:none" />
      <path
         sodipodi:nodetypes="cscsc"
         inkscape:connector-curvature="0"
         id="path3796"
         d="m 262.086,647.09111 c 36.54857,17.22218 42.65434,59.09832 22.92382,87.33661 -17.48188,25.02005 -56.99218,29.59328 -80.52582,11.26913 20.25618,44.84816 86.70598,71.88615 121.23138,35.67795 38.8173,-40.70929 -0.9635,-126.3824 -63.62938,-134.28369 z"
         style="fill:#3fa633;fill-opacity:1;stroke:none" />
    </g>
  </g>
</svg>
