<?xml version="1.0" encoding="UTF-8" standalone="no"?>
<!-- Created with Inkscape (http://www.inkscape.org/) -->
<svg
   xmlns:svg="http://www.w3.org/2000/svg"
   xmlns="http://www.w3.org/2000/svg"
   version="1.0"
   width="600"
   height="640"
   id="svg2">
  <defs
     id="defs4" />
  <g
     transform="translate(0,-432.36218)"
     id="layer1">
    <path
       d="M 273.28125,454.75 C 251.45216,454.57835 229.66611,465.46031 221.96875,487.6875 C 161.13103,485.49884 138.14465,556.70705 190.15625,594.75 C 207.76356,607.62856 221.31754,617.96571 230.5,625.09375 C 219.78478,630.96125 209.88824,638.15952 201.03125,646.4375 C 165.85554,628.87786 140.2807,599.04526 147,547.09375 C 111.95023,531.78474 70.950349,554.41602 68.6875,598.40625 C 51.914645,600.74981 37.510954,612.05071 28.90625,626.6875 C 17.843051,645.50623 16.380618,669.81404 31.78125,687.59375 C -0.53304575,739.18644 49.64179,794.70939 108.59375,768.6875 C 128.58061,759.86515 144.2976,753.29423 155.0625,748.90625 C 155.03551,750.05665 155,751.21815 155,752.375 C 155,763.64118 156.28381,774.59547 158.71875,785.125 C 125.93357,806.78483 87.331153,813.99887 45.71875,782.21875 C 14.935866,804.91821 14.034768,851.7327 51,875.6875 C 44.643172,891.38501 47.25152,909.54222 55.625,924.3125 C 66.390891,943.3029 86.714499,956.72874 109.8125,952.28125 C 138.33592,1006.0626 211.49713,990.34609 218.4375,926.28125 C 220.78631,904.59998 222.94952,887.70368 224.53125,876.1875 C 234.82995,882.48279 245.97198,887.50695 257.75,891.09375 C 260.11626,930.31763 247.04866,967.35211 198.71875,987.5 C 202.98563,1025.5085 243.08441,1049.6917 282.3125,1029.6563 C 292.72852,1043.0102 309.74057,1049.8352 326.71875,1049.9688 C 348.54783,1050.1405 370.33389,1039.2585 378.03125,1017.0313 C 438.86895,1019.2199 461.85535,948.01171 409.84375,909.96875 C 392.24883,897.09925 378.68241,886.78398 369.5,879.65625 C 380.21522,873.78875 390.11176,866.59048 398.96875,858.3125 C 434.14447,875.87214 459.71929,905.70473 453,957.65625 C 488.04981,972.96527 529.04962,950.33397 531.3125,906.34375 C 548.08534,904.00017 562.48905,892.66804 571.09375,878.03125 C 582.15702,859.21254 583.61939,834.90471 568.21875,817.125 C 600.53305,765.53233 550.35822,710.00936 491.40625,736.03125 C 471.4194,744.85362 455.70241,751.42452 444.9375,755.8125 C 444.96401,754.6724 445,753.52144 445,752.375 C 445,741.09572 443.69044,730.1345 441.25,719.59375 C 474.03984,697.92281 512.65967,690.71288 554.28125,722.5 C 585.06418,699.8005 585.9652,652.98607 549,629.03125 C 555.35683,613.33375 552.74848,595.17654 544.375,580.40625 C 533.6092,561.41588 513.2855,547.99001 490.1875,552.4375 C 461.6641,498.65616 388.50286,514.37265 381.5625,578.4375 C 379.21103,600.14327 377.05087,617.046 375.46875,628.5625 C 365.17005,622.26721 354.02801,617.24305 342.25,613.65625 C 339.87495,574.42084 352.93856,537.37197 401.28125,517.21875 C 397.01437,479.21025 356.91558,455.02707 317.6875,475.0625 C 307.27147,461.70857 290.25943,454.8835 273.28125,454.75 z M 276.65625,531.71875 C 289.55112,531.68057 303.47044,537.36325 313.15625,549.5625 C 306.53134,569.39101 305.04728,588.42295 309.75,607.71875 C 306.52893,607.50466 303.27498,607.375 300,607.375 C 288.43108,607.375 277.19446,608.74889 266.40625,611.3125 C 223.37178,561.45187 247.35959,531.8055 276.65625,531.71875 z M 450,603.78125 C 462.03414,603.27928 472.93108,610.67346 479.40625,621.8125 C 485.88676,632.96069 487.94071,647.85596 482.21875,662.34375 C 461.74316,666.51886 444.51181,674.75888 430.15625,688.46875 C 423.6898,675.33209 415.29992,663.30905 405.34375,652.78125 C 417.48085,617.89946 434.66324,604.42097 450,603.78125 z M 130.9375,639.5625 C 144.79061,655.20685 160.54367,666.01625 179.59375,671.59375 C 171.55212,683.55307 165.24362,696.7847 161.03125,710.90625 C 96.336175,723.24308 82.677034,687.6646 97.25,662.25 C 103.66437,651.06365 115.52973,641.85103 130.9375,639.5625 z M 300,647.375 C 357.95999,647.37499 405,694.41501 405,752.375 C 404.99999,810.33497 357.96,857.375 300,857.375 C 242.03999,857.37497 195,810.33499 195,752.375 C 195.00001,694.41499 242.04,647.375 300,647.375 z M 462.6875,791.28125 C 506.86049,791.00555 515.33083,820.52836 502.75,842.46875 C 496.33563,853.65516 484.47027,862.86772 469.0625,865.15625 C 455.20937,849.51195 439.45632,838.70251 420.40625,833.125 C 428.44645,821.16322 434.75888,807.9364 438.96875,793.8125 C 447.81267,792.12603 455.69279,791.32491 462.6875,791.28125 z M 169.84375,816.28125 C 176.30365,829.40461 184.68205,841.41734 194.625,851.9375 C 172.96389,914.17964 135.32038,908.24 120.59375,882.90625 C 114.11324,871.75803 112.05929,856.86279 117.78125,842.375 C 138.2556,838.20012 155.4887,829.98963 169.84375,816.28125 z M 333.59375,893.4375 C 376.60695,943.28725 352.63689,972.91327 323.34375,973 C 310.44887,973.03816 296.52956,967.35551 286.84375,955.15625 C 293.46444,935.34032 294.97309,916.31444 290.28125,897.03125 C 293.49213,897.24398 296.73557,897.375 300,897.375 C 311.56892,897.375 322.80554,896.00111 333.59375,893.4375 z "
       style="opacity:1;fill:#000000;fill-opacity:1;fill-rule:evenodd;stroke:none;stroke-width:1px;stroke-linecap:butt;stroke-linejoin:miter;stroke-opacity:1"
       id="path3143" />
  </g>
</svg>
