<svg xmlns="http://www.w3.org/2000/svg" width="388" height="385" viewBox="-97 -100 194 192.5" fill="#a82954">
<path d="M13.0526-99.1445a100 100 0 0 1 21.1494 5.1752l-6.2241 35.2987a65 65 0 0 1 35.846 70.9793l32.7687 13.5732a100 100 0 0 1-7.8915 20.293L40.4556 19.7065A45 45 0 0 0 5.8737-44.615zM6.0498-92.302A92.5 92.5 0 0 1 91.3153 14.7568L72.0838 7.7571A72.5 72.5 0 0 0 4.7417-72.3448zM84.3391 53.723 70.7107 70.7107l-6.0057-4.6084A92.5 92.5 0 0 1-58.4374 71.703l15.6776-13.1551a72.5 72.5 0 0 0 91.3921-4.7785l-6.0607-4.6506a65 65 0 0 1-85.1432 0l-28.1391 21.5919-13.6284-16.9877 47.045-28.5407a45 45 0 0 0 74.5882 0zm-173.0402-7.5481-7.8915-20.293 32.7687-13.5732a65 65 0 0 1 46.0255-74.8244l-3.8456-35.1139A100 100 0 0 1 0-100v55a45 45 0 0 0-40.4556 64.7065zm-2.6142-31.4181a92.5 92.5 0 0 1 10.2181-59.2483l17.5345 9.6198a72.5 72.5 0 0 0-8.5211 42.6288zm12.236-62.7433a92.5 92.5 0 0 1 54.1855-41.1008l2.6443 20.0858a72.5 72.5 0 0 0-39.7316 31.3904z"/>
</svg>