<?xml version="1.0" encoding="UTF-8"?><svg width="460" height="452" viewBox="20 23 460 452" xmlns="http://www.w3.org/2000/svg" xmlns:xlink="http://www.w3.org/1999/xlink" version="1.1">
 <defs xmlns="http://www.w3.org/2000/svg">
  <path id="a" d="m43.1 314.6a214.7 123.1 0 0 1 207-90.3 148.9 80.2 0 0 0 111.1-26.8c42.5-24.5 64.3-69.6 38.7-97.2a48.7 63 45 0 0-85.3 17.3 65.8 88.7 0 0 0-64.4-70.8 65.8 88.7 0 0 0-65.5 78.8 74.4 51.5 41 0 0-79.8 60 68.7 45.8 8 0 0-44.5 64.4" fill="none" stroke-width="40.1"/>
 </defs>
 <use xmlns="http://www.w3.org/2000/svg" xmlns:xlink="http://www.w3.org/1999/xlink" xlink:href="#a" stroke="#85961c"/>
 <use xmlns="http://www.w3.org/2000/svg" xmlns:xlink="http://www.w3.org/1999/xlink" xlink:href="#a" stroke="#0e6d46" transform="rotate(180,250,250)"/>
</svg>