<?xml version="1.0" encoding="UTF-8" standalone="no"?>
<!-- Created with Inkscape (http://www.inkscape.org/) -->

<svg
   version="1.0"
   width="799.99988"
   height="764.56354"
   id="svg2"
   sodipodi:docname="静岡県裾野市市章.svg"
   inkscape:version="1.2.1 (9c6d41e410, 2022-07-14)"
   xmlns:inkscape="http://www.inkscape.org/namespaces/inkscape"
   xmlns:sodipodi="http://sodipodi.sourceforge.net/DTD/sodipodi-0.dtd"
   xmlns="http://www.w3.org/2000/svg"
   xmlns:svg="http://www.w3.org/2000/svg">
  <sodipodi:namedview
     id="namedview6"
     pagecolor="#ffffff"
     bordercolor="#666666"
     borderopacity="1.0"
     inkscape:showpageshadow="2"
     inkscape:pageopacity="0.0"
     inkscape:pagecheckerboard="0"
     inkscape:deskcolor="#d1d1d1"
     showgrid="false"
     inkscape:zoom="0.41297"
     inkscape:cx="355.95806"
     inkscape:cy="209.45831"
     inkscape:window-width="1920"
     inkscape:window-height="996"
     inkscape:window-x="1912"
     inkscape:window-y="-8"
     inkscape:window-maximized="1"
     inkscape:current-layer="svg2" />
  <defs
     id="defs4" />
  <g
     transform="matrix(1.1378385,0,0,1.1378385,58.648214,-446.45938)"
     id="layer1">
    <path
       d="m 300,392.375 c -7.42079,0 -13.89196,7.08132 -17.34375,17.59375 C 279.06897,400.56975 272.93887,394.375 266,394.375 c -10.35,0 -18.88145,13.76441 -19.90625,31.40625 -0.003,0.0515 0.003,0.10466 0,0.15625 -1.57084,14.70898 -4.79101,29.34304 -9.6875,43.59375 -0.32662,0.94916 -0.65842,1.89802 -1,2.84375 -0.38843,1.07665 -0.77961,2.14673 -1.1875,3.21875 -0.0283,0.0744 -0.0653,0.14435 -0.0937,0.21875 -0.35734,0.93581 -0.72154,1.88041 -1.09375,2.8125 -0.0834,0.20855 -0.16587,0.41664 -0.25,0.625 -0.32093,0.7958 -0.63694,1.58206 -0.96875,2.375 -0.1475,0.35218 -0.28785,0.7109 -0.4375,1.0625 -0.27531,0.6474 -0.56115,1.29211 -0.84375,1.9375 -0.21457,0.48968 -0.43748,0.98026 -0.65625,1.46875 -0.22711,0.5075 -0.45585,1.02505 -0.6875,1.53125 -0.79964,1.74584 -1.615,3.45792 -2.46875,5.1875 -0.11798,0.23926 -0.22473,0.47981 -0.34375,0.71875 -0.43781,0.8781 -0.89191,1.75136 -1.34375,2.625 -0.55764,1.07921 -1.13965,2.1466 -1.71875,3.21875 -0.0178,0.0329 -0.0447,0.0609 -0.0625,0.0937 -0.50648,0.93643 -1.00836,1.88166 -1.53125,2.8125 -0.0936,0.16644 -0.18717,0.33374 -0.28125,0.5 -0.45016,0.79602 -0.91279,1.58324 -1.375,2.375 -1.44453,2.4729 -2.93751,4.91448 -4.5,7.34375 -0.25372,0.39469 -0.49316,0.79403 -0.75,1.1875 -0.44157,0.67621 -0.89294,1.35866 -1.34375,2.03125 -0.17459,0.26058 -0.35527,0.52123 -0.53125,0.78125 -1.25659,1.85607 -2.54755,3.70417 -3.875,5.53125 -0.76045,1.04667 -1.53555,2.06609 -2.3125,3.09375 -2.33581,3.08972 -4.73904,6.0838 -7.21875,9 -1.64904,1.94054 -3.32202,3.82412 -5.03125,5.6875 -1.71492,1.86854 -3.44583,3.70964 -5.21875,5.5 -1.76684,1.78572 -3.55315,3.5112 -5.375,5.21875 -0.91126,0.85341 -1.8255,1.69744 -2.75,2.53125 -1.84839,1.66828 -3.72548,3.3169 -5.625,4.90625 -2.84994,2.38332 -5.76171,4.66999 -8.71875,6.875 -1.06648,0.79526 -2.1389,1.57179 -3.21875,2.34375 -0.3768,0.26934 -0.7466,0.546 -1.125,0.8125 -0.70547,0.49689 -1.41407,0.98176 -2.125,1.46875 -0.76623,0.52486 -1.54004,1.04915 -2.3125,1.5625 -0.3305,0.21966 -0.66838,0.4387 -1,0.65625 -0.33324,0.21858 -0.66564,0.43981 -1,0.65625 -1.20828,0.78228 -2.43366,1.52687 -3.65625,2.28125 -2.64792,1.63366 -5.31984,3.21655 -8.03125,4.71875 -0.28219,0.15634 -0.5609,0.31384 -0.84375,0.46875 -1.27269,0.69705 -2.55808,1.36317 -3.84375,2.03125 -1.05172,0.54675 -2.09618,1.0977 -3.15625,1.625 -0.52225,0.25965 -1.03827,0.52633 -1.5625,0.78125 -0.65356,0.31799 -1.31218,0.62687 -1.96875,0.9375 -0.94144,0.44518 -1.89628,0.88247 -2.84375,1.3125 -1.42835,0.6485 -2.87104,1.29228 -4.3125,1.90625 -1.79804,0.76544 -3.62022,1.5072 -5.4375,2.21875 -0.60075,0.23524 -1.20975,0.45817 -1.8125,0.6875 -7.61889,2.89828 -15.3935,5.33439 -23.28125,7.28125 -0.196285,0.0485 -0.397328,0.0771 -0.59375,0.125 -1.507495,0.36726 -3.016119,0.73028 -4.53125,1.0625 -0.498524,0.10931 -1.000697,0.20699 -1.5,0.3125 -1.213167,0.2563 -2.407478,0.51618 -3.625,0.75 -1.337074,0.25693 -2.689346,0.489 -4.03125,0.71875 -0.384267,0.0657 -0.771612,0.12399 -1.15625,0.1875 -0.895472,0.14796 -1.790105,0.30166 -2.6875,0.4375 -0.834362,0.12619 -1.664093,0.2593 -2.5,0.375 -0.11408,0.0158 -0.229642,0.0156 -0.34375,0.0312 -3.359372,0.4591 -6.745282,0.83596 -10.125,1.125 -0.06212,0.005 -0.125371,-0.005 -0.1875,0 -1.685276,0.14255 -3.373499,0.27494 -5.0625,0.375 -0.383864,0.0228 -0.77222,0.0419 -1.15625,0.0625 -17.133861,0.91605 -34.436863,-0.34168 -51.4375,-3.875 -17.210461,-4.60099 -33.095494,-0.77593 -36.3125,9.125 -2.14423,6.59924 1.85705,14.34009 9.6875,20.65625 -11.064576,0.0344 -19.8006,4.00491 -22.09375,11.0625 -2.29315,7.05756 2.443747,15.40613 11.375,21.9375 -10.047511,0.50724 -17.824521,4.40074 -19.96875,11 -3.198326,9.84345 7.257044,22.22998 23.71875,28.65625 0.04808,0.0188 0.108069,0.0126 0.15625,0.0312 13.503653,6.03929 26.39736965,13.62695 38.4375,22.6875 0.80658,0.60745 1.607648,1.22297 2.40625,1.84375 0.904255,0.70237 1.824916,1.40554 2.71875,2.125 0.703337,0.56655 1.397025,1.14166 2.09375,1.71875 0.136905,0.11331 0.269602,0.23003 0.40625,0.34375 0.176724,0.14718 0.354959,0.28964 0.53125,0.4375 0.653737,0.54792 1.28977,1.09898 1.9375,1.65625 0.291219,0.25069 0.585012,0.49742 0.875,0.75 0.53116,0.46234 1.066758,0.93758 1.59375,1.40625 0.395923,0.35234 0.793961,0.70659 1.1875,1.0625 0.414806,0.37488 0.837867,0.74616 1.25,1.125 2.322046,2.13623 4.578305,4.33228 6.8125,6.59375 0.08293,0.0839 0.167199,0.16596 0.25,0.25 0.618857,0.62863 1.23191,1.26802 1.84375,1.90625 0.152453,0.15889 0.316737,0.30926 0.46875,0.46875 0.02033,0.0213 0.04218,0.0411 0.0625,0.0625 0.739526,0.77659 1.458521,1.55308 2.1875,2.34375 0.125259,0.13596 0.250055,0.26988 0.375,0.40625 0.622748,0.6792 1.228894,1.37299 1.84375,2.0625 0.225525,0.25307 0.463045,0.49554 0.6875,0.75 0.510771,0.57865 1.026085,1.16419 1.53125,1.75 0.321736,0.37332 0.649305,0.74877 0.96875,1.125 0.08673,0.1021 0.163443,0.21019 0.25,0.3125 1.550163,1.8331 3.067832,3.69217 4.5625,5.59375 0.196201,0.2495 0.398529,0.49932 0.59375,0.75 1.37529,1.76669 2.705318,3.58126 4.03125,5.40625 3.041786,4.18667 5.921794,8.44526 8.59375,12.78125 0.667629,1.08417 1.324188,2.1573 1.96875,3.25 2.579897,4.37004 4.974247,8.81932 7.1875,13.3125 3.869888,7.86462 7.176426,15.91054 9.9375,24.0625 0.426777,1.26004 0.849514,2.5157 1.25,3.78125 0.138635,0.43823 0.270763,0.87363 0.40625,1.3125 0.06705,0.21709 0.12122,0.43901 0.1875,0.65625 1.229412,4.03148 2.315961,8.11042 3.28125,12.1875 0.298932,1.26205 0.601244,2.51563 0.875,3.78125 0.296839,1.37286 0.576467,2.74838 0.84375,4.125 0.313149,1.61207 0.602262,3.22726 0.875,4.84375 0.0211,0.12519 0.04164,0.24979 0.0625,0.375 0.0175,0.10494 0.04517,0.20754 0.0625,0.3125 0.27085,1.64204 0.520679,3.29179 0.75,4.9375 0.09906,0.71055 0.189911,1.41388 0.28125,2.125 0.133813,1.04224 0.257752,2.08169 0.375,3.125 0.02922,0.25978 0.06555,0.52141 0.09375,0.78125 0.119202,1.09961 0.211645,2.21199 0.3125,3.3125 0.01815,0.19781 0.04494,0.39592 0.0625,0.59375 0.01751,0.1975 0.04558,0.39623 0.0625,0.59375 0.09451,1.10247 0.173839,2.20946 0.25,3.3125 0.04464,0.64811 0.08668,1.28926 0.125,1.9375 0.0012,0.0207 -0.0012,0.0418 0,0.0625 0.308757,5.25142 0.416494,10.50437 0.3125,15.75 -0.0014,0.0734 0.0015,0.14538 0,0.21875 -0.03519,1.68272 -0.07887,3.38216 -0.15625,5.0625 -0.06544,1.42297 -0.154386,2.86055 -0.25,4.28125 -0.02179,0.32302 -0.03915,0.64586 -0.0625,0.96875 -0.07014,0.97206 -0.165759,1.93551 -0.25,2.90625 -0.219503,2.52715 -0.466559,5.04634 -0.78125,7.5625 -0.32977,2.63898 -0.722265,5.25137 -1.15625,7.875 -3.857085,23.32504 -11.807138,45.956 -23.6875,66.75 -9.694135,14.94632 -10.984734,31.25595 -2.5625,37.37505 5.613666,4.0786 14.229483,2.6516 22.65625,-2.8437 -3.386494,10.5335 -2.316045,20.0757 3.6875,24.4375 6.003545,4.3618 15.40339,2.4445 24.375,-4.0313 -2.62242,9.7125 -1.30116,18.3276 4.3125,22.4063 8.37333,6.0836 23.36381,-0.049 34.5625,-13.7188 0.0327,-0.04 0.0611,-0.085 0.0937,-0.125 9.77377,-10.8185 20.77874,-20.6244 32.90625,-29.1876 0.0612,-0.043 0.12628,-0.082 0.1875,-0.125 0.94132,-0.663 1.88909,-1.3209 2.84375,-1.9687 0.055,-0.037 0.10116,-0.088 0.15625,-0.125 0.86196,-0.5837 1.75228,-1.1477 2.625,-1.7188 0.0315,-0.021 0.0622,-0.042 0.0937,-0.062 0.063,-0.041 0.12442,-0.084 0.1875,-0.125 0.84095,-0.5477 1.68045,-1.0891 2.53125,-1.625 0.19085,-0.1203 0.37115,-0.2553 0.5625,-0.375 0.69242,-0.4329 1.39489,-0.8563 2.09375,-1.2812 0.0443,-0.027 0.0806,-0.067 0.125,-0.094 0.91412,-0.5549 1.85621,-1.0837 2.78125,-1.625 0.45548,-0.2667 0.91689,-0.5491 1.375,-0.8125 1.42386,-0.8179 2.86343,-1.621 4.3125,-2.4062 0.73277,-0.3974 1.47959,-0.7987 2.21875,-1.1875 1.20486,-0.6334 2.40331,-1.2333 3.625,-1.8438 1.01178,-0.5061 2.03928,-1.0098 3.0625,-1.5 0.96647,-0.4625 1.92966,-0.9268 2.90625,-1.375 0.16604,-0.076 0.33367,-0.1429 0.5,-0.2187 2.83719,-1.29272 5.73542,-2.54962 8.65625,-3.71875 0.61103,-0.24463 1.22912,-0.47965 1.84375,-0.71875 0.42803,-0.16646 0.85148,-0.33623 1.28125,-0.5 0.75445,-0.28757 1.52147,-0.56455 2.28125,-0.84375 2.39667,-0.88028 4.83214,-1.70424 7.28125,-2.5 3.69128,-1.19937 7.38552,-2.30631 11.09375,-3.28125 1.23612,-0.32466 2.48134,-0.63757 3.71875,-0.9375 2.47472,-0.60064 4.95943,-1.15341 7.4375,-1.65625 1.2391,-0.25093 2.47926,-0.49209 3.71875,-0.71875 3.72854,-0.68342 7.42963,-1.25218 11.15625,-1.71875 7.43311,-0.92878 14.84202,-1.43967 22.21875,-1.53125 3.5918,-0.0446 7.18126,0.007 10.75,0.15625 0.39566,0.0165 0.79217,0.0436 1.1875,0.0625 4.95257,0.23675 9.85944,0.64846 14.75,1.25 1.63537,0.20087 3.24797,0.41532 4.875,0.65625 0.13506,0.02 0.27125,0.0422 0.40625,0.0625 0.10439,0.0157 0.20815,0.0467 0.3125,0.0625 3.39517,0.51553 6.77125,1.12481 10.125,1.8125 1.53053,0.3138 3.07282,0.65085 4.59375,1 0.18758,0.0431 0.37507,0.0814 0.5625,0.125 1.08446,0.25224 2.17073,0.51115 3.25,0.78125 0.6259,0.15679 1.25091,0.30598 1.875,0.46875 0.19844,0.0517 0.39549,0.10394 0.59375,0.15625 1.50416,0.39722 3.00684,0.81827 4.5,1.25 0.18741,0.0542 0.37527,0.10155 0.5625,0.15625 1.50159,0.43889 3.01024,0.90149 4.5,1.375 0.98963,0.31445 1.98456,0.63914 2.96875,0.96875 0.67799,0.22717 1.35592,0.45317 2.03125,0.6875 0.55368,0.19202 1.10439,0.39693 1.65625,0.59375 1.10026,0.39261 2.18842,0.80719 3.28125,1.21875 0.12336,0.0464 0.25174,0.0783 0.375,0.125 1.51778,0.57501 3.02847,1.16996 4.53125,1.78125 0.90018,0.36607 1.7929,0.74601 2.6875,1.125 3.95023,1.67385 7.8539,3.4532 11.6875,5.375 0.80694,0.4044 1.60482,0.8347 2.40625,1.25 1.83469,0.9508 3.66396,1.9305 5.46875,2.9375 0.45931,0.2562 0.91768,0.5213 1.375,0.7812 0.008,0 0.0233,0 0.0312,0 1.12085,0.6371 2.23512,1.2788 3.34375,1.9375 0.39834,0.2367 0.79077,0.4793 1.1875,0.7188 0.064,0.039 0.12355,0.086 0.1875,0.125 1.43615,0.8689 2.86673,1.7512 4.28125,2.6562 1.41864,0.9075 2.82261,1.8379 4.21875,2.7813 0.0621,0.042 0.12546,0.083 0.1875,0.125 0.0503,0.034 0.10596,0.06 0.15625,0.094 13.02162,8.8365 25.01406,19.2188 35.71875,31.0001 11.21917,13.8384 26.32778,20.0879 34.75,13.9688 5.6137,-4.0787 6.93492,-12.6938 4.3125,-22.4063 8.97157,6.4759 18.37149,8.3931 24.375,4.0313 6.0036,-4.3619 7.07397,-13.9038 3.6875,-24.4375 8.42677,5.4953 17.04255,6.9222 22.65625,2.8437 8.37332,-6.0836 7.16554,-22.25014 -2.375,-37.12505 -0.0279,-0.0434 -0.0657,-0.0816 -0.0937,-0.125 -7.26787,-12.63708 -13.19755,-26.13416 -17.59375,-40.3125 -0.064,-0.20687 -0.12411,-0.41785 -0.1875,-0.625 -0.63072,-2.05816 -1.21578,-4.13301 -1.78125,-6.21875 -0.0199,-0.0733 -0.0427,-0.14543 -0.0625,-0.21875 -0.0333,-0.12351 -0.0607,-0.25139 -0.0937,-0.375 -0.28448,-1.06412 -0.57648,-2.14777 -0.84375,-3.21875 -0.20479,-0.82062 -0.39914,-1.64418 -0.59375,-2.46875 -0.0883,-0.37395 -0.195,-0.75024 -0.28125,-1.125 -0.0645,-0.28057 -0.1242,-0.56274 -0.1875,-0.84375 -0.2083,-0.92464 -0.39832,-1.85184 -0.59375,-2.78125 -0.25482,-1.21187 -0.48601,-2.4052 -0.71875,-3.625 C 512.34603,921.96677 512.17111,920.97563 512,920 c -0.0894,-0.51003 -0.19568,-1.0199 -0.28125,-1.53125 -0.16202,-0.96604 -0.32066,-1.93558 -0.46875,-2.90625 -0.0175,-0.11479 -0.0452,-0.2289 -0.0625,-0.34375 -0.16995,-1.12722 -0.31775,-2.24171 -0.46875,-3.375 -0.13911,-1.04611 -0.2834,-2.1051 -0.40625,-3.15625 -0.0218,-0.18652 -0.0412,-0.37582 -0.0625,-0.5625 -0.01,-0.0834 -0.0218,-0.16653 -0.0312,-0.25 -0.13222,-1.17104 -0.2319,-2.3542 -0.34375,-3.53125 -0.20966,-2.21164 -0.39432,-4.42418 -0.53125,-6.65625 -0.0401,-0.65408 -0.0599,-1.31298 -0.0937,-1.96875 -0.006,-0.11511 -0.0255,-0.22859 -0.0312,-0.34375 -0.16705,-3.34992 -0.25,-6.73341 -0.25,-10.125 0,-1.29375 0.007,-2.58695 0.0312,-3.875 0.0981,-5.1523 0.39353,-10.26064 0.875,-15.3125 0.11983,-1.25256 0.26336,-2.50421 0.40625,-3.75 0.001,-0.0102 -10e-4,-0.021 0,-0.0312 0.28674,-2.50183 0.62176,-4.99566 1,-7.46875 0.56968,-3.71436 1.22912,-7.41832 2,-11.0625 0.002,-0.01 -0.002,-0.0213 0,-0.0312 1.2892,-6.08987 2.86047,-12.06751 4.6875,-17.9375 0.44708,-1.43641 0.8966,-2.85892 1.375,-4.28125 0.27861,-0.82815 0.58587,-1.64548 0.875,-2.46875 0.40043,-1.14078 0.79832,-2.27503 1.21875,-3.40625 0.48224,-1.29717 0.99175,-2.59069 1.5,-3.875 0.1235,-0.31207 0.24998,-0.6262 0.375,-0.9375 0.0245,-0.0611 0.0379,-0.12643 0.0625,-0.1875 0.1945,-0.4829 0.3956,-0.95647 0.59375,-1.4375 0.47885,-1.16274 0.96873,-2.31714 1.46875,-3.46875 0.70813,-1.63033 1.43751,-3.26753 2.1875,-4.875 0.69476,-1.4891 1.39488,-2.96859 2.125,-4.4375 0.0582,-0.11705 0.12911,-0.22683 0.1875,-0.34375 0.79116,-1.58392 1.60586,-3.15908 2.4375,-4.71875 0.70379,-1.3199 1.42393,-2.60417 2.15625,-3.90625 0.26287,-0.46739 0.51474,-0.94119 0.78125,-1.40625 0.74772,-1.30528 1.50516,-2.61964 2.28125,-3.90625 0.57302,-0.94973 1.16172,-1.87314 1.75,-2.8125 0.008,-0.0122 0.0236,-0.0191 0.0312,-0.0312 0.45873,-0.73214 0.9071,-1.46176 1.375,-2.1875 0.7173,-1.11257 1.44887,-2.2152 2.1875,-3.3125 0.18371,-0.27292 0.37748,-0.54053 0.5625,-0.8125 0.88037,-1.2947 1.74654,-2.57101 2.65625,-3.84375 0.12607,-0.17637 0.24837,-0.3553 0.375,-0.53125 0.95178,-1.3225 1.92325,-2.60818 2.90625,-3.90625 0.35536,-0.46927 0.70311,-0.94023 1.0625,-1.40625 0.60771,-0.78832 1.2246,-1.56481 1.84375,-2.34375 0.14783,-0.18591 0.28903,-0.37713 0.4375,-0.5625 0.98871,-1.23487 1.98287,-2.47682 3,-3.6875 0.15174,-0.18057 0.31639,-0.35122 0.46875,-0.53125 1.05184,-1.24281 2.10616,-2.47096 3.1875,-3.6875 2.32963,-2.62091 4.72502,-5.16127 7.1875,-7.65625 1.23124,-1.24749 2.48659,-2.50378 3.75,-3.71875 1.25793,-1.2097 2.52335,-2.41697 3.8125,-3.59375 0.006,-0.005 0.0255,0.005 0.0312,0 1.2949,-1.18176 2.61181,-2.35213 3.9375,-3.5 0.0112,-0.01 0.0201,-0.0216 0.0312,-0.0312 1.13861,-0.98538 2.3079,-1.94634 3.46875,-2.90625 0.21666,-0.17911 0.40758,-0.38429 0.625,-0.5625 1.25377,-1.02768 2.53362,-2.03369 3.8125,-3.03125 0.0591,-0.0461 0.12836,-0.079 0.1875,-0.125 12.46676,-9.70205 26.11899,-17.96582 40.6875,-24.53125 16.62802,-6.39375 27.217,-18.84909 24,-28.75 -2.14428,-6.59929 -9.92124,-10.49274 -19.96875,-11 8.93132,-6.53129 13.66813,-14.87995 11.375,-21.9375 -2.29307,-7.05765 -11.02913,-11.02814 -22.09375,-11.0625 7.83043,-6.31618 11.83165,-14.05698 9.6875,-20.65625 -3.19833,-9.84348 -18.93618,-13.69575 -36.03125,-9.21875 -0.0499,0.0131 -0.10629,0.018 -0.15625,0.0312 -14.2637,3.00692 -28.93916,4.48138 -43.78125,4.28125 -1.22371,-0.0171 -2.46174,-0.054 -3.6875,-0.0937 -0.0627,-0.002 -0.12475,0.002 -0.1875,0 -2.38896,-0.0798 -4.76104,-0.20803 -7.15625,-0.375 -0.85389,-0.0595 -1.70798,-0.11681 -2.5625,-0.1875 -0.25983,-0.0214 -0.52137,-0.0401 -0.78125,-0.0625 -0.19841,-0.0172 -0.39531,-0.0447 -0.59375,-0.0625 -2.29432,-0.2059 -4.60897,-0.43158 -6.90625,-0.71875 -0.15603,-0.0195 -0.31271,-0.0426 -0.46875,-0.0625 -3.58116,-0.4563 -7.1673,-1.0307 -10.75,-1.6875 -0.0422,-0.008 -0.0828,-0.0235 -0.125,-0.0312 -1.23258,-0.22678 -2.45527,-0.4367 -3.6875,-0.6875 -1.23223,-0.2508 -2.45588,-0.53755 -3.6875,-0.8125 -0.75042,-0.16753 -1.49989,-0.32346 -2.25,-0.5 -0.42708,-0.10039 -0.85429,-0.20918 -1.28125,-0.3125 -0.1029,-0.0249 -0.20961,-0.0374 -0.3125,-0.0625 -1.18715,-0.28927 -2.37648,-0.59421 -3.5625,-0.90625 -1.11493,-0.29351 -2.22998,-0.59253 -3.34375,-0.90625 -0.18777,-0.0529 -0.37477,-0.10278 -0.5625,-0.15625 -1.14565,-0.32622 -2.29339,-0.68347 -3.4375,-1.03125 -1.2265,-0.37301 -2.46294,-0.75837 -3.6875,-1.15625 -1.23974,-0.40282 -2.46093,-0.79404 -3.6875,-1.21875 -1.2174,-0.42147 -2.42079,-0.86966 -3.625,-1.3125 -2.41773,-0.88862 -4.79243,-1.80861 -7.15625,-2.78125 -1.17738,-0.48469 -2.33626,-0.9636 -3.5,-1.46875 -9.31991,-4.04161 -18.19298,-8.73267 -26.59375,-14 -1.04912,-0.65799 -2.05965,-1.32427 -3.09375,-2 -2.06843,-1.35106 -4.11775,-2.73563 -6.125,-4.15625 -1.09403,-0.77429 -2.17427,-1.54922 -3.25,-2.34375 -0.23487,-0.17341 -0.45351,-0.35688 -0.6875,-0.53125 -0.31101,-0.23182 -0.62805,-0.454 -0.9375,-0.6875 -1.073,-0.80965 -2.1333,-1.63917 -3.1875,-2.46875 -0.32075,-0.25241 -0.64976,-0.49577 -0.96875,-0.75 -1.05601,-0.84147 -2.08831,-1.70132 -3.125,-2.5625 -0.14243,-0.11833 -0.29543,-0.22505 -0.4375,-0.34375 -0.0513,-0.0429 -0.10496,-0.0821 -0.15625,-0.125 -0.20383,-0.17066 -0.39068,-0.35984 -0.59375,-0.53125 -1.1578,-0.97731 -2.3045,-1.96715 -3.4375,-2.96875 -1.04983,-0.92807 -2.0967,-1.86402 -3.125,-2.8125 -0.46085,-0.42508 -0.9185,-0.85213 -1.375,-1.28125 -0.0589,-0.0554 -0.12864,-0.1008 -0.1875,-0.15625 -1.04849,-0.98803 -2.06847,-1.99098 -3.09375,-3 -1.26191,-1.2419 -2.52365,-2.50835 -3.75,-3.78125 -0.50272,-0.52181 -1.00331,-1.03558 -1.5,-1.5625 -0.43095,-0.457 -0.85486,-0.9142 -1.28125,-1.375 -0.40617,-0.43911 -0.81674,-0.86997 -1.21875,-1.3125 -1.04365,-1.14841 -2.04706,-2.329 -3.0625,-3.5 -0.0919,-0.10602 -0.18958,-0.2063 -0.28125,-0.3125 -0.90024,-1.04258 -1.77854,-2.0963 -2.65625,-3.15625 -0.33504,-0.40475 -0.66826,-0.81151 -1,-1.21875 -0.57567,-0.70639 -1.15308,-1.41121 -1.71875,-2.125 -0.49195,-0.62098 -0.98441,-1.24851 -1.46875,-1.875 -0.96159,-1.24355 -1.91237,-2.4852 -2.84375,-3.75 -0.61119,-0.82998 -1.21443,-1.66109 -1.8125,-2.5 -0.34502,-0.48398 -0.69062,-0.98184 -1.03125,-1.46875 -0.12451,-0.178 -0.25108,-0.35286 -0.375,-0.53125 -0.95037,-1.36805 -1.86569,-2.73455 -2.78125,-4.125 -0.0698,-0.10598 -0.14917,-0.20639 -0.21875,-0.3125 -0.89262,-1.36121 -1.76604,-2.74313 -2.625,-4.125 -0.90138,-1.45012 -1.79234,-2.90291 -2.65625,-4.375 -0.0589,-0.10038 -0.0975,-0.21202 -0.15625,-0.3125 -0.85018,-1.45413 -1.68674,-2.90029 -2.5,-4.375 -0.0292,-0.0529 -0.0646,-0.10336 -0.0937,-0.15625 -0.68868,-1.25151 -1.3694,-2.51547 -2.03125,-3.78125 -0.34116,-0.65244 -0.66601,-1.31261 -1,-1.96875 -0.48966,-0.96197 -0.96336,-1.9365 -1.4375,-2.90625 -0.11887,-0.24317 -0.25711,-0.4751 -0.375,-0.71875 -1.49656,-3.09293 -2.91306,-6.23944 -4.25,-9.40625 -0.68203,-1.61552 -1.32892,-3.24154 -1.96875,-4.875 -0.61578,-1.57205 -1.23621,-3.13088 -1.8125,-4.71875 -0.0225,-0.0619 -0.0401,-0.12562 -0.0625,-0.1875 -0.41861,-1.15695 -0.82127,-2.33503 -1.21875,-3.5 -4.70593,-13.79273 -7.92476,-28.13407 -9.53125,-42.78125 -0.94251,-17.79016 -9.4958,-31.719 -19.90625,-31.719 -6.93887,0 -13.06897,6.19475 -16.65625,15.59375 C 313.89196,399.45632 307.42079,392.375 300,392.375 Z m -15.5,61 c 6.73701,0 12.57756,4.913 15.5,12.09375 2.92057,-7.19579 8.75394,-12.09375 15.5,-12.09375 8.73338,0 15.97153,8.24161 17.28125,19 h 0.28125 c 0.59358,1.9275 1.23072,3.8372 1.875,5.75 l -0.0625,0.0312 c 5.5928,16.59515 13.11268,32.60629 22.46875,47.6875 1.60648,2.58952 3.25335,5.15508 4.96875,7.6875 1.71408,2.53048 3.49027,5.03017 5.3125,7.5 1.82106,2.46824 3.69653,4.90848 5.625,7.3125 1.88364,2.34813 3.79569,4.68531 5.78125,6.96875 0.18364,0.21143 0.37799,0.41414 0.5625,0.625 0.65558,0.74834 1.33346,1.47767 2,2.21875 0.38421,0.42762 0.7684,0.85608 1.15625,1.28125 0.28351,0.31047 0.5583,0.62834 0.84375,0.9375 0.61704,0.66898 1.24888,1.33726 1.875,2 1.0668,1.12803 2.15696,2.23413 3.25,3.34375 0.6049,0.61407 1.19958,1.23542 1.8125,1.84375 0.82472,0.81921 1.66074,1.62888 2.5,2.4375 0.96573,0.93047 1.92131,1.86507 2.90625,2.78125 0.12411,0.11538 0.25059,0.2286 0.375,0.34375 0.86493,0.80098 1.74537,1.58521 2.625,2.375 0.72466,0.65022 1.45291,1.29498 2.1875,1.9375 0.6324,0.5535 1.26648,1.10854 1.90625,1.65625 0.0223,0.0191 0.0401,0.0434 0.0625,0.0625 1.01042,0.86436 2.03374,1.71281 3.0625,2.5625 0.14847,0.12256 0.28865,0.25275 0.4375,0.375 1.08339,0.89029 2.17768,1.75124 3.28125,2.625 0.33743,0.2671 0.69194,0.51571 1.03125,0.78125 0.924,0.72329 1.8433,1.47593 2.78125,2.1875 0.0482,0.0365 0.10806,0.0573 0.15625,0.0937 1.23367,0.93441 2.46104,1.86747 3.71875,2.78125 1.25184,0.90951 2.51736,1.80687 3.78125,2.6875 0.64213,0.44727 1.2924,0.87273 1.9375,1.3125 0.89424,0.60984 1.78755,1.21695 2.6875,1.8125 0.74155,0.49049 1.50471,0.95676 2.25,1.4375 0.44215,0.28534 0.86904,0.59307 1.3125,0.875 0.9252,0.58793 1.85049,1.17695 2.78125,1.75 0.67306,0.41463 1.35533,0.81185 2.03125,1.21875 0.69144,0.41591 1.36813,0.8422 2.0625,1.25 0.76584,0.45022 1.54316,0.8721 2.3125,1.3125 0.62498,0.35742 1.24774,0.74281 1.875,1.09375 0.0405,0.0227 0.0844,0.0398 0.125,0.0625 0.13457,0.0752 0.27158,0.14387 0.40625,0.21875 2.50404,1.39369 5.02448,2.74018 7.5625,4.03125 0.38203,0.19434 0.77348,0.37048 1.15625,0.5625 0.30452,0.15257 0.60125,0.31764 0.90625,0.46875 1.07903,0.53531 2.16535,1.04554 3.25,1.5625 0.31551,0.15017 0.62151,0.32012 0.9375,0.46875 L 319.5,623.8125 c -1.49317,-0.22496 -2.99069,-0.42013 -4.5,-0.59375 V 653.5 c 32.6168,4.91474 60.07202,25.59755 74.375,54.03125 l 28.8125,-9.34375 c -8.93553,-19.44513 -22.52491,-36.29931 -39.34375,-49.15625 l 177.25,-14.5625 0.0625,0.1875 c 10.63658,-2.07891 20.70744,2.2566 23.40625,10.5625 2.0818,6.40731 -0.79254,13.50162 -6.71875,18.5 7.74607,0.554 14.22788,4.58413 16.3125,11 2.6988,8.30594 -2.92284,17.74237 -12.75,22.3125 l 0.0937,0.25 c -1.65131,1.16126 -3.28465,2.35747 -4.90625,3.5625 l -0.0312,-0.0625 c -19.98484,14.85535 -37.64858,33.05948 -52.09375,54.0625 -0.1657,0.24066 -0.33515,0.47735 -0.5,0.71875 -0.76942,1.12796 -1.53059,2.26216 -2.28125,3.40625 -0.83811,1.27737 -1.68565,2.54646 -2.5,3.84375 -0.0495,0.0788 -0.0756,0.17117 -0.125,0.25 -0.37213,0.59442 -0.75792,1.18269 -1.125,1.78125 -0.40348,0.65715 -0.79016,1.30663 -1.1875,1.96875 -0.80059,1.33537 -1.59966,2.67584 -2.375,4.03125 -0.61015,1.06664 -1.21821,2.13981 -1.8125,3.21875 -0.25655,0.46532 -0.49643,0.93866 -0.75,1.40625 -0.18191,0.33576 -0.38213,0.66307 -0.5625,1 -0.45852,0.85572 -0.89527,1.73052 -1.34375,2.59375 -0.23944,0.46137 -0.4822,0.9115 -0.71875,1.375 -0.47708,0.93369 -0.94099,1.87019 -1.40625,2.8125 -0.69396,1.40694 -1.36393,2.82407 -2.03125,4.25 -0.59403,1.26932 -1.17739,2.55954 -1.75,3.84375 -0.0893,0.20002 -0.19252,0.39337 -0.28125,0.59375 -0.46733,1.05615 -0.92231,2.12142 -1.375,3.1875 -0.19934,0.46922 -0.39727,0.93511 -0.59375,1.40625 -0.0522,0.12533 -0.10421,0.24954 -0.15625,0.375 -0.50556,1.21827 -1.01375,2.45653 -1.5,3.6875 -0.31003,0.78546 -0.60414,1.58442 -0.90625,2.375 -0.2676,0.69981 -0.55116,1.38994 -0.8125,2.09375 -0.0457,0.1232 -0.0795,0.25168 -0.125,0.375 -0.50924,1.37863 -1.01502,2.76245 -1.5,4.15625 -0.52769,1.5169 -1.03262,3.02789 -1.53125,4.5625 -0.003,0.009 0.003,0.0218 0,0.0312 -0.19272,0.59337 -0.37489,1.18751 -0.5625,1.78125 -0.33939,1.07364 -0.67716,2.14382 -1,3.21875 -0.1598,0.53234 -0.31302,1.06116 -0.46875,1.59375 -0.35724,1.22094 -0.72645,2.43392 -1.0625,3.65625 -0.0367,0.13381 -0.0573,0.27243 -0.0937,0.40625 -0.4728,1.73192 -0.91321,3.45332 -1.34375,5.1875 -0.43698,1.7601 -0.85625,3.51944 -1.25,5.28125 -0.38972,1.7438 -0.77733,3.50512 -1.125,5.25 -0.006,0.03 0.006,0.0638 0,0.0937 -0.33819,1.70082 -0.67023,3.39247 -0.96875,5.09375 -0.031,0.17711 -0.0632,0.35414 -0.0937,0.53125 -0.2869,1.658 -0.53174,3.31088 -0.78125,4.96875 -0.25991,1.72694 -0.49913,3.46126 -0.71875,5.1875 -0.005,0.0423 -0.0259,0.0827 -0.0312,0.125 l -52.4375,-125.375 c -0.24541,-1.49621 -0.51634,-2.99049 -0.8125,-4.46875 l -28.78125,9.34375 c 0.87256,5.3095 1.3125,10.75715 1.3125,16.3125 0,27.82155 -11.39333,52.99166 -29.75,71.125 l 17.78125,24.5 c 15.49041,-14.26759 27.49324,-32.25788 34.625,-52.53125 l 68.625,164 -0.1875,0.125 c 5.26406,9.47357 4.2529,20.39787 -2.8125,25.53125 -5.45038,3.95993 -13.07121,3.43533 -19.65625,-0.65625 1.8668,7.53815 0.0202,14.90979 -5.4375,18.87505 -7.06547,5.1334 -17.74179,2.7464 -25.125,-5.18755 l -0.25,0.15625 c -1.61697,-1.21334 -3.25675,-2.39106 -4.90625,-3.5625 l 0.0625,-0.0625 c -28.97719,-20.57431 -62.93801,-34.60693 -99.6875,-39.9375 -0.44851,-0.0652 -0.8944,-0.12485 -1.34375,-0.1875 -1.09737,-0.15252 -2.21026,-0.30053 -3.3125,-0.4375 -0.0102,-10e-4 -0.021,10e-4 -0.0312,0 -1.56022,-0.19366 -3.1178,-0.36903 -4.6875,-0.53125 -0.7501,-0.0778 -1.49778,-0.14823 -2.25,-0.21875 -0.82303,-0.0769 -1.64324,-0.15055 -2.46875,-0.21875 -0.76977,-0.0638 -1.5406,-0.10008 -2.3125,-0.15625 -0.81224,-0.0589 -1.62295,-0.13705 -2.4375,-0.1875 -0.18595,-0.0116 -0.37643,-0.0201 -0.5625,-0.0312 -0.0104,-6.2e-4 -0.0208,6.2e-4 -0.0312,0 -1.39529,-0.0831 -2.81689,-0.16071 -4.21875,-0.21875 -1.59519,-0.0657 -3.20915,-0.12326 -4.8125,-0.15625 -0.0626,-10e-4 -0.12486,10e-4 -0.1875,0 -1.54013,-0.0305 -3.07765,-0.0312 -4.625,-0.0312 -3.69465,0 -7.37892,0.0775 -11.03125,0.25 -0.34647,0.0164 -0.68519,0.0445 -1.03125,0.0625 -0.75976,0.0393 -1.52345,0.0784 -2.28125,0.125 -1.16102,0.0718 -2.31251,0.16098 -3.46875,0.25 -1.2441,0.0953 -2.48023,0.19745 -3.71875,0.3125 -0.12437,0.0116 -0.25069,0.0195 -0.375,0.0312 -7.22054,0.6826 -14.33219,1.69599 -21.34375,3.03125 l 103.0625,-88.625 c 1.33937,-0.69597 2.65701,-1.41552 3.96875,-2.15625 L 346,841.1875 c -13.77476,7.15593 -29.41428,11.1875 -46,11.1875 -16.58572,10e-6 -32.22524,-4.03157 -46,-11.1875 l -17.78125,24.46875 c 18.01087,10.17066 38.66554,16.17366 60.6875,16.6875 l -134.78125,115.9375 -0.1875,-0.125 c -7.38323,7.93395 -18.05954,10.32085 -25.125,5.18755 -5.45036,-3.95998 -7.29394,-11.34793 -5.4375,-18.87505 -6.59237,4.10483 -14.19858,4.62148 -19.65625,0.65625 -7.06546,-5.13333 -8.07654,-16.05769 -2.8125,-25.53125 l -0.21875,-0.15625 c 0.65599,-1.91776 1.26917,-3.8454 1.875,-5.78125 l 0.0625,0.0312 c 8.81829,-28.18155 12.25127,-58.2112 9.5625,-88.5625 -0.0624,-0.70893 -0.11835,-1.41576 -0.1875,-2.125 -0.0816,-0.83312 -0.15905,-1.66651 -0.25,-2.5 -0.0698,-0.64238 -0.1434,-1.29493 -0.21875,-1.9375 -0.65215,-5.53721 -1.52481,-11.08469 -2.59375,-16.625 -0.0738,-0.38315 -0.14294,-0.77313 -0.21875,-1.15625 -0.53563,-2.70163 -1.1134,-5.4263 -1.75,-8.125 -0.0614,-0.26033 -0.12519,-0.52096 -0.1875,-0.78125 -0.67897,-2.83417 -1.42702,-5.64053 -2.21875,-8.46875 -0.0346,-0.12362 -0.0589,-0.2514 -0.0937,-0.375 -0.8319,-2.95269 -1.73118,-5.90051 -2.6875,-8.84375 -0.003,-0.009 0.003,-0.0218 0,-0.0312 -0.47816,-1.47162 -0.96386,-2.91966 -1.46875,-4.375 -0.50591,-1.45784 -1.03016,-2.90276 -1.5625,-4.34375 -0.8419,-2.28019 -1.71804,-4.54301 -2.625,-6.78125 -0.23857,-0.58848 -0.47574,-1.16448 -0.71875,-1.75 -0.5004,-1.20642 -1.01219,-2.39986 -1.53125,-3.59375 -0.0855,-0.1965 -0.16399,-0.39759 -0.25,-0.59375 -0.58959,-1.34584 -1.19948,-2.70158 -1.8125,-4.03125 -0.01957,-0.0424 -0.04291,-0.0826 -0.0625,-0.125 -2.246631,-4.8653 -4.637292,-9.6067 -7.1875,-14.25 L 208.8125,845 c 1.03768,1.0218 2.0849,2.01322 3.15625,3 L 229.75,823.5 C 211.39333,805.36665 200,780.19655 200,752.375 c 0,-5.55754 0.47063,-11.00091 1.34375,-16.3125 L 172.5625,726.71875 C 170.89929,735.01541 170,743.59118 170,752.375 c 0,12.91856 1.89224,25.40742 5.40625,37.1875 l -151.875,-92.34375 0.0625,-0.1875 c -9.827111,-4.57013 -15.4487629,-14.00656 -12.75,-22.3125 2.081851,-6.40727 8.580117,-10.43957 16.3125,-11 -5.941097,-5.00122 -8.803397,-12.08412 -6.71875,-18.5 2.698763,-8.30595 12.769687,-12.64141 23.40625,-10.5625 l 0.09375,-0.25 c 2.022146,0.0312 4.038658,0.0219 6.0625,0 v 0.0625 c 31.027505,-0.33824 62.18624,-6.94729 91.46875,-20.125 0.59259,-0.26633 1.19022,-0.54077 1.78125,-0.8125 0.82798,-0.38113 1.6439,-0.76454 2.46875,-1.15625 0.52302,-0.24804 1.04077,-0.49769 1.5625,-0.75 3.6889,-1.78635 7.34896,-3.68746 10.96875,-5.6875 0.34249,-0.18907 0.68942,-0.37151 1.03125,-0.5625 1.03313,-0.57773 2.06677,-1.15472 3.09375,-1.75 0.2816,-0.16311 0.56262,-0.33556 0.84375,-0.5 1.08651,-0.63599 2.17068,-1.28176 3.25,-1.9375 0.22074,-0.13402 0.43581,-0.27141 0.65625,-0.40625 0.0319,-0.0195 0.0618,-0.0429 0.0937,-0.0625 2.56387,-1.57008 5.10435,-3.19246 7.625,-4.875 0.33569,-0.22417 0.66511,-0.46134 1,-0.6875 0.93812,-0.6333 1.88075,-1.25724 2.8125,-1.90625 1.26389,-0.88063 2.52941,-1.77799 3.78125,-2.6875 1.25421,-0.91124 2.48873,-1.84974 3.71875,-2.78125 0.23791,-0.18014 0.48173,-0.35035 0.71875,-0.53125 0.98797,-0.75416 1.96525,-1.51416 2.9375,-2.28125 0.0179,-0.0141 0.0446,-0.0171 0.0625,-0.0312 1.19014,-0.93958 2.36468,-1.8851 3.53125,-2.84375 0.68218,-0.56029 1.35706,-1.12077 2.03125,-1.6875 0.49271,-0.41442 0.98035,-0.83217 1.46875,-1.25 0.89269,-0.76317 1.77786,-1.5381 2.65625,-2.3125 0.26067,-0.22999 0.52184,-0.45653 0.78125,-0.6875 1.09923,-0.97792 2.17345,-1.94225 3.25,-2.9375 0.0325,-0.0301 0.0612,-0.0636 0.0937,-0.0937 1.28772,-1.19185 2.55736,-2.4089 3.8125,-3.625 0.90731,-0.87994 1.79721,-1.76378 2.6875,-2.65625 0.37597,-0.37647 0.75208,-0.74635 1.125,-1.125 0.11884,-0.1208 0.22522,-0.25398 0.34375,-0.375 1.13653,-1.15913 2.26701,-2.32092 3.375,-3.5 l -31.3125,132.46875 c -0.64134,1.28096 -1.27515,2.57038 -1.875,3.875 l 28.78125,9.34375 C 224.92784,679.10654 252.39478,658.41872 285,653.5 v -30.25 c -21.71461,2.50155 -41.7963,10.35848 -58.90625,22.21875 L 267,472.375 h 0.21875 c 1.30972,-10.75839 8.54787,-19 17.28125,-19 z"
       style="opacity:1;fill:#000000;fill-opacity:1;fill-rule:nonzero;stroke:none;stroke-width:30;stroke-linecap:round;stroke-linejoin:round;stroke-miterlimit:4;stroke-dasharray:none;stroke-opacity:1"
       id="path3147" />
  </g>
</svg>
