<svg width="400" height="310" xmlns="http://www.w3.org/2000/svg">
<path d="m0 0 74.616 74.948c-16.293 24.014-25.8 52.989-25.8 84.184 0 81.57 65.07 147.945 146.14 150.041v-76.608c-49.004-2.055-88.086-42.424-88.086-91.947 0-11.727 2.2-22.935 6.206-33.25 11.125-28.705 36.239-50.436 66.978-56.828a90.284 90.284 0 0 1 14.902-1.848V9.091c-16.563.436-32.482 3.55-47.28 8.925L129.721 0Zm271.212 0-18.805 18.867a150.02 150.02 0 0 0-48.526-9.735v39.602a92.891 92.891 0 0 1 16.418 2.387l-6.248 6.289-9.838 9.858c18.576 1.329 35.222 9.548 47.426 22.105l7.784-7.825 5.25-5.272a100.358 100.358 0 0 1 4.256 4.67 93.15 93.15 0 0 1 5.687 7.39 90.626 90.626 0 0 1 2.179 3.3 89.307 89.307 0 0 1 4.69 8.385 117.4 117.4 0 0 1 1.744 3.736 93.547 93.547 0 0 1 1.495 3.611c4.005 10.315 6.185 21.523 6.185 33.25 0 49.15-38.522 89.311-87.028 91.906v76.608c80.573-2.636 145.101-68.784 145.101-150 0-30.739-9.256-59.319-25.093-83.105L399.584 0H386.55l-68.12 68.39a173.466 173.466 0 0 0-2.386-3.073L381.07 0h-13.034l-58.012 58.26a170.73 170.73 0 0 0-2.635-2.843L362.577 0h-13.034l-48.755 48.962a131.602 131.602 0 0 0-4.732-4.213L340.639 0ZM198.9 56.04c-46.72 0-84.6 37.878-84.6 84.578 0 46.72 37.88 84.6 84.6 84.6 46.7 0 84.578-37.88 84.578-84.6a84.258 84.258 0 0 0-7.576-34.993 82.134 82.134 0 0 0-4.503-8.572 91.963 91.963 0 0 0-2.118-3.363 93.126 93.126 0 0 0-5.604-7.451l-7.824 7.846a75.893 75.893 0 0 1 5.458 7.617c.706 1.141 2.076 3.611 2.72 4.774 5.084 9.983 8.405 22.166 8.405 34.142 0 40.64-32.918 73.558-73.536 73.558-40.64 0-73.558-32.918-73.558-73.558 0-37.878 28.643-69.074 65.463-73.1l11.374-11.395c-1.1-.062-2.2-.083-3.28-.083z" fill="#00a0ca"/>
</svg>
