<?xml version="1.0" encoding="UTF-8"?><svg width="400" height="400" viewBox="50 50 400 400" xmlns="http://www.w3.org/2000/svg" version="1.0">
 <circle xmlns="http://www.w3.org/2000/svg" cx="250.1" cy="250.1" r="200" fill="#000000"/>
 <circle xmlns="http://www.w3.org/2000/svg" cx="250.1" cy="250.1" r="165" fill="#ffffff"/>
 <path xmlns="http://www.w3.org/2000/svg" fill="#000000" d="m131.5 335.6c-6.677-2.695-11.13-5.955-10.2-7.462 19.89-2.837 24.79-7.009 34.83-21.54 20.97-30.49 27.36-73.39 27.32-109-0.0284-24.5-3.22-28.64 21.53-20.46 16.07 5.31 29.36 16.76 29.36 25.08 0 1.398-2.044 4.322-4.896 7.004-4.445 4.18-5.012 5.322-6.157 12.39-9.796 39.22-22.37 88.87-59.35 111.1-9.803 5.197-21.89 6.618-32.44 2.84zm159.2-32.85c-15.07-48.03-11.6-99.63-23.64-148.2-4.577-15.96-14.06-28.97-24.61-33.76-5.758-2.614-18.76-3.342-27.81-1.557-12.26 2.418-3.23-8.765 14.02-17.36 16.39-7.936 40.72-5.224 55.18 5.081 14.67 10.71 20.08 20.09 24.52 42.51 12.2 61.65 24.35 99.25 37.83 117.1 12.19 16.15 30.61 22.42 44.38 15.1 6.233-3.314 8.34-2.919 8.34 1.564 0 5.171-5.215 21.76-9.586 30.5-12.6 24.61-27.89 40.79-53.07 38.07-26.11-3.072-40.4-33.2-45.55-49.01z"/>
</svg>