<?xml version="1.0" encoding="UTF-8"?><svg width="456" height="455" viewBox="22 23 456 455" xmlns="http://www.w3.org/2000/svg">
 <path xmlns="http://www.w3.org/2000/svg" fill="#4c462e" d="m295 190-75 129.9 30 52 105-181.9h-60zm-75 0-37.5 65 30 52l67.5-117h-60zm-75 0 30 52l30-52h-60zm108.8-164.9v75.1c97.8 2 176.1 81.9 176.2 179.8-0.1 86.1-61.1 160.1-145.7 176.5l-34.3-59.4-42.6 73.7c14.1 2.7 28.3 4.1 42.6 4.2 124.3 0 225-100.7 225-225-0.1-122.8-98.5-222.8-221.2-224.9zm-7.5 0c-122.8 2.1-221.2 102.2-221.3 224.8 0.1 104.8 72.6 195.6 174.8 219l8.211-14.2c-80.9-19.4-137.9-91.7-138-174.8 0.1-97.9 78.4-177.8 176.2-179.9z"/>
</svg>