<?xml version="1.0" encoding="UTF-8" standalone="no"?>
<svg
   xmlns:dc="http://purl.org/dc/elements/1.1/"
   xmlns:cc="http://creativecommons.org/ns#"
   xmlns:rdf="http://www.w3.org/1999/02/22-rdf-syntax-ns#"
   xmlns:svg="http://www.w3.org/2000/svg"
   xmlns="http://www.w3.org/2000/svg"
   xmlns:xlink="http://www.w3.org/1999/xlink"
   xmlns:sodipodi="http://sodipodi.sourceforge.net/DTD/sodipodi-0.dtd"
   xmlns:inkscape="http://www.inkscape.org/namespaces/inkscape"
   version="1.1"
   width="500"
   height="500"
   viewBox="-250 -250 500 500"
   id="svg2"
   inkscape:version="0.48.4 r"
   sodipodi:docname="Symbol_of_Hekinan_Aichi.svg">
  <metadata
     id="metadata23">
    <rdf:RDF>
      <cc:Work
         rdf:about="">
        <dc:format>image/svg+xml</dc:format>
        <dc:type
           rdf:resource="http://purl.org/dc/dcmitype/StillImage" />
      </cc:Work>
    </rdf:RDF>
  </metadata>
  <defs
     id="defs21" />
  <sodipodi:namedview
     pagecolor="#ffffff"
     bordercolor="#666666"
     borderopacity="1"
     objecttolerance="10"
     gridtolerance="10"
     guidetolerance="10"
     inkscape:pageopacity="0"
     inkscape:pageshadow="2"
     inkscape:window-width="825"
     inkscape:window-height="480"
     id="namedview19"
     showgrid="false"
     inkscape:zoom="0.472"
     inkscape:cx="250"
     inkscape:cy="250"
     inkscape:window-x="0"
     inkscape:window-y="0"
     inkscape:window-maximized="0"
     inkscape:current-layer="svg2" />
  <title
     id="title4">Hekinan, Aichi Chapter</title>
  <g
     style="fill:#fe401e;stroke:none"
     id="g8">
    <path
       d="M -35,-205 A 44,44 0 0 0 0,-240 44,44 0 0 0 35,-205 L 35,-180 -35,-180 -35,-250 z"
       id="path10" />
    <path
       d="M -205,-35 205,-35 A 44,44 0 0 0 240,0 44,44 0 0 0 205,35 L -205,35 A 44,44 0 0 0 -240,0 44,44 0 0 0 -205,-35 z"
       id="path12" />
    <path
       d="M -35,-130 35,-130 35,205 A 44,44 0 0 0 0,240 44,44 0 0 0 -35,205 L -35,-130 z"
       id="path14" />
  </g>
  <path
     d="M 0,-208 A 208,208 0 0 0 -204.15625,-39 L -142.59375,-39 A 148,148 0 0 1 0,-148 148,148 0 0 1 142.71875,-39 L 204.0625,-39 A 208,208 0 0 0 0,-208 z"
     id="A01"
     style="fill:#fe401e;stroke:none" />
  <use
     xlink:href="#A01"
     transform="rotate(180)"
     id="use17" />
</svg>
