<?xml version="1.0" encoding="UTF-8"?><svg width="364" height="400" viewBox="67 50 364 400" xmlns="http://www.w3.org/2000/svg" version="1.1">
 <path xmlns="http://www.w3.org/2000/svg" fill="#000000" d="m162 50v45.7c-47.5 33.4-93.5 73.5-93.5 153 0 44.9 12.8 75.1 44.7 125 11.4 18 26.1 37.6 29 76.4h215c2.9-38.8 17.5-58.4 29-76.4 32-50 44.7-80.2 44.7-125 0-79.2-46-119-93.5-153v-45.7h-77.6v45.7h30.4v29.6c53.5 26.1 92.3 66.4 92.8 123-0.0765 35.5-11.4 60.9-38 101-11.6 18.3-21.5 35.8-29.3 54.9h-40.7v-132h75.9v-50.6h-75.9v-103h-52.3v103h-74.3v50.6h74.3v132h-39c-7.81-19-17.7-36.6-29.3-54.9-26.5-40.3-37.9-65.7-38-101 0.524-56.8 39.3-97.1 92.8-123v-29.6h30.4v-45.7z"/>
</svg>