<?xml version="1.0" encoding="UTF-8" standalone="no"?>
<!-- Created with Inkscape (http://www.inkscape.org/) -->

<svg
   xmlns:dc="http://purl.org/dc/elements/1.1/"
   xmlns:cc="http://creativecommons.org/ns#"
   xmlns:rdf="http://www.w3.org/1999/02/22-rdf-syntax-ns#"
   xmlns:svg="http://www.w3.org/2000/svg"
   xmlns="http://www.w3.org/2000/svg"
   xmlns:sodipodi="http://sodipodi.sourceforge.net/DTD/sodipodi-0.dtd"
   xmlns:inkscape="http://www.inkscape.org/namespaces/inkscape"
   width="188"
   height="188"
   viewBox="0 0 188 187.99999"
   id="svg4148"
   version="1.1"
   inkscape:version="0.91 r13725"
   sodipodi:docname="Okazaki_Aichi_chapter.svg">
  <defs
     id="defs4150" />
  <sodipodi:namedview
     id="base"
     pagecolor="#ffffff"
     bordercolor="#666666"
     borderopacity="1.0"
     inkscape:pageopacity="1"
     inkscape:pageshadow="2"
     inkscape:zoom="3.0327103"
     inkscape:cx="113.05239"
     inkscape:cy="97.620956"
     inkscape:document-units="px"
     inkscape:current-layer="layer3"
     showgrid="false"
     fit-margin-top="0"
     fit-margin-left="0"
     fit-margin-right="0"
     fit-margin-bottom="0"
     showguides="true"
     inkscape:guide-bbox="true"
     inkscape:window-width="1440"
     inkscape:window-height="851"
     inkscape:window-x="0"
     inkscape:window-y="1"
     inkscape:window-maximized="1"
     units="px" />
  <metadata
     id="metadata4153">
    <rdf:RDF>
      <cc:Work
         rdf:about="">
        <dc:format>image/svg+xml</dc:format>
        <dc:type
           rdf:resource="http://purl.org/dc/dcmitype/StillImage" />
        <dc:title></dc:title>
      </cc:Work>
    </rdf:RDF>
  </metadata>
  <g
     inkscape:groupmode="layer"
     id="layer3"
     inkscape:label="Layer 3"
     style="display:inline"
     transform="translate(-0.20802569,-13.966869)">
    <rect
       style="fill:#ffffff;fill-opacity:1;stroke:none;stroke-width:3.12495852;stroke-linecap:round;stroke-linejoin:bevel;stroke-miterlimit:4;stroke-dasharray:none;stroke-dashoffset:0;stroke-opacity:1"
       id="rect5471"
       width="188"
       height="188"
       x="0.20802569"
       y="13.966862" />
    <path
       style="opacity:0.83999999;fill:#ff0000;fill-opacity:1;stroke:none;stroke-width:0.99901468;stroke-linecap:round;stroke-linejoin:bevel;stroke-miterlimit:4;stroke-dasharray:0.99901469, 0.99901469;stroke-dashoffset:0;stroke-opacity:1"
       d="m 93.477185,19.001869 c -3.833452,-0.103165 -4.890107,2.326051 -4.890107,2.326051 -4.586812,-0.594759 -7.76375,2.332049 -6.987685,12.424572 3.467987,-5.658354 7.514877,-7.262305 11.877792,-3.626662 3e-5,0.03518 0.01922,0 0.02181,0 4.362915,-3.635676 8.409825,-2.031705 11.877795,3.626662 0.77606,-10.092523 -2.40087,-13.019331 -6.987688,-12.424572 0,0 -1.056595,-2.429244 -4.890107,-2.326051 -0.0069,2.03e-4 -0.01424,-2.25e-4 -0.02181,0 z m 13.564985,6.172844 c 0.10574,2.933905 0.0745,6.758111 -0.49247,10.553454 a 75.173528,75.603875 0 0 1 62.11397,74.380483 75.173528,75.603875 0 0 1 -4.31373,24.97755 c 3.60383,1.46574 6.93695,3.38856 9.32967,4.90893 a 85.576562,86.066461 0 0 0 5.38623,-29.88648 85.576562,86.066461 0 0 0 -72.02367,-84.933937 z m -27.10807,0.05869 a 85.576562,86.066461 0 0 0 -72.0218615,84.875247 85.576562,86.066461 0 0 0 5.4299995,29.8608 c 2.389501,-1.51611 5.701666,-3.42405 9.284085,-4.88142 A 75.173528,75.603875 0 0 1 18.316252,110.10865 75.173528,75.603875 0 0 1 80.419282,35.6713 C 79.864139,31.919376 79.831465,28.145541 79.9341,25.233414 Z m 8.674875,4.780517 c -3.022263,0.126225 -5.787535,2.504779 -5.229371,5.719741 1.186425,6.833686 5.939767,15.044693 10.108528,21.066555 4.168792,-6.021862 8.922108,-14.232869 10.108528,-21.066555 0.81188,-4.676308 -5.408819,-7.582373 -9.222068,-4.362266 l -0.05837,14.005847 -0.817136,0.0093 -0.02181,0 -0.815313,-0.0093 -0.06027,-14.005847 c -1.191662,-1.00628 -2.61896,-1.414848 -3.992714,-1.35747 z m 15.398095,11.533042 c -1.08338,3.087728 -2.82946,6.433769 -4.592808,9.425283 a 59.099834,59.438163 0 0 1 53.174638,59.136395 59.099834,59.438163 0 0 1 -4.7898,23.40545 c 3.49517,-0.0267 7.22386,0.16761 10.33836,0.81264 a 69.02861,69.423777 0 0 0 4.3812,-24.21809 69.02861,69.423777 0 0 0 -58.51159,-68.561678 z m -21.025086,0.03302 a 69.02861,69.423777 0 0 0 -58.52074,68.528658 69.02861,69.423777 0 0 0 4.421349,24.20892 c 3.123962,-0.64169 6.858613,-0.83093 10.354752,-0.80164 A 59.099834,59.438163 0 0 1 34.389198,110.10865 59.099834,59.438163 0 0 1 87.596659,51.029117 c -1.768397,-2.995232 -3.523524,-6.35025 -4.614675,-9.449132 z m 10.507981,19.448585 a 48.801713,49.081087 0 0 0 -48.802548,49.080073 48.801713,49.081087 0 0 0 10.336521,30.11394 l 8.331964,-5.94905 a 38.546673,38.767341 0 0 1 -8.412215,-24.16489 38.546673,38.767341 0 0 1 38.546278,-38.766926 38.546673,38.767341 0 0 1 38.546275,38.766926 38.546673,38.767341 0 0 1 -8.44688,24.15572 l 8.38668,5.9894 A 48.801713,49.081087 0 0 0 142.29067,110.10865 48.801713,49.081087 0 0 0 93.489965,61.028578 Z m -5.413591,22.003946 a 27.463119,27.620336 0 0 0 -16.087546,9.896731 l -7.394452,-5.27948 a 36.531301,36.740431 0 0 0 -5.482884,10.116873 l 7.782936,5.556463 a 27.463119,27.620336 0 0 0 -0.86821,6.78555 27.463119,27.620336 0 0 0 6.385772,17.70037 l 8.966702,-6.40213 a 16.534834,16.62949 0 0 1 -4.412205,-10.89282 l 3.817592,2.72595 6.58641,-9.32991 -6.435012,-4.593383 a 16.534834,16.62949 0 0 1 7.140897,-4.899754 l 0,-11.384451 z m 10.82535,0.02385 0,11.358768 a 16.534834,16.62949 0 0 1 7.126306,4.89975 l -6.420421,4.582399 6.586411,9.32988 3.81031,-2.72045 a 16.534834,16.62949 0 0 1 -4.41586,10.90566 l 8.95393,6.39299 a 27.463119,27.620336 0 0 0 6.4113,-17.69672 27.463119,27.620336 0 0 0 -0.88464,-6.78738 l 7.79754,-5.567468 a 36.531301,36.740431 0 0 0 -5.48289,-10.116859 l -7.43456,5.306996 A 27.463119,27.620336 0 0 0 98.901724,83.056372 Z m -5.408123,14.005849 a 12.914906,12.988839 0 0 0 -5.451885,1.230895 l 0,21.864533 -22.796164,16.27685 a 38.546673,38.767341 0 0 1 -0.01455,-0.0146 l -8.417685,6.01142 A 48.801713,49.081087 0 0 0 93.49,159.19062 48.801713,49.081087 0 0 0 130.13934,142.42581 l -8.40857,-6.00408 a 38.546673,38.767341 0 0 1 -0.008,0.008 l -22.779741,-16.26402 0,-21.871863 A 12.914906,12.988839 0 0 0 93.492957,97.06295 Z m -0.006,33.065538 19.077059,13.6206 a 38.546673,38.767341 0 0 1 -19.075237,5.12722 38.546673,38.767341 0 0 1 -19.066115,-5.13639 L 93.487601,130.12775 Z M 39.0453,135.41821 c -5.112063,0.0228 -10.322705,0.5427 -14.378471,2.01237 -3.052914,1.10626 -3.736714,4.69955 -2.347469,7.40192 l 0,0.002 c 0.631481,1.22835 1.69215,2.27202 3.151844,2.81401 l 12.124024,-6.89194 0.412214,0.70809 0.01096,0.0203 0.397641,0.71726 -12.06567,6.99468 c -0.890275,4.92698 4.703615,8.9195 8.339266,5.89216 5.312939,-4.42399 10.046687,-12.64602 13.180112,-19.27248 -2.724996,-0.24597 -5.7572,-0.41171 -8.824439,-0.39808 z m 108.88642,0 c -3.06724,-0.0137 -6.09944,0.15211 -8.82443,0.39807 3.13341,6.62646 7.86716,14.84849 13.18011,19.27248 3.63565,3.02734 9.22954,-0.96517 8.33925,-5.89216 l -12.06566,-6.99468 0.39763,-0.71725 0.0109,-0.0203 0.41222,-0.70808 12.12403,6.89193 c 1.4597,-0.54199 2.52038,-1.58567 3.15185,-2.81402 l 0,-0.002 c 1.38925,-2.70235 0.70544,-6.29565 -2.34748,-7.40191 -4.05577,-1.46966 -9.26641,-1.98963 -14.37847,-2.01236 z m -125.858602,1.44004 c -9.099904,4.32539 -10.052377,8.54981 -7.264923,12.26129 0,1e-5 -1.573616,2.12723 0.415866,5.4244 0.0037,0.007 0.0074,0.0136 0.01093,0.0203 1.811308,3.39951 4.432275,3.11669 4.432275,3.11669 1.760278,4.30118 5.86379,5.62606 14.194249,-0.055 -6.605366,-0.22403 -9.998073,-2.96284 -9.02142,-8.57595 -9.37e-4,-0.002 0.02132,-0.0377 -0.0089,-0.0203 -5.30234,-2.00844 -5.924805,-6.33728 -2.757859,-12.17141 z m 142.830782,0 c 3.16694,5.83413 2.54446,10.16297 -2.75787,12.17141 -0.0304,-0.0174 -0.008,0.0179 -0.009,0.0202 0.97665,5.61311 -2.41606,8.35192 -9.02144,8.57595 8.33046,5.68108 12.434,4.3562 14.19426,0.055 0,0 2.62097,0.28282 4.43228,-3.11669 0.004,-0.007 0.007,-0.0135 0.011,-0.0203 1.98948,-3.29717 0.41587,-5.42439 0.41587,-5.4244 2.78745,-3.71148 1.83498,-7.9359 -7.26492,-12.26129 z m -119.498325,7.68441 c -1.768575,3.06256 -3.848961,6.21384 -6.000902,8.58327 a 69.02861,69.423777 0 0 0 54.084774,26.40658 69.02861,69.423777 0 0 0 54.132233,-26.35336 c -2.16312,-2.36845 -4.25665,-5.53285 -6.03557,-8.6108 A 59.099834,59.438163 0 0 1 93.489447,169.54772 59.099834,59.438163 0 0 1 45.405553,144.54267 Z m -9.884172,13.61144 c -3.086475,2.35503 -6.410904,4.24706 -8.901043,5.52712 a 85.576562,86.066461 0 0 0 66.869109,32.49319 85.576562,86.066461 0 0 0 66.938421,-32.45649 c -2.49179,-1.27773 -5.84521,-3.18148 -8.95395,-5.55098 A 75.173528,75.603875 0 0 1 93.489587,185.7127 75.173528,75.603875 0 0 1 35.521511,158.15411 Z"
       id="circle4803"
       inkscape:connector-curvature="0" />
  </g>
</svg>
