<?xml version="1.0" encoding="utf-8"?>
<!-- Generator: Adobe Illustrator 15.1.0, SVG Export Plug-In . SVG Version: 6.00 Build 0)  -->
<!DOCTYPE svg PUBLIC "-//W3C//DTD SVG 1.1//EN" "http://www.w3.org/Graphics/SVG/1.1/DTD/svg11.dtd" [
	<!ENTITY st0 "fill:#001974;">
]>
<svg version="1.1" id="svg" xmlns="http://www.w3.org/2000/svg" xmlns:xlink="http://www.w3.org/1999/xlink" x="0px" y="0px"
	 width="200px" height="200px" viewBox="0 0 200 200" style="enable-background:new 0 0 200 200;" xml:space="preserve">
<path id="path2388" style="&st0;" d="M100,0L80.501,12.535c0,0,10.533,24.982,14.589,60.48C83.923,75.1,75.108,83.917,73.05,95.09
	c-35.497-4.055-60.516-14.589-60.516-14.589L0,100l12.535,19.499c0,0,24.981-10.533,60.48-14.59
	c1.984,11.263,10.822,20.173,22.041,22.284c-0.155,1.344-0.315,2.674-0.487,3.987c-1.589-0.286-3.134-0.67-4.631-1.185
	c-0.589-0.201-1.169-0.426-1.741-0.661c-0.573-0.235-1.134-0.481-1.688-0.749c-0.525-0.252-1.042-0.521-1.55-0.801
	c-0.064-0.034-0.128-0.068-0.191-0.104c-0.331-0.185-0.652-0.378-0.975-0.574c-0.25-0.152-0.504-0.294-0.749-0.452
	c-0.031-0.021-0.056-0.05-0.087-0.07c-0.763-0.497-1.513-1.041-2.229-1.602c-0.049-0.038-0.108-0.065-0.157-0.104
	c-0.207-0.163-0.406-0.336-0.609-0.505c-0.241-0.2-0.48-0.401-0.714-0.609c-0.284-0.25-0.562-0.505-0.836-0.766
	c-3.808-3.614-6.723-8.161-8.356-13.283c-0.699,1.692-13.481,32.185-40.808,60.968c19.865-18.238,39.892-30.102,51.323-36.107
	c3.908,2.229,8.221,3.821,12.813,4.613c-4.719,28.87-12.883,48.276-12.883,48.276L100,200l19.499-12.535
	c0,0-8.163-19.367-12.884-48.224c4.697-0.771,9.121-2.377,13.109-4.648c11.435,6.007,31.451,17.861,51.306,36.09
	c-27.165-28.612-39.952-58.875-40.79-60.898c-1.693,5.262-4.732,9.925-8.705,13.579c-0.058,0.053-0.116,0.104-0.174,0.157
	c-0.297,0.268-0.6,0.526-0.905,0.783c-0.028,0.023-0.059,0.046-0.087,0.069c-0.225,0.188-0.449,0.377-0.679,0.558
	c-0.326,0.256-0.657,0.505-0.992,0.748c-0.059,0.042-0.117,0.081-0.175,0.122c-0.115,0.083-0.232,0.163-0.348,0.244
	c-0.385,0.268-0.771,0.533-1.167,0.783c-0.062,0.039-0.13,0.065-0.191,0.104c-0.458,0.285-0.92,0.574-1.393,0.836
	c-0.536,0.297-1.082,0.569-1.637,0.835c-0.457,0.22-0.924,0.43-1.393,0.627c-0.101,0.043-0.195,0.098-0.296,0.14
	c-0.536,0.219-1.087,0.419-1.637,0.609c-0.029,0.01-0.058,0.024-0.087,0.034c-0.005,0.002-0.013-0.001-0.018,0
	c-1.589,0.543-3.235,0.952-4.927,1.236c-0.173-1.313-0.332-2.642-0.487-3.986c11.363-1.988,20.333-10.947,22.354-22.302
	c35.31,4.084,60.167,14.537,60.167,14.537L200,100l-12.535-19.499c0,0-24.853,10.475-60.201,14.554
	c-2.089-11.266-11.029-20.124-22.337-22.093c4.062-35.449,14.572-60.428,14.572-60.428L100,0z M29.248,29.248
	c27.63,29.102,40.427,60.034,40.86,61.09c3.109-9.553,10.654-17.111,20.195-20.248C89.075,69.563,58.874,56.447,29.248,29.248z
	 M171.03,29.248c-29.586,27.163-59.734,40.282-61.037,40.842c9.536,3.124,17.071,10.659,20.195,20.195
	C130.731,88.963,143.525,58.218,171.03,29.248z M104.126,81.146c7.427,1.542,13.301,7.326,14.955,14.711
	c-5.069,0.415-10.315,0.686-15.704,0.766C103.457,91.314,103.721,86.146,104.126,81.146z M95.892,81.215
	c0.401,4.976,0.651,10.125,0.731,15.407c-5.272-0.079-10.405-0.331-15.373-0.731C82.872,88.601,88.607,82.861,95.892,81.215z
	 M96.623,103.377c-0.081,5.366-0.354,10.584-0.766,15.634c-7.333-1.673-13.098-7.51-14.659-14.885
	C86.18,103.725,91.333,103.457,96.623,103.377z M103.377,103.377c5.402,0.082,10.656,0.35,15.738,0.767
	c-1.588,7.481-7.484,13.373-14.972,14.938C103.729,114.013,103.458,108.766,103.377,103.377z"/>
</svg>
