<svg xmlns="http://www.w3.org/2000/svg" xmlns:xlink="http://www.w3.org/1999/xlink" viewBox="-99 -98.875 198 188" width="396" height="376" fill="#be0026">
<path id="a" d="M0-87.153308A55.180145 55.180145 0 0 0-13.837565-93.39415 68.34875 68.34875 0 0 0-37.938867-52.218371 68.34875 68.34875 0 0 0-84.547072-42.020685 55.180145 55.180145 0 0 0-82.887721-26.931853L-87.808632-26A60.180145 60.180145 0 0 1-89.413513-44.779724 73.34875 73.34875 0 0 1-41.907196-57.680306 73.34875 73.34875 0 0 1-14.957753-98.875 60.180145 60.180145 0 0 1 1.66448-92z"/>
<g id="b">
<use xlink:href="#a" transform="rotate(72)"/>
<use xlink:href="#a" transform="rotate(216)"/>
</g>
<use xlink:href="#b" transform="rotate(72)"/>
<path d="M-35.355339-40.3555339h6.5v5h57.710678v-5h6.5v5h5v6.5h-5v57.710678h5v6.5h-5v5h-6.5v-5h-57.710678v5h-6.5v-5h-5v-6.5h5v-57.710678h-5v-6.5h5zM25 0A25 25 0 0 0-25 0A25 25 0 0 0 25 0z" transform="rotate(45)"/>
</svg>
