<?xml version="1.0" encoding="UTF-8" standalone="no"?>
<!-- Created with Inkscape (http://www.inkscape.org/) -->

<svg
   xmlns:dc="http://purl.org/dc/elements/1.1/"
   xmlns:cc="http://creativecommons.org/ns#"
   xmlns:rdf="http://www.w3.org/1999/02/22-rdf-syntax-ns#"
   xmlns:svg="http://www.w3.org/2000/svg"
   xmlns="http://www.w3.org/2000/svg"
   xmlns:sodipodi="http://sodipodi.sourceforge.net/DTD/sodipodi-0.dtd"
   xmlns:inkscape="http://www.inkscape.org/namespaces/inkscape"
   version="1.0"
   width="504"
   height="360"
   id="svg2"
   sodipodi:docname="Emblem_of_Konan,_Aichi.svg"
   inkscape:version="0.92.4 (5da689c313, 2019-01-14)">
  <metadata
     id="metadata8">
    <rdf:RDF>
      <cc:Work
         rdf:about="">
        <dc:format>image/svg+xml</dc:format>
        <dc:type
           rdf:resource="http://purl.org/dc/dcmitype/StillImage" />
        <dc:title></dc:title>
      </cc:Work>
    </rdf:RDF>
  </metadata>
  <sodipodi:namedview
     pagecolor="#ffffff"
     bordercolor="#666666"
     borderopacity="1"
     objecttolerance="10"
     gridtolerance="10"
     guidetolerance="10"
     inkscape:pageopacity="0"
     inkscape:pageshadow="2"
     inkscape:window-width="1920"
     inkscape:window-height="996"
     id="namedview6"
     showgrid="false"
     fit-margin-top="0"
     fit-margin-left="0"
     fit-margin-right="0"
     fit-margin-bottom="0"
     inkscape:zoom="0.39333333"
     inkscape:cx="252"
     inkscape:cy="180"
     inkscape:window-x="1912"
     inkscape:window-y="-8"
     inkscape:window-maximized="1"
     inkscape:current-layer="svg2" />
  <defs
     id="defs5" />
  <path
     d="m 212,0 6.5,20.28125 C 161.05673,31.67303 113.90583,71.78267 92.65625,125 H 149.625 C 167.91176,95.58707 198.50059,74.61296 234.1875,69.3125 L 252,125 269.8125,69.3125 C 305.49941,74.61296 336.08824,95.58707 354.375,125 h 56.96875 C 390.09417,71.78267 342.94327,31.67303 285.5,20.28125 L 292,0 Z M 0,130 27.75,186 H 131 v 5 H 30.25 L 58,247 h 32.75 55.90625 79.96875 c -22.57566,-9.81471 -38.375,-32.32652 -38.375,-58.5 0,-26.17349 15.79934,-48.68529 38.375,-58.5 H 146.65625 90.75 Z m 277.375,0 c 22.57566,9.81471 38.375,32.32652 38.375,58.5 0,26.17348 -15.79934,48.68529 -38.375,58.5 H 357.34375 413.25 446 l 27.75,-56 H 372 v -5 H 476.25 L 504,130 H 413.25 357.34375 Z M 252,130.09375 c -32.2644,0 -58.43749,26.20435 -58.4375,58.46875 0,32.2644 26.1731,58.43749 58.4375,58.4375 32.2644,0 58.43749,-26.1731 58.4375,-58.4375 0,-32.2644 -26.1731,-58.46875 -58.4375,-58.46875 z M 92.65625,252 C 117.91404,315.25546 179.76663,359.99999 252,360 324.23338,360 386.08596,315.25547 411.34375,252 H 354.375 c -21.26648,34.2056 -59.15986,57 -102.375,57 -43.21514,-10e-6 -81.10852,-22.7944 -102.375,-57 z"
     id="rect2387"
     style="fill:#318b4d;stroke:none;fill-opacity:1"
     inkscape:connector-curvature="0" />
</svg>
