<?xml version="1.0" encoding="UTF-8" standalone="no"?>
<!-- Created with Inkscape (http://www.inkscape.org/) -->

<svg
   xmlns:dc="http://purl.org/dc/elements/1.1/"
   xmlns:cc="http://creativecommons.org/ns#"
   xmlns:rdf="http://www.w3.org/1999/02/22-rdf-syntax-ns#"
   xmlns:svg="http://www.w3.org/2000/svg"
   xmlns="http://www.w3.org/2000/svg"
   xmlns:sodipodi="http://sodipodi.sourceforge.net/DTD/sodipodi-0.dtd"
   xmlns:inkscape="http://www.inkscape.org/namespaces/inkscape"
   version="1.0"
   width="460"
   height="360"
   id="svg2"
   sodipodi:docname="Emblem_of_Komaki,_Aichi.svg"
   inkscape:version="0.92.4 (5da689c313, 2019-01-14)">
  <metadata
     id="metadata8">
    <rdf:RDF>
      <cc:Work
         rdf:about="">
        <dc:format>image/svg+xml</dc:format>
        <dc:type
           rdf:resource="http://purl.org/dc/dcmitype/StillImage" />
        <dc:title></dc:title>
      </cc:Work>
    </rdf:RDF>
  </metadata>
  <sodipodi:namedview
     pagecolor="#ffffff"
     bordercolor="#666666"
     borderopacity="1"
     objecttolerance="10"
     gridtolerance="10"
     guidetolerance="10"
     inkscape:pageopacity="0"
     inkscape:pageshadow="2"
     inkscape:window-width="1920"
     inkscape:window-height="996"
     id="namedview6"
     showgrid="false"
     fit-margin-top="0"
     fit-margin-left="0"
     fit-margin-right="0"
     fit-margin-bottom="0"
     inkscape:zoom="0.55625733"
     inkscape:cx="110.07732"
     inkscape:cy="294.02304"
     inkscape:window-x="1912"
     inkscape:window-y="-8"
     inkscape:window-maximized="1"
     inkscape:current-layer="svg2" />
  <defs
     id="defs5" />
  <path
     d="M 230,0 C 153.93774,0 88.84334,47.26426 62.5,114 H 97.78125 C 122.03513,65.54477 172.15869,32.25 230,32.25 c 59.80946,-1e-5 111.35595,35.60074 134.59375,86.75 h -44.875 c 11.14923,16.35981 17.92398,35.90847 18.6875,57 H 377 v 8 h -38.59375 c -0.76352,21.09153 -7.53827,40.64019 -18.6875,57 h 44.875 C 341.35595,292.14926 289.80946,327.75 230,327.75 172.15869,327.75001 122.03513,294.45523 97.78125,246 H 62.5 c 26.34334,66.73574 91.43774,114 167.5,114 77.95223,0 144.36813,-49.63155 169.375,-119 H 460 L 427.28125,184 H 410 v -4 -4 h 17.28125 L 460,119 H 399.375 C 374.36813,49.63155 307.95223,0 230,0 Z m 0,84.5 c -52.716,0 -95.5,42.784 -95.5,95.5 0,35.65906 19.5783,66.75386 48.5625,83.15625 L 193.0625,231 C 177.28305,219.54741 167,200.97418 167,180 c 0,-34.776 28.224,-63 63,-63 34.776,0 63,28.224 63,63 0,22.71616 -12.04844,42.6343 -30.09375,53.71875 L 230,128 179.34375,290.75 c 15.4249,7.07201 32.58661,11 50.65625,11 18.06964,0 35.23135,-3.92799 50.65625,-11 l -7.875,-25.34375 C 304.04055,249.70849 325.5,217.34213 325.5,180 325.5,127.284 282.716,84.5 230,84.5 Z M 0,119 32.71875,176 H 82 v 8 H 32.71875 L 0,241 H 140.28125 C 128.4322,223.61331 121.5,202.61241 121.5,180 c 0,-22.61241 6.9322,-43.61331 18.78125,-61 z"
     id="path2386"
     style="fill:#324395;stroke:none"
     inkscape:connector-curvature="0" />
</svg>
