<?xml version="1.0" encoding="utf-8"?>
<!-- Generator: Adobe Illustrator 15.1.0, SVG Export Plug-In . SVG Version: 6.00 Build 0)  -->
<!DOCTYPE svg PUBLIC "-//W3C//DTD SVG 1.1//EN" "http://www.w3.org/Graphics/SVG/1.1/DTD/svg11.dtd" [
	<!ENTITY st0 "fill:#3E3E3E;">
]>
<svg version="1.1" id="svg" xmlns="http://www.w3.org/2000/svg" xmlns:xlink="http://www.w3.org/1999/xlink" x="0px" y="0px"
	 width="200px" height="171.688px" viewBox="0 0 200 171.688" style="enable-background:new 0 0 200 171.688;" xml:space="preserve"
	>
<path id="path2386_1_" style="&st0;" d="M99.986,0L77.643,29.681c7.721,0.458,15.252,1.505,22.545,3.367
	c7.181-1.833,14.588-2.885,22.184-3.353L99.986,0z M69.072,33.919C26.062,33.919,0,53.662,0,53.662L17.167,80.7
	c0,0,13.677-8.942,30.58-12.419c-7.954,10.774-12.661,24.083-12.661,38.493c0,35.832,29.081,64.914,64.914,64.914
	c35.832,0,64.914-29.082,64.914-64.914c0-14.413-4.704-27.731-12.661-38.506c16.2,2.864,30.58,12.433,30.58,12.433L200,53.662
	c0,0-27.035-19.743-67.865-19.743c-19.191,0-32.135,3.863-32.135,3.863S86.824,33.919,69.072,33.919z M100,74.155
	c18.005,0,32.618,14.612,32.618,32.618c0,18.005-14.613,32.617-32.618,32.617s-32.618-14.612-32.618-32.617
	C67.382,88.768,81.995,74.155,100,74.155z"/>
</svg>
