<?xml version="1.0" encoding="UTF-8"?><svg width="453" height="453" viewBox="23 23 453 453" xmlns="http://www.w3.org/2000/svg">
 <circle xmlns="http://www.w3.org/2000/svg" cx="250" cy="250" r="212.4" fill="none" stroke="#221815" stroke-width="25.2"/>
 <path xmlns="http://www.w3.org/2000/svg" d="m292.1 194.5c-19.5 0-98.3-1.3-134.2-1.3s-54.2-7.6-68-7.6c-12.6 0-0.6 15.1 5.7 27.1 6.3 12 17 46.6 22.1 63 5 16.4 6.9 32.1 24.6 32.1 25.8 0 39.1-27.7 120.3-27.7 93.8 0 76.2 30.2 118.4 30.2 10.1 0 32.8-1.9 32.8-34.6 0-34-27.1-88.2-61.7-88.2-22.7 0-19.5 6.9-59.8 6.9z" fill="#221815"/>
</svg>