<?xml version="1.0" encoding="UTF-8"?><svg width="421" height="455" viewBox="40 23 421 455" xmlns="http://www.w3.org/2000/svg">
 <path xmlns="http://www.w3.org/2000/svg" d="m459 25-30.1 145.7h-103.4l13.9-145.7zm-258.4 294.6 0.9 10.3h-97.5l30 145.2h69.5l-11.8-124.4h11.6l11 124.4h71.6l11-124.4h11.6l-11.8 124.4h69.5l30-145.2h-97.5l0.9-10.3zm-159.5-294.6 30.1 145.7h103.4l-13.9-145.7zm149.6 182.6 9 102.2h100.7l9-102.2zm-16.1-182.6 13.6 154.3h-115.3l28.9 140.2h86.8l-11.6-121.7h145.8l-11.6 121.7h86.8l28.9-140.2h-115.3l13.6-154.3z" fill="#38a1da"/>
</svg>