<?xml version="1.0" encoding="UTF-8"?><svg width="452" height="316" viewBox="24 92 452 316" xmlns="http://www.w3.org/2000/svg" version="1.1">
 <path xmlns="http://www.w3.org/2000/svg" opacity=".890" d="m186 351c-51-11-84-50-93.9-118-6.2-42-4.5-82-2.2-124 23.1 53 46.1 115 96.1 137 36.8 15.6 108-9.93 217-78.5 24.8-13.8 47.2-32.8 72-46.3 0.826 0.907-33.5 55.7-48.7 77.7-58.6 84.8-115 134-170 150-17.1 4.7-53.9 6.02-70 2.51z" fill="#c69502"/>
 <path xmlns="http://www.w3.org/2000/svg" opacity=".890" d="m193 237c-25-12-41-30-55-51l19.7-37.9c12.5-22 22.6-31.1 43.8-41.9 39.2-19.9 81.2-17.4 118 6.88 26.7 19.5 33.7 36.3 46.5 64-28.1 16.3-56.4 32.7-86.4 45.1-37 15-72.2 22.5-87.5 15.2zm-101 40c26.8 71.7 73 90.7 134 87.7 80.7-3.94 123-53.4 175-110l69.9 152-446 1.3z" fill="#27885d"/>
</svg>