<?xml version="1.0" encoding="utf-8"?>
<!-- Generator: Adobe Illustrator 15.1.0, SVG Export Plug-In . SVG Version: 6.00 Build 0)  -->
<!DOCTYPE svg PUBLIC "-//W3C//DTD SVG 1.1//EN" "http://www.w3.org/Graphics/SVG/1.1/DTD/svg11.dtd">
<svg version="1.1" id="_x28__x5E__x5F__x5E__x29_" xmlns="http://www.w3.org/2000/svg" xmlns:xlink="http://www.w3.org/1999/xlink"
	 x="0px" y="0px" width="200px" height="215.596px" viewBox="0 0 200 215.596" style="enable-background:new 0 0 200 215.596;"
	 xml:space="preserve">
<path d="M200,70.163l-2.525-5.738C180.415,25.661,142.249,0.493,100.001,0c-42.25,0.492-80.417,25.66-97.476,64.424L0,70.163
	l42.834,37.637L0,145.43l2.524,5.738c17.059,38.771,55.227,63.943,97.477,64.428c42.248-0.484,80.416-25.656,97.476-64.428
	L200,145.43l-42.835-37.631L200,70.163z M20.881,65.727c15.393-29.368,45.729-48.15,79.12-48.614
	c33.39,0.464,63.727,19.246,79.117,48.614l-34.917,30.682l-32.595-28.637l17.302-15.197v-3.872c0-16.178-12.843-29.39-28.907-30.163
	c-16.066,0.773-28.908,13.985-28.908,30.163v3.872l17.303,15.197L55.8,96.409L20.881,65.727z M100.001,135.245l-31.236-27.445
	l18.429-16.19l0.097,0.11l12.711-11.164l12.709,11.164l0.097-0.11l18.428,16.19L100.001,135.245z M111.56,170.354
	c-1.434,5.178-6.012,9.043-11.559,9.559c-5.549-0.516-10.129-4.381-11.561-9.559l11.561-10.154L111.56,170.354z M88.676,45.241
	c1.412-5.104,5.883-8.936,11.325-9.537c5.441,0.602,9.911,4.434,11.325,9.537l-11.325,9.95L88.676,45.241z M179.118,149.868
	c-15.39,29.377-45.728,48.16-79.117,48.615c-33.392-0.455-63.729-19.238-79.12-48.615L55.8,119.19l18.438,16.199l-0.003,0.004
	l14.037,12.33L70.857,163.02v3.873c0,16.258,12.967,29.521,29.144,30.176c16.175-0.654,29.142-13.918,29.142-30.176v-3.873
	l-17.414-15.297l14.038-12.33l-0.004-0.004l18.438-16.199L179.118,149.868z"/>
</svg>
