<?xml version="1.0" encoding="utf-8"?>
<!-- Generator: Adobe Illustrator 15.1.0, SVG Export Plug-In . SVG Version: 6.00 Build 0)  -->
<!DOCTYPE svg PUBLIC "-//W3C//DTD SVG 1.1//EN" "http://www.w3.org/Graphics/SVG/1.1/DTD/svg11.dtd" [
	<!ENTITY st0 "fill:#060A0B;">
]>
<svg version="1.1" id="_x28__x5E__x5F__x5E__x29_" xmlns="http://www.w3.org/2000/svg" xmlns:xlink="http://www.w3.org/1999/xlink"
	 x="0px" y="0px" width="200px" height="162.133px" viewBox="0 0 200 162.133" style="enable-background:new 0 0 200 162.133;"
	 xml:space="preserve">
<path style="&st0;" d="M200,32.929h-69.229L100.039,0L69.306,32.929H0l14.111,31.987h30.156H99.96v0.002
	c0.027,0,0.053-0.002,0.079-0.002c17.983,0,32.614,14.631,32.614,32.615c0,17.983-14.631,32.614-32.614,32.614
	c-17.984,0-32.615-14.631-32.615-32.614c0-8.836,3.538-16.857,9.264-22.736H39.556c-2.66,7.072-4.119,14.733-4.119,22.736
	c0,35.679,28.924,64.602,64.603,64.602c35.678,0,64.602-28.923,64.602-64.602c0-11.897-3.219-23.042-8.83-32.615h30.077L200,32.929z
	 M99.96,32.93L99.96,32.93l0.079-0.001C100.013,32.929,99.986,32.93,99.96,32.93z"/>
</svg>
