<?xml version="1.0" encoding="UTF-8" standalone="no"?>
<svg
   width="500"
   height="474.58566"
   version="1.1"
   viewBox="0 0 500 474.58566"
   id="svg4"
   sodipodi:docname="Emblem_of_Takahama,_Aichi.svg"
   inkscape:version="1.2.1 (9c6d41e410, 2022-07-14)"
   xmlns:inkscape="http://www.inkscape.org/namespaces/inkscape"
   xmlns:sodipodi="http://sodipodi.sourceforge.net/DTD/sodipodi-0.dtd"
   xmlns="http://www.w3.org/2000/svg"
   xmlns:svg="http://www.w3.org/2000/svg">
  <defs
     id="defs8" />
  <sodipodi:namedview
     id="namedview6"
     pagecolor="#ffffff"
     bordercolor="#666666"
     borderopacity="1.0"
     inkscape:showpageshadow="2"
     inkscape:pageopacity="0.0"
     inkscape:pagecheckerboard="0"
     inkscape:deskcolor="#d1d1d1"
     showgrid="false"
     inkscape:zoom="0.841"
     inkscape:cx="86.801427"
     inkscape:cy="199.16766"
     inkscape:window-width="1920"
     inkscape:window-height="996"
     inkscape:window-x="1912"
     inkscape:window-y="-8"
     inkscape:window-maximized="1"
     inkscape:current-layer="svg4" />
  <path
     d="M 202.61009,0.39002701 A 250.00536,250.00536 0 0 0 138.05315,469.40008 a 114.78024,114.78024 0 0 1 18.66707,-41.55644 116.44694,116.44694 0 0 0 186.55955,0 114.78024,114.78024 0 0 1 18.66707,41.55644 A 250.00536,250.00536 0 0 0 297.3899,0.39002701 31.778459,31.778459 0 1 0 323.83491,36.613026 a 205.67108,205.67108 0 0 1 61.44576,346.785214 175.22598,175.22598 0 0 1 -19.00041,-19.66709 116.44694,116.44694 0 1 0 -232.67165,0 A 175.22598,175.22598 0 0 1 114.6082,383.39824 205.67108,205.67108 0 0 1 176.05396,36.613026 31.778459,31.778459 0 1 0 202.61009,0.39002701 Z M 248.8333,145.50425 229.27733,177.28271 A 182.11502,182.11502 0 0 0 71.940619,319.95244 h 52.445571 a 131.22504,131.22504 0 0 1 251.11649,0 h 52.47113 A 182.09279,182.09279 0 0 0 268.19261,177.06048 l -19.33375,-31.44511 z m 1.22225,152.3366 a 60.334627,60.334627 0 0 1 51.89,29.6673 175.22598,175.22598 0 0 0 -103.89111,0 60.334627,60.334627 0 0 1 52.11222,-29.6673 z m 0.11111,82.22399 a 114.78024,114.78024 0 0 1 50.11219,11.5558 60.334627,60.334627 0 0 1 -100.55771,0 114.78024,114.78024 0 0 1 50.44552,-11.5558 z"
     fill="#0077d1"
     id="path2"
     style="stroke-width:1.11113" />
</svg>
