<?xml version="1.0" encoding="UTF-8" standalone="no"?>
<svg
   height="499.99997"
   width="499.99997"
   version="1.1"
   id="svg6"
   sodipodi:docname="Emblem_of_Ōbu,_Aichi.svg"
   inkscape:version="1.2.1 (9c6d41e410, 2022-07-14)"
   xmlns:inkscape="http://www.inkscape.org/namespaces/inkscape"
   xmlns:sodipodi="http://sodipodi.sourceforge.net/DTD/sodipodi-0.dtd"
   xmlns="http://www.w3.org/2000/svg"
   xmlns:svg="http://www.w3.org/2000/svg">
  <defs
     id="defs10" />
  <sodipodi:namedview
     id="namedview8"
     pagecolor="#ffffff"
     bordercolor="#666666"
     borderopacity="1.0"
     inkscape:showpageshadow="2"
     inkscape:pageopacity="0.0"
     inkscape:pagecheckerboard="0"
     inkscape:deskcolor="#d1d1d1"
     showgrid="false"
     inkscape:zoom="0.841"
     inkscape:cx="60.642093"
     inkscape:cy="268.13317"
     inkscape:window-width="1920"
     inkscape:window-height="996"
     inkscape:window-x="1912"
     inkscape:window-y="-8"
     inkscape:window-maximized="1"
     inkscape:current-layer="svg6" />
  <path
     d="m 432.66665,236.33332 -48.77778,62.44444 c -31.22222,-34.44444 -67.88889,-51.55555 -112.88889,-53.88889 0,-2.88889 0,-5.66666 0,-8.55555 z m -88.55556,140.77777 25.88889,-33.11111 c 4.77778,9.55556 8.77778,20.44445 11.77778,33.11111 m -209.77777,24.66667 c -17.55556,10.11111 -37.33334,3.77778 -38.11111,-21 -0.33334,-12.44445 20.88888,-85.33333 96.66666,-98 -16.77778,86.88889 -51.22222,114.66666 -58.55555,118.88889 z M 138.55554,74.666652 c 22.11111,17.222225 84.33333,67.777778 95,144.444448 h -95 z M 121.67777,71.888875 V 235.99998 H 235.0111 c 0.11111,3.22223 0.11111,6.44445 0,9.77778 -45.11111,4.44445 -82.88889,26.33333 -108.77778,64.88889 -13.22222,19.77778 -29.000003,41.88889 -28.666673,67.22222 0.44445,50.33333 51.888893,86 96.555563,52.44444 5.33333,-4 55.77777,-44 73.44444,-149.77777 21.66667,0.66667 65.11111,7.11111 93.44444,47.66666 l -54.77777,65.55556 h 113.33333 c 0.88888,-26.77778 -12.66667,-61 -25.11111,-81 l 73.1111,-93.55555 H 270.12221 c -10.66667,-93.55556 -77.33334,-144.111113 -81,-146.888891"
     fill="#3e9738"
     id="path2"
     style="stroke-width:1.11111" />
  <circle
     cx="249.99998"
     cy="249.99998"
     r="242.88889"
     stroke="#3e9738"
     stroke-width="14.2222"
     fill="none"
     id="circle4" />
</svg>
