<?xml version="1.0" encoding="UTF-8" standalone="no"?>
<svg
   height="277.64859"
   width="300"
   version="1.1"
   viewBox="0 0 300 277.64859"
   id="svg10"
   sodipodi:docname="Emblem_of_Tokai,_Aichi.svg"
   inkscape:version="1.2.1 (9c6d41e410, 2022-07-14)"
   xmlns:inkscape="http://www.inkscape.org/namespaces/inkscape"
   xmlns:sodipodi="http://sodipodi.sourceforge.net/DTD/sodipodi-0.dtd"
   xmlns="http://www.w3.org/2000/svg"
   xmlns:svg="http://www.w3.org/2000/svg">
  <defs
     id="defs14" />
  <sodipodi:namedview
     id="namedview12"
     pagecolor="#ffffff"
     bordercolor="#666666"
     borderopacity="1.0"
     inkscape:showpageshadow="2"
     inkscape:pageopacity="0.0"
     inkscape:pagecheckerboard="0"
     inkscape:deskcolor="#d1d1d1"
     showgrid="false"
     inkscape:zoom="1.5574074"
     inkscape:cx="89.250892"
     inkscape:cy="80.58264"
     inkscape:window-width="1920"
     inkscape:window-height="996"
     inkscape:window-x="1912"
     inkscape:window-y="-8"
     inkscape:window-maximized="1"
     inkscape:current-layer="svg10" />
  <g
     transform="matrix(1.0714286,0,0,1.0714286,-5.357143,-844.52519)"
     fill="#0a5536"
     id="g8">
    <path
       d="m 147,35.861328 v 60.011719 l 29.90234,30.519533 A 88.000023,88.000023 0 0 1 201,123 a 88.000023,88.000023 0 0 1 41.70508,10.53906 z"
       fill-rule="evenodd"
       transform="translate(0,752.36216)"
       id="path2" />
    <path
       d="M 143,35.861328 29.007812,152.23047 C 13.625667,167.92563 5.0068569,189.02391 5,211 c 1.27e-5,46.39191 37.608086,83.99999 84,84 23.50956,-10e-6 44.75111,-9.66958 59.99805,-25.23438 l 54.80273,-55.9082 -29.40039,-30.00586 -55.40053,56.53111 c -7.62349,7.78263 -18.24502,12.61718 -30,12.61719 -23.195954,-1e-5 -41.999987,-18.80405 -42,-42 1.3e-5,-23.19595 18.804046,-41.99999 42,-42 8.552187,0 16.50282,2.56319 23.13867,6.95312 l 29.62891,-30.23828 c -9.14968,-7.3975 -19.94869,-12.94954 -31.91016,-16.01562 L 143,95.873047 Z"
       transform="translate(0,752.36216)"
       id="path4" />
    <path
       d="m 201,127 a 84.000023,84.000023 0 0 0 -59.98828,25.22461 L 141,152.21289 140.74219,152.47656 86.199219,208.14258 115.60156,238.14844 171,181.60742 l 0.0273,0.0469 A 42.000023,42.000023 0 0 1 201,169 a 42.000023,42.000023 0 0 1 42,42 42.000023,42.000023 0 0 1 -42,42 42.000023,42.000023 0 0 1 -23.12109,-6.97266 l -29.58985,30.20118 A 84.000023,84.000023 0 0 0 201,295 84.000023,84.000023 0 0 0 285,211 84.000023,84.000023 0 0 0 201,127 Z"
       transform="translate(0,752.36216)"
       id="path6" />
  </g>
</svg>
