<?xml version="1.0" encoding="UTF-8" standalone="no"?>
<!-- Created with Inkscape (http://www.inkscape.org/) -->

<svg
   xmlns:dc="http://purl.org/dc/elements/1.1/"
   xmlns:cc="http://creativecommons.org/ns#"
   xmlns:rdf="http://www.w3.org/1999/02/22-rdf-syntax-ns#"
   xmlns:svg="http://www.w3.org/2000/svg"
   xmlns="http://www.w3.org/2000/svg"
   version="1.1"
   width="350"
   height="339.56"
   id="svg2">
  <defs
     id="defs10" />
  <metadata
     id="metadata7">
    <rdf:RDF>
      <cc:Work
         rdf:about="">
        <dc:format>image/svg+xml</dc:format>
        <dc:type
           rdf:resource="http://purl.org/dc/dcmitype/StillImage" />
        <dc:title></dc:title>
      </cc:Work>
    </rdf:RDF>
  </metadata>
  <g
     transform="translate(-69.625001,-403.28846)"
     id="layer1">
    <g
       transform="matrix(1.0922567,0,0,1.0922567,-6.4233714,-68.532298)"
       id="g3840"
       style="fill:#000000">
      <path
         d="m 216.47,431.97 c -82.23,6.79 -146.84,75.67 -146.84,159.65 0,69.862 44.724,129.29 107.09,151.22 l 53.125,-150.47 -65.406,74.75 c -21.13,-18.32 -34.5,-45.348 -34.5,-75.5 0,-52.354 40.3,-95.293 91.562,-99.531 l -5.0312,-60.125 z"
         id="path3838" />
      <path
         d="m 229.84,592.38 53.125,150.47 c 62.38,-21.93 107.1,-81.36 107.1,-151.23 0,-83.978 -64.622,-152.85 -146.84,-159.66 l -5.0312,60.125 c 51.259,4.2379 91.531,47.177 91.531,99.531 0,30.152 -13.347,57.18 -34.469,75.5 l -65.406,-74.75 z"
         id="path3836" />
    </g>
  </g>
</svg>
