<?xml version="1.0" encoding="UTF-8" standalone="no"?>
<svg xmlns="http://www.w3.org/2000/svg" xmlns:xlink="http://www.w3.org/1999/xlink" height="370" width="360" version="1.1" viewBox="0 0 360 370">
 <path id="path4467" d="m180 10c-38.67708 0.0315-72.74516 25.452118-83.787109 62.519531l-18.699219 62.480469h-52.175781l-14.908203 50h52.175781l-14.908203 50h52.177734l14.90625-50h65.21875c48.32492 0 87.5-39.17508 87.5-87.5 0-48.324916-39.17508-87.5-87.5-87.5zm0 50c20.71068 0 37.5 16.789322 37.5 37.5 0 20.71068-16.78932 37.5-37.5 37.5h-50.3125l14.36719-48.216797 0.00781 0.001953c4.61169-15.487544 18.95172-26.785156 35.9375-26.785156z" fill-rule="evenodd" fill="#016718"/>
 <use xlink:href="#path4467" transform="matrix(-1,0,0,-1,360,370)" height="100%" width="100%" y="0" x="0"/>
</svg>
