<?xml version="1.0" encoding="UTF-8"?><svg width="455" height="345" viewBox="22 77 455 345" xmlns="http://www.w3.org/2000/svg">
 <path xmlns="http://www.w3.org/2000/svg" d="m469.2 350.1s-72.1-21.1-84.1-24.1c-12.1-3-38.5-3.8-40.4 5.6-1.9 9.4 15.5 18.1 45.6 24.2 1.1-7.5 14.3-12.8 33.6-8.3 19.3 4.5 34 9.4 32.8 16.2-1.1 6.8-31.7 14-72.1 6.8-40.4-7.2-91-23.8-84.9-48.3 6-24.2 73.6-17.2 88.7-14 21.1 4.5 66 14.7 80.7 41.9m-290.9-42.3c-15.83-5.7-38.9-4.9-72.4 1.9s-56.6 18.9-69 33.6l114-13.5-84.1 43c22.3 1.9 56.1-1.9 75.8-7.5 24.9-7.2 58.5-18.5 61.9-41.5 12.8-4.1 23-6.5 20-14.7-2.6-7.2-19.3-6-23.8-5.3-4.5 0.8-18.9 3.4-22.3 4.1m72.1-166.4c11.3 0 25.3 19.6 25.3 43.8v105.2c9.8-8.7 32.8-41.9 32.8-103 0-49.8-21.5-107.1-58.1-107.1s-58.1 57.3-58.1 107.1c0 61.1 23 94.3 32.8 103v-105.2c0-24.14 14-43.8 25.3-43.8" fill="#82ba41"/>
 <path xmlns="http://www.w3.org/2000/svg" d="m250.9 329.1c-32.3 0-58.5 20.3-58.5 45.3s26.2 45.3 58.5 45.3c32.3 0 58.5-20.3 58.5-45.3 0-25-26.2-45.3-58.5-45.3zm0 65.1c-14.2 0-25.7-8.9-25.7-19.9s11.5-19.9 25.7-19.9c14.2 0 25.7 8.9 25.7 19.9 0 11-11.5 19.9-25.7 19.9m58.3-130.2c7.9-12.4 37-30.2 77.3-35.8 40.4-5.7 85.1-4.2 88.3 15.5 3 18.9-37.4 38.1-69.8 44.1-32.5 6-59.6 4.1-63.8 4.1l83.1-42.9-115.1 15.1m-118.5 0c-7.9-12.4-37-30.2-77.3-35.8-40.4-5.7-85.1-4.2-88.3 15.5-3 18.9 37.4 38.1 69.8 44.1 32.4 6 59.6 4.1 63.8 4.1l-82.9-43 115.1 15.1" fill-rule="evenodd" fill="#105ba3"/>
</svg>