<?xml version="1.0" encoding="utf-8"?>
<!-- Generator: Adobe Illustrator 18.0.0, SVG Export Plug-In . SVG Version: 6.00 Build 0)  -->
<!DOCTYPE svg PUBLIC "-//W3C//DTD SVG 1.1//EN" "http://www.w3.org/Graphics/SVG/1.1/DTD/svg11.dtd">
<svg version="1.1" id="Layer_2" xmlns="http://www.w3.org/2000/svg" xmlns:xlink="http://www.w3.org/1999/xlink" x="0px" y="0px"
	 viewBox="0 0 167 190" style="enable-background:new 0 0 167 190;" width="167" height="190">
<style type="text/css">
	.st0{fill:#1B1986;}
</style>
<path class="st0" d="M157.1,40.3h-68L83.5,2.5l-5.6,37.9h-68c0,0,6.4,11.2,16,27.8c-10,12.6-16,28.5-16,45.8c0,39.4,31,71.6,70,73.6
	v-20c-7-0.5-13.7-2.3-19.8-5.3h46.9c-6,2.9-12.7,4.8-19.8,5.3v20c39-1.9,70-34.1,70-73.6c0-17.3-6-33.2-16-45.8
	C150.7,51.6,157.1,40.3,157.1,40.3z M29.8,114c0-9.7,2.6-18.8,7.2-26.7c8,13.6,16.9,28.9,25.7,43.7C46,96.3,62,73.2,73.8,61.2
	c0.3-0.1,0.7-0.1,1-0.2l-15,101.2C42.1,153.4,29.8,135.1,29.8,114z M137.2,114c0,21.1-12.3,39.4-30.1,48.2L92.1,61
	c0.3,0.1,0.7,0.1,1,0.2c11.9,12,27.8,35.1,11.1,69.8c8.8-14.8,17.8-30,25.7-43.7C134.6,95.1,137.2,104.2,137.2,114z"/>
</svg>
