<?xml version="1.0" encoding="UTF-8"?><svg width="457" height="388" viewBox="22 55 457 388" xmlns="http://www.w3.org/2000/svg">
 <path xmlns="http://www.w3.org/2000/svg" fill="#3d9f38" d="m50.4 196.2s23.2-40.6 96.3-36c73.1 4.6 124.1 112.5 124.1 112.5 45.3-36 48.7-81.2 48.7-81.2s-43-65.8-125.3-73.1c-57.7-5.1-115.6 26.5-143.8 77.7zm312 37.1-60.3 95.1c8.1 14 25.5 73.1 25.51 73.11 67.4-11.6 147.4 23.3 147.4 23.3-34.8-82.4-112.5-191.4-112.5-191.4z"/>
 <path xmlns="http://www.w3.org/2000/svg" fill="#0c5ea6" d="m299.8 269.3c-97.4 120.6-185.6 38.3-150.8-11.6 0 0 11.6-26.7 55.7-32.5 0 0-120.7-30.2-168.2 71.9-47.6 102.1 61.5 176.4 167.1 128.8 105.5-47.6 164.7-121.8 177.5-225.1 0 0 7-103.2-69.6-141.5 0 0 85.9 89.3-11.6 210z"/>
 <circle xmlns="http://www.w3.org/2000/svg" fill="#d2171e" cx="281.3" cy="98.8" r="23"/>
</svg>