<?xml version="1.0" encoding="UTF-8"?><svg width="454" height="370" viewBox="23 63 454 370" xmlns="http://www.w3.org/2000/svg">
 <g xmlns="http://www.w3.org/2000/svg" fill="#00b8ee">
  <path d="m210.2 65.02a182.5 182.5 0 0 0 -131.8 53.48 182.5 182.5 0 0 0 -44.91 183.6 155 155 0 0 1 41.91 -141.7 155 155 0 0 1 219.2 0 155 155 0 0 1 0 219.2 155 155 0 0 1 -141.2 42.1 182.5 182.5 0 0 0 183.1 -45.2 182.5 182.5 0 0 0 0 -258 182.5 182.5 0 0 0 -126.3 -53.48z"/>
  <circle cx="115" cy="340" r="58"/>
 </g>
 <path xmlns="http://www.w3.org/2000/svg" fill="#0d3387" d="m265.9 155.8a167.5 82.5 0 0 0 -125.9 79.9 167.5 82.5 0 0 0 167.5 82.5 167.5 82.5 0 0 0 167.5 -82.5 167.5 82.5 0 0 0 -67.6 -66.1 122.5 47.5 0 0 1 27.8 30.1 122.5 47.5 0 0 1 -122.5 47.5 122.5 47.5 0 0 1 -122.5 -47.5 122.5 47.5 0 0 1 75.7 -43.9zm19.5 1.9a101 38 0 0 0 -72.7 36.4 101 38 0 0 0 101 38 101 38 0 0 0 101 -38 101 38 0 0 0 -43.6 -31.3 72.5 21 0 0 1 17.9 13.8 72.5 21 0 0 1 -72.5 21 72.5 21 0 0 1 -72.5 -21 72.5 21 0 0 1 41.4 -18.9z"/>
</svg>