<?xml version="1.0" encoding="UTF-8"?><svg width="276" height="456" viewBox="112 23 276 456" xmlns="http://www.w3.org/2000/svg" version="1.1">
 <path xmlns="http://www.w3.org/2000/svg" d="m182.5 25a67.5 67.5 0 0 0 -67.5 67.5 67.5 67.5 0 0 0 67.5 67.5 67.5 67.5 0 0 0 67.5 -67.5 67.5 67.5 0 0 0 -67.5 -67.5zm101 0a121.7 121.7 0 0 1 20.7 67.5 121.7 121.7 0 0 1 -89.9 117.5l0.0148 0.0558a135 135 0 0 0 -99.28 129.8 135 135 0 0 0 0 0.1935 135 135 0 0 0 135 135 135 135 0 0 0 135 -135 135 135 0 0 0 -26.36 -79.88 243.4 243.4 0 0 1 -52.87 41.97 67.5 67.5 0 0 1 11.73 37.91 67.5 67.5 0 0 1 -67.5 67.5 67.5 67.5 0 0 1 -67.5 -67.5 67.5 67.5 0 0 1 50.67 -65.32l-0.0336-0.123a189.3 189.3 0 0 0 138.6 -182.1 189.3 189.3 0 0 0 -12.71 -67.5h-75.57z" fill="#008001"/>
</svg>