<?xml version="1.0" encoding="UTF-8" standalone="no"?>
<!-- Created with Inkscape (http://www.inkscape.org/) -->

<svg
   xmlns:dc="http://purl.org/dc/elements/1.1/"
   xmlns:cc="http://creativecommons.org/ns#"
   xmlns:rdf="http://www.w3.org/1999/02/22-rdf-syntax-ns#"
   xmlns:svg="http://www.w3.org/2000/svg"
   xmlns="http://www.w3.org/2000/svg"
   xmlns:sodipodi="http://sodipodi.sourceforge.net/DTD/sodipodi-0.dtd"
   xmlns:inkscape="http://www.inkscape.org/namespaces/inkscape"
   width="300"
   height="300"
   id="svg2"
   version="1.1"
   inkscape:version="0.48.4 r9939"
   sodipodi:docname="Symbol of Oguchi Aichi.svg">
  <defs
     id="defs4" />
  <sodipodi:namedview
     id="base"
     pagecolor="#ffffff"
     bordercolor="#666666"
     borderopacity="1.0"
     inkscape:pageopacity="0.0"
     inkscape:pageshadow="2"
     inkscape:zoom="2.5678799"
     inkscape:cx="144.67188"
     inkscape:cy="144.67188"
     inkscape:document-units="px"
     inkscape:current-layer="layer1"
     showgrid="true"
     inkscape:window-width="1280"
     inkscape:window-height="961"
     inkscape:window-x="-4"
     inkscape:window-y="-4"
     inkscape:window-maximized="1"
     inkscape:snap-grids="true"
     fit-margin-top="0"
     fit-margin-left="0"
     fit-margin-right="0"
     fit-margin-bottom="0">
    <inkscape:grid
       type="xygrid"
       id="grid3773"
       empspacing="5"
       visible="true"
       enabled="true"
       snapvisiblegridlinesonly="true"
       originx="-225.14753px"
       originy="-303.15405px" />
  </sodipodi:namedview>
  <metadata
     id="metadata7">
    <rdf:RDF>
      <cc:Work
         rdf:about="">
        <dc:format>image/svg+xml</dc:format>
        <dc:type
           rdf:resource="http://purl.org/dc/dcmitype/StillImage" />
        <dc:title />
      </cc:Work>
    </rdf:RDF>
  </metadata>
  <g
     inkscape:label="レイヤー 1"
     inkscape:groupmode="layer"
     id="layer1"
     transform="translate(-225.14753,-449.20813)">
    <path
       style="fill:#000000;fill-opacity:1;fill-rule:evenodd;stroke:none"
       d="m 375.16385,449.20813 c -82.83673,0 -150.01632,67.14713 -150.01632,149.98368 0,55.88298 30.58618,104.63301 75.91548,130.44622 l -11.43764,19.5701 67.39384,0 18.27421,-28.93388 18.01475,28.93388 67.39399,0 -11.37277,-19.60247 c 45.29872,-25.81875 75.81814,-74.54647 75.81814,-130.41385 0,-82.83655 -67.14712,-149.98368 -149.98368,-149.98368 z m -2.36537,58.93733 c 0.78112,-0.0191 1.57926,0 2.36537,0 50.29965,0 91.07899,40.74671 91.07899,91.04635 0,34.12424 -18.75129,63.84681 -46.52778,79.44716 L 375.4229,602.3672 330.80691,678.73623 c -27.86661,-15.57534 -46.72205,-45.35349 -46.72205,-79.54442 0,-49.51375 39.50026,-89.79969 88.71362,-91.04635 z"
       id="path2996"
       inkscape:connector-curvature="0" />
  </g>
</svg>
