<?xml version="1.0" encoding="UTF-8" standalone="no"?>
<svg
   sodipodi:docname="Oharu_Aichi_chapter.svg"
   inkscape:version="1.1 (c68e22c387, 2021-05-23)"
   id="svg8"
   version="1.1"
   viewBox="0 0 270.93333 270.93334"
   height="1024"
   width="1024"
   xmlns:inkscape="http://www.inkscape.org/namespaces/inkscape"
   xmlns:sodipodi="http://sodipodi.sourceforge.net/DTD/sodipodi-0.dtd"
   xmlns="http://www.w3.org/2000/svg"
   xmlns:svg="http://www.w3.org/2000/svg"
   xmlns:rdf="http://www.w3.org/1999/02/22-rdf-syntax-ns#"
   xmlns:cc="http://creativecommons.org/ns#"
   xmlns:dc="http://purl.org/dc/elements/1.1/">
  <defs
     id="defs2" />
  <sodipodi:namedview
     inkscape:window-maximized="1"
     inkscape:window-y="-11"
     inkscape:window-x="-11"
     inkscape:window-height="1566"
     inkscape:window-width="2560"
     units="px"
     showgrid="false"
     inkscape:document-rotation="0"
     inkscape:current-layer="layer1"
     inkscape:document-units="px"
     inkscape:cy="475"
     inkscape:cx="496.42857"
     inkscape:zoom="1.4"
     inkscape:pageshadow="2"
     inkscape:pageopacity="0.0"
     borderopacity="1.0"
     bordercolor="#666666"
     pagecolor="#ffffff"
     id="base"
     inkscape:pagecheckerboard="0" />
  <metadata
     id="metadata5">
    <rdf:RDF>
      <cc:Work
         rdf:about="">
        <dc:format>image/svg+xml</dc:format>
        <dc:type
           rdf:resource="http://purl.org/dc/dcmitype/StillImage" />
      </cc:Work>
    </rdf:RDF>
  </metadata>
  <g
     id="layer1"
     inkscape:groupmode="layer"
     inkscape:label="Layer 1">
    <path
       id="path856"
       style="color:#000000;fill:#0e247d;stroke-width:3.77953;stroke-linecap:round;stroke-linejoin:round;stroke-dashoffset:64.8;-inkscape-stroke:none;paint-order:markers fill stroke"
       d="M 512 26.427734 A 19.999999 19.999999 0 0 0 492.00391 46.431641 L 492.00391 87.035156 C 247.49489 97.529356 52.085951 299.43038 52.085938 546.49609 C 52.085938 789.32544 240.88103 988.41268 479.5 1005.1367 L 479.5 965.03711 C 262.59254 948.46425 92.082031 767.69684 92.082031 546.49609 C 92.082046 321.05094 269.16468 137.47794 492.00391 127.06055 L 492.00391 167.95508 C 292.16096 178.3788 132.94141 344.09068 132.94141 546.49609 C 132.94139 744.65304 285.57267 907.53674 479.5 924.07227 L 479.5 883.97266 C 307.30245 867.65024 172.93553 723.02379 172.93555 546.49609 C 172.93555 359.00012 324.50401 207.43165 512 207.43164 C 699.49597 207.43163 851.06641 359.0001 851.06641 546.49609 C 851.06643 723.02379 716.69775 867.65027 544.5 883.97266 L 544.5 924.07227 C 738.4275 907.53674 891.06055 744.65308 891.06055 546.49609 C 891.06051 344.09069 731.84093 178.37883 531.99805 167.95508 L 531.99805 127.06055 C 754.83724 137.47792 931.91992 321.05093 931.91992 546.49609 C 931.91992 767.69684 761.40763 948.46425 544.5 965.03711 L 544.5 1005.1367 C 783.11896 988.41276 971.91406 789.32544 971.91406 546.49609 C 971.91406 299.43082 776.50642 97.530022 531.99805 87.035156 L 531.99805 46.431641 A 19.999999 19.999999 0 0 0 512 26.427734 z "
       transform="scale(0.26458333)" />
    <path
       style="fill:none;stroke:#0e247d;stroke-width:14.55208342;stroke-linecap:round;stroke-linejoin:miter;stroke-miterlimit:4;stroke-dasharray:none;stroke-opacity:1"
       d="m 102.09696,207.66842 c -5.392799,-24.1839 -5.503207,-42.47413 0.13364,-62.54107 5.63684,-20.06695 5.30217,-41.66187 0.13363,-63.20924"
       id="path20134"
       sodipodi:nodetypes="czc" />
    <path
       id="path20786"
       style="color:#000000;fill:#0e247d;fill-opacity:1;stroke-width:3.77953;stroke-linecap:round;-inkscape-stroke:none"
       d="M 453.8125 282.12891 A 27.500032 27.500032 0 0 0 448.47266 282.86719 A 27.500032 27.500032 0 0 0 428.15039 316.02539 C 444.67469 384.91427 447.28761 453.11498 433.81641 516.94531 L 489.88281 516.94531 C 502.65319 447.45537 498.82776 374.89029 481.63086 303.19727 A 27.500032 27.500032 0 0 0 453.8125 282.12891 z M 418.58789 580.83789 C 406.19058 646.86308 409.5283 712.36424 427.03516 790.87305 A 27.500032 27.500032 0 0 0 459.86328 811.72656 A 27.500032 27.500032 0 0 0 480.7168 778.90039 C 463.27695 700.69204 461.08095 642.60462 474.62695 580.83789 L 418.58789 580.83789 z "
       transform="scale(0.26458333)" />
    <path
       id="path20932"
       style="color:#000000;fill:#0e247d;fill-opacity:1;stroke-width:1;stroke-linecap:round;-inkscape-stroke:none"
       d="m 84.087763,74.646606 a 7.27605,7.27605 0 0 0 -1.412834,0.195337 7.27605,7.27605 0 0 0 -5.3769,8.773107 c 4.372026,18.22685 5.063363,36.27162 1.499124,53.16006 h 14.834156 c 3.378809,-18.38588 2.366665,-37.585389 -2.183318,-56.554167 a 7.27605,7.27605 0 0 0 -7.360228,-5.574337 z m -9.319799,79.033414 c -3.280102,17.46917 -2.397005,34.79968 2.234998,55.57181 a 7.27605,7.27605 0 0 0 8.685722,5.51749 7.27605,7.27605 0 0 0 5.517467,-8.68526 c -4.614273,-20.69263 -5.19529,-36.06159 -1.611271,-52.40404 z" />
    <path
       style="fill:none;stroke:#0e247d;stroke-width:14.5521;stroke-linecap:round;stroke-linejoin:round;stroke-miterlimit:4;stroke-dasharray:none;stroke-opacity:1"
       d="m 159.159,125.48304 h -15.50163 c -4.67872,8.90568 -3.37355,18.24115 1.60362,18.97614 h 40.09043 c 13.75024,0 13.43286,-38.88772 0.53454,-38.88772 l -42.22859,0 V 82.319012 l 38.88771,0"
       id="path20967"
       sodipodi:nodetypes="cccccccc" />
    <path
       style="fill:none;stroke:#0e247d;stroke-width:14.5521;stroke-linecap:round;stroke-linejoin:round;stroke-miterlimit:4;stroke-dasharray:none;stroke-opacity:1"
       d="m 143.06398,160.16741 c 0,13.27259 -0.3076,32.46745 4.9137,46.11309 h 36.4747 c 8.24623,-14.12732 6.2366,-30.69264 6.2366,-45.45164"
       id="path23100"
       sodipodi:nodetypes="cccc" />
    <path
       style="fill:none;stroke:#0e247d;stroke-width:14.5521;stroke-linecap:butt;stroke-linejoin:miter;stroke-miterlimit:4;stroke-dasharray:none;stroke-opacity:1"
       d="m 145.04836,168.04821 h 43.65625"
       id="path24015" />
  </g>
</svg>
