<?xml version="1.0" encoding="UTF-8"?><svg width="400" height="400" viewBox="50 50 400 400" xmlns="http://www.w3.org/2000/svg" version="1.1">
 <path xmlns="http://www.w3.org/2000/svg" fill="#000000" d="m250.3 50.16c-36.63 0-70.98 9.821-100.5 27.02v-26.54l-99.55 29.26v343.1h99.5c29.5 17.2 63.9 27 100.5 27 106.1 0 192.7-82.6 199.4-187h-98.48c-6.401 50.11-49.12 88.83-101 88.83-50.51 0-92.44-36.71-100.5-84.92v-33.91c8.078-48.21 50-84.98 100.5-84.98 51.85 0 94.58 38.77 101 88.89h98.48c-6.7-104.1-93.5-186.9-199.4-186.9z"/>
</svg>