<svg xmlns="http://www.w3.org/2000/svg" width="200" height="200"><path fill="#006924" d="M100 1.468L86.949 23.193c-19.188 3.072-36.573 12.816-48.921 27.419l-25.818.122 12.789 21.774c-3.016 7.768-4.735 15.978-5.088 24.303h41.323C62.939 77.227 79.783 62.173 100 62.16c20.221.012 37.064 15.067 38.77 34.65h41.25a76.08 76.08 0 0 0-5.056-24.236l12.825-21.84-25.805-.121c-12.351-14.621-29.748-24.377-48.952-27.451L100 1.468m-5.252 95.274l-13.641 36.326c-11.326-6.125-18.773-17.327-19.864-29.881H19.984a76.03 76.03 0 0 0 5.055 24.236l-12.828 21.842 25.807.121c12.35 14.62 29.748 24.377 48.951 27.449L100 198.533l13.052-21.727c19.187-3.07 36.573-12.814 48.921-27.418l25.815-.121L175 127.494a76.08 76.08 0 0 0 5.089-24.303h-41.33c-1.104 12.543-8.556 23.733-19.878 29.851L105.25 96.745l-5.254 13.989-5.252-13.989"/></svg>