<?xml version="1.0" encoding="UTF-8" standalone="no"?>
<!-- Created with Inkscape (http://www.inkscape.org/) -->

<svg
   xmlns:dc="http://purl.org/dc/elements/1.1/"
   xmlns:cc="http://creativecommons.org/ns#"
   xmlns:rdf="http://www.w3.org/1999/02/22-rdf-syntax-ns#"
   xmlns:svg="http://www.w3.org/2000/svg"
   xmlns="http://www.w3.org/2000/svg"
   xmlns:sodipodi="http://sodipodi.sourceforge.net/DTD/sodipodi-0.dtd"
   xmlns:inkscape="http://www.inkscape.org/namespaces/inkscape"
   width="300"
   height="292.76132"
   id="svg2"
   version="1.1"
   inkscape:version="0.48.4 r"
   sodipodi:docname="Symbol of Shitara Aichi.svg">
  <defs
     id="defs4" />
  <sodipodi:namedview
     id="base"
     pagecolor="#ffffff"
     bordercolor="#666666"
     borderopacity="1.0"
     inkscape:pageopacity="0.0"
     inkscape:pageshadow="2"
     inkscape:zoom="2.4566666"
     inkscape:cx="150"
     inkscape:cy="146.38067"
     inkscape:document-units="px"
     inkscape:current-layer="layer1"
     showgrid="false"
     inkscape:window-width="1280"
     inkscape:window-height="961"
     inkscape:window-x="-8"
     inkscape:window-y="-8"
     inkscape:window-maximized="1"
     fit-margin-top="0"
     fit-margin-left="0"
     fit-margin-right="0"
     fit-margin-bottom="0" />
  <metadata
     id="metadata7">
    <rdf:RDF>
      <cc:Work
         rdf:about="">
        <dc:format>image/svg+xml</dc:format>
        <dc:type
           rdf:resource="http://purl.org/dc/dcmitype/StillImage" />
        <dc:title></dc:title>
      </cc:Work>
    </rdf:RDF>
  </metadata>
  <g
     inkscape:label="レイヤー 1"
     inkscape:groupmode="layer"
     id="layer1"
     transform="translate(-168.18763,-331.05827)">
    <g
       id="g3808"
       transform="matrix(1.0415466,0,0,1.0415466,-6.9876205,-25.917569)">
      <path
         transform="matrix(1.4894827,0,0,1.5845562,-145.54416,-286.69377)"
         d="m 316.58846,507.77603 c 0,11.67302 -10.06686,21.13588 -22.48497,21.13588 -12.41812,0 -22.48498,-9.46286 -22.48498,-21.13588 0,-11.67302 10.06686,-21.13588 22.48498,-21.13588 12.41811,0 22.48497,9.46286 22.48497,21.13588 z"
         sodipodi:ry="21.135878"
         sodipodi:rx="22.484978"
         sodipodi:cy="507.77603"
         sodipodi:cx="294.10349"
         id="path3789"
         style="fill:#f86300;fill-opacity:1;stroke:none"
         sodipodi:type="arc" />
      <path
         sodipodi:nodetypes="csssccssc"
         inkscape:connector-curvature="0"
         id="path3791"
         d="m 238.34075,537.00651 c -26.75555,-11.37483 -44.72779,-33.12178 -45.45687,-65.24365 -0.99241,-43.7238 41.72349,-73.55375 79.74875,-87.31615 30.29893,-10.96602 76.12816,-15.52967 99.23167,-19.44874 27.85963,-4.72585 56.21033,-10.66912 81.43283,-22.26166 7.80609,30.23846 -5.53652,76.54812 -20.68618,95.33631 -31.67964,-2.03261 -93.72744,-1.49068 -136.70866,14.39038 -20.82719,7.6954 -43.97146,18.42643 -54.86334,37.77476 -7.66019,13.60755 -7.1449,32.79481 -2.6982,46.76875 z"
         style="fill:#f80000;fill-opacity:1;stroke:none" />
      <path
         sodipodi:nodetypes="cscssc"
         inkscape:connector-curvature="0"
         id="path3793"
         d="m 168.18763,581.07707 c 64.95599,6.36264 153.90363,-5.33127 182.91605,-47.25567 14.85476,-21.46587 17.34392,-41.90049 8.91955,-68.91569 27.03992,13.53725 50.96016,44.4217 45.90352,66.29193 -9.62539,41.6303 -62.6162,60.17741 -105.26997,65.73057 -27.05661,3.52254 -100.52346,1.25107 -132.46915,-15.85114 z"
         style="fill:#094096;fill-opacity:1;stroke:none" />
      <path
         sodipodi:nodetypes="csscssc"
         inkscape:connector-curvature="0"
         id="path3795"
         d="m 203.60223,599.89001 c 71.38591,8.93121 101.30722,6.18017 142.22587,-4.38839 28.3283,-7.31669 72.60371,-34.6391 70.10675,-72.3644 -1.66777,-25.19754 -26.4956,-48.58515 -47.40455,-64.86535 43.17517,13.92129 87.16685,35.9231 87.68835,84.73267 0.37234,34.84878 -46.91054,65.09987 -74.27792,71.27585 -45.72567,10.31888 -123.63249,19.7765 -178.3385,-14.39038 z"
         style="fill:#094096;fill-opacity:1;stroke:none" />
    </g>
  </g>
</svg>
