<?xml version="1.0" encoding="UTF-8"?><svg width="454" height="326" viewBox="23 88 454 326" xmlns="http://www.w3.org/2000/svg">
 <path xmlns="http://www.w3.org/2000/svg" fill="#064583" d="m391.4 308.4c71.7-94.8 33.6-164.3-8.9-192.6-47.4-31.4-117.8-40.8-217-0.3-67.2 27.5-135.6 98-140.2 163.5-6.5 94.3 79.7 130.9 149.2 131.6-56.4-12.3-81.3-50.3-78.8-89.7 3.6-56.4 47.4-88.6 77.4-108.5-45.9-10.1-51.7-74.1-4.4-88.6 35.8-10.9 71.2 27.9 52.8 65.4 31.8-10.9 73.2-23.4 120-7.7 49.5 16.6 59.3 64.8 30.6 104.5-4.8-7.7-30.8-37.1-58-57.8-27.3-20.7-81.9-39.2-123.7-13.8-49.4 30-55.5 87.5-23.7 134.8 38 56.7 111.3 72.1 166.6 30-0.2-0.1 26.1 32.1 26.1 32.1h115.5s-83.6-103.1-83.6-103zm-94.5 52.9c-12 13.8-39.7 12.4-64.9-5.5-22.7-16.1-26-41.1-16.8-51.2 10.9-11.9 37.6-14 61.6 2.4 21.7 14.9 33.5 38.9 20.1 54.3"/>
</svg>