<?xml version="1.0" encoding="UTF-8" standalone="no"?>
<!-- Created with Inkscape (http://www.inkscape.org/) -->

<svg
   xmlns:dc="http://purl.org/dc/elements/1.1/"
   xmlns:cc="http://creativecommons.org/ns#"
   xmlns:rdf="http://www.w3.org/1999/02/22-rdf-syntax-ns#"
   xmlns:svg="http://www.w3.org/2000/svg"
   xmlns="http://www.w3.org/2000/svg"
   xmlns:sodipodi="http://sodipodi.sourceforge.net/DTD/sodipodi-0.dtd"
   xmlns:inkscape="http://www.inkscape.org/namespaces/inkscape"
   width="300"
   height="201.75522"
   id="svg2"
   version="1.1"
   inkscape:version="0.48.4 r"
   sodipodi:docname="Symbol of Tsu Mie.svg">
  <defs
     id="defs4" />
  <sodipodi:namedview
     id="base"
     pagecolor="#ffffff"
     bordercolor="#666666"
     borderopacity="1.0"
     inkscape:pageopacity="0.0"
     inkscape:pageshadow="2"
     inkscape:zoom="5.7559894"
     inkscape:cx="219.97965"
     inkscape:cy="128.0529"
     inkscape:document-units="px"
     inkscape:current-layer="layer1"
     showgrid="false"
     inkscape:window-width="1280"
     inkscape:window-height="961"
     inkscape:window-x="-8"
     inkscape:window-y="-8"
     inkscape:window-maximized="1"
     inkscape:object-paths="false"
     fit-margin-top="0"
     fit-margin-left="0"
     fit-margin-right="0"
     fit-margin-bottom="0" />
  <metadata
     id="metadata7">
    <rdf:RDF>
      <cc:Work
         rdf:about="">
        <dc:format>image/svg+xml</dc:format>
        <dc:type
           rdf:resource="http://purl.org/dc/dcmitype/StillImage" />
        <dc:title />
      </cc:Work>
    </rdf:RDF>
  </metadata>
  <g
     inkscape:label="レイヤー 1"
     inkscape:groupmode="layer"
     id="layer1"
     transform="translate(-14.638496,-468.17623)">
    <g
       id="g3767"
       transform="matrix(1.2092157,0,0,1.2092157,-3.0626035,-140.16019)">
      <path
         transform="matrix(1.1005415,-0.61019062,0.65559137,1.0243272,-414.04916,46.485266)"
         d="m 147.11689,633.15222 c 0,11.01529 -13.84507,19.94495 -30.92383,19.94495 -17.078755,0 -30.923822,-8.92966 -30.923822,-19.94495 0,-11.01529 13.845067,-19.94495 30.923822,-19.94495 17.07876,0 30.92383,8.92966 30.92383,19.94495 z"
         sodipodi:ry="19.944952"
         sodipodi:rx="30.923824"
         sodipodi:cy="633.15222"
         sodipodi:cx="116.19306"
         id="path3789"
         style="fill:#6eb91f;fill-opacity:1;stroke:none"
         sodipodi:type="arc" />
      <path
         sodipodi:nodetypes="csscccssc"
         inkscape:connector-curvature="0"
         id="path3791"
         d="m 14.638496,669.93146 c 21.537272,-51.45345 62.08361,-96.09672 98.410554,-120.10104 31.99265,-21.14027 104.61661,-54.93404 129.3396,-24.50223 20.26802,24.94814 -9.50911,55.19696 -18.47708,64.66981 10.32188,-6.80688 19.71676,-14.67913 30.63442,-28.66759 -20.59123,40.44099 -58.45217,63.05987 -97.71427,81.68878 13.12567,-19.37035 21.40884,-42.56724 11.24692,-51.01282 -17.53637,-14.57449 -53.64613,1.53895 -76.318398,15.26368 -38.640873,23.39141 -54.022812,41.54123 -77.121746,62.66141 z"
         style="fill:#0d3692;fill-opacity:1;stroke:none" />
      <path
         sodipodi:nodetypes="ccsc"
         inkscape:connector-curvature="0"
         id="path3793"
         d="m 165.73399,517.91654 c 49.84193,-26.19703 119.54213,-20.80288 89.90785,41.42387 3.28106,-21.36315 1.76672,-32.35731 -7.95862,-40.03736 -22.56598,-17.82024 -55.29711,-9.14098 -81.94923,-1.38651 z"
         style="fill:#21aac6;fill-opacity:1;stroke:none" />
    </g>
  </g>
</svg>
