<?xml version="1.0" encoding="UTF-8"?><svg width="444" height="455" viewBox="28 23 444 455" xmlns="http://www.w3.org/2000/svg">
 <path xmlns="http://www.w3.org/2000/svg" d="m454.8 315.1c-31.4 42.9-84 87.9-139.7 87.9-101.1 0-124.1-93.1-201.6-93.1-40.6 0-74.3 41.4-83 52.6 80.2 0 127.7 112.4 226.5 112.4 91.8 0 161.8-79.2 197.7-159.9z" fill="#2955ad"/>
 <path xmlns="http://www.w3.org/2000/svg" d="m433.1 316.1c-35.3 18.9-48 17.9-61.3 17.9-69.5 0-82.3-58.3-160.4-58.3-36.8 0-49.1 8.7-58.2 12.3 64.9 12.8 89.4 87.4 185.5 87.4 38.9 0 74.4-31.4 94.5-59.3zm26.1-13.5a212.4 212.4 0 1 0 -404.3 0c28.6-94.1 146.1-207.1 202.1-207.1 56 0 173.5 113.1 202.1 207.1z" fill="#17b087"/>
</svg>