<?xml version="1.0" encoding="UTF-8" standalone="no"?>
<svg
   xmlns:dc="http://purl.org/dc/elements/1.1/"
   xmlns:cc="http://creativecommons.org/ns#"
   xmlns:rdf="http://www.w3.org/1999/02/22-rdf-syntax-ns#"
   xmlns:svg="http://www.w3.org/2000/svg"
   xmlns="http://www.w3.org/2000/svg"
   version="1.0"
   width="300"
   height="300"
   id="svg2">
  <title
     id="title8">Emblem of Suzuka, Mie</title>
  <metadata
     id="metadata24">
    <rdf:RDF>
      <cc:Work
         rdf:about="">
        <dc:format>image/svg+xml</dc:format>
        <dc:type
           rdf:resource="http://purl.org/dc/dcmitype/StillImage" />
        <dc:title>Emblem of Suzuka, Mie</dc:title>
      </cc:Work>
    </rdf:RDF>
  </metadata>
  <defs
     id="defs5" />
  <path
     d="m 141.87192,17.249074 c -29.59309,1.78631 -56.581506,13.25504 -77.840208,31.28849 -2.149345,-6.38957 -3.616855,-13.08632 -4.294951,-20.02001 -8.422832,6.28319 -16.169357,13.42599 -23.114224,21.29002 1.842052,6.92945 4.304446,13.60883 7.319889,19.97383 C 29.487635,88.858386 20.045557,111.9395 17.618534,137.06897 H 0 v 25.86207 h 17.618534 c 2.432047,25.18154 11.910666,48.3032 26.416257,67.40302 -3.019441,6.35923 -5.491175,13.02827 -7.342981,19.95074 6.958027,7.86699 14.722382,15.00827 23.160407,21.29002 0.694655,-6.92096 2.161729,-13.61967 4.318042,-19.99692 21.23584,17.96494 48.175251,29.38903 77.701661,31.17303 v -26.87808 c -25.04876,-1.98236 -47.671115,-12.63981 -64.8399,-28.97937 16.595039,-22.59364 43.3533,-37.26909 73.52217,-37.26909 30.07454,-1e-5 56.77462,14.56462 73.38362,37.03818 -17.36336,16.62604 -40.35627,27.41614 -65.80973,29.25646 v 26.8319 c 29.92534,-1.80893 57.18979,-13.52537 78.55603,-31.91195 2.23861,6.43586 3.78197,13.20502 4.52587,20.20475 8.39418,-6.32437 16.11249,-13.50532 23.02185,-21.40548 -1.9179,-7.00826 -4.45904,-13.75823 -7.57389,-20.18165 12.70967,-17.0305 21.43521,-37.20303 24.79988,-59.1364 h -26.67026 c -2.4649,12.63292 -7.15547,24.46752 -13.66995,35.07543 -21.62065,-25.94442 -54.17364,-42.46459 -90.56342,-42.46459 -36.50606,0 -69.148813,16.63118 -90.771247,42.7186 -7.857576,-12.71408 -13.099566,-27.1983 -15.009236,-42.7186 h 105.780483 100.30788 5.10314 26.41626 2.30911 H 300 V 137.06897 H 284.69058 282.38147 256.01139 250.86207 150.18473 44.727525 c 1.854642,-15.51925 7.045714,-30.00983 14.847598,-42.741694 21.556581,26.096304 54.145727,42.741694 90.609607,42.741694 36.58123,0 69.26288,-16.75442 90.81743,-42.995694 6.63314,10.756114 11.39429,22.766734 13.85467,35.606534 h 26.60099 c -3.39899,-22.13267 -12.26799,-42.470184 -25.16933,-59.598216 3.08041,-6.45484 5.58749,-13.23589 7.45843,-20.27402 -6.94487,-7.86403 -14.69139,-15.00683 -23.11422,-21.29002 -0.68716,7.02631 -2.19056,13.80768 -4.38732,20.27401 -21.30014,-18.17153 -48.39623,-29.74482 -78.1173,-31.54249 v 26.46244 c 25.40245,1.83245 48.34129,12.57562 65.69427,29.14101 -16.51869,22.790112 -43.35946,37.615466 -73.63762,37.615466 -30.18385,0 -56.944752,-14.738004 -73.475986,-37.407646 17.208155,-16.51778 39.955176,-27.30597 65.163176,-29.30265 z"
     id="path2386"
     style="fill:#000000;stroke:none;stroke-width:0.73891628" />
</svg>
