<?xml version="1.0" encoding="UTF-8" standalone="no"?>
<svg
   xmlns:dc="http://purl.org/dc/elements/1.1/"
   xmlns:cc="http://creativecommons.org/ns#"
   xmlns:rdf="http://www.w3.org/1999/02/22-rdf-syntax-ns#"
   xmlns:svg="http://www.w3.org/2000/svg"
   xmlns="http://www.w3.org/2000/svg"
   version="1.0"
   width="300"
   height="300"
   id="svg2">
  <metadata
     id="metadata26">
    <rdf:RDF>
      <cc:Work
         rdf:about="">
        <dc:format>image/svg+xml</dc:format>
        <dc:type
           rdf:resource="http://purl.org/dc/dcmitype/StillImage" />
        <dc:title></dc:title>
      </cc:Work>
    </rdf:RDF>
  </metadata>
  <defs
     id="defs5" />
  <path
     d="M 150.78919,27.14168 V 89.08275 H 256.79715 C 235.72401,52.26986 196.16064,27.38877 150.78919,27.14168 Z m -28.04838,3.05013 C 68.42937,42.1298 27.24833,92.33562 27.24833,150 c 0,56.61296 40.75748,105.5462 90.90662,117.93119 1.16717,-5.51517 1.53573,-11.47576 1.53573,-19.21794 0,-25.31097 -9.12845,-51.26766 -17.3836,-67.95601 -9.09481,-18.38576 -19.43124,-35.82182 -19.43123,-66.46294 0,-34.26151 15.20809,-60.28376 39.63034,-83.84653 0.084,-0.0811 0.1562,-0.16967 0.23462,-0.25596 z m 28.04838,73.22441 v 39.58768 h 121.96248 c -0.78414,-13.94154 -3.87903,-27.26572 -8.93709,-39.58768 z m 0,53.92115 v 39.58768 h 112.87608 c 5.10309,-12.32044 8.26231,-25.63593 9.0864,-39.58768 z m 0,53.92115 v 61.5998 c 45.22193,-0.24628 84.66866,-24.984 105.79467,-61.5998 z"
     id="path2384"
     style="fill:#0d3594;stroke:none;stroke-width:0.6825462" />
  <path
     d="m 174.23396,0 c -12.40115,12.42134 -77.13051,55.45358 -77.13051,113.60937 0,55.05562 36.80527,69.47664 36.80527,134.41157 0,30.92371 -11.39767,47.13409 -14.27395,51.97906 9.88061,-7.90449 83.26178,-61.92016 83.26178,-108.96613 0,-55.63289 -43.68641,-85.75101 -43.68641,-141.08386 0,-20.7464 8.81315,-36.11715 15.02382,-49.95001 z"
     id="path2386"
     style="fill:#3fa631;stroke:none;stroke-width:0.6825462" />
</svg>
