<?xml version="1.0" encoding="UTF-8" standalone="no"?>
<!-- Created with Inkscape (http://www.inkscape.org/) -->

<svg
   xmlns:dc="http://purl.org/dc/elements/1.1/"
   xmlns:cc="http://creativecommons.org/ns#"
   xmlns:rdf="http://www.w3.org/1999/02/22-rdf-syntax-ns#"
   xmlns:svg="http://www.w3.org/2000/svg"
   xmlns="http://www.w3.org/2000/svg"
   xmlns:sodipodi="http://sodipodi.sourceforge.net/DTD/sodipodi-0.dtd"
   xmlns:inkscape="http://www.inkscape.org/namespaces/inkscape"
   width="350"
   height="222.69116"
   id="svg2"
   version="1.1"
   inkscape:version="0.48.4 r"
   sodipodi:docname="Symbol of Kameyama Mie.svg">
  <defs
     id="defs4" />
  <sodipodi:namedview
     id="base"
     pagecolor="#ffffff"
     bordercolor="#666666"
     borderopacity="1.0"
     inkscape:pageopacity="0.0"
     inkscape:pageshadow="2"
     inkscape:zoom="2.2851859"
     inkscape:cx="161.25602"
     inkscape:cy="102.60085"
     inkscape:document-units="px"
     inkscape:current-layer="layer1"
     showgrid="false"
     inkscape:window-width="1280"
     inkscape:window-height="961"
     inkscape:window-x="-8"
     inkscape:window-y="-8"
     inkscape:window-maximized="1"
     fit-margin-top="0"
     fit-margin-left="0"
     fit-margin-right="0"
     fit-margin-bottom="0" />
  <metadata
     id="metadata7">
    <rdf:RDF>
      <cc:Work
         rdf:about="">
        <dc:format>image/svg+xml</dc:format>
        <dc:type
           rdf:resource="http://purl.org/dc/dcmitype/StillImage" />
      </cc:Work>
    </rdf:RDF>
  </metadata>
  <g
     inkscape:label="レイヤー 1"
     inkscape:groupmode="layer"
     id="layer1"
     transform="translate(-170.48614,-392.49657)">
    <g
       id="g3802"
       transform="matrix(1.0852308,0,0,1.0852308,-14.530664,-52.432922)">
      <path
         sodipodi:nodetypes="csssccsc"
         inkscape:connector-curvature="0"
         id="path3789"
         d="m 388.35666,519.40983 c -12.40463,-41.82031 -29.68579,-109.4644 -55.9719,-109.42376 -21.77682,0.0337 -35.99555,56.74642 -51.79348,56.75602 -8.65653,0.005 -12.39567,-10.75768 -26.08333,-10.83712 -36.48118,-0.21174 -73.04612,109.34741 -84.02182,146.06118 21.91723,17.69227 67.06097,16.97 82.2733,1.76112 9.64475,-44.51378 29.63329,-140.5823 78.93136,-140.49482 29.60151,0.0525 46.00829,31.90908 56.66587,56.17738 z"
         style="fill:#379e48;fill-opacity:1;stroke:none" />
      <path
         sodipodi:nodetypes="cssccc"
         inkscape:connector-curvature="0"
         id="path3791"
         d="m 374.67869,459.54531 c 2.87174,3.26427 6.22379,7.53421 11.63383,7.71325 8.7503,0.28958 15.76299,-10.3954 25.49209,-10.25848 31.34417,0.4411 61.05416,70.4108 81.19357,144.78857 -10.38073,15.26015 -61.61836,18.96961 -80.71767,3.31675 -13.29608,-70.46776 -19.22183,-88.15516 -37.60182,-145.56009 z"
         style="fill:#90a846;fill-opacity:1;stroke:none" />
    </g>
  </g>
</svg>
