<?xml version="1.0" encoding="UTF-8" standalone="no"?>
<!-- Created with Inkscape (http://www.inkscape.org/) -->

<svg
   xmlns:dc="http://purl.org/dc/elements/1.1/"
   xmlns:cc="http://creativecommons.org/ns#"
   xmlns:rdf="http://www.w3.org/1999/02/22-rdf-syntax-ns#"
   xmlns:svg="http://www.w3.org/2000/svg"
   xmlns="http://www.w3.org/2000/svg"
   xmlns:sodipodi="http://sodipodi.sourceforge.net/DTD/sodipodi-0.dtd"
   xmlns:inkscape="http://www.inkscape.org/namespaces/inkscape"
   width="250"
   height="169.28648"
   id="svg2"
   version="1.1"
   inkscape:version="0.48.4 r"
   sodipodi:docname="Symbol of Inabe Mie.svg">
  <defs
     id="defs4" />
  <sodipodi:namedview
     id="base"
     pagecolor="#ffffff"
     bordercolor="#666666"
     borderopacity="1.0"
     inkscape:pageopacity="0.0"
     inkscape:pageshadow="2"
     inkscape:zoom="2.9479999"
     inkscape:cx="125"
     inkscape:cy="84.64324"
     inkscape:document-units="px"
     inkscape:current-layer="layer1"
     showgrid="false"
     inkscape:window-width="1280"
     inkscape:window-height="961"
     inkscape:window-x="-8"
     inkscape:window-y="-8"
     inkscape:window-maximized="1"
     fit-margin-top="0"
     fit-margin-left="0"
     fit-margin-right="0"
     fit-margin-bottom="0" />
  <metadata
     id="metadata7">
    <rdf:RDF>
      <cc:Work
         rdf:about="">
        <dc:format>image/svg+xml</dc:format>
        <dc:type
           rdf:resource="http://purl.org/dc/dcmitype/StillImage" />
        <dc:title></dc:title>
      </cc:Work>
    </rdf:RDF>
  </metadata>
  <g
     inkscape:label="レイヤー 1"
     inkscape:groupmode="layer"
     id="layer1"
     transform="translate(-140.9375,-435.77067)">
    <g
       id="g3821"
       transform="matrix(1.434463,0,0,1.434463,-61.232125,-262.87492)">
      <path
         sodipodi:nodetypes="cscsc"
         inkscape:connector-curvature="0"
         id="path3808"
         d="m 280.59375,561.03125 c 20.91764,-3.23582 34.625,-8.3067 34.625,-14.0625 0,-4.74154 -9.29554,-9.03931 -24.21875,-12.21875 -1.13681,5.86686 -3.3731,11.91237 -5.5625,16.875 -1.38015,3.12833 -3.07561,6.26702 -4.84375,9.40625 z"
         style="fill:#60b523;fill-opacity:1;stroke:none" />
      <path
         sodipodi:nodetypes="cscsccscscc"
         inkscape:connector-curvature="0"
         id="path3816"
         d="m 199.78125,563.625 c 8.9196,0.62641 18.34693,1.0625 28.3125,1.0625 10.04424,0 19.40445,-0.47263 28.34375,-1.125 1.64409,-4.54746 2.90224,-9.37666 3.375,-13.8125 0.62828,-5.89498 -0.0611,-11.82805 -1.28125,-17.28125 -0.15445,-0.67836 -0.38147,-1.30715 -0.5625,-1.96875 -9.37612,-0.72696 -19.23309,-1.25 -29.875,-1.25 -8.58755,0 -16.72436,0.3418 -24.5625,0.8125 -2.1663,4.94649 -3.89162,10.25072 -4.78125,15.125 -1.02441,5.61274 -0.53766,11.37901 0.53125,16.625 0.13071,0.62813 0.34272,1.19959 0.5,1.8125 z"
         style="fill:#60b523;fill-opacity:1;stroke:none" />
      <path
         sodipodi:nodetypes="cscsc"
         inkscape:connector-curvature="0"
         id="path3819"
         d="m 177.4375,532.84375 c -21.76134,3.20764 -36.5,8.24129 -36.5,14.125 0,4.77128 9.82111,8.98094 24.96875,12.15625 0.53388,-2.02744 0.93728,-3.98995 1.65625,-6.09375 2.56188,-7.49639 6.03692,-13.93383 9.875,-20.1875 z"
         style="fill:#60b523;fill-opacity:1;stroke:none" />
      <path
         sodipodi:nodetypes="csscssc"
         inkscape:connector-curvature="0"
         id="path3789"
         d="m 229.51424,489.90899 c -39.38469,17.67537 -61.58979,59.3165 -61.48168,84.40706 0.0706,16.39121 6.5143,30.67863 17.19404,30.74084 16.35019,0.0953 36.54292,-28.66748 38.29579,-37.77476 -6.08394,4.55146 -11.87819,10.40743 -20.30922,7.78623 -8.71027,-2.70801 -10.31437,-22.68214 -8.7674,-29.86671 5.40477,-25.10114 19.5762,-40.74931 35.06847,-55.29266 z"
         style="fill:#1e96b3;fill-opacity:1;stroke:none" />
      <path
         style="fill:#ff8000;fill-opacity:1;stroke:none"
         d="m 232.37952,605.05713 c 38.60314,-21.58311 56.63999,-60.8796 56.53188,-85.97016 -0.0706,-16.39121 -6.51043,-32.11806 -19.27816,-32.04341 -18.42937,0.10775 -32.37467,31.27264 -36.21167,39.85888 5.82342,-3.5094 11.35716,-11.18898 20.56974,-8.30726 8.70556,2.72312 10.81144,23.88869 9.80946,31.16929 -3.06013,22.23547 -15.66846,39.18621 -31.42125,55.29266 z"
         id="path3791"
         inkscape:connector-curvature="0"
         sodipodi:nodetypes="csscssc" />
    </g>
  </g>
</svg>
