<?xml version="1.0" encoding="UTF-8"?><svg width="455" height="437" viewBox="22 32 455 437" xmlns="http://www.w3.org/2000/svg" version="1.2">
 <path xmlns="http://www.w3.org/2000/svg" d="m402.3 412.2a217.2 217.2 0 1 0-338.5-260.1 47.2 47.2 0 1 0 46.5-25.2 143.4 143.4 0 0 1 157.1 239.6c41.8 29.7 86 45.6 134.9 45.6z" fill="#16358e"/>
 <path xmlns="http://www.w3.org/2000/svg" d="m151 128.4a97.8 97.8 0 0 1 46.7 188.2c20.1 12.5 37.2 26.1 54.8 39.2a126 126 0 0 0-101.4-227.4z" fill="#4dbcce"/>
 <path xmlns="http://www.w3.org/2000/svg" d="m121.6 310.5c99.8 0 139.5 133.6 306.5 117.8-40 27.6-75.2 39-119.9 39-154.5 0-165.5-157.8-283.3-89.8 12.2-21.3 31.6-67 96.6-67z" fill="#387a28"/>
</svg>