<?xml version="1.0" encoding="UTF-8"?><svg width="458" height="253" viewBox="21 123 458 253" xmlns="http://www.w3.org/2000/svg" xmlns:xlink="http://www.w3.org/1999/xlink">
 <g xmlns="http://www.w3.org/2000/svg" xmlns:xlink="http://www.w3.org/1999/xlink" fill="#000000">
  <path d="m250 125.6-18.2 24.3c-32.8 5.3-61.6 24.8-78.7 53.3h66.7c9.3-4.8 19.7-7.4 30.2-7.4 10.5 0 20.8 2.6 30.1 7.4h66.7c-17.1-28.5-45.9-48-78.7-53.3z"/>
  <path id="a" d="m287.7 207.7c17.5 12.3 28 32.3 28 53.7 0 34.8-27.2 63.6-62 65.5v47.5c43-1.4 81.5-27.1 99.3-66.2h46.3l23.9-31.7h-61c0.1-0.9 0.2-1.8 0.2-2.7h62.8l23.9-31.7h-87.7c-0.1-0.9-0.3-1.8-0.4-2.7h90.1l23.9-31.7z"/>
  <use xlink:href="#a" transform="scale(-1 1)" x="-500"/>
 </g>
</svg>