<?xml version="1.0" encoding="UTF-8" standalone="no"?>
<!-- Generator: Adobe Illustrator 16.0.0, SVG Export Plug-In . SVG Version: 6.00 Build 0)  -->

<svg
   xmlns:dc="http://purl.org/dc/elements/1.1/"
   xmlns:cc="http://creativecommons.org/ns#"
   xmlns:rdf="http://www.w3.org/1999/02/22-rdf-syntax-ns#"
   xmlns:svg="http://www.w3.org/2000/svg"
   xmlns="http://www.w3.org/2000/svg"
   xmlns:sodipodi="http://sodipodi.sourceforge.net/DTD/sodipodi-0.dtd"
   xmlns:inkscape="http://www.inkscape.org/namespaces/inkscape"
   version="1.1"
   id="Layer_1"
   x="0px"
   y="0px"
   width="397px"
   height="354px"
   viewBox="0 0 397 354"
   enable-background="new 0 0 397 354"
   xml:space="preserve"
   inkscape:version="0.48.4 r"
   sodipodi:docname="Iga_Mie_chapter.svg"><metadata
     id="metadata19"><rdf:RDF><cc:Work
         rdf:about=""><dc:format>image/svg+xml</dc:format><dc:type
           rdf:resource="http://purl.org/dc/dcmitype/StillImage" /></cc:Work></rdf:RDF></metadata><defs
     id="defs17" /><sodipodi:namedview
     pagecolor="#ffffff"
     bordercolor="#666666"
     borderopacity="1"
     objecttolerance="10"
     gridtolerance="10"
     guidetolerance="10"
     inkscape:pageopacity="0"
     inkscape:pageshadow="2"
     inkscape:window-width="1280"
     inkscape:window-height="961"
     id="namedview15"
     showgrid="false"
     inkscape:zoom="2.3191398"
     inkscape:cx="204.01903"
     inkscape:cy="190.75586"
     inkscape:window-x="-8"
     inkscape:window-y="-8"
     inkscape:window-maximized="1"
     inkscape:current-layer="Layer_1" /><path
     fill="#465BA5"
     d="M132.37,23.42c3.23-3.52,8.47-1.77,12.59-2.47c40.13,0.15,80.261-0.2,120.39,0.28  c-9.709,6.98-19.189,14.27-28.699,21.51c-1.711,1.33-3.381,2.72-5.03,4.13c-24.42,20.38-47.42,42.4-69.12,65.65  c-16.66,18.09-31.66,37.59-46.57,57.11c-18.91-11.82-37.04-24.96-53.69-39.82C78.36,90.28,100.46,52.29,132.37,23.42z"
     id="path5" /><path
     fill="#2BABA5"
     d="M231.62,46.87c1.649-1.41,3.319-2.8,5.03-4.13C276.6,54.78,312.68,78.52,340.84,109.16  c20.439,22.83,36.23,51.27,38.631,82.29c3.209,28.489-6.82,58.489-27.5,78.53c-17.391,17.289-41.23,26.99-65.41,29.47  c-19.25,1.489-38.851,0.96-57.561-4.16c-8.82,15.22-17.48,30.6-28.08,44.68c-44.4-0.029-88.81,0.24-133.21-0.149  c25.97-17.94,50.8-37.631,73.11-60c5.06-5.291,10.79-10.051,14.83-16.221c-24.44-14.81-46.18-33.629-65.93-54.189  c-14.44-16.58-26.73-35.05-36.07-54.96c-5.36-13.37-9.31-27.35-10.77-41.72c6.66,5.46,12.81,11.5,19.36,17.08  c16.65,14.86,34.78,28,53.69,39.82c25.91,15.649,53.63,28.58,82.88,36.61c9.661-19.211,16.48-39.7,20.86-60.73  c15.1,19.13,23.391,42.67,25.79,66.801c16.45,0.299,33.21-4.301,46.17-14.69c7.39-6.399,11.33-15.761,12.8-25.25  c2.641-19.86-5.439-39.14-14.439-56.36C275.84,88.97,253.82,67.33,231.62,46.87z"
     id="path7" /><path
     fill="#DA2F2C"
     d="M219.45,75.57c16.909-3.92,35.84,7.67,39.05,24.88c5.43,18.64-9.859,40.47-29.55,40.42  c-18.931,2.68-37.54-14.68-35.84-33.81C192.93,92.16,204.95,78.25,219.45,75.57z"
     id="path11" /><path
     fill="#465BA5"
     d="M53.65,154.45c9.34,19.91,21.63,38.38,36.07,54.96c-18.66,30.67-34.89,62.84-48.17,96.199  c-2.55,6.421-4.41,13.19-8,19.141c-6.82-16.34-6.14-34.43-4.4-51.7C33.01,232.82,40.56,192.73,53.65,154.45z"
     id="path13" /></svg>