<?xml version="1.0" encoding="UTF-8" standalone="no"?>
<svg
   xmlns:dc="http://purl.org/dc/elements/1.1/"
   xmlns:cc="http://creativecommons.org/ns#"
   xmlns:rdf="http://www.w3.org/1999/02/22-rdf-syntax-ns#"
   xmlns:svg="http://www.w3.org/2000/svg"
   xmlns="http://www.w3.org/2000/svg"
   version="1.1"
   id="svg2"
   height="300"
   width="300">
  <title
     id="title8">Emblem_of_Shima,_Mie</title>
  <defs
     id="defs4" />
  <metadata
     id="metadata7">
    <rdf:RDF>
      <cc:Work
         rdf:about="">
        <dc:format>image/svg+xml</dc:format>
        <dc:type
           rdf:resource="http://purl.org/dc/dcmitype/StillImage" />
        <dc:title>Emblem_of_Shima,_Mie</dc:title>
      </cc:Work>
    </rdf:RDF>
  </metadata>
  <g
     transform="translate(-227.67362,-313.97756)"
     id="layer1">
    <path
       id="path2996"
       d="m 377.66008,313.99057 c -58.96193,-0.81881 -115.82492,37.079 -138.15984,91.57874 -9.03889,21.48225 -13.19783,45.13912 -11.28528,68.40388 27.84631,-12.74972 60.5755,-12.18708 89.65455,-3.96634 25.41093,8.118 52.12436,18.6792 69.60568,39.73943 11.4967,12.49028 5.22071,33.00521 -9.64716,39.42283 -24.76005,11.1712 -53.14609,6.06203 -78.75184,0.76641 -20.82117,-4.66913 -40.96586,-12.80533 -58.40531,-25.21739 23.91679,55.69544 84.13205,92.98138 144.70508,88.96363 59.40764,-2.228 114.64649,-43.6884 133.74904,-99.92009 13.64712,-38.31676 10.68934,-82.15987 -8.13798,-118.2354 -19.15915,18.89309 -46.94148,23.7621 -72.25022,29.20735 -19.68037,2.76672 -42.63872,6.51365 -59.69813,-6.24205 -14.45592,-12.75185 -4.37676,-33.53962 7.26565,-44.2646 18.32287,-19.13319 42.63383,-31.22895 67.58526,-39.23596 -22.92711,-13.64937 -49.53287,-21.06393 -76.2295,-21.00044 z"
       style="fill:#3cae57;fill-opacity:1;fill-rule:evenodd;stroke:none;stroke-width:0.78902775" />
  </g>
</svg>
