<svg xmlns="http://www.w3.org/2000/svg" width="200" height="200" fill="#144182"><path d="M99.658 193.275c-26.004 0-50.376-9.688-68.625-27.279C12.795 148.414 2.75 124.977 2.75 100s10.045-48.415 28.283-65.996C49.282 16.412 73.654 6.723 99.658 6.723c53.813 0 97.592 41.844 97.592 93.276s-43.779 93.276-97.592 93.276zm0-180.399C49.615 12.876 8.903 51.959 8.903 100s40.712 87.124 90.755 87.124c50.42 0 91.439-39.084 91.439-87.124s-41.019-87.124-91.439-87.124zM59.722 120.922l39.652-18.344V62.47s1.937-22.789 23.585-22.789 22.658 27.441 22.658 29.605v12.192l1.328 1.387V55.633s.285-17.091-15.895-30.536-41.135-11.508-53.326-1.823-18.003 21.991-18.003 30.65v66.998z"/><path d="M114.869 40.934v53.782l22.561 27.802s10.598 14.926-2.619 28.486c-13.049 13.385-29.512 4.785-34.811-4.445l-3.703-6.266-2.62 1.594s7.407 17.092 21.991 23.586 33.23 6 48.652-9.912c14.357-14.813 11.834-38.977 3.631-49.232l-53.082-65.395z"/><path d="M109.857 104.629l25.75 23.586-59.137 25.523s-8.773 3.988-20.736 3.988-23.074-7.008-31.449-19.143-7.178-29.995-2.051-38.583 13.16-23.8 41.703-23.8c0 0 .224 2.145-.342 2.051-4.102-.684-28.115 4.957-21.193 31.96 1.523 5.945 5.664 9.82 8.54 11.973 7.526 5.633 13.108 2.432 15.729 1.359 3.761-1.539 43.186-18.914 43.186-18.914z"/></svg>