<svg xmlns="http://www.w3.org/2000/svg" width="200" height="200"><path d="M44.128 30.421C31.646 40.495 22.45 52.985 16.537 67.893c-.195.502-.528.84-.755.768l-6.794-2.049c-.307-.09-.432-.528-.275-.979.01-.029.021-.058.033-.087C25.092 27.545 54.063 6.492 95.657 2.385c.394-.035.741.417.778 1.012.002.027.002.054.004.08l.08 6.065c.014.599-.201 1.088-.484 1.104-16.184 1.006-31.096 5.846-44.736 14.517-.443.287-.627.8-.408 1.146l.019.027 4.017 5.755c.225.326.807.332 1.321.015 11.95-7.539 24.987-11.764 39.114-12.67.481-.039.898.211.93.561l.337 6.636c.015.232-.569.489-1.319.58-29.969 3.56-50.986 18.996-63.054 46.313-.14.314-.405.505-.621.445l-6.375-2.09c-.399-.139-.556-.717-.346-1.29a1.37 1.37 0 0 0 .022-.058c5.256-13.184 13.365-24.275 24.328-33.279.443-.363.609-.895.377-1.199l-4.435-5.688c-.206-.273-.685-.253-1.065.044l-.013.01zm60.613-10.889c13.884.512 27.604 5.229 39.224 12.67.582.371 1.166.488 1.32.27l4.502-6.281c.184-.271-.247-.864-.961-1.324-.012-.008-.023-.016-.036-.023-13.397-8.482-28.063-13.15-43.994-14.004a.89.89 0 0 1-.796-.674c-.26-.971-.359-1.977-.296-2.979.229-3.666-1.119-4.69 3.801-4.272 38.063 3.194 69.779 27.267 83.703 62.757.144.383-.034.805-.396.939l-5.725 2.053c-.398.145-.855-.087-1.038-.525-5.821-14.791-14.858-27.213-27.104-37.269-.682-.565-1.622-.563-2.102.006-.01.011-.02.022-.027.035l-3.978 5.147c-.271.355-.146.92.283 1.281 10.765 9.067 18.812 20.105 24.14 33.117.219.539.098 1.098-.268 1.248l-5.407 2.014c-.397.154-.858-.052-1.052-.472-12.328-27.497-33.605-42.875-63.834-46.138-.53-.053-.936-.363-.932-.713V20.33c-.004-.438.416-.795.938-.796.015-.003.024-.003.035-.002h0zm17.902 43.184c-.181-1.042-.635-1.253-1.361-.634l-8.762 7.414c-1.114.953-1.738 2.443-1.873 4.475-1.053 16.27.403 32.984-1.053 49.318-.619 6.848-4.865 12.672-9.381 17.348-1.465 1.52-3.072 1.693-4.824.525-2.818-1.859-3.52-3.559-3.721-7.063a1005.13 1005.13 0 0 1-1.727-64.16c.01-.598-.094-1.072-.256-1.186-1.394-.988-2.75-.939-4.07.148-.299.238-.492.709-.525 1.281-1.213 18.021-7.306 51.218-23.533 62.312-4.516 3.086-11.229 4.879-14.679-.393-3.128-4.77-2.735-15.041-2.144-21.135.287-3.02 1.551-3.594 3.787-1.725l4.975 4.164c.725.607 1.813.496 2.43-.246a1.77 1.77 0 0 0 .225-.348c4.086-8.02 8.144-17.373 7.711-26.525a529.75 529.75 0 0 1-.594-22.617c0-.413-.225-.804-.593-1.038-6.2-4.097-1.294-10.836 4.744-10.446 4.151.256 12.685 8.235 15.729 10.823 1.994 1.708 3.818 1.546 5.473-.485l7.857-9.746c4.961-6.266 13.047 5.15 16.565 8.627.296.289.737.349 1.078.148 7.479-4.246 4.905-19.464 16.646-15.945 5.688 1.699 24.153 5.715 19.963 14.625-1.631 3.451-5.823 3.289-5.771 8.182l.634 67.486c.096 10.865-2.318 19.896-15.568 19.102-5.674-.338-9.07-3.668-9.676-9.287-.039-.418-.268-.797-.621-1.025-3.334-2.184-6.16-4.842-8.478-7.979-5.474-7.414 8.868-5.811 11.36-6.119a.86.86 0 0 0 .742-.768c1.429-14.41 3.181-29.115 2.196-43.093-.569-8.146-1.541-16.151-2.905-24.015h0zM39.438 176.355C9.125 151.23-4.044 113.262 5.943 74.956c.121-.484.474-.816.783-.744l6.496 1.943c.277.076.387.568.242 1.104-4.17 15.626-4.146 31.239.066 46.838.136.496.543.822.912.729.016-.002.029-.008.045-.014l6.753-2.332c.534-.18.831-.787.688-1.402-3.299-13.711-3.353-27.451-.162-41.216.104-.428.445-.719.767-.649.019.004.038.009.057.017l6.269 2.184c.33.111.492.645.377 1.24-5.867 29.599 2.166 54.273 24.1 74.023.465.422.701.912.539 1.119l-3.747 4.988c-.246.324-.774.338-1.183.023-.01-.008-.021-.018-.03-.023-10.801-9.006-18.843-20.029-24.126-33.078-.25-.613-.643-1.031-.891-.943l-7.644 2.549c-.31.107-.387.654-.175 1.219.005.012.009.023.013.033 5.869 14.846 14.867 27.42 26.998 37.729.593.504.71 1.342.271 1.898l-3.303 4.125c-.144.178-.421.198-.62.039h0zM183.861 131l-7.413-2.359c-.353-.115-.755.115-.916.525-5.257 13.164-13.281 24.338-24.073 33.521-.367.316-.904.293-1.203-.049a1.52 1.52 0 0 1-.037-.047l-3.316-4.447c-.197-.275-.069-.736.299-1.064 22.32-19.877 30.416-44.828 24.288-74.859-.105-.52.092-1 .458-1.119l5.607-1.848c.317-.105.676.139.801.543a.53.53 0 0 1 .021.078c3.127 13.631 3.107 27.261-.055 40.894-.151.646-.023 1.23.297 1.348l7.468 2.563c.399.141.867-.182 1.042-.719a.55.55 0 0 0 .021-.076c3.998-15.555 3.98-31.1-.053-46.637-.145-.548-.078-1.04.146-1.104l6.174-1.888c.309-.09.659.209.786.668l.009.033c9.477 37.901-2.816 76.1-32.738 100.928-.465.383-1.012.498-1.219.254l-3.662-4.797c-.107-.131.234-.594.77-1.037 12.445-10.424 21.558-23.232 27.335-38.428.114-.283-.229-.666-.771-.855-.022-.008-.042-.016-.066-.022h0zm-79.754 50.732v8.426c.002.289.395.514.879.5.013 0 .024-.002.037-.004 15.969-1.014 30.705-5.789 44.211-14.326.537-.336 1.146-.336 1.389 0l3.141 4.301c.223.307-.006.834-.511 1.176l-.056.037c-33.575 21.336-72.623 20.662-106.131.201-.492-.309-.67-.918-.396-1.361.014-.023.029-.045.045-.066l3.194-4.232c.295-.396.815-.514 1.187-.27 13.596 8.682 28.467 13.541 44.614 14.584.513.033.952-.189.981-.502.002-.014.002-.025.002-.037v-8.424c-.002-.42-.433-.771-.983-.811-14.009-.826-26.953-4.941-38.832-12.346-.426-.273-.603-.76-.396-1.086l3.535-5.236c.196-.299.683-.322 1.084-.055.008.006.015.01.021.016 23.803 16.242 54.75 14.449 78.486.297.439-.258.943-.223 1.158.08l3.101 4.65c.254.367.083.918-.382 1.229-.012.008-.023.018-.036.023-11.843 7.332-24.738 11.516-38.685 12.549-.368.021-.657.324-.657.687h0z"/></svg>