<?xml version="1.0" encoding="UTF-8" standalone="no"?>
<!-- Created with Inkscape (http://www.inkscape.org/) -->

<svg
   width="353.08847mm"
   height="308.40497mm"
   viewBox="0 0 353.08847 308.40497"
   version="1.1"
   id="svg5"
   sodipodi:docname="Flag of Taki Mie.svg"
   inkscape:version="1.1 (c68e22c387, 2021-05-23)"
   xmlns:inkscape="http://www.inkscape.org/namespaces/inkscape"
   xmlns:sodipodi="http://sodipodi.sourceforge.net/DTD/sodipodi-0.dtd"
   xmlns="http://www.w3.org/2000/svg"
   xmlns:svg="http://www.w3.org/2000/svg">
  <sodipodi:namedview
     id="namedview7"
     pagecolor="#ffffff"
     bordercolor="#666666"
     borderopacity="1.0"
     inkscape:pageshadow="2"
     inkscape:pageopacity="0.0"
     inkscape:pagecheckerboard="0"
     inkscape:document-units="mm"
     showgrid="false"
     inkscape:zoom="0.27023919"
     inkscape:cx="1402.4613"
     inkscape:cy="612.42043"
     inkscape:window-width="1920"
     inkscape:window-height="1009"
     inkscape:window-x="-8"
     inkscape:window-y="-8"
     inkscape:window-maximized="1"
     inkscape:current-layer="layer1" />
  <defs
     id="defs2" />
  <g
     inkscape:label="Layer 1"
     inkscape:groupmode="layer"
     id="layer1"
     transform="translate(40.848155,-34.709365)">
    <g
       id="g2065"
       transform="matrix(0.86146522,0,0,0.86146522,-268.92491,11.346396)">
      <path
         style="fill:#f86636;stroke-width:2.44866"
         d="m 450.18802,198.64194 c -17.88838,-8.07712 -27.41801,-22.0439 -28.35145,-41.55245 -1.42197,-29.71844 19.10762,-50.22152 49.44564,-49.38183 19.25285,0.53308 32.27212,8.71478 40.31951,25.33843 15.30176,31.60919 -4.27779,65.85739 -39.12679,68.43985 -9.18663,0.68116 -16.56597,-0.26098 -22.28691,-2.844 z"
         id="path1958" />
      <path
         style="fill:#049563;stroke-width:2.44866"
         d="m 631.3717,359.12823 c -4.71368,-3.71959 -18.26287,-13.91319 -30.10934,-22.6524 l -21.53899,-15.88947 -14.73575,5.95204 c -21.66081,8.7492 -44.49918,12.89711 -70.74112,12.84806 -35.14904,-0.0648 -61.64132,-7.14072 -84.24009,-22.49693 l -8.74816,-5.94454 36.0873,0.67098 c 40.05523,0.74408 68.33827,-3.63251 91.08239,-14.09515 l 12.50912,-5.75445 -15.38711,-11.21153 c -8.46292,-6.16638 -16.59883,-11.91398 -18.07978,-12.77245 -1.48098,-0.85885 -10.30528,1.63754 -19.6096,5.54686 -9.30431,3.90923 -19.66255,7.69323 -23.01832,8.40891 -3.35577,0.71539 -10.50899,2.42568 -15.89605,3.80011 -40.32002,10.28717 -114.38426,7.60448 -151.74196,-5.49615 l -9.71942,-3.40845 23.18707,-1.42505 c 57.71079,-3.54681 123.4054,-26.14683 175.00428,-60.20429 22.46279,-14.82646 26.2305,-17.92524 46.53787,-38.27561 30.49096,-30.55554 40.66076,-62.7352 24.99418,-79.087591 -9.27605,-9.682089 -19.64492,-12.362463 -47.70547,-12.332015 -27.73517,0.02777 -48.11762,4.736697 -86.26752,19.920396 -14.14103,5.62821 -26.81288,10.62172 -28.15964,11.09677 -1.34677,0.47477 5.81557,-5.2793 15.91632,-12.78753 29.03912,-21.585702 84.18958,-46.840834 113.08517,-51.785208 3.79464,-0.649687 10.48056,-1.806999 14.85754,-2.572556 41.8455,-7.319247 79.4084,3.982894 92.1091,27.714409 18.06238,33.749925 -2.48223,86.938895 -52.6523,136.314335 l -13.6203,13.40455 9.32891,17.27195 c 5.13094,9.49949 10.62315,17.27185 12.20493,17.27185 5.17712,0 27.9338,-30.18192 37.84812,-50.19763 5.33674,-10.77407 11.74306,-27.85351 14.23629,-37.95429 l 4.53312,-18.36493 3.09521,11.01894 c 6.91826,24.62904 7.81939,55.98642 2.21499,77.07652 -4.23279,15.92852 -16.5884,36.96606 -29.05429,49.47003 l -11.61033,11.64568 4.15584,7.42466 c 2.28571,4.08358 7.82153,14.036 12.3018,22.11664 4.48027,8.08055 10.22375,18.40279 12.76329,22.93829 2.53954,4.5354 4.28788,8.54171 3.88518,8.90283 -0.40268,0.36094 -4.58881,-2.38672 -9.30248,-6.10622 z"
         id="path1956" />
    </g>
  </g>
</svg>
