<svg xmlns="http://www.w3.org/2000/svg" width="250" height="250" fill="#038036"><path d="M88.356 247.327h73.289L125.304 61.364z"/><path d="M182.668 16.435C202.67 33.89 215.49 58.884 215.49 88.8c0 51.726-40.514 92.747-90.491 92.747s-90.488-41.932-90.488-93.659c0-25.119 9.361-49.083 25.106-64.827C74.607 8.071 92.78 1.989 90.314 2.733 41.564 17.443 6.093 62.274 6.093 114.585c0 64.087 53.236 115.126 118.906 115.126s118.907-51.039 118.907-115.126c0-51.608-34.523-95.937-82.26-111.245-2.335-.748 12.668 5.805 21.022 13.095zm-14.482 60.978c0 23.347-18.695 42.273-42.881 42.273s-43.794-16.727-43.794-42.273c0-29.5 25.762-38.499 23.222-37.708-24.773 7.711-40.558 29.198-40.558 53.827 0 28.283 24.849 55.046 61.129 55.046s59.303-27.067 59.303-55.046c0-24.442-14.406-45.79-38.377-53.65-2.664-.874 21.956 13.051 21.956 37.531z"/></svg>