<?xml version="1.0" encoding="UTF-8"?><svg width="422" height="454" viewBox="40 23 422 454" xmlns="http://www.w3.org/2000/svg">
 <path xmlns="http://www.w3.org/2000/svg" fill="#6fc451" d="m219.1 236.6c0.4 22.7 0.4 45.7-5.9 67.7-11.4 50.4-39.4 99.3-84.8 126.2-11.5 7-23.8 12.6-36.6 16.5 18.1 3.8 37.1 1.4 54.8-3 56.7-15.7 102.5-59.4 129-111.1 15.5-30 25.4-62.9 28.9-96.5h-85.4z"/>
 <path xmlns="http://www.w3.org/2000/svg" fill="#4383c7" d="m459.5 25c-24.4 65.2-88.3 106.4-152.8 125.2-52.1 14.2-108.1 18.5-154.9 47.9-59 33.7-109.1 93.7-111.5 164.1-0.42 30.1 10.2 62 34.1 81.5-6.7-24.7-6.2-52 7.1-74.7 32.6-65.4 102.6-103.1 171.7-117.6 50.2-10.2 98.7-31.5 138-64.8 44.3-40.6 69.5-101.5 68.3-161.4zm0.2 93.3c-9.6 39.6-35.6 73.4-67.3 98.2-18.8 15.1-39.5 27.6-61.2 38-2.7 27.5-10.2 54.6-23 79.2 10.8 0.5 20.2-6.4 30.1-9.9 46.7-21.8 81.3-64.4 99.8-111.8 12.1-29.8 19.6-61.6 21.5-93.6zm-57.4 188.8c-13.7 12.2-26.9 25.4-43.1 34.4-20.2 12.2-42.8 20-66.1 23.1-9 9.1-16.6 20.1-26 29.1-25 25.4-55.1 47.4-89.9 57.3-27.9 8.3-58.1 11.2-86.6 4.1 16 10.9 35.4 16.4 54.5 18.8 43.8 4.5 88.5-6.1 126.7-27.6 42.9-24.4 82-57.1 108.8-99 8.3-12.8 15.7-26.4 21.7-40.4z"/>
 <circle xmlns="http://www.w3.org/2000/svg" fill="#e83c33" cy="92.6" cx="277" r="52.4"/>
</svg>