<svg xmlns="http://www.w3.org/2000/svg" width="200" height="200"><path fill="#113394" d="M75.66 188.56c1.0.6.937.839-.246.708-64.055-7.289-88.27-73.157-60.925-126.11C39.07 15.54 89-3.88 137.9 22.624c.36.2.34.29-.074.29-51.24.07-81.07 29.344-92.77 77.1-7.764 31.73.69 70.65 30.61 88.55h0zm53.505-141.437c29.9 5.725 43.48 40.084 42.1 66.74-2 37.9-27.44 63.568-62.54 75.25-1.135.384-1.217.228-.246-.464 35.367-25.16 37.2-85.2 7.26-115.127-10.61-10.61-23.17-12.806-37.67-6.59-.369.155-.414.086-.135-.208 12.63-13.37 32.765-23.12 51.236-19.6z"/><path fill="#1779af" d="M160 55.65c21.53 9.8 34.94 34.2 36.48 56.24 2.86 40.89-28.8 68.5-67.21 75.335-.404.074-.42.021-.051-.16 22.4-10.765 38.17-27.815 47.32-51.153 5.756-14.678 5.4-30.433 2.576-45.501-2.555-13.716-8.96-25.25-19.225-34.6-.3-.278-.267-.33.11-.16h0 0zm-50.3 120.63c1.873.954 3.314.563 5.4.92.2.03.344.21.316.406-.01.06-.03.12-.07.17-16.674 20.62-42.935 9.674-53.14-10.75-12.027-24.1-7.936-63.666 23.156-71.8 22.34-5.835 39.4 16.54 42.834 35.997.559 3.148.447 6.4-.334 9.736-.09.4-.205.4-.346 0-2.97-8.95-9.98-16.27-19.95-11.79-2.11.945-3.87 2.568-5.275 4.9-7.246 11.856-7 23.93.7 36.219 1.62 2.585 3.86 4.59 6.72 6h0z"/></svg>