<?xml version="1.0" encoding="UTF-8" standalone="no"?>
<svg
   width="378"
   height="369"
   viewBox="0 0 378 369"
   fill="#c32837"
   version="1.1"
   id="svg20"
   sodipodi:docname="Kihoku.svg"
   inkscape:version="1.1.2 (b8e25be833, 2022-02-05)"
   xmlns:inkscape="http://www.inkscape.org/namespaces/inkscape"
   xmlns:sodipodi="http://sodipodi.sourceforge.net/DTD/sodipodi-0.dtd"
   xmlns="http://www.w3.org/2000/svg"
   xmlns:svg="http://www.w3.org/2000/svg">
  <defs
     id="defs24">
    <clipPath
       clipPathUnits="userSpaceOnUse"
       id="clipPath941">
      <path
         d="M 0,841.98 H 595.2 V 0.109 H 0 Z"
         id="path939" />
    </clipPath>
    <clipPath
       clipPathUnits="userSpaceOnUse"
       id="clipPath999">
      <path
         d="M 0,841.98 H 595.2 V 0.109 H 0 Z"
         id="path997" />
    </clipPath>
    <clipPath
       clipPathUnits="userSpaceOnUse"
       id="clipPath1139">
      <path
         d="M 90.165,26.9 H 70.382 V 40.063 H 90.165 V 26.9"
         id="path1137" />
    </clipPath>
    <clipPath
       clipPathUnits="userSpaceOnUse"
       id="clipPath1545">
      <path
         d="M 0,841.98 H 595.2 V 0.109 H 0 Z"
         id="path1543" />
    </clipPath>
    <clipPath
       clipPathUnits="userSpaceOnUse"
       id="clipPath1561">
      <path
         d="M 0,841.98 H 595.2 V 0.109 H 0 Z"
         id="path1559" />
    </clipPath>
    <clipPath
       clipPathUnits="userSpaceOnUse"
       id="clipPath1693">
      <path
         d="M 0,841.98 H 595.2 V 0.109 H 0 Z"
         id="path1691" />
    </clipPath>
    <clipPath
       clipPathUnits="userSpaceOnUse"
       id="clipPath1767">
      <path
         d="m 79.631,196.238 h 122.5 V 54.2 h -122.5 z"
         id="path1765" />
    </clipPath>
    <clipPath
       clipPathUnits="userSpaceOnUse"
       id="clipPath1779">
      <path
         d="M 206.137,123.85 H 317.949 V 54.821 H 206.137 Z"
         id="path1777" />
    </clipPath>
    <clipPath
       clipPathUnits="userSpaceOnUse"
       id="clipPath1791">
      <path
         d="m 206.137,196.238 h 111.812 v -69.03 H 206.137 Z"
         id="path1789" />
    </clipPath>
    <clipPath
       clipPathUnits="userSpaceOnUse"
       id="clipPath1803">
      <path
         d="M 322.078,196.238 H 446.252 V 54.2 H 322.078 Z"
         id="path1801" />
    </clipPath>
    <clipPath
       clipPathUnits="userSpaceOnUse"
       id="clipPath1815">
      <path
         d="M 449.61,123.85 H 561.422 V 54.821 H 449.61 Z"
         id="path1813" />
    </clipPath>
    <clipPath
       clipPathUnits="userSpaceOnUse"
       id="clipPath1827">
      <path
         d="m 449.61,196.238 h 111.812 v -69.03 H 449.61 Z"
         id="path1825" />
    </clipPath>
    <clipPath
       clipPathUnits="userSpaceOnUse"
       id="clipPath1845">
      <path
         d="M 0,841.98 H 595.2 V 0.109 H 0 Z"
         id="path1843" />
    </clipPath>
    <clipPath
       clipPathUnits="userSpaceOnUse"
       id="clipPath2409">
      <path
         d="M 0,841.98 H 595.2 V 0.109 H 0 Z"
         id="path2407" />
    </clipPath>
    <clipPath
       clipPathUnits="userSpaceOnUse"
       id="clipPath3935">
      <path
         d="M 250.271,630.792 H 399.176 V 507.517 H 250.271 Z"
         id="path3933" />
    </clipPath>
    <clipPath
       clipPathUnits="userSpaceOnUse"
       id="clipPath3947">
      <path
         d="M 81.863,630.792 H 230.767 V 507.517 H 81.863 Z"
         id="path3945" />
    </clipPath>
    <clipPath
       clipPathUnits="userSpaceOnUse"
       id="clipPath3959">
      <path
         d="M 433.723,630.792 H 552.352 V 507.517 H 433.723 Z"
         id="path3957" />
    </clipPath>
  </defs>
  <sodipodi:namedview
     id="namedview22"
     pagecolor="#ffffff"
     bordercolor="#666666"
     borderopacity="1.0"
     inkscape:pageshadow="2"
     inkscape:pageopacity="0.0"
     inkscape:pagecheckerboard="0"
     showgrid="false"
     inkscape:zoom="0.62083333"
     inkscape:cx="-62.013423"
     inkscape:cy="140.13423"
     inkscape:window-width="1920"
     inkscape:window-height="1009"
     inkscape:window-x="2552"
     inkscape:window-y="-8"
     inkscape:window-maximized="1"
     inkscape:current-layer="svg20"
     fit-margin-top="0"
     fit-margin-left="0"
     fit-margin-right="0"
     fit-margin-bottom="0" />
  <path
     d="m 326.16088,215.38796 c -28.06759,0 -50.82147,23.42419 -50.82147,52.32052 0,28.89633 22.75388,52.32052 50.82147,52.32052 13.13802,0 24.16762,-4.61903 33.19849,-13.02834 -16.18487,17.39143 -36.31846,25.56917 -57.52454,25.56917 -46.7265,0 -84.61714,-40.73029 -84.61714,-90.95458 0,-50.23647 37.89064,-90.97896 84.61714,-90.97896 23.37543,0 58.58484,15.14894 75.91533,46.5315 -17.11112,-49.38335 -65.21479,-84.97057 -121.8984,-84.97057 -71.016,0 -128.5771,55.84268 -128.5771,124.72588 0,68.89539 57.5611,124.75025 128.5771,124.75025 46.31213,0 90.22334,-23.65575 113.19659,-65.05635 4.02184,-7.19057 7.94619,-18.30548 7.94619,-28.90852 0,-28.89633 -22.75388,-52.32052 -50.83366,-52.32052"
     style="fill:#2744a0;fill-opacity:1;fill-rule:nonzero;stroke:none;stroke-width:12.1874"
     id="path1209" />
  <path
     d="M 142.8136,311.71719 C 90.395578,238.77558 120.8519,126.57836 213.42741,66.51884 255.54707,39.19468 301.49358,16.87955 346.00197,1.85248 183.7389,14.39332 17.892718,74.67221 4.6815778,213.32829 -0.54682216,268.1716 20.330198,322.32023 60.804568,368.57142 H 243.06717 c -41.75404,-4.8384 -76.90251,-24.35043 -100.25357,-56.85423"
     style="fill:#39a33e;fill-opacity:1;fill-rule:nonzero;stroke:none;stroke-width:12.1874"
     id="path1213" />
  <path
     id="path1221"
     style="fill:#356cbd;fill-opacity:1;fill-rule:nonzero;stroke:none;stroke-width:12.1874"
     d="m 0.23317784,223.15134 c 0,-4.08279 0.36562,-8.10463 0.65812,-12.21178 C 9.3859178,90.96677 133.0393,26.66603 270.87882,0.71905 L 154.29413,0.2803 C 68.141378,44.91057 7.0824878,110.83223 0.53785784,203.12743 c -0.47531,6.73964 -0.76781,17.9033 -0.30468,20.02391 m 0.53624,-48.65211 C 10.226848,104.49478 57.379908,46.29994 133.84367,0.19499 L 80.475028,0 C 28.958878,57.67078 3.1947078,111.52692 0.76941784,174.49923" />
  <path
     d="m 326.16088,215.38796 c -28.06759,0 -50.82147,23.42419 -50.82147,52.32052 0,28.89633 22.75388,52.32052 50.82147,52.32052 13.13802,0 24.16762,-4.61903 33.19849,-13.02834 -16.18487,17.39143 -36.31846,25.56917 -57.52454,25.56917 -46.7265,0 -84.61714,-40.73029 -84.61714,-90.95458 0,-50.23647 37.89064,-90.97896 84.61714,-90.97896 23.37543,0 58.58484,15.14894 75.91533,46.5315 -17.11112,-49.38335 -65.21479,-84.97057 -121.8984,-84.97057 -71.016,0 -128.5771,55.84268 -128.5771,124.72588 0,68.89539 57.5611,124.75025 128.5771,124.75025 46.31213,0 90.22334,-23.65575 113.19659,-65.05635 4.02184,-7.19057 7.94619,-18.30548 7.94619,-28.90852 0,-28.89633 -22.75388,-52.32052 -50.83366,-52.32052"
     style="fill:#2744a0;fill-opacity:1;fill-rule:nonzero;stroke:none;stroke-width:12.1874"
     id="path1209-3" />
  <path
     d="M 142.8136,311.71719 C 90.395578,238.77558 120.8519,126.57836 213.42741,66.51884 255.54707,39.19468 301.49358,16.87955 346.00197,1.85248 183.7389,14.39332 17.892718,74.67221 4.6815778,213.32829 -0.54682216,268.1716 20.330198,322.32023 60.804568,368.57142 H 243.06717 c -41.75404,-4.8384 -76.90251,-24.35043 -100.25357,-56.85423"
     style="fill:#39a33e;fill-opacity:1;fill-rule:nonzero;stroke:none;stroke-width:12.1874"
     id="path1213-9" />
  <path
     id="path1221-6"
     style="fill:#356cbd;fill-opacity:1;fill-rule:nonzero;stroke:none;stroke-width:12.1874"
     d="m 0.23317784,223.15134 c 0,-4.08279 0.36562,-8.10463 0.65812,-12.21178 C 9.3859178,90.96677 133.0393,26.66603 270.87882,0.71905 L 154.29413,0.2803 C 68.141378,44.91057 7.0824878,110.83223 0.53785784,203.12743 c -0.47531,6.73964 -0.76781,17.9033 -0.30468,20.02391 m 0.53624,-48.65211 C 10.226848,104.49478 57.379908,46.29994 133.84367,0.19499 L 80.475028,0 C 28.958878,57.67078 3.1947078,111.52692 0.76941784,174.49923" />
</svg>
