<?xml version="1.0" encoding="UTF-8" standalone="no"?>
<!-- Created with Inkscape (http://www.inkscape.org/) -->

<svg
   xmlns:dc="http://purl.org/dc/elements/1.1/"
   xmlns:cc="http://creativecommons.org/ns#"
   xmlns:rdf="http://www.w3.org/1999/02/22-rdf-syntax-ns#"
   xmlns:svg="http://www.w3.org/2000/svg"
   xmlns="http://www.w3.org/2000/svg"
   xmlns:sodipodi="http://sodipodi.sourceforge.net/DTD/sodipodi-0.dtd"
   xmlns:inkscape="http://www.inkscape.org/namespaces/inkscape"
   width="350"
   height="351.08371"
   id="svg2"
   version="1.1"
   inkscape:version="0.48.4 r"
   sodipodi:docname="Symbol of Kiho Mie.svg">
  <defs
     id="defs4" />
  <sodipodi:namedview
     id="base"
     pagecolor="#ffffff"
     bordercolor="#666666"
     borderopacity="1.0"
     inkscape:pageopacity="0.0"
     inkscape:pageshadow="2"
     inkscape:zoom="1.1567786"
     inkscape:cx="151.5978"
     inkscape:cy="119.82915"
     inkscape:document-units="px"
     inkscape:current-layer="layer1"
     showgrid="false"
     inkscape:window-width="1280"
     inkscape:window-height="961"
     inkscape:window-x="-8"
     inkscape:window-y="-8"
     inkscape:window-maximized="1"
     fit-margin-top="0"
     fit-margin-left="0"
     fit-margin-right="0"
     fit-margin-bottom="0" />
  <metadata
     id="metadata7">
    <rdf:RDF>
      <cc:Work
         rdf:about="">
        <dc:format>image/svg+xml</dc:format>
        <dc:type
           rdf:resource="http://purl.org/dc/dcmitype/StillImage" />
        <dc:title></dc:title>
      </cc:Work>
    </rdf:RDF>
  </metadata>
  <g
     inkscape:label="レイヤー 1"
     inkscape:groupmode="layer"
     id="layer1"
     transform="translate(-78.031254,-320.82156)">
    <g
       id="g3814"
       transform="matrix(1.1649678,0,0,1.1649678,-12.87264,-110.8427)">
      <path
         sodipodi:nodetypes="csscssssssssssscc"
         inkscape:connector-curvature="0"
         id="path3810"
         d="m 239,393.65625 c 0.84414,3.42359 1.3125,7.00328 1.3125,10.6875 0,24.57231 -19.92769,44.46875 -44.5,44.46875 -19.81206,0 -36.58296,-12.94707 -42.34375,-30.84375 -44.79576,27.07163 -75.4375,73.90547 -75.4375,125.8125 0,32.5564 10.867645,61.42832 30.82529,83.25062 5.68856,6.22005 10.59273,9.76276 4.63139,-2.69926 -6.06112,-12.6706 -8.02325,-28.98253 -8.17543,-48.27011 -0.42145,-53.41391 59.90422,-126.62478 137.78125,-126.625 37.26101,-10e-5 84.99673,29.15375 86,91.75 0.67071,41.84698 -25.44846,82.47039 -59.73395,106.8698 -10.4742,7.45401 -21.5323,13.94749 -33.1781,17.39178 -22.28888,6.592 -11.23701,7.2097 2.42033,5.8907 12.3025,-1.18815 24.3746,-4.5659 36.01725,-9.04659 57.54209,-22.14517 103.84947,-78.11754 103.84947,-138.82439 0,-78.32622 -63.43032,-130.37528 -139.46875,-129.8125 z"
         style="fill:#5ec920;fill-opacity:1;stroke:none" />
      <path
         transform="matrix(0.32862558,0,0,0.4257771,119.9069,183.28418)"
         d="m 333.83244,519.16895 c 0,43.83872 -46.04449,79.37702 -102.84324,79.37702 -56.79876,0 -102.84325,-35.5383 -102.84325,-79.37702 0,-43.83873 46.04449,-79.37703 102.84325,-79.37703 56.79875,0 102.84324,35.5383 102.84324,79.37703 z"
         sodipodi:ry="79.377029"
         sodipodi:rx="102.84325"
         sodipodi:cy="519.16895"
         sodipodi:cx="230.9892"
         id="path3793"
         style="fill:#15832d;fill-opacity:1;stroke:none"
         sodipodi:type="arc" />
      <path
         sodipodi:type="arc"
         style="fill:#15832d;fill-opacity:1;stroke:none"
         id="path3795"
         sodipodi:cx="230.9892"
         sodipodi:cy="519.16895"
         sodipodi:rx="102.84325"
         sodipodi:ry="79.377029"
         d="m 333.83244,519.16895 c 0,43.83872 -46.04449,79.37702 -102.84324,79.37702 -56.79876,0 -102.84325,-35.5383 -102.84325,-79.37702 0,-43.83873 46.04449,-79.37703 102.84325,-79.37703 56.79875,0 102.84324,35.5383 102.84324,79.37703 z"
         transform="matrix(0.25596551,0,0,0.33163656,216.96123,407.80031)" />
      <path
         sodipodi:nodetypes="cssssssssssssssssc"
         inkscape:connector-curvature="0"
         id="path3804"
         d="m 253.30694,476.72551 -116.65611,42.2494 c -1.30769,0.47361 -1.53889,1.43813 -0.004,1.76846 9.8364,2.11722 28.61163,9.05224 29.12881,27.34074 0.64334,22.74991 -20.58498,34.27059 -28.75488,38.92364 -2.44435,1.39214 -2.45692,1.79761 0.23862,2.21017 8.20743,1.25618 27.10099,6.90032 28.51626,26.24587 1.54637,21.13754 -18.02485,30.97037 -28.57586,38.17267 -2.17914,1.48752 -1.28652,2.99411 0.72451,2.27132 l 116.23428,-41.77582 c 2.21691,-0.79679 2.8866,-2.49928 -0.10612,-2.80088 -16.30377,-1.64305 -26.21319,-11.09164 -28.77579,-23.67478 -3.09006,-15.17312 12.03294,-34.26642 29.00568,-41.92955 1.87383,-0.84603 1.76134,-1.76231 -0.0428,-1.97392 -9.00779,-1.05653 -27.83804,-9.29297 -29.05237,-24.1537 -1.48654,-18.19209 15.57644,-32.82839 29.1925,-40.66204 1.88141,-1.08243 2.78894,-3.60698 -1.07254,-2.21158 z"
         style="fill:#15832d;fill-opacity:1;stroke:none" />
    </g>
  </g>
</svg>
