<?xml version="1.0" encoding="UTF-8"?><svg width="400" height="456" viewBox="50 22 400 456" xmlns="http://www.w3.org/2000/svg">
 <path xmlns="http://www.w3.org/2000/svg" fill="#287fc2" d="m250 25c-40 70-116.9 112.2-195.8 113 40 70 40 154.3 0.8 225 80 1 153.8 43.4 194.7 112.7 40-70 114.8-112 194.8-112.4-40-70-40-155.5 0.5-225-80-0.8-154.8-44.55-195-112.5zm-9.9 90.9v269.1c-45.8-3.1-85.2-28.8-107.2-66-10.8-18.1-17.4-39.1-18.6-61.4 56.2-20 92.6-74.6 89.5-134.2 11.7-4.1 23.9-6.7 36.3-7.5zm18 0c12.3 0.9 24.5 3.4 36.2 7.5-3.1 59.6 33.3 114.1 89.4 134.1-1.1 21.3-7.2 41.3-17 58.9-21.7 38.6-61.8 65.4-108.6 68.6v-269.1z"/>
</svg>