<?xml version="1.0" encoding="UTF-8"?>
<!DOCTYPE svg PUBLIC "-//W3C//DTD SVG 1.1//EN" "http://www.w3.org/Graphics/SVG/1.1/DTD/svg11.dtd">
<!-- Creator: CorelDRAW Home & Student X7 -->
<svg xmlns="http://www.w3.org/2000/svg" xml:space="preserve" width="129.873mm" height="112.658mm" version="1.1" style="shape-rendering:geometricPrecision; text-rendering:geometricPrecision; image-rendering:optimizeQuality; fill-rule:evenodd; clip-rule:evenodd"
viewBox="0 0 12705 11021"
 xmlns:xlink="http://www.w3.org/1999/xlink">
 <defs>
  <style type="text/css">
   <![CDATA[
    .fil1 {fill:#005EA0}
    .fil0 {fill:#00916A}
   ]]>
  </style>
 </defs>
 <g id="Layer_x0020_1">
  <metadata id="CorelCorpID_0Corel-Layer"/>
  <path class="fil0" d="M1280 7644c1614,4008 7211,4570 9620,1031 641,-941 1271,-2583 922,-4039 -489,211 -1153,781 -1496,1084 -241,212 -413,403 -657,619 -253,223 -687,482 -742,535 136,539 275,737 208,1416 -223,2269 -3043,3323 -4695,1691 -584,-578 -886,-1203 -827,-2347 -1011,-16 -686,-92 -1189,-195l-1144 205z"/>
  <path class="fil0" d="M6107 360c20,-129 54,-25 50,-352 -709,-72 -1797,333 -2322,600 -1963,997 -3317,3285 -2926,5725 140,4 745,-442 891,-546 571,-407 1059,-1003 1589,-1378l898 -550c-360,-738 -380,-1625 60,-2324 688,-1096 1551,-1034 1760,-1175z"/>
  <path class="fil0" d="M10412 3544c216,-29 356,-115 1017,-176 30,-248 -605,-1121 -736,-1296 -842,-1122 -2473,-2045 -4044,-2070 -6,338 -49,371 262,435 489,100 985,414 1290,777 184,220 381,561 473,908 135,503 74,744 12,1240 216,-31 976,-85 1726,182z"/>
  <path class="fil1" d="M0 7162c1833,501 3393,-601 4404,-1498 119,-105 212,-224 334,-321 614,-489 814,-707 1574,-1117 152,-82 313,-151 476,-215 247,-97 378,-104 499,-174 -29,-15 21,-1 -81,-34 -11,-4 -45,-13 -57,-16 -45,-11 -103,-16 -150,-22 -289,-34 -720,-50 -1001,-23 -383,36 -748,147 -1072,270 -1305,493 -1785,1251 -2739,1990 -125,96 -228,182 -372,283 -851,595 -941,552 -1815,877z"/>
  <path class="fil1" d="M5438 7149c254,139 916,129 1246,102 375,-31 767,-135 1088,-255 727,-271 1187,-611 1687,-1005 130,-102 246,-226 362,-328 390,-344 558,-548 1081,-920 414,-293 812,-542 1304,-733l391 -126c96,-34 -86,35 54,-21 7,-3 23,-1 27,-13 5,-12 19,-8 27,-13 -161,-80 -413,-89 -602,-98 -673,-34 -1098,19 -1733,263 -1208,464 -1814,1213 -2744,1985 -667,553 -1279,883 -2188,1162z"/>
  <path class="fil1" d="M2873 7198c631,162 1605,18 2224,-219 1560,-599 1965,-1455 3124,-2260 1186,-825 1534,-734 1803,-882 -229,-120 -972,-121 -1270,-99 -1502,110 -2510,1074 -3453,1926 -658,596 -1633,1265 -2564,1476l136 58z"/>
 </g>
</svg>
