<?xml version="1.0" encoding="UTF-8"?><svg width="455" height="443" viewBox="22 28 455 443" xmlns="http://www.w3.org/2000/svg" xmlns:xlink="http://www.w3.org/1999/xlink" version="1.1">
 <path xmlns="http://www.w3.org/2000/svg" id="a" d="m239.7 30.1a56 56 0 0 0 0 110.3 155.5 122.4 0 0 0-53.1 233 2.7 2.7 0 0 1-2.6 5.1a220.5 178.3 0 0 1 55.7-348.4z" fill="#006c3b"/>
 <use xmlns="http://www.w3.org/2000/svg" xmlns:xlink="http://www.w3.org/1999/xlink" xlink:href="#a" x="-500" y="0" transform="scale(-1 1)"/>
 <path xmlns="http://www.w3.org/2000/svg" d="m250 148.8c-33.4 67.9-142.8 96.2-222.3 93.4a2.7 2.7 0 0 0 0 5.4c30.7-0.3 89.7-1.9 151.6 35.2 30.9 18.5 67.5 67.4 68 184.4a2.7 2.7 0 0 0 5.4 0c0.5-117 37.1-165.9 68-184.4 61.9-37.1 120.9-35.5 151.6-35.2a2.7 2.7 0 0 0 0-5.4c-79.5 2.8-188.9-25.5-222.3-93.4z" fill="#de6a09"/>
</svg>