<?xml version="1.0" encoding="UTF-8" standalone="no"?>
<!-- Created with Inkscape (http://www.inkscape.org/) -->

<svg
   xmlns:dc="http://purl.org/dc/elements/1.1/"
   xmlns:cc="http://creativecommons.org/ns#"
   xmlns:rdf="http://www.w3.org/1999/02/22-rdf-syntax-ns#"
   xmlns:svg="http://www.w3.org/2000/svg"
   xmlns="http://www.w3.org/2000/svg"
   xmlns:sodipodi="http://sodipodi.sourceforge.net/DTD/sodipodi-0.dtd"
   xmlns:inkscape="http://www.inkscape.org/namespaces/inkscape"
   width="249.99998"
   height="218.7057"
   id="svg2"
   version="1.1"
   inkscape:version="0.48.4 r"
   sodipodi:docname="Symbol of Takashima Shiga.svg">
  <defs
     id="defs4" />
  <sodipodi:namedview
     id="base"
     pagecolor="#ffffff"
     bordercolor="#666666"
     borderopacity="1.0"
     inkscape:pageopacity="0.0"
     inkscape:pageshadow="2"
     inkscape:zoom="1.6175286"
     inkscape:cx="139.61234"
     inkscape:cy="129.82767"
     inkscape:document-units="px"
     inkscape:current-layer="layer1"
     showgrid="false"
     inkscape:window-width="1280"
     inkscape:window-height="961"
     inkscape:window-x="-8"
     inkscape:window-y="-8"
     inkscape:window-maximized="1"
     fit-margin-top="0"
     fit-margin-left="0"
     fit-margin-right="0"
     fit-margin-bottom="0" />
  <metadata
     id="metadata7">
    <rdf:RDF>
      <cc:Work
         rdf:about="">
        <dc:format>image/svg+xml</dc:format>
        <dc:type
           rdf:resource="http://purl.org/dc/dcmitype/StillImage" />
        <dc:title></dc:title>
      </cc:Work>
    </rdf:RDF>
  </metadata>
  <g
     inkscape:label="レイヤー 1"
     inkscape:groupmode="layer"
     id="layer1"
     transform="translate(-61.723435,-449.49728)">
    <g
       id="g3801"
       style="fill:#24377c;fill-opacity:1"
       transform="matrix(1.0977905,0,0,1.0977905,-6.0359681,-65.343931)">
      <path
         sodipodi:nodetypes="cssc"
         inkscape:connector-curvature="0"
         id="path3789"
         d="m 192.84,586.61918 c 5.10679,38.06147 -0.57728,62.64817 -36.64694,77.89651 -36.11607,15.26796 -73.87908,-19.57467 -34.2702,-55.03004 19.6487,-17.58828 50.73679,-5.03466 70.91714,-22.86647 z"
         style="fill:#24377c;fill-opacity:1;stroke:none" />
      <path
         style="fill:#24377c;fill-opacity:1;stroke:none"
         d="m 186.39421,582.66718 c -44.32495,19.94486 -78.08365,11.25714 -106.642609,-13.31 -38.217413,-32.87558 -10.466728,-77.62015 34.703639,-56.472 22.79696,10.67323 42.22979,57.37521 71.93897,69.782 z"
         id="path3791"
         inkscape:connector-curvature="0"
         sodipodi:nodetypes="cssc" />
      <path
         sodipodi:nodetypes="cssc"
         inkscape:connector-curvature="0"
         id="path3793"
         d="m 193.53835,578.38138 c -21.10376,-9.45752 -47.1448,-36.52262 -52.72007,-59.98822 -11.98453,-50.44141 32.67274,-55.59711 46.65514,-13.37902 7.78661,23.51068 1.09003,47.33659 6.06493,73.36724 z"
         style="fill:#24377c;fill-opacity:1;stroke:none" />
      <path
         style="fill:#24377c;fill-opacity:1;stroke:none"
         d="m 193.90359,532.95986 c 0.53394,-27.70821 7.63995,-44.3936 20.46982,-54.85217 27.93644,-22.77304 47.65342,2.15771 30.05111,19.44036 -10.65503,10.46153 -29.85994,6.94923 -50.52093,35.41181 z"
         id="path3795"
         inkscape:connector-curvature="0"
         sodipodi:nodetypes="cssc" />
      <path
         sodipodi:nodetypes="cssc"
         inkscape:connector-curvature="0"
         id="path3797"
         d="m 200.43362,584.63637 c 21.20455,16.57815 48.76873,20.41814 61.19849,16.23829 33.70733,-11.335 24.81807,-39.77008 -3.11155,-32.41167 -14.43955,3.80428 -24.82621,14.19021 -58.08694,16.17338 z"
         style="fill:#24377c;fill-opacity:1;stroke:none" />
      <path
         style="fill:#24377c;fill-opacity:1;stroke:none"
         d="m 198.68975,589.28404 c 1.94628,38.46877 33.33937,63.24913 49.71862,67.29387 48.39862,11.9517 53.04851,-24.48306 18.94478,-34.31453 -18.45918,-5.32144 -54.7312,-17.16125 -68.6634,-32.97934 z"
         id="path3799"
         inkscape:connector-curvature="0"
         sodipodi:nodetypes="cssc" />
    </g>
  </g>
</svg>
