<?xml version="1.0" encoding="UTF-8" standalone="no"?>
<!-- Created with Inkscape (http://www.inkscape.org/) -->

<svg
   xmlns:dc="http://purl.org/dc/elements/1.1/"
   xmlns:cc="http://creativecommons.org/ns#"
   xmlns:rdf="http://www.w3.org/1999/02/22-rdf-syntax-ns#"
   xmlns:svg="http://www.w3.org/2000/svg"
   xmlns="http://www.w3.org/2000/svg"
   xmlns:xlink="http://www.w3.org/1999/xlink"
   xmlns:sodipodi="http://sodipodi.sourceforge.net/DTD/sodipodi-0.dtd"
   xmlns:inkscape="http://www.inkscape.org/namespaces/inkscape"
   version="1.0"
   width="366.0625"
   height="410"
   id="svg2"
   inkscape:version="0.48.2 r9819"
   sodipodi:docname="Flag_of_Kyoto_City.svg">
  <metadata
     id="metadata16">
    <rdf:RDF>
      <cc:Work
         rdf:about="">
        <dc:format>image/svg+xml</dc:format>
        <dc:type
           rdf:resource="http://purl.org/dc/dcmitype/StillImage" />
      </cc:Work>
    </rdf:RDF>
  </metadata>
  <sodipodi:namedview
     pagecolor="#ffffff"
     bordercolor="#666666"
     borderopacity="1"
     objecttolerance="10"
     gridtolerance="10"
     guidetolerance="10"
     inkscape:pageopacity="0"
     inkscape:pageshadow="2"
     inkscape:window-width="1600"
     inkscape:window-height="878"
     id="namedview14"
     showgrid="false"
     fit-margin-top="0"
     fit-margin-left="0"
     fit-margin-right="0"
     fit-margin-bottom="0"
     inkscape:zoom="0.39333333"
     inkscape:cx="183"
     inkscape:cy="205"
     inkscape:window-x="-8"
     inkscape:window-y="-8"
     inkscape:window-maximized="1"
     inkscape:current-layer="svg2" />
  <defs
     id="defs5" />
  <path
     d="M 152,22.1875 C 101.79539,31.08719 58.92067,60.8575 32.5,102.25 l 60.03125,29.59375 C 107.99474,111.01778 130.41941,95.66477 156.375,89.28125 L 152,22.40625 c -0.005,-0.0749 0.002,-0.14405 0,-0.21875 z m 63,0 c -0.002,0.0747 0.005,0.14384 0,0.21875 l -4.375,66.875 c 25.82158,6.34871 48.16776,21.56086 63.625,42.21875 L 334.0625,102 C 307.72199,60.75276 265.04994,31.07014 215,22.1875 z M 127.375,111.5 121,129.4375 141.375,150.8125 158.09375,140 146.3125,113.34375 127.375,111.5 z m 112.96875,0.28125 -18.90625,2.1875 -10.875,27.09375 16.34375,10.3125 20.15625,-21.8125 -6.71875,-17.78125 z m 101.875,4.3125 -55.3125,36.96875 c 6.31884,14.10782 9.84375,29.73388 9.84375,46.1875 0,10.81419 -1.54206,21.23453 -4.375,31.09375 l 59.0625,29.125 c 0.17799,0.0873 0.36448,0.178 0.53125,0.28125 6.7171,-18.86765 10.375,-39.23068 10.375,-60.5 0,-29.99127 -7.25323,-58.28527 -20.125,-83.15625 z M 24.375,116.4375 C 11.55494,141.23159 4.28125,169.38471 4.28125,199.25 c 0,21.16546 3.66132,41.42765 10.34375,60.21875 0.008,-0.004 0.0231,0.004 0.0312,0 l 59.84375,-29.5 c -2.75444,-9.74396 -4.25,-20.04998 -4.25,-30.71875 0,-16.28153 3.45859,-31.72853 9.65625,-45.71875 L 24.375,116.4375 z M 91.6875,179 80,194 l 11.6875,15 28.25,-4.0625 0,-19.625 L 91.6875,179 z m 183.625,1 -28.25,6.1875 0,19.5 L 275.3125,210 287,195 275.3125,180 z M 146.28125,251.15625 128.5,273.375 135.65625,291 l 18.8125,-2.625 8.5625,-28.3125 -16.75,-8.90625 z m 74.46875,0.375 -17.28125,9.0625 8.5625,28.25 18.75,3.15625 7.625,-17.4375 L 220.75,251.53125 z M 101.5625,276.9375 46.15625,314 c -0.0798,0.0529 -0.16823,0.0763 -0.25,0.125 31.21099,37.23586 77.37205,61.48693 129.46875,63.78125 l -4.40625,-67.09375 c -27.18557,-2.94245 -51.49368,-15.32696 -69.40625,-33.875 z m 163.46875,0.375 c -17.87359,18.32585 -42.01214,30.57847 -69,33.5 l -4.40625,67.09375 c 51.9519,-2.29263 97.92551,-26.42139 129.03125,-63.5 -0.25034,-0.11959 -0.48419,-0.25081 -0.71875,-0.40625 l -54.90625,-36.6875 z"
     id="path2489"
     style="fill:#610051;stroke:none"
     inkscape:connector-curvature="0" />
  <g
     id="g2424"
     style="fill:#ffd700;stroke:none"
     transform="translate(-267,-95)">
    <path
       d="m 320.22825,197.02991 c -2.94464,-5.10025 -1.76639,-10.50972 0.66594,-14.09654 2.43234,-3.58684 5.5748,-5.66406 7.94539,-7.11318 10.63333,-6.50001 21.2213,-3.06801 23.66837,-2.44269 -1.45162,-3.23124 -1.41102,-6.35286 -0.97677,-10.44181 0.42626,-2.45971 1.98546,-4.87268 3.73855,-6.52465 l 4.47935,-4.67904 c 3.01924,-2.64381 3.78445,-1.59347 3.6908,-1.13859 -0.0721,0.78136 -1.28256,1.84106 -1.13718,2.28034 0,0 1.5472,0.48393 2.72746,1.00534 1.31681,0.58176 2.70798,1.44037 3.61042,3.00344 0.50973,0.88288 0.85114,2.05741 0.86415,3.43427 0.013,1.37687 -0.46227,3.11757 -2.04027,4.02863 -2.37663,1.0522 -4.61005,-0.10979 -4.71665,-1.60698 0.27461,-1.16735 1.58019,0.23634 3.21664,-0.9911 0.34712,-0.34474 0.5243,-0.64063 0.51698,-1.4171 -0.007,-0.77645 -0.32366,-1.74808 -0.43893,-1.94773 -0.56765,-0.98318 -1.19606,-1.41908 -1.93384,-1.66199 -0.73777,-0.24291 -1.63789,-0.24848 -2.51217,-0.10122 -1.74857,0.29451 -3.2624,1.16186 -3.2624,1.16186 -1.73771,1.00326 -2.96093,3.08931 -3.39009,5.5657 -0.42915,2.4764 -0.0203,4.5273 1.21188,6.66154 2.5862,4.47961 9.04724,7.04527 9.04724,7.04527 l 3.87738,1.15332 c 2.54051,0.68073 15.12726,3.39063 25.3039,-2.48486 1.81107,-1.0456 3.47043,-2.255 4.90346,-3.44445 1.43304,-1.18944 2.45844,-2.99213 2.65579,-3.33754 3.92674,-6.87213 2.24119,-12.74314 -0.28553,-17.11956 l -1.81251,-3.13935 c -1.74544,-2.69191 -3.61008,-4.58868 -6.92477,-4.80656 -2.00827,0.0281 -3.55815,0.8996 -3.55815,0.8996 -2.24164,1.2942 -3.7376,2.77588 -4.5319,4.33359 -0.79429,1.55772 -0.84057,2.95443 0.09,4.5308 1.75837,3.04558 3.75198,1.92062 4.14805,2.64121 0.48274,1.12067 -0.35493,1.93095 -2.36981,1.82526 -0.93791,-0.12191 -3.24852,-0.57113 -4.54559,-2.81773 -1.42129,-2.40778 -1.32598,-5.13315 -0.16478,-7.41041 1.1612,-2.27726 3.2654,-4.19469 5.87407,-5.7008 0,0 2.07468,-1.52737 4.93453,-1.56744 1.38115,-0.0193 2.89026,0.35643 4.44422,1.18691 0.0161,-1.24902 0.46913,-3.09778 0.89663,-4.28539 1.46679,-3.75251 4.75058,-5.30836 4.75058,-5.30836 0.11656,-0.0795 1.47167,-1.10941 3.24984,-1.37111 1.86275,-0.27416 4.3851,0.59518 5.93735,3.28378 1.196,2.23634 0.72984,4.25081 -0.72092,5.94695 -0.49281,0.67176 -2.06369,1.10657 -2.6699,0.53983 -0.6062,-0.56673 0.35441,-1.64378 0.69584,-2.37505 0.42239,-1.2042 0.42819,-1.80393 0.0271,-2.60755 -1.55944,-2.88853 -5.01935,-0.81877 -5.01935,-0.81877 -1.4368,0.82953 -2.49204,2.79311 -3.18838,4.72756 -0.69634,1.93445 -0.69988,3.91277 0.0621,5.23249 l 2.99387,5.56054 c 2.72959,4.72779 5.86262,10.73068 2.21018,19.32814 0,0 0.74664,0.54321 2.34255,0.30741 0.87415,-0.12977 2.40363,-0.43288 2.78918,-0.01 0.38554,0.42285 -0.33576,1.4773 -3.60828,2.43844 -3.1896,0.97549 -5.29497,1.6067 -5.29497,1.6067 0,0 -1.44773,1.30495 -1.44773,1.30495 -1.46197,1.32777 -3.04901,2.45019 -5.05022,3.56527 -10.7739,6.52218 -17.63867,3.82105 -26.85121,4.92983 -3.04565,0.45869 -6.40121,1.56676 -11.4495,4.48139 0,0 -3.22745,1.4763 -5.64337,4.4129 -1.20796,1.46829 -2.05851,3.27944 -2.42306,5.11564 -0.77112,3.24914 0.34814,5.84507 2.79891,7.91034 2.57038,1.48504 4.48004,1.00903 7.10322,-0.38437 2.40505,-1.37031 2.82301,-3.69093 1.84074,-6.18673 -0.98661,-1.70886 -2.76054,-1.90639 -2.76054,-1.90639 -1.4035,0.065 -2.16926,-0.91537 -1.36169,-2.04188 0.60061,-0.83781 2.44968,-1.1787 3.07124,-0.96585 0,0 1.95917,0.36214 3.60944,3.22049 1.81924,3.15102 1.16703,5.82154 0.0763,7.56972 -1.09069,1.74819 -3.00261,2.92435 -3.00261,2.92435 -1.77654,1.14611 -3.54205,1.55168 -5.58483,1.88929 l -3.43232,0.43001 c -2.00769,-0.0356 -6.75408,1.0151 -6.72225,-1.02066 0.19166,-0.71733 1.02303,-0.50499 2.02009,-0.81118 1.06988,-0.32854 1.62268,-1.18944 1.62268,-1.18944 -2.65346,-3.46551 -3.50102,-6.69371 -3.05369,-10.28914 0.49416,-2.48903 1.61246,-4.64272 3.03379,-6.37034 2.84263,-3.45531 6.29788,-5.40424 6.29788,-5.40424 3.89249,-2.24732 6.37876,-2.94164 9.31344,-3.68115 l -9.44278,-3.60538 c -10.18443,-2.75794 -15.49207,-2.97162 -23.94073,0.47095 -2.14975,1.24116 -5.85289,4.42162 -7.36562,6.74237 -2.18436,3.35116 -2.5843,7.02386 -0.6119,10.56516 0.2749,0.49301 1.17037,1.6951 2.6389,2.44571 1.46854,0.75062 3.16337,1.06038 5.526,-0.30369 1.63694,-0.94507 2.18199,-1.66074 2.38852,-2.42546 0.2408,-0.89162 0.0957,-1.77169 -0.17665,-2.24348 -0.62317,-1.07935 -1.53513,-1.78395 -1.53513,-1.78395 -1.24142,-0.81943 -0.62669,-2.21851 1.1676,-1.54013 0.41544,0.15707 1.49163,0.45859 2.49827,2.20214 0.54496,0.94386 1.03097,2.12678 0.68729,3.75291 -0.34368,1.62613 -1.46136,3.36962 -3.66939,4.64443 -3.16783,1.82893 -6.10463,1.47496 -8.26612,0.37016 -2.16152,-1.10483 -3.7456,-2.67506 -4.36962,-3.75591 z"
       id="path2404"
       style="fill:#ffd700;fill-opacity:1;stroke:none"
       inkscape:connector-curvature="0" />
    <use
       transform="matrix(-1,0,0,1,900.82136,0)"
       id="use2413"
       style="fill:#ffd700;fill-opacity:1"
       x="0"
       y="0"
       width="900"
       height="600"
       xlink:href="#path2404" />
    <use
       transform="matrix(0.5,-0.8660254,-0.8660254,-0.5,479.281,830.36039)"
       id="use2416"
       style="fill:#ffd700;fill-opacity:1"
       x="0"
       y="0"
       width="900"
       height="600"
       xlink:href="#path2404" />
    <use
       transform="matrix(-0.5,-0.8660254,0.8660254,-0.5,420.8102,830.56719)"
       id="use2418"
       style="fill:#ffd700;fill-opacity:1"
       x="0"
       y="0"
       width="900"
       height="600"
       xlink:href="#path2404" />
    <use
       transform="matrix(-0.5,0.8660254,-0.8660254,-0.5,929.79174,50.316989)"
       id="use2420"
       style="fill:#ffd700;fill-opacity:1"
       x="0"
       y="0"
       width="900"
       height="600"
       xlink:href="#path2404" />
    <use
       transform="matrix(0.5,0.8660254,0.8660254,-0.5,-28.978481,50.316989)"
       id="use2422"
       style="fill:#ffd700;fill-opacity:1"
       x="0"
       y="0"
       width="900"
       height="600"
       xlink:href="#path2404" />
  </g>
  <path
     d="m 183.5,0 -25.5,22 8.6875,132.375 c -6.85261,2.56965 -12.95602,6.66869 -17.90625,11.875 L 0,92.90625 137.75,185 c -1.40016,4.49969 -2.15625,9.29075 -2.15625,14.25 0,2.39269 0.19225,4.73246 0.53125,7.03125 L 17.3125,264.84375 11,297.90625 42.8125,309 152.4375,235.71875 c 5.74781,4.9014 12.6694,8.46648 20.28125,10.21875 L 183.5,410 194.28125,245.9375 c 7.43345,-1.71121 14.2085,-5.14982 19.875,-9.875 L 323.28125,309 355.0625,297.90625 348.78125,264.84375 230.8125,206.6875 c 0.37949,-2.42811 0.59375,-4.90324 0.59375,-7.4375 0,-5.1476 -0.83966,-10.10197 -2.34375,-14.75 l 137,-91.59375 -148.15625,73.03125 c -4.89507,-5.05472 -10.88168,-9.04555 -17.59375,-11.5625 L 209,22 183.5,0 z m 0,184.75 c 7.728,0 14,6.772 14,14.5 0,7.728 -6.272,14.125 -14,14.125 -7.728,0 -14.5,-6.397 -14.5,-14.125 0,-7.728 6.772,-14.5 14.5,-14.5 z"
     id="path2491"
     style="fill:#ffd700;stroke:none"
     inkscape:connector-curvature="0" />
</svg>
