<?xml version="1.0" encoding="UTF-8"?><svg width="457" height="454" viewBox="22 23 457 454" xmlns="http://www.w3.org/2000/svg" xmlns:xlink="http://www.w3.org/1999/xlink">
 <g xmlns="http://www.w3.org/2000/svg" xmlns:xlink="http://www.w3.org/1999/xlink" fill="#00bff5">
  <path d="m250 140a110 110 0 0 0 -110 110 110 110 0 0 0 110 110 110 110 0 0 0 110 -110 110 110 0 0 0 -110 -110zm1.3 21.7 20.8 13.8c-1.4 2.1-2.8 4.1-4.3 6 11.7 6.7 26.7 9.5 41.7 9 0 23.2 5.4 43.1 24.8 60.2-16.3 16.5-26.5 34.4-24.8 60.2-17.2-0.7-35.5 5.1-48.3 19.3l-8.1-29.6c11-8.7 18.5-11.7 32.4-13.7 1.9-13.1 7.1-25.5 15-36.1-7.9-10.7-13-23.1-15-36.2-13.2-1.9-25.6-7.1-36.3-15-10.4 7.4-22.4 12.2-35.9 14.5-1.9 13.3-7 25.8-15 36.6 7.9 10.6 13 23 15 36.1 13.9 2 21.3 5 32.4 13.7l-8.1 29.6c-12.8-14.2-31.2-19.9-48.3-19.3 0-23.2-5.4-43.1-24.8-60.2 16.1-16.2 26.4-33.7 24.8-59.2 25.8-2.1 42.3-5.7 62.1-29.74zm-1.3 63.3a25 25 0 0 1 25 25 25 25 0 0 1 -25 25 25 25 0 0 1 -25 -25 25 25 0 0 1 25 -25z"/>
  <g id="a">
   <g id="c">
    <path id="b" d="m223.9 25c-14 0-22.57 9.8-10.9 16.5 9.5 5.4 9.3 19 5.7 27.3-5 11.3-5.9 13.4-5.9 26.2 0 18.4 11.2 40 41.3 40s38.1-24.3 38.5-42.1c0-20.4-1.8-25-11.7-39.4-11.7-16.9-28.7-28.5-56.9-28.5z"/>
    <use xlink:href="#b" transform="rotate(30 250 250)"/>
   </g>
   <use xlink:href="#c" transform="rotate(60 250 250)"/>
  </g>
  <use xlink:href="#a" transform="rotate(120 250 250)"/>
  <use xlink:href="#a" transform="rotate(240 250 250)"/>
 </g>
</svg>