<?xml version="1.0" encoding="UTF-8" standalone="no"?>
<!-- Created with Inkscape (http://www.inkscape.org/) -->
<svg xmlns="http://www.w3.org/2000/svg" height="432" width="503" version="1.1" viewBox="0 0 503 432">
 <path transform="translate(0,-620.36218)" d="m394.43164 730.36163a210.00005 210.00005 0 0 1 25.56836 100v32.94922l72.8418-132.94922h-98.41016zm-184.43164-100a200 200 0 0 0 -200 200 200 200 0 0 0 200 199.99997 200 200 0 0 0 103.53711 -29.2558l-151.48047-82.98636-0.10156-0.0547 0.004-0.006a100 100 0 0 1 -51.95908 -87.69711 100 100 0 0 1 100 -100 100 100 0 0 1 100 100 100 100 0 0 1 -100 100 100 100 0 0 1 -5.26953 -0.26367l205.26953 112.44924v-212.18557a200 200 0 0 0 -200 -200z" fill-rule="evenodd" fill="#740202"/>
</svg>
