<?xml version="1.0" encoding="UTF-8" standalone="no"?>
<!-- Created with Inkscape (http://www.inkscape.org/) -->

<svg
   xmlns:dc="http://purl.org/dc/elements/1.1/"
   xmlns:cc="http://creativecommons.org/ns#"
   xmlns:rdf="http://www.w3.org/1999/02/22-rdf-syntax-ns#"
   xmlns:svg="http://www.w3.org/2000/svg"
   xmlns="http://www.w3.org/2000/svg"
   xmlns:sodipodi="http://sodipodi.sourceforge.net/DTD/sodipodi-0.dtd"
   xmlns:inkscape="http://www.inkscape.org/namespaces/inkscape"
   version="1.1"
   id="svg2"
   width="1270"
   height="1068"
   viewBox="0 0 1270 1068"
   sodipodi:docname="Emblem of Kameoka, Kyoto.svg"
   inkscape:version="0.92.3 (2405546, 2018-03-11)">
  <metadata
     id="metadata8">
    <rdf:RDF>
      <cc:Work
         rdf:about="">
        <dc:format>image/svg+xml</dc:format>
        <dc:type
           rdf:resource="http://purl.org/dc/dcmitype/StillImage" />
        <dc:title></dc:title>
      </cc:Work>
    </rdf:RDF>
  </metadata>
  <defs
     id="defs6" />
  <sodipodi:namedview
     pagecolor="#ffffff"
     bordercolor="#666666"
     borderopacity="1"
     objecttolerance="10"
     gridtolerance="10"
     guidetolerance="10"
     inkscape:pageopacity="0"
     inkscape:pageshadow="2"
     inkscape:window-width="1920"
     inkscape:window-height="1017"
     id="namedview4"
     showgrid="false"
     inkscape:zoom="0.22097378"
     inkscape:cx="635"
     inkscape:cy="534"
     inkscape:window-x="-8"
     inkscape:window-y="-8"
     inkscape:window-maximized="1"
     inkscape:current-layer="svg2" />
  <path
     style="fill:#850116;stroke:none;stroke-width:1.99659514"
     id="path2401"
     d="M 77.033893,60.152537 208.93005,534 77.033893,1007.8475 H 208.93005 366.41801 l 35.18871,-126.30874 c 66.97282,48.33149 148.51367,76.69647 236.47801,76.69647 81.60776,0 157.72556,-24.44922 221.77502,-66.57152 L 769.24267,566.1467 c -14.10476,61.08984 -67.47446,106.56506 -131.15794,106.56506 -74.43668,0 -134.84906,-62.14287 -134.84906,-138.71176 0,-76.56889 60.41238,-138.71175 134.84906,-138.71175 64.69571,0 118.78276,46.91887 131.83465,109.47597 l 8.05894,28.8561 -0.12304,0.37968 131.89617,473.8475 h 157.48805 131.8961 l -162.471,-583.13363 -0.3691,-1.3289 c -0.7885,-3.00782 -1.6099,-6.00486 -2.4607,-8.98589 -0.01,-0.0203 0.01,-0.0439 0,-0.0632 -0.6165,-2.15815 -1.2583,-4.31096 -1.9071,-6.45465 -0.2579,-0.85248 -0.5367,-1.68107 -0.7998,-2.53124 -0.9269,-2.99613 -1.8403,-5.95569 -2.8298,-8.92261 -0.9827,-2.94638 -2.0323,-5.87929 -3.0759,-8.79604 -1.0906,-3.04787 -2.1658,-6.09789 -3.3221,-9.11245 -2.1315,-5.55708 -4.4167,-11.07669 -6.767,-16.51632 -0.037,-0.0861 -0.086,-0.16706 -0.1231,-0.25312 -0.3276,-0.75674 -0.6524,-1.52373 -0.9843,-2.27812 -0.9119,-2.07361 -1.8251,-4.14582 -2.7683,-6.20153 -0.01,-0.0182 0.01,-0.046 0,-0.0632 -1.2705,-2.76797 -2.6106,-5.49171 -3.9372,-8.22651 -1.3385,-2.75942 -2.7269,-5.50168 -4.1218,-8.22652 -0.841,-1.64235 -1.6609,-3.30639 -2.5222,-4.93591 -0.5716,-1.08187 -1.14212,-2.15117 -1.72252,-3.22733 -1.0289,-1.90693 -2.081,-3.80651 -3.1375,-5.69528 -0.014,-0.0251 -0.048,-0.0381 -0.062,-0.0632 -1.3981,-2.49833 -2.7989,-5.00118 -4.2448,-7.46715 -0.2468,-0.42091 -0.49,-0.84566 -0.7382,-1.26562 -0.2853,-0.48278 -0.5742,-0.97394 -0.8613,-1.45546 -0.3806,-0.63826 -0.7851,-1.2624 -1.1688,-1.89843 -1.1859,-1.96561 -2.4136,-3.94107 -3.6296,-5.88512 -3.2342,-5.17043 -6.5227,-10.23721 -9.96606,-15.2507 -1.71343,-2.49477 -3.46503,-4.94917 -5.2291,-7.40387 -5.31549,-7.39655 -10.8492,-14.62404 -16.61005,-21.64207 -7.66127,-9.33315 -15.71061,-18.33937 -24.11536,-26.95767 -8.41668,-8.63052 -17.21833,-16.88122 -26.33002,-24.74283 -2.27689,-1.9645 -4.57177,-3.90738 -6.8901,-5.82185 -70.64652,-58.34016 -160.30962,-93.27636 -257.88663,-93.27636 -87.96434,0 -169.50519,28.36497 -236.478,76.69646 L 366.41801,60.152537 H 208.93005 Z m 832.717557,0 -30.02113,107.893963 c 84.82003,59.41032 147.98488,149.1623 174.59028,254.07285 l 21.9621,79.29098 122.8529,-441.257793 h -131.8961 z"
     inkscape:connector-curvature="0" />
</svg>
