<?xml version="1.0" encoding="UTF-8" standalone="no"?>
<!-- Created with Inkscape (http://www.inkscape.org/) -->

<svg
   xmlns:dc="http://purl.org/dc/elements/1.1/"
   xmlns:cc="http://creativecommons.org/ns#"
   xmlns:rdf="http://www.w3.org/1999/02/22-rdf-syntax-ns#"
   xmlns:svg="http://www.w3.org/2000/svg"
   xmlns="http://www.w3.org/2000/svg"
   xmlns:sodipodi="http://sodipodi.sourceforge.net/DTD/sodipodi-0.dtd"
   xmlns:inkscape="http://www.inkscape.org/namespaces/inkscape"
   width="95.400391mm"
   height="95.566956mm"
   viewBox="0 0 95.400391 95.566956"
   version="1.1"
   id="svg8"
   inkscape:version="0.92.4 (5da689c313, 2019-01-14)"
   sodipodi:docname="Emblem_of_Maizuru,_Kyoto.svg">
  <defs
     id="defs2" />
  <sodipodi:namedview
     id="base"
     pagecolor="#ffffff"
     bordercolor="#666666"
     borderopacity="1.0"
     inkscape:pageopacity="0.0"
     inkscape:pageshadow="2"
     inkscape:zoom="0.98994949"
     inkscape:cx="447.09254"
     inkscape:cy="209.64455"
     inkscape:document-units="mm"
     inkscape:current-layer="layer1"
     showgrid="false"
     fit-margin-top="0.1"
     fit-margin-right="0.1"
     fit-margin-bottom="0.1"
     fit-margin-left="0.1"
     inkscape:window-width="1920"
     inkscape:window-height="996"
     inkscape:window-x="1912"
     inkscape:window-y="-8"
     inkscape:window-maximized="1" />
  <metadata
     id="metadata5">
    <rdf:RDF>
      <cc:Work
         rdf:about="">
        <dc:format>image/svg+xml</dc:format>
        <dc:type
           rdf:resource="http://purl.org/dc/dcmitype/StillImage" />
        <dc:title></dc:title>
      </cc:Work>
    </rdf:RDF>
  </metadata>
  <g
     inkscape:label="レイヤー 1"
     inkscape:groupmode="layer"
     id="layer1"
     transform="translate(-44.916448,-40.395972)">
    <g
       id="g825"
       transform="matrix(0.26458333,0,0,0.26458333,-18.962309,184.75108)">
      <path
         style="fill:#be0026;stroke:none"
         id="path2384"
         d="m 420.87198,-545.21163 c -6.05391,0.23076 -12.07829,0.95714 -18.09375,1.625 -90.41958,9.47431 -160.96876,85.98977 -160.96875,178.90625 0,99.31434 80.59191,179.90624 179.90625,179.90625 99.31434,0 179.90624,-80.59191 179.90625,-179.90625 0,-93.64278 -71.65746,-170.63616 -163.09375,-179.125 3.85708,3.15159 6.79844,7.39105 8.40625,12.21875 59.06546,11.73075 103.625,63.882 103.625,126.375 -2e-5,71.1182 -57.72555,128.84375 -128.84375,128.84375 -71.1182,1e-5 -128.84375,-57.72555 -128.84375,-128.84375 0,-62.22711 44.1843,-114.19597 102.875,-126.21875 1.96994,-0.42512 3.9686,-0.69657 5.96875,-0.9375 -1.28328,2.7939 -2.03125,5.91336 -2.03125,9.1875 0,12.15745 9.87379,22 22.03125,22 12.15745,0 22.03125,-9.84255 22.03125,-22 0,-12.11527 -9.80692,-21.96311 -21.90625,-22.03125 -0.32289,-0.0102 -0.6458,0 -0.96875,0 z m -25.65625,20.40625 c -15.61929,9.13909 -26.12501,26.08052 -26.125,45.46875 0,22.27825 13.87306,41.3247 33.4375,49 l 19.1875,143.65625 19.71875,-143.84375 c 19.28642,-7.80837 32.90624,-26.73444 32.90625,-48.8125 0,-19.38822 -10.50571,-36.32966 -26.125,-45.46875 0.0323,0.53594 0.0625,1.08099 0.0625,1.625 10e-6,13.23877 -9.70097,24.20219 -22.375,26.21875 7.97222,1.89665 13.90625,9.07713 13.90625,17.625 0,9.98851 -8.10524,18.09375 -18.09375,18.09375 -9.98852,0 -18.09375,-8.10524 -18.09375,-18.09375 10e-6,-8.54788 5.93403,-15.72835 13.90625,-17.625 -12.67403,-2.01656 -22.375,-12.97998 -22.375,-26.21875 0,-0.54401 0.0302,-1.08906 0.0625,-1.625 z"
         inkscape:connector-curvature="0" />
    </g>
  </g>
</svg>
