<svg xmlns="http://www.w3.org/2000/svg" width="300" height="300" viewBox="-60 -60 120 120">
<path d="M7.26078-49.470002A50 50 0 0 0-25.980762 42.720019V5.96225A15.490381 15.490381 0 0 1-5-8.522487V-17.886751A15.490381 15.490381 0 0 1 15.980762-32.371489V-42.720019A10 10 0 0 1 31.176915-51.264022A60 60 0 0 1-14.77905 58.151352l7.51827-8.68135A50 50 0 0 0 25.980762-42.720019V0l-10 11.547005V-17.886751A5.490381 5.490381 0 0 0 5-17.886751V24.226497L-5 35.773503V5.96225a5.490381 5.490381 0 0 0-10.980762 0V42.720019a10 10 0 0 1-15.196152 8.544004A60 60 0 0 1 14.77905-58.151352z"/>
</svg>
