<?xml version="1.0" encoding="UTF-8"?>
<!DOCTYPE svg PUBLIC "-//W3C//DTD SVG 1.1//EN" "http://www.w3.org/Graphics/SVG/1.1/DTD/svg11.dtd">
<!-- Creator: CorelDRAW 2019 (64-Bit) -->
<svg xmlns="http://www.w3.org/2000/svg" xml:space="preserve" width="1160px" height="1186px" version="1.1" style="shape-rendering:geometricPrecision; text-rendering:geometricPrecision; image-rendering:optimizeQuality; fill-rule:evenodd; clip-rule:evenodd"
viewBox="0 0 1160 1186"
 xmlns:xlink="http://www.w3.org/1999/xlink"
 xmlns:svg="http://www.w3.org/2000/svg">
 <defs>
  <style type="text/css">
   <![CDATA[
    .fil0 {fill:black}
   ]]>
  </style>
 </defs>
 <g id="Слой_x0020_1">
  <metadata id="CorelCorpID_0Corel-Layer"/>
  <path id="path2386" class="fil0" d="M579.56 1.72l-65.14 80.17c-120.33,17.37 -225.44,82.1 -295.7,174.71 34.42,14.46 68.86,28.89 103.32,43.26 63.25,-70.77 155.21,-115.33 257.52,-115.33 102.24,0 194.08,44.55 257.32,115.24 34.53,-14.32 69.18,-28.47 103.62,-42.97 -70.27,-92.72 -175.39,-157.53 -295.8,-174.91l-65.14 -80.17zm-550.88 190.62c-2.18,0 -7.12,2.21 -10.94,4.89 -9.79,6.86 -9.05,20.08 1.66,29.98 4.73,4.36 73.28,56.94 152.35,116.79 79.06,59.86 155.26,117.74 169.33,128.62 65.19,50.7 109.45,120.21 142.19,194.82 0.2,0.52 0.39,1.05 0.59,1.56 0.02,0.07 0.07,0.13 0.09,0.2 14.13,36.71 23.53,75.72 28.62,118.16 2.78,23.27 6.57,53.39 10.25,83.11 -163.64,-27.09 -288.57,-169.34 -288.57,-340.63 0,-37.96 6.14,-74.51 17.48,-108.69 -27.08,-20.54 -56.04,-42.58 -87.89,-66.7 -0.45,-0.33 -0.83,-0.64 -1.27,-0.97 -23,54.22 -35.65,113.8 -35.65,176.36 0,235.35 179.96,428.92 409.67,450.59 11.97,94.33 23.1,180.03 24.41,185.84 3.23,14.23 14.36,21.46 25.2,16.41 4.23,-1.97 9.23,-5.18 11.32,-16.64 0.38,-2.06 11.03,-79.15 24.42,-185.61 229.99,-21.4 410.26,-215.05 410.26,-450.59 0,-62.5 -12.7,-121.99 -35.65,-176.17 -29.72,22.52 -59.41,45.07 -89.06,67.68 11.29,34.11 17.38,70.61 17.38,108.49 0,171.46 -125.18,313.84 -289.06,340.73 8.58,-67.14 15.33,-118.3 16.6,-125.1 17.08,-91.09 77.16,-196.35 146.58,-256.74 9.48,-8.24 91.2,-70.93 181.55,-139.36 90.34,-68.42 165.12,-125.94 166.21,-127.83 1.09,-1.89 1.67,-7.27 1.27,-11.91 -1.05,-11.91 -12.93,-17.91 -26.86,-13.58 -6.14,1.91 -85.88,35 -177.24,73.54 0,0 -214.36,88.87 -214.36,88.87 -87.43,30.75 -208.59,31.39 -295.61,1.46 -11.87,-4.08 -107,-43.47 -211.42,-87.5 -104.43,-44.03 -191.67,-80.08 -193.85,-80.08z"/>
 </g>
</svg>
