<?xml version="1.0" encoding="UTF-8" standalone="no"?>
<!-- Created with Inkscape (http://www.inkscape.org/) -->

<svg
   xmlns:dc="http://purl.org/dc/elements/1.1/"
   xmlns:cc="http://creativecommons.org/ns#"
   xmlns:rdf="http://www.w3.org/1999/02/22-rdf-syntax-ns#"
   xmlns:svg="http://www.w3.org/2000/svg"
   xmlns="http://www.w3.org/2000/svg"
   xmlns:sodipodi="http://sodipodi.sourceforge.net/DTD/sodipodi-0.dtd"
   xmlns:inkscape="http://www.inkscape.org/namespaces/inkscape"
   width="177.77472mm"
   height="199.91177mm"
   viewBox="0 0 177.77472 199.91177"
   version="1.1"
   id="svg8"
   inkscape:version="0.92.4 (5da689c313, 2019-01-14)"
   sodipodi:docname="Emblem_of_Fukuchiyama,_Kyoto.svg">
  <defs
     id="defs2">
    <clipPath
       id="clipPath831"
       clipPathUnits="userSpaceOnUse">
      <path
         inkscape:connector-curvature="0"
         id="path829"
         d="M 0,867.397 H 867.397 V 0 H 0 Z" />
    </clipPath>
    <clipPath
       id="clipPath935"
       clipPathUnits="userSpaceOnUse">
      <path
         inkscape:connector-curvature="0"
         id="path933"
         d="M 0,867.397 H 867.397 V 0 H 0 Z" />
    </clipPath>
    <clipPath
       id="clipPath943"
       clipPathUnits="userSpaceOnUse">
      <path
         inkscape:connector-curvature="0"
         id="path941"
         d="m 334.604,484.494 h 199.43 V 311.783 h -199.43 z" />
    </clipPath>
  </defs>
  <sodipodi:namedview
     id="base"
     pagecolor="#ffffff"
     bordercolor="#666666"
     borderopacity="1.0"
     inkscape:pageopacity="0.0"
     inkscape:pageshadow="2"
     inkscape:zoom="0.49497475"
     inkscape:cx="452.83204"
     inkscape:cy="250.25493"
     inkscape:document-units="mm"
     inkscape:current-layer="g823"
     showgrid="false"
     fit-margin-top="0"
     fit-margin-left="0"
     fit-margin-right="0"
     fit-margin-bottom="0"
     inkscape:window-width="1920"
     inkscape:window-height="996"
     inkscape:window-x="1912"
     inkscape:window-y="-8"
     inkscape:window-maximized="1" />
  <metadata
     id="metadata5">
    <rdf:RDF>
      <cc:Work
         rdf:about="">
        <dc:format>image/svg+xml</dc:format>
        <dc:type
           rdf:resource="http://purl.org/dc/dcmitype/StillImage" />
        <dc:title></dc:title>
      </cc:Work>
    </rdf:RDF>
  </metadata>
  <g
     inkscape:label="レイヤー 1"
     inkscape:groupmode="layer"
     id="layer1"
     transform="translate(-11.843301,-5.8964581)">
    <g
       transform="matrix(0.35277777,0,0,-0.35277777,-54.942761,247.88973)"
       inkscape:label="1001"
       id="g823">
      <g
         id="g825"
         transform="matrix(0.81185263,0,0,0.81185263,88.679456,96.379951)">
        <g
           clip-path="url(#clipPath831)"
           id="g827">
          <g
             transform="translate(434.3115,291.9189)"
             id="g833">
            <path
               inkscape:connector-curvature="0"
               id="path835"
               style="fill:none;stroke:#0e0f0e;stroke-width:1;stroke-linecap:butt;stroke-linejoin:miter;stroke-miterlimit:4;stroke-dasharray:none;stroke-opacity:1"
               d="m 0,0 c -78.341,0 -141.732,63.393 -141.732,141.732 0,78.341 63.391,141.733 141.732,141.733 78.34,0 141.731,-63.392 141.731,-141.733 C 141.731,63.393 78.34,0 0,0 Z" />
          </g>
          <g
             transform="translate(552.4443,433.6514)"
             id="g837">
            <path
               inkscape:connector-curvature="0"
               id="path839"
               style="fill:none;stroke:#0e0f0e;stroke-width:1;stroke-linecap:butt;stroke-linejoin:miter;stroke-miterlimit:4;stroke-dasharray:none;stroke-opacity:1"
               d="m 0,0 c 0,65.33 -52.872,118.064 -118.133,118.064 -65.261,0 -118.134,-52.734 -118.134,-118.064 0,-65.33 52.873,-118.064 118.134,-118.064 C -52.872,-118.064 0,-65.33 0,0 Z" />
          </g>
          <g
             transform="translate(434.3115,339.1172)"
             id="g841">
            <path
               inkscape:connector-curvature="0"
               id="path843"
               style="fill:none;stroke:#0e0f0e;stroke-width:1;stroke-linecap:butt;stroke-linejoin:miter;stroke-miterlimit:4;stroke-dasharray:none;stroke-opacity:1"
               d="m 0,0 c -52.25,0 -94.465,42.354 -94.465,94.534 0,52.181 42.215,94.535 94.465,94.535 52.25,0 94.465,-42.354 94.465,-94.535 C 94.465,42.354 52.25,0 0,0 Z" />
          </g>
          <g
             transform="translate(505.1777,433.6514)"
             id="g845">
            <path
               inkscape:connector-curvature="0"
               id="path847"
               style="fill:none;stroke:#0e0f0e;stroke-width:1;stroke-linecap:butt;stroke-linejoin:miter;stroke-miterlimit:4;stroke-dasharray:none;stroke-opacity:1"
               d="m 0,0 c 0,39.17 -31.696,70.866 -70.866,70.866 -39.171,0 -70.866,-31.696 -70.866,-70.866 0,-39.17 31.695,-70.866 70.866,-70.866 C -31.696,-70.866 0,-39.17 0,0 Z" />
          </g>
          <g
             transform="translate(434.3115,386.4541)"
             id="g849">
            <path
               inkscape:connector-curvature="0"
               id="path851"
               style="fill:none;stroke:#0e0f0e;stroke-width:1;stroke-linecap:butt;stroke-linejoin:miter;stroke-miterlimit:4;stroke-dasharray:none;stroke-opacity:1"
               d="m 0,0 c -26.091,0 -47.268,21.038 -47.268,47.197 0,26.16 21.177,47.199 47.268,47.199 26.09,0 47.267,-21.039 47.267,-47.199 C 47.267,21.038 26.09,0 0,0 Z" />
          </g>
          <g
             transform="translate(457.9102,433.6514)"
             id="g853">
            <path
               inkscape:connector-curvature="0"
               id="path855"
               style="fill:none;stroke:#0e0f0e;stroke-width:1;stroke-linecap:butt;stroke-linejoin:miter;stroke-miterlimit:4;stroke-dasharray:none;stroke-opacity:1"
               d="m 0,0 c 0,13.011 -10.52,23.668 -23.599,23.668 -13.08,0 -23.599,-10.657 -23.599,-23.668 0,-13.01 10.519,-23.668 23.599,-23.668 C -10.52,-23.668 0,-13.01 0,0 Z" />
          </g>
          <g
             transform="translate(434.3115,433.6514)"
             id="g857">
            <path
               inkscape:connector-curvature="0"
               id="path859"
               style="fill:none;stroke:#0e0f0e;stroke-width:1;stroke-linecap:butt;stroke-linejoin:miter;stroke-miterlimit:4;stroke-dasharray:none;stroke-opacity:1"
               d="M 0,0 V -141.732" />
          </g>
          <g
             transform="translate(434.3115,433.6514)"
             id="g861">
            <path
               inkscape:connector-curvature="0"
               id="path863"
               style="fill:none;stroke:#0e0f0e;stroke-width:1;stroke-linecap:butt;stroke-linejoin:miter;stroke-miterlimit:4;stroke-dasharray:none;stroke-opacity:1"
               d="M 0,0 134.812,-43.737" />
          </g>
          <g
             transform="translate(434.3115,433.6514)"
             id="g865">
            <path
               inkscape:connector-curvature="0"
               id="path867"
               style="fill:none;stroke:#0e0f0e;stroke-width:1;stroke-linecap:butt;stroke-linejoin:miter;stroke-miterlimit:4;stroke-dasharray:none;stroke-opacity:1"
               d="M 0,0 83.323,114.604" />
          </g>
          <g
             transform="translate(434.3115,433.6514)"
             id="g869">
            <path
               inkscape:connector-curvature="0"
               id="path871"
               style="fill:none;stroke:#0e0f0e;stroke-width:1;stroke-linecap:butt;stroke-linejoin:miter;stroke-miterlimit:4;stroke-dasharray:none;stroke-opacity:1"
               d="M 0,0 -83.323,114.604" />
          </g>
          <g
             transform="translate(434.3115,433.6514)"
             id="g873">
            <path
               inkscape:connector-curvature="0"
               id="path875"
               style="fill:none;stroke:#0e0f0e;stroke-width:1;stroke-linecap:butt;stroke-linejoin:miter;stroke-miterlimit:4;stroke-dasharray:none;stroke-opacity:1"
               d="M 0,0 -134.812,-43.737" />
          </g>
        </g>
      </g>
      <g
         transform="matrix(0.81185263,0,0,0.81185263,190.01791,249.95568)"
         id="g877">
        <path
           inkscape:connector-curvature="0"
           id="path879"
           style="fill:#0e0f0e;fill-opacity:1;fill-rule:nonzero;stroke:none"
           d="M 0,0 309.491,536.055 618.982,0 Z" />
      </g>
      <g
         transform="matrix(0.81185263,0,0,0.81185263,190.01791,249.95568)"
         id="g881">
        <path
           inkscape:connector-curvature="0"
           id="path883"
           style="fill:none;stroke:#231f20;stroke-width:1;stroke-linecap:butt;stroke-linejoin:miter;stroke-miterlimit:4;stroke-dasharray:none;stroke-opacity:1"
           d="M 0,0 309.491,536.055 618.982,0 Z" />
      </g>
      <g
         transform="matrix(0.81185263,0,0,0.81185263,274.3301,302.78082)"
         id="g885">
        <path
           inkscape:connector-curvature="0"
           id="path887"
           style="fill:#ffffff;fill-opacity:1;fill-rule:nonzero;stroke:none"
           d="M 0,0 205.635,356.171 411.271,0 Z" />
      </g>
      <g
         transform="matrix(0.81185263,0,0,0.81185263,274.3301,302.78082)"
         id="g889">
        <path
           inkscape:connector-curvature="0"
           id="path891"
           style="fill:none;stroke:#231f20;stroke-width:1;stroke-linecap:butt;stroke-linejoin:miter;stroke-miterlimit:4;stroke-dasharray:none;stroke-opacity:1"
           d="M 0,0 205.635,356.171 411.271,0 Z" />
      </g>
      <g
         transform="matrix(0.81185263,0,0,0.81185263,640.92159,445.18164)"
         id="g893">
        <path
           inkscape:connector-curvature="0"
           id="path895"
           style="fill:#ffffff;fill-opacity:1;fill-rule:nonzero;stroke:none"
           d="m 0,0 -166.877,-289.04 -10.393,6 L -10.393,6 Z" />
      </g>
      <path
         inkscape:connector-curvature="0"
         id="path897"
         style="fill:#ffffff;fill-opacity:1;fill-rule:nonzero;stroke:none;stroke-width:0.81185263"
         d="M 576.75552,539.15139 H 305.79564 v 9.74223 h 270.95988 z" />
      <g
         transform="matrix(0.81185263,0,0,0.81185263,366.78258,228.17919)"
         id="g899">
        <path
           inkscape:connector-curvature="0"
           id="path901"
           style="fill:#ffffff;fill-opacity:1;fill-rule:nonzero;stroke:none"
           d="m 0,0 -166.877,289.04 10.392,6 L 10.392,6 Z" />
      </g>
      <g
         transform="matrix(0.81185263,0,0,0.81185263,682.82715,538.4773)"
         id="g903">
        <path
           inkscape:connector-curvature="0"
           id="path905"
           style="fill:#0e0f0e;fill-opacity:1;fill-rule:nonzero;stroke:none"
           d="M 0,0 -297.531,-515.339 -595.062,0 Z" />
      </g>
      <g
         transform="matrix(0.81185263,0,0,0.81185263,682.82715,538.4773)"
         id="g907">
        <path
           inkscape:connector-curvature="0"
           id="path909"
           style="fill:none;stroke:#231f20;stroke-width:1;stroke-linecap:butt;stroke-linejoin:miter;stroke-miterlimit:4;stroke-dasharray:none;stroke-opacity:1"
           d="M 0,0 -297.531,-515.339 -595.062,0 Z" />
      </g>
      <g
         transform="matrix(0.81185263,0,0,0.81185263,597.17036,487.19265)"
         id="g911">
        <path
           inkscape:connector-curvature="0"
           id="path913"
           style="fill:#ffffff;fill-opacity:1;fill-rule:nonzero;stroke:none"
           d="M 0,0 -192.022,-331.201 -384.045,0 Z" />
      </g>
      <g
         transform="matrix(0.81185263,0,0,0.81185263,597.17036,487.19265)"
         id="g915">
        <path
           inkscape:connector-curvature="0"
           id="path917"
           style="fill:none;stroke:#231f20;stroke-width:1;stroke-linecap:butt;stroke-linejoin:miter;stroke-miterlimit:4;stroke-dasharray:none;stroke-opacity:1"
           d="M 0,0 -192.022,-331.201 -384.045,0 Z" />
      </g>
      <path
         inkscape:connector-curvature="0"
         id="path919"
         style="fill:#ffffff;fill-opacity:1;fill-rule:nonzero;stroke:none;stroke-width:0.81185263"
         d="M 449.39695,461.05928 H 433.1599 v 91.82784 h 16.23705 z" />
      <g
         transform="matrix(0.81185263,0,0,0.81185263,574.04052,329.34204)"
         id="g921">
        <path
           inkscape:connector-curvature="0"
           id="path923"
           style="fill:#ffffff;fill-opacity:1;fill-rule:nonzero;stroke:none"
           d="m 0,0 -10,-17.321 -65.545,37.842 9.999,17.322 z" />
      </g>
      <g
         transform="matrix(0.81185263,0,0,0.81185263,324.25352,320.42984)"
         id="g925">
        <path
           inkscape:connector-curvature="0"
           id="path927"
           style="fill:#ffffff;fill-opacity:1;fill-rule:nonzero;stroke:none"
           d="m 0,0 -10,17.32 56.292,32.5 10,-17.32 z" />
      </g>
      <g
         id="g929"
         transform="matrix(0.81185263,0,0,0.81185263,88.679456,96.379951)">
        <g
           clip-path="url(#clipPath935)"
           id="g931">
          <g
             id="g937">
            <g
               id="g939" />
            <g
               id="g951">
              <g
                 id="g949"
                 clip-path="url(#clipPath943)">
                <g
                   id="g947"
                   transform="translate(434.314,484.4937)">
                  <path
                     inkscape:connector-curvature="0"
                     id="path945"
                     style="fill:#000000;fill-opacity:1;fill-rule:nonzero;stroke:none"
                     d="M 0,0 99.72,-172.71 H -99.71 Z" />
                </g>
              </g>
            </g>
          </g>
        </g>
      </g>
      <g
         transform="matrix(0.81185263,0,0,0.81185263,360.3286,349.50196)"
         id="g953">
        <path
           inkscape:connector-curvature="0"
           id="path955"
           style="fill:none;stroke:#231f20;stroke-width:1;stroke-linecap:butt;stroke-linejoin:miter;stroke-miterlimit:4;stroke-dasharray:none;stroke-opacity:1"
           d="M 0,0 99.71,172.71 199.43,0 Z" />
      </g>
      <g
         transform="matrix(0.81185263,0,0,0.81185263,384.52083,362.75643)"
         id="g957">
        <path
           inkscape:connector-curvature="0"
           id="path959"
           style="fill:#ffffff;fill-opacity:1;fill-rule:nonzero;stroke:none"
           d="M 0,0 69.908,121.085 139.818,0 Z" />
      </g>
      <g
         transform="matrix(0.81185263,0,0,0.81185263,384.52083,362.75643)"
         id="g961">
        <path
           inkscape:connector-curvature="0"
           id="path963"
           style="fill:none;stroke:#231f20;stroke-width:1;stroke-linecap:butt;stroke-linejoin:miter;stroke-miterlimit:4;stroke-dasharray:none;stroke-opacity:1"
           d="M 0,0 69.908,121.085 139.818,0 Z" />
      </g>
      <path
         inkscape:connector-curvature="0"
         id="path965"
         style="fill:#ffffff;fill-opacity:1;fill-rule:nonzero;stroke:none;stroke-width:0.81185263"
         d="m 446.41826,345.18112 h -10.28374 v 21.41342 h 10.28374 z" />
      <g
         transform="matrix(0.81185263,0,0,0.81185263,471.00814,407.44713)"
         id="g967">
        <path
           inkscape:connector-curvature="0"
           id="path969"
           style="fill:#ffffff;fill-opacity:1;fill-rule:nonzero;stroke:none"
           d="m 0,0 -6.334,10.97 17.653,10.192 6.333,-10.97 z" />
      </g>
      <g
         transform="matrix(0.81185263,0,0,0.81185263,417.23557,416.32677)"
         id="g971">
        <path
           inkscape:connector-curvature="0"
           id="path973"
           style="fill:#ffffff;fill-opacity:1;fill-rule:nonzero;stroke:none"
           d="m 0,0 -6.333,-10.971 -17.766,10.258 6.333,10.97 z" />
      </g>
    </g>
  </g>
</svg>
