<?xml version="1.0" encoding="utf-8"?>
<svg viewBox="0 0 800 784" xmlns="http://www.w3.org/2000/svg">
  <g transform="matrix(1, 0, 0, 1, 88.58882141113327, -169.79994201660156)">
    <path d="M 199.539 192.17 L 202.679 192.17 C 202.679 192.654 202.856 192.873 202.33 192.873 C 199.528 194.753 196.018 195.19 192.986 196.529 C 188.695 198.399 184.752 200.696 180.627 202.894 C 177.783 204.394 174.783 205.586 172.023 207.326 C 169.044 209.164 165.184 213.133 162.658 215.758 C 161.58 217.034 160.512 218.284 159.434 219.539 C 158.95 219.821 158.497 220.091 158.007 220.347 C 155.924 220.821 152.799 216.722 152.028 215.175 C 150.981 213.086 149.903 208.654 152.367 206.946 C 154.466 205.498 158.716 207.446 161.783 206.628 C 163.841 205.93 165.934 205.232 168.007 204.545 C 169.71 203.545 171.414 202.534 173.111 201.555 C 174.341 201.144 175.533 200.748 176.736 200.331 C 178.184 199.633 179.632 198.92 181.07 198.206 C 185.512 196.612 189.992 194.998 194.377 193.425 C 196.111 193.008 197.825 192.597 199.539 192.17" style="fill-opacity: 1; fill-rule: nonzero; stroke: none; stroke-width: 1.33333;" id="path698"/>
    <path d="M 434.632 197.081 C 438.033 197.295 440.742 198.821 443.71 199.81 C 448.065 201.269 452.387 202.81 456.7 204.19 C 460.601 205.435 464.861 205.815 468.742 206.987 C 469.986 207.368 471.075 207.487 472.153 208.196 C 472.304 208.315 472.45 208.461 472.596 208.586 C 473.804 210.3 472.101 213.659 471.403 215.17 C 470.476 217.144 468.815 218.899 466.445 218.263 C 466.153 218.128 465.835 217.998 465.528 217.857 C 463.971 216.961 463.044 215.305 461.721 214.081 C 458.539 211.18 455.476 208.628 451.914 206.472 C 447.96 204.055 443.606 202.112 439.471 199.998 C 437.835 199.159 436.346 198.894 434.971 197.466 C 434.872 197.331 434.757 197.211 434.632 197.076" style="fill-opacity: 1; fill-rule: nonzero; stroke: none; stroke-width: 1.33333;" id="path706"/>
    <path d="M 128.731 216.373 C 132.455 217.243 140.117 229.565 137.044 232.795 C 135.627 234.274 132.169 233.685 130.216 234.154 C 127.304 235.081 124.408 235.993 121.492 236.92 C 118.986 237.758 117.033 239.196 114.752 240.524 C 112.21 241.956 109.559 243.394 107.236 245.284 C 104.528 247.451 101.815 249.472 99.221 251.94 C 97.924 253.31 96.611 254.69 95.309 256.05 C 93.809 257.253 92.32 258.446 90.82 259.623 C 89.867 260.644 88.908 261.675 87.945 262.685 C 86.96 263.347 86.012 264.024 85.028 264.685 C 84.414 265.451 83.768 266.227 83.148 266.982 C 79.184 270.815 74.846 274.378 71.002 278.258 C 67.554 281.722 64.341 285.795 61.268 289.545 C 59.955 290.8 58.674 292.065 57.387 293.31 C 52.262 299.144 47.747 305.789 43.117 312.008 C 42.059 313.243 40.981 314.503 39.924 315.737 C 34.226 323.357 29.346 331.586 24.643 339.748 C 19.049 349.477 14.122 359.477 9.039 369.461 C 6.512 374.394 5.065 379.847 2.971 385.003 C -1.519 395.993 -5.05 407.706 -8.472 419.196 C -10.946 427.425 -11.805 436.461 -14.128 444.769 C -14.836 448.149 -15.545 451.529 -16.274 454.899 C -16.477 457.581 -16.675 460.258 -16.878 462.935 C -17.68 469.008 -20.175 476.659 -18.899 483.253 C -18.029 487.769 -12.092 497.847 -15.639 501.946 C -16.045 502.388 -16.488 502.586 -17.086 502.644 C -20.738 502.982 -24.3 502.352 -27.883 502.321 C -35.566 502.321 -43.217 502.243 -50.904 502.232 C -52.284 501.982 -53.67 501.727 -55.055 501.472 C -57.17 501.112 -59.571 501.341 -61.706 501.144 C -62.633 500.951 -63.555 500.727 -64.503 500.513 C -64.326 494.435 -57.909 490.925 -55.628 485.685 C -54.378 482.774 -53.988 479.529 -53.217 476.321 C -52.264 472.206 -51.092 467.753 -50.086 463.618 C -48.904 458.737 -48.389 454.081 -46.883 449.352 C -44.748 442.529 -42.383 435.993 -40.003 429.326 C -37.477 422.269 -35.373 415.222 -32.566 408.341 C -31.461 406.206 -30.352 404.081 -29.243 401.946 C -28.738 400.69 -28.227 399.435 -27.722 398.159 C -26.368 395.451 -25.008 392.737 -23.654 390.029 C -21.295 385.289 -19.67 380.081 -17.217 375.394 C -15.248 371.628 -12.628 368.196 -10.305 364.612 C -4.878 356.175 -0.123 347.284 5.476 338.94 C 9.799 332.503 15.023 326.675 19.716 320.414 C 22.695 316.388 25.403 312.071 28.476 308.086 C 29.585 306.993 30.71 305.914 31.82 304.81 C 32.768 303.565 33.731 302.31 34.695 301.06 C 37.46 298.357 40.262 295.659 43.044 292.961 C 43.742 292.024 44.44 291.086 45.148 290.154 C 46.533 288.56 47.95 287.06 49.341 285.612 C 50.528 284.571 51.71 283.539 52.861 282.498 C 53.783 281.321 54.71 280.149 55.622 278.972 C 61.289 273.623 67.492 268.946 73.315 263.789 C 78.007 259.602 82.247 254.732 87.351 251.279 C 92.914 247.487 98.195 243.55 103.611 239.513 C 104.856 238.779 106.111 238.024 107.361 237.279 C 109.179 235.878 111.007 234.477 112.825 233.071 C 114.252 232.123 115.679 231.201 117.106 230.253 C 121.716 226.524 125.544 221.164 128.731 216.373" style="fill-opacity: 1; fill-rule: nonzero; stroke: none; stroke-width: 1.33333;" id="path710"/>
    <path d="M 493.58 216.373 C 496.195 217.081 498.294 219.977 500.304 221.878 C 501.731 223.003 503.179 224.154 504.606 225.269 C 505.335 226.06 506.085 226.831 506.804 227.618 C 513.242 233.487 520.356 239.055 527.247 244.263 C 529.679 246.081 531.632 248.482 534.117 250.279 C 538.408 253.394 542.434 256.701 546.549 260.253 C 547.507 260.93 548.46 261.612 549.424 262.258 C 551.632 264.362 553.653 266.373 555.976 268.31 C 558.492 270.383 561.356 272.357 563.903 274.409 C 564.705 275.216 565.523 276.024 566.315 276.831 C 572.971 282.539 580.002 288.727 586.07 295.222 C 587.757 297.253 589.45 299.305 591.132 301.347 C 591.872 302.482 592.611 303.618 593.341 304.758 C 595.867 307.873 598.372 310.899 600.846 314.081 C 603.137 317.065 605.783 319.565 608.19 322.414 C 609.132 323.732 610.075 325.039 610.992 326.347 C 611.69 327.118 612.419 327.899 613.127 328.685 C 614.893 330.909 616.523 333.107 618.283 335.394 C 620.856 338.743 622.554 342.654 624.997 345.946 C 625.539 346.529 626.075 347.138 626.627 347.711 C 631.231 353.899 634.648 361.019 638.262 367.748 C 639.278 369.352 640.304 370.961 641.309 372.555 C 642.091 374.05 642.408 375.67 643.158 377.222 C 643.747 378.206 644.351 379.196 644.934 380.185 C 646.94 384.211 648.799 388.435 650.695 392.55 C 653.492 398.67 655.658 405.305 658.283 411.545 C 659.466 415.091 660.658 418.664 661.835 422.216 C 662.752 424.487 663.684 426.763 664.601 429.039 C 664.898 430.185 665.184 431.336 665.492 432.472 C 666.486 434.951 667.486 437.414 668.481 439.883 C 671.653 449.67 673.992 459.706 677.2 469.357 C 677.955 471.633 678.778 474.045 679.335 476.331 C 679.929 478.795 680.023 481.487 681.111 483.716 C 681.992 485.545 682.95 487.206 684.085 488.883 C 685.752 491.362 692.96 499.545 689.367 502.321 C 688.174 503.201 685.945 502.852 684.414 503.086 C 673.992 504.508 662.476 503.341 652.627 502.034 C 651.476 502.034 650.315 502.112 649.137 502.112 C 647.637 501.888 646.158 501.675 644.648 501.451 C 643.632 501.222 641.783 500.951 641.299 499.888 C 641.242 499.633 641.19 499.373 641.117 499.091 C 641.044 497.071 642.419 495.19 642.997 493.414 C 643.419 491.789 643.835 490.185 644.247 488.576 C 645.429 482.998 645.367 473.961 644.887 467.883 C 644.372 461.336 642.174 454.18 640.903 447.857 C 639.867 442.529 638.825 437.185 637.778 431.836 C 636.221 426.461 634.606 421.154 632.924 415.925 C 632.606 414.545 632.309 413.159 632.018 411.779 C 630.799 408.175 629.606 404.581 628.403 400.972 C 622.695 387.024 617.492 372.961 610.684 359.534 C 605.95 350.211 600.664 341.144 594.705 332.503 C 592.106 328.727 590.2 324.539 587.57 320.716 C 584.471 316.706 581.408 312.69 578.32 308.67 C 575.955 305.42 573.575 302.185 571.216 298.946 C 567.773 294.461 563.617 290.451 559.815 286.222 C 555.966 281.993 552.257 277.451 548.247 273.305 C 543.882 269.279 539.539 265.237 535.174 261.201 C 534.278 260.493 533.367 259.753 532.434 259.019 C 530.747 257.248 529.033 255.472 527.309 253.696 C 525.408 252.305 523.528 250.909 521.622 249.519 C 517.82 246.743 514.309 243.701 510.46 241.086 C 507.934 239.388 505.622 236.763 502.882 235.581 C 499.71 234.18 487.387 234.336 486.289 231.289 C 484.778 227.091 491.158 219.373 493.58 216.373" style="fill-opacity: 1; fill-rule: nonzero; stroke: none; stroke-width: 1.33333;" id="path714"/>
    <path d="M 561.367 692.68 C 560.492 690.258 559.622 687.826 558.747 685.378 C 558.367 684.644 557.976 683.925 557.596 683.18 C 556.007 679.003 554.528 674.93 552.773 670.868 C 551.94 668.597 551.127 666.3 550.309 664.013 C 546.549 655.107 542.882 646.102 539.148 637.196 C 538.643 635.237 538.111 633.263 537.585 631.315 C 535.903 626.727 534.33 622.409 532.789 617.732 C 530.851 611.909 528.137 606.69 525.747 601.128 C 524.815 598.341 523.877 595.529 522.934 592.722 C 508.382 557.961 492.591 524.034 478.32 489.039 C 477.2 486.638 476.07 484.211 474.95 481.821 C 470.445 470.055 465.002 458.883 460.268 447.253 C 459.325 445.237 458.382 443.196 457.434 441.175 C 456.736 439.237 456.028 437.295 455.33 435.368 C 454.028 432.628 452.341 429.597 451.94 426.451 C 449.398 407.456 468.986 394.107 477.695 380.055 C 481.872 373.284 484.049 364.982 484.471 356.315 C 484.596 353.211 483.955 350.633 483.518 347.899 C 483.127 345.487 482.887 342.852 482.262 340.597 C 481.596 339.19 480.908 337.779 480.242 336.368 C 478.69 333.263 477.335 330.607 475.351 327.732 C 474.726 326.545 474.101 325.362 473.481 324.196 C 470.856 320.112 467.252 315.946 463.257 313.159 C 460.794 311.44 458.111 310.513 455.247 309.602 C 454.346 309.399 453.45 309.196 452.559 308.993 C 450.132 307.987 447.804 306.633 445.075 306.295 C 443.346 306.216 441.611 306.19 439.867 306.133 C 438.674 306.133 437.117 305.753 436.039 306.133 C 432.773 306.133 429.794 305.711 426.622 305.935 C 425.091 306.253 423.559 306.565 422.012 306.894 C 420.986 306.982 419.976 307.091 418.94 307.185 C 417.32 307.185 415.049 307.404 413.705 306.795 C 412.429 305.998 411.137 305.19 409.846 304.404 C 408.231 304.18 406.611 303.92 404.986 303.68 C 402.893 304.519 401.33 305.68 399.341 306.732 C 398.085 307.232 396.825 307.753 395.57 308.253 C 393.158 308.253 390.091 307.841 388.242 308.946 L 387.903 308.946 C 387.903 312.196 391.908 315.748 393.367 318.466 C 396.012 323.529 399.466 328.289 401.622 333.597 C 403.367 337.888 403.981 341.951 404.794 346.805 C 405.174 349.164 405.789 351.482 405.789 354.196 C 405.789 359.222 403.643 365.164 401.33 369.18 C 396.611 377.368 388.539 382.545 381.023 387.336 C 362.799 398.904 337.424 407.394 327.794 429.039 C 325.299 434.638 324.95 440.868 324.325 447.493 C 324.169 449.18 323.492 450.618 323.408 452.414 C 323.257 455.539 324.221 458.034 324.346 460.841 C 324.419 463.295 324.486 465.743 324.539 468.185 C 325.174 472.993 326.367 477.925 327.804 482.493 C 328.83 484.909 329.835 487.279 330.856 489.67 C 331.981 492.42 333.012 495.44 334.716 497.899 C 336.356 500.232 338.648 502.586 340.934 504.529 C 341.872 505.232 342.825 505.909 343.773 506.633 C 346.195 509.081 348.627 511.545 351.049 513.998 C 358.658 521.091 366.268 528.17 373.867 535.258 C 375.486 536.821 376.924 538.414 378.591 539.998 C 379.502 540.727 380.398 541.456 381.309 542.18 C 384.986 545.993 388.919 549.909 392.945 553.243 C 397.934 557.368 403.231 561.789 408.018 566.18 C 418.789 576.065 429.57 585.237 439.981 595.06 C 441.059 595.868 442.117 596.654 443.205 597.461 C 445.393 599.461 447.57 601.451 449.747 603.461 C 452.002 605.331 454.601 607.138 456.82 609.029 C 473.393 623.253 489.643 638.55 506.658 652.237 C 516.731 660.373 526.117 669.394 535.945 677.826 C 538.799 680.279 541.434 683.086 544.19 685.659 C 546.867 687.878 549.539 690.081 552.226 692.3 C 555.736 695.331 558.356 697.659 562.309 699.732 C 562.309 698.774 563.059 698.466 562.934 697.341 C 562.742 695.789 561.877 694.065 561.367 692.654 M 432.762 341.982 C 426.747 344.19 418.518 342.164 417.101 335.539 C 416.57 333.138 418.132 328.873 419.169 326.951 C 420.554 324.336 422.882 323.784 424.877 321.946 C 428.252 321.946 431.169 322.508 433.575 324.409 C 438.408 328.237 439.731 339.399 432.762 341.982" style="fill-opacity: 1; fill-rule: nonzero; stroke: none; stroke-width: 1.33333;" id="path718"/>
    <path d="M 301.94 446.758 C 301.283 444.331 301.106 442.081 300.132 439.909 C 298.893 437.18 296.825 434.555 295.091 432.107 C 293.502 429.857 292.372 427.263 290.398 425.243 C 280.861 415.357 269.7 407.956 258.94 400.357 C 247.184 392.045 235.632 382.722 226.544 371.284 C 224.45 368.649 223.044 365.503 222.007 362.357 C 217.762 349.591 222.273 338.982 227.231 328.164 C 227.981 326.31 228.71 324.44 229.45 322.591 C 230.71 320.17 234.903 314.493 233.986 311.581 C 233.825 311.091 233.393 310.972 232.992 310.821 C 231.606 310.274 229.934 310.664 228.554 310.159 C 223.69 308.42 220.085 305.81 214.19 305.81 C 211.997 307.206 209.622 308.607 207.106 309.404 C 205.997 309.732 204.867 310.065 203.731 310.383 C 197.497 310.383 191.789 310.128 185.934 309.586 C 183.226 309.305 180.669 308.42 177.565 308.727 C 160.039 310.404 145.981 329.232 143.075 345.461 C 140.992 357.05 141.044 371.591 145.757 381.612 C 146.981 384.196 148.95 386.628 150.575 389.045 C 157.429 399.227 165.512 409.06 168.591 421.196 C 169.497 424.789 170.039 429.576 169.054 433.466 C 167.382 440.086 163.929 446.029 161.846 452.43 C 160.695 455.966 159.054 459.19 157.882 462.685 C 153.179 476.472 147.153 489.602 141.585 502.93 C 140.705 505.404 139.809 507.873 138.919 510.347 C 136.414 515.972 134.002 521.659 131.762 527.472 C 130.117 531.128 128.476 534.795 126.815 538.461 C 120.887 552.623 114.924 566.612 109.262 580.841 C 105.361 590.633 101.637 600.659 97.57 610.404 C 96.976 612.107 96.387 613.805 95.783 615.477 C 91.966 623.769 88.184 632.133 84.387 640.446 C 81.622 646.43 78.226 652.18 75.945 658.44 C 74.325 662.862 73.028 667.159 71.408 671.623 C 70.033 675.446 68.236 679.211 66.768 682.961 C 66.315 684.545 65.851 686.144 65.382 687.727 C 64.466 690.107 63.325 691.998 63.164 694.836 C 66.768 694.836 74.2 686.852 77.299 684.545 C 85.361 678.519 92.773 671.675 100.601 665.159 C 103.309 662.894 106.387 660.873 109.08 658.565 C 110.804 657.039 112.518 655.498 114.226 653.977 C 116.236 652.466 118.236 650.946 120.231 649.425 C 122.387 647.388 124.44 645.347 126.773 643.409 C 128.559 641.888 130.653 640.857 132.46 639.253 C 151.148 622.69 170.502 607.045 189.653 591.196 C 191.304 589.815 192.71 588.19 194.304 586.774 C 197.32 584.107 200.669 581.841 203.575 578.93 C 204.622 578.19 205.648 577.461 206.684 576.732 C 208.512 575.17 210.065 573.456 211.934 571.904 C 213.924 570.394 215.908 568.852 217.919 567.347 C 227.273 558.998 236.861 551.336 246.445 543.43 C 249.851 540.581 253.085 537.435 256.533 534.67 C 263.252 529.258 269.773 523.836 276.393 518.149 C 278.835 516.034 281.762 514.091 284.075 511.836 C 286.075 509.883 287.512 506.576 289.179 504.331 C 291.106 501.716 292.976 499.243 294.669 496.55 C 296.169 494.149 298.132 492.159 299.127 489.555 C 300.08 487.102 299.58 484.071 300.387 481.565 C 301.148 479.227 301.887 476.862 302.627 474.503 C 303.205 471.06 303.273 467.638 303.554 464.013 C 303.726 461.857 304.242 459.753 304.127 457.362 C 303.95 453.607 302.825 450.164 301.94 446.753 M 198.471 345.961 C 190.299 346.769 184.012 337.597 188.585 330.508 C 190.382 327.743 193.387 326.638 196.049 325.118 C 199.643 325.211 202.69 326.091 204.929 328.763 C 209.778 334.493 206.007 345.206 198.471 345.961" style="fill-opacity: 1; fill-rule: nonzero; stroke: none; stroke-width: 1.33333;" id="path722"/>
    <path d="M 656.127 519.805 C 658.684 519.883 661.231 519.883 663.778 519.93 C 665.637 520.222 667.523 520.513 669.382 520.815 C 672.914 520.966 688.757 520.201 690.257 521.888 C 693.408 525.44 687.262 532.722 685.986 535.675 C 685.361 537.112 685.012 538.894 684.757 540.477 C 684.356 542.805 684.486 545.508 684.539 547.857 C 684.596 552.149 684.445 556.977 684.575 561.206 C 684.44 563.524 684.299 565.862 684.143 568.222 C 683.95 572.06 684.361 576.175 684.247 580.118 C 683.846 583.394 683.445 586.675 683.033 589.961 C 682.684 594.435 682.674 599.795 681.424 603.904 C 680.674 606.3 680.799 609.466 680.528 612.05 C 679.83 618.216 678.96 624.185 677.955 630.279 C 677.304 632.618 676.648 634.998 675.981 637.357 C 675.908 638.133 675.83 638.909 675.747 639.675 C 675.419 640.524 675.08 641.399 674.731 642.258 C 673.835 646.076 673.075 649.633 672.387 653.399 C 671.773 655.644 671.164 657.894 670.559 660.138 C 670.085 662.659 669.617 665.216 669.143 667.737 C 668.361 669.758 667.57 671.841 666.773 673.862 C 665.497 677.55 664.205 681.248 662.919 684.925 C 662.481 685.81 662.059 686.69 661.637 687.56 C 659.778 693.065 658.434 698.508 656.226 703.826 C 652.747 712.138 648.33 719.982 644.164 727.946 C 643.309 729.836 642.466 731.727 641.596 733.628 C 638.861 739.118 635.898 744.451 632.95 749.821 C 630.648 753.295 628.351 756.763 626.049 760.227 C 623.882 764.18 621.091 767.795 618.736 771.612 C 618.018 772.503 617.309 773.373 616.591 774.248 C 614.414 777.659 612.231 781.123 609.898 784.482 C 609.075 785.644 608.101 786.227 607.19 787.289 C 604.643 790.19 602.815 793.368 600.492 796.399 C 597.835 799.852 594.539 802.576 591.929 806.008 C 589.752 808.836 587.195 811.321 584.794 813.904 C 584.117 814.873 583.419 815.821 582.731 816.763 C 581.21 818.274 579.7 819.805 578.19 821.274 C 575.992 823.289 573.377 825.055 571.127 827.19 C 567.367 830.732 564.122 834.878 560.07 838.128 C 557.408 840.482 554.721 842.831 552.059 845.144 C 551.236 845.753 550.408 846.378 549.575 846.951 C 548.601 847.93 547.622 848.93 546.648 849.93 C 545.736 850.633 544.82 851.352 543.898 852.065 C 541.596 854.373 539.606 856.571 538.257 859.347 C 537.153 861.591 535.2 867.487 533.455 868.883 C 532.57 869.56 530.731 869.498 529.643 869.17 C 526.757 868.211 525.382 863.706 524.007 861.409 C 523.023 860.164 522.039 858.888 521.07 857.67 C 517.424 851.607 514.408 845.05 511.143 838.8 C 510.117 837.3 509.08 835.8 508.065 834.315 C 505.966 830.805 503.893 827.321 501.789 823.81 C 499.486 819.946 497.94 816.097 495.216 812.43 C 492.507 808.815 485.236 798.248 486.992 793.571 C 488.08 790.597 495.143 791.519 498.111 791.17 C 499.736 791.008 501.481 790.43 502.877 789.701 C 505.934 788.055 509.049 785.81 511.726 783.591 C 512.705 782.716 513.679 781.847 514.653 780.977 C 523.137 774.789 531.903 767.987 539.533 760.331 C 546.512 753.305 553.773 746.409 560.778 738.914 C 564.955 734.451 568.252 729.091 572.278 724.524 C 575.726 720.565 579.32 716.763 582.403 712.659 C 587.216 706.175 591.117 698.935 595.299 692.175 C 597.382 688.795 599.971 685.883 601.846 682.43 C 605.46 675.67 609.106 668.685 612.002 661.602 C 613.164 659.446 614.325 657.289 615.492 655.097 C 617.414 650.878 619.231 646.576 620.997 642.269 C 623.195 636.857 625.033 631.321 626.872 625.774 C 628.372 621.222 630.137 616.951 631.512 612.336 C 633.872 604.461 635.257 596.305 637.075 588.227 C 637.919 584.368 639.273 580.618 639.94 576.586 C 640.242 573.451 640.559 570.305 640.867 567.17 C 641.387 562.472 642.367 557.836 643.065 553.086 C 643.132 551.107 643.205 549.164 643.278 547.144 C 643.445 544.305 644.523 541.352 644.091 538.42 C 643.523 535.972 642.95 533.529 642.367 531.071 C 641.648 528.873 638.955 526.076 639.82 523.482 C 640.382 521.784 642.971 521.55 644.622 521.55 C 645.835 520.935 647.95 521.206 649.502 521.206 C 650.601 520.67 652.325 520.852 653.69 520.852 C 654.335 520.43 655.262 520.144 656.122 520.144 L 656.122 519.8" style="fill-opacity: 1; fill-rule: nonzero; stroke: none; stroke-width: 1.33333;" id="path726"/>
    <path d="M -37.3 521.206 C -35.555 521.326 -33.81 521.435 -32.066 521.55 C -29.352 520.456 -17.524 522.482 -14.67 523.409 C -14.191 523.565 -13.232 524.248 -13.232 523.664 C -12.894 525.628 -17.024 531.06 -17.894 533.216 C -18.821 535.472 -18.883 537.862 -19.321 540.456 C -19.774 543.201 -20.493 546.112 -20.071 549.227 C -19.597 552.862 -19.321 556.826 -18.54 560.388 C -17.732 564.138 -16.336 568.159 -15.524 572.112 C -14.805 575.633 -14.477 579.352 -13.821 582.925 C -12.779 587.154 -11.711 591.394 -10.665 595.628 C -9.279 601.503 -7.67 607.086 -6.17 612.826 C -5.941 614.081 -5.706 615.321 -5.461 616.576 C -4.639 619.383 -3.264 621.732 -2.3 624.42 C -1.805 626.227 -1.3 628.055 -0.8 629.841 C 0.205 632.222 1.205 634.659 2.19 637.039 C 2.971 639.378 3.289 641.758 4.262 643.961 C 5.934 647.784 7.591 651.623 9.252 655.461 C 11.544 659.946 14.028 664.43 16.236 668.961 C 18.164 672.966 19.726 677.102 21.924 680.972 C 22.877 682.321 23.835 683.659 24.799 684.977 C 25.414 686.243 26.023 687.529 26.637 688.805 C 27.356 689.774 28.106 690.774 28.835 691.748 C 31.122 695.727 33.393 700.284 36.278 703.961 C 40.19 709.024 44.101 714.081 48.012 719.133 C 49.955 721.758 51.887 724.383 53.846 726.998 C 55.481 728.998 57.143 730.94 58.773 732.92 C 59.804 733.852 60.851 734.789 61.887 735.722 C 64.054 738.222 66.21 740.732 68.367 743.263 C 69.205 744.024 70.039 744.8 70.872 745.586 C 71.294 746.269 71.71 746.94 72.132 747.618 C 73.179 749.086 74.934 750.508 76.19 751.873 C 77.429 752.847 78.674 753.826 79.898 754.805 C 81.742 756.482 83.356 758.269 85.226 759.972 C 86.315 760.743 87.403 761.534 88.492 762.321 C 89.309 763.243 90.111 764.201 90.903 765.138 C 92.164 766.102 93.429 767.071 94.679 768.029 C 97.617 770.602 100.44 773.196 103.627 775.477 C 108.757 779.071 113.903 782.685 119.028 786.289 C 120.596 787.3 121.747 788.769 123.533 789.425 C 125.627 789.998 127.721 790.571 129.809 791.118 C 131.841 791.508 133.841 791.493 135.658 792.091 C 136.997 792.539 138.143 792.612 138.585 794.185 C 139.132 796.206 139.091 799.852 138.434 801.779 C 137.695 803.966 136.309 805.539 135.231 807.55 C 133.205 811.352 130.986 814.966 128.882 818.743 C 125.762 824.289 122.783 829.956 119.591 835.43 C 117.815 838.055 116.049 840.69 114.273 843.326 C 110.669 849.555 106.57 855.55 102.742 861.675 C 102.044 862.779 94.898 873.039 94.898 873.039 C 90.111 870.336 91.039 863.112 88.304 858.977 C 86.158 855.743 81.57 853.065 78.528 850.545 C 69.257 842.894 59.924 835.227 51.117 826.904 C 49.164 825.055 47.799 822.664 45.929 820.909 C 39.247 814.618 33.19 807.982 27.111 801.289 C 24.809 798.43 22.518 795.571 20.21 792.753 C 19.273 791.362 18.32 789.977 17.356 788.597 C 10.929 781.05 5.403 772.904 0.169 764.784 C -6.529 754.399 -13.128 744.091 -19.024 733.341 C -20.185 730.847 -21.316 728.326 -22.493 725.805 C -26.305 717.93 -29.998 709.852 -32.852 701.529 C -36.128 693.206 -39.394 684.841 -42.67 676.508 C -46.05 666.81 -48.326 656.44 -50.821 646.414 C -52.003 641.716 -52.92 636.826 -54.467 632.289 C -55.258 629.94 -55.175 627.269 -55.597 624.696 C -56.675 618.3 -58.019 611.774 -58.639 605.055 C -59.347 597.409 -61.264 589.565 -61.972 581.873 C -62.456 576.81 -62.086 571.378 -62.086 566.456 C -62.31 561.42 -62.529 556.394 -62.753 551.362 C -62.836 546.487 -63.092 542.341 -63.967 538.076 C -64.899 533.612 -74.18 523.3 -62.415 523.3 L -57.868 523.3 C -56.831 523.175 -55.784 523.076 -54.743 522.951 C -52.149 521.43 -46.909 522.248 -43.576 522.248 C -41.795 521.269 -39.279 521.706 -37.3 521.206" style="fill-opacity: 1; fill-rule: nonzero; stroke: none; stroke-width: 1.33333;" id="path730"/>
    <path d="M 465.341 806.034 C 467.2 806.206 468.71 806.748 470.106 807.888 C 472.559 809.862 474.137 813.118 475.69 815.675 C 477.283 818.305 478.669 821.128 480.257 823.727 C 480.955 824.618 481.627 825.529 482.304 826.446 C 483.679 829.253 485.065 832.06 486.44 834.873 C 487.497 837.362 488.575 839.862 489.632 842.368 C 491.481 845.503 494.195 847.972 496.205 851.045 C 498.887 855.508 501.575 859.972 504.247 864.435 C 504.882 865.305 505.539 866.18 506.164 867.029 C 507.58 869.295 513.158 881.164 510.96 883.493 C 510.476 883.972 509.924 884.06 509.257 884.138 C 506.554 884.529 503.71 883.951 500.981 884.466 C 497.528 885.107 493.054 885.977 489.872 887.295 C 488.247 887.972 486.82 889.112 485.21 889.847 C 483.731 890.362 482.262 890.899 480.783 891.42 C 478.924 892.31 477.252 893.461 475.476 894.446 C 474.21 895.055 472.94 895.638 471.643 896.211 C 470.236 897.128 468.809 898.019 467.393 898.914 C 454.591 905.451 439.992 910.149 425.945 914.196 C 424.065 914.94 422.195 915.685 420.304 916.42 C 417.164 917.623 413.653 918.472 410.492 919.43 C 401.247 922.19 391.309 923.435 381.648 925.071 C 376.143 926.008 370.804 927.571 365.2 928.315 C 361.247 928.42 357.315 928.513 353.372 928.644 C 351.502 928.873 349.643 929.118 347.773 929.336 C 345.783 929.414 343.83 929.493 341.851 929.534 C 340.216 929.638 339.137 930.18 337.658 930.404 C 335.679 930.493 333.736 930.571 331.747 930.638 C 329.992 930.899 328.247 931.149 326.497 931.425 C 322.434 931.503 318.492 930.618 314.637 930.576 C 307.309 930.576 299.997 930.498 292.669 930.472 C 291.497 930.227 290.335 929.993 289.174 929.748 C 287.049 929.555 285.018 929.904 282.924 929.67 C 281.507 929.388 280.111 929.123 278.705 928.836 C 276.617 928.649 274.523 928.399 272.429 928.19 C 262.95 926.951 253.773 926.341 244.554 924.769 C 238.997 923.789 233.606 921.878 228.091 920.847 C 214.408 918.284 201.653 914.404 189.012 909.982 C 185.851 908.868 182.71 907.56 179.585 906.498 C 174.976 904.904 170.471 903.946 166.148 901.946 C 155.387 896.93 144.945 891.618 134.289 886.362 C 133.127 885.94 131.966 885.524 130.794 885.086 C 127.908 884.763 120.054 886.482 118.268 884.258 C 115.815 881.232 123.236 868.253 124.632 865.331 C 125.466 863.977 126.33 862.649 127.169 861.3 C 130.294 856.295 133.835 851.3 136.914 846.206 C 138.887 841.826 140.856 837.466 142.82 833.112 C 146.226 826.425 151.002 820.341 155.028 813.925 C 156.085 812.243 157.976 807.93 159.637 807.055 C 159.841 806.977 160.049 806.904 160.252 806.81 C 161.997 806.493 171.414 816.43 173.486 818.097 C 179.559 823.019 184.591 824.591 191.778 827.185 C 197.361 829.185 203.039 831.258 208.554 833.394 C 216.96 836.633 226.039 838.123 235.033 840.227 C 238.679 841.081 242.387 842.368 246.002 843.279 C 248.825 843.982 251.669 844.071 254.627 844.373 C 256.044 844.716 257.46 845.065 258.887 845.394 C 262.46 845.748 266.054 846.097 269.627 846.435 C 270.799 846.789 271.976 847.138 273.137 847.487 C 278.325 847.831 283.497 848.008 288.835 848.529 C 290.565 848.815 292.32 849.112 294.075 849.425 C 300.101 849.425 306.158 849.503 312.195 849.503 C 313.929 849.503 315.471 850.003 317.075 850.118 C 319.773 850.118 322.455 850.196 325.111 850.206 C 327.32 848.899 331.325 849.503 334.19 849.503 C 336.653 848.045 340.382 848.44 343.596 848.44 C 345.289 847.591 350.065 848.091 352.325 848.091 C 354.262 847.112 357.21 847.388 359.643 847.388 C 360.622 846.868 361.882 846.696 363.137 846.696 C 364.544 845.8 366.554 845.633 368.361 845.633 C 369.273 845.097 370.674 844.93 371.851 844.93 C 373.226 844.227 375.403 843.888 377.08 843.888 C 377.908 843.753 378.71 843.664 379.523 843.539 C 382.283 842.144 387.601 841.44 391.033 841.44 C 391.986 841.118 392.914 840.795 393.856 840.466 C 396.299 839.55 400.122 837.935 402.903 837.935 C 404.627 836.852 409.382 835.107 411.622 835.107 C 413.57 833.972 415.799 833.904 417.914 833.055 C 420.236 832.144 422.742 831.269 425.195 830.482 C 432.33 828.222 439.148 824.519 445.914 821.3 C 448.976 819.831 452.179 818.769 455.205 817.216 C 456.221 816.675 457.19 816.581 458.122 815.888 C 460.914 813.732 462.648 808.68 465.341 806.003" style="fill-opacity: 1; fill-rule: nonzero; stroke: none; stroke-width: 1.33333;" id="path734"/>
  </g>
</svg>