<?xml version="1.0" encoding="UTF-8"?><svg width="455" height="453" viewBox="22 23 455 453" xmlns="http://www.w3.org/2000/svg">
 <path xmlns="http://www.w3.org/2000/svg" d="m288.7 28.33c17.23 14.31 28.83 58.39 18.59 87.53-10.31 29.4-34.95 54.03-54.8 68.32-13.07 9.41-24.59 20.37-30.94 26.75 43.34-10.1 82.31-31.59 113.6-61.12l97.28 22.4c-62.09 54.05-143.2 86.8-232 86.8-68.56 0-128.1-38.28-158.6-94.65-10.87 26.41-16.88 55.32-16.88 85.64 0 43.63 12.41 84.36 33.91 118.8 33.51-63.8 100.5-105.5 177.6-105.5 83.57 0 157.9 37.7 205.2 99.16l-53.03 18.03c-33.85-50-98.55-84.72-168.4-84.72-72.82 0-126.6 29.62-161.2 73.32l0.144 0.26c36.28-40.24 88.79-65.56 147.2-65.56 66.77 0 125.8 33.06 161.7 83.65l-47.52 16.15c-26.94-40.61-70.45-69.24-120.9-76.35 15.28 29.04 39.66 47.76 65.85 60.3 13.64 6.52 18.27 14.29 14.29 30.18-5.01 20.03-25.42 46.08-25.42 46.08-43.97-32.39-59.28-114.8-62.72-137.5-5.45-0.51-10.97-0.77-16.54-0.77-44.48 0-85.06 16.66-115.9 44.06 39.81 63.34 110.3 105.4 190.6 105.4 124.4 0 225.1-100.7 225.1-225 0-111.1-80.5-203.3-186.3-221.7m-123.6 189.1c6.83 0 13.58-0.3 20.27-0.84 13.57-121.7 96.61-184.1 102.5-188.4-12.33-2.11-25-3.2-37.94-3.201-93.84 0-174.2 57.45-208 139.1 30.81 32.82 74.59 53.33 123.1 53.33" fill="#0081cc"/>
</svg>