<?xml version="1.0" encoding="UTF-8"?><svg width="455" height="278" viewBox="22 111 455 278" xmlns="http://www.w3.org/2000/svg">
 <path xmlns="http://www.w3.org/2000/svg" d="m128.8 275.8a114 114 0 0 1 217.4 -48.5c-20.6 0.9-32.5 1.7-64 24.9 30.3-8.9 69.2-3.4 71.5-3a114 114 0 0 1 2.6 34c-71.2 9-113.5-26-168-23.4-22.2 1.1-42.7 7.8-59.5 15.9zm81.9 108.6a114 114 0 0 1 -48.6 -28.9c69.4 16.5 99.1-34.2 99.1-34.2-12.6 5.7-26.1 9.4-54.1 10.6-27.4 1.2-49.6-7.1-69.1-12.1a114 114 0 0 1 -7.1 -22.9c14-0.6 31.1-0.3 52.7 1.3 55.2 4.1 76.3 25.8 128.5 26.2 12.7 0.1 24.8-2.4 36.1-6.4a114 114 0 0 1 -73.5 66.4v3.2a139.5 139.5 0 0 0 95.8 -79.8c29.2-16.3 48.5-38.8 48.5-38.8-11.3 5.1-23.1 8.6-39.7 11.3a139.5 139.5 0 0 0 2.8 -23.1c48.6 13.1 73 0 92.9-25.1-9.1 4-44.3 16.3-94.1 0.5a139.5 139.5 0 1 0 -273.1 54.7c-15.5 9.8-24.7 18.4-24.7 18.4 7.8-3.1 16.7-5.5 28.2-7.2a139.5 139.5 0 0 0 7.5 17.2c-34.5-1.5-53.7 0.4-93.8 30.1 56-13.2 93.7-3.1 120.3 5.6a139.5 139.5 0 0 0 65.5 36z" fill="#0e2884"/>
 <circle xmlns="http://www.w3.org/2000/svg" cx="242.7" cy="219.3" r="32.6" fill="#fe0007"/>
</svg>