<svg xmlns="http://www.w3.org/2000/svg" width="250" height="250" fill="#1496de"><path d="M125.37 74.242L58.605 189.018h133.53L125.37 74.242zm.14 30.514l41.151 69.704H84.358l41.152-69.704z"/><path d="M201.653 136.668c-13.486-6.975-24.586-9.438-33.594-9.358 7.443-11.022 12.1-27.257 7.34-50.905-9.316-46.292-50.071-64.123-50.071-64.123S74.715 37.29 74.715 93.978c0 13.728 3.294 24.022 7.945 31.721-8.349-.396-18.588 1.688-30.984 8.171-46.273 24.195-48.46 85.66-48.46 85.66s35.472 28.103 80.623 14.276c23.559-7.214 35.584-19.875 41.551-32.427 5.965 12.552 17.991 25.213 41.551 32.427 45.15 13.826 79.782-13.438 79.782-13.438s3.639-58.506-45.07-83.7zm-68.305 48.779l-.139-20.784h-15.677l-.883 23.538c-15.297 31.808-50.312 37.506-74.542 35.688-18.845-1.412-30.213-7.718-30.213-7.718 9.517-48.71 37.753-62.894 46.189-68.024 19.445-11.827 40.311-3.36 40.311-3.36l12.384 6.509 7.453-13.227-12.643-7.484s-16.107-9.102-16.107-34.403c0-9.875-2.136-43.125 36.18-74.668 0 0 10.955 7 21.163 22.904 13.125 20.449 26.205 52.92 3.753 82.012l-18.612 13.155 7.821 12.761 12.598-7.559s21.706-7.628 41.151 4.199c8.437 5.132 35.831 19.316 45.35 68.025 0 0-77.544 30.302-105.537-31.564z"/></svg>