<svg xmlns="http://www.w3.org/2000/svg" width="160" height="200"><path fill="#2b62d9" d="M126 62c8.12-7.4 17.675-14.3 29-20.33 0 0-48.55 1.45-74-38.4 0 0-25.84 40.816-74 38.4 0 0 29.8 11 51.5 45 6.6-13.3 19.775-31.73 19.775-31.73l5.313 5.555C73.75 72.83 65.9 88.36 63.61 94.385c9.3 17.35 16.4 40.724 17 69.2 0 0-.8-38.37 23.38-75.54 11 7.5 18.2 20 18.2 34.36 0 22.93-18.66 41.6-41.6 41.6s-41.6-18.66-41.6-41.6c0-12.15 5.24-23.1 13.574-30.7a123.16 123.16 0 0 0-22.016-25.875C15 79.67 5.1 100 5.1 122.4c0 41.67 34 75.6 75.6 75.66s75.6-34 75.6-75.6c0-24.63-11.85-46.535-30.14-60.34z"/></svg>