<?xml version="1.0" encoding="UTF-8" standalone="no"?>
<svg
   xmlns:dc="http://purl.org/dc/elements/1.1/"
   xmlns:cc="http://creativecommons.org/ns#"
   xmlns:rdf="http://www.w3.org/1999/02/22-rdf-syntax-ns#"
   xmlns:svg="http://www.w3.org/2000/svg"
   xmlns="http://www.w3.org/2000/svg"
   xmlns:sodipodi="http://sodipodi.sourceforge.net/DTD/sodipodi-0.dtd"
   xmlns:inkscape="http://www.inkscape.org/namespaces/inkscape"
   version="1.1"
   width="500.00003"
   height="500.00003"
   viewBox="-250 -250 500.00003 500.00003"
   id="svg2"
   inkscape:version="0.48.4 r"
   sodipodi:docname="Wazuka_Kyoto_chapter.svg">
  <metadata
     id="metadata19">
    <rdf:RDF>
      <cc:Work
         rdf:about="">
        <dc:format>image/svg+xml</dc:format>
        <dc:type
           rdf:resource="http://purl.org/dc/dcmitype/StillImage" />
      </cc:Work>
    </rdf:RDF>
  </metadata>
  <defs
     id="defs17" />
  <sodipodi:namedview
     pagecolor="#ffffff"
     bordercolor="#666666"
     borderopacity="1"
     objecttolerance="10"
     gridtolerance="10"
     guidetolerance="10"
     inkscape:pageopacity="0"
     inkscape:pageshadow="2"
     inkscape:window-width="1280"
     inkscape:window-height="961"
     id="namedview15"
     showgrid="false"
     fit-margin-top="0"
     fit-margin-left="0"
     fit-margin-right="0"
     fit-margin-bottom="0"
     inkscape:zoom="1.1469611"
     inkscape:cx="257.58277"
     inkscape:cy="192.36275"
     inkscape:window-x="-8"
     inkscape:window-y="-8"
     inkscape:window-maximized="1"
     inkscape:current-layer="svg2" />
  <title
     id="title4">Wazuka, Kyoto Chapter</title>
  <g
     id="g3810"
     style="fill:#086807;fill-opacity:1"
     transform="matrix(1.0416667,0,0,1.0416667,93.477521,260.81206)">
    <path
       inkscape:connector-curvature="0"
       id="path3011"
       d="m -209.73841,-370.37956 c -66.27417,0 -120,53.72583 -120,120 0,66.27417 53.72583,120 120,120 66.27417,0 120.000004,-53.72583 120.000004,-120 0,-66.27417 -53.725834,-120 -120.000004,-120 z m 13.40625,32 c 48.60106,0 88,39.39894 88,88 0,48.60106 -39.39894,88 -88,88 -48.60106,0 -88,-39.39894 -88,-88 0,-48.60106 39.39894,-88 88,-88 z"
       style="fill:#086807;fill-opacity:1;stroke:none" />
    <path
       inkscape:connector-curvature="0"
       style="fill:#086807;fill-opacity:1;stroke:none"
       d="m 30.261591,-370.37956 c 66.27417,0 119.999999,53.72583 119.999999,120 0,66.27417 -53.725829,120 -119.999999,120 -66.274167,0 -119.999997,-53.72583 -119.999997,-120 0,-66.27417 53.72583,-120 119.999997,-120 z m -13.406248,32 c -48.60106,0 -88,39.39894 -88,88 0,48.60106 39.39894,88 88,88 48.601058,0 87.999997,-39.39894 87.999997,-88 0,-48.60106 -39.398939,-88 -87.999997,-88 z"
       id="path3784" />
    <path
       style="fill:#086807;fill-opacity:1;stroke:none"
       d="m 30.26159,-370.37956 c 0,-66.27417 -53.72583,-120 -120,-120 -66.27417,0 -120,53.72583 -120,120 0,66.27417 53.72583,120 120,120 66.27417,0 120,-53.72583 120,-120 z m -32,13.40625 c 0,48.60106 -39.39894,88 -88,88 -48.60106,0 -88,-39.39894 -88,-88 0,-48.60106 39.39894,-88 88,-88 48.60106,0 88,39.39894 88,88 z"
       id="path3792"
       inkscape:connector-curvature="0" />
    <path
       id="path3794"
       d="m 30.26159,-130.37956 c 0,66.274171 -53.72583,120 -120,120 -66.27417,0 -120,-53.725829 -120,-120 0,-66.27417 53.72583,-120 120,-120 66.27417,0 120,53.72583 120,120 z m -32,-13.40625 c 0,-48.60106 -39.39894,-88 -88,-88 -48.60106,0 -88,39.39894 -88,88 0,48.601061 39.39894,88 88,88 48.60106,0 88,-39.398939 88,-88 z"
       style="fill:#086807;fill-opacity:1;stroke:none"
       inkscape:connector-curvature="0" />
  </g>
</svg>
