<?xml version="1.0" encoding="UTF-8" standalone="no"?>

<svg
   xmlns:svg="http://www.w3.org/2000/svg"
   xmlns="http://www.w3.org/2000/svg"
   width="500"
   height="500"
   id="svg2">
  <defs
     id="defs5" />
  <path
     d="m 248.64696,25.928753 -12.5,7 0,147.375007 -31.78125,-18.34375 0,-65.812497 0.0625,-0.0312 -0.0625,-0.0312 -105.593751,-60.96876 -12.312501,7.3125 -0.1875,14.34375 92.875002,53.625007 0.1875,37.125 -137.687512,-79.500007 -12.3125,7.34375 -0.1875,14.3125 137.625012,79.468757 -32.15625,18.375 -92.875012,-53.625 -12.3125,7.3125 -0.1875,14.34375 105.593762,60.96875 0.0625,0.0312 0,-0.0625 56.9375,-32.875 31.8125,18.375 -127.281251,73.46875 0.1875,14.3125 12.312501,7.3125 127.28125,-73.46875 0,35.46875 -56.9375,32.875 -0.0625,-0.0312 0,0.0625 0,121.9375 12.5,7 12.5,-7 0,-107.25 32,-18.65625 0,158.90625 12.5,7 12.5,-7 0,-158.96875 32.0625,18.71875 0,107.25 12.5,7 12.5,-7 0,-121.9375 0,-0.0625 -0.0625,0.0312 -57,-32.90625 0,-35.4375 126.53125,73.0625 12.3125,-7.3125 0.1875,-14.34375 -126.53125,-73.0625 31.09375,-17.9375 56.9375,32.875 0,0.0625 0.0312,-0.0312 105.625,-60.96875 -0.1875,-14.3125 -12.3125,-7.34375 -92.90625,53.625 -32.15625,-18.375 137.625,-79.468757 -0.1875,-14.3125 -12.3125,-7.3125 -137.65625,79.468757 0.15625,-37.125 92.90625,-53.625007 -0.1875,-14.3125 -12.3125,-7.34375 -105.625,60.96876 -0.0312,0.0312 0.0625,0.0625 0,65.812497 -31.0625,17.9375 0,-147.406257 -12.5,-7 z"
     id="rect2384"
     style="fill:#000000;fill-opacity:1;stroke:none" />
</svg>
