<?xml version="1.0" encoding="utf-8"?>
<!-- Generator: Adobe Illustrator 15.1.0, SVG Export Plug-In . SVG Version: 6.00 Build 0)  -->
<!DOCTYPE svg PUBLIC "-//W3C//DTD SVG 1.1//EN" "http://www.w3.org/Graphics/SVG/1.1/DTD/svg11.dtd">
<svg version="1.1" id="_x28__x5E__x5F__x5E__x29_" xmlns="http://www.w3.org/2000/svg" xmlns:xlink="http://www.w3.org/1999/xlink"
	 x="0px" y="0px" width="200px" height="202.43px" viewBox="0 0 200 202.43" style="enable-background:new 0 0 200 202.43;"
	 xml:space="preserve">
<g>
	<path d="M99.922,42.764c-4.382,0-7.946,3.566-7.946,7.948s3.564,7.946,7.946,7.946c4.383,0,7.949-3.564,7.949-7.946
		S104.305,42.764,99.922,42.764z"/>
	<path d="M55.405,149.172c34.094,0,31.644-38.586,31.644-45.323s-0.815-42.128-31.644-42.128c0,0,18.986,6.45,18.986,42.332
		C74.392,146.313,55.405,149.172,55.405,149.172z"/>
	<path d="M144.44,61.721c-30.827,0-31.645,35.391-31.645,42.128s-2.45,45.323,31.645,45.323c0,0-18.987-2.858-18.987-45.119
		C125.453,68.171,144.44,61.721,144.44,61.721z"/>
	<path d="M126.197,5.904C123.966,2.361,120.03,0,115.534,0c-6.963,0-12.605,5.642-12.605,12.604c0,6.963,5.643,12.605,12.605,12.605
		c4.669,0,8.735-2.545,10.914-6.317c42.805,13.974,50.964,61.354,50.964,80.567c0,22.662-13.78,57.267-40.117,57.267
		c-26.336,0-31.236-32.324-31.236-55.667c0-23.342,10.719-44.166,40.729-44.166c0,0-0.306-23.274-33.992-23.274
		c0,0-3.392-7.962-12.873-7.962c-9.482,0-12.874,7.962-12.874,7.962c-33.686,0-33.992,23.274-33.992,23.274
		c30.012,0,40.729,20.824,40.729,44.166c0,23.343-4.899,55.667-31.235,55.667c-26.337,0-40.117-34.604-40.117-57.267
		c0-19.232,8.175-66.688,51.091-80.609c2.172,3.796,6.252,6.359,10.939,6.359c6.964,0,12.605-5.643,12.605-12.605
		C97.069,5.642,91.428,0,84.464,0c-4.496,0-8.432,2.361-10.663,5.904C31.28,17.417,0,56.268,0,102.43c0,55.229,44.771,100,100,100
		c55.227,0,100-44.771,100-100C200,56.268,168.717,17.416,126.197,5.904z M99.922,61.721c-6.078,0-11.009-4.927-11.009-11.009
		c0-6.08,4.931-11.01,11.009-11.01c6.081,0,11.012,4.93,11.012,11.01C110.934,56.794,106.003,61.721,99.922,61.721z"/>
</g>
</svg>
