<svg xmlns="http://www.w3.org/2000/svg" viewBox="-260 -300 520 600 " width="520" height="600">
<path d="M-223.606798-200H-57.735027L0-300L57.735027-200H223.606798L76.924343-43.034557A367.423461 367.423461 0 0 1 259.807621 150 277.790888 277.790888 0 0 1 76.924343 70.682504 367.423461 367.423461 0 0 1 0 300 367.423461 367.423461 0 0 1-76.924343 70.682504 277.790888 277.790888 0 0 1-259.807621 150 367.423461 367.423461 0 0 1-76.924343-43.034557zM86.60254-150H-86.60254L-26.555133-110.722069A367.423461 367.423461 0 0 1 -16.081768-127.543116H16.081768A367.423461 367.423461 0 0 1 26.555133-110.722069zM16.171508 50a250.522489 250.522489 0 0 0-32.343015 0A182.002747 182.002747 0 0 0 0 125 182.002747 182.0027 0 0 0 16.171508 50z" fill="#008000"/>
</svg>