<?xml version="1.0" encoding="UTF-8" standalone="no"?>
<!-- Created with Inkscape (http://www.inkscape.org/) -->

<svg
   xmlns:svg="http://www.w3.org/2000/svg"
   xmlns="http://www.w3.org/2000/svg"
   version="1.0"
   width="420"
   height="400"
   id="svg2">
  <defs
     id="defs5" />
  <path
     d="m 209.83125,20.70625 c -7.5,37.125 -27.75,51.5 -49,64 23.8125,-6.125 40,-16 40,-16 0,0 -10.05137,41.76879 -40.59375,81.375 -46.78392,16.48251 -90.5,13.9375 -90.5,13.9375 0,0 14.50311,-13.63713 27.5625,-33.09375 -17.97845,17.91492 -39.45034,30.01364 -76,26.8125 32.99034,18.60518 40.39716,42.30233 45.71875,66.375 C 68.552,199.57274 64.175,181.14375 64.175,181.14375 c 0,0 36.85866,22.61054 65.125,64.15625 1.0993,49.36031 -14.71875,89.875 -14.71875,89.875 0,0 -8.46873,-18.00486 -22.9375,-36.4375 11.48245,22.63454 16.33893,46.79091 2,80.5625 27.88916,-25.62637 52.74232,-25.34648 77.28125,-22.96875 -22.8649,-9.04141 -41.78125,-10.5625 -41.78125,-10.5625 0,0 32.76525,-27.98824 80.84375,-42.0625 48.07214,14.07537 80.8125,42.0625 80.8125,42.0625 0,0 -18.8851,1.52109 -41.75,10.5625 24.53893,-2.37773 49.36084,-2.65762 77.25,22.96875 -14.33893,-33.77159 -9.4512,-57.92796 2.03125,-80.5625 -14.46877,18.43264 -22.96875,36.4375 -22.96875,36.4375 0,0 -15.82539,-40.53187 -14.71875,-89.90625 28.26316,-41.52284 65.09375,-64.125 65.09375,-64.125 0,0 -4.377,18.42899 -2.84375,42.96875 5.32159,-24.07267 12.72841,-47.76982 45.71875,-66.375 -36.54966,3.20114 -58.02155,-8.89758 -76,-26.8125 13.05939,19.45662 27.5625,33.09375 27.5625,33.09375 0,0 -43.65723,2.54028 -90.40625,-13.90625 -29.92521,-39.2984 -40.9375,-81.40625 -40.9375,-81.40625 0,0 17.46008,9.59221 40,16 -22.59375,-11.5625 -40.75,-28.25 -49,-64 z m 0,70 c 0,0 13.40651,27.80163 38.71875,55.09375 -6.24696,-2.60846 -12.51028,-5.54494 -18.65625,-8.9375 8.60975,6.72237 17.72195,12.43778 26.8125,17.28125 7.52233,7.29181 15.90201,14.33734 25.125,20.5625 -5.25272,-4.91565 -10.09089,-10.07554 -14.59375,-15.34375 33.95296,15.80855 64.8125,20 64.8125,20 0,0 -22.74608,21.15607 -40.78125,53.625 0.54957,-6.78204 1.41562,-13.66349 2.75,-20.59375 -3.75721,10.33284 -6.35803,20.82634 -8.15625,31.03125 -4.55836,9.43509 -8.5753,19.61199 -11.46875,30.375 2.94816,-6.41427 6.22591,-12.49051 9.6875,-18.28125 -4.39458,36.87205 1.0625,67.15625 1.0625,67.15625 0,0 -26.86548,-14.96585 -63.0625,-22.125 6.55821,-1.4963 13.35398,-2.71203 20.34375,-3.53125 -11.14111,-0.57468 -22.07788,0.10874 -32.46875,1.53125 -10.38171,-1.41959 -21.30738,-2.10536 -32.4375,-1.53125 6.98977,0.81922 13.78554,2.03495 20.34375,3.53125 -36.19461,7.15952 -63.0625,22.125 -63.0625,22.125 0,0 5.44372,-30.24943 1.0625,-67.09375 3.44824,5.77296 6.71825,11.82658 9.65625,18.21875 -2.88052,-10.71494 -6.87321,-20.85028 -11.40625,-30.25 -1.79876,-10.24425 -4.41492,-20.78113 -8.1875,-31.15625 1.34263,6.97309 2.23267,13.89619 2.78125,20.71875 -18.04589,-32.53774 -40.84375,-53.75 -40.84375,-53.75 0,0 30.82206,-4.1845 64.75,-19.96875 -4.54461,5.2348 -9.44146,10.38772 -14.78125,15.3125 9.59758,-6.24399 18.24762,-13.40979 25.96875,-20.875 8.89173,-4.77465 17.7978,-10.3938 26.21875,-16.96875 -5.97203,3.29655 -12.05506,6.1639 -18.125,8.71875 25.01984,-27.03897 37.9375,-54.875 37.9375,-54.875 z m 0.3125,50.59375 c -17.45604,0.24363 -33.21144,14.02537 -36.6875,31 -0.007,1.90574 3.53588,-7.11851 6.21875,-8.59375 6.5359,-6.98468 16.26304,-10.09786 25.65625,-10 -2.54417,10.62834 9.68258,20.48426 19.53125,15.75 9.77101,-3.6163 11.7555,-18.18486 3.34375,-24.28125 -4.57741,-3.60224 -10.821,-3.71161 -16.375,-3.84375 -0.56629,-0.0207 -1.1244,-0.0391 -1.6875,-0.0312 z m 36.28125,27.9375 c -1.11361,0.0216 -2.23291,0.0936 -3.34375,0.21875 -1.8147,0.582 7.86166,1.15433 10.09375,3.25 8.66253,4.05763 14.62791,12.34879 17.4375,21.3125 -10.89433,0.8647 -16.48345,15.56507 -8.9375,23.46875 6.45873,8.17528 20.92636,5.54019 24.125,-4.34375 2.00975,-5.48555 0.18851,-11.40267 -1.40625,-16.75 C 279.7334,180.04505 263.12908,168.91412 246.425,169.2375 z M 152.8,176.3 c -2.4299,0.10019 -4.83816,0.84596 -6.9375,2.375 -4.85023,3.25664 -6.86594,9.11136 -8.71875,14.375 -6.2285,17.03004 2.03797,37.23527 17.59375,46.0625 1.81022,0.59581 -5.67601,-5.55508 -6.25,-8.5625 -4.62312,-8.3744 -4.55823,-18.59677 -1.5625,-27.5 9.32195,5.70399 22.45914,-2.88914 21,-13.71875 C 167.61007,181.52353 160.0897,175.99943 152.8,176.3 z m 57.03125,3.15625 c -21.666,0 -39.25,17.584 -39.25,39.25 0,9.26431 3.21928,17.78399 8.59375,24.5 -2.11344,2.64269 -3.86909,5.58173 -5.25,8.71875 -1.33844,-0.8772 -2.87389,-1.47357 -4.5625,-1.78125 -10.03054,-2.8176 -20.19063,7.81112 -16.96875,17.6875 1.59845,5.6192 6.56653,9.33007 11,12.71875 14.27181,11.18623 36.0478,9.56665 49.25,-2.5 1.12603,-1.53751 -7.02489,3.69594 -10.0625,3.3125 -9.39314,1.80901 -19.1145,-1.39964 -26.65625,-7 4.98103,-4.25993 5.4847,-11.40137 2.78125,-16.875 l 2.875,2.625 c 0.97427,-3.6286 2.65341,-6.97876 4.84375,-9.90625 6.53703,4.86717 14.63581,7.75 23.40625,7.75 8.77698,0 16.86669,-2.90749 23.40625,-7.78125 2.16868,2.88604 3.82809,6.17731 4.8125,9.75 l 8,-7.375 c -1.416,-3.37939 -3.30592,-6.52274 -5.5625,-9.34375 5.37447,-6.71601 8.59375,-15.23569 8.59375,-24.5 0,-21.666 -17.584,-39.25 -39.25,-39.25 z m 0,10 c 5.97382,0 11.52489,1.79698 16.15625,4.875 -4.62856,3.0781 -10.1841,4.875 -16.15625,4.875 -5.97775,0 -11.52667,-1.79207 -16.15625,-4.875 4.63136,-3.07802 10.18243,-4.875 16.15625,-4.875 z M 186.3,201.3625 c 6.55646,4.92799 14.70036,7.84375 23.53125,7.84375 8.82707,0 16.97262,-2.92025 23.53125,-7.84375 3.58538,4.85529 5.71875,10.84933 5.71875,17.34375 0,6.55931 -2.16178,12.61941 -5.8125,17.5 -6.54133,-4.87477 -14.65663,-7.75 -23.4375,-7.75 -8.77623,0 -16.90143,2.87827 -23.4375,7.75 -3.65072,-4.88059 -5.8125,-10.94069 -5.8125,-17.5 0,-6.49442 2.13337,-12.48846 5.71875,-17.34375 z m 81.09375,33.28125 c -0.46413,0.31577 1.43117,8.27053 0.25,10.78125 -1.18216,9.49243 -7.21821,17.74548 -14.875,23.1875 -4.18891,-10.09392 -19.87748,-10.90025 -25.0625,-1.28125 -5.77929,8.66891 1.17388,21.63722 11.5625,21.625 5.83812,0.21624 10.9072,-3.36205 15.5,-6.53125 15.04897,-10.11657 20.24012,-31.34016 12.84375,-47.625 -0.10446,-0.14494 -0.17074,-0.18892 -0.21875,-0.15625 z m -57.5625,3.8125 c 5.88548,0 11.37555,1.75535 15.96875,4.75 -4.59327,3.0019 -10.07586,4.75 -15.96875,4.75 -5.89289,0 -11.37548,-1.7481 -15.96875,-4.75 4.59119,-2.99944 10.07907,-4.75 15.96875,-4.75 z"
     id="path2417"
     style="fill:#f57d87;fill-opacity:1;stroke:none" />
</svg>
