<?xml version="1.0" encoding="UTF-8" standalone="no"?>
<!-- Created with Inkscape (http://www.inkscape.org/) -->

<svg
   xmlns:dc="http://purl.org/dc/elements/1.1/"
   xmlns:cc="http://creativecommons.org/ns#"
   xmlns:rdf="http://www.w3.org/1999/02/22-rdf-syntax-ns#"
   xmlns:svg="http://www.w3.org/2000/svg"
   xmlns="http://www.w3.org/2000/svg"
   version="1.1"
   width="498.6875"
   height="498.6875"
   id="svg2987">
  <defs
     id="defs2989" />
  <metadata
     id="metadata2992">
    <rdf:RDF>
      <cc:Work
         rdf:about="">
        <dc:format>image/svg+xml</dc:format>
        <dc:type
           rdf:resource="http://purl.org/dc/dcmitype/StillImage" />
        <dc:title></dc:title>
      </cc:Work>
    </rdf:RDF>
  </metadata>
  <rect
     width="499"
     height="499"
     x="3.5253906e-006"
     y="-0.31250015"
     id="rect3019"
     style="fill:#f1a598;fill-opacity:1;fill-rule:nonzero;stroke:none" />
  <path
     d="m 226.35441,29.54973 52.02501,2.738158 44.72325,49.286848 -5.47632,30.119744 76.66843,74.84299 21.90527,-9.1272 49.28684,51.11229 -1.82544,48.37413 -48.37412,45.63597 -26.46887,-3.65088 -72.10483,66.62851 1.82544,35.59606 -47.46141,49.28685 -46.54869,-7.30176 -47.46141,-42.89781 0.91272,-36.50877 -65.71579,-69.36668 -29.207025,9.1272 -52.025005,-52.93773 3.650877,-45.63597 42.897812,-46.54869 32.857901,2.73816 67.54123,-66.62852 0.91272,-37.421491 z"
     id="path3034"
     style="fill:#ffffff;stroke:none" />
  <g
     transform="translate(-200.78125,-50.68745)"
     id="g2493"
     style="fill:#000000">
    <path
       d="M 433.5,60.6875 355.90625,138.28125 372.5,154.875 l -67.34375,67.375 -16.625,-16.625 -44.875,44.90625 -32.875,32.875 0,0.0312 16.625,16.59375 -16.625,16.59375 77.75,77.8125 16.625,-16.625 67.34375,67.375 -16.59375,16.59375 77.59375,77.59375 16.625,-16.625 16.625,16.625 77.78125,-77.75 -16.625,-16.625 67.375,-67.34375 16.59375,16.59375 77.59375,-77.59375 -16.625,-16.625 16.625,-16.625 -77.59375,-77.59375 -16.59375,16.59375 -67.375,-67.34375 16.625,-16.625 -16.25,-16.25 -0.0312,0 -61.5,-61.5 -16.625,16.625 -16.625,-16.625 z m 0.0312,32.53125 16.59375,16.59375 16.59375,-16.59375 45.28125,45.25 -16.625,16.59375 99.875,99.875 16.625,-16.625 45.09375,45.09375 -16.625,16.625 16.625,16.625 L 611.875,361.75 595.25,345.125 495.375,445 512,461.59375 466.71875,506.84375 450.125,490.25 l -16.59375,16.59375 -45.125,-45.0625 16.625,-16.625 -99.875,-99.875 -16.59375,16.625 -45.25,-45.28125 16.59375,-16.59375 -16.59375,-16.59375 16.59375,-16.625 28.65625,-28.65625 16.59375,16.625 99.875,-99.875 -16.625,-16.625 45.125,-45.0625 z"
       id="rect2449"
       style="fill:#000000;stroke:none" />
    <path
       d="M 450.03125,200.03125 410,240 l -27,0 c 0,0 -4.25,-21 -9,-28 l -24,0 c 0,0 17,41.59731 17,88 0,45.90272 -17,88 -17,88 l 24,0 c 3.25,-4.375 8.99999,-28 9,-28 l 26.9375,0 40.0625,40 39.96875,-40 27,0 c 0,0 5.03125,22.625 9.03125,28 l 25,0 c 0,0 -18,-40.91014 -18,-88 0,-47.58941 18,-88 18,-88 l -25,0 c -5,11.5 -9,28 -9,28 l -27,0 -39.96875,-39.96875 z M 450,234 l 6,6 -12,0 6,-6 z m -62,30 124,0 c 0,0 -2,25.2 -2,36 0,10.8 2,36 2,36 l -124,0 c 0,0 2,-25.2 2,-36 0,-10.8 -2,-36 -2,-36 z m 56,96 12,0 -6,6 -6,-6 z"
       id="path2474"
       style="fill:#000000;stroke:none" />
  </g>
</svg>
