<?xml version="1.0" encoding="UTF-8" standalone="no"?>
<!-- Created with Inkscape (http://www.inkscape.org/) -->

<svg
   xmlns:svg="http://www.w3.org/2000/svg"
   xmlns="http://www.w3.org/2000/svg"
   version="1.0"
   width="420"
   height="420"
   id="svg2">
  <defs
     id="defs5" />
  <path
     d="M 210,18 C 107.03472,18 22.95828,99.19186 18.25,201 l 16,0 C 38.96668,108.04952 115.884,34 210,34 c 97.15196,-1e-5 176,78.848 176,176 0,13.75184 -1.63704,27.15336 -4.625,40 l 16.5,0 C 400.6182,237.08464 402,223.72908 402,210 402,104.016 315.98396,17.99999 210,18 z m -6.75,62 0,34 -102,0 0,16 29.5,0 c 0,0 12.40376,46.8928 12,80 -0.3976,32.6074 -14.5,80 -14.5,80 l -75,0 C 40.44628,265.7702 34.16476,240.25432 34,211 l -16,0 c 0.54168,105.52228 86.35112,191 192,191 88.69328,0 166.60888,-62.48024 185.375,-144 l -108.625,0 c 0,0 10.7342,-30.7394 12.75,-64 2.04604,-33.75936 -4.5,-64 -4.5,-64 l 26.25,0 0,-16 -102,0 0,-34 -16,0 z m -58.25,50 135.75,0 c 0,0 7.587,29.5642 5.5,64 -2.05388,33.88896 -14.75,64 -14.75,64 l -70.25,0 0,16 173.375,0 C 347.77604,337.32048 285.32048,386 210,386 147.42824,386 94.46184,354.24232 61.25,306 l 180,0 0,-16 -98.25,0 c 0,0 13.75,-35.89064 13.75,-80 0,-39.11836 -11.75,-80 -11.75,-80 z"
     id="path2413"
     style="fill:#000000;fill-opacity:1;stroke:none" />
</svg>
