<?xml version="1.0" encoding="utf-8"?>
<!-- Generator: Adobe Illustrator 15.1.0, SVG Export Plug-In . SVG Version: 6.00 Build 0)  -->
<!DOCTYPE svg PUBLIC "-//W3C//DTD SVG 1.1//EN" "http://www.w3.org/Graphics/SVG/1.1/DTD/svg11.dtd" [
	<!ENTITY st0 "fill:#006600;">
]>
<svg version="1.1" id="_x28__x5E__x5F__x5E__x29_" xmlns="http://www.w3.org/2000/svg" xmlns:xlink="http://www.w3.org/1999/xlink"
	 x="0px" y="0px" width="200px" height="202px" viewBox="0 0 200 202" style="enable-background:new 0 0 200 202;"
	 xml:space="preserve">
<g>
	<path style="&st0;" d="M93.49,179.459c-27.011-4.64-38.781-22.889-38.781-22.889s-0.554,14.128,3.186,23.685
		c0,0-12.881,5.263-37.812,9.833c0,0,30.887,0.277,41.722,2.141C71.322,193.865,93.49,202,93.49,202V179.459z"/>
	<path style="&st0;" d="M142.105,180.255c3.739-9.557,3.186-23.685,3.186-23.685s-11.771,18.249-38.781,22.889V202
		c0,0,22.168-8.135,31.686-9.771c10.835-1.863,41.722-2.141,41.722-2.141C154.986,185.518,142.105,180.255,142.105,180.255z"/>
	<g>
		<g>
			<path style="&st0;" d="M93.49,47.098V32.771c-37.986,3.298-67.791,35.172-67.791,74.014c0,20.348,8.183,38.783,21.434,52.201
				v-6.512h0.001c-8.289-11.04-13.201-24.76-13.201-39.629C33.933,78.555,60.058,50.367,93.49,47.098z"/>
			<path style="&st0;" d="M174.301,106.785c0-38.842-29.805-70.716-67.791-74.014v14.326c33.433,3.27,59.558,31.457,59.558,65.748
				c0,14.869-4.912,28.589-13.2,39.629l0,0v6.512C166.118,145.568,174.301,127.133,174.301,106.785z"/>
		</g>
	</g>
	<g>
		<g>
			<path style="&st0;" d="M106.51,0v19.26c46.069,3.334,82.41,41.762,82.41,88.682c0,28.282-13.206,53.479-33.786,69.765h0.002
				l13.289-5.005C187.857,154.458,200,128.541,200,99.783C200,46.742,158.703,3.355,106.51,0z"/>
			<path style="&st0;" d="M11.08,107.941c0-46.92,36.341-85.348,82.41-88.682V0C41.297,3.355,0,46.743,0,99.783
				c0,28.758,12.144,54.676,31.577,72.918l13.287,5.005h0.003C24.286,161.42,11.08,136.225,11.08,107.941z"/>
		</g>
	</g>
</g>
</svg>
