<?xml version="1.0" encoding="UTF-8" standalone="no"?>
<!-- Created with Inkscape (http://www.inkscape.org/) -->

<svg
   xmlns:svg="http://www.w3.org/2000/svg"
   xmlns="http://www.w3.org/2000/svg"
   version="1.0"
   width="500"
   height="480"
   id="svg2">
  <defs
     id="defs5" />
  <path
     d="m 249.94375,23.0312 c 0,0 -8.27875,5.937736 -15.9375,13.8125 -31.58268,29.72619 -55.3777,67.60221 -68,110.28125 -2.27364,-0.0612 -4.55562,-0.0937 -6.84375,-0.0937 -43.34029,0 -84.09354,11.10302 -119.5625,30.65625 -11.62375,6.26114 -18,10.96875 -18,10.96875 0,0 2.06418,7.16339 8.15625,19.4375 18.81421,39.84852 47.93647,73.88973 83.90625,98.6875 C 104.57349,332.57164 99.6,360.30174 99.6,389.1875 c 0,16.16924 1.57383,31.97171 4.53125,47.28125 2.55353,14.30052 4.84375,20.5 4.84375,20.5 0,0 8.95693,-0.3079 21.03125,-1.71875 44.79378,-5.67024 85.86722,-23.3133 119.9375,-49.59375 34.17933,26.35757 75.41284,44.01426 120.375,49.625 11.31787,1.14771 21.0625,1.71875 21.0625,1.71875 0,0 2.90707,-10.75901 4.78125,-20.53125 2.82889,-14.98709 4.3125,-30.44447 4.3125,-46.25 -1e-5,-29.21584 -5.08333,-57.24596 -14.375,-83.28125 36.81131,-25.20656 65.60349,-59.59643 84.15625,-98.90625 4.03616,-8.55585 8.21875,-19.4375 8.21875,-19.4375 0,0 -6.48428,-5.00568 -18.0625,-10.875 -38.20199,-20.94485 -81.8305,-31.8614 -126.53125,-30.5625 -12.61962,-42.68097 -36.41851,-80.58743 -68,-110.3125 -12.21329,-11.392442 -15.9375,-13.8125 -15.9375,-13.8125 z m -0.0312,27.21875 c 28.75125,26.49007 50.68886,60.29116 62.8125,98.4375 3.73078,13.1712 5.375,20.1875 5.375,20.1875 0,0 5.92058,-0.92973 20.875,-1.15625 40.22369,-0.37166 79.35323,10.03223 113.59375,29.28125 -16.34544,35.6095 -41.79959,66.9467 -74.4375,90.28125 -7.4677,5.51688 -17.59375,11.375 -17.59375,11.375 0,0 4.1891,9.66878 7.5625,19.5 7.57332,22.64941 11.6875,46.87624 11.6875,72.0625 -1e-5,15.35473 -1.53324,30.33911 -4.4375,44.84375 -40.59387,-4.6205 -77.9222,-19.96517 -109.15625,-43.09375 -8.32638,-5.82193 -16.21875,-13.1875 -16.21875,-13.1875 0,0 -8.18504,7.26879 -16.28125,13.21875 -31.14511,23.05132 -68.36345,38.36204 -108.8125,43.03125 -3.03639,-14.81385 -4.625,-30.13695 -4.625,-45.84375 0,-24.84235 4.03043,-48.74349 11.40625,-71.125 3.14104,-9.52141 7.4375,-19.53125 7.4375,-19.53125 0,0 -10.21596,-5.85734 -17.53125,-11.4375 -31.8996,-22.96734 -57.63296,-53.98149 -74.1875,-90.0625 33.01951,-18.67352 71.1664,-29.3125 111.78125,-29.3125 0.56466,0 1.12378,-0.004 1.6875,0 0,0 12.68611,0.35727 20.9375,1.09375 0,0 2.54459,-11.60273 5.40625,-20.21875 12.11837,-38.10912 33.99088,-71.87473 62.71875,-98.34375 z m 0.0625,110.4375 c -52.67783,0 -96.06677,39.98673 -101.4375,91.25 l -15.8125,0 0,21 15.75,0 c 5.13992,51.50304 48.65097,91.75002 101.5,91.75 50.08002,0 91.77044,-36.13736 100.375,-83.75 l -27.09375,0 c -8.16494,32.87364 -37.89356,57.25 -73.28125,57.25 -38.199,10e-6 -69.77399,-28.41755 -74.78125,-65.25 l 191.53125,0 0,-21 -191.46875,0 c 0.33826,-2.36983 0.79049,-4.70626 1.34375,-7 l 129.125,0 0,-21 -120.53125,0 c 1.45399,-2.42344 3.04178,-4.76291 4.75,-7 l 102.78125,0 0,-16.46875 c 15.07756,10.39257 26.2017,26.13033 30.625,44.46875 l 27.09375,0 c -8.40228,-47.85911 -50.21371,-84.25 -100.46875,-84.25 z m 0,26.5 c 12.7435,0 24.75263,3.168 35.28125,8.75 l -70.53125,0 c 10.52787,-5.57587 22.51457,-8.75 35.25,-8.75 z m -19.21875,93.75 c -22.63659,13.79569 -36.17169,18.07633 -41.125,19.3125 9.06995,14.57433 23.27292,25.60916 40.09375,30.5625 l 20.5,-14.875 19.8125,14.78125 c 16.78022,-5.02637 30.93098,-16.11125 39.9375,-30.71875 -5.91739,-1.57751 -21.14316,-6.45392 -40.25,-19.0625 l -38.96875,0 z"
     id="path2455"
     style="fill:#000000;fill-opacity:1;stroke:none" />
</svg>
