<?xml version="1.0" encoding="UTF-8" standalone="no"?>
<!-- Created with Inkscape (http://www.inkscape.org/) -->

<svg
   xmlns:svg="http://www.w3.org/2000/svg"
   xmlns="http://www.w3.org/2000/svg"
   version="1.0"
   width="480"
   height="420"
   id="svg2">
  <defs
     id="defs5" />
  <g
     transform="translate(-201,-104.975)"
     id="g2467">
    <path
       d="m 440.90625,126.0625 c -44.28737,0 -85.02051,15.26638 -117.25,40.8125 l -9.46875,-9.46875 c -11.57235,9.31952 -22.10046,19.89004 -31.375,31.5 l 9.4375,9.4375 c -0.005,0.006 0.005,0.0249 0,0.0312 -14.94978,19.01573 -26.32991,40.96926 -33.125,64.84375 l 35.78125,0 c 5.19995,-14.66223 12.53984,-28.30962 21.65625,-40.5625 l 9.21875,9.21875 c 8.73448,-12.07007 19.32497,-22.69925 31.34375,-31.5 l -9.21875,-9.21875 c 25.90084,-19.48521 58.11565,-31.03125 93,-31.03125 35.10997,0 67.51383,11.69189 93.5,31.40625 l -9.21875,9.2188 c 11.97868,8.85453 22.50582,19.54379 31.1875,31.65625 l 9.21875,-9.21875 c 8.93895,12.11646 16.17717,25.58417 21.3125,40.03125 l 35.75,0 c -6.74081,-23.66729 -17.9939,-45.44148 -32.75,-64.34375 l 9.46875,-9.46875 c -9.23585,-11.63529 -19.7121,-22.24141 -31.25,-31.59375 l -9.46875,9.46875 c -32.30232,-25.78928 -73.22953,-41.21875 -117.75,-41.21875 z m 188.625,178.03125 -34.46875,25.875 C 587.64744,407.10053 523.57459,467.79662 445,469.84375 l 0,34.03125 C 547.41041,501.69404 629.84377,417.93064 629.84375,315 c 0,-3.66201 -0.10649,-7.29563 -0.3125,-10.90625 z M 252.25,304.1875 c -0.20198,3.57739 -0.3125,7.18478 -0.3125,10.8125 0,102.99331 82.56466,186.79214 185.0625,188.875 l 0,-34.03125 C 358.37262,467.88965 294.24615,407.21034 286.78125,330.0625 L 252.25,304.1875 z"
       id="path2386"
       style="fill:#000080;stroke:none" />
    <path
       d="m 440.59375,205.0625 c -11.51248,0 -21.0315,8.55499 -22.53125,19.65625 L 388,236 l 31,0 c 0.34092,0.854 0.8962,2.22245 1.625,2.65625 L 381.75,334 511.7,334 482.5,404.875 661,271 482,271 462.9375,223.5 c -4.20542,-12.83773 -11.26192,-18.4375 -22.34375,-18.4375 z M 221,271 l 84,63 68.75,0 25.65625,-63 L 221,271 z m 93.34375,70 85.15625,63.875 -26,-63.875 -59.15625,0 z m 67.15625,0 28.5,70.5 -45,33.5 65,0 11,-9 11,9 65,0 -45,-33.5 28.5,-70.5 -119,0 z"
       id="path2402"
       style="fill:#000080;stroke:none" />
  </g>
</svg>
