<?xml version="1.0" encoding="UTF-8" standalone="no"?>
<!-- Created with Inkscape (http://www.inkscape.org/) -->

<svg
   xmlns:svg="http://www.w3.org/2000/svg"
   xmlns="http://www.w3.org/2000/svg"
   version="1.0"
   width="520"
   height="520"
   id="svg2">
  <defs
     id="defs5" />
  <path
     d="m 259.55,20.765969 c -25.6322,41.5163 -68.2707,71.456061 -118.15625,80.093751 61.1394,40.23632 101.53125,109.45008 101.53125,188.0625 0,49.20588 -19.13493,101.35191 -43.69026,131.36765 43.87134,14.00777 60.44026,52.59755 60.44026,78.91013 0,-26.18116 15.78654,-64.86563 60.0471,-78.66243 C 292.91648,383.50066 276.425,338.10339 276.425,288.92222 276.42499,210.33467 316.78681,141.1329 377.89375,100.89097 327.91442,92.30891 285.22583,62.344239 259.55,20.765969 z M 120.58125,113.20347 C 99.24617,148.86628 62.64984,174.3353 19.8,180.51597 l 0,0.25 c 0.30203,-0.003 0.60293,0 0.90625,0 99.08603,0 179.5,80.41397 179.5,179.5 0,7.35696 -0.44882,14.6233 -1.3125,21.75 14.39107,-27.90216 22.53125,-59.55635 22.53125,-93.09375 0,-74.89872 -40.52956,-140.3887 -100.84375,-175.71875 z m 277.9375,0.15625 c -60.16573,35.36704 -100.59374,100.77516 -100.59375,175.5625 0,33.22341 7.98501,64.60218 22.125,92.3125 -0.80271,-6.87565 -1.21875,-13.88021 -1.21875,-20.96875 0,-99.08603 80.41397,-179.5 179.5,-179.5 0.95188,0 1.89534,0.0165 2.84375,0.0312 -43.63114,-5.67179 -80.98561,-31.31015 -102.65625,-67.4375 z"
     id="rect2404"
     style="fill:#007524;stroke:none" />
</svg>
