<?xml version="1.0" encoding="UTF-8" standalone="no"?>
<svg
   xmlns:dc="http://purl.org/dc/elements/1.1/"
   xmlns:cc="http://creativecommons.org/ns#"
   xmlns:rdf="http://www.w3.org/1999/02/22-rdf-syntax-ns#"
   xmlns:svg="http://www.w3.org/2000/svg"
   xmlns="http://www.w3.org/2000/svg"
   xmlns:sodipodi="http://sodipodi.sourceforge.net/DTD/sodipodi-0.dtd"
   xmlns:inkscape="http://www.inkscape.org/namespaces/inkscape"
   version="1.1"
   width="499.99997"
   height="577.35675"
   viewBox="-250 -250 499.99997 577.35675"
   id="svg2"
   inkscape:version="0.48.4 r"
   sodipodi:docname="Tondabayashi_Osaka_chapter.svg">
  <metadata
     id="metadata25">
    <rdf:RDF>
      <cc:Work
         rdf:about="">
        <dc:format>image/svg+xml</dc:format>
        <dc:type
           rdf:resource="http://purl.org/dc/dcmitype/StillImage" />
      </cc:Work>
    </rdf:RDF>
  </metadata>
  <defs
     id="defs23" />
  <sodipodi:namedview
     pagecolor="#ffffff"
     bordercolor="#666666"
     borderopacity="1"
     objecttolerance="10"
     gridtolerance="10"
     guidetolerance="10"
     inkscape:pageopacity="0"
     inkscape:pageshadow="2"
     inkscape:window-width="1280"
     inkscape:window-height="961"
     id="namedview21"
     showgrid="false"
     inkscape:zoom="1.48"
     inkscape:cx="207.84374"
     inkscape:cy="77.83783"
     inkscape:window-x="-8"
     inkscape:window-y="-8"
     inkscape:window-maximized="1"
     inkscape:current-layer="svg2"
     fit-margin-top="0"
     fit-margin-left="0"
     fit-margin-right="0"
     fit-margin-bottom="0" />
  <title
     id="title4">Tondabayashi, Osaka Chapter</title>
  <g
     id="g2987"
     transform="matrix(1.2028266,0,0,1.2028266,-8.85625e-6,38.678384)">
    <path
       id="S01"
       transform="translate(-250,-250)"
       d="m 250,10 -62,35.78125 0,96.84375 0,143.15625 0,168.4375 62,35.78125 62,-35.78125 0,-96.84375 83.84375,48.40625 62,-35.78125 0,-71.59375 L 312,214.21875 312,45.78125 250,10 z"
       style="fill:#000000;stroke:none"
       inkscape:connector-curvature="0" />
    <path
       transform="translate(-250,-250)"
       id="path3044"
       d="m 180,138 -75.84375,-43.78125 -62,35.78125 0,71.59375 L 180,281.1875 180,138 z"
       style="fill:#000000;stroke:none"
       inkscape:connector-curvature="0" />
    <path
       transform="translate(-250,-250)"
       id="path3040"
       d="m 382,245.375 75.84375,-43.78125 0,-71.59375 -62,-35.78125 L 320,138 l 0,71.59375 62,35.78125 z"
       style="fill:#000000;stroke:none"
       inkscape:connector-curvature="0" />
    <path
       transform="translate(-250,-250)"
       id="path3051"
       d="m 180,362 0,-71.59375 -62,-35.78125 -75.84375,43.78125 0,71.59375 62,35.78125 L 180,362 z"
       style="fill:#000000;stroke:none"
       inkscape:connector-curvature="0" />
    <g
       id="g13"
       style="fill:#000000;stroke:#ffffff;stroke-width:8;stroke-linecap:butt;stroke-linejoin:miter" />
  </g>
</svg>
