<?xml version="1.0" encoding="UTF-8" standalone="no"?>
<svg
   height="495.88889"
   width="500"
   version="1.1"
   id="svg4"
   sodipodi:docname="Emblem_of_Fujiidera,_Osaka.svg"
   inkscape:version="1.2.1 (9c6d41e410, 2022-07-14)"
   xmlns:inkscape="http://www.inkscape.org/namespaces/inkscape"
   xmlns:sodipodi="http://sodipodi.sourceforge.net/DTD/sodipodi-0.dtd"
   xmlns="http://www.w3.org/2000/svg"
   xmlns:svg="http://www.w3.org/2000/svg">
  <defs
     id="defs8" />
  <sodipodi:namedview
     id="namedview6"
     pagecolor="#ffffff"
     bordercolor="#666666"
     borderopacity="1.0"
     inkscape:showpageshadow="2"
     inkscape:pageopacity="0.0"
     inkscape:pagecheckerboard="0"
     inkscape:deskcolor="#d1d1d1"
     showgrid="false"
     inkscape:zoom="1.682"
     inkscape:cx="185.49346"
     inkscape:cy="128.71581"
     inkscape:window-width="1920"
     inkscape:window-height="996"
     inkscape:window-x="1912"
     inkscape:window-y="-8"
     inkscape:window-maximized="1"
     inkscape:current-layer="svg4" />
  <path
     d="m 258.88889,195.44444 a 51.555556,51.555556 0 1 1 -17.77778,0 L 206.66667,0.111111 A 250,250 0 0 0 0,246.11111 250,250 0 0 0 244,495.88889 V 444.33333 A 198.44444,198.44444 0 0 1 51.555556,246.11111 198.44444,198.44444 0 0 1 166,66.555556 l 17.77778,100.888884 a 103,103 0 1 0 132.44444,-0.11111 L 333.88889,66.666667 A 198.44444,198.44444 0 0 1 448.44444,246.11111 198.44444,198.44444 0 0 1 256,444.44444 v 51.33334 A 250,250 0 0 0 500,246.11111 250,250 0 0 0 293.44444,0 Z"
     fill="#8542a3"
     id="path2"
     style="stroke-width:1.11111" />
</svg>
