<?xml version="1.0" encoding="utf-8"?>
<!-- Generator: Adobe Illustrator 15.1.0, SVG Export Plug-In . SVG Version: 6.00 Build 0)  -->
<!DOCTYPE svg PUBLIC "-//W3C//DTD SVG 1.1//EN" "http://www.w3.org/Graphics/SVG/1.1/DTD/svg11.dtd">
<svg version="1.1" id="_x28__x5E__x5F__x5E__x29_" xmlns="http://www.w3.org/2000/svg" xmlns:xlink="http://www.w3.org/1999/xlink"
	 x="0px" y="0px" width="200px" height="175.522px" viewBox="0 0 200 175.522" style="enable-background:new 0 0 200 175.522;"
	 xml:space="preserve">
<path d="M184.952,58.628L200,16.317h-79.047L102.432,0v15.46l0.008,0.004c-11.888,0.809-23.063,4.197-32.973,9.62v64.518
	c0,0-9.738-28.197-15.042-48.672C49.28,21.073,34.733,22.788,0,22.788c0,0,7.523,3.982,12.112,22.178l17.164,66.745l0.016-0.008
	c6.979,34.224,35.721,60.523,71.148,63.816v-43.768c-16.797-3.477-29.424-18.352-29.424-36.177
	c0-20.405,16.541-36.947,36.945-36.947s36.947,16.542,36.947,36.947c0,17.825-12.629,32.7-29.424,36.177v43.77
	c40.824-3.795,72.785-38.13,72.785-79.947c0-13.326-3.267-25.884-9.009-36.946H184.952z"/>
</svg>
