<?xml version="1.0" encoding="utf-8"?>
<!-- Generator: Adobe Illustrator 15.1.0, SVG Export Plug-In . SVG Version: 6.00 Build 0)  -->
<!DOCTYPE svg PUBLIC "-//W3C//DTD SVG 1.1//EN" "http://www.w3.org/Graphics/SVG/1.1/DTD/svg11.dtd" [
	<!ENTITY st0 "fill:#538ED1;">
]>
<svg version="1.1" id="_x28__x5E__x5F__x5E__x29_" xmlns="http://www.w3.org/2000/svg" xmlns:xlink="http://www.w3.org/1999/xlink"
	 x="0px" y="0px" width="200px" height="199.668px" viewBox="0 0 200 199.668" style="enable-background:new 0 0 200 199.668;"
	 xml:space="preserve">
<path style="&st0;" d="M197.979,81.119h-11.229C185.902,44.517,155.154,0,101.217,0C56.876,0,35.742,24.451,35.742,24.451
	c60.339-37.029,109.505,8.182,114.518,56.668H55.456c8.597-18.942,26.627-34.781,56.587-41.544c0,0-11.603-12.846-36.881-12.846
	c-23.051,0-49.518,10.863-58.653,54.39H2.021C0.904,81.119,0,89.468,0,99.767s0.904,18.648,2.021,18.648h11.229
	c0.849,36.602,31.596,81.118,85.534,81.118c44.34,0,65.475-24.448,65.475-24.448c-60.339,37.027-109.505-8.183-114.518-56.67h94.804
	c-8.597,18.942-26.627,34.781-56.588,41.544c0,0,11.604,12.846,36.881,12.846c23.052,0,49.519-10.863,58.654-54.39h14.488
	c1.116,0,2.021-8.35,2.021-18.648S199.096,81.119,197.979,81.119z"/>
</svg>
