<svg xmlns="http://www.w3.org/2000/svg" xmlns:xlink="http://www.w3.org/1999/xlink" width="500" height="332" viewBox="-50 0 100 66.4" >
<path d="M-50 0-11.602603 6.911531A34.474628 34.474628 0 0 1 0 0 34.474628 34.474628 0 0 1 11.602603 6.911531L50 0 43.443868 11.225735 0 23-43.443868 11.225735z"/>
<path id="a" d="M42.687391 12.521012l-6.556132 11.225735-12.302971 5.534357a35.474628 35.474628 0 0 0-2.782136-10.89483zM20.070505 18.650697A34.474628 34.474628 0 0 1-4.692343 66.295796 37.474628 37.474628 0 0 1-16.421545 57.494701 25.474628 25.474628 0 0 0 11.251765 21.040774z"/>
<use xlink:href="#a" transform="scale(-1 1)"/>
</svg>