<svg xmlns="http://www.w3.org/2000/svg" width="380" height="280"><style><![CDATA[.B{stroke-linecap:round}.C{stroke-miterlimit:10}.D{stroke-width:9}.E{stroke-linejoin:round}]]></style><g fill="none" stroke="#6d94bd" stroke-width="8" class="C E"><path d="M377.5 270.5h-303V223H317"/><path d="M365.167 258.5H94.833v-47.666h191s13.333 1.166 13.333-13.001c0-11.958-13-11.107-13-11.107H11.5"/><path d="M349.5 246.75H94.833m238.334-12.25H94.833M3.5 199.083h267.469s11.333.998 11.333-12.668-13-11.999-13-11.999H20.5"/></g><g fill="#6e93c0"><circle cx="191.854" cy="149.288" r="4.312"/><circle cx="191.847" cy="163.712" r="4.312"/><circle cx="206.295" cy="160.806" r="4.311"/><circle cx="178.132" cy="160.806" r="4.311"/></g><g fill="none" stroke="#6d94bd" class="C B"><g class="E"><path d="M84.167 119.5l83.1 36.648M65.918 105.12c-2.336-3.046-10.403-15.457.582-29.62 12.667-16.333 32-7.333 35.667-3.333l70.901 74.298M96.5 57.833s-2.667-12 8.333-20.333 29.468-10.666 38.067 5.667l39.394 97.013" class="D"/><path stroke-width="8" d="M191.854 43.167v95.667"/><path d="M210.606 146.465l71.695-75.631s17.319-9.743 30.532 5.333c13 14.833 6.333 28 6.333 28m-36.864-33.334s6.864-21-4.802-32-26.333-5.667-26.333-5.667" class="D"/></g><path d="M142.901 43.167s-5.647-29.195 22.933-32.667c17.833-2.167 26.02 15.75 26.02 15.75s6.646-15.375 27.021-15.375c21.17 0 23.875 25.292 17.625 40.479l-33.445 89.437" class="D"/><path d="M182.443 140.468c2.909-1.06 6.076-1.634 9.391-1.634 14.175 0 25.666 10.491 25.666 24.666h97.667s19.358 2.5 22-18.299c2.333-18.368-5.334-32.034-23.667-30.034l-97.49 39.823M58.5 114.5c-12.667 8-14.667 13.667-14.667 24.334 0 25.865 21 24.666 21 24.666h101.334c0-6.767 2.619-12.693 6.897-17.04" class="E D"/></g></svg>