<svg xmlns="http://www.w3.org/2000/svg" width="635.332" height="481.625" fill="#178d65" xmlns:v="https://vecta.io/nano"><path d="M390.332 328l163.057-188.901C508.599 61.525 420.926 2.667 321.165 2.667c-100.504 0-189.216 58.458-233.988 137.001L244.333 328s71.332-18.667 145.999 0zm90.431-191.258L376 260 321.247 60.713c65.898.499 125.203 32.111 159.516 76.029zM318.506 60.711L262.667 260 159.313 135.853c35.649-45.466 96.797-74.782 159.193-75.142zm313.826 418.914s-63.587-79.715-173.25-118.415l123.113-143.129c-3.525-21.261-10.299-42.16-19.88-62.078L399 344.667c-91.334-17-158.667-1-158.667-1L79.106 155.03c-9.551 19.831-16.326 40.72-19.887 62.1l120.213 142.631C67.204 397.881 2 479.625 2 479.625h79.667s56.533-50.986 137.117-73.172l61.671 73.172h76.773l35.66-41.458h-72.184l-37.206-43.5s6.333-1.847 37.206-1.847c11.498 0 32.626.847 35.293 2.681l-21.667 25.5h73.321l11.611-13.499c78.601 22.7 133.4 72.123 133.4 72.123h79.67z"/></svg>