<?xml version="1.0" encoding="UTF-8" standalone="no"?>
<!DOCTYPE svg PUBLIC "-//W3C//DTD SVG 1.1//EN" "http://www.w3.org/Graphics/SVG/1.1/DTD/svg11.dtd">
<svg xmlns="http://www.w3.org/2000/svg" version="1.1" viewBox="0.00 0.00 324.00 216.00">
<g stroke-width="2.00" fill="none" stroke-linecap="butt">
<path stroke="#80c08b" vector-effect="non-scaling-stroke" d="
  M 233.75 99.74
  C 229.10 67.09 204.84 42.12 172.22 36.99
  Q 171.54 36.88 171.51 36.19
  L 171.37 33.25
  A 0.62 0.62 0.0 0 0 170.75 32.66
  L 152.30 32.72
  A 0.73 0.73 0.0 0 0 151.57 33.45
  L 151.57 36.02
  A 0.90 0.90 0.0 0 1 150.81 36.91
  C 118.05 42.02 93.39 66.92 88.93 100.04
  A 0.92 0.91 -83.9 0 1 87.96 100.83
  L 83.23 100.50
  A 0.52 0.51 1.5 0 0 82.67 101.02
  L 82.85 119.22
  A 0.92 0.91 -3.2 0 0 83.86 120.12
  L 88.48 119.66
  Q 89.20 119.59 89.33 120.30
  C 94.90 152.04 119.00 176.26 151.22 180.80
  Q 151.89 180.89 151.84 181.57
  L 151.45 186.70
  A 0.75 0.75 0.0 0 0 152.20 187.51
  L 171.03 187.53
  Q 172.33 187.53 172.28 186.22
  L 172.08 181.42
  A 0.76 0.76 0.0 0 1 172.70 180.64
  C 185.92 178.32 197.65 173.33 207.97 164.74
  C 221.52 153.46 230.82 137.49 233.51 119.77
  Q 233.63 118.99 234.42 119.05
  L 239.06 119.39
  Q 239.81 119.45 239.81 118.69
  L 239.77 100.88
  Q 239.77 100.23 239.12 100.25
  L 234.55 100.41
  Q 233.85 100.43 233.75 99.74"
/>
<path stroke="#80c08b" vector-effect="non-scaling-stroke" d="
  M 137.24 92.26
  L 142.74 98.27
  Q 142.92 98.46 143.09 98.26
  L 147.70 93.02
  A 0.27 0.27 0.0 0 0 147.69 92.65
  L 142.45 87.32
  Q 141.94 86.80 142.42 86.25
  Q 161.38 64.73 160.51 35.49
  Q 160.47 34.24 159.22 34.26
  L 154.46 34.33
  Q 153.19 34.35 153.25 35.62
  C 154.43 59.65 143.48 80.99 123.21 93.51
  Q 105.96 104.16 85.35 102.38
  Q 84.41 102.30 84.43 103.24
  L 84.50 108.29
  Q 84.52 109.29 85.52 109.35
  Q 112.06 110.76 133.11 94.84
  Q 134.78 93.58 136.23 92.22
  A 0.71 0.71 0.0 0 1 137.24 92.26"
/>
<path stroke="#80c08b" vector-effect="non-scaling-stroke" d="
  M 185.63 91.82
  Q 186.27 91.11 187.01 91.71
  Q 209.07 109.79 237.20 108.49
  Q 238.14 108.44 238.15 107.49
  L 238.15 102.77
  Q 238.15 101.95 237.33 101.99
  C 212.02 103.29 189.12 90.74 176.96 68.57
  Q 168.92 53.90 169.82 35.17
  Q 169.86 34.28 168.97 34.29
  L 163.00 34.38
  Q 162.09 34.39 162.13 35.29
  Q 162.42 43.52 163.27 49.32
  Q 166.20 69.26 180.78 85.76
  A 0.71 0.70 -42.9 0 1 180.74 86.73
  L 175.45 91.90
  A 0.57 0.57 0.0 0 0 175.43 92.69
  L 179.89 97.47
  Q 180.23 97.84 180.57 97.47
  L 185.63 91.82"
/>
<path stroke="#80c08b" vector-effect="non-scaling-stroke" d="
  M 100.63 79.58
  Q 116.12 49.30 150.82 42.56
  Q 151.56 42.42 151.59 41.66
  L 151.66 39.25
  Q 151.69 38.37 150.82 38.51
  C 118.91 43.80 95.24 67.84 90.76 99.91
  Q 90.59 101.09 91.78 101.02
  L 93.15 100.93
  A 1.37 1.36 -87.1 0 0 94.42 99.77
  Q 96.21 88.22 100.63 79.58"
/>
<path stroke="#80c08b" vector-effect="non-scaling-stroke" d="
  M 221.55 78.90
  Q 226.30 87.96 227.89 98.89
  A 1.56 1.56 0.0 0 0 229.37 100.22
  L 230.72 100.27
  Q 231.95 100.32 231.80 99.10
  Q 231.18 93.87 229.51 88.51
  C 221.23 61.92 199.79 43.12 172.31 38.64
  Q 171.47 38.51 171.49 39.35
  L 171.53 41.66
  Q 171.55 42.54 172.41 42.72
  Q 206.16 49.50 221.55 78.90"
/>
<path stroke="#80c08b" vector-effect="non-scaling-stroke" d="
  M 157.69 119.80
  Q 152.68 117.32 151.33 113.24
  C 148.92 106.00 154.10 98.66 161.70 98.79
  C 171.27 98.94 176.15 110.16 169.24 117.23
  A 1.79 1.78 67.3 0 0 168.73 118.48
  L 168.70 127.69
  A 0.56 0.55 77.6 0 0 169.49 128.20
  Q 179.74 123.41 181.54 112.92
  C 182.77 105.78 179.76 98.13 173.92 93.86
  C 164.91 87.28 152.59 88.77 145.73 97.86
  Q 142.25 102.47 141.95 107.91
  C 141.22 121.21 151.23 130.94 164.47 129.52
  Q 164.98 129.46 164.98 128.94
  L 165.01 103.51
  Q 165.01 101.75 163.26 101.71
  L 160.30 101.65
  Q 158.59 101.62 158.59 103.33
  L 158.52 119.29
  Q 158.52 120.21 157.69 119.80"
/>
<path stroke="#80c08b" vector-effect="non-scaling-stroke" d="
  M 186.34 127.60
  L 180.65 121.32
  Q 180.55 121.21 180.45 121.32
  L 175.63 126.70
  A 0.26 0.25 -47.4 0 0 175.64 127.06
  L 181.37 132.77
  Q 181.75 133.15 181.40 133.56
  Q 161.74 155.55 162.95 185.63
  Q 162.96 185.88 163.22 185.88
  L 170.27 185.89
  Q 170.58 185.89 170.56 185.59
  Q 169.96 177.31 170.93 171.11
  C 176.06 138.35 204.19 115.62 237.25 117.39
  Q 238.15 117.44 238.16 116.53
  L 238.19 111.68
  Q 238.20 110.73 237.25 110.69
  Q 209.18 109.47 187.49 127.67
  Q 186.88 128.19 186.34 127.60"
/>
<path stroke="#80c08b" vector-effect="non-scaling-stroke" d="
  M 142.71 133.15
  L 148.29 127.45
  A 0.36 0.35 -44.4 0 0 148.30 126.95
  L 143.64 122.01
  Q 143.41 121.77 143.19 122.02
  L 137.61 128.16
  A 0.80 0.80 0.0 0 1 136.50 128.23
  Q 114.39 109.58 84.72 111.32
  Q 84.50 111.33 84.50 111.56
  L 84.63 117.97
  Q 84.63 118.26 84.92 118.23
  Q 99.19 116.77 112.27 121.63
  C 139.02 131.56 155.26 156.58 153.36 185.32
  A 0.49 0.49 0.0 0 0 153.85 185.85
  L 160.10 185.86
  A 0.58 0.58 0.0 0 0 160.68 185.30
  C 161.54 166.15 155.36 148.41 142.69 134.25
  Q 142.18 133.69 142.71 133.15"
/>
<path stroke="#80c08b" vector-effect="non-scaling-stroke" d="
  M 223.41 135.19
  Q 210.75 163.42 181.42 173.08
  C 178.79 173.95 175.92 174.31 173.24 175.11
  A 1.68 1.67 83.9 0 0 172.06 176.58
  L 171.96 177.98
  Q 171.87 179.28 173.14 179.04
  C 203.67 173.25 226.35 150.79 231.58 120.09
  Q 231.81 118.73 230.45 118.97
  L 229.06 119.20
  Q 227.78 119.43 227.58 120.71
  Q 226.29 128.77 223.41 135.19"
/>
<path stroke="#80c08b" vector-effect="non-scaling-stroke" d="
  M 96.71 138.51
  Q 112.14 170.43 147.01 178.57
  Q 148.97 179.03 151.16 179.09
  Q 151.83 179.11 151.81 178.45
  L 151.75 176.56
  Q 151.72 175.55 150.73 175.37
  Q 121.04 169.96 104.86 145.79
  Q 97.45 134.73 94.81 120.61
  Q 94.61 119.55 93.53 119.54
  L 91.81 119.52
  Q 91.07 119.52 91.19 120.24
  Q 92.85 130.53 96.71 138.51"
/>
</g>
<path fill="#ffffff" d="
  M 0.00 0.00
  L 324.00 0.00
  L 324.00 216.00
  L 0.00 216.00
  L 0.00 0.00
  Z
  M 233.75 99.74
  C 229.10 67.09 204.84 42.12 172.22 36.99
  Q 171.54 36.88 171.51 36.19
  L 171.37 33.25
  A 0.62 0.62 0.0 0 0 170.75 32.66
  L 152.30 32.72
  A 0.73 0.73 0.0 0 0 151.57 33.45
  L 151.57 36.02
  A 0.90 0.90 0.0 0 1 150.81 36.91
  C 118.05 42.02 93.39 66.92 88.93 100.04
  A 0.92 0.91 -83.9 0 1 87.96 100.83
  L 83.23 100.50
  A 0.52 0.51 1.5 0 0 82.67 101.02
  L 82.85 119.22
  A 0.92 0.91 -3.2 0 0 83.86 120.12
  L 88.48 119.66
  Q 89.20 119.59 89.33 120.30
  C 94.90 152.04 119.00 176.26 151.22 180.80
  Q 151.89 180.89 151.84 181.57
  L 151.45 186.70
  A 0.75 0.75 0.0 0 0 152.20 187.51
  L 171.03 187.53
  Q 172.33 187.53 172.28 186.22
  L 172.08 181.42
  A 0.76 0.76 0.0 0 1 172.70 180.64
  C 185.92 178.32 197.65 173.33 207.97 164.74
  C 221.52 153.46 230.82 137.49 233.51 119.77
  Q 233.63 118.99 234.42 119.05
  L 239.06 119.39
  Q 239.81 119.45 239.81 118.69
  L 239.77 100.88
  Q 239.77 100.23 239.12 100.25
  L 234.55 100.41
  Q 233.85 100.43 233.75 99.74
  Z"
/>
<path fill="#018017" d="
  M 234.55 100.41
  L 239.12 100.25
  Q 239.77 100.23 239.77 100.88
  L 239.81 118.69
  Q 239.81 119.45 239.06 119.39
  L 234.42 119.05
  Q 233.63 118.99 233.51 119.77
  C 230.82 137.49 221.52 153.46 207.97 164.74
  C 197.65 173.33 185.92 178.32 172.70 180.64
  A 0.76 0.76 0.0 0 0 172.08 181.42
  L 172.28 186.22
  Q 172.33 187.53 171.03 187.53
  L 152.20 187.51
  A 0.75 0.75 0.0 0 1 151.45 186.70
  L 151.84 181.57
  Q 151.89 180.89 151.22 180.80
  C 119.00 176.26 94.90 152.04 89.33 120.30
  Q 89.20 119.59 88.48 119.66
  L 83.86 120.12
  A 0.92 0.91 -3.2 0 1 82.85 119.22
  L 82.67 101.02
  A 0.52 0.51 1.5 0 1 83.23 100.50
  L 87.96 100.83
  A 0.92 0.91 -83.9 0 0 88.93 100.04
  C 93.39 66.92 118.05 42.02 150.81 36.91
  A 0.90 0.90 0.0 0 0 151.57 36.02
  L 151.57 33.45
  A 0.73 0.73 0.0 0 1 152.30 32.72
  L 170.75 32.66
  A 0.62 0.62 0.0 0 1 171.37 33.25
  L 171.51 36.19
  Q 171.54 36.88 172.22 36.99
  C 204.84 42.12 229.10 67.09 233.75 99.74
  Q 233.85 100.43 234.55 100.41
  Z
  M 137.24 92.26
  L 142.74 98.27
  Q 142.92 98.46 143.09 98.26
  L 147.70 93.02
  A 0.27 0.27 0.0 0 0 147.69 92.65
  L 142.45 87.32
  Q 141.94 86.80 142.42 86.25
  Q 161.38 64.73 160.51 35.49
  Q 160.47 34.24 159.22 34.26
  L 154.46 34.33
  Q 153.19 34.35 153.25 35.62
  C 154.43 59.65 143.48 80.99 123.21 93.51
  Q 105.96 104.16 85.35 102.38
  Q 84.41 102.30 84.43 103.24
  L 84.50 108.29
  Q 84.52 109.29 85.52 109.35
  Q 112.06 110.76 133.11 94.84
  Q 134.78 93.58 136.23 92.22
  A 0.71 0.71 0.0 0 1 137.24 92.26
  Z
  M 185.63 91.82
  Q 186.27 91.11 187.01 91.71
  Q 209.07 109.79 237.20 108.49
  Q 238.14 108.44 238.15 107.49
  L 238.15 102.77
  Q 238.15 101.95 237.33 101.99
  C 212.02 103.29 189.12 90.74 176.96 68.57
  Q 168.92 53.90 169.82 35.17
  Q 169.86 34.28 168.97 34.29
  L 163.00 34.38
  Q 162.09 34.39 162.13 35.29
  Q 162.42 43.52 163.27 49.32
  Q 166.20 69.26 180.78 85.76
  A 0.71 0.70 -42.9 0 1 180.74 86.73
  L 175.45 91.90
  A 0.57 0.57 0.0 0 0 175.43 92.69
  L 179.89 97.47
  Q 180.23 97.84 180.57 97.47
  L 185.63 91.82
  Z
  M 100.63 79.58
  Q 116.12 49.30 150.82 42.56
  Q 151.56 42.42 151.59 41.66
  L 151.66 39.25
  Q 151.69 38.37 150.82 38.51
  C 118.91 43.80 95.24 67.84 90.76 99.91
  Q 90.59 101.09 91.78 101.02
  L 93.15 100.93
  A 1.37 1.36 -87.1 0 0 94.42 99.77
  Q 96.21 88.22 100.63 79.58
  Z
  M 221.55 78.90
  Q 226.30 87.96 227.89 98.89
  A 1.56 1.56 0.0 0 0 229.37 100.22
  L 230.72 100.27
  Q 231.95 100.32 231.80 99.10
  Q 231.18 93.87 229.51 88.51
  C 221.23 61.92 199.79 43.12 172.31 38.64
  Q 171.47 38.51 171.49 39.35
  L 171.53 41.66
  Q 171.55 42.54 172.41 42.72
  Q 206.16 49.50 221.55 78.90
  Z
  M 157.69 119.80
  Q 152.68 117.32 151.33 113.24
  C 148.92 106.00 154.10 98.66 161.70 98.79
  C 171.27 98.94 176.15 110.16 169.24 117.23
  A 1.79 1.78 67.3 0 0 168.73 118.48
  L 168.70 127.69
  A 0.56 0.55 77.6 0 0 169.49 128.20
  Q 179.74 123.41 181.54 112.92
  C 182.77 105.78 179.76 98.13 173.92 93.86
  C 164.91 87.28 152.59 88.77 145.73 97.86
  Q 142.25 102.47 141.95 107.91
  C 141.22 121.21 151.23 130.94 164.47 129.52
  Q 164.98 129.46 164.98 128.94
  L 165.01 103.51
  Q 165.01 101.75 163.26 101.71
  L 160.30 101.65
  Q 158.59 101.62 158.59 103.33
  L 158.52 119.29
  Q 158.52 120.21 157.69 119.80
  Z
  M 186.34 127.60
  L 180.65 121.32
  Q 180.55 121.21 180.45 121.32
  L 175.63 126.70
  A 0.26 0.25 -47.4 0 0 175.64 127.06
  L 181.37 132.77
  Q 181.75 133.15 181.40 133.56
  Q 161.74 155.55 162.95 185.63
  Q 162.96 185.88 163.22 185.88
  L 170.27 185.89
  Q 170.58 185.89 170.56 185.59
  Q 169.96 177.31 170.93 171.11
  C 176.06 138.35 204.19 115.62 237.25 117.39
  Q 238.15 117.44 238.16 116.53
  L 238.19 111.68
  Q 238.20 110.73 237.25 110.69
  Q 209.18 109.47 187.49 127.67
  Q 186.88 128.19 186.34 127.60
  Z
  M 142.71 133.15
  L 148.29 127.45
  A 0.36 0.35 -44.4 0 0 148.30 126.95
  L 143.64 122.01
  Q 143.41 121.77 143.19 122.02
  L 137.61 128.16
  A 0.80 0.80 0.0 0 1 136.50 128.23
  Q 114.39 109.58 84.72 111.32
  Q 84.50 111.33 84.50 111.56
  L 84.63 117.97
  Q 84.63 118.26 84.92 118.23
  Q 99.19 116.77 112.27 121.63
  C 139.02 131.56 155.26 156.58 153.36 185.32
  A 0.49 0.49 0.0 0 0 153.85 185.85
  L 160.10 185.86
  A 0.58 0.58 0.0 0 0 160.68 185.30
  C 161.54 166.15 155.36 148.41 142.69 134.25
  Q 142.18 133.69 142.71 133.15
  Z
  M 223.41 135.19
  Q 210.75 163.42 181.42 173.08
  C 178.79 173.95 175.92 174.31 173.24 175.11
  A 1.68 1.67 83.9 0 0 172.06 176.58
  L 171.96 177.98
  Q 171.87 179.28 173.14 179.04
  C 203.67 173.25 226.35 150.79 231.58 120.09
  Q 231.81 118.73 230.45 118.97
  L 229.06 119.20
  Q 227.78 119.43 227.58 120.71
  Q 226.29 128.77 223.41 135.19
  Z
  M 96.71 138.51
  Q 112.14 170.43 147.01 178.57
  Q 148.97 179.03 151.16 179.09
  Q 151.83 179.11 151.81 178.45
  L 151.75 176.56
  Q 151.72 175.55 150.73 175.37
  Q 121.04 169.96 104.86 145.79
  Q 97.45 134.73 94.81 120.61
  Q 94.61 119.55 93.53 119.54
  L 91.81 119.52
  Q 91.07 119.52 91.19 120.24
  Q 92.85 130.53 96.71 138.51
  Z"
/>
<path fill="#ffffff" d="
  M 136.23 92.22
  Q 134.78 93.58 133.11 94.84
  Q 112.06 110.76 85.52 109.35
  Q 84.52 109.29 84.50 108.29
  L 84.43 103.24
  Q 84.41 102.30 85.35 102.38
  Q 105.96 104.16 123.21 93.51
  C 143.48 80.99 154.43 59.65 153.25 35.62
  Q 153.19 34.35 154.46 34.33
  L 159.22 34.26
  Q 160.47 34.24 160.51 35.49
  Q 161.38 64.73 142.42 86.25
  Q 141.94 86.80 142.45 87.32
  L 147.69 92.65
  A 0.27 0.27 0.0 0 1 147.70 93.02
  L 143.09 98.26
  Q 142.92 98.46 142.74 98.27
  L 137.24 92.26
  A 0.71 0.71 0.0 0 0 136.23 92.22
  Z"
/>
<path fill="#ffffff" d="
  M 185.63 91.82
  L 180.57 97.47
  Q 180.23 97.84 179.89 97.47
  L 175.43 92.69
  A 0.57 0.57 0.0 0 1 175.45 91.90
  L 180.74 86.73
  A 0.71 0.70 -42.9 0 0 180.78 85.76
  Q 166.20 69.26 163.27 49.32
  Q 162.42 43.52 162.13 35.29
  Q 162.09 34.39 163.00 34.38
  L 168.97 34.29
  Q 169.86 34.28 169.82 35.17
  Q 168.92 53.90 176.96 68.57
  C 189.12 90.74 212.02 103.29 237.33 101.99
  Q 238.15 101.95 238.15 102.77
  L 238.15 107.49
  Q 238.14 108.44 237.20 108.49
  Q 209.07 109.79 187.01 91.71
  Q 186.27 91.11 185.63 91.82
  Z"
/>
<path fill="#ffffff" d="
  M 100.63 79.58
  Q 96.21 88.22 94.42 99.77
  A 1.37 1.36 -87.1 0 1 93.15 100.93
  L 91.78 101.02
  Q 90.59 101.09 90.76 99.91
  C 95.24 67.84 118.91 43.80 150.82 38.51
  Q 151.69 38.37 151.66 39.25
  L 151.59 41.66
  Q 151.56 42.42 150.82 42.56
  Q 116.12 49.30 100.63 79.58
  Z"
/>
<path fill="#ffffff" d="
  M 221.55 78.90
  Q 206.16 49.50 172.41 42.72
  Q 171.55 42.54 171.53 41.66
  L 171.49 39.35
  Q 171.47 38.51 172.31 38.64
  C 199.79 43.12 221.23 61.92 229.51 88.51
  Q 231.18 93.87 231.80 99.10
  Q 231.95 100.32 230.72 100.27
  L 229.37 100.22
  A 1.56 1.56 0.0 0 1 227.89 98.89
  Q 226.30 87.96 221.55 78.90
  Z"
/>
<path fill="#ffffff" d="
  M 158.52 119.29
  L 158.59 103.33
  Q 158.59 101.62 160.30 101.65
  L 163.26 101.71
  Q 165.01 101.75 165.01 103.51
  L 164.98 128.94
  Q 164.98 129.46 164.47 129.52
  C 151.23 130.94 141.22 121.21 141.95 107.91
  Q 142.25 102.47 145.73 97.86
  C 152.59 88.77 164.91 87.28 173.92 93.86
  C 179.76 98.13 182.77 105.78 181.54 112.92
  Q 179.74 123.41 169.49 128.20
  A 0.56 0.55 77.6 0 1 168.70 127.69
  L 168.73 118.48
  A 1.79 1.78 67.3 0 1 169.24 117.23
  C 176.15 110.16 171.27 98.94 161.70 98.79
  C 154.10 98.66 148.92 106.00 151.33 113.24
  Q 152.68 117.32 157.69 119.80
  Q 158.52 120.21 158.52 119.29
  Z"
/>
<path fill="#ffffff" d="
  M 187.49 127.67
  Q 209.18 109.47 237.25 110.69
  Q 238.20 110.73 238.19 111.68
  L 238.16 116.53
  Q 238.15 117.44 237.25 117.39
  C 204.19 115.62 176.06 138.35 170.93 171.11
  Q 169.96 177.31 170.56 185.59
  Q 170.58 185.89 170.27 185.89
  L 163.22 185.88
  Q 162.96 185.88 162.95 185.63
  Q 161.74 155.55 181.40 133.56
  Q 181.75 133.15 181.37 132.77
  L 175.64 127.06
  A 0.26 0.25 -47.4 0 1 175.63 126.70
  L 180.45 121.32
  Q 180.55 121.21 180.65 121.32
  L 186.34 127.60
  Q 186.88 128.19 187.49 127.67
  Z"
/>
<path fill="#ffffff" d="
  M 142.69 134.25
  C 155.36 148.41 161.54 166.15 160.68 185.30
  A 0.58 0.58 0.0 0 1 160.10 185.86
  L 153.85 185.85
  A 0.49 0.49 0.0 0 1 153.36 185.32
  C 155.26 156.58 139.02 131.56 112.27 121.63
  Q 99.19 116.77 84.92 118.23
  Q 84.63 118.26 84.63 117.97
  L 84.50 111.56
  Q 84.50 111.33 84.72 111.32
  Q 114.39 109.58 136.50 128.23
  A 0.80 0.80 0.0 0 0 137.61 128.16
  L 143.19 122.02
  Q 143.41 121.77 143.64 122.01
  L 148.30 126.95
  A 0.36 0.35 -44.4 0 1 148.29 127.45
  L 142.71 133.15
  Q 142.18 133.69 142.69 134.25
  Z"
/>
<path fill="#ffffff" d="
  M 223.41 135.19
  Q 226.29 128.77 227.58 120.71
  Q 227.78 119.43 229.06 119.20
  L 230.45 118.97
  Q 231.81 118.73 231.58 120.09
  C 226.35 150.79 203.67 173.25 173.14 179.04
  Q 171.87 179.28 171.96 177.98
  L 172.06 176.58
  A 1.68 1.67 83.9 0 1 173.24 175.11
  C 175.92 174.31 178.79 173.95 181.42 173.08
  Q 210.75 163.42 223.41 135.19
  Z"
/>
<path fill="#ffffff" d="
  M 96.71 138.51
  Q 92.85 130.53 91.19 120.24
  Q 91.07 119.52 91.81 119.52
  L 93.53 119.54
  Q 94.61 119.55 94.81 120.61
  Q 97.45 134.73 104.86 145.79
  Q 121.04 169.96 150.73 175.37
  Q 151.72 175.55 151.75 176.56
  L 151.81 178.45
  Q 151.83 179.11 151.16 179.09
  Q 148.97 179.03 147.01 178.57
  Q 112.14 170.43 96.71 138.51
  Z"
/>
</svg>
