<svg xmlns="http://www.w3.org/2000/svg" xmlns:xlink="http://www.w3.org/1999/xlink" width="394" height="388" viewBox="-98.5 -100 197 194" fill="#3a8558">
<g id="b">
<path id="a" d="M0-100 21.205249-58.260942h-7.851579L0-84.545453L-13.35367-58.260942h-7.851579zM7.555899-61.537861a62 62 0 0 1 26.211721 9.540286l-3.812473 5.870694a55 55 0 0 0-23.252333-8.463157z"/>
<use xlink:href="#a" transform="rotate(40)"/>
<use xlink:href="#a" transform="rotate(80)"/>
</g>
<use xlink:href="#b" transform="rotate(120)"/>
<use xlink:href="#b" transform="rotate(240)"/>
<g id="d">
<path id="c" d="M0-45A55 55 0 0 1 4.775014-24.539748 25 25 0 0 0 .877363-24.9846 55 55 0 0 0-7.039551-44.445975 45 45 0 0 1 0-45zM7.039551-44.445975A45 45 0 0 1 13.905765-42.797543 55 55 0 0 1 0 0 55 55 0 0 0 7.039551-44.445975z"/>
<use xlink:href="#c" transform="rotate(36)"/>
</g>
<g id="e">
<use xlink:href="#d" transform="rotate(72)"/>
<use xlink:href="#d" transform="rotate(216)"/>
</g>
<use xlink:href="#e" transform="rotate(72)"/>
<circle r="5"/>
</svg>