<svg xmlns="http://www.w3.org/2000/svg" width="300" height="300" viewBox="-66 -66 132 132">
<path d="M6.787362 51.555133a52 52 0 0 1-13.574724 0L-1.957893 14.871673H1.957893zM14.96663 1a15 15 0 0 1-29.933259 0zM3.923301-14.477835A15 15 0 0 1 14.96663-1H2.14891zM40.178254-52.36132A8.633213 8.633213 0 1 1 52.36132-40.178254L11.9003-9.131421 9.131421-11.9003zM10.593662-65.144258A66 66 0 0 1 65.992424-1H53.99074A54 54 0 0 0 9.026468-53.240237zM.261052-1.98289L-7.968776-12.70821A15 15 0 0 1-1.957893-14.871673L-7.048414-53.538023A54 54 0 0 0-53.99074-1H-65.992424A66 66 0 0 1 8.614729-65.435361zM-.767327-1H-14.96663A15 15 0 0 1-11.9003-9.131421L-52.36132-40.178254A8.633213 8.633213 0 1 1-40.178254-52.36132zM65.992424 1A66 66 0 0 1-65.992424 1H-53.99074A54 54 0 0 0 53.99074 1z"/>
</svg>