<svg xmlns="http://www.w3.org/2000/svg" width="457.338" height="404.324" viewBox="176.5 45.5 457.338 404.324" xmlns:v="https://vecta.io/nano"><path fill="#b10923" d="M631.086 197.25c0-7.894-5.246-5.009-5.995-4.557.736-.465 5.995-4.074 5.995-12.443 0-9-9.671-2.083-12.671 0-1.585 1.101-20.05 13.412-49.52 26.955-11.615-30.01-31.188-56.054-56.138-75.538h57.989l16-45H429.504l-27.255-38-26.32 38H218.416l19 45h58.156c-24.372 19.034-43.613 44.327-55.318 73.463-27.946-11.848-47.499-21.336-49.084-22.213-4.324-2.392-12.67-6.463-12.67.708 0 7.396 4.104 10.595 5.569 11.502-1.468-.742-5.569-2.189-5.569 4.79 0 8.5 6.337 12.25 6.337 12.25s-6.337-4-6.337 3.5c0 5.79 3.916 9.781 5.706 11.305-1.597-1.095-4.872-2.528-5.619 3.445-.875 7 7.924 12.119 8.883 12.737 12.438 8.024 26.479 14.256 40.307 19.597a179.89 179.89 0 0 0-.194 8.167c0 92.326 70.863 168.094 161.167 175.906v-52.213c-58.543-6.963-104.674-54.354-109.692-113.469 27.379 8.797 56.555 15.521 99.692 21.189v47.334s15.334 16.666 49.334 15.333v-64.333s43.275.414 99.957-16.898c-6.064 57.166-50.639 102.834-107.29 110.568v52.384c89.744-8.359 160.002-83.872 160.002-175.803 0-2.481-.064-4.949-.166-7.407 13.725-6.481 27.675-14.084 41.53-23.024.959-.618 9.758-5.737 8.883-12.737-.746-5.973-4.021-4.54-5.618-3.445 1.79-1.524 5.706-5.515 5.706-11.305 0-7.5-6.338-3.5-6.338-3.5s6.336-3.748 6.336-12.248zm-212.337 11.417c-1.439-3.006-8.334-13.333-20.668-13.333 0 0-8.832-.833-14.832 4.667s-16.405 5.144-16.203 6.197c.229 1.192 14.203 4.053 15.953 7.053s9 20-8 28.5c-14.305 7.152-63.115-7.642-87.92-16.684 18.162-46.655 63.516-79.72 116.595-79.72 53.46 0 99.08 33.546 116.979 80.734-16.307 5.29-34.086 9.961-52.903 13.254-40.001 6.998-40.955-13.866-49.001-30.668z"/></svg>