<?xml version="1.0" encoding="UTF-8" standalone="no"?>
<!-- Created with Inkscape (http://www.inkscape.org/) -->
<svg id="svg18860" xmlns:rdf="http://www.w3.org/1999/02/22-rdf-syntax-ns#" xmlns="http://www.w3.org/2000/svg" height="175" width="150" version="1.1" xmlns:cc="http://creativecommons.org/ns#" xmlns:dc="http://purl.org/dc/elements/1.1/" viewBox="0 0 150 175">
 <metadata id="metadata18865">
  <rdf:RDF>
   <cc:Work rdf:about="">
    <dc:format>image/svg+xml</dc:format>
    <dc:type rdf:resource="http://purl.org/dc/dcmitype/StillImage"/>
    <dc:title/>
   </cc:Work>
  </rdf:RDF>
 </metadata>
 <g id="layer31" fill-rule="evenodd" fill="#206116">
  <path id="path19421" d="m63.324 20.961a75 75 0 0 0 -63.324 74.039 75 75 0 0 0 75 75 75 75 0 0 0 75 -75 75 75 0 0 0 -63.312 -73.99l5.613 21.83a55 55 0 0 1 37.699 52.16 55 55 0 0 1 -55 55 55 55 0 0 1 -55 -55 55 55 0 0 1 37.691 -52.133l5.633-21.906z"/>
  <path id="path19433" d="m30 175 45-175 45 175h-30l-15-155-15 155z"/>
 </g>
</svg>
