<?xml version="1.0" encoding="UTF-8" standalone="no"?>
<!-- Created with Inkscape (http://www.inkscape.org/) -->

<svg
   xmlns:svg="http://www.w3.org/2000/svg"
   xmlns="http://www.w3.org/2000/svg"
   version="1.1"
   width="500"
   height="460"
   id="svg2816"
   xml:space="preserve"><defs
     id="defs2820" /><g
     transform="matrix(1.25,0,0,-1.25,6.6735,616.77396)"
     id="g2826"><path
       d="m 104.58526,318.95681 c 0,-2.92469 0,-2.92469 0,0.0352 0,62.29947 32.17162,120.15904 85.09797,152.98254 l 0,-19.97952 c -40.55808,-28.91217 -65.647,-74.7206 -68.25456,-124.45798 22.93945,10.3069 47.88743,15.62772 73.22302,15.62772 25.26511,0 50.21308,-5.32082 73.18777,-15.62772 -2.57232,49.73738 -27.69648,95.54581 -68.2017,124.45798 l 0,19.97952 c 46.5495,-35.96049 92.68087,-96.70552 85.06273,-153.00015 53.96585,-31.09688 87.96981,-87.89934 89.96071,-150.14595 l -17.28387,9.98977 c -4.79227,49.54358 -31.92496,94.22441 -73.6811,121.26901 -5.28559,-50.75927 -31.92495,-96.8496 -73.17016,-126.78364 22.92183,-11.71639 48.32789,-17.81244 74.19204,-17.81244 23.39754,0 46.4427,5.00369 67.65553,14.67632 l 17.30149,-9.98976 c -26.14604,-14.02443 -55.32249,-21.31854 -84.95702,-21.31854 -31.67829,0 -62.72231,8.31599 -90.08404,24.13752 -27.32649,-15.82153 -58.37051,-24.13752 -90.01357,-24.13752 -29.668358,0 -58.844804,7.29411 -84.973229,21.31854 l 17.319111,10.00738 c 21.142353,-9.69025 44.222754,-14.69394 67.654118,-14.69394 25.82891,0 51.23497,6.09605 74.13918,17.81244 C 137.5321,203.2729 110.89273,249.36323 105.57191,300.06964 63.81717,273.00743 36.684484,228.36183 31.927455,178.81825 L 14.6612,168.82848 c 1.938049,62.24661 35.941999,119.04907 89.92406,150.12833 m 85.08035,-88.04028 0,13.76014 c -10.44784,2.32566 -17.8829,11.6283 -17.8829,22.34042 0,10.67689 7.39982,19.97953 17.8829,22.3228 l 0,13.76015 c -18.02385,-2.50184 -31.44925,-17.90052 -31.44925,-36.08295 0,-18.21766 13.44302,-33.59872 31.44925,-36.10056 z m 9.95453,13.76014 c 10.46546,2.32566 17.90052,11.59306 17.90052,22.34042 0,10.71213 -7.47029,19.97953 -17.90052,22.3228 l 0,13.76015 c 16.87864,-2.32566 29.91643,-16.10342 31.32592,-33.1054 l 9.77834,0 c -1.56806,24.29609 -21.72377,43.21849 -46.07271,43.21849 -25.51178,0 -46.19604,-20.68426 -46.19604,-46.19604 0,-25.54701 20.68426,-46.19604 46.19604,-46.19604 24.3137,0 44.50465,18.88717 46.07271,43.18326 l -9.77834,0 c -1.40949,-17.03721 -14.44728,-30.77974 -31.32592,-33.08778 l 0,13.76014 z m -5.00369,9.44359 c 0,0 0,0 0,0 7.11792,0 12.89683,5.74367 12.89683,12.8616 0,7.11792 -5.77891,12.89683 -12.89683,12.89683 0,0 0,0 0,0 m 0,0 c -7.11793,0 -12.8616,-5.77891 -12.8616,-12.89683 0,-7.11793 5.74367,-12.8616 12.8616,-12.8616 m 0.0352,-71.58448 c 42.98945,28.33075 70.08689,75.28439 73.09968,126.66031 -22.63994,11.38163 -47.65839,17.33673 -73.09968,17.33673 -25.47654,0 -50.53023,-5.9551 -73.13493,-17.33673 3.04803,-51.37592 30.14548,-98.32956 73.13493,-126.66031 z"
       id="path2906"
       style="fill:#0220f9;fill-opacity:1;fill-rule:evenodd;stroke:none" /></g></svg>