<?xml version="1.0" encoding="UTF-8" standalone="no"?>
<!-- Created with Inkscape (http://www.inkscape.org/) -->

<svg
   xmlns:dc="http://purl.org/dc/elements/1.1/"
   xmlns:cc="http://creativecommons.org/ns#"
   xmlns:rdf="http://www.w3.org/1999/02/22-rdf-syntax-ns#"
   xmlns:svg="http://www.w3.org/2000/svg"
   xmlns="http://www.w3.org/2000/svg"
   xmlns:sodipodi="http://sodipodi.sourceforge.net/DTD/sodipodi-0.dtd"
   xmlns:inkscape="http://www.inkscape.org/namespaces/inkscape"
   width="63.01115mm"
   height="63.011143mm"
   viewBox="0 0 63.01115 63.011143"
   version="1.1"
   id="svg8"
   inkscape:version="0.92.4 (5da689c313, 2019-01-14)"
   sodipodi:docname="Emblem_of_Itami,_Hyogo.svg">
  <defs
     id="defs2" />
  <sodipodi:namedview
     id="base"
     pagecolor="#ffffff"
     bordercolor="#666666"
     borderopacity="1.0"
     inkscape:pageopacity="0.0"
     inkscape:pageshadow="2"
     inkscape:zoom="1.4142136"
     inkscape:cx="28.354941"
     inkscape:cy="137.71119"
     inkscape:document-units="mm"
     inkscape:current-layer="layer1"
     showgrid="false"
     fit-margin-top="0"
     fit-margin-left="0"
     fit-margin-right="0"
     fit-margin-bottom="0"
     inkscape:window-width="1920"
     inkscape:window-height="996"
     inkscape:window-x="1912"
     inkscape:window-y="-8"
     inkscape:window-maximized="1" />
  <metadata
     id="metadata5">
    <rdf:RDF>
      <cc:Work
         rdf:about="">
        <dc:format>image/svg+xml</dc:format>
        <dc:type
           rdf:resource="http://purl.org/dc/dcmitype/StillImage" />
        <dc:title></dc:title>
      </cc:Work>
    </rdf:RDF>
  </metadata>
  <g
     inkscape:label="レイヤー 1"
     inkscape:groupmode="layer"
     id="layer1"
     transform="translate(-103.18491,-13.968656)">
    <path
       style="opacity:1;fill:#000000;fill-opacity:1;fill-rule:nonzero;stroke:none;stroke-width:0.39767227;stroke-linejoin:round;stroke-miterlimit:4;stroke-dasharray:none;stroke-dashoffset:0;stroke-opacity:1;paint-order:normal"
       d="m 134.69049,13.968656 a 31.505657,31.505657 0 0 0 -31.50558,31.505569 31.505657,31.505657 0 0 0 31.50558,31.505573 31.505657,31.505657 0 0 0 31.50557,-31.505573 31.505657,31.505657 0 0 0 -31.50557,-31.505569 z m -0.0553,6.409428 a 25.040922,25.040922 0 0 1 25.04085,25.040849 25.040922,25.040922 0 0 1 -25.04085,25.040849 25.040922,25.040922 0 0 1 -25.04085,-25.040849 25.040922,25.040922 0 0 1 25.04085,-25.040849 z"
       id="path826"
       inkscape:connector-curvature="0" />
    <path
       style="opacity:1;fill:#000000;fill-opacity:1;fill-rule:nonzero;stroke:none;stroke-width:0.32800001;stroke-linejoin:round;stroke-miterlimit:4;stroke-dasharray:none;stroke-dashoffset:0;stroke-opacity:1;paint-order:normal"
       d="m 121.97705,27.320039 c -3.15741,-4.1e-5 -5.71701,2.559556 -5.71696,5.716963 -4e-5,3.157408 2.55955,5.717006 5.71696,5.716966 1.10832,-5.29e-4 2.19255,-0.323472 3.12074,-0.929143 2.66526,4.506148 3.39472,9.347205 0.32763,15.589745 -1.0039,-0.787845 -2.24252,-1.217152 -3.51865,-1.219563 -3.15721,-3.9e-5 -5.71672,2.559238 -5.71696,5.716448 -4e-5,3.157405 2.55955,5.717 5.71696,5.716963 1.20009,-0.0026 2.36892,-0.382823 3.34088,-1.086755 9.32798,-5.835774 13.09471,-23.823996 0.0512,-34.151405 -0.0145,-0.01229 -0.0284,-0.02549 -0.0429,-0.03772 h -0.006 c -0.95943,-0.671184 -2.10179,-1.031591 -3.27267,-1.032496 z m 25.42687,0 c -1.17088,9.05e-4 -2.31325,0.361312 -3.27267,1.032496 h -0.006 c -0.0145,0.01223 -0.0284,0.02543 -0.0429,0.03772 -13.04355,10.327409 -9.27682,28.315631 0.0512,34.151405 0.97196,0.703932 2.14079,1.084154 3.34088,1.086755 3.15741,3.9e-5 5.717,-2.559556 5.71696,-5.716963 -2.4e-4,-3.15721 -2.55975,-5.716487 -5.71696,-5.716448 -1.27612,0.0024 -2.51475,0.431718 -3.51865,1.219563 -3.06709,-6.24254 -2.33763,-11.083597 0.32763,-15.589745 0.92819,0.605671 2.01242,0.928614 3.12074,0.929143 3.15741,4e-5 5.717,-2.559558 5.71697,-5.716966 4e-5,-3.157407 -2.55956,-5.717002 -5.71697,-5.716963 z"
       id="path831"
       inkscape:connector-curvature="0" />
  </g>
</svg>
