<?xml version="1.0" encoding="UTF-8" standalone="no"?>
<!-- Created with Inkscape (http://www.inkscape.org/) -->

<svg
   xmlns:dc="http://purl.org/dc/elements/1.1/"
   xmlns:cc="http://creativecommons.org/ns#"
   xmlns:rdf="http://www.w3.org/1999/02/22-rdf-syntax-ns#"
   xmlns:svg="http://www.w3.org/2000/svg"
   xmlns="http://www.w3.org/2000/svg"
   xmlns:sodipodi="http://sodipodi.sourceforge.net/DTD/sodipodi-0.dtd"
   xmlns:inkscape="http://www.inkscape.org/namespaces/inkscape"
   version="1.1"
   id="svg2"
   width="291"
   height="290"
   viewBox="0 0 291 290"
   sodipodi:docname="Emblem of Toyooka, Hyogo.svg"
   inkscape:version="0.92.3 (2405546, 2018-03-11)">
  <metadata
     id="metadata8">
    <rdf:RDF>
      <cc:Work
         rdf:about="">
        <dc:format>image/svg+xml</dc:format>
        <dc:type
           rdf:resource="http://purl.org/dc/dcmitype/StillImage" />
        <dc:title></dc:title>
      </cc:Work>
    </rdf:RDF>
  </metadata>
  <defs
     id="defs6" />
  <sodipodi:namedview
     pagecolor="#ffffff"
     bordercolor="#666666"
     borderopacity="1"
     objecttolerance="10"
     gridtolerance="10"
     guidetolerance="10"
     inkscape:pageopacity="0"
     inkscape:pageshadow="2"
     inkscape:window-width="1920"
     inkscape:window-height="1017"
     id="namedview4"
     showgrid="false"
     inkscape:zoom="3.2551724"
     inkscape:cx="145.5"
     inkscape:cy="190.80921"
     inkscape:window-x="-8"
     inkscape:window-y="-8"
     inkscape:window-maximized="1"
     inkscape:current-layer="svg2" />
  <path
     style="fill:#0093d0;fill-opacity:1;stroke:none;stroke-width:0.72307849"
     id="path2384-1"
     d="m 145.6684,0.6038141 c -0.97616,0 -1.94619,0.0259365 -2.91776,0.0451463 -0.1922,0.18685614 -25.30993,24.6699066 -25.30993,69.7087776 0,48.488372 29.67526,75.442592 29.67526,75.442592 0,0 -60.436203,-22.01029 -60.436203,-96.075308 0,-19.935662 6.152189,-39.008019 6.152189,-39.008019 l 0.02258,-0.180593 c -3.432994,1.344556 -6.810864,2.808924 -10.110399,4.401946 v 0.158019 c -7e-6,0 -5.473638,18.106309 -5.473638,37.51813 0,69.946055 61.521891,93.547015 61.521891,93.547015 0,0 -84.846726,-5.68174 -87.917493,-110.138967 v -0.112871 c -3.534953,3.060347 -6.910609,6.300266 -10.133017,9.684284 2.385667,70.358114 53.817629,92.892554 74.52747,98.761624 -26.139104,0 -80.369183,-20.93113 -88.302004,-80.183152 l -0.40713,-1.173852 C 10.391687,86.316411 0.91101966,114.59402 0.91101966,145.07796 c 0,39.82894 16.17099934,75.91481 42.31891634,102.05744 l 0.361893,-0.20316 c 8e-6,0 -9.748505,-13.18259 -9.748505,-36.84092 0,-36.89005 23.342128,-57.60906 42.341532,-72.59825 l 6.152189,2.88948 c 0,0 -34.809624,28.37598 -34.809624,57.69936 7e-6,25.6633 22.367534,45.23847 49.375836,45.23847 41.048063,0 99.724263,-52.73306 131.208993,-109.80035 -10.49491,68.9864 -57.3764,143.39058 -128.517411,143.39058 -10.05272,0 -15.448326,-1.08355 -15.448326,-1.08355 l -0.02258,0.0225 c 5.297099,2.48938 10.774914,4.65639 16.398297,6.50133 h 6.80811 c 0,1e-5 108.6865,5.42551 137.8588,-159.30532 0,0 3.93559,14.32938 3.93559,33.99657 -4e-5,95.37698 -80.70294,130.34281 -124.46876,130.34281 l -0.24881,0.6095 c 6.93873,1.02292 14.03869,1.55761 21.26124,1.55761 1.22583,0 2.4456,-0.0149 3.66417,-0.0452 0.0222,-0.003 0.0456,0.003 0.0678,0 94.82438,-11.5538 130.22731,-111.72499 112.02865,-174.79114 33.10673,58.66141 4.1957,110.24178 0.45236,116.4597 17.92645,-24.05264 28.54438,-53.8386 28.54438,-86.09756 0,-26.37371 -7.09031,-51.105427 -19.47439,-72.395087 l -0.76902,0.180593 c -2e-5,7e-6 -111.9493,25.828763 -140.098,41.152554 l -2.51065,-6.50133 C 171.22943,89.041909 262.93883,68.366048 267.94318,67.761718 242.26067,27.402627 197.08689,0.60381329 145.66843,0.6038141 Z"
     inkscape:connector-curvature="0" />
</svg>
