<?xml version="1.0" encoding="UTF-8"?><svg width="250" height="248" viewBox="0 1 250 248" xmlns="http://www.w3.org/2000/svg" xmlns:svg="http://www.w3.org/2000/svg" version="1.1">
  <path xmlns="http://www.w3.org/2000/svg" style="fill:#c80000" d="M -0.75766131,106.75483 62.842731,96.343724 59.338008,117.57825 Z"/>
  <path xmlns="http://www.w3.org/2000/svg" style="fill:#a40000" d="m 62.842731,96.343724 39.273499,22.677646 0,23.50223 -42.778222,-24.94535 z"/>
  <path xmlns="http://www.w3.org/2000/svg" style="fill:#dc0000" d="M 102.11623,119.02137 125,129.32937 102.11623,142.5236 Z"/>
  <path xmlns="http://www.w3.org/2000/svg" style="fill:#f20000" d="m 102.11623,119.02137 2.47392,-4.3294 L 125,129.32937 Z"/>
  <path xmlns="http://www.w3.org/2000/svg" style="fill:#e30000" d="M 104.59015,114.69197 125,102.83778 l 0,26.49159 z"/>
  <path xmlns="http://www.w3.org/2000/svg" style="fill:#aa0000" d="M 104.59015,114.69197 65.31665,91.911288 81.706378,77.892398 125,102.83778 Z"/>
  <path xmlns="http://www.w3.org/2000/svg" style="fill:#ce0000" d="M 65.31665,91.911288 42.329798,31.300215 81.706378,77.892398 Z"/>
  <path xmlns="http://www.w3.org/2000/svg" style="fill:#a40000" d="M 42.329798,31.300215 101.91007,65.832053 125,102.83778 81.706378,77.892398 Z"/>
  <path xmlns="http://www.w3.org/2000/svg" style="fill:#e60000" d="M 101.91007,65.832053 125,0.99469771 125,102.83778 Z"/>
  <path xmlns="http://www.w3.org/2000/svg" style="fill:#980000" d="M 125,0.99469771 148.08993,65.832053 125,102.83778 Z"/>
  <path xmlns="http://www.w3.org/2000/svg" style="fill:#dc0000" d="M 148.08993,65.832053 207.6702,31.300215 168.29362,77.892398 125,102.83778 Z"/>
  <path xmlns="http://www.w3.org/2000/svg" style="fill:#7a0000" d="M 207.6702,31.300215 184.68335,91.911288 168.29362,77.892398 Z"/>
  <path xmlns="http://www.w3.org/2000/svg" style="fill:#810000" d="M 184.68335,91.911288 145.40985,114.69197 125,102.83778 168.29362,77.892398 Z"/>
  <path xmlns="http://www.w3.org/2000/svg" style="fill:#7f0000" d="M 145.40985,114.69197 125,129.32937 l 0,-26.49159 z"/>
  <path xmlns="http://www.w3.org/2000/svg" style="fill:#940000" d="m 145.40985,114.69197 2.47392,4.22629 L 125,129.32937 Z"/>
  <path xmlns="http://www.w3.org/2000/svg" style="fill:#a40000" d="m 147.88377,118.91826 0,23.60534 L 125,129.32937 Z"/>
  <path xmlns="http://www.w3.org/2000/svg" style="fill:#dc0000" d="m 147.88377,118.91826 39.2735,-22.574536 3.50472,21.234526 -42.77822,24.94535 z"/>
  <path xmlns="http://www.w3.org/2000/svg" style="fill:#b60000" d="m 187.15727,96.343724 63.60039,10.411106 -60.09567,10.82342 z"/>
  <path xmlns="http://www.w3.org/2000/svg" style="fill:#810000" d="m 250.75766,106.75483 -82.25788,47.51992 -20.61601,-11.75115 42.77822,-24.94535 z"/>
  <path xmlns="http://www.w3.org/2000/svg" style="fill:#7f0000" d="m 168.49978,154.27475 0,94.73056 -20.61601,-56.59094 0,-49.89077 z"/>
  <path xmlns="http://www.w3.org/2000/svg" style="fill:#bc0000" d="m 168.49978,249.00531 -41.02586,-49.27226 20.40985,-7.31868 z"/>
  <path xmlns="http://www.w3.org/2000/svg" style="fill:#e30000" d="m 127.47392,199.73305 0,-45.25214 20.40985,-11.95731 0,49.89077 z"/>
  <path xmlns="http://www.w3.org/2000/svg" style="fill:#aa0000" d="M 127.47392,154.48091 125,129.32937 147.88377,142.5236 Z"/>
  <path xmlns="http://www.w3.org/2000/svg" style="fill:#980000" d="m 127.47392,154.48091 -4.94784,0 L 125,129.32937 Z"/>
  <path xmlns="http://www.w3.org/2000/svg" style="fill:#810000" d="M 122.52608,154.48091 102.11623,142.5236 125,129.32937 Z"/>
  <path xmlns="http://www.w3.org/2000/svg" style="fill:#7f0000" d="m 122.52608,154.48091 0,45.25214 -20.40985,-7.31868 0,-49.89077 z"/>
  <path xmlns="http://www.w3.org/2000/svg" style="fill:#7b0000" d="m 122.52608,199.73305 -41.02586,49.27226 20.61601,-56.59094 z"/>
  <path xmlns="http://www.w3.org/2000/svg" style="fill:#e30000" d="m 81.50022,249.00531 0,-94.5244 20.61601,-11.95731 0,49.89077 z"/>
  <path xmlns="http://www.w3.org/2000/svg" style="fill:#aa0000" d="M 81.50022,154.48091 -0.75766131,106.75483 59.338008,117.57825 102.11623,142.5236 Z"/>
  <path xmlns="http://www.w3.org/2000/svg" style="fill:#ee0000" d="m 14.292026,192.7236 41.335098,-47.93222 0,24.84226 z"/>
  <path xmlns="http://www.w3.org/2000/svg" style="fill:#a60000" d="m 55.627124,144.79138 21.852971,11.95726 -21.852971,12.885 z"/>
  <path xmlns="http://www.w3.org/2000/svg" style="fill:#810000" d="m 77.480095,156.74864 0,25.15154 -21.852971,-12.26654 z"/>
  <path xmlns="http://www.w3.org/2000/svg" style="fill:#830000" d="M 77.480095,181.90018 14.292026,192.7236 55.627124,169.63364 Z"/>
  <path xmlns="http://www.w3.org/2000/svg" style="fill:#e30000" d="m 172.51991,181.90018 0,-25.15154 21.85297,12.885 z"/>
  <path xmlns="http://www.w3.org/2000/svg" style="fill:#db0000" d="m 172.51991,156.74864 21.85297,-11.95726 0,24.84226 z"/>
  <path xmlns="http://www.w3.org/2000/svg" style="fill:#8e0000" d="m 194.37288,144.79138 41.54125,47.93222 -41.54125,-23.08996 z"/>
  <path xmlns="http://www.w3.org/2000/svg" style="fill:#920000" d="m 235.91413,192.7236 -63.39422,-10.82342 21.85297,-12.26654 z"/>
</svg>