<?xml version="1.0" encoding="UTF-8" standalone="no"?>
<!-- Created with Inkscape (http://www.inkscape.org/) -->

<svg
   xmlns:dc="http://purl.org/dc/elements/1.1/"
   xmlns:cc="http://creativecommons.org/ns#"
   xmlns:rdf="http://www.w3.org/1999/02/22-rdf-syntax-ns#"
   xmlns:svg="http://www.w3.org/2000/svg"
   xmlns="http://www.w3.org/2000/svg"
   xmlns:sodipodi="http://sodipodi.sourceforge.net/DTD/sodipodi-0.dtd"
   xmlns:inkscape="http://www.inkscape.org/namespaces/inkscape"
   version="1.1"
   id="svg2"
   width="1000"
   height="989"
   viewBox="0 0 1000 989"
   sodipodi:docname="Emblem of Takaraduka, Hyogo.svg"
   inkscape:version="0.92.3 (2405546, 2018-03-11)">
  <metadata
     id="metadata8">
    <rdf:RDF>
      <cc:Work
         rdf:about="">
        <dc:format>image/svg+xml</dc:format>
        <dc:type
           rdf:resource="http://purl.org/dc/dcmitype/StillImage" />
        <dc:title></dc:title>
      </cc:Work>
    </rdf:RDF>
  </metadata>
  <defs
     id="defs6" />
  <sodipodi:namedview
     pagecolor="#ffffff"
     bordercolor="#666666"
     borderopacity="1"
     objecttolerance="10"
     gridtolerance="10"
     guidetolerance="10"
     inkscape:pageopacity="0"
     inkscape:pageshadow="2"
     inkscape:window-width="1920"
     inkscape:window-height="1017"
     id="namedview4"
     showgrid="false"
     inkscape:zoom="0.47724975"
     inkscape:cx="500"
     inkscape:cy="494.5"
     inkscape:window-x="-8"
     inkscape:window-y="-8"
     inkscape:window-maximized="1"
     inkscape:current-layer="svg2" />
  <path
     style="fill:#be0026;stroke:none;stroke-width:2.71242881"
     id="path2386-5"
     d="M 500.78599,7.9867586 C 229.13022,7.9867586 8.6410768,226.42223 8.6410768,495.54767 c 0,87.13415 23.1359392,168.95916 63.6149992,239.77297 L 139.02222,669.17638 C 113.2969,616.6949 98.826249,557.77467 98.826249,495.54767 c 0,-219.81497 180.077931,-398.215527 401.959741,-398.215527 73.42867,0 142.23452,19.538317 201.49073,53.657847 l -219.62989,217.5843 c -54.00051,-35.0961 -115.42775,-59.9689 -181.39274,-71.71255 11.61096,65.54376 36.48331,126.589 71.79034,180.29376 L 4.2976265,842.46762 H 137.8299 L 432.31645,550.72415 c 3.52254,3.59651 7.09832,7.14262 10.73033,10.63031 L 156.99124,844.32371 c 88.73255,85.86762 210.05678,138.78487 343.79475,138.78487 271.656,0 492.14515,-218.43551 492.14515,-487.56091 0,-88.19856 -23.66075,-170.9826 -65.06298,-242.3884 l -66.68107,66.05991 c 26.56807,53.16291 41.55865,113.02394 41.55865,176.32849 0,219.81496 -180.07795,398.21553 -401.95975,398.21553 -74.13383,0 -143.5542,-19.94294 -203.19413,-54.67029 l 220.6523,-218.59668 c 53.41226,34.27007 113.94004,58.6254 178.92306,70.19392 C 685.72917,626.12841 661.38093,565.95981 626.90944,512.84304 L 997.27435,145.92793 H 862.3794 l -294.99763,292.2497 c -3.5086,-3.60994 -7.11133,-7.12891 -10.73034,-10.63034 L 842.45177,144.74678 C 753.91028,60.074137 633.46832,7.9867586 500.78599,7.9867586 Z"
     inkscape:connector-curvature="0" />
</svg>
