<?xml version="1.0" encoding="UTF-8" standalone="no"?>
<!-- Created with Inkscape (http://www.inkscape.org/) -->

<svg
   xmlns:dc="http://purl.org/dc/elements/1.1/"
   xmlns:cc="http://creativecommons.org/ns#"
   xmlns:rdf="http://www.w3.org/1999/02/22-rdf-syntax-ns#"
   xmlns:svg="http://www.w3.org/2000/svg"
   xmlns="http://www.w3.org/2000/svg"
   xmlns:sodipodi="http://sodipodi.sourceforge.net/DTD/sodipodi-0.dtd"
   xmlns:inkscape="http://www.inkscape.org/namespaces/inkscape"
   version="1.1"
   id="svg2"
   width="400"
   height="416"
   viewBox="0 0 400 416"
   sodipodi:docname="Emblem of Tambasasayama, Hyogo.svg"
   inkscape:version="0.92.3 (2405546, 2018-03-11)">
  <metadata
     id="metadata8">
    <rdf:RDF>
      <cc:Work
         rdf:about="">
        <dc:format>image/svg+xml</dc:format>
        <dc:type
           rdf:resource="http://purl.org/dc/dcmitype/StillImage" />
        <dc:title></dc:title>
      </cc:Work>
    </rdf:RDF>
  </metadata>
  <defs
     id="defs6" />
  <sodipodi:namedview
     pagecolor="#ffffff"
     bordercolor="#666666"
     borderopacity="1"
     objecttolerance="10"
     gridtolerance="10"
     guidetolerance="10"
     inkscape:pageopacity="0"
     inkscape:pageshadow="2"
     inkscape:window-width="1920"
     inkscape:window-height="1017"
     id="namedview4"
     showgrid="false"
     inkscape:zoom="1.2435306"
     inkscape:cx="30.268421"
     inkscape:cy="208"
     inkscape:window-x="-8"
     inkscape:window-y="-8"
     inkscape:window-maximized="1"
     inkscape:current-layer="svg2" />
  <style
     id="style817"
     type="text/css">
	.st0{fill:#FFFFFF;}
	.st1{fill:#279A80;}
</style>
  <g
     id="g842"
     transform="matrix(0.28770976,0,0,0.2896719,-233.31027,-80.069472)"
     style="stroke-width:3.46393323">
    <path
       id="path821"
       d="M 1031.9,1326.9 960.1,1388 C 874.7,1269.7 827.2,1122.5 835.5,964.5 c 18.3,-349.1 305.7,-626.9 658.6,-630 0.6,0 1.1,0.6 1,1.2 -7.2,35.9 -26,69 -53.3,97 -0.2,0.2 -0.4,0.3 -0.6,0.3 -92.6,9.5 -178.6,41.2 -252.7,89.7 -4.7,3 -9.3,6.2 -13.8,9.3 -168.6,117.4 -270.7,323.5 -238.8,550.6 12.7,90 46.4,173.1 96,244.3 z"
       class="st1"
       inkscape:connector-curvature="0"
       style="fill:#279a80;stroke-width:3.46393323" />
    <path
       id="path823"
       d="m 1505.9,335.8 c -0.2,-0.6 0.3,-1.3 1,-1.3 185.2,1.9 352.4,79.4 471.9,203.2 l -129.1,12 C 1772,489.3 1678.2,448.5 1575.8,434.9 c -0.2,0 -0.4,-0.1 -0.5,-0.2 -33.5,-27.4 -57.9,-61.3 -69.4,-98.9 z"
       class="st1"
       inkscape:connector-curvature="0"
       style="fill:#279a80;stroke-width:3.46393323" />
    <path
       id="path825"
       d="m 2165.5,1000 c 0,355.1 -278.2,645.3 -628.5,664.5 -185.7,10.2 -356.6,-56.8 -483.3,-171.8 l 137,-12.7 c 66.1,42.5 141.6,71.6 222.8,83.6 0.3,0 0.6,0 0.8,-0.1 46.6,-22.8 81.5,-65.8 93.3,-117.7 0.3,-1.4 2.3,-1.4 2.6,0 11.4,50.1 44.4,92 88.7,115.3 0.3,0.1 0.6,0.2 0.9,0.1 267.2,-47.2 470.1,-280.5 470.1,-561.2 0,-110.8 -31.6,-214.1 -86.2,-301.6 l 74.5,-60.8 c 67.9,104.2 107.3,228.7 107.3,362.4 z"
       class="st1"
       inkscape:connector-curvature="0"
       style="fill:#279a80;stroke-width:3.46393323" />
    <path
       id="path827"
       d="m 2095,589.7 c 26,-21.8 47.3,-39.6 61,-51 0,0 -99.6,6.7 -127,9 -203.8,17.3 -264.5,28.6 -294,34 -56.3,10.3 -114.6,25.2 -231,55 0,0 -96.8,24.8 -225,78 -8.4,3.5 -19.2,8.1 -32,17 -48.7,34 -78.4,98.1 -75,162 0.6,12.1 4.1,52.9 32,93 55.8,80.1 158.4,84.6 173,85 6.9,0.2 13.5,0.1 20.3,-0.5 -99,63.8 -151.9,98.3 -222.2,153.8 -64.3,50.8 -78.9,67.7 -258,218 -26,21.8 -47.3,39.6 -61,51 0,0 99.6,-6.7 127,-9 203.8,-17.3 264.5,-28.6 294,-34 56.3,-10.3 114.6,-25.2 231,-55 0,0 96.8,-24.8 225,-78 8.4,-3.5 19.2,-8.1 32,-17 48.7,-34 78.4,-98.1 75,-162 -0.7,-12.1 -4.1,-52.9 -32,-93 -55.8,-80.1 -158.4,-84.6 -173,-85 -6.9,-0.2 -13.5,-0.1 -20.3,0.5 99,-63.8 151.9,-98.3 222.2,-153.9 64.3,-50.7 78.9,-67.7 258,-217.9 z m -295,500 6.5,15.7 -897.8,365.3 z m -588,-146.8 -6.5,-15.7 897.7,-365.3 z"
       class="st1"
       inkscape:connector-curvature="0"
       style="fill:#279a80;stroke-width:3.46393323" />
  </g>
</svg>
