<?xml version="1.0" encoding="UTF-8" standalone="no"?>
<!-- Created with Inkscape (http://www.inkscape.org/) -->

<svg
   xmlns:dc="http://purl.org/dc/elements/1.1/"
   xmlns:cc="http://creativecommons.org/ns#"
   xmlns:rdf="http://www.w3.org/1999/02/22-rdf-syntax-ns#"
   xmlns:svg="http://www.w3.org/2000/svg"
   xmlns="http://www.w3.org/2000/svg"
   xmlns:sodipodi="http://sodipodi.sourceforge.net/DTD/sodipodi-0.dtd"
   xmlns:inkscape="http://www.inkscape.org/namespaces/inkscape"
   version="1.1"
   id="svg2"
   width="402"
   height="371"
   viewBox="0 0 402 371"
   sodipodi:docname="Emblem of Yabu, Hyogo.svg"
   inkscape:version="0.92.3 (2405546, 2018-03-11)">
  <metadata
     id="metadata8">
    <rdf:RDF>
      <cc:Work
         rdf:about="">
        <dc:format>image/svg+xml</dc:format>
        <dc:type
           rdf:resource="http://purl.org/dc/dcmitype/StillImage" />
        <dc:title></dc:title>
      </cc:Work>
    </rdf:RDF>
  </metadata>
  <defs
     id="defs6" />
  <sodipodi:namedview
     pagecolor="#ffffff"
     bordercolor="#666666"
     borderopacity="1"
     objecttolerance="10"
     gridtolerance="10"
     guidetolerance="10"
     inkscape:pageopacity="0"
     inkscape:pageshadow="2"
     inkscape:window-width="1920"
     inkscape:window-height="1017"
     id="namedview4"
     showgrid="false"
     inkscape:zoom="0.98596362"
     inkscape:cx="290.2648"
     inkscape:cy="2.9374822"
     inkscape:window-x="-8"
     inkscape:window-y="-8"
     inkscape:window-maximized="1"
     inkscape:current-layer="svg2" />
  <g
     id="g842"
     transform="translate(-220.29953,73.093804)">
    <path
       id="path819"
       d="m 343.84465,83.894022 c 25.31264,-43.567401 51.8214,-86.4826934 77.26334,-129.956933 25.42578,43.598451 52.59887,86.234268 77.7822,129.956933 -33.54005,12.685157 -62.42651,37.667328 -76.90935,69.589828 -9.97312,-17.38813 -21.69193,-34.18938 -38.01744,-46.68822 -12.05826,-9.579867 -25.89454,-16.799689 -40.11875,-22.901608 z"
       inkscape:connector-curvature="0"
       style="fill:#21907e;stroke:#21907e;stroke-width:0.09380002" />
    <path
       id="path821"
       d="m 331.13985,104.65297 c 32.2146,9.47117 58.62638,34.17385 70.523,64.31082 12.12291,35.32282 7.85564,73.20752 8.61534,109.7414 -7.01512,-0.0155 -13.99792,0 -20.99688,0 -0.21013,-24.7477 0.67889,-49.52958 -0.53341,-74.24779 -2.47307,-16.11653 -6.70801,-32.54202 -16.50331,-46.12772 -12.46236,-16.78572 -30.50125,-29.75035 -51.11019,-35.79017 3.20045,-6.02428 6.61103,-11.95541 10.00545,-17.88654 z"
       inkscape:connector-curvature="0"
       style="fill:#295da3;stroke:#295da3;stroke-width:0.09380002" />
    <path
       id="path823"
       d="m 434.8974,193.27831 c 4.24948,-40.77263 36.33478,-76.46808 76.66527,-88.7511 3.52372,5.88455 7.03128,11.76909 10.42408,17.71575 -32.95814,9.75064 -61.50355,37.18599 -65.02567,71.0338 -2.79473,28.36694 -1.00215,56.96522 -1.40624,85.42688 -7.01513,-0.0155 -13.99793,0 -20.98072,0 0.20851,-28.47408 -0.77749,-56.96367 0.32328,-85.42533 z"
       inkscape:connector-curvature="0"
       style="fill:#295da3;stroke:#295da3;stroke-width:0.09380002" />
    <path
       id="path825"
       d="m 307.55675,143.48478 c 19.67144,3.91268 38.51851,15.21598 47.84507,32.66778 5.52805,8.74143 7.06362,19.11315 8.59919,29.05011 2.08514,24.43873 0.84052,49.00324 1.00216,73.48699 l -137.6031,-0.13974 c 26.92903,-44.90267 53.95503,-89.75876 80.15668,-135.06514 z"
       inkscape:connector-curvature="0"
       style="fill:#21907e;stroke:#21907e;stroke-width:0.09380002"
       sodipodi:nodetypes="cccccc" />
    <path
       id="path827"
       d="m 480.979,192.81252 c 4.60671,-25.71191 27.80025,-44.31112 53.42,-49.80906 15.16334,22.43582 27.23775,46.59507 41.96304,69.28086 13.6407,21.24027 26.77279,45.51823 40.5622,66.6638 l -137.09288,-0.27243 c 0.50108,-28.59984 -1.61639,-57.34096 1.14764,-85.86317 z"
       inkscape:connector-curvature="0"
       style="fill:#21907e;stroke:#21907e;stroke-width:0.09380002"
       sodipodi:nodetypes="cccccc" />
  </g>
</svg>
