<?xml version="1.0" encoding="UTF-8" standalone="no"?>
<!-- Generator: Adobe Illustrator 16.0.0, SVG Export Plug-In . SVG Version: 6.00 Build 0)  -->

<svg
   xmlns:dc="http://purl.org/dc/elements/1.1/"
   xmlns:cc="http://creativecommons.org/ns#"
   xmlns:rdf="http://www.w3.org/1999/02/22-rdf-syntax-ns#"
   xmlns:svg="http://www.w3.org/2000/svg"
   xmlns="http://www.w3.org/2000/svg"
   xmlns:sodipodi="http://sodipodi.sourceforge.net/DTD/sodipodi-0.dtd"
   xmlns:inkscape="http://www.inkscape.org/namespaces/inkscape"
   version="1.1"
   id="Layer_1"
   x="0px"
   y="0px"
   width="250"
   height="242.34723"
   viewBox="0 0 250 242.34722"
   enable-background="new 0 0 414 276"
   xml:space="preserve"
   inkscape:version="0.48.4 r"
   sodipodi:docname="Symbol_of_Tatsuno_Hyogo.svg"><metadata
     id="metadata17"><rdf:RDF><cc:Work
         rdf:about=""><dc:format>image/svg+xml</dc:format><dc:type
           rdf:resource="http://purl.org/dc/dcmitype/StillImage" /><dc:title></dc:title></cc:Work></rdf:RDF></metadata><defs
     id="defs15" /><sodipodi:namedview
     pagecolor="#ffffff"
     bordercolor="#666666"
     borderopacity="1"
     objecttolerance="10"
     gridtolerance="10"
     guidetolerance="10"
     inkscape:pageopacity="0"
     inkscape:pageshadow="2"
     inkscape:window-width="1280"
     inkscape:window-height="961"
     id="namedview13"
     showgrid="false"
     inkscape:zoom="2.948"
     inkscape:cx="125"
     inkscape:cy="121.17361"
     inkscape:window-x="-8"
     inkscape:window-y="-8"
     inkscape:window-maximized="1"
     inkscape:current-layer="Layer_1"
     fit-margin-top="0"
     fit-margin-left="0"
     fit-margin-right="0"
     fit-margin-bottom="0" /><path
     sodipodi:type="arc"
     style="fill:#f1071f;fill-opacity:1;stroke:none"
     id="path3774"
     sodipodi:cx="189.41582"
     sodipodi:cy="73.446899"
     sodipodi:rx="14.092728"
     sodipodi:ry="14.331588"
     d="m 203.50854,73.446899 a 14.092728,14.331588 0 1 1 -28.18545,0 14.092728,14.331588 0 1 1 28.18545,0 z"
     transform="matrix(1.9645817,0,0,1.9318387,-248.79408,-114.20125)" /><path
     d="M 217.58956,57.229958 C 229.3219,55.123768 239.39062,48.466926 250,43.481798 241.00972,60.35454 228.25387,75.617027 211.3688,85.081343 191.96598,95.95689 168.87449,95.91796 147.32908,96.727511 c -15.77913,0.823753 -29.82554,8.635209 -43.44588,15.850149 10.83662,-20.125145 27.26212,-37.834621 48.88549,-46.385834 20.68692,-8.180872 43.40387,-5.117083 64.82087,-8.961868 z"
     id="path7"
     style="fill:#284096"
     inkscape:connector-curvature="0"
     sodipodi:nodetypes="scsccss" /><path
     d="m 37.75995,58.749641 c 33.553008,-3.116947 67.98806,-1.619102 100.4269,8.223331 -27.05604,0.26985 -55.490813,0.723283 -80.117119,13.520917 -4.972118,2.583873 -10.999877,6.672956 -10.893428,12.83919 0.07854,4.546167 3.564864,8.265941 7.214943,10.737201 11.461534,7.58421 25.266504,9.54417 38.176708,13.4357 C 70.113573,115.64543 47.682145,110.78749 27.079562,101.67003 17.013751,97.215514 5.3069082,91.827599 0.69104889,81.061994 -1.7234005,75.778611 2.6173961,70.613961 7.0964414,67.952954 16.466125,62.386422 27.11771,59.738264 37.75995,58.749641 z"
     id="path9"
     style="fill:#1d8b43"
     inkscape:connector-curvature="0"
     sodipodi:nodetypes="scssccscss" /><path
     d="m 143.55118,161.97446 c 5.44231,-15.96769 6.02192,-33.00695 9.75722,-49.36839 2.10199,37.76483 2.20496,77.52201 -13.18005,112.84001 -3.15106,7.23359 -8.08131,16.76054 -17.11419,16.90115 -6.36278,-0.71014 -11.0476,-6.09409 -13.9896,-11.37632 -8.93141,-16.03594 -12.299493,-34.44141 -14.4867,-52.46315 -2.613286,-20.49583 -3.391591,-40.38096 -1.971327,-61.00178 6.334379,22.59641 7.394578,46.34099 20.619397,66.63739 3.53338,5.42275 11.31542,8.69506 16.53188,3.97816 7.53959,-6.81754 10.66888,-16.86246 13.83337,-26.14707 z"
     id="path11"
     style="fill:#1d8b43"
     inkscape:connector-curvature="0"
     sodipodi:nodetypes="scscsccsss" /></svg>