<?xml version="1.0" encoding="UTF-8"?><svg width="400" height="451" viewBox="50 24 400 451" xmlns="http://www.w3.org/2000/svg">
 <path xmlns="http://www.w3.org/2000/svg" fill="#0c39ac" d="m250 25-20.04 57.73a196.7 196.7 0 0 0 -96.92 37.76l20.26 24.13a165.2 165.2 0 0 1 84.73 -30.84v13.72a151.4 151.4 0 0 0 -75.9 27.63l10.41 12.4 7.374 8.781 27.98 33.32a80.64 80.64 0 0 1 18.65 -8.38l-29.22-34.8a123.9 123.9 0 0 1 40.71 -11.41v43.6a80.64 80.64 0 0 1 11.9 -0.9 80.64 80.64 0 0 1 11.63 0.9434v-43.63a123.9 123.9 0 0 1 41.01 11.34l-29.25 34.83a80.64 80.64 0 0 1 18.61 8.43l28.09-33.45 6.913-8.233 10.75-12.8a151.4 151.4 0 0 0 -76.12 -27.59v-13.82a165.2 165.2 0 0 1 85.02 30.81l20.24-24.11a196.7 196.7 0 0 0 -96.8 -37.36l-20.1-57.94zm-126.4 102.6a196.7 196.7 0 0 0 -70.28 150.7 196.7 196.7 0 0 0 196.7 196.7 196.7 196.7 0 0 0 196.7 -196.7 196.7 196.7 0 0 0 -70.5 -150.6l-20.1 24a165.2 165.2 0 0 1 59.1 126.6 165.2 165.2 0 0 1 -165.2 165.2 165.2 165.2 0 0 1 -165.2 -165.2 165.2 165.2 0 0 1 59.2 -126.5l-20.33-24.21zm29.09 34.64a151.4 151.4 0 0 0 -54.14 116.1 151.4 151.4 0 0 0 151.4 151.5 151.4 151.4 0 0 0 151.4 -151.5 151.4 151.4 0 0 0 -54.3 -116l-17.63 20.99a123.9 123.9 0 0 1 44.4 95 123.9 123.9 0 0 1 -123.9 123.9 123.9 123.9 0 0 1 -123.9 -123.9 123.9 123.9 0 0 1 44.4 -94.9l-17.77-21.17zm26.56 31.63c-24.98 20.92-39.41 51.83-39.42 84.41 0 60.83 49.31 110.1 110.1 110.1 60.83 0 110.1-49.31 110.1-110.1-0.0404-32.6-14.52-63.52-39.55-84.41l-18.91 22.52c18.35 15.32 28.96 37.98 28.97 61.89 0 44.54-36.1 80.64-80.64 80.64s-80.64-36.1-80.64-80.64c0.0303-23.86 10.62-46.47 28.93-61.77l-18.9-22.5z"/>
</svg>