<?xml version="1.0" encoding="UTF-8" standalone="no"?>
<!-- Created with Inkscape (http://www.inkscape.org/) -->
<svg id="svg20815" xmlns:rdf="http://www.w3.org/1999/02/22-rdf-syntax-ns#" xmlns="http://www.w3.org/2000/svg" height="200" width="260" version="1.1" xmlns:cc="http://creativecommons.org/ns#" xmlns:dc="http://purl.org/dc/elements/1.1/" viewBox="0 0 260 200">
 <metadata id="metadata20820">
  <rdf:RDF>
   <cc:Work rdf:about="">
    <dc:format>image/svg+xml</dc:format>
    <dc:type rdf:resource="http://purl.org/dc/dcmitype/StillImage"/>
    <dc:title/>
   </cc:Work>
  </rdf:RDF>
 </metadata>
 <g id="layer40">
  <path id="circle21599" d="m130 0a100 100 0 0 0 -93.77 65.469l-0.068-0.031-12.209 33.14s-2.7239 7.3987-9.1934 11.91c-6.4697 4.51-14.358 4.51-14.358 4.51h104.5s7.6183 0.00023 13.867-4.3574c6.2489-4.3576 8.8828-11.506 8.8828-11.506l15.121-41.055-8.2109-3.0234s-11.41-4.2034-20.074 0.79883-13.631 14.76-13.631 14.76-1.5582 4.2275-5.2539 6.8047c-3.691 2.576-8.197 2.577-8.197 2.577l-19.086-0.002a65 65 0 0 1 61.682 -44.998 65 65 0 0 1 61.81 45h36.062a100 100 0 0 0 -97.87 -80zm25.096 85s-7.6183-0.000228-13.867 4.3574c-6.2489 4.3576-8.8828 11.506-8.8828 11.506l-15.121 41.055 8.2109 3.0234s11.41 4.2034 20.074-0.79883 13.631-14.76 13.631-14.76 1.5582-4.2275 5.2539-6.8047c3.69-2.58 8.2-2.58 8.2-2.58h19.123a65 65 0 0 1 -61.72 45 65 65 0 0 1 -61.762 -45h-36.109a100 100 0 0 0 97.871 80 100 100 0 0 0 93.77 -65.47l0.0684 0.0312 12.209-33.141s2.7239-7.3987 9.1934-11.91c6.47-4.51 14.36-4.51 14.36-4.51h-104.5z" fill-rule="evenodd" fill="#01019f"/>
 </g>
</svg>
