<svg xmlns="http://www.w3.org/2000/svg" width="200" height="160"><path fill="#007a7b" d="M170.771 66.232c-.949.02-13.082.449-28.723 7.938-9.777-5.392-20.443-13.607-29.311-26.187.072.108-2.998-4.902-5.1-11.067 12.467-2.531 22.918-11.331 27.157-23.52 0 0-11.351-1.037-11.965.118-3.515 6.537-9.787 11.146-17.06 12.721V3.175h-11.53V26.1c-7.091-1.716-13.134-6.306-16.533-12.75-.626-1.174-11.976-.278-11.976-.278 4.103 12.174 14.354 21.045 26.689 23.736-2.12 6.198-5.304 11.374-5.333 11.453-8.767 12.418-19.36 20.56-29.085 25.928-15.631-7.508-27.764-7.938-28.646-7.957-13.603 0-28.079 4.582-28.079 14.646 0 10.048 14.476 14.625 27.95 14.625h.244l.258-.028c.897-.08 13.128-1.233 28.312-8.432 9.405 5.377 19.93 13.781 29.598 26.975.075.09 2.883 3.965 4.94 10.067-12.399 2.647-22.731 11.529-26.847 23.765 0 0 11.349.91 11.975-.26 3.447-6.552 9.639-11.18 16.85-12.826v22.061h11.521v-22.061c7.214 1.646 13.396 6.289 16.839 12.793.594 1.112 11.879-.033 11.879-.033-4.27-12.234-14.796-21.082-27.349-23.551 2.049-6.039 4.794-9.832 4.847-9.881 9.723-13.253 20.271-21.672 29.711-27.049 15.174 7.197 27.367 8.352 28.275 8.432l.236.028h.254c13.459 0 27.949-4.577 27.949-14.625.003-10.064-14.488-14.646-27.947-14.646M29.01 84.115c-8.288-.046-13.334-1.955-15.383-3.237 2.063-1.312 7.19-3.271 15.603-3.271.482.019 6.087.291 14.256 2.979-7.844 2.648-13.459 3.407-14.476 3.529m74.011 23.209c-.113.143-1.418 1.9-3.025 4.9-1.614-3.049-2.951-4.82-3.094-4.989-8.828-12.033-18.357-20.532-27.435-26.527 9.315-6.009 18.935-14.427 27.247-26.2.225-.345 1.639-2.64 3.28-6.048 1.612 3.337 2.974 5.533 3.099 5.75 8.428 11.935 18.11 20.423 27.506 26.479-9.104 6.014-18.697 14.555-27.578 26.635m53.547-26.738c8.179-2.688 13.822-2.96 14.351-2.979 8.304 0 13.394 1.96 15.465 3.256-2.043 1.297-7.112 3.206-15.378 3.252-.998-.122-6.593-.866-14.438-3.529m-57.15-10.854c-6.247 0-11.313 5-11.313 11.15 0 6.166 5.064 11.152 11.313 11.152 6.229 0 11.298-4.986 11.298-11.152 0-6.15-5.07-11.15-11.298-11.15"/></svg>