<?xml version="1.0" encoding="UTF-8" standalone="no"?>
<!-- Created with Inkscape (http://www.inkscape.org/) -->

<svg
   xmlns:svg="http://www.w3.org/2000/svg"
   xmlns="http://www.w3.org/2000/svg"
   version="1.1"
   width="550"
   height="300"
   id="svg2816"
   xml:space="preserve"><defs
     id="defs2820" /><g
     transform="matrix(1.25,0,0,-1.25,96.898537,567.62396)"
     id="g2826"><path
       d="m 233.10676,397.21263 -9.10455,-5.25608 c -17.52027,24.69309 -45.3131,40.11691 -75.54679,41.92884 l 0,-54.89684 c 22.5068,-3.00989 39.33824,-22.20731 39.33824,-44.90878 0,-22.73143 -16.83144,-41.92885 -39.33824,-44.90879 l 0,-54.91181 c 15.49869,0.89848 30.56313,5.4208 44.01031,13.22256 l 150.01544,86.59804 -54.68722,31.56643 -45.46285,-26.26543 c -0.23959,4.40253 -0.74873,8.74516 -1.54238,12.95302 l 35.02556,20.23067 -42.70752,24.64817 z m -96.61604,-18.22408 c -22.49183,-2.99491 -39.323264,-22.20731 -39.323264,-44.90878 0,-22.73143 16.801484,-41.92885 39.323264,-44.90879 l 0,-54.91181 c -30.27861,1.79695 -58.041498,17.22078 -75.531816,41.92884 l -9.074599,-5.2411 -42.7063236,24.64817 35.0105836,20.21569 c -0.838577,4.19289 -1.347713,8.50557 -1.557357,12.93804 L -2.8016886,302.51334 -57.51883,334.07977 92.48041,420.66283 c 13.40226,7.75684 28.46669,12.30911 44.01031,13.22256 l 0,-54.89684 z"
       id="path2878"
       style="fill:#0178ff;fill-opacity:1;stroke:none" /></g></svg>