<?xml version="1.0" encoding="UTF-8"?><svg width="451" height="300" viewBox="24 100 451 300" xmlns="http://www.w3.org/2000/svg" xmlns:xlink="http://www.w3.org/1999/xlink" version="1.1">
 <path xmlns="http://www.w3.org/2000/svg" id="a" d="m250 130-86.6 57.7 16.9 11.2 19.1-12.7 33.7 22.5v26.3h33.8v-26.3l33.7-22.5 19.1 12.7 16.9-11.2zm0 22.5 33.7 22.5-33.7 22.5-33.7-22.5zm-93.4 39.8-86.6 57.7 86.6 57.7 16.9-11.2-19.1-12.7 33.8-22.5h45v-22.5h-45l-33.8-22.5 19.1-12.7zm-19.1 35.2 33.7 22.5-33.7 22.5-33.7-22.5z" fill="#000000"/>
 <use xmlns="http://www.w3.org/2000/svg" xmlns:xlink="http://www.w3.org/1999/xlink" xlink:href="#a" transform="rotate(180,250,250)"/>
 <path xmlns="http://www.w3.org/2000/svg" d="m250 100-225 150 225 150 225-150zm0 22.5 191.3 127.5-191.3 127.5-191.3-127.5z" fill="#000000"/>
</svg>