<?xml version="1.0" encoding="UTF-8" standalone="no"?>
<!-- Created with Inkscape (http://www.inkscape.org/) -->
<svg
   xmlns:svg="http://www.w3.org/2000/svg"
   xmlns="http://www.w3.org/2000/svg"
   version="1.0"
   width="450"
   height="450"
   id="svg2">
  <defs
     id="defs4" />
  <g
     transform="translate(-27,-23.875)"
     id="layer1">
    <g
       transform="translate(22,26)"
       style="fill:#000000;fill-opacity:1"
       id="g15828">
      <path
         d="M 104,251.36218 C 104,251.36218 143.34757,238.34058 167.84757,224.09058 C 192.34757,209.84058 203,193.36218 203,193.36218 C 203,193.36218 189.71249,192.74786 175.71249,182.74786 C 161.71249,172.74786 147,153.36218 147,153.36218 C 147,153.36218 170.29211,169.50143 188.04211,176.25143 C 205.79211,183.00143 215,180.36218 215,180.36218 C 215,180.36218 221.63473,170.20767 224.13473,156.20767 C 226.63473,142.20767 228,124.36218 228,124.36218 C 228,124.36218 230.14593,141.96112 232.89593,154.96112 C 235.64593,167.96112 243,180.36218 243,180.36218 C 243,180.36218 255.08621,179.3277 272.58621,172.3277 C 290.08621,165.3277 309,148.36218 309,148.36218 C 309,148.36218 297.35294,166.77394 283.35294,178.77394 C 269.35294,190.77394 250,195.36218 250,195.36218 C 250,195.36218 264.72747,211.00304 285.47747,222.75304 C 306.22747,234.50304 336,243.36218 336,243.36218 C 336,243.36218 298.64271,239.64918 271.89271,229.64918 C 245.14271,219.64918 229,203.36218 229,203.36218 C 229,203.36218 195.37964,228.21447 164.12964,239.71447 C 132.87964,251.21447 104,251.36218 104,251.36218 z "
         style="fill:#000000;fill-opacity:1;fill-rule:evenodd;stroke:none;stroke-width:1px;stroke-linecap:butt;stroke-linejoin:miter;stroke-opacity:1"
         id="path7032" />
      <path
         d="M 193,239.36218 C 193,239.36218 220.11905,261.18044 222.51387,271.80746 C 226.51387,289.55746 230,333.36218 230,333.36218 C 230,333.36218 229.42774,287.42176 236.98547,269.34683 C 243.09941,254.72485 265,237.36218 265,237.36218 C 265,237.36218 245.81726,247.3038 227.81726,247.8038 C 209.81726,248.3038 193,239.36218 193,239.36218 z "
         style="fill:#000000;fill-opacity:1;fill-rule:evenodd;stroke:none;stroke-width:1px;stroke-linecap:butt;stroke-linejoin:miter;stroke-opacity:1"
         id="path8974" />
      <path
         d="M 250 233.36218 A 15 15 0 1 1  220,233.36218 A 15 15 0 1 1  250 233.36218 z"
         transform="matrix(0.7333333,0,0,0.7333333,18.66667,120.22992)"
         style="fill:#000000;fill-opacity:1;stroke:none;stroke-width:13.63636398;stroke-linecap:butt;stroke-linejoin:miter;stroke-miterlimit:4;stroke-dasharray:none;stroke-dashoffset:0;stroke-opacity:1"
         id="path9945" />
      <path
         d="M 250 233.36218 A 15 15 0 1 1  220,233.36218 A 15 15 0 1 1  250 233.36218 z"
         transform="matrix(0.7333333,0,0,0.7333333,94.66667,121.22992)"
         style="fill:#000000;fill-opacity:1;stroke:none;stroke-width:13.63636398;stroke-linecap:butt;stroke-linejoin:miter;stroke-miterlimit:4;stroke-dasharray:none;stroke-dashoffset:0;stroke-opacity:1"
         id="path10916" />
    </g>
    <g
       transform="translate(22,26)"
       style="stroke:#000000;stroke-opacity:1"
       id="g14850">
      <path
         d="M 199,28.875 C 199,28.874999 182,44.125001 170,66.375 C 158,88.625002 151,117.875 151,117.875 C 151,117.875 117.65625,115.1875 91.90625,119.1875 C 66.156253,123.1875 48,133.875 48,133.875 C 48,133.875 48.34375,144.84375 51.09375,153.84375 C 53.843749,162.84375 59,169.875 59,169.875 C 59,169.875 51.75,174.125 45,180.875 C 38.25,187.625 32,196.875 32,196.875 C 32,196.875 43.9375,221.65625 60.6875,240.15625 C 77.4375,258.65625 99,270.875 99,270.875 C 99,270.875 85.09375,292.59375 81.84375,318.09375 C 78.593751,343.59376 86,372.875 86,372.875 C 86,372.875 95.75,374.125 104,374.375 C 112.25,374.625 119,373.875 119,373.875 C 119,373.875 121.875,382.40625 125.125,390.40625 C 128.375,398.40625 132,405.875 132,405.875 C 132,405.875 159.9375,405.4375 184.4375,392.6875 C 204.69333,382.14621 224.40336,362.38206 230,356.125 C 235.59664,362.38206 251.30665,382.14621 271.5625,392.6875 C 296.0625,405.4375 324,405.875 324,405.875 C 324,405.875 328.62499,399.40625 331.875,391.40625 C 335.125,383.40625 337,373.875 337,373.875 C 337,373.875 343.75001,374.625 352,374.375 C 360.25,374.125 371,372.875 371,372.875 C 371,372.875 375.40625,340.59376 372.15625,315.09375 C 368.90625,289.59375 353,262.875 353,262.875 C 353,262.875 378.56249,258.65625 395.3125,240.15625 C 412.0625,221.65625 429,191.875 429,191.875 C 429,191.875 420.75,185.625 414,178.875 C 407.25,172.125 397,169.875 397,169.875 C 397,169.875 402.15625,162.84375 404.90625,153.84375 C 407.65625,144.84375 408,133.875 408,133.875 C 408,133.875 389.84376,123.1875 364.09375,119.1875 C 338.34375,115.1875 305,117.875 305,117.875 C 305,117.875 303,89.624997 291,67.375 C 279,45.125 257,28.874999 257,28.875 C 257,28.875 250.5,31.6875 242.75,36.4375 C 232.22499,42.888317 230.00071,44.923584 228,46.46875 C 225.99929,44.923583 223.77501,42.888315 213.25,36.4375 C 205.5,31.687502 199,28.875 199,28.875 z "
         style="fill:none;fill-opacity:0.75;fill-rule:evenodd;stroke:#000000;stroke-width:10;stroke-linecap:butt;stroke-linejoin:miter;stroke-miterlimit:4;stroke-dasharray:none;stroke-opacity:1"
         id="path6056" />
      <path
         d="M 250 233.36218 A 15 15 0 1 1  220,233.36218 A 15 15 0 1 1  250 233.36218 z"
         transform="matrix(0.7333333,0,0,0.7333333,56.666667,56.229915)"
         style="fill:none;fill-opacity:1;stroke:#000000;stroke-width:13.63636398;stroke-linecap:butt;stroke-linejoin:miter;stroke-miterlimit:4;stroke-dasharray:none;stroke-dashoffset:0;stroke-opacity:1"
         id="path8003" />
      <path
         d="M 87,123.36218 C 87,123.36218 86.513058,112.46816 87.763058,103.46816 C 89.013058,94.468161 92,87.362183 92,87.362183 C 92,87.362183 125,87.362183 125,87.362183 C 125,87.362183 124.72059,79.47983 126.47059,72.47983 C 128.22059,65.47983 132,59.362183 132,59.362183 C 132,59.362183 141.26561,58.209938 151.01561,59.209938 C 160.76561,60.209938 171,63.362183 171,63.362183"
         style="fill:none;fill-opacity:0.75;fill-rule:evenodd;stroke:#000000;stroke-width:5;stroke-linecap:butt;stroke-linejoin:miter;stroke-miterlimit:4;stroke-dasharray:none;stroke-opacity:1"
         id="path10921" />
      <path
         d="M 50,231.36218 C 50,231.36218 43.491892,241.76353 40.491892,251.51353 C 37.491892,261.26353 38,270.36218 38,270.36218 L 56,283.36218 C 56,283.36218 51.849057,289.89048 49.849057,296.89048 C 47.849057,303.89048 48,311.36218 48,311.36218 C 48,311.36218 52.958865,316.36755 61.208865,321.36755 C 69.458865,326.36755 81,331.36218 81,331.36218"
         style="fill:none;fill-opacity:0.75;fill-rule:evenodd;stroke:#000000;stroke-width:5;stroke-linecap:butt;stroke-linejoin:miter;stroke-miterlimit:4;stroke-dasharray:none;stroke-opacity:1"
         id="path11892" />
      <path
         d="M 369,121.36218 C 369,121.36218 369.48694,110.46816 368.23694,101.46816 C 366.98694,92.46816 364,85.36219 364,85.36219 C 364,85.36219 356.25,81.36219 348,81.36219 C 339.75,81.36219 331,84.36219 331,84.36219 C 331,84.36219 331.27941,77.47983 329.52941,70.47983 C 327.77941,63.47983 324,57.36219 324,57.36219 C 324,57.36219 314.73439,56.20994 304.98439,57.20994 C 295.23439,58.20994 285,61.36219 285,61.36219"
         style="fill:none;fill-opacity:0.75;fill-rule:evenodd;stroke:#000000;stroke-width:5;stroke-linecap:butt;stroke-linejoin:miter;stroke-miterlimit:4;stroke-dasharray:none;stroke-opacity:1"
         id="path12873" />
      <path
         d="M 408,225.36218 C 408,225.36218 416.50811,237.76353 419.50811,247.51353 C 422.50811,257.26353 423,265.36218 423,265.36218 L 402,277.36218 C 402,277.36218 406.15094,283.89048 408.15094,290.89048 C 410.15094,297.89048 410,305.36218 410,305.36218 C 410,305.36218 406.70502,308.67904 397.79113,312.36755 C 390.54113,315.36755 374,317.36218 374,317.36218"
         style="fill:none;fill-opacity:0.75;fill-rule:evenodd;stroke:#000000;stroke-width:5;stroke-linecap:butt;stroke-linejoin:miter;stroke-miterlimit:4;stroke-dasharray:none;stroke-opacity:1"
         id="path12875" />
      <path
         d="M 176,394.36218 C 176,394.36218 184.25,407.36218 193,414.36218 C 201.75,421.36218 211,422.36218 211,422.36218 L 229,408.36218 L 251,422.36218 C 251,422.36218 259.5,420.86218 266,414.36218 C 272.5,407.86218 277,396.36218 277,396.36218"
         style="fill:none;fill-opacity:0.75;fill-rule:evenodd;stroke:#000000;stroke-width:5;stroke-linecap:butt;stroke-linejoin:miter;stroke-miterlimit:4;stroke-dasharray:none;stroke-opacity:1"
         id="path12886" />
    </g>
  </g>
</svg>
