<?xml version="1.0" encoding="UTF-8" standalone="no"?>
<!-- Created with Inkscape (http://www.inkscape.org/) -->

<svg
   xmlns:svg="http://www.w3.org/2000/svg"
   xmlns="http://www.w3.org/2000/svg"
   version="1.0"
   width="440"
   height="400"
   id="svg2">
  <defs
     id="defs5" />
  <path
     d="M 12,12.64375 24.5,63.55 l 38.375,12.84375 8,10.0625 -44.40625,-14.84375 10.75,43.84375 38.28125,12.8125 8,10.0625 -44.3125,-14.8125 10.8125,44.125 116.71875,39.125 c -26.98248,17.4904 -44.84374,47.87781 -44.84375,82.40625 0,53.16302 42.34445,96.50577 95.125,98.09375 l 0,-14.625 c -36.85003,-1.5748 -66.28125,-31.95226 -66.28125,-69.1875 0,-38.24173 31.03952,-69.28125 69.28125,-69.28125 38.24172,10e-6 69.28125,31.03952 69.28125,69.28125 -2e-5,37.57074 -29.96603,68.15582 -67.28125,69.21875 l 0,14.625 c 53.24351,-1.06771 96.12503,-44.62747 96.125,-98.125 0,-34.52845 -17.86127,-64.91585 -44.84375,-82.40625 L 390,167.64375 l 10.8125,-44.125 -44.3125,14.8125 8,-10.0625 38.28125,-12.8125 10.75,-43.84375 -44.40625,14.84375 8,-10.0625 L 415.5,63.55 428,12.64375 l -208,154.5 -208,-154.5 z"
     id="rect2392"
     style="fill:#3c2e1b;fill-opacity:1;stroke:none" />
</svg>
