<?xml version="1.0" encoding="UTF-8" standalone="no"?>
<!-- Created with Inkscape (http://www.inkscape.org/) -->

<svg
   xmlns:svg="http://www.w3.org/2000/svg"
   xmlns="http://www.w3.org/2000/svg"
   version="1.0"
   width="400"
   height="400"
   id="svg2">
  <defs
     id="defs5" />
  <path
     d="m 209,20 0,24.75 c 26.50151,4.30514 46.75,27.28837 46.75,55 0,4.68139 -0.59686,9.21763 -1.6875,13.5625 7.78464,4.35227 14.98273,9.59641 21.46875,15.625 C 284.08347,123.5948 294.17969,120.5 305,120.5 c 30.774,0 55.75,24.976 55.75,55.75 0,29.45807 -22.89401,53.58309 -51.84375,55.59375 -1.75925,8.91735 -4.58554,17.42437 -8.34375,25.4375 12.03954,10.22728 19.6875,25.44501 19.6875,42.46875 0,30.774 -24.976,55.75 -55.75,55.75 -12.65598,0 -24.33398,-4.22265 -33.6875,-11.34375 10.6183,-2.38238 20.74964,-6.01989 30.34375,-10.84375 l -13.25,-22.4375 c -10.89836,5.26237 -22.58822,8.58842 -35,9.9375 0,0 -0.3125,-0.0625 -0.3125,-0.0625 0,0 -0.0937,-0.21875 -0.0937,-0.21875 1.73948,-6.48483 2.70863,-13.29117 2.75,-20.3125 43.11826,-7.26467 75.99997,-44.79492 76,-89.96875 0,-47.32984 -36.10403,-86.28305 -82.25,-90.8125 l 0,23.9375 c 33.0098,4.40456 58.5,32.66653 58.5,66.875 3e-5,37.25999 -30.24,67.5 -67.5,67.5 -37.26001,-10e-6 -67.5,-30.24 -67.5,-67.5 -10e-6,-33.85926 24.98101,-61.87887 57.5,-66.71875 l 0,-23.96875 c -45.66524,4.99102 -81.25001,43.70097 -81.25,90.6875 0,47.23258 35.95894,86.12003 81.96875,90.78125 -0.15792,6.84739 -1.55305,13.38034 -3.96875,19.40625 -0.0382,0.0953 -0.0863,0.18623 -0.125,0.28125 -12.1355,-1.39631 -23.61898,-4.68277 -34.28125,-9.78125 l -13.2188,22.46875 c 9.38189,4.67758 19.30031,8.24812 29.6875,10.625 C 159.43519,351.21332 147.71638,355.5 135,355.5 c -30.774,0 -55.75,-24.976 -55.75,-55.75 0,-17.19648 7.81135,-32.55252 20.0625,-42.78125 -3.68708,-7.92436 -6.48186,-16.32099 -8.21875,-25.125 C 62.13771,229.83897 39.25,205.71263 39.25,176.25 39.25,145.476 64.226,120.5 95,120.5 c 10.82031,0 20.91653,3.0948 29.46875,8.4375 6.48602,-6.02859 13.68411,-11.27273 21.46875,-15.625 -1.09064,-4.34487 -1.6875,-8.88111 -1.6875,-13.5625 0,-27.35886 19.74517,-50.12549 45.75,-54.84375 L 190,20.125 c -39.58459,4.92713 -70.25,38.71306 -70.25,79.625 0,0.0629 -1.4e-4,0.12462 0,0.1875 C 111.94859,97.4061 103.64157,96 95,96 c -44.298,0 -80.25,35.952 -80.25,80.25 0,35.61144 23.24827,65.7996 55.375,76.28125 -9.66945,13.2542 -15.375,29.56808 -15.375,47.21875 0,44.298 35.952,80.25 80.25,80.25 26.4078,0 49.8416,-12.79491 64.46875,-32.5 0.17784,6.5e-4 0.35322,0 0.53125,0 0.0105,0 0.0208,0 0.0312,0 14.62715,19.70509 38.06095,32.5 64.46875,32.5 44.298,0 80.25,-35.952 80.25,-80.25 0,-17.59463 -5.66759,-33.8622 -15.28125,-47.09375 32.33536,-10.35956 55.78125,-40.646 55.78125,-76.40625 0,-44.298 -35.952,-80.25 -80.25,-80.25 -8.64157,0 -16.94859,1.4061 -24.75,3.9375 1.4e-4,-0.0629 0,-0.12459 0,-0.1875 0,-41.25277 -31.18732,-75.26831 -71.25,-79.75 z"
     id="path2407"
     style="fill:#999999;fill-opacity:1;stroke:none" />
</svg>
