<?xml version="1.0" encoding="UTF-8" standalone="no"?>
<!-- Created with Inkscape (http://www.inkscape.org/) -->

<svg
   xmlns:svg="http://www.w3.org/2000/svg"
   xmlns="http://www.w3.org/2000/svg"
   version="1.1"
   width="520"
   height="540"
   id="svg2">
  <defs
     id="defs4" />
  <g
     transform="translate(-4.9098969e-7,-512.26843)"
     id="layer1">
    <path
       d="m 260,532.45596 c -22.62538,0 -45.2703,2.96881 -67.3125,8.875 l 5.1875,19.25 C 139.07442,576.3004 89.154832,613.79113 57.3125,663.89346 l 78.0625,45.0625 c 19.96844,-29.74754 50.28415,-51.95199 85.8125,-61.4375 L 260,792.45596 298.8125,647.51846 c 35.52836,9.48551 65.84408,31.68996 85.8125,61.4375 l 78.0625,-45.0625 C 430.84518,613.79113 380.92558,576.3004 322.125,560.58096 l 5.1875,-19.25 c -22.0422,-5.90619 -44.68712,-8.875 -67.3125,-8.875 z m -212.6875,148.75 C 29.874504,714.46813 20,752.29517 20,792.45596 20,921.65752 122.08499,1027.0304 250,1032.2684 l 0,-90.18744 c -78.18131,-5.14484 -140,-70.14186 -140,-149.625 0,-23.74584 5.55175,-46.16881 15.375,-66.125 l -78.0625,-45.125 z m 425.375,0 -78.0625,45.125 c 9.82324,19.95619 15.375,42.37916 15.375,66.125 0,79.48314 -61.81868,144.48016 -140,149.625 l 0,90.18744 c 127.91502,-5.238 230,-110.61088 230,-239.81244 0,-40.16079 -9.8745,-77.98783 -27.3125,-111.25 z"
       id="path2816"
       style="fill:#009c54;fill-opacity:1;stroke:none" />
  </g>
</svg>
