<?xml version="1.0" encoding="utf-8" standalone="no"?>
<svg xmlns:svg="http://www.w3.org/2000/svg" xmlns="http://www.w3.org/2000/svg" version="1.1" width="500" height="500" viewBox="-250 -250 500 500">
	<title>Yamatotakada, Nara Chapter</title>
	<g style="fill:#aa1c68;stroke:none">
		<path d="M 168,212 A 408,408 0 0 0 0,-118.25 408,408 0 0 0 -168,212 L -240,212 A 480,480 0 0 1 0,-203.6922 480,480 0 0 1 240,212 L 168,212 z" />
		<path d="M -68,-85.90625 -104,-23.5625 A 272,272 0 0 1 32,212 L 104,212 A 344,344 0 0 0 -68,-85.90625 z" />
		<path d="M 68,-85.90625 A 344,344 0 0 0 -104,212 L -32,212 A 272,272 0 0 1 104,-23.5625 L 68,-85.90625 z" />
	</g>
</svg>