<?xml version="1.0" encoding="UTF-8" standalone="no"?>
<!-- Created with Inkscape (http://www.inkscape.org/) -->

<svg
   xmlns:dc="http://purl.org/dc/elements/1.1/"
   xmlns:cc="http://creativecommons.org/ns#"
   xmlns:rdf="http://www.w3.org/1999/02/22-rdf-syntax-ns#"
   xmlns:svg="http://www.w3.org/2000/svg"
   xmlns="http://www.w3.org/2000/svg"
   version="1.1"
   width="187"
   height="180"
   id="svg2">
  <metadata
     id="metadata8">
    <rdf:RDF>
      <cc:Work
         rdf:about="">
        <dc:format>image/svg+xml</dc:format>
        <dc:type
           rdf:resource="http://purl.org/dc/dcmitype/StillImage" />
        <dc:title></dc:title>
      </cc:Work>
    </rdf:RDF>
  </metadata>
  <defs
     id="defs6" />
  <g
     id="g3778">
    <path
       d="m 97.5,21.5 c -28.903091,0 -53.63507,17.788289 -63.90625,43 l 18.3125,0 C 60.949148,48.675657 77.968835,38 97.5,38 126.49495,38 150,61.505051 150,90.5 150,119.49495 126.49495,143 97.5,143 75.778654,143 57.141476,129.80864 49.15625,111 L 30,111 36.53125,122.84375 C 48.123436,144.65286 71.077148,159.5 97.5,159.5 c 38.10765,0 69,-30.89235 69,-69 0,-38.107648 -30.89235,-69 -69,-69 z"
       id="path2989"
       style="fill:#4dff4d;fill-opacity:1;stroke:#4dff4d;stroke-width:0.5;stroke-miterlimit:4;stroke-opacity:1;stroke-dasharray:none" />
    <path
       d="m 5.5,69 105,0 -12,21 24,0 -31,54 -17,-4.5 19,-33 -4.5,0 -18,30.5 -13.5,-10 12,-20.5 -42.5,0 -9.5,-16.5 61,0 2.5,-4.5 -66,0 z"
       id="path3761"
       style="fill:#4dff4d;fill-opacity:1;stroke:none" />
  </g>
</svg>
