<?xml version="1.0" encoding="UTF-8"?><svg width="455" height="322" viewBox="22 90 455 322" xmlns="http://www.w3.org/2000/svg" version="1.1">
 <clipPath xmlns="http://www.w3.org/2000/svg" id="c">
  <path d="m0 0v206.5h500v-206.5h-500zm0 217.1v52.9h500v-52.9h-500zm0 63.5v42.3h200v10.6h-200v166.4h500v-166.4h-200v-10.6h200v-42.4h-500z"/>
 </clipPath>
 <path xmlns="http://www.w3.org/2000/svg" d="m250 91-26.5 26.5a151.3 151.3 0 0 0-116.6 99.8h-82l94 124.8a151.3 151.3 0 0 0 81.2 67.2l44.5-25.7v-61.1l-47.1 27.2a98.3 98.3 0 0 1 26-178v35h52.9v-35a98.3 98.3 0 0 1 26 178l-47.1-27.2v61.1l44.5 25.7a151.3 151.3 0 0 0 81.2-67.2l94-124.8h-81.9a151.3 151.3 0 0 0-116.6-99.8z" clip-path="url(#c)" fill="#034d29"/>
</svg>