<?xml version="1.0" encoding="UTF-8" standalone="no"?>
<!-- Created with Inkscape (http://www.inkscape.org/) -->

<svg
   xmlns:dc="http://purl.org/dc/elements/1.1/"
   xmlns:cc="http://creativecommons.org/ns#"
   xmlns:rdf="http://www.w3.org/1999/02/22-rdf-syntax-ns#"
   xmlns:svg="http://www.w3.org/2000/svg"
   xmlns="http://www.w3.org/2000/svg"
   xmlns:sodipodi="http://sodipodi.sourceforge.net/DTD/sodipodi-0.dtd"
   xmlns:inkscape="http://www.inkscape.org/namespaces/inkscape"
   width="112.88889mm"
   height="113.05721mm"
   viewBox="0 0 399.99999 400.59642"
   id="svg2"
   version="1.1"
   inkscape:version="0.91 r13725"
   sodipodi:docname="Symbol of Uda Nara.svg">
  <defs
     id="defs4" />
  <sodipodi:namedview
     id="base"
     pagecolor="#ffffff"
     bordercolor="#666666"
     borderopacity="1.0"
     inkscape:pageopacity="0.0"
     inkscape:pageshadow="2"
     inkscape:zoom="0.94045699"
     inkscape:cx="143.16607"
     inkscape:cy="0.22163803"
     inkscape:document-units="px"
     inkscape:current-layer="layer1"
     showgrid="false"
     showguides="false"
     fit-margin-top="0"
     fit-margin-left="0"
     fit-margin-right="0"
     fit-margin-bottom="0"
     inkscape:window-width="1280"
     inkscape:window-height="961"
     inkscape:window-x="-8"
     inkscape:window-y="-8"
     inkscape:window-maximized="1" />
  <metadata
     id="metadata7">
    <rdf:RDF>
      <cc:Work
         rdf:about="">
        <dc:format>image/svg+xml</dc:format>
        <dc:type
           rdf:resource="http://purl.org/dc/dcmitype/StillImage" />
        <dc:title></dc:title>
      </cc:Work>
    </rdf:RDF>
  </metadata>
  <g
     inkscape:label="レイヤー 1"
     inkscape:groupmode="layer"
     id="layer1"
     transform="translate(-24.532016,-50.225301)">
    <circle
       style="fill:#f20000;fill-opacity:1;stroke:none;stroke-width:0.5;stroke-miterlimit:4;stroke-dasharray:none;stroke-opacity:1"
       id="path4149"
       cx="224.05399"
       cy="250.4736"
       r="33.366108" />
    <path
       style="fill:#003cab;fill-opacity:1;fill-rule:evenodd;stroke:none;stroke-width:1px;stroke-linecap:butt;stroke-linejoin:miter;stroke-opacity:1"
       d="m 388.74479,433.82269 c 37.41429,-37.43924 20.4699,-85.32144 3.66314,-116.81219 -29.6554,-55.5652 -109.37276,-60.52593 -98.12058,32.32671 5.90268,48.70879 41.03493,75.29409 58.35917,86.07434 -43.37954,-9.89726 -89.31239,-77.43244 -93.78725,-132.96732 -9.1514,-113.57304 91.79528,-116.85206 145.47278,-13.37549 20.03734,38.62689 38.98735,117.94319 -15.58726,144.75395 z"
       id="path4151"
       inkscape:connector-curvature="0"
       sodipodi:nodetypes="csscssc" />
    <path
       style="fill:#23ab00;fill-opacity:1;fill-rule:evenodd;stroke:none;stroke-width:1px;stroke-linecap:butt;stroke-linejoin:miter;stroke-opacity:1"
       d="M 408.30929,86.012524 C 370.87004,48.598231 322.98785,65.542618 291.4971,82.349376 c -55.5652,29.655404 -60.52594,109.372764 32.3267,98.120584 48.7088,-5.90268 75.2941,-41.03493 86.07435,-58.35917 -9.89726,43.37954 -77.43244,89.31239 -132.96732,93.78725 -113.57304,9.1514 -116.85206,-91.79528 -13.37549,-145.472783 38.62689,-20.037338 117.94319,-38.98735 144.75395,15.587267 z"
       id="path4151-3"
       inkscape:connector-curvature="0"
       sodipodi:nodetypes="csscssc" />
    <path
       style="fill:#23ab00;fill-opacity:1;fill-rule:evenodd;stroke:none;stroke-width:1px;stroke-linecap:butt;stroke-linejoin:miter;stroke-opacity:1"
       d="m 40.571047,415.03449 c 37.439249,37.4143 85.321443,20.46991 116.812193,3.66315 55.5652,-29.6554 60.52593,-109.37277 -32.32671,-98.12058 -48.708789,5.90268 -75.294087,41.03492 -86.074338,58.35917 9.897261,-43.37955 77.432438,-89.31241 132.967318,-93.78726 113.57304,-9.15141 116.85206,91.79529 13.37549,145.47279 C 146.69811,450.6591 67.381812,469.60911 40.571047,415.03449 Z"
       id="path4151-7"
       inkscape:connector-curvature="0"
       sodipodi:nodetypes="csscssc" />
    <path
       style="fill:#003cab;fill-opacity:1;fill-rule:evenodd;stroke:none;stroke-width:1px;stroke-linecap:butt;stroke-linejoin:miter;stroke-opacity:1"
       d="M 60.31924,65.767471 C 22.904946,103.20672 39.849333,151.08892 56.656091,182.57966 86.311497,238.14487 166.02885,243.10561 154.77667,150.25296 148.87399,101.54417 113.74175,74.958867 96.4175,64.178616 139.79705,74.075877 185.7299,141.61105 190.20475,197.14594 199.35616,310.71898 98.409471,313.998 44.731972,210.52144 24.694634,171.89454 5.7446222,92.578236 60.31924,65.767471 Z"
       id="path4151-3-4"
       inkscape:connector-curvature="0"
       sodipodi:nodetypes="csscssc" />
  </g>
</svg>
