<?xml version="1.0" encoding="UTF-8" ?>
<!DOCTYPE svg PUBLIC "-//W3C//DTD SVG 1.1//EN" "http://www.w3.org/Graphics/SVG/1.1/DTD/svg11.dtd">
<svg width="234pt" height="255pt" viewBox="0 0 234 255" version="1.1" xmlns="http://www.w3.org/2000/svg">
<g id="#ffffffff">
<path fill="#ffffff" opacity="1.00" d=" M 0.00 0.00 L 110.65 0.00 C 97.34 1.52 84.49 7.45 75.03 16.98 C 63.10 28.59 56.48 45.42 57.37 62.05 C 57.91 80.04 67.39 97.44 82.05 107.85 C 93.70 116.42 108.61 120.33 122.98 118.80 C 136.70 117.59 149.74 111.13 159.47 101.45 C 169.90 90.72 176.46 76.06 176.57 61.01 C 177.22 44.99 170.80 28.90 159.50 17.57 C 149.96 7.76 136.93 1.54 123.36 0.00 L 234.00 0.00 L 234.00 121.32 C 227.91 120.10 221.65 119.38 215.89 116.93 C 208.74 114.15 202.97 108.20 195.13 107.20 C 185.02 105.87 174.91 109.23 166.21 114.19 C 154.42 120.87 143.61 129.68 130.43 133.58 C 119.93 136.86 108.38 135.99 98.29 131.75 C 82.75 125.61 70.48 113.04 54.24 108.43 C 46.61 106.43 37.99 105.90 30.87 109.83 C 26.11 112.49 21.63 115.71 16.46 117.55 C 11.18 119.61 5.48 120.10 0.00 121.44 L 0.00 0.00 Z" />
<path fill="#ffffff" opacity="1.00" d=" M 114.54 32.77 C 127.20 31.49 139.99 40.47 142.84 52.92 C 145.82 63.39 141.11 75.31 132.17 81.37 C 126.70 85.13 119.76 87.00 113.17 85.88 C 105.49 84.84 98.50 80.12 94.34 73.63 C 89.97 66.71 88.95 57.74 91.96 50.09 C 95.38 40.62 104.56 33.75 114.54 32.77 Z" />
<path fill="#ffffff" opacity="1.00" d=" M 0.00 121.66 C 20.32 138.43 43.23 152.32 68.33 160.62 C 60.65 171.43 56.69 184.79 57.35 198.03 C 57.93 212.69 64.25 227.02 74.65 237.35 C 85.12 248.07 99.80 254.38 114.74 255.00 L 0.00 255.00 L 0.00 121.66 Z" />
<path fill="#ffffff" opacity="1.00" d=" M 165.62 160.63 C 190.70 152.21 213.86 138.52 234.00 121.43 L 234.00 255.00 L 119.34 255.00 C 128.51 254.48 137.63 252.16 145.66 247.63 C 159.55 240.11 170.19 226.80 174.40 211.56 C 179.34 194.39 176.00 175.16 165.62 160.63 Z" />
<path fill="#ffffff" opacity="1.00" d=" M 111.15 169.20 C 124.81 165.68 139.80 175.29 142.92 188.91 C 146.55 201.94 138.24 216.46 125.52 220.61 C 117.41 223.45 107.96 221.93 101.12 216.74 C 92.44 210.57 88.25 198.78 91.11 188.52 C 93.56 179.06 101.58 171.27 111.15 169.20 Z" />
</g>
<g id="#f6001eff">
<path fill="#f6001e" opacity="1.00" d=" M 110.65 0.00 L 123.36 0.00 C 136.93 1.54 149.96 7.76 159.50 17.57 C 170.80 28.90 177.22 44.99 176.57 61.01 C 176.46 76.06 169.90 90.72 159.47 101.45 C 149.74 111.13 136.70 117.59 122.98 118.80 C 108.61 120.33 93.70 116.42 82.05 107.85 C 67.39 97.44 57.91 80.04 57.37 62.05 C 56.48 45.42 63.10 28.59 75.03 16.98 C 84.49 7.45 97.34 1.52 110.65 0.00 M 114.54 32.77 C 104.56 33.75 95.38 40.62 91.96 50.09 C 88.95 57.74 89.97 66.71 94.34 73.63 C 98.50 80.12 105.49 84.84 113.17 85.88 C 119.76 87.00 126.70 85.13 132.17 81.37 C 141.11 75.31 145.82 63.39 142.84 52.92 C 139.99 40.47 127.20 31.49 114.54 32.77 Z" />
</g>
<g id="#309c31ff">
<path fill="#309c31" opacity="1.00" d=" M 30.87 109.83 C 37.99 105.90 46.61 106.43 54.24 108.43 C 70.48 113.04 82.75 125.61 98.29 131.75 C 108.38 135.99 119.93 136.86 130.43 133.58 C 143.61 129.68 154.42 120.87 166.21 114.19 C 174.91 109.23 185.02 105.87 195.13 107.20 C 202.97 108.20 208.74 114.15 215.89 116.93 C 221.65 119.38 227.91 120.10 234.00 121.32 L 234.00 121.43 C 213.86 138.52 190.70 152.21 165.62 160.63 C 176.00 175.16 179.34 194.39 174.40 211.56 C 170.19 226.80 159.55 240.11 145.66 247.63 C 137.63 252.16 128.51 254.48 119.34 255.00 L 114.74 255.00 C 99.80 254.38 85.12 248.07 74.65 237.35 C 64.25 227.02 57.93 212.69 57.35 198.03 C 56.69 184.79 60.65 171.43 68.33 160.62 C 43.23 152.32 20.32 138.43 0.00 121.66 L 0.00 121.44 C 5.48 120.10 11.18 119.61 16.46 117.55 C 21.63 115.71 26.11 112.49 30.87 109.83 M 111.15 169.20 C 101.58 171.27 93.56 179.06 91.11 188.52 C 88.25 198.78 92.44 210.57 101.12 216.74 C 107.96 221.93 117.41 223.45 125.52 220.61 C 138.24 216.46 146.55 201.94 142.92 188.91 C 139.80 175.29 124.81 165.68 111.15 169.20 Z" />
</g>
</svg>
