<?xml version="1.0" encoding="UTF-8" standalone="no"?>
<svg
   xmlns:dc="http://purl.org/dc/elements/1.1/"
   xmlns:cc="http://creativecommons.org/ns#"
   xmlns:rdf="http://www.w3.org/1999/02/22-rdf-syntax-ns#"
   xmlns:svg="http://www.w3.org/2000/svg"
   xmlns="http://www.w3.org/2000/svg"
   xmlns:sodipodi="http://sodipodi.sourceforge.net/DTD/sodipodi-0.dtd"
   xmlns:inkscape="http://www.inkscape.org/namespaces/inkscape"
   width="142pt"
   height="142pt"
   viewBox="0 0 142 142"
   version="1.1"
   id="svg10"
   sodipodi:docname="Emblem_of_Ando,_Nara.svg"
   inkscape:version="0.92.3 (2405546, 2018-03-11)">
  <metadata
     id="metadata16">
    <rdf:RDF>
      <cc:Work
         rdf:about="">
        <dc:format>image/svg+xml</dc:format>
        <dc:type
           rdf:resource="http://purl.org/dc/dcmitype/StillImage" />
      </cc:Work>
    </rdf:RDF>
  </metadata>
  <defs
     id="defs14" />
  <sodipodi:namedview
     pagecolor="#ffffff"
     bordercolor="#666666"
     borderopacity="1"
     objecttolerance="10"
     gridtolerance="10"
     guidetolerance="10"
     inkscape:pageopacity="0"
     inkscape:pageshadow="2"
     inkscape:window-width="716"
     inkscape:window-height="480"
     id="namedview12"
     showgrid="false"
     inkscape:zoom="1.2464789"
     inkscape:cx="94.666667"
     inkscape:cy="94.666667"
     inkscape:window-x="0"
     inkscape:window-y="0"
     inkscape:window-maximized="0"
     inkscape:current-layer="svg10" />
  <path
     fill="#e74e3c"
     d=" M 70.44 9.44 C 70.71 9.45 71.25 9.48 71.52 9.50 C 73.71 16.07 75.29 22.83 77.60 29.37 C 84.40 31.05 91.27 32.92 97.19 36.81 C 104.81 41.79 111.60 48.64 115.15 57.13 C 107.41 57.41 99.66 57.28 91.93 57.26 C 89.22 57.34 87.11 55.42 84.86 54.22 C 76.78 49.23 65.97 49.07 57.77 53.86 C 55.02 55.33 52.41 57.61 49.08 57.31 C 41.71 57.27 34.35 57.38 26.99 57.17 C 32.74 44.42 44.64 34.71 58.12 31.15 C 60.21 30.56 62.31 30.01 64.40 29.44 C 66.68 22.85 68.35 16.08 70.44 9.44 Z"
     id="path4" />
  <path
     fill="#e74e3c"
     d=" M 24.80 62.65 C 32.35 62.37 39.91 62.67 47.47 62.49 C 46.93 63.98 46.47 65.49 46.01 67.01 C 62.65 67.37 79.34 67.38 95.99 67.02 C 95.52 65.47 95.04 63.92 94.49 62.40 C 102.11 62.57 109.73 62.47 117.36 62.60 C 118.05 63.99 118.75 65.38 119.44 66.78 C 125.24 67.65 131.12 67.04 136.96 67.25 C 131.97 73.48 126.64 79.43 121.49 85.52 C 119.02 88.31 118.75 92.20 117.46 95.55 C 115.06 102.72 110.54 108.92 105.34 114.33 C 107.18 120.97 110.22 127.20 112.14 133.82 C 106.94 130.43 102.18 126.43 97.06 122.94 C 95.12 121.21 92.80 123.24 90.84 123.86 C 81.76 128.12 71.39 128.67 61.60 127.14 C 56.43 126.35 51.81 123.79 46.93 122.11 C 40.70 125.07 35.78 130.24 29.88 133.81 C 31.77 127.12 34.88 120.84 36.70 114.12 C 31.33 108.58 26.80 102.06 24.48 94.64 C 23.47 91.72 23.06 88.44 20.95 86.04 C 15.69 79.75 10.16 73.68 5.07 67.25 C 10.92 67.08 16.80 67.54 22.63 66.93 C 23.38 65.51 24.12 64.09 24.80 62.65 Z"
     id="path6" />
  <path
     fill="#fffffe"
     d=" M 44.87 88.00 C 56.90 87.46 68.96 87.91 81.00 87.76 C 86.37 87.80 91.76 87.57 97.12 88.01 C 95.78 93.54 91.85 98.03 87.42 101.40 C 78.17 108.27 64.58 108.47 55.18 101.80 C 50.47 98.40 46.25 93.79 44.87 88.00 Z"
     id="path8" />
</svg>
