<svg xmlns="http://www.w3.org/2000/svg" width="200" height="200" fill="#3962b9"><path d="M100 47.313c21.993 0 42.471 16.937 43.572 38.786h55.18c-2.002-37.708-25.11-69.815-57.74-84.704-11.038 9.427-25.36 15.12-41.012 15.12S70.026 10.822 58.988 1.396C26.358 16.284 3.25 48.391 1.248 86.1H57.07C59.882 64.266 78.005 47.313 100 47.313zm.75 143.023c-53.138 0-97.232-41.904-99.556-94.47h55.691c2.059 22.003 20.572 39.228 43.115 39.228s41.697-17.225 43.756-39.228h55.051c0 52.718-40.583 102.739-98.057 102.739v-8.269z"/></svg>