<?xml version="1.0" encoding="UTF-8" standalone="no"?>
<!-- Created with Inkscape (http://www.inkscape.org/) -->
<svg xmlns="http://www.w3.org/2000/svg" height="420" width="420" version="1.1">
 <path fill="#04954f" d="m210 10a282.84271 282.84271 0 0 0 -82.65625 200.28711 193.52432 193.52432 0 0 1 -0.1875 -0.28711 193.52432 193.52432 0 0 1 -12.19336 -175.765625 200 200 0 0 0 -104.96289 175.765625 200 200 0 0 0 76.927734 157.56055l44.189456-30.94141c9.39323-6.57721 22.3388-4.29557 28.91601 5.09766 6.5772 9.39322 4.29557 22.34076-5.09765 28.91797l-29.24414 20.47656a200 200 0 0 0 84.30859 18.88867 200 200 0 0 0 84.30664 -18.89062l-29.24219-20.47461c-6.07635-4.25471-9.41994-11.42873-8.77343-18.81836s5.18534-13.8729 11.9082-17.00782 14.60724-2.44416 20.68359 1.81055l44.04883 30.84375a200 200 0 0 0 77.06836 -157.46289 200 200 0 0 0 -105.04883 -175.814453 193.52431 193.52431 0 0 1 -12.10742 175.814453 193.52431 193.52431 0 0 1 -0.16797 0.25 282.84274 282.84274 0 0 0 -82.67578 -200.25z"/>
</svg>
