<?xml version="1.0" encoding="UTF-8" standalone="no"?>
<!-- Created with Inkscape (http://www.inkscape.org/) -->
<svg xmlns="http://www.w3.org/2000/svg" height="294" width="334" version="1.1">
 <path fill-rule="evenodd" fill="#00009c" d="m87 7 74.83753 53.438262-34.41545 24.574594-40.42208-28.863668zm160 0-112.03906 80h-127.96094v3l94.95898 21.0918c-22.174142 18.98711-34.944344 46.71569-34.95898 75.9082 0.000011 55.22847 44.77153 99.99999 100 100 55.22847-0.00001 99.99999-44.77153 100-100-0.0183-26.64968-10.6731-52.18969-29.59961-70.95117l-56.71875 12.5957c27.10904 6.34886 46.28874 30.51293 46.31836 58.35547-0.00001 33.13708-26.86292 59.99999-60 60-33.13708-0.00001-59.99999-26.86292-60-60 0.0361-28.05941 19.51436-52.34667 46.89648-58.47461l173.10352-38.52539v-3h-123.20508l43.20508-30.851562v-49.148438z"/>
</svg>
