<?xml version="1.0" encoding="UTF-8" ?>
<!DOCTYPE svg PUBLIC "-//W3C//DTD SVG 1.1//EN" "http://www.w3.org/Graphics/SVG/1.1/DTD/svg11.dtd">
<svg width="265pt" height="250pt" viewBox="0 0 265 250" version="1.1" xmlns="http://www.w3.org/2000/svg">
<g id="#fdfdfdff">
</g>
<g id="#6b0010ff">
<path fill="#6b0010" opacity="1.00" d=" M 126.32 2.16 C 136.06 1.22 145.90 4.06 154.39 8.73 C 167.21 16.01 176.21 29.58 177.95 44.21 C 179.96 58.49 174.87 73.49 164.80 83.77 C 155.85 93.08 142.96 98.61 130.02 98.38 C 120.19 98.44 110.37 95.22 102.44 89.45 C 90.93 81.41 83.48 67.96 82.42 54.01 C 81.27 39.76 86.90 25.09 97.42 15.40 C 105.16 7.81 115.68 3.57 126.32 2.16 Z" />
<path fill="#6b0010" opacity="1.00" d=" M 9.98 120.97 C 10.74 95.70 18.88 70.46 34.26 50.25 C 36.60 53.80 38.51 57.61 40.84 61.16 C 50.87 76.41 64.82 88.94 80.91 97.53 C 71.77 119.02 68.06 143.11 72.39 166.19 C 77.01 196.06 94.06 223.37 117.87 241.78 C 110.52 241.66 103.44 239.54 96.38 237.72 C 68.84 229.63 44.43 211.30 29.08 187.03 C 16.53 167.45 10.07 144.16 9.98 120.97 Z" />
<path fill="#6b0010" opacity="1.00" d=" M 214.51 68.50 C 219.10 62.89 222.71 56.60 226.21 50.29 C 236.63 63.36 243.51 79.07 247.33 95.28 C 250.84 108.86 250.19 123.05 249.57 136.93 C 247.42 154.84 241.06 172.22 231.36 187.42 C 215.59 211.95 190.68 230.54 162.51 238.21 C 156.23 239.77 149.92 241.57 143.41 241.70 C 145.94 238.79 149.15 236.63 151.93 234.00 C 170.18 216.88 183.14 194.01 187.74 169.36 C 190.35 158.43 189.91 147.11 189.59 135.97 C 188.51 122.75 184.85 109.85 179.79 97.62 C 193.06 90.21 205.20 80.59 214.51 68.50 Z" />
<path fill="#6b0010" opacity="1.00" d=" M 101.55 106.07 C 105.50 106.34 109.33 107.42 113.20 108.19 C 123.53 109.88 134.13 110.10 144.49 108.59 C 149.41 108.07 154.14 106.42 159.09 106.05 C 166.20 131.71 166.38 159.20 159.55 184.93 C 154.19 205.80 144.13 225.40 130.61 242.16 C 128.81 240.70 127.36 238.88 126.05 236.99 C 106.52 210.66 95.53 177.84 96.37 145.00 C 96.15 131.86 98.10 118.74 101.55 106.07 Z" />
</g>
</svg>
