<svg xmlns="http://www.w3.org/2000/svg" width="200" height="200"><path fill="#10177f" d="M187.41 109.561v5.213c0 .509.273.92.613.92h7.666c.317 0 .576.273.576.613h0l.11 16.56c.006.475-.295.864-.676.87l-11.974-.135c-.451 0-.817.15-.932.381-2.781 5.871-5.168 10.369-7.164 13.492-39.742 62.229-129.199 53.125-158.478-13.37a1.02 1.02 0 0 0-.934-.612l-12.191-.025c-.34 0-.613-.268-.613-.602h0v-16.56a.61.61 0 0 1 .607-.613h6.139c.508 0 .92-.272.92-.612v-5.521c-.004-.334-.412-.606-.92-.612H4.028c-.34 0-.613-.275-.613-.613V91.773a.61.61 0 0 1 .613-.612h6.133c.508 0 .92-.274.92-.613v-5.521c-.004-.332-.412-.605-.92-.612H4.028a.61.61 0 0 1-.613-.614V66.627c-.004-.224.257-.405.582-.405h.02l11.971.147c.595.008 1.162-.404 1.437-1.043 31.5-74.002 133.163-72.126 165.216.38.17.4.481.663.784.663l11.959-.147c.543-.008.986.31.994.709l.209 16.563c.006.501-.392.914-.883.92h-7.681a.61.61 0 0 0-.612.613v5.213c0 .508.272.92.612.92h7.666c.318 0 .576.273.576.613h0l.123 16.252c0 .51-.313.92-.699.92h0-7.666c-.337 0-.613.276-.613.616h0zm-16.472-44.54C140.443 4.646 58.407 7.086 27.949 65.732c-.108.203-.031.457.172.564a.42.42 0 0 0 .196.049l60.891-.197 80.81.332a1 1 0 0 0 1.027-.982c.004-.166-.033-.33-.107-.477zM83.453 84.793a.38.38 0 0 0-.38-.38h0-67.318a.38.38 0 0 0-.381.379v5.986a.38.38 0 0 0 .38.381h.001 67.317a.38.38 0 0 0 .38-.38l.001-5.986h0zm99.676.148c0-.293-.236-.527-.527-.527h-66.41c-.291 0-.524.236-.524.527h0v5.69c0 .292.233.527.524.527h0 66.41c.291 0 .527-.236.527-.527v-5.69zm-99.676 24.385a.38.38 0 0 0-.38-.381h0-67.318a.38.38 0 0 0-.381.379v.002 5.986a.38.38 0 0 0 .379.381h67.319a.38.38 0 0 0 .38-.381h0l.001-5.986h0zm99.725.184c0-.311-.252-.563-.563-.563h0-66.387a.56.56 0 0 0-.563.563h0v5.619c0 .313.252.564.563.564h0 66.387c.311 0 .563-.254.563-.564h0v-5.619zM29.789 133.773c-.726.002-1.317.567-1.329 1.268a1.23 1.23 0 0 0 .126.561c29.709 59.295 113.391 57.908 142.682-.979.146-.281.063-.627-.186-.771a.45.45 0 0 0-.23-.063l-141.063-.016h0z"/></svg>