<svg xmlns="http://www.w3.org/2000/svg" width="350" height="400"><path fill="#00733b" d="M187 49L175 0l-12 49C72 55 0 130.84 0 223.5c0 58 28.34 109.3 71.8 141.13l13.96-57.4c-20.57-21.9-33.26-51.3-33.26-83.74 0-59 41.77-108.3 97.35-119.9L97.7 318.24l-13.34 54.77c26.44 16.13 57.4 25.53 90.65 25.53 33.4 0 64.47-9.48 91-25.73l-13.34-54.84-52.3-214.3c55.5 11.66 97.2 61 97.2 119.85 0 32.4-12.7 61.83-33.26 83.74l14 57.4C321.66 332.8 350 281.5 350 223.5c0-92.64-72-168.46-163-174.6zm13.6 294.4c-8.23 1.77-16.77 2.7-25.53 2.7-8.327 0-16.46-.85-24.3-2.45l25-102.56 25 102.3z"/></svg>