<?xml version="1.0" encoding="UTF-8" standalone="no"?>
<!-- Created with Inkscape (http://www.inkscape.org/) -->
<svg id="svg10202" xmlns:rdf="http://www.w3.org/1999/02/22-rdf-syntax-ns#" xmlns="http://www.w3.org/2000/svg" height="300" width="300" version="1.1" xmlns:cc="http://creativecommons.org/ns#" xmlns:dc="http://purl.org/dc/elements/1.1/" viewBox="0 0 300 300">
 <metadata id="metadata10207">
  <rdf:RDF>
   <cc:Work rdf:about="">
    <dc:format>image/svg+xml</dc:format>
    <dc:type rdf:resource="http://purl.org/dc/dcmitype/StillImage"/>
    <dc:title/>
   </cc:Work>
  </rdf:RDF>
 </metadata>
 <g id="layer12" transform="translate(0 -752.36)">
  <path id="path10765" d="m150 0a150 150 0 0 0 -150 150 150 150 0 0 0 116.52 146.03l6.76-21.42a127.5 127.5 0 0 1 -100.78 -124.61 127.5 127.5 0 0 1 105 -125.29v22.968a105 105 0 0 0 -82.5 102.32 105 105 0 0 0 85.1 103.01l3.44-10.88a50 50 0 0 1 -33.27 -42.37 50 50 0 0 1 -45.27 -49.76 50 50 0 0 1 45.24 -49.73 50 50 0 0 0 -0.24 4.73 50 50 0 0 0 28.33 45.01 50 50 0 0 0 -28.33 44.99 50 50 0 0 0 0.27 4.73 50 50 0 0 0 4.73 0.27 50 50 0 0 0 44.99 -28.33 50 50 0 0 0 45.01 28.33 50 50 0 0 0 4.76 -0.24 50 50 0 0 1 -33.29 42.38l3.44 10.91a105 105 0 0 0 85.09 -103.05 105 105 0 0 0 -82.5 -102.32v-22.928a127.5 127.5 0 0 1 105 125.25 127.5 127.5 0 0 1 -100.81 124.52l6.8 21.55a150 150 0 0 0 116.51 -146.07 150 150 0 0 0 -150 -150zm0 55a50 50 0 0 1 49.73 45.24 50 50 0 0 1 45.27 49.76 50 50 0 0 1 -45.24 49.73 50 50 0 0 0 0.24 -4.73 50 50 0 0 0 -28.33 -45.01 50 50 0 0 0 28.33 -44.99 50 50 0 0 0 -0.27 -4.73 50 50 0 0 0 -4.73 -0.27 50 50 0 0 0 -44.99 28.33 50 50 0 0 0 -45.01 -28.33 50 50 0 0 0 -4.76 0.24 50 50 0 0 1 49.76 -45.24z" fill-rule="evenodd" transform="translate(0 752.36)" fill="#003ec2"/>
 </g>
</svg>
