<svg xmlns="http://www.w3.org/2000/svg" width="200" height="180" fill="#17368c"><path vector-effect="non-scaling-stroke" d="M62.09 42.442c.306.282.753.317 1.062.083 9.45-7.281 20.142-11.537 32.072-12.77.346-.03.609-.373.607-.786L95.82 4.302c-.002-.296-.272-.532-.602-.526-.014 0-.027.001-.042.002-19.418 1.479-36.447 8.525-51.088 21.139-.226.192-.28.506-.122.699.012.014.023.028.038.04L62.09 42.442m125.545 47.929h10.434c.266-.002.465-.246.441-.547-.006-.088-.031-.174-.072-.252l-18.135-33.775c-5.021-9.172-9.252-15.881-12.686-20.125-15.252-18.815-35.629-29.445-61.127-31.894-.412-.043-.779.14-.818.406-.004.017-.004.03-.004.047V28.97c-.002.328.334.624.787.691 22.875 3.402 39.045 14.682 48.512 33.836 19.125 38.737-6.498 82.314-48.465 87.287-.477.063-.836.358-.834.69v24.144c0 .303.375.534.836.518a.82.82 0 0 0 .07-.004c45.508-4.008 79.068-39.452 80.523-85.092.01-.372.247-.667.538-.669M54.986 49.549L37.16 32.81c-.277-.263-.76-.196-1.078.146l-.019.021c-11.557 13.353-18.53 28.816-20.924 46.39-.032.248.169.477.45.51.021.002.042.004.063.004l24.441.179c.421.006.768-.181.822-.44 2.179-11.041 6.888-20.854 14.129-29.438.153-.182.127-.459-.058-.633m40.07 101.294c-31.536-3.769-53.759-27.994-55.094-60.007-.02-.453-.354-.814-.764-.822L2.24 89.68c-.748 0-.938.318-.572.953l20.709 36.007c5.197 9.014 9.605 15.606 13.222 19.778 15.237 17.552 34.989 27.486 59.255 29.808a.9.9 0 0 0 .975-.817c.002-.029.004-.06.004-.089v-23.547c-.001-.478-.333-.876-.777-.93"/><path d="M62.09 42.442L44.004 25.655c-.185-.169-.168-.479.036-.694a.67.67 0 0 1 .047-.045c14.641-12.613 31.67-19.66 51.088-21.139.328-.025.615.192.643.487 0 .013 0 .024.002.038l.012 24.668c0 .414-.264.756-.608.787-11.931 1.231-22.622 5.488-32.071 12.769-.31.234-.757.199-1.063-.084zM187.1 91.039c-1.455 45.641-35.018 81.086-80.525 85.092-.459.043-.863-.166-.902-.467-.002-.015-.002-.031-.002-.047v-24.143c-.002-.332.355-.629.832-.691 41.969-4.972 67.59-48.549 48.467-87.285-9.467-19.156-25.639-30.435-48.514-33.836-.453-.068-.789-.363-.785-.692V4.23c0-.27.334-.477.75-.458.023.001.047.002.072.005 25.498 2.448 45.873 13.079 61.127 31.893 3.434 4.246 7.662 10.953 12.684 20.125l18.135 33.776c.145.265.076.595-.148.735a.42.42 0 0 1-.219.063h-10.434c-.294.004-.533.299-.538.67h0zM54.986 49.549c.187.174.211.451.06.632-7.241 8.584-11.951 18.396-14.128 29.437-.055.262-.402.447-.823.441l-24.44-.18c-.283-.002-.515-.207-.517-.457 0-.019.001-.036.003-.055 2.393-17.574 9.367-33.039 20.924-46.392.309-.351.793-.433 1.081-.183.005.006.011.011.017.016l17.823 16.741h0zm45.614-10.17c-28.333 0-51.302 22.969-51.302 51.302s22.969 51.304 51.302 51.304 51.305-22.97 51.305-51.304-22.971-51.302-51.305-51.302zm-.274 76.304c-13.959 0-25.275-11.315-25.275-25.274s11.316-25.277 25.275-25.277 25.278 11.318 25.278 25.277-11.319 25.274-25.278 25.274zm-5.27 35.159c.443.056.775.453.775.931v23.547a.9.9 0 0 1-.891.91.85.85 0 0 1-.088-.004c-24.267-2.32-44.019-12.256-59.255-29.808-3.616-4.172-8.024-10.766-13.222-19.778L1.667 90.633c-.366-.635-.175-.953.573-.953l36.959.334c.41.008.746.369.764.822 1.335 32.013 23.558 56.24 55.093 60.006z"/></svg>