<?xml version="1.0" encoding="UTF-8"?><svg width="486" height="333" viewBox="-244 -167 486 333" xmlns:svg="http://www.w3.org/2000/svg" xmlns="http://www.w3.org/2000/svg" version="1.1">
	<title xmlns="http://www.w3.org/2000/svg">Totsukawa, Nara Chapter</title>
	<polygon xmlns="http://www.w3.org/2000/svg" points="250,250 -250,250 -250,-250 250,-250 " style="fill:none;stroke:none"/>
	<g xmlns="http://www.w3.org/2000/svg" style="fill:black;stroke:none">
		<path d="M 0,-113.63333 -168.46834,0 0,113.63333 168.46834,0 z M 0,-161.88204 240,0 0,161.88204 -240,0 z"/>
		<path d="M 0,-110.03125 -20,-96.53125 -20,-20 -133.4375,-20 -163.0625,0 -133.4375,20 -20,20 -20,96.53125 0,110.03125 20,96.53125 20,20 133.4375,20 163.0625,0 133.4375,-20 20,-20 20,-96.53125 0,-110.03125 z"/>
	</g>
</svg>