<?xml version="1.0" encoding="UTF-8" standalone="no"?>
<!DOCTYPE svg PUBLIC "-//W3C//DTD SVG 1.1//EN" "http://www.w3.org/Graphics/SVG/1.1/DTD/svg11.dtd">
<!-- Created with Vectornator (http://vectornator.io/) -->
<svg height="100%" stroke-miterlimit="10" style="fill-rule:nonzero;clip-rule:evenodd;stroke-linecap:round;stroke-linejoin:round;" version="1.1" viewBox="0 0 1250 750" width="100%" xml:space="preserve" xmlns="http://www.w3.org/2000/svg" xmlns:vectornator="http://vectornator.io" xmlns:xlink="http://www.w3.org/1999/xlink">
<defs/>
<g id="Untitled" vectornator:layerName="Untitled">
<g opacity="1" vectornator:layerName="g">
<g opacity="1" vectornator:layerName="g">
<path d="M351.569 526.266C443.671 654.897 621.278 679.596 746.871 587.139C870.492 496.169 891.537 314.941 789.64 199.046C665.406 57.8388 447.873 76.3308 343.326 231.406C342.298 232.94 340.553 233.861 338.671 233.863L172.184 233.863C171.234 233.861 170.279 233.305 169.63 232.376L27.8734 32.4298C26.8604 30.9638 27.2594 30.2308 29.0694 30.2308C213.595 30.1878 398.671 30.1778 584.296 30.1988C687.582 30.2308 778.778 75.9748 845.923 153.723C847.34 155.346 849.511 156.278 851.871 156.277L1220.41 156.277C1222.82 156.277 1223.3 157.29 1221.86 159.316L1078.33 361.719C1077.68 362.628 1076.71 363.171 1075.74 363.173L927.033 363.173C926.229 363.173 925.578 363.81 925.578 364.596C927.97 578.831 752.205 739.757 539.587 717.807C426.278 706.072 318.531 633.109 269.102 529.402C268.11 527.319 269.77 524.916 272.205 524.908L349.177 524.779C350.006 524.779 350.904 525.337 351.569 526.266L351.569 526.266Z" fill="#880016" fill-rule="nonzero" opacity="1" stroke="none" vectornator:layerName="path"/>
<path d="M560.697 205.997C477.388 217.214 407.625 280.641 404.231 368.669C400.901 455.824 472.83 529.919 557.949 538.938C560.743 539.235 562.85 541.186 562.765 543.4L561.925 562.796C561.885 563.619 560.639 564.168 559.209 563.992C432.679 548.96 341.742 424.693 395.244 300.328C424.306 232.796 487.733 190.253 560.761 181.46C561.779 181.344 562.547 180.591 562.539 179.714L562.539 158.669C562.562 156.979 560.88 155.676 558.951 155.889C427.701 170.695 331.332 283.938 359.199 417.548C379.694 515.889 463.164 579.122 560.664 590.469C562.066 590.629 563.146 591.269 563.121 591.923L562.281 613.938C562.225 615.361 560.756 616.415 559.08 616.234C487.701 608.777 429.878 579.078 385.61 527.139C313.423 442.505 309.091 318.432 377.076 229.628C422.097 170.878 483.078 137.57 560.018 129.703C560.917 129.607 561.645 128.892 561.796 127.958C564.899 109.725 585.75 110.501 589.145 127.828C589.333 128.762 590.116 129.452 591.052 129.509C665.298 133.884 725.74 162.527 772.378 215.436C842.528 295.091 852.776 411.083 794.328 500.565C754.867 560.997 699.166 598.249 627.227 612.322C614.231 614.865 602.14 615.91 590.955 615.458C589.736 615.408 588.77 614.655 588.757 613.744L588.272 591.891C588.26 591.09 589.141 590.426 590.244 590.404C701.936 588.303 797.27 504.283 808.455 393.335C821.095 267.742 717.485 156.923 590.212 156.244C589.212 156.244 588.401 156.983 588.401 157.893L588.401 178.906C588.41 179.964 589.358 180.841 590.567 180.91C713.444 187.085 809.845 294.865 777.615 420.037C755.761 504.93 677.658 560.533 591.634 564.509C590.277 564.582 589.147 564.089 589.112 563.41L588.207 542.818C588.176 542.134 589.367 541.502 590.89 541.395C651.052 537.16 706.074 506.902 737.108 455.436C768.498 403.356 767.787 332.494 731.063 281.546C697.593 235.145 651.365 209.585 592.378 204.865C590.224 204.693 588.386 206.516 588.401 208.809L588.401 222.548C588.401 223.441 587.316 224.165 585.977 224.165L564.964 224.165C563.625 224.165 562.539 223.441 562.539 222.548L562.539 207.193C562.546 206.42 561.674 205.854 560.697 205.997L560.697 205.997Z" fill="#880016" fill-rule="nonzero" opacity="1" stroke="none" vectornator:layerName="path"/>
</g>
</g>
</g>
</svg>
