<svg xmlns="http://www.w3.org/2000/svg" width="200" height="200"><path fill="#00003c" d="M111.473 29.713l-.051 52.242c.051 13.67 3.113 20.524 18.111 20.424l63.477.355c.396.008.713.273.715.6v19.146c0 .313-.377.563-.842.563h0l-73.178.088c-7.096-.008-13.334-2.213-18.713-6.611a.77.77 0 0 0-.968 0c-5.166 4.332-11.084 6.507-17.755 6.523l-75.243.049a.93.93 0 0 1-.933-.928v-18.83c0-.365.313-.664.702-.664l63.769-.19c18.112-.651 17.984-13.032 18.177-28.388l.318-44.125c-.003-.303-.257-.545-.566-.541a.55.55 0 0 0-.071.005C53.704 34.357 28.34 62.489 21.206 95.777c-.104.497-.42.855-.754.855H8.007c-.353-.002-.634-.308-.63-.681 0-.024.002-.049.005-.073 5.54-43.27 38.407-75.166 81.167-81.804.462-.075.803-.416.804-.804l.038-11.09c0-.353.28-.639.625-.639h0 20.742c.352.002.637.287.639.639v11.168c0 .408.355.758.83.816 43.219 5.539 75.244 38.561 81.664 81.473.074.486-.109.936-.404 1-.027.007-.053.009-.08.009l-11.412-.038c-.414-.004-.795-.428-.904-1.009-6.791-34.412-33.814-61.791-68.965-66.449a.57.57 0 0 0-.646.479.49.49 0 0 0-.007.084h0zm-40.96 159.576c.664-8.297 10.556-12.968 16.504-6.125 4.16 4.797 2.45 12.125-3.421 14.447-2.033.8-4.568.829-7.607.089-32.688-8.003-57.056-35.293-66.487-66.563-.121-.404-.015-.814.233-.922.035-.014.072-.021.11-.021l10.925-.077c.352.001.706.414.855.995 6.808 27.203 22.818 46.754 48.031 58.65a.6.6 0 0 0 .799-.27c.034-.064.052-.133.058-.203h0zm62.952-.103c24.176-9.33 41.51-33.723 47.277-58.189.125-.531.482-.91.855-.906l9.574.18c.324.009.563.34.529.738a1.21 1.21 0 0 1-.031.18c-9.83 33.451-31.113 55.639-63.848 66.564-12.203 4.07-19.527-10.504-8.744-16.926 5.91-3.523 12.369 1.57 13.658 7.951.059.299.344.493.633.438a.52.52 0 0 0 .097-.03h0z"/></svg>