<?xml version="1.0" encoding="utf-8" standalone="no"?>
<svg xmlns:svg="http://www.w3.org/2000/svg" xmlns="http://www.w3.org/2000/svg" version="1.1" width="500" height="500" viewBox="-250,-250,500,500">
	<title>Kurotaki, Nara Chapter</title>
	<polygon points="250,-250 250,250 -250,250 -250,-250 " style="fill:none;stroke:none" />
	<circle cx="0" cy="0" r="240" style="fill:#fff;stroke:none" />
	<g style="fill:#2bff0d;stroke:none">
		<path d="M 0,-240 A 240,240 0 0 0 -239.9375,4.21875 351,351 0 0 0 0,-225.78125 351,351 0 0 0 239.9375,4.21875 240,240 0 0 0 0,-240 z" />
		<path d="M 0,-58.40625 A 433,433 0 0 1 -224.46875,85.0625 240,240 0 0 0 -203.59375,127.03125 479,479 0 0 0 0,9.34375 479,479 0 0 0 203.53125,127 240,240 0 0 0 224.46875,85.0625 433,433 0 0 1 0,-58.40625 z" />
		<path d="M 0,34.03125 A 497,497 0 0 1 -192.96875,142.6875 240,240 0 0 0 0,240 240,240 0 0 0 192.96875,142.6875 497,497 0 0 1 0,34.03125 z" />
		<path d="M 0,-176.9375 A 369,369 0 0 1 -238.9375,22.625 240,240 0 0 0 -230.25,67.90625 415,415 0 0 0 0,-87.625 415,415 0 0 0 230.25,67.90625 240,240 0 0 0 238.9375,22.625 369,369 0 0 1 0,-176.9375 z" />
	</g>
</svg>