<svg xmlns="http://www.w3.org/2000/svg" width="200" height="200"><path fill="#0044a8" d="M125.865 62.11l-.055 49.84c.008 2.635-.425 4.593-1.302 5.867-3.229 4.736-11.56 4.242-14.487-.285-1.076-1.669-1.631-4.42-1.668-8.25-.097-9.823 1.135-22.807-1.287-30.987-3.256-10.958-14.705-19.81-27.306-17.21-1.542.318-3.088.539-4.638.657-.331.032-.624-.308-.654-.759l-.002-.075.014-55.325c-.002-.373.278-.709.684-.82 53.438-14.174 108.64 19.371 120.842 72.904 10.221 44.898-11.602 90.896-53.137 110.882-.237.111-.52.036-.628-.164-.027-.051-.041-.104-.041-.165V62.017c0-.379-.308-.685-.685-.685h-15.05c-.331 0-.6.349-.6.778h0zm-51.808 76.092l.383-52.533c.205-14.091 18.551-12.34 18.551.984l.26 24.832c.506 17.8 14.229 27.129 31.727 24.092a.68.68 0 0 1 .797.535.8.8 0 0 1 .011.119v58.145c-.001.363-.3.696-.726.809C46.736 215.472-21.23 138.874 8.718 63.015c9.13-23.121 25.337-40.345 48.621-51.673.25-.122.552-.036.675.19a.45.45 0 0 1 .051.207v126.548c0 .377.307.685.684.685h14.707c.331-.002.601-.345.601-.77h0z"/></svg>