<?xml version="1.0" encoding="UTF-8" standalone="no"?>
<!-- Created with Inkscape (http://www.inkscape.org/) -->

<svg
   xmlns:svg="http://www.w3.org/2000/svg"
   xmlns="http://www.w3.org/2000/svg"
   version="1.0"
   width="350"
   height="400"
   id="svg2">
  <defs
     id="defs5" />
  <path
     d="M 174.9875,11 137.39375,134.90625 11.3,105.5 99.83125,200 11.3,294.5 137.39375,265.09375 174.9875,389 212.55,265.09375 338.675,294.5 250.14375,200 338.675,105.5 212.55,134.90625 174.9875,11 z m 0,119 c 23.75486,0 44.74933,11.85895 57.40625,29.96875 2.0851,-2.41819 8.62311,-9.74778 14.09375,-12.90625 7.3644,-4.25184 37.15625,-9.65625 37.15625,-9.65625 0,0 -19.44653,23.4396 -26.75,27.65625 -5.29032,3.05437 -15.27965,4.90477 -18.4375,5.4375 4.17758,8.96755 6.53125,18.96057 6.53125,29.5 0,36.7336 -28.34879,66.86394 -64.34375,69.75 0.6886,1.91999 4.34375,12.38344 4.34375,19.25 0,8.50368 -10.1875,37 -10.1875,37 0,0 -10.62501,-28.56666 -10.625,-37 0,-6.63296 4.03761,-17.41662 4.75,-19.28125 C 133.12239,266.64017 104.9875,236.59592 104.9875,200 c 0,-10.43008 2.30994,-20.32314 6.40625,-29.21875 -3.26828,-0.62628 -12.72369,-2.60031 -18.125,-5.71875 -7.3644,-4.25184 -26.93751,-27.34375 -26.9375,-27.34375 0,0 30.04025,5.09584 37.34375,9.3125 5.16028,2.97929 11.562,10.45438 13.78125,13.125 C 130.09917,141.94213 151.15178,130 174.9875,130 z m 0,7 c -21.23961,0 -40.02338,10.53735 -51.4375,26.65625 l 1.625,1.15625 c 0.0169,-0.0239 0.0456,-0.0387 0.0625,-0.0625 l 4.03125,2.9375 c -0.99565,1.40572 -1.91565,2.87798 -2.78125,4.375 l 1.71875,1 C 137.54048,156.89854 154.99267,146 174.9875,146 c 29.808,0 54,24.192 54,54 0,29.808 -24.192,54 -54,54 -29.808,0 -54,-24.192 -54,-54 0,-6.67507 1.21979,-13.06554 3.4375,-18.96875 l -1.875,-0.6875 c -2.30253,6.11981 -3.5625,12.73436 -3.5625,19.65625 0,30.912 25.088,56 56,56 30.912,0 56,-25.088 56,-56 0,-30.912 -25.088,-56 -56,-56 -18.17024,0 -34.32926,8.66962 -44.5625,22.09375 l -4,-2.96875 C 137.56903,148.47247 155.17132,139 174.9875,139 c 33.672,0 61,27.328 61,61 0,33.672 -27.328,61 -61,61 -33.672,0 -61,-27.328 -61,-61 0,-7.53853 1.36936,-14.77014 3.875,-21.4375 l -1.84375,-0.6875 c -2.59463,6.88892 -4.03125,14.33191 -4.03125,22.125 0,34.776 28.224,63 63,63 34.776,0 62.99999,-28.224 63,-63 0,-34.776 -28.224,-62.99999 -63,-63 z"
     id="path2386"
     style="fill:#000000;fill-opacity:1;stroke:none" />
  <g
     transform="translate(-275.0125,-115)"
     id="g2478">
    <path
       d="m 426.3125,311.625 c -11.80727,0 -21.37499,9.56775 -21.375,21.375 0,0 0,0.90625 0,0.90625 0,4.9379 8.15625,5.06543 8.15625,0 0,0 0,-0.90625 0,-0.90625 0,-7.31855 5.90019,-13.25 13.21875,-13.25 5.94634,0 10.97882,3.91861 12.65625,9.3125 l 0.375,1.25 c 2.80075,12.87098 14.25896,22 27.96875,22 15.80808,0 28.65624,-12.31693 28.65625,-28.125 0,0 0,-5.90625 0,-5.90625 -10e-6,-4.64157 -7.40625,-4.4203 -7.40625,0 -10e-6,-2e-5 0.15625,5 0.15625,5 10e-6,11.80728 -9.59898,21.40625 -21.40625,21.40625 -9.3785,10e-6 -17.33853,-6.06028 -20.21875,-14.46875 l -0.8125,-2.46875 c -2.16355,-9.27036 -9.97127,-16.12501 -19.96875,-16.125 z"
       id="path2454"
       style="fill:#000000;stroke:none" />
    <path
       d="m 453.03125,285 c -2.23422,0 -4.03126,1.99982 -4.03125,4.5 l 0,31.84375 c -0.003,0.21875 0,0.43748 0,0.65625 0,10.1795 7.616,17.35356 17,17.35355 9.384,0 17,-6.99727 17,-17.35355 0.005,-0.22919 0,-0.45833 0,-0.6875 L 483,289.5 c 0,-2.50018 -1.79702,-4.49999 -4.03125,-4.5 l -0.9375,0 c -2.23422,0 -4.03126,1.99982 -4.03125,4.5 l 0,11.5 -15.78125,0 0,-11.5 c 0,-2.50018 -1.79702,-4.49999 -4.03125,-4.5 l -1.15625,0 z m 5.1875,25 15.78125,0 0,11.3125 c 0,5.1621 -2.06205,9.65625 -8,9.65625 -6.25222,-0.0603 -7.78125,-4.38158 -7.78125,-9.625 l 0,-11.34375 z"
       id="path2441"
       style="fill:#000000;stroke:none" />
    <path
       d="m 409.5,287 c -2.50018,0 -4.5,1.79702 -4.5,4.03125 l 0,0.9375 c 0,2.23422 1.99981,4.03125 4.5,4.03125 l 11.5,0 0,4 -13.5,0 c -2.49041,0 -4.5,1.79702 -4.5,4.03125 l 0,0.9375 c 0,2.23422 2.00959,4.03125 4.5,4.03125 l 13.5,0 0,36.5 c 0,2.493 2.007,4.5 4.5,4.5 2.493,0 4.5,-2.007 4.5,-4.5 l 0,-36.5 7.5,0 c 2.49041,0 4.5,-1.79702 4.5,-4.03125 l 0,-0.9375 C 442,301.79703 439.99041,300 437.5,300 l -7.5,0 0,-4 2.5,0 c 2.50018,0 4.5,-1.79702 4.5,-4.03125 l 0,-0.9375 C 437,288.79703 435.00019,287 432.5,287 l -23,0 z"
       id="rect2429"
       style="fill:#000000;stroke:none" />
  </g>
</svg>
