<?xml version="1.0" encoding="UTF-8" standalone="no"?>
<!-- Created with Inkscape (http://www.inkscape.org/) -->

<svg
   width="225.00002"
   height="201.90819"
   viewBox="0 0 59.531252 53.421541"
   version="1.1"
   id="svg5"
   xml:space="preserve"
   inkscape:version="1.2.1 (9c6d41e410, 2022-07-14)"
   sodipodi:docname="Emblem_of_Gobo,_Wakayama.svg"
   xmlns:inkscape="http://www.inkscape.org/namespaces/inkscape"
   xmlns:sodipodi="http://sodipodi.sourceforge.net/DTD/sodipodi-0.dtd"
   xmlns="http://www.w3.org/2000/svg"
   xmlns:svg="http://www.w3.org/2000/svg"><sodipodi:namedview
     id="namedview7"
     pagecolor="#ffffff"
     bordercolor="#666666"
     borderopacity="1.0"
     inkscape:showpageshadow="2"
     inkscape:pageopacity="0.0"
     inkscape:pagecheckerboard="0"
     inkscape:deskcolor="#d1d1d1"
     inkscape:document-units="mm"
     showgrid="false"
     inkscape:zoom="2"
     inkscape:cx="108.5"
     inkscape:cy="111.75"
     inkscape:window-width="1920"
     inkscape:window-height="996"
     inkscape:window-x="1912"
     inkscape:window-y="-8"
     inkscape:window-maximized="1"
     inkscape:current-layer="layer1" /><defs
     id="defs2" /><g
     inkscape:label="Layer 1"
     inkscape:groupmode="layer"
     id="layer1"
     transform="translate(-60.994727,-114.14394)"><path
       id="path1090"
       style="fill:#2f65ac;fill-opacity:1;stroke:none;stroke-width:5.06021"
       d="m 90.824858,128.06053 c -7.7402,0.005 -14.764247,4.53029 -17.968219,11.57622 h 7.910692 c 1.918724,-4.40036 6.262551,-7.24552 11.063037,-7.24617 0.155183,0.005 0.310265,0.0119 0.465163,0.0223 0.0073,2.72989 2.203888,4.93907 4.91114,4.93927 1.215254,-6e-4 2.387143,-0.45544 3.289129,-1.27665 0.58835,0.61255 1.11041,1.28548 1.5575,2.00762 -1.46731,0.89707 -2.363933,2.5013 -2.365106,4.23159 9.9e-5,2.73519 2.199116,4.95243 4.911626,4.95236 2.71231,-2e-4 4.91101,-2.21735 4.91114,-4.95236 -2e-5,-0.64309 -0.12424,-1.28001 -0.36574,-1.87521 h 5e-4 l -0.006,-0.0131 c -0.0254,-0.0638 -0.0533,-0.12386 -0.0809,-0.18535 -0.0169,-0.0376 -0.0358,-0.0768 -0.052,-0.11247 C 105.92,132.8192 98.759125,128.0663 90.824666,128.06052 Z m -15.724861,14.8765 c -2.207153,1e-4 -3.996333,1.8069 -3.996333,4.03562 -0.01647,0.27995 -0.02699,0.56022 -0.03153,0.8406 1.99e-4,10.90896 8.843759,19.7523 19.75272,19.75223 10.078836,-0.007 18.536016,-7.60095 19.623716,-17.62092 H 103.637 c -1.28679,6.73357 -7.173237,11.60521 -14.028651,11.61018 -6.475607,-4e-4 -12.1419,-4.35436 -13.809877,-10.61145 1.907009,-0.34168 3.296939,-2.01492 3.298345,-3.97064 0,-2.22892 -1.789475,-4.03576 -3.99682,-4.03562 z"
       sodipodi:nodetypes="scccccccccccccaccsccccccccsc" /><path
       id="path1406"
       style="fill:#2f65ac;fill-opacity:1;stroke:none;stroke-width:0.248346px;stroke-linecap:butt;stroke-linejoin:miter;stroke-opacity:1"
       d="m 90.76035,114.14394 -7.98151,13.34908 c 2.486662,-1.00743 5.20324,-1.56381 8.047962,-1.56381 2.777628,0 5.433323,0.52925 7.871887,1.49202 z m -21.293243,35.61436 -8.47238,14.17027 h 16.093498 c -4.168166,-3.47343 -7.003648,-8.49221 -7.621118,-14.17027 z m 42.698043,0.18626 c -0.65869,5.60146 -3.47777,10.54864 -7.60025,13.98401 h 15.96108 z" /></g></svg>
