<?xml version="1.0" encoding="UTF-8"?><svg width="454" height="335" viewBox="23 82 454 335" xmlns="http://www.w3.org/2000/svg">
 <path xmlns="http://www.w3.org/2000/svg" fill="#2eb442" d="m237.1 84.7v43.4c-40.5 4.3-76.2 28.5-95.3 64.5h-12.4c18.5-38.6 54.4-66.1 96.5-73.8v-32.7c-59.8 8.9-110.1 49.7-131.1 106.4h-69.8l21.6 25.8h118.9c13.2-35.3 46.8-58.7 84.5-58.7 37.7 0.1 71.3 23.5 84.5 58.7h118.9l21.6-25.8h-69.9c-21-56.7-71.2-97.5-131.1-106.5v32.5c42.1 7.8 78 35.3 96.4 74h-12.4c-19.1-35.8-54.7-60-95.1-64.3v-43.4c-8.8-0.9-17.6-0.8-25.8-0.1zm12.9 86c-35.9 0-67.2 24.1-76.5 58.74h-118.6l21 25.8h124.9c-0.2-1.7-0.3-3.5-0.3-5.2 0-27.4 22.2-49.5 49.5-49.5 27.4 0 49.5 22.2 49.5 49.5 0 1.8-0.1 3.5-0.3 5.2h124.9l21-25.8h-118.6c-9.3-34.6-40.7-58.6-76.5-58.7zm-165.1 95.6c8.4 84.9 79.8 149.6 165.1 149.6 85.2-0.1 156.5-64.7 165-149.5h-32.3c-8.4 66.9-65.2 117.2-132.7 117.3-67.5-0.1-124.3-50.4-132.6-117.4zm43.8 0c8.2 60.8 60.1 106.2 121.4 106.3 61.3-0.1 113.2-45.4 121.3-106.2h-74.7c-7 19.8-25.7 33.1-46.7 33.2-21 0-39.7-13.3-46.7-33.2zm44.3 30.7h13.4c14.9 20.2 38.5 32.1 63.6 32.2 25.1-0.1 48.6-12 63.5-32.2h13.4c-16.4 26.8-45.5 43.2-77 43.3-31.5 0-60.6-16.5-77-43.3z"/>
</svg>