<?xml version="1.0" encoding="UTF-8" standalone="no"?>
<!-- Created with Inkscape (http://www.inkscape.org/) -->
<svg xmlns="http://www.w3.org/2000/svg" height="294" width="414" version="1.1" viewBox="0 0 414 294">
 <path fill-rule="evenodd" fill="#1066af" d="m242.86328 27a134.99998 134.99998 0 0 1 87.24024 75h26.89648l13.33398-20h-18.02929l3.33398-5h18.0293l16.66601-25h-18.02929l3.33398-5h18.02735l13.33398-20h-164.13672zm-35.86328-20-28.625 20h-171.375l13.333984 20h18.027344l3.333984 5h-18.029296l16.666015 25h18.029297l3.332031 5h-18.027343l13.333984 20h32.435547a129.99998 129.99998 0 0 0 -12.435547 55 129.99998 129.99998 0 0 0 110.27148 128.39648 205 205 0 0 0 50.5625 -40.13086 74.999985 74.999985 0 0 1 -30.83398 6.73438 74.999985 74.999985 0 0 1 -75 -75 74.999985 74.999985 0 0 1 75 -75 74.999985 74.999985 0 0 1 75 75 74.999985 74.999985 0 0 1 -31.10547 60.69922 210 210 0 0 1 -55.20508 48.71875 129.99998 129.99998 0 0 0 11.31055 0.58203 129.99998 129.99998 0 0 0 130 -130 129.99998 129.99998 0 0 0 -94.02148 -124.861328l-35.97852-25.138672z"/>
</svg>
