<?xml version="1.0" encoding="utf-8" standalone="no"?>
<svg xmlns:svg="http://www.w3.org/2000/svg" xmlns="http://www.w3.org/2000/svg" version="1.1" width="500" height="500" viewBox="-250,-250,500,500">
	<title>Kudoyama, Wakayama Chapter</title>
	<polygon points="250,250 -250,250 -250,-250 250,-250 " style="fill:none;stroke:none" />
	<g style="fill:#c80409;stroke:none">
		<path d="M 0,-204 A 204,204 0 0 0 -204,0 204,204 0 0 0 -95.875,179.90625 L -81.53125,106.125 A 134,134 0 0 1 -134,0 134,134 0 0 1 0,-134 134,134 0 0 1 134,0 134,134 0 0 1 81.5625,106.21875 L 95.875,179.96875 A 204,204 0 0 0 204,0 204,204 0 0 0 0,-204 z" />
		<path d="M 0,-240 -82.875,186.25 A 204,204 0 0 0 0,204 204,204 0 0 0 82.84375,186.125 L 0,-240 z" />
	</g>
</svg>