<?xml version="1.0" encoding="UTF-8" standalone="no"?>
<!-- Created with Inkscape (http://www.inkscape.org/) -->

<svg
   xmlns:dc="http://purl.org/dc/elements/1.1/"
   xmlns:cc="http://creativecommons.org/ns#"
   xmlns:rdf="http://www.w3.org/1999/02/22-rdf-syntax-ns#"
   xmlns:svg="http://www.w3.org/2000/svg"
   xmlns="http://www.w3.org/2000/svg"
   version="1.1"
   width="200"
   height="138"
   id="svg5758">
  <defs
     id="defs5760" />
  <metadata
     id="metadata5763">
    <rdf:RDF>
      <cc:Work
         rdf:about="">
        <dc:format>image/svg+xml</dc:format>
        <dc:type
           rdf:resource="http://purl.org/dc/dcmitype/StillImage" />
        <dc:title></dc:title>
      </cc:Work>
    </rdf:RDF>
  </metadata>
  <g
     id="layer5">
    <path
       d="M 165.40625,3.7996665 C 143.31342,4.0196833 123.47767,10.663352 104.5,19.705916 l 0,46.0625 c 12.49134,2.137632 22,13.023998 22,26.125 0,14.635544 -11.86446,26.500004 -26.5,26.500004 -14.635545,0 -26.5,-11.86446 -26.5,-26.500004 0,-13.101002 9.508656,-23.987368 22,-26.125 l 0,-46.0625 C 75.659705,10.252326 54.877678,3.4390069 31.5625,3.8309165 22.43917,3.9842724 12.93525,5.2312892 2.9375,7.8621665 l 33.78125,44.8437495 22.65625,0 c -6.435704,8.521187 -10.25,19.123647 -10.25,30.625 0,28.097494 22.777515,50.875004 50.875,50.875004 28.09749,0 50.875,-22.77751 50.875,-50.875004 0,-11.501353 -3.8143,-22.103813 -10.25,-30.625 l 22.65625,0 33.78125,-44.8437495 c -11.10861,-2.9231972 -21.61405,-4.1625076 -31.65625,-4.0625 z"
       id="path5879"
       style="fill:#0000fe;fill-opacity:1;fill-rule:evenodd;stroke:none" />
  </g>
</svg>
