<?xml version="1.0" encoding="UTF-8" standalone="no"?>
<svg id="svg4136" xmlns:rdf="http://www.w3.org/1999/02/22-rdf-syntax-ns#" xmlns="http://www.w3.org/2000/svg" height="500" width="500" version="1.1" xmlns:cc="http://creativecommons.org/ns#" xmlns:dc="http://purl.org/dc/elements/1.1/" viewBox="-250 -300 500 500">
 <metadata id="metadata4148">
  <rdf:RDF>
   <cc:Work rdf:about="">
    <dc:format>image/svg+xml</dc:format>
    <dc:type rdf:resource="http://purl.org/dc/dcmitype/StillImage"/>
    <dc:title>Inami, Wakayama Chapter</dc:title>
   </cc:Work>
  </rdf:RDF>
 </metadata>
 <title id="title4138">Inami, Wakayama Chapter</title>
 <g id="layer3" fill-rule="evenodd">
  <rect id="rect4152" ry=".0000070983" height="500" width="500" y="-300" x="-250" fill="#7f0037"/>
  <path id="path4781" d="m-0.0000010743-275-32.365 55.63a177.26 177.26 0 0 1 87.556 152.66 177.26 177.26 0 0 1 -177.26 177.25 177.26 177.26 0 0 1 -88.4 -23.795l-32.342 55.588a241.71 241.71 0 0 0 120.75 32.669 241.71 241.71 0 0 0 241.71 -241.71 241.71 241.71 0 0 0 -119.65 -208.29z" fill="#fff"/>
  <path id="path4783" d="m0-275 32.365 55.625a177.26 177.26 0 0 0 -87.556 152.67 177.26 177.26 0 0 0 177.26 177.25 177.26 177.26 0 0 0 88.4 -23.795l32.342 55.588a241.71 241.71 0 0 1 -120.74 32.67 241.71 241.71 0 0 1 -241.72 -241.71 241.71 241.71 0 0 1 119.65 -208.29z" fill="#fff"/>
 </g>
</svg>
