<?xml version="1.0" encoding="UTF-8"?><svg width="454" height="420" viewBox="23 40 454 420" xmlns:rdf="http://www.w3.org/1999/02/22-rdf-syntax-ns#" xmlns="http://www.w3.org/2000/svg" version="1.1">
 <path xmlns="http://www.w3.org/2000/svg" fill="#0080c6" d="m378.6 130.6c-51.11 26.73-95 86.5-95.54 87.28l-0.1658 0.2185c-22.01 28.8-47.91 50.86-79.15 67.4-3.162 1.824-25.51 13.67-93.93 27.27-5.066 1.009-13.1 2.819-22.82 5.3-6.783 10.54-11.08 21.95-13.01 33.57 17.93-7.623 37.94-14.54 59.51-18.9 71.07-14.36 96.72-30 97-30.14l0.38-0.24 0.3394-0.1795c21.21-11.24 55.52-43.73 79.81-75.61 3.147-4.302 48.84-65.68 110.9-86.42-13.31-6.251-28.11-9.622-43.32-9.558zm67.83 25.94c-64.29 10.55-117.3 82.28-117.8 83.07l-0.1424 0.197c-26.63 34.94-62.1 68.31-86.52 81.45-2.767 1.712-30.6 18.11-104.1 32.96-23.55 4.748-45.37 12.95-64.48 21.67 1.03 9.074 3.486 17.98 7.28 26.42 19.85-10.88 44.26-21.46 73.41-26.58 71.86-12.61 97.76-28.11 98.03-28.26l0.3453-0.2185 0.3044-0.1599c17.72-9.371 54.71-35.16 89.18-79.63 3.471-4.473 55.43-77.89 122.4-88.5-4.78-8.436-10.83-15.97-17.85-22.41zm26.47 43.37c-60.51 5.733-112.6 79.4-113.1 80.19l-0.11 0.16c-27.96 38.95-69.41 71.79-96.25 86.14-3.246 1.873-31.59 18.06-105.5 31.02-25.97 4.557-47.73 13.85-65.9 23.76 5.705 7.278 12.66 13.88 20.79 19.5 43.37 29.88 103.9 20.76 135.3-20.39 0.4-0.51 0.7469-1.026 1.122-1.539 0.51 0.7002 1 1.408 1.522 2.101 31.46 41.14 92.08 50.26 135.3 20.37 43.3-29.89 52.91-87.48 21.44-128.6-0.3864-0.51-0.8-1-1.202-1.487 0.8595-0.2412 1.714-0.461 2.579-0.7256 48.91-15.09 76.53-63.66 63.93-110.3z"/>
 <path xmlns="http://www.w3.org/2000/svg" fill="#6ebf5d" d="m192.9 266.6 0.24-0.13 0.14-0.08c18.18-9.604 45.43-26.42 72.21-61.45 2.841-3.901 36.54-49.46 81.36-80.39-4.625-46.77-46.05-83.36-96.48-83.36-53.52 0-96.92 41.22-96.92 92.07 0 0.63 0.0374 1.251 0.0539 1.871-0.85-0.28-1.674-0.5855-2.534-0.8478-50.84-15.61-105.5 10.86-122 59.18-14.07 41.07 3.983 84.77 41 106.6 15.17-4.174 28.06-7.136 35.72-8.66 66.5-13.22 87.13-24.68 87.33-24.79"/>
</svg>