<?xml version="1.0" encoding="UTF-8"?><svg width="451" height="451" viewBox="24 24 451 451" xmlns:rdf="http://www.w3.org/1999/02/22-rdf-syntax-ns#" xmlns="http://www.w3.org/2000/svg" xml:space="preserve" version="1.1">
 <path xmlns="http://www.w3.org/2000/svg" fill="#00a3e8" d="m249.9 25c-4.6 0-9.2 0.18-13.7 0.45-25.4 1.52-49.6 7.24-72.1 16.49-5.8 2.42-11.6 5.11-17.2 8.01-21.5 11.05-40.9 25.43-57.66 42.48-4.79 4.87-9.37 9.97-13.7 15.27-4.76 5.8-9.22 11.9-13.39 18.1 3.09 6.3 6.25 12.6 9.57 18.9 39.58 74.5 96.38 145.7 169.1 206.7 36.1 30.2 73.9 56.2 112.7 77.9 6.2 3.4 12.4 6.7 18.6 9.9 6.3-4.1 12.4-8.5 18.3-13.2-5.9-3-11.8-6.1-17.6-9.3-40.3-22.2-79.6-48.9-117-80.3-74-62.1-131.7-134.8-171.3-210.8 4.17-5.5 8.63-10.8 13.34-15.9 16.66-17.99 36.36-33 58.46-44.19 5.7-2.89 11.5-5.52 17.5-7.89 23.5-9.28 49.1-14.45 75.9-14.47l0.2-0.01c8.1 0 16.1 0.52 24 1.44 87.7 10.15 158.6 75.02 177.8 159.6 6.9 4.7 13.9 9.3 21 13.7-15.3-106.4-105-188.8-214.7-192.7-2.7-0.09-5.4-0.2-8.1-0.2zm-199.5 120.8c-4 7.6-7.56 15.5-10.67 23.6 3.76 7.2 7.7 14.4 11.79 21.6 38.99 68.4 92.62 133.5 159.8 189.8 30.9 25.9 63 48.6 96 68.2 7 4.2 14 8.3 21.1 12.2 8.1-3 16-6.5 23.6-10.4-6.5-3.5-13.1-7.1-19.6-10.8-36.5-21-72.1-45.6-106.1-74.1-70.5-59.2-126.1-128-165.5-200.1-3.6-6.6-7.09-13.3-10.44-20zm-18.2 46.8c-2.59 9.8-4.49 19.9-5.74 30.2 5.21 9 10.73 17.8 16.45 26.7 36.76 56.7 83.73 110.5 140.4 158.1 21.5 18 43.7 34.5 66.3 49.5 8.7 5.8 17.4 11.4 26.2 16.7 10.2-1.2 20.3-3 30.1-5.5-7.8-4.4-15.5-9-23.1-13.8-29.1-18-57.6-38.4-85-61.4-62.9-52.8-113.9-113.3-152.1-176.9-4.72-7.9-9.23-15.7-13.54-23.6zm-7.16 69c5.75 114.6 97.2 206.6 211.5 213.3-10.9-7.3-21.8-15-32.5-22.9-12.1-9-24-18.2-35.8-28.1-46.9-39.3-87.08-83-120.4-128.9-8-11-15.63-22.1-22.8-33.4z"/>
 <path xmlns="http://www.w3.org/2000/svg" fill="#00ac8f" d="m251.4 189.6l-58.4 57.3c23.1 25.9 48.6 50.7 76.4 74.1 38.3 32.1 78.7 59.4 120.1 81.9 5.6 3.1 11.3 6.1 16.9 9 18.6-18.1 34.1-39.2 45.7-62.7-5.3-3-10.5-6.1-15.7-9.3-36.9-22.3-73.1-48-108.1-77.3-27.7-23.3-53.3-47.7-76.9-73zm147.8 2.1l-56.6 55.6c33.1 27.5 67.3 51.9 102 73.1 5.3 3.2 10.5 6.4 15.8 9.5 9.4-24.8 14.6-51.7 14.6-79.8 0-1.9-0.1-3.8-0.1-5.7-6.3-3.9-12.6-7.9-18.9-12-19.2-12.6-38.1-26.2-56.8-40.7z"/>
</svg>