<svg xmlns="http://www.w3.org/2000/svg" width="402.687" height="363.667" viewBox="231.257 92.375 402.687 363.667" xmlns:v="https://vecta.io/nano"><path fill="#0d0398" d="M630.944 144.25h-147.24l-50.387-48.542-51.305 48.542H234.569l44.75 84.625h33.727c-4.362 12.833-6.729 26.586-6.729 40.894 0 56.99 37.537 105.213 89.235 121.292l-14.565 15.648 47 47.333 85.951-86.137c28.321-23.292 46.383-58.605 46.383-98.137 0-14.308-2.367-28.061-6.729-40.894h33.229l44.123-84.624zM433.066 317.771c-24.44 0-44.254-19.813-44.254-44.254s19.813-44.253 44.254-44.253 44.253 19.813 44.253 44.253-19.812 44.254-44.253 44.254z"/></svg>