<?xml version="1.0" encoding="UTF-8" standalone="no"?>
<!-- Created with Inkscape (http://www.inkscape.org/) -->

<svg
   xmlns:svg="http://www.w3.org/2000/svg"
   xmlns="http://www.w3.org/2000/svg"
   version="1.0"
   width="400"
   height="400"
   id="svg2">
  <defs
     id="defs5" />
  <path
     d="M 199.96875,20 C 112.23555,20 39.10294,82.8839 23.1875,166 l 24,0 C 62.72453,95.93921 125.25368,43.5 199.96875,43.5 c 65.90184,0 122.31938,40.79757 145.375,98.5 l -7.5625,0 C 315.12404,88.24783 261.93413,50.5 199.96875,50.5 129.13952,50.5 69.78124,99.83946 54.375,166 l 23.75,0 c 14.86381,-53.33164 63.79349,-92.5 121.84375,-92.5 58.05025,0 106.97994,39.16836 121.84375,92.5 l 54.9375,0 C 360.83457,82.8839 287.70196,20 199.96875,20 z m -23,123 0,30 -155,0 C 20.78702,180.84648 20.13305,187.85719 20,196 l 156.96875,0 0,8 L 20,204 c 0.13305,8.14281 0.78702,15.15352 1.96875,23 l 332.15625,0 c -0.93137,5.65277 -2.30704,11.21323 -3.875,16.71875 C 331.31516,308.84794 271.18155,356.5 199.96875,356.5 125.25368,356.5 62.72453,304.06079 47.1875,234 l -24,0 c 15.91544,83.1161 89.04806,146 176.78125,146 83.09826,0 153.06185,-56.41247 173.75,-133 2.52408,-8.99453 4.10681,-18.13982 5.1875,-27.40625 0.58612,-5.46287 0.93977,-9.99557 1.03125,-15.59375 l -156.96875,0 0,-8 156.96875,0 c -0.13305,-8.14281 -0.78702,-15.15352 -1.96875,-23 l -155,0 0,-30 -46,0 z M 54.375,234 c 1.8091,8.24201 4.66844,16.18176 7.78125,24 22.65721,53.75217 75.84712,91.5 137.8125,91.5 61.96538,0 115.15529,-37.74783 137.8125,-91.5 3.28711,-7.75647 5.79704,-15.80878 7.78125,-24 l -23.75,0 -243.6875,0 -23.75,0 z m 33.1875,24 224.8125,0 c -21.03196,40.68143 -63.47616,68.5 -112.40625,68.5 -48.93009,0 -91.3743,-27.81857 -112.40625,-68.5 z"
     id="path2396"
     style="fill:#000000;fill-opacity:1;stroke:none" />
</svg>
