<?xml version="1.0" encoding="UTF-8"?><svg width="384" height="453" viewBox="58 23 384 453" xmlns="http://www.w3.org/2000/svg">
 <path xmlns="http://www.w3.org/2000/svg" d="m164.8 205a115 115 0 1 0 193.5 -13.5 162.5 162.5 0 1 1 -234 18c13.5-17 55.8-55.1 76.5-49.5 43 11.6 7.7 89.5-36 45zm274.5-112.5c-56.3 17.1-92.8 20-112.5 63-12.6 27.3-1 60.4-9 94.5-11.1 47-51.5 68.6-85.5 90 87.4-90-14.8-253.6-171-207-7.9-25.5 74.9-66.2 130.5-54 12.6-17.4 21.5-38.5 36-54 25.8 11.7 41.8 33.2 63 49.5 48.6-19.5 116.4-6 148.5 18z" fill="#00549c"/>
</svg>