<?xml version="1.0" encoding="UTF-8" standalone="no"?>
<!-- Created with Inkscape (http://www.inkscape.org/) -->

<svg
   xmlns:svg="http://www.w3.org/2000/svg"
   xmlns="http://www.w3.org/2000/svg"
   version="1.0"
   width="450"
   height="450"
   id="svg2">
  <defs
     id="defs5" />
  <path
     d="M 225,25 203.8125,46.1875 C 120.9753,55.68142 55.18142,121.4753 45.6875,204.3125 L 25,225 45.6875,245.6875 c 9.49392,82.8372 75.2878,148.63108 158.125,158.125 L 225,425 246.3125,403.6875 c 81.92963,-9.91414 146.96086,-74.94537 156.875,-156.875 L 425,225 403.1875,203.1875 C 393.27336,121.25787 328.24213,56.22664 246.3125,46.3125 L 225,25 z m -0.5,38.5 c 5.69396,0 11.33307,0.29741 16.875,0.875 l 136.40625,137.40625 c -1.65422,-11.03255 -4.46465,-21.66408 -8.3125,-31.8125 l -98.6875,-99.1875 c 51.68149,15.49986 92.93764,56.25601 108.4375,107.9375 l -0.0312,-0.0312 c 0.35509,1.18294 0.7024,2.36812 1.03125,3.5625 2.30192,8.36067 3.95005,17.00041 4.875,25.84375 l 0.0312,0.0312 c 0.57759,5.54193 0.875,11.18104 0.875,16.875 0,5.69396 -0.29741,11.33307 -0.875,16.875 L 248.65625,377.96875 c 11.01352,-1.65453 21.6492,-4.44288 31.78125,-8.28125 l 98.28125,-98.40625 c -15.49986,51.68149 -56.25601,92.93764 -107.9375,108.4375 -0.73667,0.22094 -1.47769,0.44563 -2.21875,0.65625 -0.44733,0.12709 -0.89488,0.25171 -1.34375,0.375 -0.0729,0.02 -0.14583,0.0426 -0.21875,0.0625 -1.1209,0.30614 -2.24466,0.59274 -3.375,0.875 -3.50026,0.87405 -7.03867,1.64109 -10.625,2.28125 -0.11472,0.0205 -0.22894,0.0423 -0.34375,0.0625 -0.092,0.0162 -0.18919,0.0152 -0.28125,0.0312 -3.61325,0.63028 -7.27568,1.14561 -10.96875,1.53125 l -0.0312,0.0312 c -5.54193,0.57759 -11.18104,0.875 -16.875,0.875 -5.32131,0 -10.59189,-0.27596 -15.78125,-0.78125 L 72.0625,248.3125 C 73.61247,259.19474 76.31536,269.7143 80,279.75 l 99.625,99.875 C 126.80015,364.30741 85.14896,322.67384 69.84375,269.84375 69.78965,269.65717 69.74091,269.46811 69.6875,269.28125 65.48116,254.84895 63.65393,239.98083 63.5,225 c 0,-5.32131 0.27596,-10.59189 0.78125,-15.78125 L 202.1875,71.9375 C 191.30128,73.48608 180.78974,76.19052 170.75,79.875 L 69.875,180.125 c 15.31399,-52.81244 56.93756,-94.43601 109.75,-109.75 l -0.0312,0.0312 c 4.69345,-1.3628 9.48694,-3.02511 14.34375,-3.96875 3.64261,-0.70773 7.30456,-1.29617 11.03125,-1.75 1.01491,-0.12359 2.04167,-0.23972 3.0625,-0.34375 0.22713,-0.0231 0.46009,-0.0404 0.6875,-0.0625 C 213.90811,63.77596 219.17869,63.5 224.5,63.5 z m 0,44.5 c -23.37947,0 -44.6423,9.1695 -60.34375,24.125 l 19.40625,23.0625 c -6.30954,5.90944 -11.59176,12.6569 -15.8125,19.9375 -0.97423,-0.0748 -1.9334,-0.125 -2.875,-0.125 -18.62178,0 -51,17.56004 -51,51.3125 0,26.89675 17.60739,47.21346 42.75,52.46875 -0.97298,2.57899 -2,6.5789 -2,12.09375 0,33.29062 28,34.5 28,34.5 19.18192,0 26.875,-18.375 26.875,-18.375 0,0 -7.75705,9.5 -17.4375,9.5 0,0 -21.9375,-0.2296 -21.9375,-23.8125 0,-5.69549 1.7678,-10.02667 3.28125,-12.71875 C 195.13503,278.36417 207.5,263 207.5,263 c 0,0 -12.37083,10 -29.25,10 -29.12527,0 -48.875,-23.86925 -48.875,-45.625 0,-15.80353 12.87323,-36.5 37.25,-36.5 12.7598,0 26.875,9.24173 26.875,26.25 0,21.375 -17.5,20.75 -17.5,20.75 -13.63933,0 -13.75,-10.375 -13.75,-10.375 0,-7.00446 8.125,-6.99672 8.125,-12.875 0,0 -0.9989,-6.625 -8.125,-6.625 0,0 -14.75,2.21902 -14.75,18.375 0,13.24675 11.73915,26.5 29.75,26.5 14.25055,0 31.125,-10.49225 31.125,-36.625 0,-18.42361 -11.62972,-30.8294 -24.8125,-36.90625 2.96835,-4.29387 6.39179,-8.31638 10.28125,-11.96875 L 225.5,205 256.75,167.5625 c 4.05061,3.83088 7.61236,8.03892 10.65625,12.5625 -16.49594,7.12236 -27.90625,22.54853 -27.90625,39 0,11.32295 5.67376,22.65733 14.9375,30.90625 C 249.46563,253.72552 245,259.42351 245,268 c 0,10.543 7.48317,16.12242 15.03125,19.0625 -5.3084,3.20802 -11.53125,8.85021 -11.53125,17.75 0,18.88181 19.5,18.625 19.5,18.625 27.67539,0 36.375,-19.625 36.375,-19.625 0,0 -12.01028,13.25 -27.5625,13.25 0,0 -15.3125,-0.11101 -15.3125,-11.8125 0,-7.13488 7.81045,-12.6069 12.15625,-15.09375 1.08865,0.10204 1.78125,0.15625 1.78125,0.15625 36.17363,0 41,-19.375 41,-19.375 0,0 -10.01078,13.75 -35.5625,13.75 0,0 -19.375,-0.55396 -19.375,-15.1875 0,-4.84816 2.58227,-8.52762 5.75,-11.21875 6.00258,2.65839 12.72072,4.21875 19.875,4.21875 36.17363,0 45.375,-30.5 45.375,-30.5 0,0 -10.51078,19 -36.0625,19 -24.2688,0 -40.0625,-16.12234 -40.0625,-32 0,-12.62562 11.83364,-32.25 40.125,-32.25 24.2529,0 35,17.25 35,17.25 10e-6,0 -10.54152,-28 -44.0625,-28 -1.40509,0 -2.78266,0.0751 -4.15625,0.1875 -4.29025,-7.64875 -9.7468,-14.70081 -16.3125,-20.875 l 18.6875,-22.375 C 269.87791,117.5114 248.29248,108 224.5,108 z m 0,16 c 14.23935,0 27.53677,4.00108 38.875,10.90625 L 225.5,180 186.34375,134.46875 C 197.52411,127.84045 210.56732,124 224.5,124 z m 0.25,17 c -5.52,0 -9.99999,4.48 -10,10 0,5.52 4.48001,10 10,10 5.52,0 10.00001,-4.48 10,-10 0,-5.52 -4.47999,-10 -10,-10 z m 72,67.75 c -5.52,0 -9.99999,4.48 -10,10 0,5.52 4.48001,10 10,10 5.52,0 10.00001,-4.48 10,-10 0,-5.52 -4.47999,-10 -10,-10 z"
     id="rect2384"
     style="fill:#000000;fill-opacity:1;stroke:none" />
</svg>
