<?xml version="1.0" encoding="UTF-8" standalone="no"?>
<!-- Created with Inkscape (http://www.inkscape.org/) -->

<svg
   xmlns:dc="http://purl.org/dc/elements/1.1/"
   xmlns:cc="http://creativecommons.org/ns#"
   xmlns:rdf="http://www.w3.org/1999/02/22-rdf-syntax-ns#"
   xmlns:svg="http://www.w3.org/2000/svg"
   xmlns="http://www.w3.org/2000/svg"
   xmlns:sodipodi="http://sodipodi.sourceforge.net/DTD/sodipodi-0.dtd"
   xmlns:inkscape="http://www.inkscape.org/namespaces/inkscape"
   width="300"
   height="261.20728"
   id="svg2"
   version="1.1"
   inkscape:version="0.48.4 r"
   sodipodi:docname="Symbol of Yazu Tottori.svg">
  <defs
     id="defs4" />
  <sodipodi:namedview
     id="base"
     pagecolor="#ffffff"
     bordercolor="#666666"
     borderopacity="1.0"
     inkscape:pageopacity="0.0"
     inkscape:pageshadow="2"
     inkscape:zoom="1.5182819"
     inkscape:cx="161.40635"
     inkscape:cy="-2.1687402"
     inkscape:document-units="px"
     inkscape:current-layer="layer1"
     showgrid="false"
     inkscape:window-width="1280"
     inkscape:window-height="961"
     inkscape:window-x="-8"
     inkscape:window-y="-8"
     inkscape:window-maximized="1"
     fit-margin-top="0"
     fit-margin-left="0"
     fit-margin-right="0"
     fit-margin-bottom="0" />
  <metadata
     id="metadata7">
    <rdf:RDF>
      <cc:Work
         rdf:about="">
        <dc:format>image/svg+xml</dc:format>
        <dc:type
           rdf:resource="http://purl.org/dc/dcmitype/StillImage" />
        <dc:title></dc:title>
      </cc:Work>
    </rdf:RDF>
  </metadata>
  <g
     inkscape:label="レイヤー 1"
     inkscape:groupmode="layer"
     id="layer1"
     transform="translate(-12.354706,-295.09592)">
    <g
       id="g3797"
       transform="matrix(1.0814794,0,0,1.0814794,-1.0066534,-45.327226)">
      <path
         sodipodi:nodetypes="cccc"
         inkscape:connector-curvature="0"
         id="path3789"
         d="m 138.29162,505.56164 c -30.2715,-18.57076 -43.59807,-39.16835 -47.848294,-60.00919 -46.637443,-5.63074 -51.392205,24.89607 -78.088621,22.14461 28.18134,26.01515 78.91533,42.0179 125.936915,37.86458 z"
         style="fill:#009cda;fill-opacity:1;stroke:none" />
      <path
         sodipodi:nodetypes="cccsc"
         inkscape:connector-curvature="0"
         id="path3791"
         d="m 75.645862,354.26992 c 24.502208,-0.0951 53.704578,7.84931 85.872948,28.55581 -21.51856,44.10338 -27.59159,97.00608 20.05669,151.77847 -45.48669,-23.76852 -73.44251,-67.89211 -78.8705,-94.88077 -9.847329,-48.96221 -7.070662,-68.22521 -27.059138,-85.45351 z"
         style="fill:#00b175;fill-opacity:1;stroke:none" />
      <path
         sodipodi:nodetypes="csccc"
         inkscape:connector-curvature="0"
         id="path3793"
         d="m 154.607,475.90057 c 16.79147,12.17315 37.21694,26.5976 70.81507,28.88278 22.39821,1.52342 44.2364,-3.04533 64.33044,-9.70517 -11.84029,20.1816 -23.94487,40.45129 -37.56151,61.225 -51.39961,-7.76545 -86.90223,-51.95945 -97.584,-80.40261 z"
         style="fill:#00b175;fill-opacity:1;stroke:none" />
      <path
         sodipodi:nodetypes="cscccc"
         inkscape:connector-curvature="0"
         id="path3795"
         d="m 152.88913,465.59849 c -4.40077,-49.70438 24.00689,-79.26154 54.61188,-99.89531 25.21423,-16.99933 52.405,-34.1751 74.51745,-50.92775 23.77768,90.44516 -16.20289,144.66321 -54.49258,161.41167 14.57448,-19.16864 25.44882,-41.448 17.81985,-72.31243 -24.66099,18.23553 -69.66169,14.98663 -92.4566,61.72382 z"
         style="fill:#009cda;fill-opacity:1;stroke:none" />
    </g>
  </g>
</svg>
