<?xml version="1.0" encoding="UTF-8" standalone="no"?>
<!-- Created with Inkscape (http://www.inkscape.org/) -->

<svg
   xmlns:dc="http://purl.org/dc/elements/1.1/"
   xmlns:cc="http://creativecommons.org/ns#"
   xmlns:rdf="http://www.w3.org/1999/02/22-rdf-syntax-ns#"
   xmlns:svg="http://www.w3.org/2000/svg"
   xmlns="http://www.w3.org/2000/svg"
   xmlns:sodipodi="http://sodipodi.sourceforge.net/DTD/sodipodi-0.dtd"
   xmlns:inkscape="http://www.inkscape.org/namespaces/inkscape"
   width="300"
   height="300.01038"
   id="svg2"
   version="1.1"
   inkscape:version="0.48.4 r"
   sodipodi:docname="Symbol of Kotoura Tottori.svg">
  <defs
     id="defs4" />
  <sodipodi:namedview
     id="base"
     pagecolor="#ffffff"
     bordercolor="#666666"
     borderopacity="1.0"
     inkscape:pageopacity="0.0"
     inkscape:pageshadow="2"
     inkscape:zoom="1.218562"
     inkscape:cx="140.39133"
     inkscape:cy="114.88949"
     inkscape:document-units="px"
     inkscape:current-layer="layer1"
     showgrid="false"
     inkscape:window-width="1280"
     inkscape:window-height="961"
     inkscape:window-x="-8"
     inkscape:window-y="-8"
     inkscape:window-maximized="1"
     fit-margin-top="0"
     fit-margin-left="0"
     fit-margin-right="0"
     fit-margin-bottom="0" />
  <metadata
     id="metadata7">
    <rdf:RDF>
      <cc:Work
         rdf:about="">
        <dc:format>image/svg+xml</dc:format>
        <dc:type
           rdf:resource="http://purl.org/dc/dcmitype/StillImage" />
        <dc:title></dc:title>
      </cc:Work>
    </rdf:RDF>
  </metadata>
  <g
     inkscape:label="レイヤー 1"
     inkscape:groupmode="layer"
     id="layer1"
     transform="translate(-241.03724,-596.94931)">
    <g
       id="g3832"
       transform="matrix(1.0548871,0,0,1.0548871,-8.0357487,-248.33838)">
      <path
         sodipodi:nodetypes="csscsscsssssc"
         inkscape:connector-curvature="0"
         id="path3798"
         d="m 290.59459,831.71309 c -40.50265,31.0619 -60.98503,84.89309 -52.64282,135.26914 8.88914,53.67877 50.49958,99.99477 103.0798,113.89737 30.19125,7.9828 62.97091,6.129 91.75052,-6.0415 -25.15103,-13.7244 -51.51188,-30.9995 -63.09375,-58.4375 -6.75808,-16.0103 -4.00309,-34.31925 9.26534,-47.40031 3.07811,-3.03464 5.40364,-5.96652 9.59766,-9.91651 -27.28987,-5.30467 -73.45647,-23.28098 -95.08986,-37.1283 -8.8799,-5.68393 -20.88569,-15.0914 -15.49265,-27.02402 6.84983,-15.15592 24.45386,-20.18159 39.05328,-24.94647 20.71777,-6.76176 43.19755,-8.73958 63.34283,-15.7338 10.31172,-3.58012 -12.67136,-11.55863 -18.46854,-12.88917 -23.36878,-5.36347 -47.2577,-9.31952 -71.30181,-9.64893 z"
         style="fill:#55bb44;fill-opacity:1;stroke:none" />
      <path
         sodipodi:nodetypes="csssscc"
         inkscape:connector-curvature="0"
         id="path3814"
         d="m 519.84459,931.33809 c -24.18509,0.44964 -48.69313,4.82382 -70.53568,15.43486 -10.78334,5.23851 -22.13696,12.19134 -27.26379,23.53091 -4.63141,10.2438 1.33707,21.68888 8.49314,29.17703 12.85855,13.45521 29.92941,21.81491 46.79653,29.10771 3.71823,1.6077 7.49474,3.0946 11.291,4.4995 23.07323,-28.1434 34.88843,-65.45672 31.2188,-101.75001 z"
         style="fill:#55bb44;fill-opacity:1;stroke:none" />
      <path
         sodipodi:nodetypes="ccsssssscsccc"
         inkscape:connector-curvature="0"
         id="path3789"
         d="m 378.28209,801.30684 c -27.28933,-0.0766 -54.49054,8.08988 -77.3125,23.03125 29.19856,2.15153 58.77345,4.17342 87.00921,12.35016 7.069,2.0471 23.79659,8.0585 16.13278,17.0048 -5.7671,6.73219 -24.04745,8.8307 -36.34784,11.92823 -16.57516,4.17402 -34.05226,7.01486 -48.74143,16.38689 -7.69102,4.90705 -8.39039,15.66809 0.482,20.1042 20.88902,10.44431 43.37606,16.99621 65.91431,22.4197 16.55694,3.98418 33.36256,7.01765 50.30102,8.86852 18.23113,-5.03092 36.63686,-10.08096 55.63004,-11.4384 9.05476,-0.64714 18.15312,-1.01212 27.21371,-0.34285 -7.32231,-50.10886 -43.67407,-94.54323 -91.3411,-111.64097 -15.62995,-5.7612 -32.28552,-8.68301 -48.9402,-8.67153 z"
         style="fill:#00aadd;fill-opacity:1;stroke:none" />
    </g>
  </g>
</svg>
