<?xml version="1.0" encoding="UTF-8" ?>
<!DOCTYPE svg PUBLIC "-//W3C//DTD SVG 1.1//EN" "http://www.w3.org/Graphics/SVG/1.1/DTD/svg11.dtd">
<svg width="239pt" height="189pt" viewBox="0 0 239 189" version="1.1" xmlns="http://www.w3.org/2000/svg">
<g id="#fefffeff">
</g>
<g id="#9ed8f4ff">
<path fill="#9ed8f4" opacity="1.00" d=" M 86.11 25.12 C 102.52 13.14 122.65 6.21 143.00 5.93 C 164.07 5.48 185.24 12.25 202.05 24.99 C 220.53 38.72 232.88 60.25 235.87 83.03 C 237.24 95.79 236.40 108.98 232.05 121.13 C 231.17 124.02 228.49 125.69 225.96 127.00 C 209.93 135.05 192.03 139.93 174.00 139.17 C 160.23 139.71 146.31 136.98 133.76 131.33 C 141.96 130.54 150.39 131.79 158.38 129.37 C 172.49 125.55 185.33 115.71 191.07 102.06 C 196.92 88.41 197.44 72.21 191.40 58.53 C 185.39 46.15 174.18 36.76 161.65 31.37 C 148.69 25.34 134.09 23.93 119.97 24.95 C 104.60 26.05 89.46 31.02 76.68 39.67 C 70.95 43.12 66.53 48.24 61.10 52.09 C 67.04 41.18 76.34 32.58 86.11 25.12 Z" />
</g>
<g id="#358f2dff">
<path fill="#358f2d" opacity="1.00" d=" M 108.69 35.19 C 128.88 62.46 149.22 89.63 169.07 117.15 C 160.53 123.06 150.22 126.07 139.93 126.81 C 122.71 126.88 107.63 116.63 90.58 115.45 C 69.12 113.89 47.36 120.44 30.01 133.12 C 48.35 109.80 67.29 86.97 85.71 63.72 C 93.38 54.22 100.97 44.66 108.69 35.19 Z" />
</g>
<g id="#3570b3ff">
<path fill="#3570b3" opacity="1.00" d=" M 68.40 123.41 C 83.44 120.32 99.17 122.35 113.53 127.46 C 120.99 130.03 127.89 133.94 135.28 136.69 C 147.34 141.20 160.09 144.25 173.02 144.13 C 185.29 144.50 197.66 143.24 209.35 139.38 C 216.56 137.25 223.26 133.83 230.06 130.73 C 220.56 157.28 196.82 178.95 168.75 183.85 C 146.38 187.81 123.43 182.92 102.73 174.27 C 85.79 166.93 67.52 162.19 48.99 162.21 C 37.56 162.71 26.08 164.80 15.72 169.78 C 11.03 171.99 6.90 175.14 2.63 178.03 C 6.65 168.87 13.02 161.02 19.31 153.34 C 32.21 138.83 49.10 127.17 68.40 123.41 Z" />
</g>
</svg>
