<?xml version="1.0" encoding="UTF-8" standalone="no"?>
<!-- Created with Inkscape (http://www.inkscape.org/) -->

<svg
   xmlns:dc="http://purl.org/dc/elements/1.1/"
   xmlns:cc="http://creativecommons.org/ns#"
   xmlns:rdf="http://www.w3.org/1999/02/22-rdf-syntax-ns#"
   xmlns:svg="http://www.w3.org/2000/svg"
   xmlns="http://www.w3.org/2000/svg"
   xmlns:sodipodi="http://sodipodi.sourceforge.net/DTD/sodipodi-0.dtd"
   xmlns:inkscape="http://www.inkscape.org/namespaces/inkscape"
   width="500"
   height="414.88333"
   id="svg2"
   version="1.1"
   inkscape:version="0.48.4 r"
   sodipodi:docname="Symbol of Yasugi Shimane.svg">
  <defs
     id="defs4" />
  <sodipodi:namedview
     id="base"
     pagecolor="#ffffff"
     bordercolor="#666666"
     borderopacity="1.0"
     inkscape:pageopacity="0.0"
     inkscape:pageshadow="2"
     inkscape:zoom="1.262954"
     inkscape:cx="281.51784"
     inkscape:cy="138.82372"
     inkscape:document-units="px"
     inkscape:current-layer="layer1"
     showgrid="false"
     inkscape:window-width="1280"
     inkscape:window-height="961"
     inkscape:window-x="-8"
     inkscape:window-y="-8"
     inkscape:window-maximized="1"
     fit-margin-top="0"
     fit-margin-left="0"
     fit-margin-right="0"
     fit-margin-bottom="0" />
  <metadata
     id="metadata7">
    <rdf:RDF>
      <cc:Work
         rdf:about="">
        <dc:format>image/svg+xml</dc:format>
        <dc:type
           rdf:resource="http://purl.org/dc/dcmitype/StillImage" />
        <dc:title></dc:title>
      </cc:Work>
    </rdf:RDF>
  </metadata>
  <g
     inkscape:label="レイヤー 1"
     inkscape:groupmode="layer"
     id="layer1"
     transform="translate(-88.276245,-323.90938)">
    <g
       id="g3829"
       transform="matrix(0.96654751,0,0,0.96654751,2.9530606,24.714459)">
      <path
         transform="matrix(1.6827384,0,0,1.6827384,-37.323536,-222.03742)"
         d="m 326.13465,344.91171 c 0,16.01928 -12.98619,29.00547 -29.00547,29.00547 -16.01928,0 -29.00547,-12.98619 -29.00547,-29.00547 0,-16.01928 12.98619,-29.00547 29.00547,-29.00547 16.01928,0 29.00547,12.98619 29.00547,29.00547 z"
         sodipodi:ry="29.005468"
         sodipodi:rx="29.005468"
         sodipodi:cy="344.91171"
         sodipodi:cx="297.12918"
         id="path3764"
         style="fill:#ff8c00;fill-opacity:1;stroke:none"
         sodipodi:type="arc" />
      <path
         sodipodi:nodetypes="csssscsssc"
         inkscape:connector-curvature="0"
         id="path3766"
         d="m 172.61791,644.16327 c -37.35313,0.31411 -87.488883,-28.83054 -84.186602,-67.2078 6.679927,-77.63037 138.902042,-132.2076 243.362962,-151.3944 68.01217,-12.4921 131.25346,-14.16812 185.4015,-1.64837 46.6963,10.79681 88.00901,32.07516 88.38182,67.44126 0.66275,62.86971 -85.44726,110.1924 -158.4689,135.12304 11.09038,-35.90703 49.29268,-60.54798 36.78743,-84.89405 -21.58279,-42.01883 -106.12962,-45.45381 -160.59126,-36.78742 -64.36256,10.24191 -110.37888,22.644 -159.8838,68.62269 -18.12779,16.83655 -23.12619,39.06137 9.19685,70.74505 z"
         style="fill:#6bad00;fill-opacity:1;stroke:none" />
      <path
         sodipodi:nodetypes="cscsc"
         inkscape:connector-curvature="0"
         id="path3768"
         d="m 428.00753,537.33825 c -50.06623,14.6105 -149.14567,30.59385 -169.08066,91.2611 -12.50679,38.06135 31.40041,48.82636 58.01094,58.71839 -49.0527,8.59923 -163.42295,7.38299 -166.25086,-41.03212 C 145.96632,565.4663 331.15896,518.7149 428.00753,537.33825 z"
         style="fill:#ff8c00;fill-opacity:1;stroke:none" />
      <path
         sodipodi:nodetypes="cscsc"
         inkscape:connector-curvature="0"
         id="path3768-5"
         d="m 319.72333,584.72701 c 14.69371,7.536 56.31374,9.59251 60.84074,45.27682 6.71056,52.89633 -133.98073,101.17769 -168.37321,103.28777 67.04129,21.94102 275.27952,-23.77139 275.19823,-101.16541 -0.0488,-46.46836 -80.84026,-62.52917 -167.66576,-47.39918 z"
         style="fill:#316bb5;fill-opacity:1;stroke:none" />
    </g>
  </g>
</svg>
