<?xml version="1.0" encoding="utf-8" standalone="no"?>
<svg xmlns:svg="http://www.w3.org/2000/svg" xmlns="http://www.w3.org/2000/svg" version="1.1" width="500" height="500" viewBox="-250,-250,500,500">
	<title>Ōda, Shimane Chapter</title>
	<polygon points="-250,250 -250,-250 250,-250 250,250 " style="fill:none;stroke:none" />
	<g style="fill:#be0026;stroke:none">
		<path d="M 0,-240 -84.636952,240 0,207.51092 84.636952,240 z" />
		<path d="M 0,-208 A 208,208 0 0 0 -208,0 208,208 0 0 0 -80.125,191.75 L -58.78125,70.75 A 92,92 0 0 1 -92,0 92,92 0 0 1 0,-92 92,92 0 0 1 92,0 92,92 0 0 1 58.78125,70.65625 L 80.15625,191.90625 A 208,208 0 0 0 208,0 208,208 0 0 0 0,-208 z" />
	</g>
</svg>