<?xml version="1.0" encoding="UTF-8" standalone="no"?>
<!-- Created with Inkscape (http://www.inkscape.org/) -->

<svg
   xmlns:dc="http://purl.org/dc/elements/1.1/"
   xmlns:cc="http://creativecommons.org/ns#"
   xmlns:rdf="http://www.w3.org/1999/02/22-rdf-syntax-ns#"
   xmlns:svg="http://www.w3.org/2000/svg"
   xmlns="http://www.w3.org/2000/svg"
   xmlns:sodipodi="http://sodipodi.sourceforge.net/DTD/sodipodi-0.dtd"
   xmlns:inkscape="http://www.inkscape.org/namespaces/inkscape"
   version="1.0"
   width="500"
   height="364.3432"
   id="svg2"
   inkscape:version="0.48.4 r"
   sodipodi:docname="Symbol of Izumo Shimane.svg">
  <metadata
     id="metadata12">
    <rdf:RDF>
      <cc:Work
         rdf:about="">
        <dc:format>image/svg+xml</dc:format>
        <dc:type
           rdf:resource="http://purl.org/dc/dcmitype/StillImage" />
        <dc:title></dc:title>
      </cc:Work>
    </rdf:RDF>
  </metadata>
  <defs
     id="defs10" />
  <sodipodi:namedview
     pagecolor="#ffffff"
     bordercolor="#666666"
     borderopacity="1"
     objecttolerance="10"
     gridtolerance="10"
     guidetolerance="10"
     inkscape:pageopacity="0"
     inkscape:pageshadow="2"
     inkscape:window-width="1280"
     inkscape:window-height="961"
     id="namedview8"
     showgrid="false"
     fit-margin-top="0"
     fit-margin-left="0"
     fit-margin-right="0"
     fit-margin-bottom="0"
     inkscape:zoom="1.4734331"
     inkscape:cx="249.58711"
     inkscape:cy="201.42187"
     inkscape:window-x="-8"
     inkscape:window-y="-8"
     inkscape:window-maximized="1"
     inkscape:current-layer="svg2" />
  <g
     id="g3807"
     transform="scale(0.99961537,0.99961537)">
    <path
       sodipodi:nodetypes="scccscccs"
       inkscape:connector-curvature="0"
       style="fill:#f82c34;fill-opacity:1;stroke:none"
       id="use2393"
       d="m 250,182.41821 c -36.78927,0 -67.59555,26.88763 -77.71739,58.50266 -43.21007,-22.2887 -59.43152,-58.67911 -59.43152,-58.67911 L 0,182.43415 c 19.021739,71.58293 98.043315,182.04925 250,182.04925 149.94245,0 230.35543,-108.55379 250.19239,-182.04926 l -112.14891,-0.19239 c 0,0 -16.75353,36.42678 -60.32609,58.71328 C 317.33397,208.50417 286.80072,182.41821 250,182.41821 z" />
    <path
       sodipodi:nodetypes="scccscccs"
       inkscape:connector-curvature="0"
       style="fill:#f82c34;fill-opacity:1;stroke:none"
       id="use2393-9"
       d="m 250,0.17645 c -36.78927,0 -67.59555,26.88763 -77.71739,58.50266 C 129.07254,36.39041 112.85109,0 112.85109,0 L 2.33e-6,0.19239 C 19.021742,71.775335 98.043318,182.24166 250,182.24166 c 149.94245,0 230.35543,-108.553805 250.19239,-182.04927 L 388.04348,0 c 0,0 -16.75353,36.42677 -60.32609,58.71327 C 317.33397,26.26241 286.80072,0.17645 250,0.17645 z" />
  </g>
</svg>
