<?xml version="1.0" encoding="UTF-8" standalone="no"?>
<!DOCTYPE svg PUBLIC "-//W3C//DTD SVG 1.1//EN" "http://www.w3.org/Graphics/SVG/1.1/DTD/svg11.dtd">
<svg width="100%" height="100%" viewBox="0 0 760 760" version="1.1" xmlns="http://www.w3.org/2000/svg">
    <rect fill="#fff" x="0" y="0" width="760" height="760"/>
    <path fill="#037b52" d="M247.7,713.8C277.3,672.7 325.6,646 380,646C434.4,646 482.7,672.7 512.3,713.8C471.3,730.1 426.7,739 380,739C333.3,739 288.7,730.1 247.7,713.8ZM169,670.4C213.6,603.3 290.9,558.4 374.3,556.6C376.5,556.5 378.6,556.5 380.8,556.5C458.7,556.9 534.5,594.8 581.4,656.7C584.8,661.2 588,665.7 591,670.4C575.8,681.4 559.8,691.3 543,699.9C528.6,678.4 510.1,659.5 488.3,645.1C456.8,624.2 419.4,612.8 381.3,612.5C380.6,612.5 380,612.5 379.4,612.5C318.8,612.8 259.8,642.3 223.3,690.5C221,693.5 218.8,696.6 216.7,699.7C200,691.2 184.1,681.4 169,670.4ZM102.4,607.6C163.9,523.3 264.6,468.6 371.7,466.1C374.1,466 376.5,466 378.9,466C379.4,466 380,466 380.6,466C452.6,466.2 524.6,489.7 582.7,532.4C611.4,553.4 636.6,579 657.5,607.7C645.4,622.4 632.2,636.1 618,648.7C614.1,642.9 610.1,637.3 605.8,631.9C555.8,568.3 478.6,527 396.2,522.4C390.6,522.1 385.1,522 379.5,522C318.6,522.1 258.4,542.1 209.7,578C183.4,597.5 160.5,621.6 142.1,648.8C127.8,636.1 114.5,622.3 102.4,607.6ZM635.5,542.8C659.1,510.6 672.1,477.5 676.1,448.5C680.6,416.6 659.1,381.9 631.8,381C602.5,380 589.6,404.4 589.2,419.3C588.8,434.2 600.4,450.9 587.5,466.8C578,478.5 551,483.8 535.1,460.4C520.8,439.5 524.4,378.5 549.7,353.6C589.7,314 654,318.7 686.7,340.6C733.2,371.8 738.2,415.5 733.3,445.3C729.2,469.7 721.1,496.3 709.9,522.2C703.5,537 690,563.3 674.1,586.2C662.3,570.7 649.4,556.2 635.5,542.8ZM85.9,586.2C70,563.3 56.5,537 50.1,522.2C38.9,496.3 30.8,469.7 26.7,445.3C21.8,415.5 26.8,371.8 73.3,340.6C106,318.7 170.3,314 210.3,353.6C235.6,378.5 239.2,439.5 224.9,460.4C209,483.8 182,478.5 172.5,466.8C159.6,450.9 171.2,434.2 170.8,419.3C170.4,404.4 157.5,380 128.2,381C100.9,381.9 79.4,416.6 83.9,448.5C87.9,477.5 100.9,510.6 124.5,542.8C110.6,556.2 97.7,570.7 85.9,586.2ZM591.2,506.4C607.5,485.4 619.5,461.3 622,444.8C626,418.2 621.7,404.6 624.4,399.6C627.7,393.5 660.3,414.4 657.3,454.4C655.9,472.5 644.8,506.2 626.5,534.5C615.3,524.5 603.5,515.1 591.2,506.4ZM133.5,534.5C115.2,506.2 104.1,472.5 102.7,454.4C99.7,414.4 132.3,393.5 135.6,399.6C138.3,404.6 134,418.2 138,444.8C140.5,461.3 152.5,485.4 168.8,506.4C156.5,515.1 144.7,524.5 133.5,534.5ZM380,120.6C393.8,120.6 398.9,128.3 398.9,137.7C398.9,147.2 387.7,152.6 387.8,155.8C388,164.3 387.5,179.5 388.1,188.5C397.5,179.3 412.9,166.6 416.4,157C420.5,145.8 422.3,137.5 426.3,133.1C432.9,125.9 441.4,127.4 445.9,131.7C454.2,139.7 452.2,160.6 433.7,171.4C425.4,176.2 416,187.4 408.8,192.9C414.4,191.8 430.2,194 445.7,184.3C461.2,174.6 482.7,142.3 495.1,142.3C515.8,142.4 517.9,157.5 513.2,170.9C508.4,184.3 477.9,194.9 471,197.6C460.7,201.6 443.2,207.5 427.9,207.5C413.1,207.6 400.6,205.9 394.1,210.4C387.7,214.7 387,232.9 387,256.8C387,280.6 385.1,303.1 393.8,306.4C402.5,309.6 413.5,304.6 418.5,296.1C423.6,287.2 421.5,269.2 417.2,256.1C431.3,257.1 439.9,263.6 445.1,274C445.4,269.4 449.9,257.9 455.1,250.6C463,239.6 479.6,230.1 488.1,222.9C488.1,222.9 493.5,255 484.8,268.1C504.6,264.1 501.1,258 512.3,256.1C534.3,252.5 548.2,261.6 566.9,247.3C566.9,247.3 563.7,269 557.4,280.1C546.1,300.3 529.9,308.7 506.3,314.7C492.8,318.2 469.7,315.6 453.9,317.7C427.5,321.3 411.1,336.4 397,356.2C389.2,367.2 390.9,390.1 391.9,400.9C402.8,394.3 414.2,386.2 423.5,383.1C439.7,377.7 458.7,387.9 470.4,389.4C489.5,391.8 511,374.4 517.1,372.5C517.4,377.1 510.2,396 504,411.4C496.5,430 470.7,445.8 443.2,448.8C425.4,450.7 398.4,437.4 380,437.4C361.6,437.4 334.7,450.7 316.8,448.8C289.4,445.8 263.5,430 256,411.4C249.8,396 242.6,377.1 242.9,372.5C249,374.4 270.5,391.8 289.6,389.4C301.3,387.9 320.3,377.7 336.5,383.1C345.8,386.2 357.3,394.3 368.1,400.9C369.1,390.1 370.8,367.2 363,356.2C348.9,336.4 332.5,321.3 306.1,317.7C290.3,315.6 267.2,318.2 253.8,314.7C230.1,308.7 213.9,300.3 202.6,280.1C196.3,269 193.1,247.3 193.1,247.3C211.8,261.6 225.7,252.5 247.7,256.1C258.9,258 255.4,264.1 275.2,268.1C266.6,255 271.9,222.9 271.9,222.9C280.4,230.1 297,239.6 304.9,250.6C310.1,257.9 314.7,269.4 315,274C320.1,263.6 328.7,257.1 342.8,256.1C338.6,269.2 336.4,287.2 341.5,296.1C346.5,304.6 357.5,309.6 366.2,306.4C374.9,303.1 373,280.6 373,256.8C373,232.9 372.3,214.7 365.9,210.4C359.4,205.9 347,207.6 332.1,207.5C316.8,207.5 299.3,201.6 289,197.6C282.1,194.9 251.6,184.3 246.9,170.9C242.1,157.5 244.3,142.4 265,142.3C277.3,142.3 298.9,174.6 314.4,184.3C329.8,194 345.6,191.8 351.2,192.9C344.1,187.4 334.6,176.2 326.3,171.4C307.8,160.6 305.9,139.7 314.1,131.7C318.6,127.4 327.2,125.9 333.7,133.1C337.8,137.5 339.5,145.8 343.6,157C347.1,166.6 362.6,179.3 371.9,188.5C372.6,179.5 372.1,164.3 372.3,155.8C372.3,152.6 361.1,147.2 361.1,137.7C361.1,128.3 366.2,120.6 380,120.6L380,120.6L380,120.6L380,120.6L380,120.6ZM668.7,314.6C645.5,211.7 568.5,129 468.9,97.6C460.7,108.5 447.6,115.5 433,115.5C408.2,115.5 388,96.3 388,71.5C388,58.6 393.4,47.6 402.2,39.4C410.2,31.8 421.1,28.3 433,27.5C440.1,27 449,27.6 453.2,28.5C610.9,61.2 730.8,197.5 738.6,362.8C716.6,345.1 693.2,329 668.7,314.6ZM21.4,362.8C29.2,198.4 147.7,62.8 303.9,29.1C309.4,27.9 320.3,26.8 327,27.5C338.6,28.6 349.3,31.7 357.3,39C366.3,47.2 372,58.3 372,71.5C372,96.3 351.8,115.5 327,115.5C312.4,115.5 299.3,108.5 291.1,97.6C191.5,129 114.5,211.7 91.3,314.6C66.8,329 43.4,345.1 21.4,362.8ZM586.6,275C585.4,249.6 575.6,230.5 557.8,221.7C554.1,240.5 530.2,243.9 516.6,231.9C500.7,218 506.3,189.5 524.9,181.1C543.1,172.9 566.2,176.6 595.1,205.8C616.7,227.5 635.8,267.2 644.1,301C625.5,291.3 606.3,282.6 586.6,275ZM115.9,301C124.2,267.2 143.3,227.5 164.9,205.8C193.8,176.6 216.9,172.9 235.1,181.1C253.7,189.5 259.3,218 243.4,231.9C229.8,243.9 205.9,240.5 202.2,221.7C184.4,230.5 174.6,249.6 173.4,275C153.7,282.6 134.5,291.3 115.9,301Z"/>
</svg>
