<?xml version="1.0" encoding="UTF-8" standalone="no"?>
<!-- Created with Inkscape (http://www.inkscape.org/) -->

<svg
   xmlns:dc="http://purl.org/dc/elements/1.1/"
   xmlns:cc="http://creativecommons.org/ns#"
   xmlns:rdf="http://www.w3.org/1999/02/22-rdf-syntax-ns#"
   xmlns:svg="http://www.w3.org/2000/svg"
   xmlns="http://www.w3.org/2000/svg"
   xmlns:sodipodi="http://sodipodi.sourceforge.net/DTD/sodipodi-0.dtd"
   xmlns:inkscape="http://www.inkscape.org/namespaces/inkscape"
   width="250"
   height="250.6167"
   id="svg2"
   version="1.1"
   inkscape:version="0.48.4 r"
   sodipodi:docname="Symbol of Okinoshima Shimane.svg">
  <defs
     id="defs4" />
  <sodipodi:namedview
     id="base"
     pagecolor="#ffffff"
     bordercolor="#666666"
     borderopacity="1.0"
     inkscape:pageopacity="0.0"
     inkscape:pageshadow="2"
     inkscape:zoom="2.9479999"
     inkscape:cx="125"
     inkscape:cy="125.30835"
     inkscape:document-units="px"
     inkscape:current-layer="layer1"
     showgrid="false"
     inkscape:window-width="1280"
     inkscape:window-height="961"
     inkscape:window-x="-8"
     inkscape:window-y="-8"
     inkscape:window-maximized="1"
     fit-margin-top="0"
     fit-margin-left="0"
     fit-margin-right="0"
     fit-margin-bottom="0" />
  <metadata
     id="metadata7">
    <rdf:RDF>
      <cc:Work
         rdf:about="">
        <dc:format>image/svg+xml</dc:format>
        <dc:type
           rdf:resource="http://purl.org/dc/dcmitype/StillImage" />
        <dc:title></dc:title>
      </cc:Work>
    </rdf:RDF>
  </metadata>
  <g
     inkscape:label="レイヤー 1"
     inkscape:groupmode="layer"
     id="layer1"
     transform="translate(-26.650654,-612.61391)">
    <g
       id="g3825"
       transform="matrix(1.3451416,0,0,1.3451416,-9.1982483,-297.93676)">
      <path
         sodipodi:nodetypes="csssccsscssc"
         inkscape:connector-curvature="0"
         id="path3792"
         d="m 112.8694,676.91808 c -48.220798,3.61406 -86.218747,43.88604 -86.218747,93.03125 0,51.52431 41.788201,93.28125 93.312497,93.28125 41.8743,0 76.94205,-28.26313 88.94955,-65.88608 12.23259,-38.32822 -8.15606,-73.1623 -40.2933,-73.20767 -24.72683,0.99986 -37.80176,14.4748 -35.844,34 0.852,9.11553 8.87299,16.28125 18.18775,16.28125 9.80035,0 17.75,-7.9184 17.75,-17.71875 0,-3.58488 -1.07821,-6.92847 -2.90625,-9.71875 5.71621,4.40983 9.92086,15.8046 7.40625,27.8125 -4.25471,20.31719 -42.65972,64.79937 -89.156247,34.21875 C 37.560385,778.43123 52.792809,700.61853 112.8694,676.91808 z"
         style="fill:#2c5a93;fill-opacity:1;stroke:none" />
      <path
         sodipodi:nodetypes="sssscccss"
         inkscape:connector-curvature="0"
         id="path3794"
         d="m 136.1819,680.76183 c -23.18167,0.76706 -39.408607,17.76143 -34.125,37.84375 2.12283,8.06858 8.78563,14.375 17.4375,14.375 9.80035,0 17.75,-7.9184 17.75,-17.71875 0,-4.39885 -1.63072,-8.43069 -4.28125,-11.53125 6.79481,4.88357 12.51499,13.58269 14.5,18.53125 13.89718,-5.94963 37.93749,-6.91918 58.23125,13.45043 -9.02892,-24.82137 -30.81708,-45.09978 -52.575,-52.26293 -5.48852,-1.80693 -11.27593,-2.87484 -16.9375,-2.6875 z"
         style="fill:#0091c6;fill-opacity:1;stroke:none" />
      <path
         sodipodi:nodetypes="cccsc"
         inkscape:connector-curvature="0"
         id="path3799"
         d="m 63.972403,739.94326 c 7.761334,53.10949 58.614797,46.63914 70.084577,34.26424 10.66961,7.9698 22.95541,8.89967 32.56446,1.08548 -3.79619,19.25783 -26.8357,39.99394 -53.73135,37.64928 -29.249537,-2.54986 -56.981117,-27.9224 -48.917687,-72.999 z"
         style="fill:#0091c6;fill-opacity:1;stroke:none" />
    </g>
  </g>
</svg>
