<?xml version="1.0" encoding="UTF-8" standalone="no"?>
<!-- Created with Inkscape (http://www.inkscape.org/) -->

<svg
   xmlns:dc="http://purl.org/dc/elements/1.1/"
   xmlns:cc="http://creativecommons.org/ns#"
   xmlns:rdf="http://www.w3.org/1999/02/22-rdf-syntax-ns#"
   xmlns:svg="http://www.w3.org/2000/svg"
   xmlns="http://www.w3.org/2000/svg"
   xmlns:sodipodi="http://sodipodi.sourceforge.net/DTD/sodipodi-0.dtd"
   xmlns:inkscape="http://www.inkscape.org/namespaces/inkscape"
   version="1.0"
   width="566"
   height="566.25"
   id="svg2"
   inkscape:version="0.48.4 r9939"
   sodipodi:docname="Flag_of_Okayama,_Okayama.svg">
  <metadata
     id="metadata8">
    <rdf:RDF>
      <cc:Work
         rdf:about="">
        <dc:format>image/svg+xml</dc:format>
        <dc:type
           rdf:resource="http://purl.org/dc/dcmitype/StillImage" />
      </cc:Work>
    </rdf:RDF>
  </metadata>
  <sodipodi:namedview
     pagecolor="#ffffff"
     bordercolor="#666666"
     borderopacity="1"
     objecttolerance="10"
     gridtolerance="10"
     guidetolerance="10"
     inkscape:pageopacity="0"
     inkscape:pageshadow="2"
     inkscape:window-width="1078"
     inkscape:window-height="666"
     id="namedview6"
     showgrid="false"
     fit-margin-top="0"
     fit-margin-left="0"
     fit-margin-right="0"
     fit-margin-bottom="0"
     inkscape:zoom="0.37460317"
     inkscape:cx="283"
     inkscape:cy="282.25"
     inkscape:window-x="0"
     inkscape:window-y="0"
     inkscape:window-maximized="0"
     inkscape:current-layer="svg2" />
  <defs
     id="defs5" />
  <path
     d="m 283,0 -65.46875,126 -134.5,-42.53125 42.65625,134.875 L 0,283.65625 125.625,348.9375 83.03125,483.6875 217.9375,441.0625 283,566.25 348.0625,441.0625 482.96875,483.6875 440.375,348.9375 566,283.65625 440.34375,218.34375 482.96875,83.46875 348.46875,126 283,0 z m 0,36.46875 11.375,104.4375 c 69.46533,5.45774 125.05009,60.44079 131.5,129.625 l 103.625,12.75 -103.34375,11.28125 c -5.1051,70.03697 -60.52504,126.15702 -130.25,132.375 L 284.5,531.5 271.65625,427.09375 C 201.80805,421.62582 145.96639,366.08263 140,296.375 L 36.34375,285.0625 139.9375,272.3125 c 5.61517,-69.5263 60.84801,-125.1162 130.21875,-131.28125 L 283,36.46875 z m 0,116.6875 c -72.60007,0 -131.53127,58.24368 -131.53125,130.84375 0,72.60007 58.93118,132.28123 131.53125,132.28125 72.60007,0 131.90627,-59.68118 131.90625,-132.28125 0,-72.60007 -59.30618,-130.84375 -131.90625,-130.84375 z m 0,29.71875 c 17.91611,0 34.74674,3.9599 49.375,12.09375 L 282.3125,245 232.75,195.4375 C 247.57871,187.00086 264.72817,182.875 283,182.875 z m 75.375,32.75 c 16.40924,18.07717 26.4375,42.05251 26.4375,68.375 2e-5,50.76294 -37.20055,93.09952 -85.8125,100.78125 L 299,302 l 70,0 0,-34 -63,0 52.375,-52.375 z M 206.96875,216.34375 258.625,268 196,268 l 0,34 69,0 0,82.46875 c -47.63561,-8.5 -83.8125,-50.39926 -83.8125,-100.46875 -1e-5,-25.97137 9.76017,-49.66501 25.78125,-67.65625 z"
     id="path2415"
     style="fill:#0075c1;fill-opacity:1;stroke:none"
     inkscape:connector-curvature="0" />
</svg>
