<?xml version="1.0" encoding="UTF-8" standalone="no"?>
<!-- Created with Inkscape (http://www.inkscape.org/) -->

<svg
   xmlns:dc="http://purl.org/dc/elements/1.1/"
   xmlns:cc="http://creativecommons.org/ns#"
   xmlns:rdf="http://www.w3.org/1999/02/22-rdf-syntax-ns#"
   xmlns:svg="http://www.w3.org/2000/svg"
   xmlns="http://www.w3.org/2000/svg"
   xmlns:sodipodi="http://sodipodi.sourceforge.net/DTD/sodipodi-0.dtd"
   xmlns:inkscape="http://www.inkscape.org/namespaces/inkscape"
   width="208.17686"
   height="154.37764"
   id="svg2"
   version="1.1"
   inkscape:version="0.92.3 (2405546, 2018-03-11)"
   sodipodi:docname="Emblem of Ibara, Okayama.svg">
  <defs
     id="defs4" />
  <sodipodi:namedview
     id="base"
     pagecolor="#ffffff"
     bordercolor="#666666"
     borderopacity="1.0"
     inkscape:pageopacity="0.0"
     inkscape:pageshadow="2"
     inkscape:zoom="1.979899"
     inkscape:cx="-60.219335"
     inkscape:cy="74.751958"
     inkscape:document-units="px"
     inkscape:current-layer="layer1"
     showgrid="false"
     fit-margin-top="0"
     fit-margin-left="0"
     fit-margin-right="0"
     fit-margin-bottom="0"
     inkscape:window-width="1920"
     inkscape:window-height="1017"
     inkscape:window-x="-8"
     inkscape:window-y="-8"
     inkscape:window-maximized="1" />
  <metadata
     id="metadata7">
    <rdf:RDF>
      <cc:Work
         rdf:about="">
        <dc:format>image/svg+xml</dc:format>
        <dc:type
           rdf:resource="http://purl.org/dc/dcmitype/StillImage" />
        <dc:title></dc:title>
      </cc:Work>
    </rdf:RDF>
  </metadata>
  <g
     inkscape:label="レイヤー 1"
     inkscape:groupmode="layer"
     id="layer1"
     transform="translate(-270.91156,-435.17337)">
    <path
       style="color:#000000;font-style:normal;font-variant:normal;font-weight:normal;font-stretch:normal;font-size:medium;line-height:normal;font-family:Sans;-inkscape-font-specification:Sans;text-indent:0;text-align:start;text-decoration:none;text-decoration-line:none;letter-spacing:normal;word-spacing:normal;text-transform:none;writing-mode:lr-tb;direction:ltr;baseline-shift:baseline;text-anchor:start;display:inline;overflow:visible;visibility:visible;fill:#182665;fill-opacity:1;fill-rule:nonzero;stroke:none;stroke-width:14;marker:none;enable-background:accumulate"
       d="m 381.42506,457.25106 -8.125,11.4375 71.4375,50.71875 8.09375,-11.4375 z"
       id="path3771"
       inkscape:connector-curvature="0" />
    <path
       id="path3075"
       style="color:#000000;font-style:normal;font-variant:normal;font-weight:normal;font-stretch:normal;font-size:medium;line-height:normal;font-family:Sans;-inkscape-font-specification:Sans;text-indent:0;text-align:start;text-decoration:none;text-decoration-line:none;letter-spacing:normal;word-spacing:normal;text-transform:none;writing-mode:lr-tb;direction:ltr;baseline-shift:baseline;text-anchor:start;display:inline;overflow:visible;visibility:visible;fill:#182665;fill-opacity:1;fill-rule:nonzero;stroke:none;stroke-width:14;marker:none;enable-background:accumulate"
       d="m 444.73756,507.06356 -71.4375,50.71875 8.125,11.40625 71.40625,-50.71875 z"
       inkscape:connector-curvature="0" />
    <path
       id="path3077"
       style="display:inline;fill:#182665;fill-opacity:1;stroke:none"
       d="m 458.14381,500.62606 c -6.83417,0 -12.375,5.54083 -12.375,12.375 0,6.83417 5.54083,12.375 12.375,12.375 6.83417,0 12.375,-5.54083 12.375,-12.375 0,-6.83417 -5.54083,-12.375 -12.375,-12.375 z m 0,8.09375 c 2.37104,0 4.28125,1.91021 4.28125,4.28125 0,2.37104 -1.91021,4.3125 -4.28125,4.3125 -2.37104,0 -4.3125,-1.94146 -4.3125,-4.3125 0,-2.37104 1.94146,-4.28125 4.3125,-4.28125 z"
       inkscape:connector-curvature="0" />
    <path
       style="color:#000000;font-style:normal;font-variant:normal;font-weight:normal;font-stretch:normal;font-size:medium;line-height:normal;font-family:Sans;-inkscape-font-specification:Sans;text-indent:0;text-align:start;text-decoration:none;text-decoration-line:none;letter-spacing:normal;word-spacing:normal;text-transform:none;writing-mode:lr-tb;direction:ltr;baseline-shift:baseline;text-anchor:start;display:inline;overflow:visible;visibility:visible;fill:#182665;fill-opacity:1;fill-rule:nonzero;stroke:none;stroke-width:14;marker:none;enable-background:accumulate"
       d="m 369.17506,457.25106 -71.4375,50.71875 8.09375,11.4375 71.4375,-50.71875 z"
       id="path3804"
       inkscape:connector-curvature="0" />
    <path
       style="color:#000000;font-style:normal;font-variant:normal;font-weight:normal;font-stretch:normal;font-size:medium;line-height:normal;font-family:Sans;-inkscape-font-specification:Sans;text-indent:0;text-align:start;text-decoration:none;text-decoration-line:none;letter-spacing:normal;word-spacing:normal;text-transform:none;writing-mode:lr-tb;direction:ltr;baseline-shift:baseline;text-anchor:start;display:inline;overflow:visible;visibility:visible;fill:#182665;fill-opacity:1;fill-rule:nonzero;stroke:none;stroke-width:14;marker:none;enable-background:accumulate"
       d="m 305.83131,507.06356 -8.09375,11.40625 71.4375,50.71875 8.09375,-11.40625 z"
       id="path3806"
       inkscape:connector-curvature="0" />
    <path
       id="path3081"
       d="m 292.43281,500.62606 c 6.83417,0 12.375,5.54083 12.375,12.375 0,6.83417 -5.54083,12.375 -12.375,12.375 -6.83417,0 -12.375,-5.54083 -12.375,-12.375 0,-6.83417 5.54083,-12.375 12.375,-12.375 z m 0,8.09375 c -2.37104,0 -4.28125,1.91021 -4.28125,4.28125 0,2.37104 1.91021,4.3125 4.28125,4.3125 2.37104,0 4.3125,-1.94146 4.3125,-4.3125 0,-2.37104 -1.94146,-4.28125 -4.3125,-4.28125 z"
       style="display:inline;fill:#182665;fill-opacity:1;stroke:none"
       inkscape:connector-curvature="0" />
    <path
       id="path3083"
       d="m 374.80622,441.42724 c -6.83417,0 -12.375,5.54083 -12.375,12.375 0,6.83417 5.54083,12.375 12.375,12.375 6.83417,0 12.375,-5.54083 12.375,-12.375 0,-6.83417 -5.54083,-12.375 -12.375,-12.375 z m 0,8.09375 c 2.37104,0 4.28125,1.91021 4.28125,4.28125 0,2.37104 -1.91021,4.3125 -4.28125,4.3125 -2.37104,0 -4.3125,-1.94146 -4.3125,-4.3125 0,-2.37104 1.94146,-4.28125 4.3125,-4.28125 z"
       style="display:inline;fill:#182665;fill-opacity:1;stroke:none"
       inkscape:connector-curvature="0" />
    <path
       id="path3085"
       inkscape:connector-curvature="0"
       style="display:inline;fill:#182665;fill-opacity:1;stroke:none"
       d="m 374.80622,584.18467 c -6.83417,0 -12.375,-5.54083 -12.375,-12.375 0,-6.83417 5.54083,-12.375 12.375,-12.375 6.83417,0 12.375,5.54083 12.375,12.375 0,6.83417 -5.54083,12.375 -12.375,12.375 z m 0,-8.09375 c 2.37104,0 4.28125,-1.91021 4.28125,-4.28125 0,-2.37104 -1.91021,-4.3125 -4.28125,-4.3125 -2.37104,0 -4.3125,1.94146 -4.3125,4.3125 0,2.37104 1.94146,4.28125 4.3125,4.28125 z" />
    <path
       style="display:inline;fill:#182665;fill-opacity:1;stroke:none"
       d="m 376.70631,481.37606 v 18.71875 c 3.94815,0.41664 7.35636,2.59113 9.46875,5.71875 h 20.0625 c -3.21601,-13.58495 -15.11674,-23.81155 -29.53125,-24.4375 z"
       id="path3029"
       inkscape:connector-curvature="0" />
    <path
       style="display:inline;fill:#182665;fill-opacity:1;stroke:none"
       d="m 373.48756,481.40726 c -14.22908,0.8008 -25.93941,10.95086 -29.12475,24.40625 h 20.06225 c 2.04014,-3.02064 5.28532,-5.13932 9.0625,-5.65625 z"
       id="path3027"
       inkscape:connector-curvature="0" />
    <path
       style="display:inline;fill:#182665;fill-opacity:1;stroke:none"
       d="m 73.15625,77.4375 c 0.0182,0.77192 0.0428,1.60617 0.0625,2.4375 0.0141,0.59541 0.01695,1.18435 0.03125,1.78125 H 117 c -1.59165,5.456353 -6.65228,9.4375 -12.625,9.4375 -4.98616,0 -9.30955,-2.78349 -11.53125,-6.875 H 73.1875 c 2.9053,14.57609 15.7555,25.5625 31.1875,25.5625 17.57359,0 31.8125,-14.23891 31.8125,-31.8125 0,-0.17947 0.003,-0.35249 0,-0.53125 H 133.5 117.46875 Z"
       transform="translate(270.91156,435.17337)"
       id="path3087"
       inkscape:connector-curvature="0" />
    <path
       id="path3089"
       style="display:inline;fill:#182665;fill-opacity:1;stroke:none"
       d="m 344.11281,507.25639 63,-2.9e-4 v 4.28571 l -63,2.9e-4 z"
       inkscape:connector-curvature="0"
       sodipodi:nodetypes="ccccc" />
  </g>
</svg>
