<?xml version="1.0" encoding="UTF-8"?><svg width="456" height="423" viewBox="21 39 456 423" xmlns="http://www.w3.org/2000/svg">
 <path xmlns="http://www.w3.org/2000/svg" d="m220 386.4c-45.6 0-82.6-37-82.6-82.6s37-82.6 82.6-82.6c45.7 0 82.7 37 82.7 82.6s-37 82.6-82.7 82.6m155.6-185.6c-5.3 1.6-13.8 4.1-23.9 6.8 3.5 13.6 5.4 27.8 5.4 42.4 0 27.1-6.4 52.7-17.7 75.3-5.4-61.1-56.8-109.1-119.4-109.1-66.2 0-119.8 53.7-119.8 119.8 0 25.8 8.1 49.6 21.9 69.1-38.7-16.6-70-47.2-87.3-85.5-1.5-3-5.7-6.2-8.3-4.9-1 0.7-0.9 3.2-0.4 4.6 28.5 79.8 104.7 136.9 194.3 136.9 113.9 0 206.2-92.4 206.2-206.3 0-22.1-3.5-43.4-10-63.4-12.6 4.9-26.5 9.7-41 14.1m-341.6-18.7c26.1-59.3 85.4-100.8 154.4-100.8 18.7 0 36.7 3 53.6 8.7 27.3-11.4 55.4-20.7 69.3-25.2-27.4-13.5-58.3-21.1-90.9-21.1-90.2 0-166.9 58-194.9 138.6-0.5 1.3-1 3.5 0.3 4.6 3.4 1.6 7.2-2.7 8.2-4.9m358.1-46.4c-3.5-5.2-7.2-10.2-11.1-15.1-12.8 4.5-26.2 9-40.1 13.2-3.1 0.9-11.9 3.6-23.9 6.9 3.9 4.6 7.6 9.4 11 14.4 12.8-4.6 24.1-8.2 30.7-10.2 11.5-3.5 22.7-6.6 33.5-9.2" fill="#00a880"/>
 <path xmlns="http://www.w3.org/2000/svg" d="m474.8 53.8c3.9 12.8-57.8 43-137.8 67.5-80 24.5-148.1 33.9-152 21.1-3.9-12.8 57.8-43 137.8-67.5 80-24.5 148.1-33.9 152-21.1" fill="#0e87c5"/>
 <path xmlns="http://www.w3.org/2000/svg" d="m463.8 143.2c2.6 8.5-38.6 28.7-92 45.1-53.4 16.3-99 22.6-101.5 14.1-2.6-8.6 38.6-28.7 92-45.1 53.4-16.3 98.9-22.7 101.5-14.1" fill="#f47216"/>
</svg>