<svg xmlns="http://www.w3.org/2000/svg" width="490.518" height="392.832" xmlns:v="https://vecta.io/nano"><path fill="#840000" d="M323.891 290.969c-21.207 17.512-48.398 28.029-78.05 28.029-53.438 0-98.89-34.178-115.706-81.862H54.509l8.463 21.126c25.771 76.398 97.902 131.403 182.869 131.403 72.269 0 135.246-39.795 168.32-98.696h-90.27zm148.45-131.5l16.167-35.252h-63.557C396.417 53.163 326.982 3 245.841 3 164.611 3 95.104 53.272 66.626 124.451H2.009l15.167 32.518h112.452c16.401-48.438 62.236-83.303 116.213-83.303 67.746 0 122.666 54.92 122.666 122.666.041 25.503-7.904 50.38-22.724 71.137h79.57l14.485-35.5h-49.084l8.114-17.053h47.47l18.333-38.696h-47.389l7.972-16.751h47.087 0zm-349.166 36.864a124 124 0 0 1 .86-14.53h-95.86l14.5 30.917h81.594c-.718-5.361-1.094-10.83-1.094-16.387z"/><g fill="none" stroke="#840000" stroke-miterlimit="10"><path stroke-width="13" d="M184.632,209.594h119.875"/><path stroke-width="14" d="M285.341 207.636v-33c-.356-13.548-1.668-40.5-40.084-45.5-38.416 5-39.725 31.952-40.083 45.5v33m40.083-93.833v93.833"/></g><path fill="#840000" d="M279.674 264.969h19.666l-42.833-53h-24.334l-40.666 53h20.348l33.568-43.166 34.251 43.166z"/></svg>