<?xml version="1.0" encoding="utf-8"?>
<svg version="1.1" xmlns="http://www.w3.org/2000/svg" width="168" height="117.074" fill="#008858">
  <path d="M168,25.4V0.8c-12.8,10.8-30.3,12.6-52.4,5.3C104,2.3,93.4,0.3,83.9,0C74.5,0.3,64,2.3,52.5,6.1C30.3,13.4,12.9,11.6,0,0.8v24.6C12.9,36.2,30.3,38,52.5,30.7c11.5-3.8,22-5.8,31.4-6.1c9.5,0.3,20.1,2.3,31.7,6.1C137.7,38,155.2,36.2,168,25.4"/>
  <path d="M168,107.3V82.7c-12.8,10.9-30.3,12.6-52.4,5.4C104,84.3,93.4,82.3,83.9,82c-9.4,0.3-19.9,2.3-31.4,6.1C30.3,95.3,12.9,93.6,0,82.7v24.6c12.9,10.9,30.3,12.7,52.5,5.4c11.5-3.8,22-5.9,31.4-6.2c9.5,0.3,20.1,2.4,31.7,6.2C137.7,120,155.2,118.2,168,107.3"/>
  <path d="M168,66.3V41.7c-12.8,10.9-30.3,12.6-52.4,5.4C104,43.3,93.4,41.3,83.9,41c-9.4,0.3-19.9,2.3-31.4,6.1C30.3,54.3,12.9,52.6,0,41.7v24.6c12.9,10.9,30.3,12.6,52.5,5.4c11.5-3.8,22-5.9,31.4-6.2c9.5,0.3,20.1,2.4,31.7,6.2C137.7,78.9,155.2,77.2,168,66.3"/>
</svg>
