<?xml version="1.0" encoding="UTF-8" standalone="no"?>
<!-- Created with Inkscape (http://www.inkscape.org/) -->

<svg
   width="300"
   height="273.991"
   viewBox="0 0 79.374998 72.493451"
   version="1.1"
   id="svg5"
   xml:space="preserve"
   inkscape:version="1.2.1 (9c6d41e410, 2022-07-14)"
   sodipodi:docname="Emblem_of_Takehara,_Hiroshima.svg"
   xmlns:inkscape="http://www.inkscape.org/namespaces/inkscape"
   xmlns:sodipodi="http://sodipodi.sourceforge.net/DTD/sodipodi-0.dtd"
   xmlns="http://www.w3.org/2000/svg"
   xmlns:svg="http://www.w3.org/2000/svg"><sodipodi:namedview
     id="namedview7"
     pagecolor="#ffffff"
     bordercolor="#666666"
     borderopacity="1.0"
     inkscape:showpageshadow="2"
     inkscape:pageopacity="0.0"
     inkscape:pagecheckerboard="0"
     inkscape:deskcolor="#d1d1d1"
     inkscape:document-units="mm"
     showgrid="false"
     inkscape:zoom="1.4142136"
     inkscape:cx="231.93102"
     inkscape:cy="146.72466"
     inkscape:window-width="1920"
     inkscape:window-height="996"
     inkscape:window-x="1912"
     inkscape:window-y="-8"
     inkscape:window-maximized="1"
     inkscape:current-layer="layer1" /><defs
     id="defs2" /><g
     inkscape:label="Layer 1"
     inkscape:groupmode="layer"
     id="layer1"
     transform="translate(-13.13564,-56.655027)"><path
       id="path354"
       style="color:#000000;fill:#379b5f;fill-opacity:1;stroke-width:0.756444;stroke-linecap:round;stroke-linejoin:round;stroke-miterlimit:10;stroke-dasharray:none"
       d="m 52.03376,56.655027 -7.464964,31.31237 7.464964,11.627809 z m 1.579145,0 v 42.940179 l 7.464972,-11.627809 z m -8.110304,20.925207 c -5.456741,1.649538 -10.13721,5.091957 -13.352751,9.643719 l -2.612227,0.197782 1.792562,1.035041 0.862273,0.497586 1.800382,1.039737 0.823182,0.475303 3.220828,1.859404 -1.008461,-1.510352 c 1.736489,-2.496399 4.049698,-4.560254 6.748493,-5.999178 l 0.881426,-3.698087 c -3.729245,1.478436 -6.966358,3.937862 -9.39199,7.058459 l -0.0078,-0.01172 -1.805071,-1.042468 c 2.949139,-3.888353 7.042927,-6.858994 11.779861,-8.414798 z m 14.641864,3.92e-4 0.2697,1.130416 c 4.738084,1.556723 8.832259,4.529421 11.781034,8.419882 l -0.01331,-0.0015 -1.806245,1.042468 -0.0015,0.0023 c -2.424487,-3.117634 -5.659036,-5.574994 -9.385346,-7.052629 l 0.882204,3.69887 c 2.695634,1.437669 5.006453,3.498761 6.741846,5.991749 l -1.015496,1.5209 1.46657,-0.846638 c 4.09e-4,6.43e-4 7.57e-4,0.0016 0.0015,0.0024 l 1.765194,-1.019013 0.822412,-0.474916 c -4.01e-4,-6.43e-4 -7.57e-4,-0.0015 -0.0015,-0.0023 l 1.799989,-1.039345 c 4.01e-4,6.43e-4 7.56e-4,0.0015 0.0015,0.0023 l 0.863052,-0.498373 c -4e-4,-6.43e-4 -7.56e-4,-0.0015 -0.0015,-0.0023 l 1.782002,-1.02887 -2.596592,-0.196609 C 70.284437,82.675217 65.602976,79.230915 60.144488,77.580596 Z m -31.412831,11.236934 1.130808,2.353466 c -1.4993,3.231515 -2.337051,6.831663 -2.337051,10.626774 0,2.03002 0.24042,4.00407 0.692629,5.89599 l 0.842736,-0.79739 c -0.350762,-1.64387 -0.535504,-3.34955 -0.535504,-5.0986 0,-3.351143 0.678825,-6.542438 1.904742,-9.445936 l 0.0023,0.0048 1.805851,1.042472 0.0045,3.89e-4 c -1.062172,2.592499 -1.650669,5.427559 -1.650669,8.398385 0,1.15711 0.09029,2.29317 0.261492,3.40297 l 2.758029,-2.6091 c -0.01067,-0.26339 -0.01755,-0.52781 -0.01755,-0.79387 0,-2.93213 0.655869,-5.707144 1.824609,-8.191224 l 1.812107,0.118046 z m 48.170895,0.0045 -8.499227,4.90707 1.825003,-0.119229 c 1.167531,2.483175 1.822272,5.25699 1.822272,8.187699 0,0.26581 -0.006,0.52994 -0.0168,0.79309 l 2.757635,2.60872 c 0.17105,-1.10939 0.261106,-2.24516 0.261106,-3.4018 0,-2.970557 -0.588458,-5.805245 -1.650283,-8.3976 l 1.799989,-1.039352 0.009,-0.01841 c 1.228179,2.905887 1.907874,6.100691 1.907874,9.455312 0,1.74875 -0.184523,3.45422 -0.535111,5.09781 l 0.844294,0.79857 c 0.452263,-1.892 0.692636,-3.86625 0.692636,-5.89638 0,-3.798979 -0.839875,-7.4025 -2.34214,-10.636547 z M 36.520637,101.9067 13.13564,124.02799 50.322897,102.5579 Z m 32.605399,0 -13.802653,0.6512 37.187257,21.47009 z m -18.01357,2.01849 -37.18725,21.47009 30.849962,-9.19108 z m 3.421348,0 6.337681,12.27901 30.84957,9.19108 z m 8.153305,14.38505 c -2.450411,1.46388 -5.255124,2.39907 -8.258451,2.64625 l -0.800514,-1.62214 v 9.81413 l 1.473605,-2.15725 c 5.678803,-0.50781 10.818645,-2.8945 14.793907,-6.53273 l -1.120642,-0.33381 c -3.55268,3.0935 -8.013916,5.17124 -12.932552,5.78029 v -2.08415 c 3.927012,-0.53538 7.530483,-2.10037 10.529438,-4.41222 z m -19.728737,3.9e-4 -3.684406,1.09798 c 2.99863,2.31136 6.601262,3.87621 10.527487,4.41183 v 3.9e-4 2.08377 c -4.917834,-0.6093 -9.378117,-2.68697 -12.930601,-5.77991 l -1.120248,0.33381 c 3.974725,3.63774 9.113584,6.02415 14.791562,6.53234 l 1.473605,2.15764 v -2.06696 -1.0026 -2.06813 -0.95452 -2.04898 -1.67294 l -0.800513,1.62214 c -3.002631,-0.24742 -5.806853,-1.18225 -8.256886,-2.64586 z" /></g></svg>
