<?xml version="1.0" encoding="utf-8" standalone="no"?>
<svg xmlns:svg="http://www.w3.org/2000/svg" xmlns="http://www.w3.org/2000/svg" version="1.1" width="500" height="500" viewBox="-250,-250,500,500">
	<title>Fuchu, Hiroshima Chapter</title>
	<polygon points="-250,250 -250,-250 250,-250 250,250 " style="fill:none;stroke:none" />
	<g style="fill:black;stroke:none">
		<path d="M 8.15625,-213.71875 31.46875,-66.53125 A 148,148 0 0 1 148,78 148,148 0 0 1 74.5625,205.53125 L 75.625,212.25 A 220,220 0 0 0 220,6 220,220 0 0 0 8.15625,-213.71875 z M -8.1875,-213.59375 A 220,220 0 0 0 -220,6 220,220 0 0 0 -75.65625,212.40625 L -74.59375,205.65625 A 148,148 0 0 1 -148,78 148,148 0 0 1 -31.46875,-66.40625 L -8.1875,-213.59375 z" />
		<path d="M 0,-240 76.024534,240 -76.024534,240 z" />
	</g>
</svg>