<?xml version="1.0" encoding="UTF-8" standalone="no"?>
<!-- Created with Inkscape (http://www.inkscape.org/) -->

<svg
   xmlns:dc="http://purl.org/dc/elements/1.1/"
   xmlns:cc="http://creativecommons.org/ns#"
   xmlns:rdf="http://www.w3.org/1999/02/22-rdf-syntax-ns#"
   xmlns:svg="http://www.w3.org/2000/svg"
   xmlns="http://www.w3.org/2000/svg"
   xmlns:sodipodi="http://sodipodi.sourceforge.net/DTD/sodipodi-0.dtd"
   xmlns:inkscape="http://www.inkscape.org/namespaces/inkscape"
   width="300"
   height="196.537"
   id="svg2"
   version="1.1"
   inkscape:version="0.48.4 r"
   sodipodi:docname="Symbol of Fukuyama Hiroshima.svg">
  <defs
     id="defs4" />
  <sodipodi:namedview
     id="base"
     pagecolor="#ffffff"
     bordercolor="#666666"
     borderopacity="1.0"
     inkscape:pageopacity="0.0"
     inkscape:pageshadow="2"
     inkscape:zoom="2.45"
     inkscape:cx="150"
     inkscape:cy="98.2685"
     inkscape:document-units="px"
     inkscape:current-layer="layer1"
     showgrid="false"
     inkscape:window-width="1280"
     inkscape:window-height="961"
     inkscape:window-x="-8"
     inkscape:window-y="-8"
     inkscape:window-maximized="1"
     fit-margin-top="0"
     fit-margin-left="0"
     fit-margin-right="0"
     fit-margin-bottom="0" />
  <metadata
     id="metadata7">
    <rdf:RDF>
      <cc:Work
         rdf:about="">
        <dc:format>image/svg+xml</dc:format>
        <dc:type
           rdf:resource="http://purl.org/dc/dcmitype/StillImage" />
        <dc:title></dc:title>
      </cc:Work>
    </rdf:RDF>
  </metadata>
  <g
     inkscape:label="レイヤー 1"
     inkscape:groupmode="layer"
     id="layer1"
     transform="translate(-85.968957,-542.51872)">
    <path
       style="fill:#000000;fill-opacity:1;stroke:none"
       d="m 222.78855,542.51872 c 0.13268,7.45838 -0.36191,40.58514 -2.07288,47.71542 -2.58537,10.77423 -4.3459,17.62985 -10.36442,22.13682 -7.47484,5.59754 -24.48419,6.4345 -31.40612,0.11727 -12.02641,-10.97569 -4.95446,-28.02402 -10.01242,-36.33411 -1.79669,-2.95193 -7.51376,-3.07305 -11.65507,0.15644 -24.44399,19.06205 -64.033766,100.10568 -71.221114,153.97998 -0.950817,7.12703 5.95861,14.05975 15.018624,2.89421 18.97775,-23.38817 41.43574,-37.03213 67.6229,-50.1794 18.95803,-9.51789 50.58231,-12.52237 67.2709,-13.57152 16.6886,1.04915 48.35199,4.05363 67.31002,13.57152 26.18716,13.14727 48.60604,26.79123 67.5838,50.1794 9.06001,11.16554 15.96943,4.23282 15.01862,-2.89421 -7.18735,-53.8743 -46.77714,-134.91793 -71.22112,-153.97998 -4.14131,-3.22949 -9.85838,-3.10837 -11.65507,-0.15644 -5.05796,8.31009 2.0531,25.35842 -9.97331,36.33411 -6.92193,6.31717 -23.93128,5.48021 -31.40613,-0.11727 -6.01851,-4.50697 -7.81815,-11.36259 -10.40352,-22.13682 -1.71097,-7.13028 -2.20556,-40.25704 -2.07288,-47.71542 -8.78693,0 -17.57388,0 -26.36081,0 z"
       id="path3792"
       inkscape:connector-curvature="0"
       sodipodi:nodetypes="csssssssscsssssssscc" />
  </g>
</svg>
