<?xml version="1.0" encoding="UTF-8"?><svg width="400" height="448" viewBox="50 26 400 448" xmlns="http://www.w3.org/2000/svg" xmlns:xlink="http://www.w3.org/1999/xlink">
 <path xmlns="http://www.w3.org/2000/svg" id="a" d="m278.7 220-5.4 2-23.3-29.9-23.3 29.9-5.4-2 23.8-41.5a5.6 5.6 0 0 1 9.8 0z" fill="#000000"/>
 <use xmlns="http://www.w3.org/2000/svg" xmlns:xlink="http://www.w3.org/1999/xlink" xlink:href="#a" transform="rotate(40 250 125)"/>
 <use xmlns="http://www.w3.org/2000/svg" xmlns:xlink="http://www.w3.org/1999/xlink" xlink:href="#a" transform="rotate(80 250 125)"/>
 <use xmlns="http://www.w3.org/2000/svg" xmlns:xlink="http://www.w3.org/1999/xlink" xlink:href="#a" transform="rotate(120 250 125)"/>
 <use xmlns="http://www.w3.org/2000/svg" xmlns:xlink="http://www.w3.org/1999/xlink" xlink:href="#a" transform="rotate(160 250 125)"/>
 <use xmlns="http://www.w3.org/2000/svg" xmlns:xlink="http://www.w3.org/1999/xlink" xlink:href="#a" transform="rotate(200 250 125)"/>
 <use xmlns="http://www.w3.org/2000/svg" xmlns:xlink="http://www.w3.org/1999/xlink" xlink:href="#a" transform="rotate(240 250 125)"/>
 <use xmlns="http://www.w3.org/2000/svg" xmlns:xlink="http://www.w3.org/1999/xlink" xlink:href="#a" transform="rotate(280 250 125)"/>
 <use xmlns="http://www.w3.org/2000/svg" xmlns:xlink="http://www.w3.org/1999/xlink" xlink:href="#a" transform="rotate(320 250 125)"/>
 <g xmlns="http://www.w3.org/2000/svg" stroke="#000000" fill="none">
  <path d="m250 93.11v65.18m18.83-50.2c-14.54-6.408-25.37-5.701-38.23 0m-5.126 38.05a24.53 24.53 0 0 1 49.05 0" stroke-linecap="round" stroke-width="6.5"/>
  <path d="m50 407h400m0 55h-400" stroke-width="26"/>
  <path d="m359.4 407-103.9-121.9-25 35.9m28.12 0l-28.1-35.9-89.6 121.9" stroke-linejoin="round" stroke-width="15"/>
 </g>
</svg>