<?xml version="1.0" encoding="UTF-8" standalone="no"?>
<!-- Created with Inkscape (http://www.inkscape.org/) -->

<svg
   width="121.70834mm"
   height="96.660156mm"
   viewBox="0 0 121.70834 96.660156"
   version="1.1"
   id="svg5"
   xml:space="preserve"
   inkscape:version="1.2.1 (9c6d41e410, 2022-07-14)"
   sodipodi:docname="Emblem_of_Otake,_Hiroshima.svg"
   xmlns:inkscape="http://www.inkscape.org/namespaces/inkscape"
   xmlns:sodipodi="http://sodipodi.sourceforge.net/DTD/sodipodi-0.dtd"
   xmlns="http://www.w3.org/2000/svg"
   xmlns:svg="http://www.w3.org/2000/svg"><sodipodi:namedview
     id="namedview7"
     pagecolor="#ffffff"
     bordercolor="#666666"
     borderopacity="1.0"
     inkscape:showpageshadow="2"
     inkscape:pageopacity="0.0"
     inkscape:pagecheckerboard="0"
     inkscape:deskcolor="#d1d1d1"
     inkscape:document-units="mm"
     showgrid="false"
     inkscape:zoom="0.74920735"
     inkscape:cx="137.47863"
     inkscape:cy="131.47228"
     inkscape:window-width="1920"
     inkscape:window-height="996"
     inkscape:window-x="1912"
     inkscape:window-y="-8"
     inkscape:window-maximized="1"
     inkscape:current-layer="layer1" /><defs
     id="defs2" /><g
     inkscape:label="Layer 1"
     inkscape:groupmode="layer"
     id="layer1"
     transform="translate(-51.998376,-125.83366)"><path
       id="path184"
       style="fill:#008000;stroke-width:0.265043"
       d="m 112.11307,125.83366 -1.96919,3.41088 c -15.499989,0.92381 -28.889583,9.6812 -36.249899,22.37808 H 51.998376 l 14.098043,16.74537 -13.024926,28.91097 h 16.889283 l 2.011121,-4.27694 c 6.770772,14.67215 21.206839,25.07044 38.172493,26.08144 l 1.96868,3.41036 v -3.33115 -15.20015 -0.82516 -2.50601 l -1.85945,3.2209 c -15.244493,-1.32241 -27.209423,-14.10052 -27.209423,-29.68799 0,-1.98358 0.195818,-3.92109 0.565289,-5.79627 H 106.38564 L 92.71156,152.1879 c 4.705476,-4.31699 10.80457,-7.12843 17.54206,-7.71215 l 1.85945,3.22039 v -3.33117 -15.20015 z m 1.47895,0.002 v 3.33117 15.19911 c 5.2e-4,1e-5 10e-4,-2e-5 0.002,0 l -0.002,0.001 v 3.33116 l 1.86048,-3.22298 c 15.25168,1.31451 27.22651,14.09637 27.22651,29.68955 0,2.18632 -0.23724,4.31659 -0.68383,6.36881 h -22.67573 l 13.40748,15.86431 c -4.66982,4.17556 -10.66554,6.88877 -17.27494,7.45745 l -1.85997,-3.22193 v 3.33116 15.20015 3.32703 l 1.96609,-3.40572 c 15.27475,-0.90315 28.50109,-9.41439 35.93257,-21.80708 h 22.21603 l -14.09804,-16.74537 13.02493,-28.91097 h -16.88877 l -1.86825,3.9715 C 147.15606,140.77476 132.63762,130.2536 115.55966,129.2434 Z" /></g></svg>
