<?xml version="1.0" encoding="UTF-8"?><svg width="455" height="375" viewBox="22 62 455 375" xmlns="http://www.w3.org/2000/svg" version="1.1">
 <path xmlns="http://www.w3.org/2000/svg" d="m73.9 231.4c20.5-0.6 37.3-2.3 54.8-8.1a132.8 132.8 0 0 1 210-79.3c10.5-8.4 35-21.3 72.2-0.5a185.8 185.8 0 0 0-337 87.9zm97.4 49.7s56.8-9.7 94.8-30c40.3-21.5 125.7-47 208.9 21.5 0 0-90.8-20.4-138.7 0-64 27.3-116.3 37.6-165.1 8.5" fill="#00adef"/>
 <path xmlns="http://www.w3.org/2000/svg" d="m25 239s48 12.7 101.7-3c45.8-13.3 118.5-55.9 168-53.8 45.3 1.9 85.4 33.1 85.4 33.1s-77.4-14.8-136.4 17.4c-33.6 18.3-72.8 38.5-115.7 40.7a132.8 132.8 0 0 0 213.7 80.1c17.4-7.2 43.6-12.4 67.3 5.5a185.8 185.8 0 0 1-335.5-93.3c-15.9-5.5-32.1-14.1-48.7-26.8z" fill="#176fc1"/>
</svg>