<svg xmlns="http://www.w3.org/2000/svg" width="200" height="200"><path fill="#0e3874" d="M125.941 77.053l-59.507 59.794s-12.185 11.896-23.22-4.941c0 0-20.891-34.54 3.779-68.203 0 0 16.545-25.534 49.911-25.256 33.383.285 53.413 24.675 53.413 24.675h35.412S165.404 6.24 91.98 5.082C58.301 6.522 1.938 37.852 2 99.117c.019 19.086.873 50.504 32.505 69.079 3.222 1.875 6.972 3.094 10.553 4.064 3.563.953 7.208 1.564 10.881 1.576 14.368.111 27.803-7.285 37.775-17.244l51.085-51.1s6.1-4.922 14.228-4.344c0 0 .859 15.385-9.006 31.35 0 0-14.229 21.768-32.506 26.703s-24.958 2.615-24.958 2.615-4.658 7.832-21.482 14.209c-16.825 6.385-31.912-.871-37.43-5.801 0 0 21.762 25.254 64.138 24.672 0 0 75.457 3.475 92.877-79.236 0 0 2.029-11.324 0-35.994 0 0 5.797-11.314 6.971-11.324h-50.504c0 .002-6.973.145-21.186 8.711h0zm57.946-5.301c2.371 0 4.294 1.922 4.294 4.294s-1.923 4.294-4.294 4.294-4.294-1.923-4.294-4.294 1.922-4.294 4.294-4.294z"/></svg>