<?xml version="1.0" encoding="UTF-8" ?>
<!DOCTYPE svg PUBLIC "-//W3C//DTD SVG 1.1//EN" "http://www.w3.org/Graphics/SVG/1.1/DTD/svg11.dtd">
<svg width="467pt" height="457pt" viewBox="0 0 467 457" version="1.1" xmlns="http://www.w3.org/2000/svg">
<g id="#ffffffff">
</g>
<g id="#d0557bff">
<path fill="#d0557b" opacity="1.00" d=" M 373.88 30.27 C 384.61 31.08 395.01 34.73 404.64 39.43 C 425.35 49.89 441.07 69.84 446.40 92.42 C 451.37 112.77 446.73 134.02 439.27 153.15 C 433.13 169.45 423.66 184.28 413.01 197.99 C 394.69 221.37 371.63 240.70 346.63 256.59 C 343.74 258.43 340.85 260.29 337.77 261.80 C 341.73 242.44 345.77 223.05 347.89 203.39 C 374.65 185.52 398.57 162.24 413.31 133.34 C 421.02 116.54 426.32 97.68 423.02 79.13 C 418.72 54.82 398.09 34.60 373.88 30.27 Z" />
<path fill="#d0557b" opacity="1.00" d=" M 299.58 31.75 C 301.13 31.49 302.70 31.36 304.27 31.30 C 280.49 35.90 258.35 46.92 238.54 60.62 C 219.63 73.18 202.04 88.21 188.70 106.70 C 181.06 117.07 175.12 128.61 170.65 140.66 C 163.08 159.06 161.05 180.99 170.56 199.09 C 176.29 209.58 184.48 218.75 194.90 224.75 C 209.97 233.54 227.73 236.38 244.95 236.75 C 263.39 236.71 281.58 232.68 299.07 227.10 C 303.94 238.77 305.91 251.46 306.53 264.02 C 306.30 268.28 307.10 272.48 307.33 276.72 C 278.86 288.96 248.10 296.45 217.02 296.72 C 189.91 296.45 161.51 290.11 140.43 272.14 C 137.24 269.52 134.35 266.55 131.60 263.47 C 129.24 260.83 127.58 257.47 124.37 255.71 C 124.51 255.40 124.80 254.78 124.94 254.47 C 119.37 245.89 115.49 236.18 114.00 226.04 C 111.62 208.60 113.91 190.62 120.31 174.24 C 126.57 156.31 135.82 139.45 147.57 124.54 C 163.34 104.36 183.01 87.53 204.14 73.21 C 232.71 53.17 265.10 37.99 299.58 31.75 Z" />
</g>
<g id="#3f8b82ff">
<path fill="#3f8b82" opacity="1.00" d=" M 273.16 111.91 C 285.57 106.31 299.39 102.50 313.08 104.50 C 323.32 105.99 332.68 112.05 338.30 120.73 C 345.86 132.31 348.26 146.34 349.32 159.89 C 350.33 174.40 349.05 188.94 347.89 203.39 C 345.77 223.05 341.73 242.44 337.77 261.80 C 325.47 314.26 309.00 365.64 291.50 416.58 C 289.53 416.58 287.57 416.58 285.61 416.57 C 296.72 370.69 306.39 324.08 307.33 276.72 C 307.10 272.48 306.30 268.28 306.53 264.02 C 305.91 251.46 303.94 238.77 299.07 227.10 C 295.14 218.36 289.19 210.18 280.72 205.39 C 269.56 198.93 255.89 198.70 243.57 201.36 C 225.80 205.33 209.84 214.65 194.90 224.75 C 184.48 218.75 176.29 209.58 170.56 199.09 C 187.26 180.02 204.89 161.70 224.04 145.08 C 239.11 132.26 255.12 120.23 273.16 111.91 Z" />
<path fill="#3f8b82" opacity="1.00" d=" M 124.37 255.71 C 127.58 257.47 129.24 260.83 131.60 263.47 C 134.35 266.55 137.24 269.52 140.43 272.14 C 97.00 316.71 59.00 366.16 22.69 416.58 C 19.74 416.60 16.78 416.61 13.83 416.55 C 14.20 415.69 14.61 414.86 15.06 414.05 C 49.13 360.75 84.33 308.10 122.79 257.86 C 123.11 257.27 123.75 256.11 124.06 255.52 L 124.37 255.71 Z" />
<path fill="#3f8b82" opacity="1.00" d=" M 146.44 416.57 C 161.65 379.04 174.44 340.52 184.51 301.28 C 199.64 303.92 215.04 305.64 230.40 304.36 C 202.99 340.10 177.95 377.65 155.22 416.54 C 152.29 416.62 149.37 416.61 146.44 416.57 Z" />
</g>
</svg>
