<svg xmlns="http://www.w3.org/2000/svg" width="390" height="390">
  <circle cx="195" cy="195" r="195" fill="#7bc7d7"/>
  <path fill="#4c844d" d="M258.705 233.115s3.72 23.853 1.24 39.025c-1.736 17.156-7.441 32.576-7.441 32.576s-14.51-10.004-17.652-12.03c-3.142-2.026-18.686-15.296-18.686-15.296s-47.913 17.28-93.221 12.402c-37.62-4.051-73.999-26.83-74.577-56.18-2.936-30.468 23.109-41.423 44.523-39.315 18.603 1.86 32.782 15.172 32.782 15.172 3.762 2.728 6.945-2.563 6.945-2.563s-1.405-18.314 2.026-34.974c3.142-15.337 10.996-29.144 14.097-29.392 2.976-.207 24.225 19.388 35.883 37.082 13.849 21.042 18.148 40.802 18.148 40.802s2.48 5.209 7.441 4.713c4.96-.496 6.738-5.953 6.738-5.953s22.407-56.388 44.771-80.24c9.757-10.418 18.562-20.96 27.574-27.823 11.658-8.846 22.365-12.525 22.365-12.525s10.707 9.425 11.7 37.536c-4.217 58.413-64.656 96.983-64.656 96.983M319.35 75.983s-24.308-1.86-56.015 29.227c-31.75 31.087-54.528 79.786-54.528 79.786s-8.185-16.826-26.788-39.314c-18.644-22.49-39.19-28.236-39.19-28.236s-13.725 8.682-20.546 29.89c-5.705 16.246-9.301 34.477-9.301 34.477s-21.621-11.286-44.606-4.92c-27.615 7.69-55.643 36.875-27.863 89.46 6.201 7.895 12.195 16.37 19.595 21.744 63.54 40.72 151.015 9.715 151.015 9.715s5.126 3.018 12.03 7.772c11.079 7.607 31.418 22.53 33.567 22.654 2.109.124 5.21-.206 9.095-2.15 1.654-.826 9.384-19.14 12.195-37.288 4.754-25.465 1.902-49.318 1.902-49.318s47.54-32.535 60.728-81.853c11.327-56.346-21.29-81.646-21.29-81.646m-143.242 46.052c0-15.254 12.36-27.656 27.656-27.656 15.254 0 27.615 12.402 27.615 27.656 0 15.255-12.36 27.615-27.615 27.615-15.296 0-27.656-12.36-27.656-27.615"/>
</svg>
