<?xml version="1.0" encoding="UTF-8" standalone="no"?>
<!-- Created with Inkscape (http://www.inkscape.org/) -->

<svg
   xmlns:dc="http://purl.org/dc/elements/1.1/"
   xmlns:cc="http://creativecommons.org/ns#"
   xmlns:rdf="http://www.w3.org/1999/02/22-rdf-syntax-ns#"
   xmlns:svg="http://www.w3.org/2000/svg"
   xmlns="http://www.w3.org/2000/svg"
   xmlns:sodipodi="http://sodipodi.sourceforge.net/DTD/sodipodi-0.dtd"
   xmlns:inkscape="http://www.inkscape.org/namespaces/inkscape"
   width="88.213722mm"
   height="94.456367mm"
   viewBox="0 0 88.213722 94.456367"
   version="1.1"
   id="svg8"
   inkscape:version="0.92.4 (5da689c313, 2019-01-14)"
   sodipodi:docname="Emblem_of_Shimonoseki,_Yamaguchi.svg">
  <defs
     id="defs2" />
  <sodipodi:namedview
     id="base"
     pagecolor="#ffffff"
     bordercolor="#666666"
     borderopacity="1.0"
     inkscape:pageopacity="0.0"
     inkscape:pageshadow="2"
     inkscape:zoom="0.35"
     inkscape:cx="-484.49107"
     inkscape:cy="135.14281"
     inkscape:document-units="mm"
     inkscape:current-layer="layer1"
     showgrid="false"
     fit-margin-top="0"
     fit-margin-left="0"
     fit-margin-right="0"
     fit-margin-bottom="0"
     inkscape:window-width="1920"
     inkscape:window-height="996"
     inkscape:window-x="1912"
     inkscape:window-y="-8"
     inkscape:window-maximized="1" />
  <metadata
     id="metadata5">
    <rdf:RDF>
      <cc:Work
         rdf:about="">
        <dc:format>image/svg+xml</dc:format>
        <dc:type
           rdf:resource="http://purl.org/dc/dcmitype/StillImage" />
        <dc:title></dc:title>
      </cc:Work>
    </rdf:RDF>
  </metadata>
  <g
     inkscape:label="レイヤー 1"
     inkscape:groupmode="layer"
     id="layer1"
     transform="translate(-107.77755,-90.133498)">
    <g
       id="g825"
       transform="matrix(0.26458333,0,0,0.26458333,32.88393,58.119049)">
      <path
         style="fill:#009ec6;stroke:none"
         id="path2386"
         d="m 421.03125,121 c -14.97865,0.0275 -31.92183,1.15863 -42.03125,4.03125 0,0 25.28125,33.70414 25.28125,97.34375 0,12.33257 -0.96832,24.52653 -2.90625,36.125 -4.23843,-0.33019 -8.55497,-0.5 -12.9375,-0.5 -61.86529,0 -95.75119,33.31882 -96.4375,34 -0.0255,0.0376 -0.0417,0.0625 -0.0625,0.0937 -0.28103,0.51948 -8.875,17.01218 -8.875,47.03125 0,74.30218 61.81808,138.875 138.6875,138.875 48.62872,0 84.50167,-23.40144 110.09375,-52.28125 5.3426,15.84861 8.14839,31.54436 8.15625,46.15625 10e-6,0.0104 0,0.0209 0,0.0312 3.4e-4,-7.8e-4 0.0304,-0.0294 0.0312,-0.0312 1.02209,-0.63119 76.43749,-47.57697 76.4375,-159.28125 0,-53.82824 -23.625,-93.3125 -23.625,-93.3125 -0.004,0.0407 0.004,0.0843 0,0.125 -3.83542,42.87645 -22.51448,98.3932 -56.53125,140.9375 C 530.56659,346.03959 522.86968,332.40784 513.4062,320.0312 538.22744,288.18339 555.00001,243.63092 555,187.9375 l -0.0937,-17.84375 c 0,0 -25.993,-25.72642 -64,-36.15625 0,0 10.78125,25.17414 10.78125,60.53125 0,31.87413 -6.7381,58.24465 -23.1875,91.78125 C 469.25769,279.70372 459.1972,274.10286 448.4063,269.65625 454.83305,249.21921 458.5,226.06035 458.5,201.25 458.5,155.64024 443.96875,122 443.96875,122 c -5.6679,-0.62977 -13.95031,-1.01649 -22.9375,-1 z M 337.5625,286.4375 c 19.1709,0 37.23892,2.56171 54.09375,7.1875 -10.88267,26.34648 -28.70578,44.34375 -53.09375,44.34375 C 313.76709,337.96875 297,313 297,313 c 0,0 23.66901,41.5 65.9375,41.5 25.88631,0 50.14722,-17.23978 67.75,-45.5625 8.3804,4.348 16.29727,9.21942 23.8125,14.53125 -21.66566,25.61004 -51.80521,44.15625 -92.5,44.15625 0,0 18.75531,9.46875 45.28125,9.46875 25.86806,0 53.11179,-9.65223 77.0625,-28.0625 10.98258,11.32868 20.46881,23.60088 28.34375,36.3125 -26.13716,23.16805 -61.18467,40.28125 -97.8125,40.28125 -82.25799,0 -123.125,-68.44811 -123.125,-118.5 0,-8.69461 0.22546,-14.7795 0.25,-15.03125 0.65897,-0.1882 20.0078,-5.65625 45.5625,-5.65625 z M 585.5,320.71875 c 0.72964,10.87181 0.65628,19.15625 0.65625,19.15625 0,89.14968 -45.09923,131.02758 -46.125,131.96875 0.21418,-0.49143 8.46875,-19.60405 8.46875,-49.71875 0,-5.52688 -0.79206,-13.56204 -1.375,-19.09375 25.77079,-34.89323 37.01424,-72.59296 38.375,-82.3125 z"
         inkscape:connector-curvature="0" />
    </g>
  </g>
</svg>
