<?xml version="1.0" encoding="UTF-8" standalone="no"?>
<!-- Created with Inkscape (http://www.inkscape.org/) -->
<svg id="svg14831" xmlns:rdf="http://www.w3.org/1999/02/22-rdf-syntax-ns#" xmlns="http://www.w3.org/2000/svg" height="200" width="200" version="1.1" xmlns:cc="http://creativecommons.org/ns#" xmlns:dc="http://purl.org/dc/elements/1.1/" viewBox="0 0 200 200">
 <metadata id="metadata14836">
  <rdf:RDF>
   <cc:Work rdf:about="">
    <dc:format>image/svg+xml</dc:format>
    <dc:type rdf:resource="http://purl.org/dc/dcmitype/StillImage"/>
    <dc:title/>
   </cc:Work>
  </rdf:RDF>
 </metadata>
 <g id="layer33">
  <path id="rect15432" d="m32 0l44 44 44-44h-88zm134 0l34 34v-34h-34zm-166 12v90l9 9 45-45-54-54zm143 9l-45 45 45 45 45-45-45-45zm-67 67l-45 45 45 45 45-45-45-45zm124 10l-35 35 35 35v-70zm-191 57l-9 9v36h54l-45-45zm134 0l-45 45h90l-45-45z" fill-rule="evenodd" fill="#0a76c1"/>
 </g>
</svg>
