<?xml version="1.0" encoding="UTF-8"?><svg width="457" height="349" viewBox="21 76 457 349" xmlns="http://www.w3.org/2000/svg" version="1.2">
 <path xmlns="http://www.w3.org/2000/svg" d="m27.2 277.1c14.9 6.7 28.6 10.8 43.3 13a131.5 131.5 0 0 1 219.5-131.7c12.9-5.8 27.1-9.3 42-11.1a170.7 170.7 0 0 0-304.9 129.7zm338.8-39.5c-14.6 2.5-27.3 6.9-38.8 12.6a131.5 131.5 0 0 1-248.3 60c-17.5-8.1-34.4-17.5-50.5-26.9a170.7 170.7 0 0 0 337.7-45.8z" fill="#47c2ca"/>
 <path xmlns="http://www.w3.org/2000/svg" d="m278.3 170.1c-25.5 16.3-42.6 38.5-61.3 59.8-23.3 26.6-44.6 46.8-82.6 57.2 55.6-15.7 92.5-62.1 144.1-82.4 20.6-8.1 40-10.1 60-8.4 38-23 90-32.6 136.5-25.7-58.5-17-139.8-35.7-196.7-0.6z" fill="#91d121"/>
 <path xmlns="http://www.w3.org/2000/svg" d="m280.2 208.8c-42.7 17.3-76.2 51.5-114.7 71.3-37.5 19.2-78.8 20.1-115.6 9.6 55.1 31.8 111.7 50.5 163.9 30.2 28.2-11 49-29.9 71.4-47.4 72.6-58.2 127-41.6 177.8-28.9-54.6-24.9-118.4-59.4-182.8-34.9z" fill="#2eb33f"/>
</svg>