<?xml version="1.0" encoding="UTF-8"?><svg width="455" height="365" viewBox="22 67 455 365" xmlns="http://www.w3.org/2000/svg" version="1.1">
 <path xmlns="http://www.w3.org/2000/svg" d="m328.3 121.5a28.5 28.5 0 0 0 0 57 28.5 28.5 0 0 0 0-57zm-124.3 1.3a28.5 28.5 0 0 0 0 57 28.5 28.5 0 0 0 0-57zm95-53.7c-86 118.9-55.1 149.8-55.1 149.8 48.4 47.7 231-25.5 231-25.5-171.9 10.7-181.3-16.1-181.3-16.1-26.2-19.5 5.4-108.1 5.4-108.1zm-157.6 113.7c-53.4 0.3-115.1 18-115.1 18 97.4-1.3 100.8 21.5 100.8 21.5 13.4 20.1-22.2 71.2-22.2 71.2-54.4 79.3-79.9 92-79.9 92 59.8-16.8 122.2-73.9 122.2-73.9 84-70.5 63.8-106.8 63.8-106.8-12.3-17-39.6-22.2-69.6-22zm120.6 59.6c-47.7 32.2-67.8 91.3-67.8 91.3-20.8 61.1 19.5 84.6 19.5 84.6 59.1 41.6 145.8-33.6 145.8-33.6 86-68.5 102.1-118.2 102.1-118.2-159.9 108.1-195.5 65.1-195.5 65.1-30.9-22.2-4-89.3-4-89.3z" fill="#2f5da9"/>
</svg>