<?xml version="1.0" encoding="UTF-8" standalone="no"?>
<!-- Created with Inkscape (http://www.inkscape.org/) -->

<svg
   xmlns:dc="http://purl.org/dc/elements/1.1/"
   xmlns:cc="http://creativecommons.org/ns#"
   xmlns:rdf="http://www.w3.org/1999/02/22-rdf-syntax-ns#"
   xmlns:svg="http://www.w3.org/2000/svg"
   xmlns="http://www.w3.org/2000/svg"
   xmlns:sodipodi="http://sodipodi.sourceforge.net/DTD/sodipodi-0.dtd"
   xmlns:inkscape="http://www.inkscape.org/namespaces/inkscape"
   width="252.57018"
   height="217.18619"
   id="svg2"
   version="1.1"
   inkscape:version="0.48.2 r9819"
   sodipodi:docname="Neues Dokument 1">
  <defs
     id="defs4" />
  <sodipodi:namedview
     id="base"
     pagecolor="#ffffff"
     bordercolor="#666666"
     borderopacity="1.0"
     inkscape:pageopacity="0.0"
     inkscape:pageshadow="2"
     inkscape:zoom="0.98994949"
     inkscape:cx="136.79066"
     inkscape:cy="95.191145"
     inkscape:document-units="px"
     inkscape:current-layer="layer1"
     showgrid="false"
     fit-margin-top="1"
     fit-margin-left="1"
     fit-margin-right="1"
     fit-margin-bottom="1"
     inkscape:window-width="1196"
     inkscape:window-height="852"
     inkscape:window-x="125"
     inkscape:window-y="125"
     inkscape:window-maximized="0" />
  <metadata
     id="metadata7">
    <rdf:RDF>
      <cc:Work
         rdf:about="">
        <dc:format>image/svg+xml</dc:format>
        <dc:type
           rdf:resource="http://purl.org/dc/dcmitype/StillImage" />
        <dc:title></dc:title>
      </cc:Work>
    </rdf:RDF>
  </metadata>
  <g
     inkscape:label="Ebene 1"
     inkscape:groupmode="layer"
     id="layer1"
     transform="translate(-334.46344,-458.41578)">
    <path
       sodipodi:type="arc"
       style="fill:#fb7224;fill-opacity:1;stroke:none"
       id="path3014"
       sodipodi:cx="395.72726"
       sodipodi:cy="519.75928"
       sodipodi:rx="41.668793"
       sodipodi:ry="41.668793"
       d="m 437.39606,519.75928 c 0,23.01304 -18.65576,41.66879 -41.6688,41.66879 -23.01303,0 -41.66879,-18.65575 -41.66879,-41.66879 0,-23.01304 18.65576,-41.6688 41.66879,-41.6688 23.01304,0 41.6688,18.65576 41.6688,41.6688 z"
       transform="matrix(0.56363641,0,0,0.56363641,237.58329,243.97664)" />
    <path
       transform="matrix(1.0857143,0,0,1.0857143,-34.367346,-55.467781)"
       style="fill:#53a32a;fill-opacity:1;stroke:none"
       d="m 455.17387,474.23485 c 57.33059,0 66.37688,88.90351 92.82471,100.23493 -6.61139,2.94327 -15.19367,5.44894 -23.18728,21.30354 -25.09887,-17.20462 -43.75302,-89.64727 -67.50293,-90.40151 -35.76807,-1.1359 -39.28346,101.67554 -101.14766,101.67554 -23.25519,0 -17.98326,-30.41172 0,-30.75658 34.17604,-0.65538 40.26118,-102.05592 99.01316,-102.05592 z"
       id="path3815"
       inkscape:connector-curvature="0"
       sodipodi:nodetypes="sccssss" />
    <path
       transform="matrix(1.2533333,0,0,1.2533333,-141.93809,-150.18413)"
       style="fill:#0170b4;fill-opacity:1;stroke:none"
       d="m 568.03571,601.29075 c -10.45739,10.45739 -13.20249,56.78328 -41.35296,56.78328 -36.15169,0 -36.41576,-58.99204 -45.09813,-58.99204 -8.02152,0 -9.47889,58.97419 -43.11466,58.97419 -28.61772,0 -31.37084,-37.89995 -41.41321,-54.62806 14.0958,-1.08078 18.96962,-6.10416 24.86917,-8.76316 7.76336,10.63955 11.20786,38.76171 16.69311,38.76171 6.22011,0 9.43995,-58.35607 43.25574,-58.35607 33.01724,0 35.78962,57.47264 43.43216,57.47264 8.97351,0 9.43404,-58.03821 42.72878,-58.03821 15.82179,0 18.24919,26.23104 0,26.78572 z"
       id="path3818"
       inkscape:connector-curvature="0"
       sodipodi:nodetypes="csssccssssc" />
  </g>
</svg>
