<?xml version="1.0" encoding="UTF-8"?><svg width="400" height="400" viewBox="50 50 400 400" xmlns="http://www.w3.org/2000/svg" version="1.1">
 <circle xmlns="http://www.w3.org/2000/svg" cy="148.3" cx="250" r="34.25" fill="#f84690"/>
 <path xmlns="http://www.w3.org/2000/svg" fill="#256fda" d="m50 224.2c12.35-88.2 80.9-157.8 168.8-171.7 110.3-17.35 213.9 58.1 231.2 168.3-86.8-152.6-312.8-168.1-400 3.2zm0 51.67c12.35 88.1 80.9 157.7 168.8 171.6 110.3 17.3 213.9-58.1 231.2-168.3-86.77 152.6-312.8 168.2-400-3.248z"/>
 <path xmlns="http://www.w3.org/2000/svg" fill="#0a9c53" d="m327 210.5c58.35-6.11 100.4 13.97 122.6 39.32-11.94-0.1048-36.58-1.264-62.73 9.162-14.8-19.5-23.9-36.9-59.9-48.5zm-175.8 0.6667c60.7-27.62 170.7-24.45 219.8 53.02-17.08 6.618-40.47 18.6-58.25 36.95-44-63.4-105.7-89.8-161.7-90zm-100.7 37.1c71.3-31.9 175.2-28.3 250.2 64.8-29.8 29.7-37.5 53.2-49.9 78.1-38.4-106.2-145.8-145.7-200.3-142.9z"/>
</svg>