<?xml version="1.0" encoding="UTF-8" standalone="no"?>
<!-- Created with Inkscape (http://www.inkscape.org/) -->

<svg
   xmlns:dc="http://purl.org/dc/elements/1.1/"
   xmlns:cc="http://creativecommons.org/ns#"
   xmlns:rdf="http://www.w3.org/1999/02/22-rdf-syntax-ns#"
   xmlns:svg="http://www.w3.org/2000/svg"
   xmlns="http://www.w3.org/2000/svg"
   xmlns:sodipodi="http://sodipodi.sourceforge.net/DTD/sodipodi-0.dtd"
   xmlns:inkscape="http://www.inkscape.org/namespaces/inkscape"
   width="74.418419"
   height="74.418419"
   id="svg5291"
   version="1.1"
   inkscape:version="0.48.2 r9819"
   sodipodi:docname="Naruto Tokushima chapter.svg">
  <defs
     id="defs5293" />
  <sodipodi:namedview
     id="base"
     pagecolor="#ffffff"
     bordercolor="#666666"
     borderopacity="1.0"
     inkscape:pageopacity="0.0"
     inkscape:pageshadow="2"
     inkscape:zoom="2.8"
     inkscape:cx="58.958881"
     inkscape:cy="10.193258"
     inkscape:document-units="px"
     inkscape:current-layer="layer1"
     showgrid="false"
     fit-margin-top="0"
     fit-margin-left="0"
     fit-margin-right="0"
     fit-margin-bottom="0"
     inkscape:window-width="981"
     inkscape:window-height="798"
     inkscape:window-x="150"
     inkscape:window-y="150"
     inkscape:window-maximized="0" />
  <metadata
     id="metadata5296">
    <rdf:RDF>
      <cc:Work
         rdf:about="">
        <dc:format>image/svg+xml</dc:format>
        <dc:type
           rdf:resource="http://purl.org/dc/dcmitype/StillImage" />
        <dc:title />
      </cc:Work>
    </rdf:RDF>
  </metadata>
  <g
     inkscape:label="Ebene 1"
     inkscape:groupmode="layer"
     id="layer1"
     transform="translate(-454.78571,-594.64789)">
    <path
       sodipodi:type="spiral"
       style="fill:none;stroke:#201c38;stroke-width:2.81584716000000010;stroke-linecap:butt;stroke-linejoin:miter;stroke-miterlimit:4;stroke-opacity:1;stroke-dasharray:none"
       id="path5323"
       sodipodi:cx="488.91382"
       sodipodi:cy="660.67554"
       sodipodi:expansion="1"
       sodipodi:revolution="3"
       sodipodi:radius="16.92194"
       sodipodi:argument="-17.263836"
       sodipodi:t0="0.066975929"
       d="m 487.82889,661.00332 c -1.00131,-0.69609 -0.45497,-2.17286 0.3493,-2.76261 1.53829,-1.12797 3.65279,-0.23559 4.52035,1.29136 1.30825,2.30259 0.0214,5.16308 -2.23342,6.27809 -3.05028,1.50836 -6.68407,-0.19005 -8.03582,-3.17548 -1.71708,-3.7923 0.39991,-8.21009 4.11754,-9.79356 4.53178,-1.93024 9.73891,0.60885 11.55129,5.0596 2.14596,5.26994 -0.81721,11.26946 -6.00165,13.30903 -6.00731,2.36328 -12.80115,-1.02519 -15.06677,-6.94371 -2.58168,-6.74418 1.2329,-14.33362 7.88577,-16.82451 7.48071,-2.80084 15.86666,1.44043 18.58224,8.82783 3.02054,8.217 -1.64781,17.40013 -9.76989,20.33998 -1.62475,0.58809 -3.34002,0.92048 -5.06654,0.98625"
       transform="matrix(1.0581957,0,0,1.0726507,-27.839986,-60.245112)" />
    <path
       sodipodi:type="arc"
       style="fill:none;stroke:#201c38;stroke-width:4.0573802;stroke-linecap:butt;stroke-linejoin:miter;stroke-miterlimit:4;stroke-opacity:1;stroke-dasharray:none;stroke-dashoffset:0"
       id="path5321"
       sodipodi:cx="492.5"
       sodipodi:cy="632.36218"
       sodipodi:rx="35.714287"
       sodipodi:ry="35.714287"
       d="m 528.21429,632.36218 a 35.714287,35.714287 0 1 1 -71.42858,0 35.714287,35.714287 0 1 1 71.42858,0 z"
       transform="matrix(0.98585786,0,0,0.98585786,6.4599253,8.4378752)" />
    <path
       sodipodi:type="arc"
       style="fill:#201c38;fill-opacity:1;stroke:none;stroke-opacity:1"
       id="path5325"
       sodipodi:cx="490.49219"
       sodipodi:cy="649.40601"
       sodipodi:rx="3.2829957"
       sodipodi:ry="3.5671012"
       d="m 493.77518,649.40601 a 3.2829957,3.5671012 0 1 1 -6.56599,0 3.2829957,3.5671012 0 1 1 6.56599,0 z"
       transform="matrix(1.3567356,0,0,1.4446251,-174.82138,-289.36591)" />
    <path
       style="fill:#201c38;fill-opacity:1;stroke:none"
       d="m 485.10475,651.97733 c 1.88614,0.75442 2.3464,0.70643 1.54017,-1.45089 l 2.18751,3.03572 c -1.85651,-0.29408 -1.03794,-0.0614 -3.72768,-1.58483 z"
       id="rect5835"
       inkscape:connector-curvature="0"
       sodipodi:nodetypes="cccc" />
    <path
       sodipodi:nodetypes="cccc"
       inkscape:connector-curvature="0"
       id="path3009"
       d="m 485.10475,651.97733 c 1.88614,0.75442 2.3464,0.70643 1.54017,-1.45089 l 2.18751,3.03572 c -1.85651,-0.29408 -1.03794,-0.0614 -3.72768,-1.58483 z"
       style="fill:#201c38;fill-opacity:1;stroke:none" />
  </g>
</svg>
