<?xml version="1.0" encoding="UTF-8" standalone="no"?>
<!-- Created with Inkscape (http://www.inkscape.org/) -->

<svg
   xmlns:dc="http://purl.org/dc/elements/1.1/"
   xmlns:cc="http://creativecommons.org/ns#"
   xmlns:rdf="http://www.w3.org/1999/02/22-rdf-syntax-ns#"
   xmlns:svg="http://www.w3.org/2000/svg"
   xmlns="http://www.w3.org/2000/svg"
   xmlns:sodipodi="http://sodipodi.sourceforge.net/DTD/sodipodi-0.dtd"
   xmlns:inkscape="http://www.inkscape.org/namespaces/inkscape"
   width="271.56372"
   height="321.78308"
   id="svg3865"
   version="1.1"
   inkscape:version="0.48.2 r9819"
   sodipodi:docname="Neues Dokument 8">
  <defs
     id="defs3867" />
  <sodipodi:namedview
     id="base"
     pagecolor="#ffffff"
     bordercolor="#666666"
     borderopacity="1.0"
     inkscape:pageopacity="0.0"
     inkscape:pageshadow="2"
     inkscape:zoom="0.98994949"
     inkscape:cx="135.78813"
     inkscape:cy="118.20603"
     inkscape:document-units="px"
     inkscape:current-layer="layer1"
     showgrid="false"
     fit-margin-top="1"
     fit-margin-left="1"
     fit-margin-bottom="1"
     fit-margin-right="1"
     inkscape:window-width="1214"
     inkscape:window-height="859"
     inkscape:window-x="351"
     inkscape:window-y="236"
     inkscape:window-maximized="0" />
  <metadata
     id="metadata3870">
    <rdf:RDF>
      <cc:Work
         rdf:about="">
        <dc:format>image/svg+xml</dc:format>
        <dc:type
           rdf:resource="http://purl.org/dc/dcmitype/StillImage" />
        <dc:title></dc:title>
      </cc:Work>
    </rdf:RDF>
  </metadata>
  <g
     inkscape:label="Ebene 1"
     inkscape:groupmode="layer"
     id="layer1"
     transform="translate(-327.82746,-435.8536)">
    <g
       id="g4445"
       transform="matrix(1.517814,0,0,1.517814,-309.85532,-391.79706)">
      <path
         sodipodi:nodetypes="ccccccccc"
         inkscape:connector-curvature="0"
         id="rect3902"
         d="m 438.57681,557.9835 c 13.43361,-2.948 36.46484,1.77789 45.36242,8.99374 7.16481,-7.14382 11.89002,-10.89635 24.25219,-21.02717 12.54073,10.04774 19.73799,19.85355 23.13485,21.31915 8.55347,-4.82618 18.20172,-9.29815 42.65725,-8.97954 -5.85894,9.55634 -10.00572,10.05998 -18.86875,29.91604 -36.85598,-11.21383 -53.78253,26.53333 -25.0385,43.85684 -15.06666,43.40824 -14.15452,65.02722 -19.89231,95.71429 C 506.61253,697.25049 495.87948,619.2378 438.57681,557.9835 z"
         style="fill:#2c7d2e;fill-opacity:1;stroke:none" />
      <path
         sodipodi:nodetypes="scccss"
         inkscape:connector-curvature="0"
         id="path3906"
         d="m 535.86528,591.03203 c -33.92553,8.91111 -3.31635,59.52874 16.35354,25.5593 45.51717,42.64281 22.9071,111.76343 -38.25879,119.09372 l 8.49108,20.47023 c 95.59448,-18.45336 94.11121,-132.23472 33.4554,-164.03047 -4.67368,-2.44994 -14.53069,-2.54022 -20.04123,-1.09278 z"
         style="font-size:medium;font-style:normal;font-variant:normal;font-weight:normal;font-stretch:normal;text-indent:0;text-align:start;text-decoration:none;line-height:normal;letter-spacing:normal;word-spacing:normal;text-transform:none;direction:ltr;block-progression:tb;writing-mode:lr-tb;text-anchor:start;baseline-shift:baseline;color:#000000;fill:#2c7d2e;fill-opacity:1;stroke:none;stroke-width:10.4194994;marker:none;visibility:visible;display:inline;overflow:visible;enable-background:accumulate;font-family:Sans;-inkscape-font-specification:Sans" />
      <path
         sodipodi:nodetypes="ccsccsc"
         inkscape:connector-curvature="0"
         id="path3906-9"
         d="m 460.29091,593.61553 11.7778,18.4547 c -31.18416,21.03406 -39.36208,63.03822 -18.32802,94.22238 11.65857,17.28448 30.59936,28.28838 51.39403,29.7909 l -4.19016,20.55317 c -27.20882,-1.96597 -49.15733,-16.11281 -64.65012,-38.56627 -27.80788,-40.30153 -17.24926,-98.06773 23.99647,-124.45488 z"
         style="font-size:medium;font-style:normal;font-variant:normal;font-weight:normal;font-stretch:normal;text-indent:0;text-align:start;text-decoration:none;line-height:normal;letter-spacing:normal;word-spacing:normal;text-transform:none;direction:ltr;block-progression:tb;writing-mode:lr-tb;text-anchor:start;baseline-shift:baseline;color:#000000;fill:#2c7d2e;fill-opacity:1;stroke:none;stroke-width:10.4194994;marker:none;visibility:visible;display:inline;overflow:visible;enable-background:accumulate;font-family:Sans;-inkscape-font-specification:Sans" />
    </g>
  </g>
</svg>
