<?xml version="1.0" encoding="UTF-8"?><svg width="452" height="472" viewBox="24 14 452 472" xmlns="http://www.w3.org/2000/svg">
 <path xmlns="http://www.w3.org/2000/svg" d="m362.7 60.1c0 27-21.4 50.7-47.9 53-26.5 2.3-47.9-17.7-47.9-44.7 0-27 21.4-50.7 47.9-53 26.5-2.3 47.9 17.7 47.9 44.7" fill="#ff410b"/>
 <path xmlns="http://www.w3.org/2000/svg" d="m216 289.2c-81.6 0-151.1 26.5-178 63.6 21.6-12.9 41.1-22.4 73.3-31.8 24.1-12.7 59.5-20.6 98.9-20.6 72.5 0 131.3 27 131.3 60.2s-58.8 60.2-131.3 60.2c-72.5 0-131.3-27-131.3-60.2 0-4.2 1-8.4 2.8-12.4-19.8 8.3-35.1 17.8-54.9 30.2-0.5 2.8-0.7 5.7-0.7 8.6 0 54 85.1 97.8 190 97.8 104.9 0 190-43.8 190-97.8s-85.1-97.8-190-97.8" fill="#0c5ca6"/>
 <path xmlns="http://www.w3.org/2000/svg" d="m412.6 123c-46.6-31.2-103.4 15.3-142.9 107.6 0.1-93.5-22.2-171.4-62.4-198.4-60-40.2-137.1 48.5-172.2 198.2-4.2 17.7-7.5 35.5-10.1 53.2h21.6c33.8-87.2 80.9-132.8 120.6-107.3 36.7 23.6 57.5 101.9 57.7 198h27.4c0.4-1.9 1.6-3.7 2-5.5 33.6-83.5 79.5-126.5 118.2-101.6 36.6 23.6 57.5 101.9 57.7 198h28.2c34.4-149.1 14.1-302-45.6-342" fill="#309e2d"/>
</svg>