<svg xmlns="http://www.w3.org/2000/svg" width="200" height="140" fill="#278976"><path d="M198.332 41.932H158.04C147.861 19.827 125.809 4.48 100.296 4.48c-17.34 0-33.491 6.556-45.478 18.46a62.89 62.89 0 0 0-13.104 18.991H1.668l7.294 15.021h28.119a68.79 68.79 0 0 0-1.003 8.499H13.09l7.104 14.626h16.661c.499 2.974 1.769 5.876 2.662 8.696h-15.1l7.294 15.021h55.491c6.572 5.434 11.463 6.868 11.463 6.868l-1.858-6.868h6.104l-1.859 6.868s5.44-1.437 12.015-6.868h53.443l7.727-15.021H160.65c.875-2.834 2.041-5.738 2.521-8.696h15.537l7.523-14.626h-22.318c-.171-2.888-.527-5.725-1.061-8.499h27.75l7.73-15.02zM46.728 56.953h19.047c.11 2.705.39 5.541.883 8.499h-21.08a59.97 59.97 0 0 1 1.15-8.499zm2.83 31.82c-1.059-2.797-2.467-5.703-3.06-8.695h24.155c1.22 3.225 2.555 6.111 3.959 8.695H49.558zm57.633 0H92.526l-2.478-8.695h19.622l-2.479 8.695zm6.647-23.321H85.879l-2.422-8.499h32.802l-2.421 8.499zm-34.661-23.52L73.91 24.043s-4.749 6.244-7.015 17.888H52.203c9.163-16.962 26.853-28.413 48.093-28.413 20.14 0 37.75 11.721 47.108 28.413h-14.582c-2.266-11.645-7.016-17.888-7.016-17.888l-5.267 17.888-41.362.001h0zm71.389 46.841h-25.461c1.403-2.584 2.738-5.472 3.959-8.695h24.449c-.585 2.992-1.897 5.901-2.947 8.695zm-17.505-23.321c.492-2.958.771-5.794.881-8.499h19.229c.622 2.76 1.04 5.6 1.24 8.499h-21.35z"/><path d="M97.121 110.32v3.81H51.7c8.554 12.706 28.626 21.392 48.3 21.392s39.762-7.479 48.516-21.392h-45.637v-3.81h-5.758z"/></svg>