<svg xmlns="http://www.w3.org/2000/svg" width="400" height="400"><path d="M397 195.2c0-104.3-76.6-186.8-179.4-194v34.7c80.8 7.7 158.3 70 158.3 179 0 24.7-10.8 69.4-29.4 90 0 0 43.5-94.7-11.7-172-37.4-52.3-94.2-65.7-116.7-69v29.2c69.6 7.4 125.8 68.7 125.8 143.7 0 70-44.6 124.5-105.3 140.6l17.6-21.3-45 31.8 55 10.7-28.3-12c91.6-13 159-92.3 159-191.3h0zM161.4 377C101.2 359.7 58 303 58 237c0-74.6 52-133 124.4-143V64c-23 3.3-76.6 15-116 72-54 77.7-9 170.6-9 170.6-20.3-23-31-68.2-31-93 0-109 78.8-169 156.2-178V1.2C82.2 10 3.7 93.5 3.7 195.2c0 95 75.7 180 157 191.2L134 398.6l55-10.7-44.8-31.8 17.2 20.8h0z" fill="#06875c"/></svg>