<?xml version="1.0" encoding="UTF-8" standalone="no"?>
<!-- Generator: Adobe Illustrator 16.0.3, SVG Export Plug-In . SVG Version: 6.00 Build 0)  -->

<svg
   xmlns:dc="http://purl.org/dc/elements/1.1/"
   xmlns:cc="http://creativecommons.org/ns#"
   xmlns:rdf="http://www.w3.org/1999/02/22-rdf-syntax-ns#"
   xmlns:svg="http://www.w3.org/2000/svg"
   xmlns="http://www.w3.org/2000/svg"
   xmlns:sodipodi="http://sodipodi.sourceforge.net/DTD/sodipodi-0.dtd"
   xmlns:inkscape="http://www.inkscape.org/namespaces/inkscape"
   version="1.1"
   id="Flag_of_Zentsuji"
   x="0px"
   y="0px"
   width="573.29901"
   height="424.49899"
   viewBox="0 0 573.29901 424.49899"
   enable-background="new 0 0 900 600"
   xml:space="preserve"
   sodipodi:docname="Emblem_of_Zentsuji,_Kagawa.svg"
   inkscape:version="0.92.4 (5da689c313, 2019-01-14)"><metadata
   id="metadata17"><rdf:RDF><cc:Work
       rdf:about=""><dc:format>image/svg+xml</dc:format><dc:type
         rdf:resource="http://purl.org/dc/dcmitype/StillImage" /><dc:title></dc:title></cc:Work></rdf:RDF></metadata><defs
   id="defs15" /><sodipodi:namedview
   pagecolor="#ffffff"
   bordercolor="#666666"
   borderopacity="1"
   objecttolerance="10"
   gridtolerance="10"
   guidetolerance="10"
   inkscape:pageopacity="0"
   inkscape:pageshadow="2"
   inkscape:window-width="1920"
   inkscape:window-height="996"
   id="namedview13"
   showgrid="false"
   fit-margin-top="0"
   fit-margin-left="0"
   fit-margin-right="0"
   fit-margin-bottom="0"
   inkscape:zoom="0.78666667"
   inkscape:cx="141.61127"
   inkscape:cy="182.71811"
   inkscape:window-x="1912"
   inkscape:window-y="-8"
   inkscape:window-maximized="1"
   inkscape:current-layer="Flag_of_Zentsuji" />


<path
   d="M 473.732,166.776 C 462.473,123.261 436.282,85.752 400.953,60.043 h 172.346 z"
   id="path6"
   style="fill:#00bfff"
   inkscape:connector-curvature="0" />
<path
   d="m 371.366,60.03 h 8.781 c 39.541,23.452 69.325,61.56 81.821,106.888 l -32.191,0.006 C 417.565,130.912 391.964,101.068 358.909,83.333 Z"
   id="path8"
   style="fill:#00bfff"
   inkscape:connector-curvature="0" />
<path
   d="M 146.764,166.976 H 92.368 L 0,60.102 H 217.287 L 277.377,0 l 76.41,76.411 -7.806,14.761 c 46.578,21.683 78.86,68.907 78.86,123.672 0,62.761 -31.526,92.141 -75.204,136.609 L 272.22,264.5 c 36.127,-9.521 49.431,-21.729 49.431,-44.861 0,-23.134 -18.754,-41.883 -41.888,-41.883 -23.129,0 -41.891,18.749 -41.891,41.883 0,25.412 18.464,41.693 18.464,41.693 l 85.663,97.761 -66.204,65.406 c 0,0 -66.668,-66.57 -92.907,-98.063 -27.787,-33.342 -49.23,-71.063 -49.23,-98.848 0,-23.426 2.78,-37.329 13.106,-60.612 z"
   id="path10"
   style="fill:#00bfff"
   inkscape:connector-curvature="0" />
</svg>