<?xml version="1.0" encoding="utf-8" standalone="no"?>
<svg xmlns:svg="http://www.w3.org/2000/svg" xmlns="http://www.w3.org/2000/svg" version="1.1" width="500" height="500" viewBox="-250 -250 500 500">
	<title>Marugame Kagawa Chapter</title>
	<path d="M -250,-250 h 500 v 500 h -500 v -500 z" style="fill:white;stroke:none" />
	<circle cx="0" cy="0" r="240" style="fill:#0168b7;stroke:none" />
	<path d="M -0.15625 -176.15625 C -2.7742606 -176.1154 -5.3652128 -175.00513 -7.1875 -173.125 C -9.0097872 -171.24486 -10.040964 -168.61801 -10 -166 L -10 -109.6875 L -90.03125 -63.5 L -202.84375 -128.65625 C -205.11273 -130.00938 -210.86659 -124.78789 -212.1875 -122.5 C -213.50841 -120.21211 -215.15009 -112.63218 -212.84375 -111.34375 L -100 -46.1875 L -100 46.1875 L -148.75 74.34375 C -151.08326 75.642612 -152.87134 77.920576 -153.5625 80.5 C -154.25366 83.079424 -153.83998 85.927275 -152.46875 88.21875 C -151.12437 90.465589 -148.88313 92.143168 -146.34375 92.78125 C -143.80436 93.419327 -140.99678 93.000731 -138.75 91.65625 L -90 63.5 L -10 109.6875 L -10 240 C -10.037358 242.64156 -2.6418272 245 0 245 C 2.6418272 245 10.037358 242.64156 10 240 L 10 109.6875 L 90 63.5 L 138.75 91.65625 C 141.04148 93.027478 143.88933 93.441154 146.46875 92.75 C 149.04817 92.058846 151.32614 90.270755 152.625 87.9375 C 153.89863 85.649811 154.2171 82.861962 153.5 80.34375 C 152.78289 77.825533 151.03775 75.617279 148.75 74.34375 L 100 46.1875 L 100 -46.1875 L 212.84375 -111.34375 C 215.15009 -112.63218 213.50841 -120.21211 212.1875 -122.5 C 210.86659 -124.78789 205.11273 -130.00938 202.84375 -128.65625 L 90.03125 -63.5 L 10 -109.6875 L 10 -166 C 10.041781 -168.67009 8.9507691 -171.33048 7.0625 -173.21875 C 5.1742308 -175.10702 2.513839 -176.19803 -0.15625 -176.15625 z " style="fill:white;stroke:none" />
</svg>