<?xml version="1.0" encoding="UTF-8" standalone="no"?>
<!-- Created with Inkscape (http://www.inkscape.org/) -->

<svg
   xmlns:dc="http://purl.org/dc/elements/1.1/"
   xmlns:cc="http://creativecommons.org/ns#"
   xmlns:rdf="http://www.w3.org/1999/02/22-rdf-syntax-ns#"
   xmlns:svg="http://www.w3.org/2000/svg"
   xmlns="http://www.w3.org/2000/svg"
   xmlns:sodipodi="http://sodipodi.sourceforge.net/DTD/sodipodi-0.dtd"
   xmlns:inkscape="http://www.inkscape.org/namespaces/inkscape"
   version="1.0"
   width="570.84375"
   height="389.40442"
   id="svg2"
   inkscape:version="0.48.4 r9939"
   sodipodi:docname="Flag_of_Takamatsu,_Kagawa.svg">
  <metadata
     id="metadata12">
    <rdf:RDF>
      <cc:Work
         rdf:about="">
        <dc:format>image/svg+xml</dc:format>
        <dc:type
           rdf:resource="http://purl.org/dc/dcmitype/StillImage" />
      </cc:Work>
    </rdf:RDF>
  </metadata>
  <sodipodi:namedview
     pagecolor="#ffffff"
     bordercolor="#666666"
     borderopacity="1"
     objecttolerance="10"
     gridtolerance="10"
     guidetolerance="10"
     inkscape:pageopacity="0"
     inkscape:pageshadow="2"
     inkscape:window-width="769"
     inkscape:window-height="480"
     id="namedview10"
     showgrid="false"
     fit-margin-top="0"
     fit-margin-left="0"
     fit-margin-right="0"
     fit-margin-bottom="0"
     inkscape:zoom="0.39333333"
     inkscape:cx="311.29376"
     inkscape:cy="195.02941"
     inkscape:window-x="0"
     inkscape:window-y="0"
     inkscape:window-maximized="0"
     inkscape:current-layer="svg2" />
  <defs
     id="defs5" />
  <path
     d="m 314.14493,0 -82.5625,41.34375 14.75,2.5625 -246.03125,169.6875 5.9375,3.1875 L 250.95743,48 30.61368,230.75 36.17618,233.9375 253.48868,53.65625 251.23868,69.25 314.14493,0 z"
     id="rect2393"
     style="fill:#000000;stroke:none"
     inkscape:connector-curvature="0" />
  <path
     d="m 284.98868,67.875 c -12.08017,0 -11.5,0.46952 -11.5,11.40625 l 0,7.59375 -3.25,1.4375 c -1.7875,0.78867 -7.3,3.33235 -12.25,5.625 -4.95,2.29265 -15.525,6.49743 -23.5,9.375 -7.975,2.87756 -15.2875,5.95187 -16.25,6.8125 -3.65931,3.27201 -1.22393,14.34486 3.5625,16.21875 2.91607,1.14165 4.34445,0.7559 24.1875,-6.5 9.35,-3.41895 21.90058,-8.52595 27.875,-11.34375 5.97444,-2.81781 11.23071,-5.4375 11.6875,-5.4375 0.45679,0 5.45622,2.55339 11.125,5.28125 11.05641,5.32043 23.31126,10.19468 39.3125,15.65625 8.24933,2.81566 10.45575,3.22933 12.59375,2.34375 2.95553,-1.22422 5.90625,-6.6859 5.90625,-10.90625 0,-4.6209 -2.83806,-6.80277 -13.5,-10.46875 -15.60117,-5.36429 -22.22996,-8.00289 -33.78125,-13.4375 l -10.71875,-5.125 0,-7.375 c 0,-10.77394 0.40418,-11.15625 -11.5,-11.15625 z m 0.6875,49.5 c -26.99238,0 -29.6862,-0.7488 -32.34375,1.65625 -1.70373,1.54185 -1.84375,3.991 -1.84375,35.84375 0,31.3145 0.14718,34.32247 1.75,35.71875 0.9625,0.83849 2.425,1.77821 3.25,2.09375 0.825,0.31553 14.40059,0.70002 30.15625,0.59375 26.61379,-0.1795 28.79592,-0.5427 30.75,-2.3125 2.05925,-1.86503 2.09375,-2.60331 2.09375,-35.90625 0,-30.24916 -0.10536,-34.29286 -1.65625,-35.84375 -2.66255,-2.66255 -2.36198,-1.84375 -32.15625,-1.84375 z m -17.1875,16 17,0 17,0 0,6.5 0,6.5 -17,0 -17,0 0,-6.5 0,-6.5 z m 0,30 17,0 17,0 0,6.5 0,6.5 -17,0 -17,0 0,-6.5 0,-6.5 z m 43.5,41.125 c -7.43151,-0.003 -16.73591,0.0355 -28.4375,0.0937 -50.95236,0.25372 -54.79516,-0.33227 -56.5,2 -2.1873,2.9923 -1.875,3.74615 -1.875,18 0,24.07746 -4.8771,37.22011 -14.34375,47.53125 -5.67791,6.18443 -6.03505,8.25586 -1.15625,13.8125 5.76466,6.56558 9.13529,6.58283 15.09375,0.0625 11.21925,-12.27721 18.38744,-31.77451 19.4375,-52.875 l 0.5625,-11.75 39.875,0 39.84375,0 0,8.09375 c 0,14.66204 4.76057,32.70781 12.09375,45.78125 3.48822,6.21871 10.33853,14.22302 13.125,15.34375 4.53549,1.82417 12.67675,-5.15798 12.75,-10.9375 0.0303,-2.38566 -0.97502,-4.30569 -3.9375,-7.5 -9.7839,-10.54956 -14.75,-24.00247 -14.75,-48.5625 0,-15.26158 0.65095,-15.81288 -2.8125,-17.8125 -1.45225,-0.83841 -6.67421,-1.27192 -28.96875,-1.2812 z m -26.78125,25.875 c -31.44468,0 -28.70081,-0.39813 -31.5,1.5625 -2.90002,2.03125 -2.21875,2.00915 -2.21875,22.09375 0,20.07065 -0.80562,20.05518 2.125,22.5 3.1232,2.60547 4.50272,1.78168 31.3125,1.8125 28.35521,0.0326 28.2516,1.09215 31.34375,-2 3.01339,-3.01339 2.21875,-2.72567 2.21875,-22.15625 0,-18.49235 0.80316,-19.00934 -2,-21.8125 -2.78392,-2.78392 -3.33709,-2 -31.28125,-2 z m -16.71875,17 16.5,0 16.5,0 0,7 0,7 -16.5,0 -16.5,0 0,-7 0,-7 z"
     id="rect2390"
     style="fill:#000000;stroke:none"
     inkscape:connector-curvature="0" />
  <path
     d="m 313.84375,389.40441 -82.5625,-41.34374 14.75,-2.56251 L 0,175.81066 5.9375,172.62316 250.65625,341.40441 30.3125,158.65442 l 5.5625,-3.18751 217.3125,180.28125 -2.25,-15.59375 62.90625,69.25 z"
     id="path2411"
     style="fill:#000000;stroke:none"
     inkscape:connector-curvature="0" />
  <path
     d="m 257,389.40441 82.5625,-41.34374 -14.75,-2.56251 246.03125,-169.6875 -5.9375,-3.1875 -244.71875,168.78125 220.34375,-182.74999 -5.5625,-3.18751 -217.3125,180.28125 2.25,-15.59375 -62.90625,69.25 z"
     id="path2413"
     style="fill:#000000;stroke:none"
     inkscape:connector-curvature="0" />
  <path
     d="m 257,0.21691 82.5625,41.34374 -14.75,2.56251 246.03125,169.6875 -5.9375,3.1875 L 320.1875,48.21691 540.53125,230.9669 l -5.5625,3.18751 -217.3125,-180.28125 2.25,15.59375 L 257,0.21691 z"
     id="path2415"
     style="fill:#000000;stroke:none"
     inkscape:connector-curvature="0" />
</svg>
