<?xml version="1.0" encoding="UTF-8" standalone="no"?>
<!-- Created with Inkscape (http://www.inkscape.org/) -->

<svg
   xmlns:dc="http://purl.org/dc/elements/1.1/"
   xmlns:cc="http://creativecommons.org/ns#"
   xmlns:rdf="http://www.w3.org/1999/02/22-rdf-syntax-ns#"
   xmlns:svg="http://www.w3.org/2000/svg"
   xmlns="http://www.w3.org/2000/svg"
   xmlns:sodipodi="http://sodipodi.sourceforge.net/DTD/sodipodi-0.dtd"
   xmlns:inkscape="http://www.inkscape.org/namespaces/inkscape"
   width="300"
   height="343.92429"
   id="svg2"
   version="1.1"
   inkscape:version="0.48.4 r"
   sodipodi:docname="Symbol of Kanonji Kagawa.svg">
  <defs
     id="defs4" />
  <sodipodi:namedview
     id="base"
     pagecolor="#ffffff"
     bordercolor="#666666"
     borderopacity="1.0"
     inkscape:pageopacity="0.0"
     inkscape:pageshadow="2"
     inkscape:zoom="2.1516363"
     inkscape:cx="150"
     inkscape:cy="171.96215"
     inkscape:document-units="px"
     inkscape:current-layer="layer1"
     showgrid="false"
     inkscape:window-width="1280"
     inkscape:window-height="961"
     inkscape:window-x="-8"
     inkscape:window-y="-8"
     inkscape:window-maximized="1"
     fit-margin-top="0"
     fit-margin-left="0"
     fit-margin-right="0"
     fit-margin-bottom="0" />
  <metadata
     id="metadata7">
    <rdf:RDF>
      <cc:Work
         rdf:about="">
        <dc:format>image/svg+xml</dc:format>
        <dc:type
           rdf:resource="http://purl.org/dc/dcmitype/StillImage" />
        <dc:title></dc:title>
      </cc:Work>
    </rdf:RDF>
  </metadata>
  <g
     inkscape:label="レイヤー 1"
     inkscape:groupmode="layer"
     id="layer1"
     transform="translate(-279.26035,-291.64186)">
    <g
       id="g3797"
       transform="matrix(1.0129399,0,0,1.0129399,-3.6136084,-8.2241792)">
      <path
         sodipodi:nodetypes="cscc"
         inkscape:connector-curvature="0"
         id="path3789"
         d="m 279.60813,547.74603 c -3.02208,32.24456 14.0071,62.23618 37.25741,74.86476 30.70414,16.67719 92.0006,14.72663 106.98465,5.99143 -65.00344,-0.83705 -123.94287,-26.6545 -144.24206,-80.85619 z"
         style="fill:#8ecb00;fill-opacity:1;stroke:none" />
      <path
         sodipodi:nodetypes="csscssc"
         inkscape:connector-curvature="0"
         id="path3791"
         d="m 423.97778,628.35798 c -44.6947,-4.93023 -122.48315,-29.13417 -131.50455,-90.85864 -9.03366,-61.80836 59.74102,-113.16142 57.16567,-172.39472 -1.13574,-26.12228 -7.41334,-34.06914 -31.02626,-69.06925 45.81066,23.45541 102.08529,65.67376 104.00536,111.66462 3.22908,77.34509 -46.42641,68.27189 -45.81437,146.45764 0.2057,26.27802 27.66736,63.58324 47.17415,74.20035 z"
         style="fill:#8ecb00;fill-opacity:1;stroke:none" />
      <path
         sodipodi:nodetypes="czcc"
         inkscape:connector-curvature="0"
         id="path3793"
         d="m 434.02215,468.92953 c -21.65445,-49.35142 23.87243,-74.78287 53.0401,-64.75206 29.16767,10.03081 51.26452,56.36122 2.36751,84.20919 -7.6223,-20.4012 -36.29043,-28.68359 -55.40761,-19.45713 z"
         style="fill:#fe9901;fill-opacity:1;stroke:none" />
      <path
         sodipodi:nodetypes="csssssc"
         inkscape:connector-curvature="0"
         id="path3795"
         d="m 575.42797,573.17018 c -22.82366,1.76333 -59.36521,7.24604 -75.05614,-19.77813 -9.28916,-15.99853 -6.35663,-30.70782 -13.31044,-50.72305 -5.35228,-15.40552 -18.70831,-27.66588 -37.2477,-26.6963 -44.15514,2.30925 -62.59978,33.47732 -62.90191,71.31127 -0.3695,46.26973 37.92832,88.23296 93.10519,88.28214 60.4028,0.0538 83.86822,-39.03978 95.411,-62.39593 z"
         style="fill:#0165ff;fill-opacity:1;stroke:none" />
    </g>
  </g>
</svg>
