<?xml version="1.0" encoding="UTF-8" standalone="no"?>
<!-- Created with Inkscape (http://www.inkscape.org/) -->

<svg
   xmlns:dc="http://purl.org/dc/elements/1.1/"
   xmlns:cc="http://creativecommons.org/ns#"
   xmlns:rdf="http://www.w3.org/1999/02/22-rdf-syntax-ns#"
   xmlns:svg="http://www.w3.org/2000/svg"
   xmlns="http://www.w3.org/2000/svg"
   xmlns:sodipodi="http://sodipodi.sourceforge.net/DTD/sodipodi-0.dtd"
   xmlns:inkscape="http://www.inkscape.org/namespaces/inkscape"
   version="1.1"
   id="svg2"
   width="176"
   height="167"
   viewBox="0 0 176 167"
   sodipodi:docname="Emblem of Shodoshima, Kagawa.svg"
   inkscape:version="0.92.3 (2405546, 2018-03-11)">
  <metadata
     id="metadata8">
    <rdf:RDF>
      <cc:Work
         rdf:about="">
        <dc:format>image/svg+xml</dc:format>
        <dc:type
           rdf:resource="http://purl.org/dc/dcmitype/StillImage" />
        <dc:title></dc:title>
      </cc:Work>
    </rdf:RDF>
  </metadata>
  <defs
     id="defs6" />
  <sodipodi:namedview
     pagecolor="#ffffff"
     bordercolor="#666666"
     borderopacity="1"
     objecttolerance="10"
     gridtolerance="10"
     guidetolerance="10"
     inkscape:pageopacity="0"
     inkscape:pageshadow="2"
     inkscape:window-width="1920"
     inkscape:window-height="1017"
     id="namedview4"
     showgrid="false"
     inkscape:zoom="1.9985293"
     inkscape:cx="-0.099576271"
     inkscape:cy="83.5"
     inkscape:window-x="-8"
     inkscape:window-y="-8"
     inkscape:window-maximized="1"
     inkscape:current-layer="svg2" />
  <path
     d="m 81.463567,150.60773 c -38.4304,-2.36586 -68.870521,-34.44042 -68.870521,-73.659963 0,-36.657919 26.592367,-67.0727864 61.446227,-72.8222426 0,0 -34.874802,26.0151596 -34.874802,72.8222426 0,58.867453 42.299096,73.659963 42.299096,73.659963"
     style="fill:#0759a5;fill-opacity:1;fill-rule:nonzero;stroke:none;stroke-width:0.52489477"
     id="path468"
     inkscape:connector-curvature="0" />
  <path
     d="m 73.164905,145.29137 c 0,0 -21.61893,-18.00666 22.571312,-59.728891 C 114.59381,67.758423 156.27771,55.419665 156.27771,55.419665 149.14767,31.885623 130.63197,13.338022 107.17895,6.2572365 c 0,0 -21.443011,20.1504585 -37.442937,51.4509505 -15.999925,31.299965 -15.428704,73.512633 3.428892,87.583183"
     style="fill:#0759a5;fill-opacity:1;fill-rule:nonzero;stroke:none;stroke-width:0.52489477"
     id="path470"
     inkscape:connector-curvature="0" />
  <path
     d="m 158.31913,89.924824 c -2.45922,13.931616 -8.80705,26.512966 -17.87589,36.568986 0,0 -35.27848,-8.19532 -52.421375,2.14223 -14.587321,8.79678 -10.285628,17.80406 -10.285628,17.80406 0,0 -10.420189,-13.64904 1.714183,-27.56751 26.28608,-30.151225 78.86871,-28.947766 78.86871,-28.947766"
     style="fill:#0759a5;fill-opacity:1;fill-rule:nonzero;stroke:none;stroke-width:0.52489477"
     id="path472"
     inkscape:connector-curvature="0" />
  <path
     d="m 111.28639,132.06066 c -14.940205,0 -27.051542,7.14658 -27.051542,15.9623 0,8.81519 12.111337,15.96177 27.051542,15.96177 5.09072,0 9.85107,-0.83089 13.91767,-2.27378 -3.56241,-0.74882 -6.23839,-3.92139 -6.23839,-7.72435 0,-4.35921 3.51581,-7.89327 7.85362,-7.89327 4.3373,0 7.85363,3.53406 7.85363,7.89327 0,0.85141 -0.13823,1.66915 -0.38588,2.4369 2.56552,-2.44007 4.05091,-5.31743 4.05091,-8.40054 0,-8.81572 -12.11134,-15.9623 -27.05156,-15.9623"
     style="fill:#018b53;fill-opacity:1;fill-rule:nonzero;stroke:none;stroke-width:0.52489477"
     id="path474"
     inkscape:connector-curvature="0" />
</svg>
