<svg xmlns="http://www.w3.org/2000/svg" width="250" height="220"><path d="M47 126.114c0-43.165 34.993-78.158 78.157-78.158s78.158 34.993 78.158 78.158m-174.085 0c0-52.979 42.948-95.927 95.927-95.927s95.928 42.948 95.928 95.927m-209.84 0c0-62.913 51-113.913 113.913-113.913s113.913 51 113.913 113.913" fill="none" stroke="#fe0000" stroke-width="11.702" stroke-miterlimit="10"/><path fill="#fe0000" d="M246.579 137.526h-21.631l-84.512 57.098-1.672-6.099 75.487-50.999H192.62l-57.237 38.67-10.369-37.802-10.077 37.877-57.35-38.745H35.956l75.685 51.133-1.63 6.126-84.753-57.259H3.627l103.088 69.647-1.63 6.126h40.473l-1.741-6.346z"/></svg>