<?xml version="1.0" encoding="UTF-8" standalone="no"?>
<!-- Created with Inkscape (http://www.inkscape.org/) -->

<svg
   xmlns:dc="http://purl.org/dc/elements/1.1/"
   xmlns:cc="http://creativecommons.org/ns#"
   xmlns:rdf="http://www.w3.org/1999/02/22-rdf-syntax-ns#"
   xmlns:svg="http://www.w3.org/2000/svg"
   xmlns="http://www.w3.org/2000/svg"
   xmlns:sodipodi="http://sodipodi.sourceforge.net/DTD/sodipodi-0.dtd"
   xmlns:inkscape="http://www.inkscape.org/namespaces/inkscape"
   version="1.1"
   id="svg2"
   width="1396"
   height="1248"
   viewBox="0 0 1396 1248"
   sodipodi:docname="Emblem of Naoshima, Kagawa.svg"
   inkscape:version="0.92.3 (2405546, 2018-03-11)">
  <metadata
     id="metadata8">
    <rdf:RDF>
      <cc:Work
         rdf:about="">
        <dc:format>image/svg+xml</dc:format>
        <dc:type
           rdf:resource="http://purl.org/dc/dcmitype/StillImage" />
        <dc:title></dc:title>
      </cc:Work>
    </rdf:RDF>
  </metadata>
  <defs
     id="defs6" />
  <sodipodi:namedview
     pagecolor="#ffffff"
     bordercolor="#666666"
     borderopacity="1"
     objecttolerance="10"
     gridtolerance="10"
     guidetolerance="10"
     inkscape:pageopacity="0"
     inkscape:pageshadow="2"
     inkscape:window-width="1920"
     inkscape:window-height="1017"
     id="namedview4"
     showgrid="false"
     inkscape:zoom="0.37820513"
     inkscape:cx="39.627119"
     inkscape:cy="624"
     inkscape:window-x="-8"
     inkscape:window-y="-8"
     inkscape:window-maximized="1"
     inkscape:current-layer="svg2" />
  <g
     id="g16518"
     transform="matrix(34.426594,0,0,-38.805711,1081.3183,583.95293)" />
  <g
     id="g16538"
     transform="matrix(44.836936,0,0,-47.238392,663.50427,930.0414)">
    <path
       d="m 0,0 c -0.78,-0.916 -1.681,-1.484 -2.309,-1.603 -0.628,-0.119 -1.923,-0.091 -2.346,-0.404 -0.423,-0.314 -2.578,-1.445 -3.993,-1.955 -1.413,-0.51 -3.545,-0.276 -4.359,1.258 -0.812,1.536 -0.6,3.271 1.454,4.531 2.052,1.263 3.837,1.583 6.924,1.614 3.091,0.032 4.187,-0.44 5.09,-1.202 C 1.371,1.47 0.106,0.124 0,0"
       style="fill:#f24dae;fill-opacity:1;fill-rule:nonzero;stroke:none"
       id="path16540"
       inkscape:connector-curvature="0" />
  </g>
  <g
     id="g16542"
     transform="matrix(44.836936,0,0,-47.238392,716.0082,893.76226)">
    <path
       d="m 0,0 c 0,0 0.912,0.045 1.097,0 1.674,-0.412 1.692,-0.91 2.797,-2.237 1.104,-1.328 2.248,-1.825 3.043,-1.7 0.792,0.126 1.105,-0.264 2.746,-0.709 1.642,-0.45 2.888,0.089 3.523,1.007 0.637,0.916 0.33,2.238 -0.057,2.822 C 12.747,-0.2 13.047,0.375 12.317,1.351 11.5,2.443 9.382,2.82 6.156,2.918 2.928,3.017 2.196,2.096 1.273,1.732 0.962,1.611 0.47,1.496 0.088,1.432 0.088,1.432 0.166,0.302 0,0"
       style="fill:#f24dae;fill-opacity:1;fill-rule:nonzero;stroke:none"
       id="path16544"
       inkscape:connector-curvature="0" />
  </g>
  <g
     id="g16546"
     transform="matrix(44.836936,0,0,-47.238392,816.66701,954.08548)">
    <path
       d="m 0,0 c -0.923,-0.646 -2.365,-1.674 -2.999,-2.237 -0.969,-0.862 -1.338,-1.802 -1.338,-1.802 l -0.975,0.399 c -0.082,0.544 -0.194,1.244 -0.338,2.022 0,0 1.925,0.322 3.022,2.449 0,0 2.252,0.204 2.628,-0.831"
       style="fill:#1aae48;fill-opacity:1;fill-rule:nonzero;stroke:none"
       id="path16548"
       inkscape:connector-curvature="0" />
  </g>
  <g
     id="g16550"
     transform="matrix(44.836936,0,0,-47.238392,534.41861,749.21283)">
    <path
       d="m 0,0 c -0.922,1.094 -2.477,2.503 -4.635,3.709 0,0 1.937,-1.772 3.185,-3.612 z"
       style="fill:#1aae48;fill-opacity:1;fill-rule:nonzero;stroke:none"
       id="path16552"
       inkscape:connector-curvature="0" />
  </g>
  <g
     id="g16554"
     transform="matrix(44.836936,0,0,-47.238392,666.55294,783.98015)">
    <path
       d="m 0,0 c 0,0 -0.544,3.537 -1.943,5.853 -1.405,2.316 -2.039,3.49 -2.038,4.52 0.002,1.03 0.68,2.648 0.68,2.648 0,0 -0.413,0.485 -0.846,0.538 -0.433,0.052 -0.826,-0.224 -1.082,-0.433 -0.26,-0.207 -0.927,-0.128 -1.292,-0.174 -0.365,-0.044 -1.41,-0.643 -1.584,-1.379 C -8.282,10.836 -8.032,10.28 -7.72,9.891 -7.41,9.502 -7.346,8.573 -7.463,8.073 -7.58,7.57 -7.677,6.403 -6.378,5.249 -5.079,4.092 -2.854,2.002 -2.214,0.66 -2.214,0.66 -0.649,0.511 0,0"
       style="fill:#f24dae;fill-opacity:1;fill-rule:nonzero;stroke:none"
       id="path16556"
       inkscape:connector-curvature="0" />
  </g>
  <g
     id="g16558"
     transform="matrix(44.836936,0,0,-47.238392,1148.4155,491.00777)">
    <path
       d="m 0,0 c -0.231,0.142 -0.577,-0.002 -0.771,-0.32 -0.128,-0.211 -0.155,-0.443 -0.093,-0.617 -0.492,-0.775 -1.805,-2.713 -3.279,-3.96 0,0 2.301,1.57 3.592,3.696 0.217,-0.026 0.467,0.112 0.622,0.368 C 0.266,-0.514 0.233,-0.141 0,0"
       style="fill:#f24dae;fill-opacity:1;fill-rule:nonzero;stroke:none"
       id="path16560"
       inkscape:connector-curvature="0" />
  </g>
  <g
     id="g16562"
     transform="matrix(44.836936,0,0,-47.238392,1128.8666,368.18782)">
    <path
       d="m 0,0 c -0.243,0.126 -0.577,-0.043 -0.748,-0.374 -0.109,-0.214 -0.121,-0.444 -0.054,-0.613 -0.486,-0.866 -1.853,-3.176 -3.264,-4.555 0,0 2.437,2.054 3.599,4.305 0.217,-0.011 0.46,0.147 0.597,0.414 C 0.298,-0.492 0.239,-0.122 0,0"
       style="fill:#f24dae;fill-opacity:1;fill-rule:nonzero;stroke:none"
       id="path16564"
       inkscape:connector-curvature="0" />
  </g>
  <g
     id="g16566"
     transform="matrix(44.836936,0,0,-47.238392,1236.8341,358.07893)">
    <path
       d="m 0,0 c -0.241,0.123 -0.574,-0.043 -0.747,-0.376 -0.127,-0.251 -0.123,-0.525 -0.009,-0.695 -0.263,-0.546 -0.685,-1.261 -0.685,-1.261 0.31,0.227 0.697,0.765 0.921,1.1 0.229,-0.047 0.501,0.118 0.652,0.409 C 0.303,-0.493 0.243,-0.123 0,0"
       style="fill:#f24dae;fill-opacity:1;fill-rule:nonzero;stroke:none"
       id="path16568"
       inkscape:connector-curvature="0" />
  </g>
  <g
     id="g16570"
     transform="matrix(44.836936,0,0,-47.238392,1164.6018,216.83601)">
    <path
       d="m 0,0 c -0.27,0.047 -0.537,-0.215 -0.6,-0.581 -0.046,-0.28 0.039,-0.539 0.202,-0.667 -0.088,-0.602 -0.274,-1.409 -0.274,-1.409 0.226,0.309 0.432,0.941 0.546,1.324 0.231,0.025 0.444,0.266 0.499,0.587 C 0.435,-0.379 0.268,-0.045 0,0"
       style="fill:#f24dae;fill-opacity:1;fill-rule:nonzero;stroke:none"
       id="path16572"
       inkscape:connector-curvature="0" />
  </g>
  <g
     id="g16574"
     transform="matrix(44.836936,0,0,-47.238392,1026.1005,92.5518)">
    <path
       d="m 0,0 c -0.268,0.044 -0.536,-0.218 -0.596,-0.585 -0.04,-0.256 0.028,-0.493 0.166,-0.63 -0.081,-1.514 -0.758,-2.924 -0.758,-2.924 0.931,1.39 1.15,2.419 1.201,2.847 0.174,0.083 0.322,0.288 0.365,0.547 C 0.437,-0.378 0.271,-0.043 0,0 m -2.283,-3.262 c -0.262,0.074 -0.557,-0.154 -0.661,-0.511 -0.076,-0.273 -0.024,-0.539 0.125,-0.687 -0.156,-0.587 -0.433,-1.367 -0.433,-1.367 0.261,0.282 0.538,0.885 0.694,1.255 0.233,-0.001 0.47,0.213 0.562,0.524 0.103,0.36 -0.025,0.709 -0.287,0.786 m 2.179,-1.467 c -0.248,0.116 -0.576,-0.064 -0.732,-0.403 -0.104,-0.222 -0.108,-0.456 -0.026,-0.624 -0.409,-0.823 -1.496,-2.893 -2.826,-4.294 0,0 2.116,1.813 3.166,4.067 0.214,-0.003 0.451,0.164 0.579,0.433 0.156,0.34 0.085,0.705 -0.161,0.821 m -2.714,-7.179 c -0.273,-0.259 -0.491,-0.542 -0.709,-0.792 -1.155,-1.334 -2.619,-2.312 -2.619,-2.312 l -1.225,-0.136 c -0.453,2.776 -1.895,6.318 -3.216,8.238 -1.323,1.919 -0.91,3.592 -0.479,4.671 0.431,1.075 1.487,2.372 3.308,2.528 1.824,0.157 3.075,-1.662 3.075,-1.662 0,0 0.685,-2.705 0.349,-5.805 -0.332,-3.101 -1.311,-3.73 -1.311,-3.73 1.498,1.044 2.707,3.774 2.707,3.774 0.267,-0.059 0.427,0.145 0.378,0.677 -0.051,0.529 -0.51,0.383 -0.733,0.009 -0.22,-0.372 0.087,-0.628 0.087,-0.628 -0.341,-0.808 -1.1,-1.963 -1.1,-1.963 1.007,3.854 0.225,7.65 0.225,7.65 0,0 1.262,1.035 3.281,0.235 2.019,-0.8 1.928,-3.194 1.048,-5.881 -0.17,-0.519 -0.373,-1.002 -0.598,-1.45 0,0 -0.009,0.693 -0.433,0.705 -0.423,0.011 -0.764,-1.072 -0.058,-1.349 0,0 -1.228,-2.059 -1.977,-2.779"
       style="fill:#f24dae;fill-opacity:1;fill-rule:nonzero;stroke:none"
       id="path16576"
       inkscape:connector-curvature="0" />
  </g>
</svg>
