<?xml version="1.0" encoding="UTF-8" standalone="no"?>
<!-- Created with Inkscape (http://www.inkscape.org/) -->

<svg
   xmlns:dc="http://purl.org/dc/elements/1.1/"
   xmlns:cc="http://creativecommons.org/ns#"
   xmlns:rdf="http://www.w3.org/1999/02/22-rdf-syntax-ns#"
   xmlns:svg="http://www.w3.org/2000/svg"
   xmlns="http://www.w3.org/2000/svg"
   xmlns:sodipodi="http://sodipodi.sourceforge.net/DTD/sodipodi-0.dtd"
   xmlns:inkscape="http://www.inkscape.org/namespaces/inkscape"
   version="1.1"
   id="svg2"
   xml:space="preserve"
   width="220"
   height="225.17271"
   viewBox="0 0 220 225.17272"
   sodipodi:docname="Emblem_of_Ayagawa,_Kagawa.svg"
   inkscape:version="0.92.4 (5da689c313, 2019-01-14)"><metadata
     id="metadata8"><rdf:RDF><cc:Work
         rdf:about=""><dc:format>image/svg+xml</dc:format><dc:type
           rdf:resource="http://purl.org/dc/dcmitype/StillImage" /><dc:title></dc:title></cc:Work></rdf:RDF></metadata><defs
     id="defs6"><clipPath
       clipPathUnits="userSpaceOnUse"
       id="clipPath20"><path
         d="M 0,841 H 595.28 V -0.89 H 0 Z"
         id="path18"
         inkscape:connector-curvature="0"
         style="clip-rule:evenodd" /></clipPath><clipPath
       clipPathUnits="userSpaceOnUse"
       id="clipPath26"><path
         d="M 0,841 H 595 V 0 H 0 Z"
         id="path24"
         inkscape:connector-curvature="0" /></clipPath><clipPath
       clipPathUnits="userSpaceOnUse"
       id="clipPath32"><path
         d="M 0.06,840.96 H 595.02 V 0 H 0.06 Z"
         id="path30"
         inkscape:connector-curvature="0" /></clipPath></defs><sodipodi:namedview
     pagecolor="#ffffff"
     bordercolor="#666666"
     borderopacity="1"
     objecttolerance="10"
     gridtolerance="10"
     guidetolerance="10"
     inkscape:pageopacity="0"
     inkscape:pageshadow="2"
     inkscape:window-width="1920"
     inkscape:window-height="996"
     id="namedview4"
     showgrid="false"
     fit-margin-top="0"
     fit-margin-left="0"
     fit-margin-right="0"
     fit-margin-bottom="0"
     inkscape:zoom="1.68371"
     inkscape:cx="-3.7452378"
     inkscape:cy="150.22397"
     inkscape:window-x="1912"
     inkscape:window-y="-8"
     inkscape:window-maximized="1"
     inkscape:current-layer="g10" /><g
     id="g10"
     inkscape:groupmode="layer"
     inkscape:label="design_manual"
     transform="matrix(1.3333333,0,0,-1.3333333,-65.43966,635.56988)"><path
       d="m 125.0875,471.5535 c 0,0 5.12392,-3.65994 13.17579,-12.9318 8.05188,-9.27186 15.37177,-22.93564 18.54372,-32.69549 3.17195,-9.75985 5.38255,-19.75784 6.8192,-27.0016 1.45032,-7.31013 4.16063,-17.40571 8.30856,-28.14155 4.14794,-10.73583 9.80865,-19.46601 13.05868,-23.85307 6.05013,-8.16606 15.00089,-16.6503 15.00089,-16.6503 l 14.08541,5.12392 c 0,0 -8.95076,8.48424 -15.00089,16.6503 -3.25003,4.38706 -8.91074,13.11724 -13.05867,23.85307 -4.14794,10.73584 -6.85825,20.83142 -8.30856,28.1435 -1.43665,7.24376 -3.64726,17.2398 -6.81921,26.99965 -3.17195,9.75985 -10.49184,23.42364 -18.54371,32.69549 -8.05188,9.27186 -13.1758,12.9318 -13.1758,12.9318 L 125.0875,471.5535"
       style="fill:#82bae7;fill-opacity:1;fill-rule:nonzero;stroke:none;stroke-width:0.97598487"
       id="path100"
       inkscape:connector-curvature="0" /><path
       d="m 101.04997,462.81356 c 0,0 5.12392,-3.65995 13.17579,-12.9318 8.05188,-9.27186 15.37177,-22.93565 18.54372,-32.6955 3.17195,-9.75985 5.38255,-19.75783 6.8192,-27.00159 1.45032,-7.31013 4.16063,-17.40572 8.30856,-28.14155 4.14794,-10.73583 9.80963,-19.46602 13.05868,-23.85307 6.05013,-8.16607 15.00089,-16.6503 15.00089,-16.6503 l 14.08541,5.12392 c 0,0 -8.95076,8.48423 -14.99991,16.6503 -3.25003,4.38705 -8.91172,13.11724 -13.05965,23.85307 -4.14794,10.73583 -6.85825,20.83142 -8.30759,28.1435 -1.43762,7.24376 -3.64823,17.2398 -6.82018,26.99964 -3.17195,9.75985 -10.49184,23.42364 -18.54371,32.6955 -8.05188,9.27185 -13.1758,12.9318 -13.1758,12.9318 l -14.08541,-5.12392"
       style="fill:#127bca;fill-opacity:1;fill-rule:nonzero;stroke:none;stroke-width:0.97598487"
       id="path102"
       inkscape:connector-curvature="0" /><path
       d="m 77.14712,454.13998 c 0,0 5.12392,-3.65994 13.175795,-12.9318 8.051876,-9.27186 15.371765,-22.93565 18.543715,-32.69549 3.17195,-9.75985 5.38353,-19.75589 6.82018,-26.99965 1.45032,-7.31208 4.15965,-17.40767 8.30759,-28.1435 4.14793,-10.73583 9.80962,-19.46602 13.05965,-23.85209 6.04915,-8.16607 14.99991,-16.65128 14.99991,-16.65128 l 14.08639,5.12587 c 0,0 -8.95076,8.48326 -15.00089,16.64933 -3.25003,4.38803 -8.91074,13.11821 -13.05965,23.85404 -4.14696,10.73584 -6.85727,20.83142 -8.30758,28.14155 -1.43665,7.24376 -3.64726,17.24175 -6.81921,27.0016 -3.17293,9.75985 -10.49281,23.42364 -18.54371,32.69549 -8.05188,9.27186 -13.176777,12.9318 -13.176777,12.9318 L 77.14712,454.13998"
       style="fill:#127bca;fill-opacity:1;fill-rule:nonzero;stroke:none;stroke-width:0.97598487"
       id="path104"
       inkscape:connector-curvature="0" /><path
       d="m 63.002171,449.07169 c 0,0 5.123921,-3.65994 13.175796,-12.9318 8.051875,-9.27186 15.371761,-22.93564 18.543712,-32.69549 3.171951,-9.75985 5.382561,-19.75784 6.819211,-27.0016 1.45031,-7.31013 4.16062,-17.40571 8.30856,-28.14155 4.14793,-10.73583 9.80962,-19.46699 13.05868,-23.85502 6.05013,-8.16607 15.00088,-16.64835 15.00088,-16.64835 l 14.08542,5.12392 c 0,0 -8.95076,8.48228 -15.00089,16.6503 -3.24906,4.38608 -8.91074,13.11724 -13.05868,23.85307 -4.14793,10.73584 -6.85824,20.83142 -8.30856,28.14155 -1.43665,7.24376 -3.64725,17.24175 -6.8192,27.0016 -3.17196,9.75985 -10.491845,23.42363 -18.54372,32.69549 -8.051875,9.27186 -13.175795,12.9318 -13.175795,12.9318 l -14.085414,-5.12392"
       style="fill:#2056ae;fill-opacity:1;fill-rule:nonzero;stroke:none;stroke-width:0.97598487"
       id="path106"
       inkscape:connector-curvature="0" /><path
       d="m 98.813987,339.76529 c -18.252872,0 -33.049779,13.89607 -33.049779,31.04022 0,17.14318 14.796907,31.0412 33.049779,31.0412 l 0.05563,0.35233 0.599254,15.88318 c -27.829235,0 -50.389125,-21.18961 -50.389125,-47.32746 0,-25.91923 22.18804,-46.96049 49.696173,-47.31087 v -0.0322 h 27.733591 v 16.3536 H 98.813987"
       style="fill:#2056ae;fill-opacity:1;fill-rule:nonzero;stroke:none;stroke-width:0.97598487"
       id="path108"
       inkscape:connector-curvature="0" /></g></svg>