<?xml version="1.0" encoding="UTF-8" standalone="no"?>
<!-- Created with Inkscape (http://www.inkscape.org/) -->

<svg
   xmlns:dc="http://purl.org/dc/elements/1.1/"
   xmlns:cc="http://creativecommons.org/ns#"
   xmlns:rdf="http://www.w3.org/1999/02/22-rdf-syntax-ns#"
   xmlns:svg="http://www.w3.org/2000/svg"
   xmlns="http://www.w3.org/2000/svg"
   xmlns:sodipodi="http://sodipodi.sourceforge.net/DTD/sodipodi-0.dtd"
   xmlns:inkscape="http://www.inkscape.org/namespaces/inkscape"
   version="1.1"
   id="svg2"
   width="170"
   height="156"
   viewBox="0 0 170 156"
   sodipodi:docname="Emblem_of_Manno,_Kagawa.svg"
   inkscape:version="0.92.3 (2405546, 2018-03-11)">
  <metadata
     id="metadata8">
    <rdf:RDF>
      <cc:Work
         rdf:about="">
        <dc:format>image/svg+xml</dc:format>
        <dc:type
           rdf:resource="http://purl.org/dc/dcmitype/StillImage" />
        <dc:title></dc:title>
      </cc:Work>
    </rdf:RDF>
  </metadata>
  <defs
     id="defs6" />
  <sodipodi:namedview
     pagecolor="#ffffff"
     bordercolor="#666666"
     borderopacity="1"
     objecttolerance="10"
     gridtolerance="10"
     guidetolerance="10"
     inkscape:pageopacity="0"
     inkscape:pageshadow="2"
     inkscape:window-width="1920"
     inkscape:window-height="1017"
     id="namedview4"
     showgrid="false"
     inkscape:zoom="4.2789026"
     inkscape:cx="2.7033898"
     inkscape:cy="78"
     inkscape:window-x="-8"
     inkscape:window-y="-8"
     inkscape:window-maximized="1"
     inkscape:current-layer="svg2" />
  <path
     d="m 65.223544,80.456414 c -6.688098,7.875492 -10.01804,17.082483 -10.921072,27.224356 -0.874815,10.08517 0.733714,19.77373 5.333546,29.06572 -0.395062,-0.1134 -0.620838,-0.16989 -0.846594,-0.22648 C 48.545628,133.00718 39.34597,127.68129 31.4162,120.25905 23.458211,112.78016 17.532048,103.96979 14.061012,93.516322 12.31138,88.275401 11.351908,82.864547 11.154367,77.340354 10.646411,62.977469 14.907607,50.172658 23.401768,38.72768 29.751228,30.200585 37.765657,23.628244 47.106418,18.613981 54.415354,14.704554 62.147582,12.041597 70.303112,10.540166 78.797283,8.9820479 87.319661,8.7554279 95.870264,9.8035802 107.18641,11.163381 117.76884,14.676212 127.53291,20.540351 c 11.45724,6.940632 20.51582,16.232616 26.49841,28.329177 3.64034,7.337231 5.64395,15.099449 6.03903,23.286586 0.50798,11.586601 -2.11648,22.436704 -7.87332,32.465226 -6.34946,11.13335 -15.32336,19.54713 -26.3573,25.86451 -7.19607,4.10774 -14.87186,6.91233 -22.94273,8.64042 -0.87482,0.16989 -1.46743,0.50994 -2.03182,1.18984 -2.568006,3.08784 -5.643958,5.58082 -9.453639,6.99727 -6.546999,2.37966 -12.586049,1.18983 -18.08891,-2.94623 -4.882029,-3.68281 -7.986206,-8.66871 -10.187355,-14.30625 -2.624442,-6.71401 -3.471036,-13.73961 -2.991301,-20.87858 0.451519,-7.1106 2.314026,-13.88131 6.010822,-20.0004 2.285805,-3.796098 5.164228,-7.02563 8.945687,-9.376928 6.942067,-4.33438 15.408011,-3.767792 21.926801,1.529767 0.959466,0.793202 1.834287,1.671413 2.709094,2.549626 0.338651,0.311491 0.620831,0.311491 0.959481,0.113406 4.17652,-2.266377 7.6758,-5.26923 10.07448,-9.433632 4.26118,-7.393891 3.35815,-16.232605 -2.25759,-22.691648 -4.8256,-5.495885 -10.977515,-8.442123 -18.088913,-9.490312 -6.631643,-0.991501 -13.009326,-0.05649 -19.048374,2.861272 -5.333548,2.606285 -9.622958,6.430712 -11.993422,12.011543 -3.217062,7.620592 -1.636751,14.589564 3.583917,20.793642 0.677278,0.821531 1.46743,1.586425 2.257586,2.407956"
     style="fill:#0055a8;fill-opacity:1;fill-rule:evenodd;stroke:none;stroke-width:2.82744431"
     id="path2908"
     inkscape:connector-curvature="0" />
</svg>
