<?xml version="1.0" encoding="UTF-8"?><svg width="416" height="451" viewBox="42 24 416 451" xmlns="http://www.w3.org/2000/svg">
 <path xmlns="http://www.w3.org/2000/svg" d="m389.5 262.2a140 140 0 0 1 -139.5 127.8 140 140 0 0 1 -139.5 -127.8m328.8 4.4a190 190 0 0 1 -189.3 173.4 190 190 0 0 1 -189.3 -173.4m49.8-28.8a140 140 0 0 1 139.5 -127.8 140 140 0 0 1 139.5 127.8m-328.8-4.4a190 190 0 0 1 189.3 -173.4 190 190 0 0 1 189.3 173.4" stroke="#084512" stroke-width="35" fill="none"/>
 <path xmlns="http://www.w3.org/2000/svg" d="m287.5 25.7v129a102.5 102.5 0 0 1 35 22.9v-142.9a227.5 227.5 0 0 0 -35 -9zm-75 0.2a227.5 227.5 0 0 0 -35 8.7v143a102.5 102.5 0 0 1 35 -23v-128.7zm110 296.5a102.5 102.5 0 0 1 -35 23v128.7a227.5 227.5 0 0 0 35 -8.7v-143zm-145 0v142.9a227.5 227.5 0 0 0 35 9v-129a102.5 102.5 0 0 1 -35 -22.9z" fill="#084512"/>
</svg>