<?xml version="1.0" encoding="UTF-8"?><svg width="452" height="451" viewBox="23 24 452 451" xmlns="http://www.w3.org/2000/svg" xmlns:xlink="http://www.w3.org/1999/xlink">
 <clipPath xmlns="http://www.w3.org/2000/svg" id="c">
  <path d="m251.2 25a2066 2066 0 0 0 -226.2 223.8 2066 2066 0 0 0 223.8 226.2 2066 2066 0 0 0 226.2 -223.8 2066 2066 0 0 0 -223.8 -226.2z"/>
 </clipPath>
 <g xmlns="http://www.w3.org/2000/svg" xmlns:xlink="http://www.w3.org/1999/xlink" clip-path="url(#c)">
  <path id="a" d="m311.8 64.4c-21.7 23.2-49.1 42-65.3 69.7-14.9 25.6-6.1 58.9 13 80.5 11.7 13.1 23.1 30 18.8 48.6-6.2 37.2-36.5 63-61.6 88.5-18.7 18.9-58.3 56.9-77.6 75.2l16.1 16.1c35.4-33.4 94.1-84.1 123.7-122.9 16.3-21.3 27.1-53.3 11.4-77.7-9.8-15.2-26.1-25.7-29.9-45-4.5-23.2-3.2-47.7 15.5-66.1l51.7-50.8z" fill="#4bdeed"/>
  <path d="m250 2.5-247.5 247.5 140.5 140.5c31.5-28.4 64.1-55.9 91.8-88 17.7-21.7 32.7-52.4 20.7-80.4-8.8-20.7-32.5-31-35.3-55.4-2.8-24.3 5.3-48 22.6-65.21l53.1-53.1z" fill="#0cb14b"/>
  <use xlink:href="#a" x="38" y="25.6"/>
  <use xlink:href="#a" x="76" y="51.3"/>
  <use xlink:href="#a" x="114" y="76.9"/>
  <use xlink:href="#a" x="152" y="102.5"/>
  <use xlink:href="#a" x="190" y="128.2"/>
 </g>
</svg>