<?xml version="1.0" encoding="UTF-8"?><svg width="454" height="375" viewBox="23 63 454 375" xmlns="http://www.w3.org/2000/svg" xmlns:xlink="http://www.w3.org/1999/xlink">
 <path xmlns="http://www.w3.org/2000/svg" id="a" fill="#008ccf" d="m425.6 302.5c0.7 18.1-14.1 34.4-40 50.3-2 1.2-1.8 2.1 0.4 1.5 59.4-16.9 90.4-38.6 88.9-67.4-2.3-43.9-108.8-73.5-239.3-64.5-6.2 0.4-12.4 0.9-18.5 1.5-12.4 1.2-12.2 3.6-0.5 3.6 117.6 0.4 207.2 31.7 208.9 75z"/>
 <path xmlns="http://www.w3.org/2000/svg" fill="#43b149" d="m114.8 68.6c-1.6 0.1-2 2.1-2 7.4 0 210 45.5 360 137.2 360s137.2-150 137.2-360c0-5.3-0.4-7.3-2-7.4s-2.2 1.6-3.3 7.2c-26.9 139.3-66 236.3-132 236.3s-105-97-132-236.3c-1.1-5.6-1.7-7.3-3.3-7.2z"/>
 <use xmlns="http://www.w3.org/2000/svg" xmlns:xlink="http://www.w3.org/1999/xlink" xlink:href="#a" transform="rotate(180 250 296.5)"/>
 <circle xmlns="http://www.w3.org/2000/svg" fill="#ea5541" cy="127.6" cx="250" r="63.4"/>
</svg>