<?xml version="1.0" encoding="UTF-8"?><svg width="453" height="432" viewBox="23 32 453 432" xmlns="http://www.w3.org/2000/svg">
 <path xmlns="http://www.w3.org/2000/svg" d="m328.1 297.5h78.9a187.2 187.2 0 0 1 -318.8 79.4 215 215 0 1 0 -3.6 -253.5 187.2 187.2 0 0 1 327.8 142.3h-75.4zm-104.2 21.3h-92.6l21.7-76.7h28.6l-15.9 55.4h64.8l-6.6 21.3zm-53.7-137.4h28.8l-7.9 27.5h-28.7l7.8-27.5zm71.2 60.7c6.6-0.4 3.8 7.6 3.8 7.6l-4.9 16h-28.5l6.8-23.6h22.8zm-144.2 76.7h-28.7l17.4-61.2c3.8-15.6 14-15.5 14-15.5h19l-21.7 76.7zm230.6-53.1h-53.3l10.9-38.8c6.1-18-7.9-18-7.9-18h-49.4l7.8-27.5h74.8l8.9-32.6h-248.4l-8.84 32.6h73.74l-7.8 27.5h-41.9c-22.5-0.2-25 15.1-25 15.1l-36.4 127.5h225.2l15.3-54h53.4l8.9-31.8" fill="#1778c7"/>
</svg>