<?xml version="1.0" encoding="UTF-8"?><svg width="451" height="453" viewBox="25 23 451 453" xmlns="http://www.w3.org/2000/svg">
 <circle xmlns="http://www.w3.org/2000/svg" cx="148.2" cy="119.4" r="88" fill="#e0231f"/>
 <path xmlns="http://www.w3.org/2000/svg" d="m412 416.5c-113.4-9.3-243.9-44.4-243.9-117.3 0-100.5 197.3-219.1 303-274.2-54.7 15.5-142.5 52.8-230.4 101.7-5.2 61.4-67.5 100.8-125.2 79.3-58.2 43.5-88 81.2-88 114.2 0 96.3 275 100.2 384.5 96.3" fill="#00ae7a"/>
 <path xmlns="http://www.w3.org/2000/svg" d="m32.4 350.5c-3.2 8.2-4.9 16.2-4.9 24.1 0 122 330.9 98.7 389.2 98.7-73.2-5.8-145.5-20.4-184.2-56.1-78.8-6.9-176.9-26.4-200.1-66.6zm171.4 1.8c0-97.3 202-231.7 268.8-265.9-42.6 9.5-133.5 44.5-222.1 90.2-45 39.9-77.8 82.4-77.8 122.6 0 20.9 11.9 38.4 31.1 53.1z" fill="#0061a5"/>
</svg>