<?xml version="1.0" encoding="UTF-8" standalone="no"?>
<!-- Created with Inkscape (http://www.inkscape.org/) -->

<svg
   xmlns:dc="http://purl.org/dc/elements/1.1/"
   xmlns:cc="http://creativecommons.org/ns#"
   xmlns:rdf="http://www.w3.org/1999/02/22-rdf-syntax-ns#"
   xmlns:svg="http://www.w3.org/2000/svg"
   xmlns="http://www.w3.org/2000/svg"
   version="1.1"
   width="273"
   height="236"
   id="svg2"
   xml:space="preserve"><defs
     id="defs6" /><path
     d="M 213.38292,151.47805 C 223.2572,135.86892 216.19055,94.672027 201.359,77.404565 l 40.63965,-38.380737 c 27.00927,33.803712 38.84766,89.503782 24.5166,112.873532 -20.76049,33.8501 -64.43115,33.73413 -103.64745,14.01002 16.11816,3.10668 39.96825,2.21985 50.51512,-14.42933 z"
     id="path1080"
     style="fill:#0dac7d" /><path
     d="m 180.42639,144.29726 c -13.73292,0 -24.86328,-11.13647 -24.86328,-24.8645 0,-13.73107 11.13036,-24.855345 24.86328,-24.855345 13.73778,0 24.87305,11.124275 24.87305,24.855345 0,13.72803 -11.13527,24.8645 -24.87305,24.8645 z"
     id="path1082"
     style="fill:#ee2528" /><path
     d="M 138.33899,5.2811525 C 112.54553,17.625515 100.56555,48.260278 95.980587,89.047628 l 55.844723,0 c 2.13624,-21.9757 12.79785,-41.80725 28.04321,-49.097288 13.86842,-6.640625 27.94557,-1.1731 37.14234,12.4054 C 203.2157,10.69009 170.47766,-10.094823 138.33899,5.2811525 z"
     id="path1084"
     style="fill:#0dac7d" /><path
     d="m 159.54626,164.80691 c -8.12134,-6.04981 -15.93872,-11.40565 -23.4314,-16.12 6.167,-15.01281 11.11329,-31.65832 14.15894,-49.64477 l -56.030275,0 c -1.295162,9.30786 -3.165288,18.12744 -5.4602,26.40015 -66.167,-21.86401 -94.396975,20.79406 -87.3901375,69.32434 14.0551745,-35.5426 46.9238255,-45.39613 79.0502875,-45.37537 -13.294675,31.3507 -31.846925,51.25122 -42.8418,55.32409 -14.354238,5.32044 -28.01635,0.93506 -36.2084875,-9.94872 1.80175,25.59021 32.2094745,50.04455 65.4882745,37.72705 19.514163,-7.23145 47.075198,-34.75037 65.845948,-75.98267 16.05103,4.04358 26.81885,8.2959 26.81885,8.2959 z"
     id="path1086"
     style="fill:#2270c1" /><metadata
     id="metadata4439"><rdf:RDF><cc:Work
         rdf:about=""><dc:title></dc:title></cc:Work></rdf:RDF></metadata></svg>