<?xml version="1.0" encoding="UTF-8"?><svg width="367" height="453" viewBox="66 23 367 453" xmlns="http://www.w3.org/2000/svg" version="1.1">
 <path xmlns="http://www.w3.org/2000/svg" d="m341.6 135.3c-37.9 0.1-83.9 15.6-116.3 55.2a81.04 63.03 0 1 1 49.4 119.8c-27.8 50.7-91.5 116-148.2 164.8 25.3-8.6 77.4-35.2 108.3-50 111.9-53.6 148.3-86.2 173.6-127.5 37.6-61.3 25.4-119.6-11.1-147.4-12.2-9.3-32.4-14.9-55.6-14.9z" fill="#00417a"/>
 <path xmlns="http://www.w3.org/2000/svg" d="m373.5 25c-25.3 8.6-77.4 35.2-108.3 50-111.9 53.6-148.3 86.2-173.6 127.5-37.6 61.3-25.4 119.6 11.1 147.4 32 24.4 118.9 23.6 171.2-39.5a81.04 63.03 0 0 1-49.2-119.8c27.6-50.8 91.7-116.6 148.7-165.6z" fill="#009b3c"/>
 <ellipse xmlns="http://www.w3.org/2000/svg" cx="255" cy="249" rx="78" ry="60" fill="#eb612c"/>
</svg>