<?xml version="1.0" encoding="UTF-8"?><svg width="442" height="453" viewBox="28 23 442 453" xmlns="http://www.w3.org/2000/svg" version="1.1">
 <path xmlns="http://www.w3.org/2000/svg" d="m276.3 264.7h-52.9l-118.8 68.6a156.6 156.6 0 0 1 123.4-213.8v135.3h43.6v-135.3a156.6 156.6 0 0 1 126.9 204.3l38.4 22.2a200.2 200.2 0 0 0-165.3-270.4v-28.9a21.8 21.8 0 0 0-43.6 0v28.9a200.2 200.2 0 0 0-161.5 279.6l-25.07 14.47a21.8 21.8 0 0 0 21.8 37.8l25.1-14.5a200.2 200.2 0 0 0 316.8 7.9l-38.4-22.2a156.6 156.6 0 0 1-240.4-7.7l123.4-71.3 186.5 107.7a21.8 21.8 0 0 0 21.8-37.8z" fill="#000000"/>
</svg>