<?xml version="1.0" encoding="UTF-8"?><svg width="456" height="315" viewBox="22 92 456 315" xmlns="http://www.w3.org/2000/svg" version="1.1">
 <path xmlns="http://www.w3.org/2000/svg" d="m244.8 95.2v80.5h-174.4l37.2 55.7h137.3v12.4h-27.9a80.5 80.5 0 0 0-80.5 80.5 80.5 80.5 0 0 0 80.5 80.5 80.5 80.5 0 0 0 80.5-80.5v-14.7h-55.7v14.7a24.8 24.8 0 0 1-24.8 24.8 24.8 24.8 0 0 1-24.8-24.8 24.8 24.8 0 0 1 24.8-24.8h175.5l37.2-55.7h-129v-12.4h137.3l37.2-55.7h-174.4v-80.5z" fill="#47a359"/>
 <path xmlns="http://www.w3.org/2000/svg" d="m25 107.6 37.2 55.7h170.3v-55.7z" fill="#98c355"/>
</svg>