<?xml version="1.0" encoding="UTF-8"?><svg width="420" height="453" viewBox="41 23 420 453" xmlns="http://www.w3.org/2000/svg" version="1.1">
 <path xmlns="http://www.w3.org/2000/svg" d="m445.3 25c-23.2 41.3-71 61.6-139.9 92.8s-91.3 75.4-98.6 97.9c0 0 35.5-29 105.1-42.8 41.7-8.3 86.6-16.5 125.4-62.3 23.9-28.3 21.8-60.2 8-85.5zm5.7 117.9c-29.4 37.1-81.3 51.4-154.3 71.3-72.9 19.8-100.7 58.1-111.4 79.1 0 0 38.2-24.7 107.8-22.5 42.5 1.3 90.9-5.5 136.5-44.6 28.1-24.1 31-55.9 21.4-83.2z" fill="#176fc1"/>
 <path xmlns="http://www.w3.org/2000/svg" d="m309 107.9a191 191 0 1 0 50.8 320.6c-23.9 8.7-52.1-1-66.7-17.7a139.5 139.5 0 1 1-45.7-265.6c14.1-12 32-23.8 61.6-37.1zm72.5 53.5c-18.9 8.2-37.9 12.7-56.1 16.4 4 3.8 8.5 9 13.2 15.6 19.9-5.8 37.6-11.9 53.1-18.7-3.2-4.6-6.6-9.1-10.2-13.4zm3.4 178a55.4 55.4 0 0 0-100.4 36.8 41 41 0 1 1 80.9 10.2c11.6-12.4 19-28.9 19.6-47.1zm36.7-96.2c-15.1 10.9-30.2 18.7-45 24.1 9.4 25.2 15.6 50.8 14.3 70.6-3.1 49.4-30.1 73.4-63.6 75.3-20.5 1.2-29.6-4.7-29.6-4.7 19.2 18.4 65.2 28.1 96.8-15.3 20.6-28.2 31.5-64.3 31.5-109.2 0-14-1.6-27.6-4.5-40.8z" fill="#30b441"/>
</svg>