<?xml version="1.0" encoding="UTF-8" ?>
<!DOCTYPE svg PUBLIC "-//W3C//DTD SVG 1.1//EN" "http://www.w3.org/Graphics/SVG/1.1/DTD/svg11.dtd">
<svg width="350pt" height="250pt" viewBox="0 0 350 250" version="1.1" xmlns="http://www.w3.org/2000/svg">
<g id="#ffffffff">
</g>
<g id="#3eba5cff">
<path fill="#3eba5c" opacity="1.00" d=" M 222.71 5.06 C 231.60 1.97 241.90 2.34 250.25 6.86 C 262.75 13.34 270.26 28.18 267.72 42.07 C 265.57 57.06 252.16 69.37 237.06 70.29 C 223.81 71.46 210.30 63.88 204.47 51.91 C 198.97 41.46 199.73 28.17 206.22 18.33 C 210.12 12.29 215.99 7.58 222.71 5.06 Z" />
</g>
<g id="#2456a9ff">
<path fill="#2456a9" opacity="1.00" d=" M 127.95 49.05 C 147.14 45.60 167.60 50.37 183.39 61.77 C 194.74 69.98 203.45 82.16 206.47 95.93 C 226.10 95.92 245.72 95.91 265.35 95.94 C 265.43 114.89 262.65 133.81 257.54 152.04 C 255.48 164.47 254.38 177.30 256.66 189.78 C 257.96 196.41 260.74 203.55 266.91 207.07 C 274.02 210.93 283.19 209.48 289.44 204.59 C 296.76 198.94 300.95 190.29 303.89 181.74 C 308.02 169.27 309.64 156.08 309.85 142.99 C 310.02 128.46 308.30 113.81 303.69 99.99 C 302.59 97.64 305.41 94.84 307.65 96.33 C 309.39 98.16 310.13 100.69 311.17 102.94 C 323.42 132.94 326.82 166.93 318.51 198.42 C 315.08 211.12 309.70 223.87 300.07 233.14 C 292.52 240.48 281.49 244.28 271.05 242.30 C 265.38 241.28 260.31 237.74 257.11 232.98 C 252.69 226.52 250.86 218.70 249.91 211.04 C 248.21 196.75 249.75 182.33 251.88 168.17 C 245.88 184.19 237.29 199.29 226.41 212.51 C 216.30 224.72 203.50 235.40 188.10 240.04 C 166.68 246.71 142.97 241.82 124.01 230.53 C 110.72 238.27 95.50 243.49 79.98 242.99 C 64.01 242.29 48.21 234.00 39.83 220.17 C 28.87 202.29 27.11 180.16 30.40 159.83 C 35.34 128.71 52.48 100.66 74.57 78.66 C 89.22 64.25 107.42 52.51 127.95 49.05 M 164.20 77.44 C 150.69 82.12 139.15 91.18 129.40 101.45 C 119.91 111.63 111.97 123.21 105.63 135.58 C 98.14 150.46 93.48 167.32 95.64 184.05 C 97.92 202.65 108.89 219.57 124.00 230.41 C 144.87 218.38 163.76 202.70 178.87 183.91 C 193.25 166.00 203.66 144.46 206.19 121.48 C 207.44 110.33 207.22 98.33 201.70 88.26 C 198.12 81.61 191.50 76.78 184.06 75.46 C 177.41 74.47 170.53 75.15 164.20 77.44 Z" />
</g>
</svg>
