<?xml version="1.0" encoding="UTF-8" standalone="no"?>
<!-- Created with Inkscape (http://www.inkscape.org/) -->
<svg id="svg10229" xmlns:rdf="http://www.w3.org/1999/02/22-rdf-syntax-ns#" xmlns="http://www.w3.org/2000/svg" height="180" width="150" version="1.1" xmlns:cc="http://creativecommons.org/ns#" xmlns:dc="http://purl.org/dc/elements/1.1/" viewBox="0 0 150 180">
 <metadata id="metadata10234">
  <rdf:RDF>
   <cc:Work rdf:about="">
    <dc:format>image/svg+xml</dc:format>
    <dc:type rdf:resource="http://purl.org/dc/dcmitype/StillImage"/>
    <dc:title/>
   </cc:Work>
  </rdf:RDF>
 </metadata>
 <g id="layer20" transform="translate(0,-70)">
  <path id="path10791" d="m75 70a75 75 0 0 0 -75 75 75 75 0 0 0 29.99 59.9l44.135-24.94a35 35 0 0 1 -34.125 -34.96 35 35 0 0 1 35 -35 35 35 0 0 1 35 35 35 35 0 0 1 -17.799 30.432l0.0215 0.0371-17.223 9.7363-40.523 22.904-28.021 15.838 40.645 22.975 27.9-15.77 27.898 15.77 40.646-22.975-28.098-15.881a75 75 0 0 0 34.55 -63.06 75 75 0 0 0 -75 -75z" fill-rule="evenodd" fill="#3f230e"/>
 </g>
</svg>
