<svg xmlns="http://www.w3.org/2000/svg" width="397.764" height="311.279" viewBox="257.449 -47.146 397.764 311.279" xmlns:v="https://vecta.io/nano"><path fill="#0e60a5" d="M479.705 134.346l-22.714 17.28-22.706-17.28v-32.649-31.096l22.706-17.292 22.714 17.292v31.096 32.649zm-100.814 31.238h-64.104l-24.786-45.422h75.031l6.165-4.147h-84.629l-24.781-45.414h159.134v66.695l-42.03 28.288zm156.209 0h64.112l24.779-45.422h-75.033l-6.164-4.147h84.636l24.781-45.414H493.072v66.695l42.028 28.288zM447.256 3.483l9.736-22.407 9.751 22.407c38.126 3.485 70.434 27.191 86.229 60.246h48.794C582.345 2.262 524.801-42.426 456.993-42.426c-67.788 0-125.343 44.688-144.756 106.162h48.798c15.794-33.054 48.094-56.761 86.221-60.253m9.735 212.236c-35.006 0-66.025-17.076-85.431-43.266h-52.557c23.992 52.267 76.799 88.681 137.975 88.681 61.196 0 113.998-36.413 137.993-88.681h-52.56c-19.38 26.19-50.404 43.266-85.42 43.266"/></svg>