<?xml version="1.0" encoding="UTF-8" ?>
<!DOCTYPE svg PUBLIC "-//W3C//DTD SVG 1.1//EN" "http://www.w3.org/Graphics/SVG/1.1/DTD/svg11.dtd">
<svg width="326pt" height="386pt" viewBox="0 0 326 386" version="1.1" xmlns="http://www.w3.org/2000/svg">
<g id="#ffffffff">
<path fill="#ffffff" opacity="1.00" d=" M 114.80 133.49 C 130.42 125.64 145.73 117.09 159.99 106.95 C 174.32 116.99 189.62 125.54 205.19 133.48 C 175.06 133.58 144.93 133.57 114.80 133.49 Z" />
<path fill="#ffffff" opacity="1.00" d=" M 114.82 244.62 C 144.93 244.56 175.04 244.56 205.15 244.61 C 190.07 252.98 175.05 261.46 160.00 269.87 C 145.13 261.12 130.03 252.77 114.82 244.62 Z" />
</g>
<g id="#be0026ff">
<path fill="#be0026" opacity="1.00" d=" M 108.23 48.23 C 126.22 37.54 143.60 25.78 160.01 12.77 C 186.78 32.81 215.14 50.79 245.03 65.83 C 262.72 74.74 281.04 82.39 299.89 88.48 C 287.90 97.05 276.11 105.88 264.21 114.57 C 227.48 99.82 191.54 82.09 160.00 57.96 C 128.41 81.81 92.89 100.11 56.07 114.43 C 44.09 105.68 32.15 96.88 20.20 88.09 C 51.06 78.53 80.44 64.62 108.23 48.23 Z" />
<path fill="#be0026" opacity="1.00" d=" M 69.37 121.11 C 101.08 107.54 132.00 91.64 159.99 71.37 C 188.27 91.19 218.85 107.64 250.63 121.10 C 250.63 135.01 250.62 148.91 250.64 162.82 C 190.21 162.84 129.78 162.85 69.36 162.82 C 69.39 148.91 69.36 135.01 69.37 121.11 M 114.80 133.49 C 144.93 133.57 175.06 133.58 205.19 133.48 C 189.62 125.54 174.32 116.99 159.99 106.95 C 145.73 117.09 130.42 125.64 114.80 133.49 Z" />
<path fill="#be0026" opacity="1.00" d=" M 16.47 93.10 C 28.49 101.85 40.43 110.70 52.44 119.47 C 53.61 137.16 54.29 154.88 55.23 172.59 C 125.36 172.57 195.48 172.61 265.61 172.57 C 266.27 154.99 266.65 137.40 267.51 119.83 C 279.40 111.11 291.28 102.39 303.15 93.65 C 296.42 154.83 295.75 216.79 302.99 277.96 C 269.93 295.16 237.58 313.82 206.63 334.62 C 191.77 344.72 177.19 355.29 163.57 367.04 C 163.49 351.80 163.55 336.57 163.55 321.33 C 171.50 315.21 180.11 310.03 188.50 304.56 C 214.48 288.38 240.94 272.98 267.48 257.76 C 266.73 240.33 266.25 222.90 265.63 205.46 C 195.50 205.47 125.37 205.47 55.24 205.46 C 54.36 222.88 53.61 240.31 52.45 257.71 C 88.18 277.83 123.55 298.71 157.17 322.21 C 157.13 337.11 157.23 352.00 157.12 366.89 C 138.23 351.08 117.99 336.95 97.16 323.80 C 70.98 307.32 44.02 292.07 16.50 277.94 C 19.55 263.47 20.58 248.69 21.53 233.97 C 23.04 203.65 22.95 173.27 21.51 142.95 C 20.52 126.28 19.32 109.58 16.47 93.10 Z" />
<path fill="#be0026" opacity="1.00" d=" M 69.38 215.29 C 129.79 215.29 190.21 215.28 250.62 215.30 C 250.64 227.43 250.62 239.57 250.63 251.70 C 219.74 268.57 189.28 286.31 160.00 305.86 C 130.79 286.20 100.36 268.43 69.38 251.72 C 69.36 239.58 69.37 227.44 69.38 215.29 M 114.82 244.62 C 130.03 252.77 145.13 261.12 160.00 269.87 C 175.05 261.46 190.07 252.98 205.15 244.61 C 175.04 244.56 144.93 244.56 114.82 244.62 Z" />
</g>
</svg>
