<?xml version="1.0" encoding="UTF-8"?><svg width="454" height="376" viewBox="23 63 454 376" xmlns="http://www.w3.org/2000/svg" version="1.0">
 <path xmlns="http://www.w3.org/2000/svg" d="m250 64.4-16.7 91-208.4-62.9 130.2 98.7a140.6 140.6 0 0 0 21.7 224l73.1-35.7a84.4 84.4 0 0 1-27.6-164.1l-14.6 79.7a140.6 140.6 0 0 1 42.2 50.6 140.6 140.6 0 0 1 42.2-50.6l-14.6-79.7a84.4 84.4 0 0 1-11.7 162.6l-83.2 40.6a140.6 140.6 0 0 0 207.9-123.5 140.6 140.6 0 0 0-45.8-103.8l130.2-98.7-208.4 62.9z" fill="#42469f"/>
</svg>