<?xml version="1.0" encoding="UTF-8"?><svg width="441" height="299" viewBox="29 100 441 299" xmlns="http://www.w3.org/2000/svg" version="1.1">
 <path xmlns="http://www.w3.org/2000/svg" d="m145.5 150.1a64.3 31 0 0 0 0 62 64.3 31 0 0 0 0-62zm0 3.4a43.6 20.7 0 0 1 0 41.3 43.6 20.7 0 0 1 0-41.3zm163 27.6a142.4 68.9 0 0 0 0 137.8 142.4 68.9 0 0 0 0-137.8zm0 4.6a96.4 45.9 0 0 1 0 91.8 96.4 45.9 0 0 1 0-91.8z" fill="#50aed1"/>
 <path xmlns="http://www.w3.org/2000/svg" d="m250 101.3a225 148.7 0 0 0 0 297.3 225 148.7 0 0 0 0-297.3zm0 9.8a151 99.9 0 0 1 0 199.8 151 99.9 0 0 1 0-199.8z" fill="#3b69a1"/>
</svg>