<svg xmlns="http://www.w3.org/2000/svg" width="424.889" height="445.75" fill="#c21622" xmlns:v="https://vecta.io/nano"><path d="M215.976 357.875c-63.065 0-115.375-51.309-115.375-114.375s52.31-114.375 115.375-114.375c47.33 0 86.882 28.859 103.265 70.75h39.012c-6.821-23.693-19.229-45.344-36.529-63.204-27.83-28.726-65.384-44.545-105.744-44.545-83.468 0-151.375 67.907-151.375 151.375s67.905 151.374 151.373 151.374c40.36 0 77.914-15.818 105.744-44.545 17.85-18.424 30.483-40.881 37.157-65.455h-38.783c-15.831 43.104-55.946 73-104.12 73zm.565 50c-90.64 0-164.375-73.738-164.375-164.375S125.903 79.125 216.541 79.125c75.074 0 136.552 50.408 154.746 120.75h37.979c-7.839-37.184-25.7-71.217-52.189-98.56-36.979-38.169-86.889-59.19-140.532-59.19-111.04 0-201.376 90.336-201.376 201.375s90.335 199.375 201.373 199.375c46.311 0 102.556-20.021 139.532-58.189 27.022-27.893 46.063-61.75 53.646-99.811h-37.856c-17.455 71.518-79.446 123-155.323 123z"/><path d="M173.851 2.875h76l-37 246z"/></svg>