<?xml version="1.0" encoding="utf-8"?>
<!-- Generator: Adobe Illustrator 15.0.0, SVG Export Plug-In . SVG Version: 6.00 Build 0)  -->
<!DOCTYPE svg PUBLIC "-//W3C//DTD SVG 1.1//EN" "http://www.w3.org/Graphics/SVG/1.1/DTD/svg11.dtd">
<svg version="1.1" id="Laag_1" xmlns="http://www.w3.org/2000/svg" xmlns:xlink="http://www.w3.org/1999/xlink" x="0px" y="0px"
	 width="250px" height="250px" viewBox="0 0 250 250" enable-background="new 0 0 250 250" xml:space="preserve">
<polygon fill="#FC802A" points="104.313,245.921 147.749,245.921 126.031,95.363 "/>
<path fill="#FC802A" d="M93.748,7.612v26.244L17.516,4.164l7.102,29.012l69.13,23.385v11.746
	c-0.007,0.003-65.863-21.783-65.863-21.783L34.758,74.6l34.15,8.088c-20.826,16.867-34.15,42.631-34.15,71.52
	c0,36.199,20.908,67.509,51.304,82.528l16.317-22.271c-23.814-9.646-40.62-32.983-40.62-60.258
	c0-33.471,25.299-61.022,57.816-64.602V62.478V7.612H93.748z"/>
<path fill="#FC802A" d="M158.9,56.516l68.822-22.747L235,4.164l-76.1,29.641V7.612h-24.358v81.993v0.075
	c32.231,3.846,57.229,31.259,57.229,64.527c0,26.604-15.988,49.461-38.875,59.521l15.725,22.434
	c29.771-15.234,50.15-46.215,50.15-81.955c0-28.996-13.426-54.842-34.388-71.704l33.374-7.904l6.756-27.6
	c0,0-65.57,21.562-65.611,21.546V56.516H158.9z"/>
</svg>
