<svg xmlns="http://www.w3.org/2000/svg" width="200" height="200"><path d="M113.261 60.228V44.76H84.693v14.611L1.05 24.36l12.233 32.645 71.41 27.019v3.58h28.568v-2.806l73.444-27.793 12.244-32.645zm-57.122 57.988c0-13.045 5.855-24.689 15.057-32.544L51.54 76.429c-9.833 11.145-15.799 25.766-15.799 41.788 0 25.455 15.044 47.39 36.722 57.423v-23.812c-9.936-7.847-16.324-19.968-16.324-33.612zm72.666-32.545c9.201 7.855 15.057 19.5 15.057 32.544 0 13.646-6.389 25.767-16.321 33.611v23.812c21.678-10.033 36.722-31.968 36.722-57.423 0-16.021-5.967-30.644-15.8-41.789l-19.658 9.245zm-50.222 81.144c0 4.701 4.11 8.522 9.179 8.522h.012c5.065 0 9.178-3.813 9.178-8.522V95.771l-18.367 9.479-.002 61.565h0zm24.467 0c0 4.711 4.11 8.522 9.179 8.522h.01c5.066 0 9.179-3.821 9.179-8.522v-61.566l-18.366-9.479-.002 71.045h0z"/></svg>