<?xml version="1.0" encoding="UTF-8" standalone="no"?>
<!-- Created with Inkscape (http://www.inkscape.org/) -->

<svg
   xmlns:dc="http://purl.org/dc/elements/1.1/"
   xmlns:cc="http://creativecommons.org/ns#"
   xmlns:rdf="http://www.w3.org/1999/02/22-rdf-syntax-ns#"
   xmlns:svg="http://www.w3.org/2000/svg"
   xmlns="http://www.w3.org/2000/svg"
   xmlns:sodipodi="http://sodipodi.sourceforge.net/DTD/sodipodi-0.dtd"
   xmlns:inkscape="http://www.inkscape.org/namespaces/inkscape"
   width="350"
   height="314.65891"
   id="svg2"
   version="1.1"
   inkscape:version="0.48.4 r"
   sodipodi:docname="Symbol of Kuroshio Kochi.svg">
  <defs
     id="defs4" />
  <sodipodi:namedview
     id="base"
     pagecolor="#ffffff"
     bordercolor="#666666"
     borderopacity="1.0"
     inkscape:pageopacity="0.0"
     inkscape:pageshadow="2"
     inkscape:zoom="2.1057142"
     inkscape:cx="175.00001"
     inkscape:cy="157.32946"
     inkscape:document-units="px"
     inkscape:current-layer="layer1"
     showgrid="false"
     inkscape:window-width="1280"
     inkscape:window-height="961"
     inkscape:window-x="-8"
     inkscape:window-y="-8"
     inkscape:window-maximized="1"
     fit-margin-top="0"
     fit-margin-left="0"
     fit-margin-right="0"
     fit-margin-bottom="0" />
  <metadata
     id="metadata7">
    <rdf:RDF>
      <cc:Work
         rdf:about="">
        <dc:format>image/svg+xml</dc:format>
        <dc:type
           rdf:resource="http://purl.org/dc/dcmitype/StillImage" />
        <dc:title></dc:title>
      </cc:Work>
    </rdf:RDF>
  </metadata>
  <g
     inkscape:label="レイヤー 1"
     inkscape:groupmode="layer"
     id="layer1"
     transform="translate(-161.1858,-301.99151)">
    <g
       id="g3795"
       transform="matrix(1.0682212,0,0,1.0682212,-10.996285,-42.068614)">
      <path
         transform="matrix(1.1898734,0,0,1.1898734,-69.759608,-75.346903)"
         d="m 377.06422,370.25211 c 0,20.01398 -16.22455,36.23853 -36.23854,36.23853 -20.01399,0 -36.23853,-16.22455 -36.23853,-36.23853 0,-20.01399 16.22454,-36.23854 36.23853,-36.23854 20.01399,0 36.23854,16.22455 36.23854,36.23854 z"
         sodipodi:ry="36.238533"
         sodipodi:rx="36.238533"
         sodipodi:cy="370.25211"
         sodipodi:cx="340.82568"
         id="path3764"
         style="fill:#ee1d23;fill-opacity:1;stroke:none"
         sodipodi:type="arc" />
      <path
         sodipodi:nodetypes="cscssc"
         inkscape:connector-curvature="0"
         id="path3766"
         d="m 205.01167,439.51815 c 12.25326,-20.30768 57.8171,-51.66993 133.82033,4.58715 36.5993,27.09056 78.64677,61.19565 128.48255,40.29856 -4.8838,30.86431 -42.15803,58.22707 -80.98125,60.39961 -55.25046,3.09181 -100.45439,-59.83843 -125.16284,-82.87118 -17.50625,-16.31898 -35.08085,-24.94959 -56.15879,-22.41414 z"
         style="fill:#008fd5;fill-opacity:1;stroke:none" />
      <path
         sodipodi:nodetypes="csscssc"
         inkscape:connector-curvature="0"
         id="path3768"
         d="m 161.1858,471.20603 c 27.92362,-12.86534 54.06863,-2.8934 73.8452,14.29477 40.23019,34.96478 77.02642,82.28941 133.67536,82.81105 56.71513,0.52225 97.70007,-33.57141 118.89464,-71.10167 8.11924,31.59801 -25.29459,82.82477 -58.75804,101.16997 C 374.75107,628.03419 311.80106,622.80762 262.23501,573.734 228.13562,539.97338 200.75867,485.16399 161.1858,471.20603 z"
         style="fill:#23b24b;fill-opacity:1;stroke:none" />
    </g>
  </g>
</svg>
