<?xml version="1.0" encoding="UTF-8" standalone="no"?>
<!-- Created with Inkscape (http://www.inkscape.org/) -->

<svg
   xmlns:dc="http://purl.org/dc/elements/1.1/"
   xmlns:cc="http://creativecommons.org/ns#"
   xmlns:rdf="http://www.w3.org/1999/02/22-rdf-syntax-ns#"
   xmlns:svg="http://www.w3.org/2000/svg"
   xmlns="http://www.w3.org/2000/svg"
   xmlns:sodipodi="http://sodipodi.sourceforge.net/DTD/sodipodi-0.dtd"
   xmlns:inkscape="http://www.inkscape.org/namespaces/inkscape"
   width="250"
   height="260.78198"
   id="svg2"
   version="1.1"
   inkscape:version="0.48.4 r"
   sodipodi:docname="Symbol of Otsuki Kochi.svg">
  <defs
     id="defs4" />
  <sodipodi:namedview
     id="base"
     pagecolor="#ffffff"
     bordercolor="#666666"
     borderopacity="1.0"
     inkscape:pageopacity="0.0"
     inkscape:pageshadow="2"
     inkscape:zoom="2.8376194"
     inkscape:cx="125"
     inkscape:cy="130.39099"
     inkscape:document-units="px"
     inkscape:current-layer="layer1"
     showgrid="false"
     inkscape:window-width="1280"
     inkscape:window-height="961"
     inkscape:window-x="-8"
     inkscape:window-y="-8"
     inkscape:window-maximized="1"
     inkscape:snap-grids="true"
     fit-margin-top="0"
     fit-margin-left="0"
     fit-margin-right="0"
     fit-margin-bottom="0">
    <inkscape:grid
       type="xygrid"
       id="grid3793"
       empspacing="5"
       visible="true"
       enabled="true"
       snapvisiblegridlinesonly="true"
       originx="-86.4375px"
       originy="-458.98718px" />
  </sodipodi:namedview>
  <metadata
     id="metadata7">
    <rdf:RDF>
      <cc:Work
         rdf:about="">
        <dc:format>image/svg+xml</dc:format>
        <dc:type
           rdf:resource="http://purl.org/dc/dcmitype/StillImage" />
        <dc:title></dc:title>
      </cc:Work>
    </rdf:RDF>
  </metadata>
  <g
     inkscape:label="レイヤー 1"
     inkscape:groupmode="layer"
     id="layer1"
     transform="translate(-86.4375,-332.59303)">
    <path
       style="fill:#000000;fill-opacity:1;stroke:none"
       d="m 202.44049,332.62533 c -64.85885,4.56 -116.00299,58.62271 -116.00299,124.64946 0,45.74623 24.56556,85.75006 61.2264,107.54347 l -12.52571,28.55674 68.79791,0 7.47803,-10.46925 7.47803,10.46925 68.79791,0 -12.52571,-28.55674 c 36.67469,-21.79341 61.27314,-61.79724 61.27314,-107.54347 0,-65.99499 -51.15947,-119.75147 -115.95625,-124.64946 -4.22043,-0.31902 -3.76467,1.82084 -0.0935,2.19667 43.665,4.4702 77.77155,41.33468 77.77155,86.18433 0,35.30811 -21.12421,65.68477 -51.41148,79.22042 l -35.33371,-80.34212 -35.33371,80.34212 c -30.26539,-13.53918 -51.36474,-43.91851 -51.36474,-79.22042 0,-44.86295 34.01503,-82.09797 77.72481,-86.23107 3.94564,-0.37309 3.79569,-2.41678 0,-2.14993 z"
       id="path3814"
       inkscape:connector-curvature="0" />
  </g>
</svg>
