<svg xmlns="http://www.w3.org/2000/svg" width="250" height="250" fill="#063"><path d="M124.999 234.799c-27.696 0-53.028-10.313-72.364-27.296H35.539c22.262 24.122 54.125 39.257 89.46 39.257s67.198-15.135 89.461-39.257h-16.532c-19.568 17.012-45.156 27.296-72.929 27.296zM3.24 125.001c0 23.663 6.793 45.769 18.521 64.479l4.708-16.065c-7.21-14.613-11.269-31.046-11.269-48.413C15.2 81 41.221 42.967 78.68 25.466l5.234-15.084C36.932 27.273 3.24 72.273 3.24 125.001zM124.999 15.202c6.523 0 12.927.542 19.16 1.584l5.833-10.961c-8.069-1.69-16.428-2.584-24.993-2.584-7.188 0-14.229.631-21.079 1.832l4.641 11.361a110.16 110.16 0 0 1 16.438-1.232zm46.211-2.844l4.521 14.655c35.453 17.672 59.987 53.704 59.987 97.988 0 15.886-3.414 30.945-9.525 44.535l5.458 14.154a121.01 121.01 0 0 0 15.108-58.689c0-50.789-31.261-94.406-75.549-112.643zM28.85 197.229h68.394L63.047 99.93zm79.435 0h52.444L94.789 8.608 68.721 83.75zm64.1 0h52.445L158.276 8.608 131.9 82.83z"/></svg>