<?xml version="1.0" encoding="UTF-8" standalone="no"?>
<!-- Created with Inkscape (http://www.inkscape.org/) -->

<svg
   xmlns:dc="http://purl.org/dc/elements/1.1/"
   xmlns:cc="http://creativecommons.org/ns#"
   xmlns:rdf="http://www.w3.org/1999/02/22-rdf-syntax-ns#"
   xmlns:svg="http://www.w3.org/2000/svg"
   xmlns="http://www.w3.org/2000/svg"
   xmlns:sodipodi="http://sodipodi.sourceforge.net/DTD/sodipodi-0.dtd"
   xmlns:inkscape="http://www.inkscape.org/namespaces/inkscape"
   version="1.0"
   width="367"
   height="367"
   id="svg2"
   inkscape:version="0.48.1 "
   sodipodi:docname="Flag_of_Kitakyushu,_Fukuoka.svg">
  <metadata
     id="metadata8">
    <rdf:RDF>
      <cc:Work
         rdf:about="">
        <dc:format>image/svg+xml</dc:format>
        <dc:type
           rdf:resource="http://purl.org/dc/dcmitype/StillImage" />
        <dc:title></dc:title>
      </cc:Work>
    </rdf:RDF>
  </metadata>
  <sodipodi:namedview
     pagecolor="#ffffff"
     bordercolor="#666666"
     borderopacity="1"
     objecttolerance="10"
     gridtolerance="10"
     guidetolerance="10"
     inkscape:pageopacity="0"
     inkscape:pageshadow="2"
     inkscape:window-width="1024"
     inkscape:window-height="716"
     id="namedview6"
     showgrid="false"
     inkscape:zoom="0.435"
     inkscape:cx="450"
     inkscape:cy="300"
     inkscape:window-x="-8"
     inkscape:window-y="-8"
     inkscape:window-maximized="1"
     inkscape:current-layer="svg2" />
  <defs
     id="defs5" />
  <path
     inkscape:connector-curvature="0"
     style="fill:#000000;fill-opacity:1;stroke:none"
     d="m 184,4.46875 c -42.87524,0 -77.99393,31.57119 -84.3125,72.6875 -4.47495,-0.72184 -9.5099,-0.6875 -14.1875,-0.6875 -47.334,0 -85.5,37.29101 -85.5,84.625 0,33.2719 19.2827,62.03559 47,76.25 -6.1914,11.85307 -9.9375,25.45946 -9.9375,39.75 0,47.334 38.1035,85.43752 85.4375,85.4375 23.60341,0 45.11427,-9.99019 60.625,-25.4375 15.51073,15.44731 36.77159,25.37501 60.375,25.375 47.334,0 85.375,-38.04099 85.375,-85.375 0,-14.14169 -3.49113,-27.36199 -9.5625,-39.125 C 347.46179,223.90197 367,194.68324 367,161.09375 c 0,-47.334 -38.166,-85.50001 -85.5,-85.5 -4.34156,0 -9.36251,0.84513 -13.53125,1.46875 C 261.58375,36.02316 226.82053,4.46875 184,4.46875 z"
     id="path3757" />
  <path
     inkscape:connector-curvature="0"
     style="fill:#ffffff;fill-opacity:1;stroke:none"
     d="m 184,25.59375 c 35.328,-10e-6 64,28.672 64,64 0,6.54418 -0.98474,12.86505 -2.8125,18.8125 10.31961,-7.12764 22.83063,-11.3125 36.3125,-11.3125 35.328,-1e-5 64,28.672 64,64 0,35.32801 -28.672,64 -64,64 -0.25244,0 -0.49825,-0.0283 -0.75,-0.0312 16.1923,11.61685 26.75,30.59667 26.75,52.03125 0,35.32801 -28.672,64 -64,64 -28.01792,1e-5 -51.83719,-18.03923 -60.5,-43.125 -8.66281,25.08578 -32.48208,43.125 -60.5,43.125 -35.328,1e-5 -64,-28.672 -64,-64 0,-21.42805 10.56606,-40.38221 26.75,-52 -35.21224,-0.13599 -63.75,-28.75604 -63.75,-64 0,-35.32799 28.672,-64 64,-64 14.06196,0 27.06055,4.55307 37.625,12.25 -2.01907,-6.22204 -3.125,-12.85783 -3.125,-19.75 0,-35.328 28.672,-64 64,-64 z"
     id="path3755" />
  <path
     inkscape:connector-curvature="0"
     style="fill:#000000;fill-opacity:1;stroke:none"
     d="m 170,88.46875 -13.90625,68.5625 -68.28125,-8 -8.34375,25.65625 60.46875,32.875 -29.125,63.40625 21.84375,15.875 47.3125,-45.875 0,-34.5 7.03125,0 0,34.1875 47.625,45.1875 21.84375,-15.875 -29.125,-63.40625 60.46875,-32.875 -8.34375,-25.65625 L 209.75,156.1875 197,88.46875 l -10,0 0,72 -7.03125,0 0,-72 -9.96875,0 z"
     id="rect2431" />
</svg>
