<?xml version="1.0" encoding="utf-8" standalone="no"?>
<svg xmlns:svg="http://www.w3.org/2000/svg" xmlns="http://www.w3.org/2000/svg" xmlns:xlink="http://www.w3.org/1999/xlink" version="1.1" width="500" height="500" viewBox="-250 -250 500 500">
	<title>Kurume Fukuoka chapter</title>
	<path d="M -250,-250 h 500 v 500 h -500 v -500 z" style="fill:white;stroke:none" />
	<g id="R01" style="fill:black;stroke:none">
		<path d="M 9,-199.8125 9,-149.71875 34,-146.125 34,-166.59375 A 170,170 0 0 1 102.25,-135.8125 L 121.5625,-158.84375 A 200,200 0 0 0 9,-199.8125 z" />
		<path d="M 9,-239.8125 9,-209.8125 A 210,210 0 0 1 127.96875,-166.46875 L 147.28125,-189.5 A 240,240 0 0 0 9,-239.8125 z" />
	</g>
	<use xlink:href="#R01" transform="rotate(40)" />
	<use xlink:href="#R01" transform="rotate(80)" />
	<use xlink:href="#R01" transform="rotate(120)" />
	<use xlink:href="#R01" transform="rotate(160)" />
	<use xlink:href="#R01" transform="rotate(200)" />
	<use xlink:href="#R01" transform="rotate(240)" />
	<use xlink:href="#R01" transform="rotate(280)" />
	<use xlink:href="#R01" transform="rotate(320)" />
	<path d="M -13,-126 -13,-23 A 10,10 0 0 1 -23,-13 L -126,-13 -126,13 -23,13 A 10,10 0 0 1 -13,23 L -13,126 13,126 13,23 A 10,10 0 0 1 23,13 L 126,13 126,-13 23,-13 A 10,10 0 0 1 13,-23 L 13,-126 -13,-126 z" style="fill:black;stroke:none" />
	<circle cx="68" cy="-68" r="30" id="C01" style="fill:black;stroke:none" />
	<use xlink:href="#C01" transform="rotate(90)" />
	<use xlink:href="#C01" transform="rotate(180)" />
	<use xlink:href="#C01" transform="rotate(270)" />
</svg>