<?xml version="1.0" encoding="UTF-8" standalone="no"?>
<!-- Created with Inkscape (http://www.inkscape.org/) -->

<svg
   version="1.0"
   width="361"
   height="361"
   id="svg2"
   sodipodi:docname="Emblem of Kasuga, Fukuoka.svg"
   inkscape:version="1.1 (c68e22c387, 2021-05-23)"
   xmlns:inkscape="http://www.inkscape.org/namespaces/inkscape"
   xmlns:sodipodi="http://sodipodi.sourceforge.net/DTD/sodipodi-0.dtd"
   xmlns="http://www.w3.org/2000/svg"
   xmlns:svg="http://www.w3.org/2000/svg">
  <sodipodi:namedview
     id="namedview6"
     pagecolor="#ffffff"
     bordercolor="#666666"
     borderopacity="1.0"
     inkscape:pageshadow="2"
     inkscape:pageopacity="0.0"
     inkscape:pagecheckerboard="true"
     showgrid="false"
     inkscape:zoom="0.82539683"
     inkscape:cx="156.89423"
     inkscape:cy="103.58654"
     inkscape:window-width="1366"
     inkscape:window-height="705"
     inkscape:window-x="-8"
     inkscape:window-y="-8"
     inkscape:window-maximized="1"
     inkscape:current-layer="svg2" />
  <defs
     id="defs5" />
  <path
     d="m 180.6,0.6 c -99.36,0 -179.99999,80.64 -180,180 0,99.36 80.64,180 180,180 99.36,0 180,-80.64 180,-180 0,-99.36 -80.64,-180 -180,-180 z m 0,3 c 97.704,0 177,79.296 177,177 0,97.70399 -79.296,177 -177,177 -97.704,-1e-5 -177,-79.296 -177,-177 0,-97.704 79.296,-177 177,-177 z m 0,18.5 C 112.82596,22.1 54.96636,64.72664 32.31875,124.6 h 122.9375 L 143.1,147.6 H 56.9125 c -1.89552,7.11341 -3.20097,14.45763 -3.84375,22 H 131.475 l -12.15625,23 H 53.1625 c 0.70218,7.54463 2.04403,14.89168 4,22 H 107.725 L 96.1,236.6 H 32.31875 c 22.64761,59.87336 80.50721,102.50001 148.28125,102.5 67.77404,0 125.63364,-42.62664 148.28125,-102.5 H 265.1 l -11.625,-22 h 50.5625 c 1.95597,-7.10832 3.29782,-14.45537 4,-22 h -66.15625 l -12.15625,-23 h 78.40625 c -0.64278,-7.54237 -1.94823,-14.88659 -3.84375,-22 H 218.1 l -12.15625,-23 h 122.9375 C 306.23364,64.72664 248.37404,22.1 180.6,22.1 Z m 0,22 c 46.35117,0 87.32398,23.14827 112,58.5 H 194.31875 L 180.6,76.6 l -13.71875,26 H 68.6 c 24.67602,-35.35173 65.64883,-58.5 112,-58.5 z m 0,80.5 59.15625,112 11.625,22 H 292.6 c -24.67602,35.35173 -65.64883,58.5 -112,58.5 -46.35117,0 -87.32398,-23.14827 -112,-58.5 h 41.21875 z m 0,47 -52.8125,100 h 105.625 z"
     id="path2384"
     style="fill:#007524;fill-opacity:1;stroke:none" />
</svg>
