<?xml version="1.0" encoding="UTF-8" standalone="no"?>
<!-- Created with Inkscape (http://www.inkscape.org/) -->

<svg
   xmlns:dc="http://purl.org/dc/elements/1.1/"
   xmlns:cc="http://creativecommons.org/ns#"
   xmlns:rdf="http://www.w3.org/1999/02/22-rdf-syntax-ns#"
   xmlns:svg="http://www.w3.org/2000/svg"
   xmlns="http://www.w3.org/2000/svg"
   xmlns:sodipodi="http://sodipodi.sourceforge.net/DTD/sodipodi-0.dtd"
   xmlns:inkscape="http://www.inkscape.org/namespaces/inkscape"
   width="250"
   height="273.75214"
   id="svg2"
   version="1.1"
   inkscape:version="0.48.4 r"
   sodipodi:docname="Symbol of Koga Fukuoka.svg">
  <defs
     id="defs4" />
  <sodipodi:namedview
     id="base"
     pagecolor="#ffffff"
     bordercolor="#666666"
     borderopacity="1.0"
     inkscape:pageopacity="0.0"
     inkscape:pageshadow="2"
     inkscape:zoom="0.68053812"
     inkscape:cx="-122.72927"
     inkscape:cy="-62.30635"
     inkscape:document-units="px"
     inkscape:current-layer="layer1"
     showgrid="false"
     inkscape:window-width="1280"
     inkscape:window-height="961"
     inkscape:window-x="-8"
     inkscape:window-y="-8"
     inkscape:window-maximized="1"
     inkscape:object-paths="false"
     fit-margin-top="0"
     fit-margin-left="0"
     fit-margin-right="0"
     fit-margin-bottom="0" />
  <metadata
     id="metadata7">
    <rdf:RDF>
      <cc:Work
         rdf:about="">
        <dc:format>image/svg+xml</dc:format>
        <dc:type
           rdf:resource="http://purl.org/dc/dcmitype/StillImage" />
        <dc:title></dc:title>
      </cc:Work>
    </rdf:RDF>
  </metadata>
  <g
     inkscape:label="レイヤー 1"
     inkscape:groupmode="layer"
     id="layer1"
     transform="translate(-79.241299,-73.582489)">
    <g
       id="g3810"
       style="fill:#000000"
       transform="matrix(1.4342058,0,0,1.4342058,-34.060959,-977.92966)">
      <path
         inkscape:connector-curvature="0"
         id="path3805"
         d="m 166.71875,733.16685 c -42.13924,0 -77.545862,28.76719 -87.71875,67.71875 l 34.375,24.28125 c 6.61463,-48.15103 62.54594,-71.33388 96.28125,-27.46875 l -63.3125,48.59375 c 8.0219,8.63554 22.88924,12.3374 35.96875,2.90625 l 71,-52.375 c -11.50086,-36.87668 -45.92954,-63.65625 -86.59375,-63.65625 z"
         style="fill:#000000;fill-opacity:1;stroke:none" />
      <path
         inkscape:connector-curvature="0"
         style="fill:#000000;fill-opacity:1;stroke:none"
         d="m 165.59375,924.04053 c 42.13924,0 77.54586,-28.76719 87.71875,-67.71875 l -34.375,-24.28125 c -6.61463,48.15103 -62.54594,71.33388 -96.28125,27.46875 l 63.3125,-48.59375 C 177.94685,802.27999 163.07951,798.57813 150,808.00928 l -71,52.375 c 11.50086,36.87668 45.92954,63.65625 86.59375,63.65625 z"
         id="path3808" />
    </g>
  </g>
</svg>
