<?xml version="1.0" encoding="UTF-8"?><svg width="451" height="375" viewBox="24 62 451 375" xmlns="http://www.w3.org/2000/svg" version="1.1">
 <path xmlns="http://www.w3.org/2000/svg" d="m250 62.5-67.8 90.3c-63.7 25.9-131.3 80.6-157.2 134.7h75c10.1-13.7 23.2-25.5 37.5-35.5a75 75 0 0 0 134.6 43.5c-24.1 37.9-71.1 67.1-99.9 38.3l77.8 103.7 90-119.9 0 0a112.5 112.5 0 0 0 22.5-65.5c14.4 10 27.4 21.8 37.5 35.5h75c-26-54-93.5-108.8-157.2-134.7l-67.8-90.3zm0 150a37.5 37.5 0 0 1 0 75 37.5 37.5 0 0 1 0-75z" fill="#255eb8"/>
</svg>