<?xml version="1.0" encoding="UTF-8"?><svg width="455" height="364" viewBox="22 67 455 364" xmlns="http://www.w3.org/2000/svg" version="1.1">
 <path xmlns="http://www.w3.org/2000/svg" d="m475 81.8h-74.3c-13.1 0-22.2 16.5-22.2 16.5a177.9 177.9 0 0 0-79.2-25.6v76.1a92 92 0 0 1 41.7 10l-50.8 82.1h86.3l12.6-20.3a92 92 0 0 1-89.8 112.4v94.4a177.9 177.9 0 0 0 133.5-277.4zm-184.7 250.8a92 92 0 0 1-83.1-91.7h-99.2a177.9 177.9 0 0 0 182.3 187zm-181.6-100.7h99a92 92 0 0 1 51.9-74h-189.7zm-83.7-159.7h265.3v76.7h-225.1z" fill="#214395"/>
</svg>