<svg xmlns="http://www.w3.org/2000/svg" width="570.768" height="564" xmlns:v="https://vecta.io/nano"><path fill="#054923" d="M0 0h570.768v564H0z"/><g fill="#ffd004"><circle cx="122.705" cy="191.833" r="42.167"/><circle cx="187.504" cy="119.717" r="38.542"/><path d="M287.018 56.667c-9.067 0-16.722 1.206-25.506 2.169-3.442.207-1.992 2.825-.603 3.016 2.673.368 45.325 3.554 58.114 5.642 89.932 14.682 164.92 90.67 164.92 194.029s-72.975 193.675-166.368 193.149c-119.12-.672-165.62-85.922-164.903-186.009H52.755a230.9 230.9 0 0 0-.716 18.128c0 125.209 104.099 230.125 234.979 230.125s236.979-103.03 236.979-230.125S417.898 56.667 287.018 56.667z"/></g></svg>