<svg xmlns="http://www.w3.org/2000/svg" width="400" height="340"><path d="M395.9 39.9s-47-42-110-35c-33 3.7-57.4 13.8-78.8 31.7 35.1 1.6 67.2 14.9 92.3 36.1 42.6-28.9 96.5-32.8 96.5-32.8zM206 45.5c-8.2-7.7-17.5-15-28.1-21.7-16.8-10.6-36.7-16.3-60.8-18.9-63-7-113 39-113 39s59 6.3 104 34.1c-32.5 26.5-53.3 66.8-53.4 112 24.2 38.4 66.9 63.9 115.6 63.9 2.8 0 5.5-.1 8.2-.2-26.4-8.8-45.4-33.7-45.4-63.1 0-23.6 12.2-44.2 30.7-56.1 21.7 30.2 31.3 55.7 37.1 81.4 10.8-40.9 20.7-60.7 36.3-80.3 17.5 12 29 32.1 29 54.9 0 30.2-20.1 55.6-47.6 63.8-15.1 5.3-31.3 8.2-48.3 8.2-46.7 0-88.2-22-114.7-56.2C63.4 279 125 335.6 199.8 335.6c80.1 0 145.1-65 145.1-145.1 0-78.1-61.7-141.7-138.9-145h0z"/></svg>