<?xml version="1.0" encoding="UTF-8" standalone="no"?>
<!-- Generator: Adobe Illustrator 18.0.0, SVG Export Plug-In . SVG Version: 6.00 Build 0)  -->

<svg
   xmlns:dc="http://purl.org/dc/elements/1.1/"
   xmlns:cc="http://creativecommons.org/ns#"
   xmlns:rdf="http://www.w3.org/1999/02/22-rdf-syntax-ns#"
   xmlns:svg="http://www.w3.org/2000/svg"
   xmlns="http://www.w3.org/2000/svg"
   xmlns:sodipodi="http://sodipodi.sourceforge.net/DTD/sodipodi-0.dtd"
   xmlns:inkscape="http://www.inkscape.org/namespaces/inkscape"
   version="1.1"
   id="Layer_2"
   x="0px"
   y="0px"
   viewBox="0 0 102 93"
   style="enable-background:new 0 0 102 93;"
   xml:space="preserve"
   sodipodi:docname="Emblem of Hisayama, Fukuoka.svg"
   inkscape:version="0.92.3 (2405546, 2018-03-11)"><defs
   id="defs15" /><sodipodi:namedview
   pagecolor="#ffffff"
   bordercolor="#666666"
   borderopacity="1"
   objecttolerance="10"
   gridtolerance="10"
   guidetolerance="10"
   inkscape:pageopacity="0"
   inkscape:pageshadow="2"
   inkscape:window-width="741"
   inkscape:window-height="480"
   id="namedview13"
   showgrid="false"
   inkscape:zoom="2.5376344"
   inkscape:cx="1.9385593"
   inkscape:cy="46.5"
   inkscape:window-x="0"
   inkscape:window-y="0"
   inkscape:window-maximized="0"
   inkscape:current-layer="g8" />
<style
   type="text/css"
   id="style2">
	.st0{fill:#0182CD;}
</style>
<g
   id="g8">
	<circle
   class="st0"
   cx="39.5"
   cy="44"
   r="17.4"
   id="circle4"
   style="fill:#0182cd;stroke:none" />
	<path
   class="st0"
   d="m 92.2,27.5 c -9.9,0 -24.1,0 -30.8,0 4,4.2 6.5,9.9 6.5,16.2 0,13 -10.5,23.5 -23.5,23.5 -13,0 -23.5,-10.5 -23.5,-23.4 0,-9.4 5.3,-37.2 37.7,-37.2 11.5,0 20,5.1 26,9.5 C 76.3,6.9 64.3,1.1 51,1.1 25.9,1.1 5.6,21.4 5.6,46.5 c 0,25.1 20.3,45.4 45.4,45.4 25.1,0 45.4,-20.3 45.4,-45.4 0,-6.8 -1.5,-13.2 -4.2,-19 z"
   id="path6"
   inkscape:connector-curvature="0"
   style="fill:#0182cd;stroke:none" />
</g>
<metadata
   id="metadata10"><rdf:RDF><cc:Work><dc:format>image/svg+xml</dc:format><dc:type
         rdf:resource="http://purl.org/dc/dcmitype/StillImage" /><cc:license
         rdf:resource="http://creativecommons.org/licenses/publicdomain/" /><dc:publisher><cc:Agent
           rdf:about="http://openclipart.org/"><dc:title>Openclipart</dc:title></cc:Agent></dc:publisher></cc:Work><cc:License
       rdf:about="http://creativecommons.org/licenses/publicdomain/"><cc:permits
         rdf:resource="http://creativecommons.org/ns#Reproduction" /><cc:permits
         rdf:resource="http://creativecommons.org/ns#Distribution" /><cc:permits
         rdf:resource="http://creativecommons.org/ns#DerivativeWorks" /></cc:License></rdf:RDF></metadata></svg>