<svg xmlns="http://www.w3.org/2000/svg" width="200" height="200"><path d="M66.391 129.689l34.016-19.67 21.448 12.049-20.556 13.113-7.176-5.139 13.378-7.441-7.095-4.254-20.016 12.405s6.557 10.277 21.441 9.568 22.149-10.277 26.934-14.354l5.848 4.43s-10.024 16.621-34.612 16.658c-21.384.032-33.61-17.365-33.61-17.365zm30.005-98.228h8.152l5.375-15.948L100 2.46l-9.746 12.817zm61.86 91.043l-39.405-21.395h42.917a61.93 61.93 0 0 0-.745-8.863h-56.888v-5.794h55.686c-5.657-21.86-23.018-39.052-44.964-44.492l-1.977 6.089c16.266 3.89 29.762 14.97 36.935 29.687h-45.68v-37.12l-8.86.018v37.102H50.186c7.29-14.958 20.878-25.746 37.5-29.461l-1.385-6.591C63.809 46.797 45.937 64.209 40.18 86.452h55.095v5.794H38.977c-.457 2.893-.704 5.854-.744 8.863h45.219l-41.783 21.18c7.912 22.6 28.605 39.246 53.371 41.225v-6.412c-19.341-1.727-35.846-13.432-44.328-29.92L101.3 101.11l47.927 26.195c-8.362 16.154-24.434 27.701-43.319 29.713v6.402c24.265-2.315 44.483-18.713 52.348-40.916zM4.261 101.928c0 51.127 40.284 93.021 90.778 95.611v-7.102c-46.584-2.584-83.69-41.293-83.69-88.51 0-38.502 24.674-71.343 59.037-83.559l3.22 9.943c-30.173 10.851-51.809 39.752-51.809 73.616 0 41.455 32.424 75.473 73.242 78.041v-7.102c-36.907-2.557-66.154-33.395-66.154-70.939 0-33.849 23.771-62.247 55.496-69.384L79.038 8.506C36.297 18.09 4.261 56.335 4.261 101.928zM121.29 8.578l-4.462 24.251c31.118 7.58 54.287 35.682 54.287 69.099 0 37.225-28.749 67.855-65.209 70.867v7.113c40.373-3.029 72.297-36.846 72.297-77.98 0-33.285-20.903-61.774-50.271-73.043l2.148-10.351c34.12 12.346 58.57 45.066 58.57 83.394 0 46.896-36.606 85.398-82.745 88.449v7.102c50.05-3.061 89.833-44.744 89.833-95.551.001-45.476-31.87-83.644-74.448-93.35z"/></svg>