<svg xmlns="http://www.w3.org/2000/svg" width="670.466" height="428.979" xmlns:v="https://vecta.io/nano"><path fill="#1062c5" d="M455.068 252.655l40 86.668c192-103.334 170.333-280.334 170.333-280.334s-63.146-14.084-113.045-10.24c-93.058 7.168-150.025 48.891-170.896 67.244L335.735 5.989 289.56 116.44c-20.436-18.136-77.577-60.557-171.42-67.691-45.07-3.427-113.045 8.24-113.045 8.24s-22.025 181 170.333 281.334l40-85.668s-82.667-49.332-94.667-105.333c0 0 70.801 5.022 131.089 59.319l-90.447 216.348h115.459l58.875-135.666 57.594 135.666h115.738l-90.064-216.674c60.211-53.994 130.732-58.993 130.732-58.993-12.001 56-94.669 105.333-94.669 105.333z"/></svg>