<svg xmlns="http://www.w3.org/2000/svg" width="400" height="400"><path d="M41 190.6s42.3 6.7 74.8 61.8c38.2 64.7 7.1 129.3 7 129.6 9.7 4 22 8.2 32.3 10.7 2-4.3 38-92.1-16.2-169.5-37.4-53.5-92.2-68-92.2-68S64.5 92.8 112 64l21.8 41 31.8-21.8-32.2-71C133.2 12.3 4.4 54 1.8 198-.5 327.2 111.4 378.1 111.4 378.1l7.4-38c.1.1-87.8-50-77.8-149.6zm179.2 206.6V2.8c-6.7-.7-13.4-1-20.2-1s-13.6.4-20.2 1v394.4c6.7.7 13.5 1 20.2 1 6.8 0 13.6-.4 20.2-1h0zm178-199.2C395.8 68.5 291.4 21.7 270.4 13.6l-35 73.1 31 18.3 21.8-41c59.2 42.6 65.3 91.4 65.3 91.4s-54.8 14.4-92.2 68c-54.1 77.4-18 165.1-16.1 169.5 10.4-2.5 22.8-6.2 32.4-10.3-.3-.7-31.3-65.6 6.7-130.1 32.6-55.1 74.8-61.8 74.8-61.8 10 99.6-78 149.7-78 149.7l7.4 38s112-51 109.7-180.2z" fill="#0f6923"/></svg>