<?xml version="1.0" encoding="utf-8"?>
<!-- Generator: Adobe Illustrator 15.0.0, SVG Export Plug-In . SVG Version: 6.00 Build 0)  -->
<!DOCTYPE svg PUBLIC "-//W3C//DTD SVG 1.1//EN" "http://www.w3.org/Graphics/SVG/1.1/DTD/svg11.dtd">
<svg version="1.1" id="Laag_1" xmlns="http://www.w3.org/2000/svg" xmlns:xlink="http://www.w3.org/1999/xlink" x="0px" y="0px"
	 width="250px" height="250px" viewBox="0 0 250 250" enable-background="new 0 0 250 250" xml:space="preserve">
<path fill="#26A53A" d="M224.847,13.887h-64.309c-18.063,16.282-35.814,49.359-35.814,49.359
	c-9.029-24.68-33.557-49.359-33.557-49.359H24.67c0,0,91.741,66.086,100.054,160.906C124.724,174.793,128.521,90.372,224.847,13.887
	z"/>
<path fill="#26A53A" d="M199.862,128.976c-1.369-20.615-8.323-38.393-21.661-51.414c-1.646-1.605-3.354-3.113-5.125-4.533
	c-2.312,2.879-4.78,5.992-7.396,9.332c13.319,10.641,21.78,27.162,23.125,47.402c1.078,16.24-5.242,32.969-17.342,45.898
	c-12.137,12.972-28.637,20.408-45.27,20.408c-17.787,0-35.096-7.397-47.489-20.301c-12.026-12.519-18.269-28.912-17.575-46.162
	c0.777-19.366,9.521-35.783,23.321-46.59c-2.603-3.326-5.06-6.422-7.361-9.291c-1.504,1.176-6.358,6.379-7.295,7.344
	c-12.435,12.804-18.985,29.289-19.739,48.06c-0.822,20.519,6.594,39.19,20.887,54.067c14.625,15.224,34.242,23.955,55.253,23.955
	c19.913,0,38.762-8.813,53.14-24.178C193.677,167.647,201.158,148.488,199.862,128.976z"/>
<path fill="#26A53A" d="M216.915,128.21c-1.911-28.77-14.064-52.752-32.921-68.492c-2.297,2.732-4.854,5.821-7.672,9.29
	c16.437,13.765,27.04,34.776,28.715,59.991c1.354,20.398-6.571,41.4-21.748,57.62c-15.224,16.267-35.931,25.597-56.815,25.597
	c-22.303,0-44.004-9.277-59.543-25.451c-15.088-15.705-22.92-36.274-22.051-57.921c0.969-24.178,11.939-45.096,29.021-59.067
	c-2.793-3.439-5.332-6.512-7.616-9.234c-19.597,16.036-32.185,40.057-33.3,67.824c-1,24.912,8.006,48.582,25.361,66.646
	c17.771,18.498,42.602,29.106,68.125,29.106c24.168,0,48.043-10.703,65.51-29.367C209.399,176.138,218.487,151.885,216.915,128.21z"
	/>
<path fill="#26A53A" d="M234.833,127.532c-2.271-34.172-16.803-62.5-39.09-81.317c-1.876,2.055-4.448,4.938-8.063,9.158
	c19.957,16.772,32.828,42.325,34.864,72.974c1.653,24.885-8.006,50.492-26.501,70.258c-18.551,19.824-43.799,31.193-69.27,31.193
	c-27.172,0-53.612-11.302-72.543-31.008c-18.393-19.145-27.938-44.219-26.879-70.604c1.183-29.434,14.522-54.905,35.301-71.934
	c-3.533-4.131-6.26-7.194-8.178-9.305C31.267,66.11,16.372,94.687,15.048,127.692c-1.193,29.766,9.567,58.046,30.305,79.629
	c21.239,22.11,50.918,34.791,81.424,34.791c28.863,0,57.389-12.79,78.259-35.094C225.851,184.774,236.71,155.802,234.833,127.532z"
	/>
</svg>
