<svg xmlns="http://www.w3.org/2000/svg" width="200" height="200"><path d="M37.887 133.96c0-29.058 19.881-52.892 46.869-59.589l10.618-63.265C45.643 13.518 6.063 54.601 6.063 104.93c0 39.41 24.273 73.146 58.681 87.089l1.052-6.21c-16.882-11.07-27.909-30.156-27.909-51.849zm156.051-29.03c0-50.41-39.708-91.541-89.552-93.833l10.816 63.397c26.731 6.874 46.358 30.589 46.358 59.466 0 21.387-11.119 40.765-27.6 51.9l.924 6.058c34.278-14.005 59.054-47.673 59.054-86.988z" fill="#ed1b24"/><path d="M69.053 194.487L99.864 3.413l30.81 191.075-28.155-28.136c-.443-4.023-.967-18.881-2.656-18.881-1.78 0-1.988 15.271-2.491 19.028l-28.319 27.988zm21.453 2.1h18.988l-6.846-17.437v8.719s.273 2.921-2.922 2.921c-2.647 0-2.647-2.785-2.647-3.333l-.184-8.307-6.389 17.437z" fill="#01a558"/></svg>