<svg xmlns="http://www.w3.org/2000/svg" width="200" height="200" fill="#9999ca"><path d="M99.875 196.913c-53.641 0-97.281-43.531-97.281-97.038S46.234 2.836 99.875 2.836s97.281 43.532 97.281 97.039-43.64 97.038-97.281 97.038zm0-190.779c-51.823 0-93.983 42.052-93.983 93.741s42.16 93.74 93.983 93.74 93.983-42.052 93.983-93.74S151.697 6.134 99.875 6.134zM82.531 162.397l-.121-31.963c-1.926.76-4.221 1.246-6.546 1.306-4.07.104-9.246-1.363-11.645-6.086-1.345-2.649-1.357-6.247-.966-9.165H37.147c5.874 22.235 23.252 39.782 45.384 45.908zm46.564-32.872c-5.715 2.843-10.239 2.072-13.397.531l-.111 32.776c22.908-5.698 40.998-23.564 47.016-46.344h-26.952c.353 4.531-2.193 10.865-6.556 13.037zM37.076 83.576h27.07c.558-1.142 1.48-2.44 2.886-3.96l15.402-16.701.096-25.563c-22.234 6.155-39.661 23.841-45.454 46.224zm78.51-46.661l.088 25.96 14.113 15.948c1.572 1.961 2.604 3.497 3.23 4.753h29.656c-5.934-22.929-24.074-40.936-47.087-46.661zM99.875 10.02c-49.546 0-89.856 40.309-89.856 89.855s40.31 89.855 89.856 89.855 89.855-40.31 89.855-89.855S149.421 10.02 99.875 10.02zm5.564 166.317v-45.642c-1.509.565-3.542.891-6.495.891-3.005 0-5.071-.317-6.644-.906v45.484c-36.249-3.571-65.161-32.492-68.719-68.744h42.194c-.84-1.167-1.442-2.884-1.299-6.389.044-1.085.876-5.668 3.71-7.214-.047-.07-.096-.137-.144-.206H23.467c2.994-36.85 32.159-66.413 68.833-70.027v29.748c1.566-.875 3.565-1.428 6.5-1.428 2.375 0 4.643.5 6.639 1.379V23.414c37.613 2.711 67.794 32.677 70.842 70.197H131.35c1.543 2.14 2.892 4.814 2.966 7.729.058 2.232-.649 4.357-1.97 6.08h43.822c-3.623 36.919-33.544 66.235-70.729 68.917zm22.365-61.062c-1.246-2.02-2.166-3.218-4.227-5.897s.103-3.194 3.194-5.771-3.194-8.451-4.019-9.069-2.68-2.783.824-5.359.182-7.009.182-7.009L105.13 61.149c-.412-.515-1.649-2.164-5.668-2.164s-4.81.926-5.874 2.061c-5.374 5.73-16.202 16.493-21.133 22.609-2.576 3.195 4.129 6.275 4.129 8.419 0 1.875-6.492 6.586-6.492 8.854s2.37 3.71 4.638 5.256.927 3.194.927 3.194-3.916 4.947-6.286 7.523.886 5.608 1.675 6.397c.75.752 2.309 2.189 4.988 2.189s4.122-1.849 4.122-1.849l5.342-5.708c1.319-1.462 2.937-3.985 2.937-5.462v-3.504c0-1.34.67-1.854 1.568-1.854.879 0 1.969.67 1.969 1.546v10.614c0 1.854 1.924 6.383 6.974 6.383s6.768-4.388 6.768-6.624l-.104-10.477c0-.515.653-1.546 2.096-1.546s2.232.625 2.232 1.168c0 1.064.035 1.064.035 2.92s.721 3.126.721 3.126 3.058 4.809 6.529 8.483c3.754 3.973 7.684 1.74 7.684 1.74s.582-.376 2.433-2.031c2.249-2.007 1.584-5.321.464-7.137zM96.474 74.34c.393-.458 1.741-2.267 2.68-2.267.927 0 2.159 1.426 2.576 1.958 1.188 1.508 4.226 5.779 4.226 5.779H92.352s2.73-3.844 4.122-5.47zm10.611 21.332H90.703c-2.473 0 1.254-4.946 2.783-4.946h9.058c3.597 0 6.071 4.946 4.541 4.946z"/></svg>