<?xml version="1.0" encoding="UTF-8" standalone="no"?>
<!-- Created with Inkscape (http://www.inkscape.org/) -->
<svg xmlns="http://www.w3.org/2000/svg" xmlns:xlink="http://www.w3.org/1999/xlink" height="410" width="420" version="1.1">
 <g transform="translate(0,-0.0001774)">
  <path id="circle4457" d="m235 11.552734v10.533204c70.94113 11.903381 124.99999 73.590364 125 147.914062-0.10452 37.7835-14.46422 74.1358-40.20898 101.79102-5.2374 4.4746-11.8966 6.93874-18.78516 6.95117l-0.00586-77.74219-50-50v241.1543a29.000017 29.000017 0 0 0 19.00391 7.17187 29.000017 29.000017 0 0 0 7.92382 -1.16601c77.0186-27.80942 132.07226-101.5519 132.07227-188.16016-0.00001-101.98991-76.34295-186.144128-175-198.447266z"/>
  <path d="m210 110-25 25v230a25.000017 25.000017 0 0 0 25 25 25.000017 25.000017 0 0 0 25 -25v-230l-25-25z"/>
  <use xlink:href="#circle4457" transform="matrix(-1,0,0,1,420,7.3809522e-6)" height="100%" width="100%" y="0" x="0"/>
 </g>
</svg>
