<svg xmlns="http://www.w3.org/2000/svg" width="480" height="380"><circle cx="245.5" cy="190" r="184.5" fill="#01b4ed"/><g fill="#44ac34"><path d="M85.1 281.3c-44.7 34.1-79.8 54.6-79.8 54.6s57.1 10.4 113-12.2a191.97 191.97 0 0 1-33.2-42.4z"/><path d="M254 124.5l-6.7-2c-4.7 33.8-19.4 97-65.3 154.4-18.4 23-40.9 37.6-63.7 46.8 33.1 31.5 77.9 50.8 127.2 50.8 69.1 0 129.2-38 160.9-94.1-89.3-70.4-135-130.2-152.4-155.9h0z"/></g><path d="M474.5 47.5S442.9 69 392.2 78.1c8.7 11.4 16.2 23.9 22.1 37.2 30.8-20.6 49.5-48.5 60.2-67.8z" fill="#01b4ed"/><path d="M264 128.3c21.9 9.5 65.5 21.6 114 5 13.6-4.7 25.6-10.9 36.2-18-5.9-13.3-13.3-25.8-22.1-37.2-15.4 2.7-31.1 4-46.7 3.9-66.2-.7-155.2-17.2-180.9 33.1-18.5 36 16.5 53.9 37.8 55.7l-8 9.6c-38.3-6.5-73.1-10.5-91.3 16.7-19.5 29.1 5.1 47.4 23.9 50.3-14.3 12.4-28.5 23.8-41.8 34a181.98 181.98 0 0 0 33.2 42.4C141 314.6 163.6 300 182 277c11.7-14.6 21.3-29.5 29.3-44.3 18.7 5.7 43.5 8.5 70.2 0 47-15 74.5-51.5 87-70 0 0-47.2 27.5-111.5 26-8.3-.2-16.8-1-25.3-2.1 8.9-25.4 13.4-47.9 15.6-63.9 5.5 1.2 11.1 3.1 16.7 5.6h0zM132.9 242.1c-4.8-3-10.4-8.6-8.3-17.6 4.1-17.4 25.4-18.1 41.5-13.7-11 11-22.1 21.4-33.2 31.3h0zm61.6-103.3c4.6-15.5 22-21.2 43-18.2-9.1 15.6-28.4 41.6-28.4 41.6-5.7-2.5-18.7-9.6-14.6-23.4h0z" fill="#fff"/></svg>