<svg xmlns="http://www.w3.org/2000/svg" width="220" height="250"><path fill="#28803e" d="M42.22 155.577c51.466 56.31 99.298 41.777 123.517 42.687s33.186 5.289 41.476 14.53c9.233 10.295 6.963 31.484 6.963 31.484s-4.237-14.229-30.273-19.072-56.695 21.115-97.179-2.118c-34.817-19.982-44.504-67.511-44.504-67.511z"/><path fill="#e83117" d="M21.635 84.131c51.464 56.31 101.723 65.078 125.635 69.024 31.182 5.146 48.166 13.037 59.033 25.478 10.143 11.608 7.872 30.575 7.872 30.575s-5.903-13.669-29.365-19.073c-28.138-6.479-83.062 4.763-118.976-25.476-34.923-29.404-44.199-80.528-44.199-80.528z"/><path fill="#2f8bcc" d="M2.562 5.722C38.285 56.28 105.115 84.801 137.421 96.754c27.735 10.262 58.648 23.542 71.9 46.458 10.302 17.814 7.872 36.934 7.872 36.934s-14.825-23.66-44.19-31.229c-27.96-7.207-75.685-16.952-119.279-49.648C1.021 59.741 2.562 5.722 2.562 5.722z"/></svg>