<?xml version="1.0" encoding="UTF-8" standalone="no"?><!-- Created with Inkscape (http://www.inkscape.org/) --><svg xmlns:rdf="http://www.w3.org/1999/02/22-rdf-syntax-ns#" xmlns="http://www.w3.org/2000/svg" height="540" width="740" version="1.1"> <g fill="#0552e3">  <path d="M370,20c-138.07,0-250,111.93-250,250,0,134.72,106.57,244.53,240,249.78v-50.03c-105.81-5.22-190-92.65-190-199.75,0-110.46,89.54-200,200-200s200,89.54,200,200c0,107.1-84.19,194.53-190,199.75v50.03c133.43-5.25,240-115.06,240-249.78,0-138.07-111.93-250-250-250z"/>  <path d="M20,220,283.4,220,225.66,320,70,320z"/>  <path d="M456.6,220,720,220,670,320,514.34,320z"/>  <path d="m370,90-152.01,263.28,57.744,0,30.742-53.246,30.742,53.246,46.196,0-53.839-93.253,69.294-120.02z"/>  <path d="m370,210.02-23.098,40.007,59.614,103.25,46.196,0z"/>  <path d="m404.65,150.01-23.098,40.007,94.26,163.26,46.196,0z"/> </g></svg>