<?xml version="1.0" encoding="utf-8"?>
<!-- Generator: Adobe Illustrator 15.0.0, SVG Export Plug-In . SVG Version: 6.00 Build 0)  -->
<!DOCTYPE svg PUBLIC "-//W3C//DTD SVG 1.1//EN" "http://www.w3.org/Graphics/SVG/1.1/DTD/svg11.dtd">
<svg version="1.1" id="Laag_1" xmlns="http://www.w3.org/2000/svg" xmlns:xlink="http://www.w3.org/1999/xlink" x="0px" y="0px"
	 width="250px" height="250px" viewBox="0 0 250 250" enable-background="new 0 0 250 250" xml:space="preserve">
<path fill="#22B04A" d="M177.854,18.952c0,0-27.271,29.661-45.041,71.586c36.944-1.724,70.275-13.34,96.653-28.403
	C208.231,26.01,169.397,1.333,125,1.333c-44.688,0-83.742,25.004-104.885,61.521c24.231,13.679,48.31,21.687,71.538,25.394
	C111.796,62.542,139.629,37.225,177.854,18.952z M79.045,66.209c-8.233,0-14.907-6.675-14.907-14.908
	c0-8.232,6.674-14.908,14.907-14.908s14.908,6.676,14.908,14.908C93.953,59.534,87.278,66.209,79.045,66.209z"/>
<path fill="#22B04A" d="M232.444,67.5c-26.76,18.566-63.791,32.553-104.317,35.064c-3.315,9.316-6.058,19.106-7.87,29.211
	c0,0-52.855,32.866-78.605,62.004c0,0,7.882-45.536,41.05-93.388c-23.067-3.71-46.44-11.603-69.015-24.819
	C7.056,90.79,3.366,107.531,3.366,125c0,67.176,54.458,123.667,121.634,123.667S246.634,192.176,246.634,125
	C246.634,104.384,241.498,84.779,232.444,67.5z M96.879,232.064c0,0,42.688-29.814,52.179-64.714
	c4.742-17.448-0.849-27.782-7.623-32.737c-6.776-4.955-14.738-4.531-14.738-4.531s2.938-3.002,10.351-7.371
	c14.216-8.381,39.433-19.07,53.687-4.148C212.414,141.264,175.146,215.462,96.879,232.064z"/>
</svg>
