<?xml version="1.0" encoding="utf-8"?>
<!-- Generator: Adobe Illustrator 15.0.0, SVG Export Plug-In . SVG Version: 6.00 Build 0)  -->
<!DOCTYPE svg PUBLIC "-//W3C//DTD SVG 1.1//EN" "http://www.w3.org/Graphics/SVG/1.1/DTD/svg11.dtd">
<svg version="1.1" id="Laag_1" xmlns="http://www.w3.org/2000/svg" xmlns:xlink="http://www.w3.org/1999/xlink" x="0px" y="0px"
	 width="250px" height="250px" viewBox="0 0 250 250" enable-background="new 0 0 250 250" xml:space="preserve">
<path fill="#1D56AC" d="M205.721,44.458l-23.414,13.585c19.361,16.197,31.689,40.602,31.689,67.9
	c0,48.769-39.328,88.302-87.846,88.302c-48.515,0-87.843-39.533-87.843-88.302c0-27.854,12.834-52.691,32.875-68.875L46.414,42.254
	c-22.108,20.863-35.263,50.434-35.263,83.23c0,63.195,50.582,113.892,113.777,113.892c63.197,0,114.425-50.696,114.425-113.892
	C239.354,93.828,226.496,65.174,205.721,44.458z"/>
<path fill="#1D56AC" d="M247.672,10.624h-59.268L124.927,48.26l-14.503-9.196c10.723-3.866,18.416-1.489,18.416-1.489l31.527-20.912
	c-11.16-3.632-23.07-5.604-35.439-5.604c-15.785,0-30.82,3.202-44.498,8.984l-14.854-9.419H2.329l95.559,52.071
	c0,0-81.886,68.137,27.041,142.994c0,0,109.23-59.274,28.261-141.467L247.672,10.624z M125,173.379
	c-60.426-54.311,0.916-94.184,0.916-94.184C188.176,130.756,125,173.379,125,173.379z"/>
</svg>
