<?xml version="1.0" encoding="UTF-8" standalone="no"?>
<!-- Created with Inkscape (http://www.inkscape.org/) -->

<svg
   xmlns:dc="http://purl.org/dc/elements/1.1/"
   xmlns:cc="http://creativecommons.org/ns#"
   xmlns:rdf="http://www.w3.org/1999/02/22-rdf-syntax-ns#"
   xmlns:svg="http://www.w3.org/2000/svg"
   xmlns="http://www.w3.org/2000/svg"
   xmlns:sodipodi="http://sodipodi.sourceforge.net/DTD/sodipodi-0.dtd"
   xmlns:inkscape="http://www.inkscape.org/namespaces/inkscape"
   width="300"
   height="321.48944"
   id="svg2"
   version="1.1"
   inkscape:version="0.48.4 r"
   sodipodi:docname="Symbol of Saga Saga.svg">
  <defs
     id="defs4" />
  <sodipodi:namedview
     id="base"
     pagecolor="#ffffff"
     bordercolor="#666666"
     borderopacity="1.0"
     inkscape:pageopacity="0.0"
     inkscape:pageshadow="2"
     inkscape:zoom="1.2516939"
     inkscape:cx="188.29702"
     inkscape:cy="123.0333"
     inkscape:document-units="px"
     inkscape:current-layer="layer1"
     showgrid="false"
     inkscape:window-width="1280"
     inkscape:window-height="961"
     inkscape:window-x="-8"
     inkscape:window-y="-8"
     inkscape:window-maximized="1"
     fit-margin-top="0"
     fit-margin-left="0"
     fit-margin-right="0"
     fit-margin-bottom="0" />
  <metadata
     id="metadata7">
    <rdf:RDF>
      <cc:Work
         rdf:about="">
        <dc:format>image/svg+xml</dc:format>
        <dc:type
           rdf:resource="http://purl.org/dc/dcmitype/StillImage" />
        <dc:title></dc:title>
      </cc:Work>
    </rdf:RDF>
  </metadata>
  <g
     inkscape:label="レイヤー 1"
     inkscape:groupmode="layer"
     id="layer1"
     transform="translate(-64.938124,-350.57691)">
    <g
       id="g3815"
       transform="matrix(1.2451041,0,0,1.2451041,-184.02685,-379.589)">
      <path
         sodipodi:nodetypes="csscsssc"
         inkscape:connector-curvature="0"
         id="path3789"
         d="m 353.52245,730.41078 c -45.66119,16.3115 -74.71113,1.97376 -73.01532,-20.52065 3.14,-41.65121 72.10049,-77.47149 114.05661,-63.47082 8.39359,2.80092 19.76015,13.81629 13.36227,35.31459 16.12848,-20.53176 21.22192,-45.79799 9.06727,-64.9025 -24.49662,-38.50343 -100.67882,-21.89669 -141.73561,0.95444 -39.59882,22.03965 -91.18693,72.48531 -70.6292,112.14771 25.3086,48.82836 113.31929,26.23704 148.89398,0.47723 z"
         style="fill:#007ac2;fill-opacity:1;stroke:none" />
      <path
         style="fill:#7bc34a;fill-opacity:1;stroke:none"
         d="m 287.33156,708.06765 c 45.66119,-16.3115 74.71113,-1.97376 73.01532,20.52065 -3.14,41.65121 -72.10049,77.47149 -114.05661,63.47082 -8.39359,-2.80092 -19.76015,-13.81629 -13.36227,-35.31459 -16.12848,20.53176 -21.22192,45.79799 -9.06727,64.9025 24.49662,38.50343 100.67882,21.89669 141.73561,-0.95444 39.59882,-22.03965 91.18693,-72.48531 70.6292,-112.14771 -25.3086,-48.82836 -113.31929,-26.23704 -148.89398,-0.47723 z"
         id="path3809"
         inkscape:connector-curvature="0"
         sodipodi:nodetypes="csscsssc" />
      <path
         transform="matrix(1.6641414,0,0,1.5695882,15.464585,132.37828)"
         d="m 174.18686,310.27841 c 0,11.5968 -8.86692,20.99787 -19.80481,20.99787 -10.93789,0 -19.80481,-9.40107 -19.80481,-20.99787 0,-11.5968 8.86692,-20.99787 19.80481,-20.99787 10.93789,0 19.80481,9.40107 19.80481,20.99787 z"
         sodipodi:ry="20.997868"
         sodipodi:rx="19.804808"
         sodipodi:cy="310.27841"
         sodipodi:cx="154.38205"
         id="path3811"
         style="fill:#7bc34a;fill-opacity:1;stroke:none"
         sodipodi:type="arc" />
      <path
         sodipodi:type="arc"
         style="fill:#007ac2;fill-opacity:1;stroke:none"
         id="path3813"
         sodipodi:cx="154.38205"
         sodipodi:cy="310.27841"
         sodipodi:rx="19.804808"
         sodipodi:ry="20.997868"
         d="m 174.18686,310.27841 c 0,11.5968 -8.86692,20.99787 -19.80481,20.99787 -10.93789,0 -19.80481,-9.40107 -19.80481,-20.99787 0,-11.5968 8.86692,-20.99787 19.80481,-20.99787 10.93789,0 19.80481,9.40107 19.80481,20.99787 z"
         transform="matrix(1.6641414,0,0,1.5695882,121.73159,284.05928)" />
    </g>
  </g>
</svg>
