<?xml version="1.0" encoding="UTF-8" standalone="no"?>
<!-- Created with Inkscape (http://www.inkscape.org/) -->

<svg
   xmlns:dc="http://purl.org/dc/elements/1.1/"
   xmlns:cc="http://creativecommons.org/ns#"
   xmlns:rdf="http://www.w3.org/1999/02/22-rdf-syntax-ns#"
   xmlns:svg="http://www.w3.org/2000/svg"
   xmlns="http://www.w3.org/2000/svg"
   xmlns:sodipodi="http://sodipodi.sourceforge.net/DTD/sodipodi-0.dtd"
   xmlns:inkscape="http://www.inkscape.org/namespaces/inkscape"
   width="250"
   height="231.28578"
   id="svg2"
   version="1.1"
   inkscape:version="0.48.4 r"
   sodipodi:docname="Symbol of Kanzaki Saga.svg">
  <defs
     id="defs4" />
  <sodipodi:namedview
     id="base"
     pagecolor="#ffffff"
     bordercolor="#666666"
     borderopacity="1.0"
     inkscape:pageopacity="0.0"
     inkscape:pageshadow="2"
     inkscape:zoom="1.3028442"
     inkscape:cx="59.517376"
     inkscape:cy="-32.253674"
     inkscape:document-units="px"
     inkscape:current-layer="layer1"
     showgrid="false"
     inkscape:window-width="1280"
     inkscape:window-height="961"
     inkscape:window-x="-8"
     inkscape:window-y="-8"
     inkscape:window-maximized="1"
     inkscape:object-paths="false"
     fit-margin-top="0"
     fit-margin-left="0"
     fit-margin-right="0"
     fit-margin-bottom="0" />
  <metadata
     id="metadata7">
    <rdf:RDF>
      <cc:Work
         rdf:about="">
        <dc:format>image/svg+xml</dc:format>
        <dc:type
           rdf:resource="http://purl.org/dc/dcmitype/StillImage" />
        <dc:title></dc:title>
      </cc:Work>
    </rdf:RDF>
  </metadata>
  <g
     inkscape:label="レイヤー 1"
     inkscape:groupmode="layer"
     id="layer1"
     transform="translate(-37.062505,-369.09008)">
    <g
       id="g3817"
       transform="matrix(1.4105113,0,0,1.4105113,-15.214576,-246.46107)">
      <path
         transform="matrix(1.4223233,0,0,1.4081,-36.536823,-180.69825)"
         d="m 129.44369,451.81943 c 0,7.49368 -6.01408,13.56852 -13.43283,13.56852 -7.41875,0 -13.43284,-6.07484 -13.43284,-13.56852 0,-7.49369 6.01409,-13.56852 13.43284,-13.56852 7.41875,0 13.43283,6.07483 13.43283,13.56852 z"
         sodipodi:ry="13.568521"
         sodipodi:rx="13.432836"
         sodipodi:cy="451.81943"
         sodipodi:cx="116.01086"
         id="path3789"
         style="fill:#ed1c2a;fill-opacity:1;stroke:none"
         sodipodi:type="arc" />
      <path
         id="path3806"
         d="m 113.71875,484.375 c -13.982757,0.0574 -27.032066,1.71739 -35.15625,3.96875 20.476821,2.19515 65.96064,-0.89404 65.8125,14.75 -0.14275,15.07435 -43.51574,29.39635 -70.84375,35.9375 9.321201,8.28648 18.517432,17.26631 26.96875,26.25 0.0196,0.003 0.0429,-0.003 0.0625,0 24.32259,-9.47284 43.87764,-20.19573 55.75,-31.4375 28.72295,-27.19735 9.92184,-39.53388 -1.90625,-43.75 -11.80475,-4.2078 -26.70474,-5.77611 -40.6875,-5.71875 z"
         style="fill:#0084c8;fill-opacity:1;stroke:none"
         inkscape:connector-curvature="0" />
      <path
         id="path3815"
         d="m 125.8125,493.90625 c -22.43018,13.70103 -61.500898,18.67392 -88.749996,16.96875 9.356707,5.92038 19.635301,13.74258 29.984375,22.53125 25.092482,-5.92581 54.872381,-22.01296 58.765621,-39.5 z"
         style="fill:#00b14c;fill-opacity:1;stroke:none"
         inkscape:connector-curvature="0" />
      <path
         id="path3791"
         d="m 106.125,571.375 c 9.11613,10.11693 17.05781,20.10398 22.9375,29 0.0199,0.003 0.0426,-0.003 0.0625,0 23.57125,-11.04278 43.16388,-24.03861 56.75,-37.6875 34.82537,-34.98625 33.08031,-53.65846 19,-65 -9.40603,-7.57646 -19.80547,-9.65258 -37.28125,-9.21875 21.45606,4.63788 23.43906,12.02419 22.03125,20.40625 -4.64001,27.62641 -51.41205,49.36347 -83.5,62.5 z"
         style="fill:#61bc4d;fill-opacity:1;stroke:none"
         inkscape:connector-curvature="0" />
    </g>
  </g>
</svg>
