<?xml version="1.0" encoding="UTF-8" standalone="no"?>
<!-- Created with Inkscape (http://www.inkscape.org/) -->

<svg
   xmlns:dc="http://purl.org/dc/elements/1.1/"
   xmlns:cc="http://creativecommons.org/ns#"
   xmlns:rdf="http://www.w3.org/1999/02/22-rdf-syntax-ns#"
   xmlns:svg="http://www.w3.org/2000/svg"
   xmlns="http://www.w3.org/2000/svg"
   version="1.1"
   width="135"
   height="125"
   id="svg3981">
  <defs
     id="defs3983" />
  <metadata
     id="metadata3986">
    <rdf:RDF>
      <cc:Work
         rdf:about="">
        <dc:format>image/svg+xml</dc:format>
        <dc:type
           rdf:resource="http://purl.org/dc/dcmitype/StillImage" />
        <dc:title></dc:title>
      </cc:Work>
    </rdf:RDF>
  </metadata>
  <g
     id="layer4">
    <path
       d="m 120.97192,24.165083 c 0,0 -40.557221,6.30142 -61.969367,30.293339 -35.887399,40.211176 -47.464287,44.29334 -47.464287,44.29334 0,0 13.176034,-18.690476 18.890319,-28.035714 5.714286,-9.345239 15.395396,-28.035715 15.395396,-28.035715 0,0 -9.841313,2.207251 -18.424719,6.419688 -7.669445,3.763896 -15.414567,10.187455 -15.414567,10.187455 0,0 -0.196687,-14.429118 16.317423,-27.021224 12.752386,-9.723769 29.449407,-8.101169 29.449407,-8.101169 0,0 4.032718,-7.279369 11.299972,-11.649434 11.739827,-7.0595858 17.047434,-5.3968948 17.047434,-5.3968948 0,0 -4.535534,5.6821098 -6.177032,8.5231648 -1.641498,2.841054 -3.671956,8.523164 -3.671956,8.523164 z"
       id="path4117"
       style="fill:#00a8e6;fill-opacity:1;stroke:none" />
    <path
       d="M 51.770318,75.123718 C 69.06918,47.871943 97.190449,40.294372 105.05587,48.98602 123.49703,69.364337 88.468142,114.86515 57.957502,117.17132 69.321718,111.86802 92.67043,83.935577 82.201163,69.694148 76.131317,61.437287 64.018418,65.527269 51.770318,75.123718 z"
       id="path4646"
       style="fill:#00ab4b;fill-opacity:1;stroke:none" />
    <path
       d="m 53.633624,80.49015 a 6.0933175,4.9566207 0 1 1 -12.186635,0 6.0933175,4.9566207 0 1 1 12.186635,0 z"
       transform="matrix(2.0900591,-2.4485465,1.5618964,1.4776576,-167.85317,88.64333)"
       id="path4648"
       style="fill:#f03c1e;fill-opacity:1;fill-rule:evenodd;stroke:none" />
  </g>
</svg>
