<?xml version="1.0" encoding="utf-8"?>
<!-- Generator: Adobe Illustrator 16.0.0, SVG Export Plug-In . SVG Version: 6.00 Build 0)  -->
<!DOCTYPE svg PUBLIC "-//W3C//DTD SVG 1.1//EN" "http://www.w3.org/Graphics/SVG/1.1/DTD/svg11.dtd" [
	<!ENTITY ns_extend "http://ns.adobe.com/Extensibility/1.0/">
	<!ENTITY ns_ai "http://ns.adobe.com/AdobeIllustrator/10.0/">
	<!ENTITY ns_graphs "http://ns.adobe.com/Graphs/1.0/">
	<!ENTITY ns_vars "http://ns.adobe.com/Variables/1.0/">
	<!ENTITY ns_imrep "http://ns.adobe.com/ImageReplacement/1.0/">
	<!ENTITY ns_sfw "http://ns.adobe.com/SaveForWeb/1.0/">
	<!ENTITY ns_custom "http://ns.adobe.com/GenericCustomNamespace/1.0/">
	<!ENTITY ns_adobe_xpath "http://ns.adobe.com/XPath/1.0/">
]>
<svg version="1.1" id="图层_2" xmlns:x="&ns_extend;" xmlns:i="&ns_ai;" xmlns:graph="&ns_graphs;"
	 xmlns="http://www.w3.org/2000/svg" xmlns:xlink="http://www.w3.org/1999/xlink" x="0px" y="0px" width="227.92px"
	 height="216.757px" viewBox="0 0 227.92 216.757" enable-background="new 0 0 227.92 216.757" xml:space="preserve">
<metadata>
	<sfw  xmlns="&ns_sfw;">
		<slices></slices>
		<sliceSourceBounds  width="227.92" height="216.757" y="329.722" x="130.476" bottomLeftOrigin="true"></sliceSourceBounds>
	</sfw>
</metadata>
<g>
	<path fill="#1284B2" d="M141.045,82.582h-0.078l0,0c0-0.078,0-0.078,0-0.155L113.96,0L86.719,82.582l-1.951,6.166v0.234h-0.078
		l-12.489,38.716l5.229,3.98c0-0.077,0-0.077,0.078-0.077l13.894-42.619l44.881-0.155l-1.951-6.245H93.431l20.451-62.132
		l20.373,61.977c0,0.077,0.078,0.077,0.078,0.155l1.951,6.245c0.078,0,0.155,0,0.155-0.079v0.079c0,0.078,0,0.078,0,0.078h6.636
		h0.077l65.254,0.233l-52.608,38.403c-0.078,0.078-0.078,0.156-0.156,0.156l-12.566-38.793h-6.636l13.895,42.696
		c0,0,0.077,0,0.077,0.077l0,0c-0.077,0.078-0.077,0.078-0.077,0.078l2.029,6.244c0,0,0,0.078,0,0.156l19.981,62.054l-52.842-38.169
		c-0.078,0-0.156,0-0.234,0c11.084-8.04,22.09-16.079,33.095-24.041l-2.029-6.244l-36.295,26.383c-0.078,0-0.078,0-0.078,0.078
		c0-0.078,0-0.078-0.078-0.078s-0.078,0-0.078,0l-36.217-26.383l-2.03,6.166l33.018,24.119c-0.078,0-0.156,0-0.156,0L55.575,200.21
		l19.982-62.054c0-0.078,0-0.156,0-0.234l2.03-6.166c0,0-0.078-0.078-0.156-0.078l0,0l-5.229-3.98c0,0,0,0-0.078-0.078
		L19.436,89.138l65.254-0.156l0.078-0.234l1.951-6.166L0,82.816l70.015,51.126c0,0,0.078,0,0.156,0.077l0,0v0.079
		c0,0,0,0.078-0.078,0.156l-26.617,82.503l70.328-50.813c0,0,0,0,0.078,0h0.078c0,0,0.078,0,0.078,0.079l70.328,50.734
		l-26.617-82.581c0,0,0-0.078-0.078-0.078c0.078,0,0.078,0,0.078,0v-0.079c0,0,0.078,0,0.078-0.077l70.094-51.126l-86.798-0.234
		H141.045"/>
	<path fill="#1284B2" d="M94.602,103.344c-1.171-0.391-2.264-0.468-3.434-0.391c2.186,0.859,3.747,2.265,4.839,4.371
		c0.858,1.717,1.171,3.592,0.937,5.386l-6.557-2.106c-0.39-0.078-0.703-0.078-1.015,0.156c-0.312,0.156-0.468,0.468-0.625,0.858
		c-0.156,0.39-0.156,0.78,0,1.092c0.156,0.391,0.39,0.625,0.703,0.703l6.557,2.107c-0.859,1.717-2.186,3.044-3.981,3.902
		c-2.029,1.093-4.215,1.327-6.4,0.703c0.858,0.78,1.795,1.326,2.966,1.717c2.419,0.78,4.839,0.546,7.103-0.703
		c1.873-1.014,3.2-2.497,4.137-4.37l1.483,0.546l-0.625,1.952c-0.156,0.39-0.078,0.701,0.156,1.014
		c0.156,0.313,0.468,0.547,0.858,0.703c0.39,0.155,0.781,0.078,1.093-0.078c0.313-0.078,0.546-0.391,0.703-0.703l0.625-2.029
		l1.405,0.469c0.313,0.078,0.625,0.078,1.015-0.156c0.234-0.155,0.468-0.468,0.624-0.858c0.156-0.391,0.156-0.78,0-1.093
		c-0.156-0.391-0.39-0.625-0.78-0.703l-1.327-0.468l0.703-2.029c0.078-0.391,0-0.702-0.156-1.015
		c-0.156-0.313-0.468-0.547-0.859-0.625c-0.468-0.156-0.78-0.156-1.17,0c-0.313,0.156-0.546,0.391-0.703,0.703l-0.625,2.029
		l-1.483-0.468c0.313-1.952,0.078-3.981-0.858-5.854C98.817,105.764,97.022,104.203,94.602,103.344"/>
	<path fill="#1284B2" d="M104.203,96.319c0,2.499,0.937,4.684,2.81,6.558c1.561,1.404,3.356,2.263,5.464,2.575v1.562h-2.186
		c-0.39,0-0.624,0.155-0.858,0.468c-0.312,0.234-0.391,0.625-0.391,1.016c0,0.468,0.079,0.78,0.391,1.093
		c0.234,0.233,0.468,0.39,0.858,0.39h2.186v1.482c0,0.313,0.156,0.625,0.39,0.859c0.312,0.234,0.625,0.39,1.093,0.39
		c0.39,0,0.702-0.155,1.015-0.39c0.312-0.234,0.39-0.547,0.39-0.859v-1.482h2.186c0.391,0,0.703-0.156,0.937-0.39
		c0.234-0.313,0.313-0.625,0.313-1.093c0-0.391-0.078-0.781-0.313-1.016c-0.234-0.313-0.546-0.468-0.937-0.468h-2.186v-1.562
		c2.029-0.313,3.825-1.171,5.386-2.575c1.874-1.874,2.81-4.059,2.81-6.558c0-1.171-0.156-2.342-0.625-3.355
		c-0.156,2.264-1.015,4.215-2.654,5.854c-1.405,1.482-3.044,2.342-4.917,2.575v-6.869c0-0.313-0.078-0.625-0.39-0.858
		c-0.313-0.234-0.625-0.39-1.015-0.39c-0.468,0-0.781,0.155-1.093,0.39c-0.234,0.233-0.39,0.546-0.39,0.858v6.947
		c-1.874-0.312-3.513-1.171-4.996-2.653c-1.639-1.64-2.498-3.591-2.654-5.854C104.437,93.977,104.203,95.148,104.203,96.319"/>
	<path fill="#1284B2" d="M136.674,102.876c-1.093-0.079-2.264,0.077-3.435,0.468c-2.419,0.703-4.215,2.342-5.308,4.684
		c-0.859,1.951-1.171,3.902-0.781,5.933l-1.483,0.546l-0.702-2.029c-0.078-0.391-0.313-0.625-0.625-0.781
		c-0.391-0.077-0.781-0.156-1.171,0c-0.391,0.156-0.625,0.391-0.859,0.703c-0.156,0.312-0.312,0.624-0.156,0.937l0.624,2.029
		l-1.327,0.468c-0.313,0.078-0.625,0.313-0.703,0.703c-0.156,0.313-0.156,0.702,0,1.093c0.078,0.391,0.313,0.703,0.625,0.858
		c0.234,0.234,0.625,0.234,1.015,0.156l1.405-0.469l0.625,2.107c0.078,0.313,0.312,0.547,0.702,0.703
		c0.312,0.155,0.703,0.155,1.093,0c0.39-0.156,0.703-0.391,0.858-0.625c0.234-0.313,0.234-0.702,0.156-1.014l-0.702-2.03
		l1.561-0.546c0.937,1.873,2.264,3.277,4.059,4.293c2.342,1.248,4.683,1.482,7.103,0.702c1.093-0.39,2.186-0.937,3.044-1.639
		c-2.185,0.546-4.371,0.313-6.478-0.703c-1.717-0.937-3.044-2.186-3.903-3.902l6.479-2.107c0.39-0.078,0.625-0.313,0.78-0.703
		c0.078-0.312,0.156-0.702,0-1.092c-0.155-0.391-0.391-0.702-0.702-0.858c-0.313-0.234-0.625-0.234-0.938-0.156l-6.556,2.106
		c-0.39-1.872,0-3.669,0.937-5.463C132.927,105.139,134.566,103.735,136.674,102.876"/>
	<path fill="#1284B2" d="M124.81,127.151c0.078-0.312-0.078-0.702-0.312-1.014c-0.235-0.313-0.547-0.548-0.937-0.625
		c-0.39-0.078-0.625,0-0.937,0.156l-1.717,1.248l-0.859-1.17c-0.234-0.313-0.546-0.469-0.858-0.469c-0.39,0-0.781,0.078-1.093,0.312
		c-0.39,0.235-0.546,0.548-0.625,0.938c-0.078,0.313,0,0.624,0.156,0.937l0.858,1.171l-1.717,1.326
		c-0.313,0.157-0.468,0.47-0.468,0.859c-0.078,0.391,0.078,0.702,0.312,1.093c0.234,0.313,0.546,0.546,0.858,0.624
		c0.391,0.078,0.703,0,1.015-0.234l1.795-1.249l0.937,1.249c-1.561,1.483-2.419,3.2-2.81,5.308c-0.546,2.576,0,4.84,1.483,6.869
		c0.703,1.015,1.561,1.795,2.498,2.42c-1.171-1.951-1.639-4.059-1.249-6.4c0.234-1.951,1.093-3.591,2.42-4.917l4.059,5.62
		c0.156,0.233,0.468,0.39,0.858,0.468c0.313,0,0.703-0.156,1.015-0.39c0.312-0.235,0.546-0.548,0.625-0.859
		c0.078-0.39,0.078-0.702-0.156-1.015l-4.059-5.542c1.717-0.858,3.512-1.171,5.464-0.858c2.341,0.39,4.215,1.483,5.698,3.2
		c-0.234-1.093-0.78-2.107-1.483-3.122c-1.483-2.03-3.513-3.2-6.167-3.513c-2.029-0.313-4.059,0.078-5.854,1.015l-0.937-1.249
		l1.717-1.326C124.653,127.854,124.81,127.542,124.81,127.151"/>
	<path fill="#1284B2" d="M105.218,125.589c-0.313-0.155-0.625-0.233-1.015-0.155c-0.312,0.078-0.625,0.313-0.937,0.625
		c-0.234,0.39-0.312,0.701-0.234,1.092c0,0.313,0.156,0.625,0.468,0.859l1.717,1.248l-0.937,1.327
		c-1.795-0.937-3.747-1.327-5.854-1.015c-2.576,0.313-4.605,1.482-6.167,3.513c-0.702,1.015-1.17,2.029-1.405,3.2
		c1.405-1.795,3.356-2.889,5.62-3.278c1.952-0.313,3.747,0,5.464,0.858l-4.059,5.542c-0.156,0.233-0.234,0.625-0.156,0.937
		c0.078,0.39,0.234,0.702,0.625,0.938c0.312,0.233,0.702,0.312,1.092,0.312c0.313-0.078,0.625-0.156,0.859-0.469l4.059-5.541
		c1.249,1.326,2.108,2.966,2.42,4.917c0.39,2.342,0,4.449-1.249,6.4c0.859-0.625,1.795-1.405,2.42-2.342
		c1.561-2.107,2.029-4.371,1.561-6.947c-0.39-2.107-1.327-3.902-2.81-5.308l0.858-1.326l1.796,1.326
		c0.234,0.156,0.546,0.234,0.936,0.156c0.391-0.077,0.703-0.312,0.937-0.624c0.234-0.391,0.39-0.703,0.312-1.093
		c-0.078-0.312-0.156-0.624-0.468-0.858l-1.717-1.249l0.858-1.171c0.156-0.313,0.234-0.624,0.156-1.015
		c-0.078-0.312-0.312-0.624-0.624-0.859c-0.313-0.233-0.703-0.39-1.015-0.312c-0.39,0-0.78,0.156-0.937,0.469l-0.858,1.17
		L105.218,125.589"/>
</g>
</svg>
