<?xml version="1.0" encoding="UTF-8"?><svg width="457" height="352" viewBox="21 74 457 352" xmlns="http://www.w3.org/2000/svg">
 <circle xmlns="http://www.w3.org/2000/svg" cx="250.6" cy="132.7" r="57" fill="#f08f00"/>
 <path xmlns="http://www.w3.org/2000/svg" d="m296.6 188.6a45.8 45.8 0 0 0 3.5 84.9 50.7 50.7 0 0 1-96.2 30.3 92.2 92.2 0 0 0 154.8 66.5 148.7 148.7 0 0 0 24.7-131.6l54.6-37.8 3.1-3.2c1.2-0.1 1.6-1.7 2.2-2.6 0.5-0.6 2.4-0.6 1.5-1.8 1.1-0.7 0.5-2.3 1.9-2.5 1.5 0.9 1.6-1.3 3-1.2-0.8-1.7 1.5-1.7 1.2-3.1 0.1-1 0.8-1.4 1.8-1 0.7 0.4 1.3-0.9 0.8-1.4 1-0.6 0.9-1.8 2.2-1.8 0.1-0.5-0.2-1 0.2-1.2 0.9-1.1 2.2-1.2 3.5-1.5 0.1-1.4 2-1.8 2-3.1l-2.4 1.1c-0.3 0.7 0 1.7-1 1.9-1.8-2.3-2.2 1.5-4 1.3l0.2 0.2c-0.2 0.4 0 1.1-0.6 1.5-0.8 0.8-2 0.8-2.6 0.9 0.1-0.5 0.4-1.2 0.9-1.4-2.4-0.3-2.5 2.5-4.9 2.6l-1.3-3.4c-0.4-0.7 0-2.1-0.9-2.2-0.3 2.1 1.3 4.4-0.8 5.5-2.1-0.7-3.5-2.6-4-4.4 0.3-1.2 1.5-2.3 2.8-2.5 0.5-2.8 2.6-4.6 5.2-6.3-0.1-0.4 0.1-1-0.4-1.2-1.8-3.1 2.1-4.4 3.5-6.4 1.4-0.1 2.1 1.4 2.7 2.4 0.2-0.6 2.1-0.6 1.3-1.6-0.5-0.2-0.9 0.2-1.3 0.1-0.8-0.4-0.9-1.1-0.8-1.9 0.9-0.8 1.7-1.6 3-1.8 0.7 0.7 1.2 1.4 1.6 2.2 0.5-1.1-1-1.9-0.8-3 0.2-0.9 0.8-1.3 1.6-1.8 0.9-0.3 2.2-1.7 1.2-2.6l-0.8 0.7c-0.9 2.1-4 2.1-4.4 4.5-0.7 0.3-1.6 0.9-2.4 0.4-0.9 1.2-2.3 1.7-3.2 2.6-0.7-0.7-0.6-2.1-1.5-2.3-0.3 0.1-0.1 0.4-0.2 0.8-0.1 1.6-1.7 1-2.6 0.6-3.6 1-4.9 4.1-7.4 6.7-0.7 0.4-1.2-0.2-2-0.2l-0.6 1.5-1-0.8c0.8-1.3-1.7-2.5-0.2-3.5 0.1 0.2 0.4 0.1 0.7 0.1 0.5-1 0.6-2.9-0.2-3.8 0.7-1.7 2.3 0.4 3.3 0 2-0.8 0.6-3.5 1.2-4.7 1.1-1 2.1 0.9 2.8 1.4 0.4-0.2 0.2-0.8 0.2-1-1.6-1.5-0.2-3.7-0.3-5.6 0.7-0.2 1.1 0.3 1.8 0.2 1.8-0.4 0.3-1.7 0.6-2.8-0.1-0.6 0.5-1 1-0.8 0.3 0.3 0.3 0.9 0.7 1.3 1.1 0 1-1.3 1.6-2 1.8 0.6 0.8-1.6 1.6-2.2 1.8 0.5 0.8-1.3 1-2.1 0.2-0.4 0.7-1.1 1.2-0.9 0.8 1.8 2.7 3.4 3.7 4.7 0.3-2.3-4.4-3.5-2.5-6.7 1.6-3.2 2.9 1 4.8 0.4 0.1-1-0.7-1.3-1.3-1.8-0.4-1.1-0.2-3.4 0.6-4-1.2-0.7-0.8-2.2-1.8-2.7-0.9 0.8-1.6-0.6-2.5-1l-0.2 0.1c0.8 0.7 0.8 1.6 1 2.4-0.4 0.8-0.6 2.5-2 2.2-0.9-0.6-0.7-1.7-1-2.4 0.4-1.3 1.1-2.2-0.1-3.4-1-1.1-0.9-3.2 0.6-3.9-0.3-2.1 2.7-0.4 3-2.3 0-1.2 0.8-2.6 0.8-3.8-0.9 1.6-2.2 3.3-3.8 4.5-2.3-0.3-2.6 2.9-5 2.6-2.4 2.2-4.9 4.6-7.4 6.2-1.1 0-1.7 2.4-3 1 0.4 2.1-2 1.6-3 2.7-1.5-0.6-0.4-2.6-1.8-3.2l-2.3 2.8c-2.4-1.2-0.3-5.4-3.2-5.5-0.3 1.8-2.2 2.4-3.2 3.7-2.1-1.1-1.6-3.5-3-5-1.8 2 1.6 3 0.8 5.2-0.6 0.9-1.7 1.1-2.3 1 0.3 1.6-2.2 1.5-1.7 3.1 0 1.5-1.1 0.5-1.8 0.5-0.8 2.3-3.9 0.2-4.6 2.8-3.5 1.1-2.3-3.3-4.2-4 0.1 1.8-1.7 2.3-2.7 3.4-0.1-0.7-1-1.1-1.6-0.7-0.4-0.2-0.6-0.7-0.6-1.1 0.7-1 0.9-2.1 2.1-2.2-0.1-1.6 1.8-1.7 2.4-2.4 0.1-0.6 0.8-1.3 0-1.8-1.1 0.8-2 1.7-3.2 2.8-0.6 0.2-1.6 0.5-2-0.2 0 0.5 0.6 1.1-0.2 1.4-1.1-0.9-1.6-2.6-1.3-4.4-0.5-2.2 2.7-2 3.2-3.5 1.8-0.8 2.4-3 4.6-3.2 0.8-2.6 4.4-1.5 4.8-4.4l1.2 1.1c0.6-1.1 1.8-0.9 2.7-1.5 0.6 0 0.6 0.7 0.8 1-0.1 1-1.1 1.9-2.1 1.8-0.9 0.7-1.2 1.6-1.4 2.4 1.8 2.1 2.7-2.4 5-1 0.6-0.9-0.3-2 0.8-2.7 2.6 2.4 2.9-1.9 5-1.9-1.2-1.5 1.3-1.9 1.4-3.1-1.1-0.4-2.1 1.9-3.6 0.8-1 0.5-1.8 1.8-2.3 2.7-0.6-0.1-1.3 0.3-1.7-0.4-1-0.6-0.3-1.7 0-2.3-2.8-3.2 3.4-1.7 2-4.7 2-1.4 3.6-3.6 5.9-4.5l-0.9-1.2-0.4 0.7c-0.4 0-0.8-0.1-1-0.5-0.9-0.8-1-1.9 0.2-2.5 1 0.2 1.3-1.6 2.3-0.7-0.3-0.9 0.6-1.2 0.8-1.7 2.6 0.2 1.1 3.7 2 4.5 3.3-1.3 1-4 1-6.4 0.5-1 0.9-2.4 2-2.6 1.6 0.3 1 2.4 1.5 3.2 1.1-0.6 0.1-2 1-2.6 0.9 1.9 1.3-1.3 2.5 0.2 3-1.6-1.2-3.9 1.5-5.4 0.6-0.8 1.3 0.7 1.8-0.4-0.3-1.4 1.2-1.5 2.2-1.4 1.2 0.9 0.2 2.5 0.2 3.5-0.2 1.1-1.4 0.7-2.2 0.8-0.2 1.1 1 0.9 1.6 1.2 1-2 2.5 0.2 3.3 0.7v-2c1.8-1 0.1-2.6 0.6-4 0.5-1 1.9-0.7 2-1.7-0.3 0.1-0.5-0.2-0.7-0.3-0.5-1.1 0-2.2 0.7-3h-1c-1.1 2.2-3.5 0.9-4 3.5-2.6-0.8-3 2.8-4.9 2.4-1.5 1.7-2.6 2.6-4.4 4.1l-0.8-0.8-0.7 0.8c-2.5-0.4-2.5 2.6-3.8 3.9-3.2-1.3-3.1 3.5-6.4 2.7-2.1 1.4 0.8 2.3 0.5 4-0.2 1.3-1 2.1-2.2 3-0.6-1.3-1.2-2.8-1-4.2-0.2 0.1-0.9-0.3-1.3-0.6-0.3 1.7-1.9 1.8-3.2 2.1-0.3 0.7-1.3 0.5-1.2 1.4-3.4 1-5.5 3.4-8.6 4.8-2.1 2.1-5.4 3.1-7.5 5.2zm125.4 15 0.1-1.2h-0.4zm28.1-22.9 0.7-0.1c0.3-1.2-0.5-1.8-1-2.6-0.5 0.8-0.6 2 0.3 2.7m13.2-5.3h0.8c1-0.1 1.3-1.1 1.7-1.8-1.3-0.2-2 1.2-2.4 1.8m-5.8-3c-0.8 0.8-0.3 2.4 0.5 2.8 0.9-0.9 0.4-2.3-0.5-2.8m12.5-2.6c-0.8 0.1-0.9 1.1-0.7 1.5 0.5-0.1 1 0.1 1.2-0.2 0.1-0.6 0-1.1-0.5-1.2m-17.9-0.1c-0.1-1.5-1.7-0.3-2.1-1.2l0.1 1.6c0.4-0.3 1.7 0.9 2-0.3m-2.6-12.2c-0.2 1.6 1.1 1.8 2 2.6 0.3-0.3 0.1-1.1 0.2-1.6-0.2-0.9-1.5-2.1-2.2-1m11.4-2.2h1c0-0.2-0.1-0.5 0.1-0.6l-0.6-0.7zm-7-2.4-0.2 1.4c0 0.6 0.7 0.6 1 0.8 0.5-0.2 0.3-0.8 0.3-1.2 0.1-0.7-0.7-0.9-1.1-1m14.1-4.6c-0.8 0.4-0.1 1.4 0.2 1.8 0.2-0.5 0.6-1.7-0.2-1.8m6.9-5.2c-0.9 0.8-2.1 1.2-2.5 2.4l0.2 0.2c0.5-1.2 2.7-1.2 2.2-2.6m-67.6-0.2c0.1-0.3 0.8-0.7 0.2-1-0.6 0-0.4 0.8-0.2 1m-2-5.1h0.5c0.1-0.2 0.2-0.2 0.2-0.4-0.2-0.5-0.9 0-0.7 0.4m7.4 0c0.2-0.2 0.6-0.4 0.3-0.9-0.1-0.4-0.3-0.7-0.9-0.5 0.8 0.5-0.5 1.2 0.6 1.4m44.8 3 1-1.7 1.6 1.2 0.2-0.2c0-0.5 0.2-1.8-0.8-2.2-0.2-1 0.1-2.6 1-3l-1-0.3c-0.8 0.9-0.7 3.2-2.5 2.6 1.4 0.7-0.1 2.5 0.5 3.7m-41.8-6v-0.7h-0.4v0.7zm16.2 1.1c0.6-0.7 0.8-1.8 0-2.3-0.8 0.6-0.3 1.6-0.4 2.3zm27.1-3.3c0.4-0.2 0.2-0.6 0.2-0.8h-0.3zm-44.5-1.2-3.5 1.2c-0.6-0.7-0.6-2-1.7-1.8 1.5 3-2.7 4.1-2.8 6.6 1.8 1 2.8-2.1 4.5-2.5 0.5-2.1 3.8-1.2 3.5-3.5m38.2-3c0.2 0.6 0.3 1.7 1 1.4 0.1-0.1 0.6-0.4 0.3-0.9-0.3-0.5-0.8-0.7-1.3-0.6m-12.6-2c0.1 0.7 0.2 1.6 1 1.6 0.3-0.4 0.9-0.7 0.7-1.1 0.1-0.8-1.2-1.2-1.7-0.5m27 3.8c-1.1 1.2-3.1-0.7-3.8 0.8l-0.3-0.3c-1.5 1.2-0.2 2.5 0 4 0.6-0.8 0.3-2.1 1-3 0.9 0.4 1.8 0 2.3-0.8 2.6 0.7 1.5-2.6 3.5-3.4-1.2-4.5-0.9 2.2-2.6 2.7m-6.6-5.3-1.6 1.8 1.8 0.5c0.2-0.6 0.4-1.8-0.2-2.3m-25-4.7 0.5 0.5v-0.5zm33.2-0.3v-0.9c-0.2-0.1-0.3-0.5-0.7-0.4-0.5 0.5 0 1.2 0.7 1.2m-13.2-1.7v1.7c0.4 0 0.8-0.1 1-0.4zm-13-0.3c-0.2 1.1-1.1 1-2 1.6-1.2 2.6-4.1 3.5-6.5 4.4l-2.3-2.2-0.2 0.2c0 0.8-0.9 2 0.6 2.1 0 1.1 0.4 2.6-0.8 3.2-0.8 1.3-2.3 0.2-3-0.3 1.1 2.2-2 4.1-0.3 6 0.3-2.2 2.3-4 3.5-5.4 0.8 0 0.4 1.2 1.4 0.8 0.9-2.1 3.2-3.5 5-5 1-2.1 3.3-2.2 5-3.5-0.1-0.6 0.3-1.7-0.5-1.8m-17.2 0c1.3 0 2.4-0.8 2.7-1.9-1.3-0.4-2.4 1.5-2.7 1.9m35.6-2.2c-1.3-0.1-2.4 1.4-2.2 2.6 0.2-0.7 2.3-1.3 2.2-2.6m-15.9 0.8c0.3-2.6 4.1-1.3 3.5-4.2l-4 2.7c0.1 0.5-0.3 1.2 0.5 1.6m22.3-4.5c-0.3-0.3 0.1-1.1-0.5-1l-1 0.6 0.4 0.8c0.4 0 0.9 0.1 1.2-0.3m-13-2.2c-0.3-0.2-0.3-0.6-0.6-0.8-0.6-0.4-1.7-0.2-1.7 0.6l1.2 1.2c0.3-0.4 1.4-0.1 1-1m-7.8-12.6c-0.2-0.1-0.3-0.5-0.6-0.3v1h0.6zm-2.5 91.6c-0.7 0.1-1.1 1.7-2 0.7-0.2-3.2-6.9-3-3.4-7 2.4-0.3 1.1 3.3 3.6 2.5 0.5 1.4 2.5 2 1.8 3.8m-5.5 3.5c-1.2 0.1-1.3 1.9-2.6 1.2-0.6-0.8 1.8-1.4 0.3-2.5l-4 2.5c-2.7-2.3 1-4.4 1.7-6.5l1.1-1.2c-0.1-0.6-0.8-1-1.1-1.5l-3.5 3.4c-0.6-0.3-1.1-1.3-0.6-1.9 0.6-3.2 4.5-3.2 4.5-6.5 0.8-0.1 1.6 0.8 1.6 1.4-1.5 2.6 1.9 4 1 6.3 0.8 1.7 1.9 3.4 1.5 5.2m-8.8 7.8c-0.5 0.2-1-0.2-1-0.8-0.1-0.5 0.2-1.6 1-1.2zm-3-27.1c-1.3 0.7-0.1 2.3-0.2 3.3-1.4 0.8-1.9-0.9-2.3-1.8 0.3-0.8 0.1-2.2 0.5-3.2 0.7 0.1 0.9 1.3 1.8 1-0.4-1.7 1.8-1.2 1.4-3l1.1 0.7 1.7-2.4c1.4 0.3 1.6 1.8 2 2.7l-0.5 1.8c-1-0.2-0.7-2.3-2.2-2.1-3 2.6 2 6.1-1.1 8.1-0.8-0.8-2.3-2.5-0.9-3.5 0-0.7-0.8-1.3-1.3-1.6m-2.8 32.6-1.8 1.5c-0.9-0.9-1-2.1-1.8-3 1.1-0.6 0.8-2.7 2.2-2.7 1.4 0.9 2 2.7 1.4 4.3m-4.4-22.2c-1.4 0-0.3-1.8-1.2-2.3l-1.3 1c-0.3-0.7-0.2-2.1-1.3-2.2 1.4-0.9 1.6-2.8 2.6-3 0.8 0.8 0.2 2 1.4 2.6-0.1 1.3 1.1 2.9-0.2 4m1.8-38.3c0.6 0.2 0.6 0.9 0.2 1.1h-1c-0.2-0.7 0.2-1.1 0.8-1.1m1.7 35.5c-1.2-1.2-1.3-3.4-1.2-5 0.7 1.4 2 3.4 1.2 5m-0.4-32.4 0.6 0.9c-0.1 0.3-0.5 0.1-0.8 0.1-0.3-0.2-0.1-0.8 0.2-1m7.8-5.6c0.8 0.2 0.8 1.5 0.4 2-0.2-0.1-0.3 0.1-0.4 0.2-0.5-0.5-0.5-1.8 0-2.2m4.2-4.4c1.5-0.6 2.6-1.2 3.8-2.1 1.9-1.1 2.9-2.8 4.6-4 0.7-0.1 1.4 0.4 1.6 1 0.3 1.6-0.9 2.7-1 4.1-2-0.6-3 1.8-5 1.2l-2.2 4.2c-1 0.5-2.9-1.8-3.5 0.5-0.5-0.2-0.9-0.5-1.2-0.9 0.4-1.7 3.2-1.8 3-4m5.2 37.2c1.2-0.1 1.2-1.8 2-2 0.2 1.6 0.6 3.8-1 4.7h-0.8c-0.4-0.8-0.1-1.8-0.2-2.6m-38.7 48.7c-1.2-0.9-5-0.7-3.2-3.7 0.9 0.4 2.7 0.4 3.2 1.8zm-6.2-72.7c0.9 1.3-0.7 2.5-1.2 3.7-0.7-0.1-1.7-0.6-1.6 0.6 0.1 0.8-0.2 1.3-0.9 1.8-0.3 0.1-0.6-0.1-0.8-0.3 1.2-2.8-0.2-6.9 3.6-8-0.4-1-1.7-1.7-2.6-1-0.5 2.3-2.6 0.6-3.4 2.5 0.2 1 0.4 2.6-0.2 3.5-1.1 0.2-0.3-1.1-0.8-1.4-1.1 0.3-1.7 1.6-2.6 0.8-0.7-0.2-0.3-0.9-0.3-1.3 1.4-1.2 1-4 3.3-4 3 1.5 1.7-2.8 3.8-2.9-0.1-2 1.4-3.3 1.4-5.3 0.8 0.3 1.2 1.2 2.3 1l0.3-2.2 1.5 1.5c-1 0.8-2.2 2.4-1.8 3.5 1.3-0.1 2.3-1.7 3.3-1.5 0.8 1.2-0.2 2.6-1.3 2.9-3.2 0.7-1.1 4.1-2 6.3m-12.8 4.3c-0.5 0.2-0.5-0.3-0.9-0.6 0.2-2.4-2.7-4.4-2-7 1.2-0.4 1 1.2 2 1.1 1 1.1-0.1 4 2.4 4.2 0.3 1.2-0.7 2-1.6 2.2m-1.2 0.4-0.4 0.3c-0.4-0.3-0.9-1.5 0-1.8 0.8 0 0.3 0.9 0.4 1.4m-2.2 11c-1.2 0.6-0.8-1.5-1.5-2 0.9-1 0.2-2.4-0.1-3.4-0.4-0.8-1.3-0.3-2-0.5-0.6 0.3-0.5 1-1 1-0.3-0.3-1-0.8-0.4-1.1 2.1 0.1 1.3-2.2 2.5-3l0.2-1.2c0.3 0.1 0.7 0.2 1 0.2 1 1.2-0.3 2.7 0.4 4.1 0.5 1.9 1.1 3.9 0.8 5.9m-11-0.2c-0.2-0.4-0.8-1.1 0-1.5 1.3-0.3 0.5 1.1 1 1.7-0.2 0.3-0.8 0.1-1-0.2m-2.2 1.3c-0.1 0.1-0.4 0.6-0.8 0.4l0.2-3.5c2.1 0 0.2 2.2 0.6 3m-2.8 3.6v-1h0.2v1zm-2.5 1.4h-0.3c-0.3-1.1 0.3-2.5 1.6-2.1 0.8 1.1-0.8 1.4-1.2 2.1m-6.1 5.2c-0.3 0.1-0.7 0.3-1 0.2-0.4-0.9 0.2-1.8 1.1-2.4 1 0.4-0.3 1.3-0.1 2.2m-12.6 8.2c-1.1-2.5 2-1.8 2.4-3.4l0.3 0.4c-1.4 0.5-1.7 3-2.7 3m84.9-80.5c0.6 0.2 0.8 1 0.8 1.8l-0.1 0.3c-0.9-0.1-1-1.3-0.7-2m15.7-11.9v1h-0.4v-1zm1-1.5c0.5 0.3 0.7 0.8 0.6 1.4-0.2 0.2-0.4 0.5-0.8 0.3 0.1-0.6-1.1-1.6 0.2-1.8m3 37c1.6 0.7 2.1 2.7 2.3 4 0 0.6-0.3 1-0.8 1.5-1.9-0.4-1.7-2.6-2.2-4zm8.8-45.5c-0.1-0.6-0.9-1-1.7-0.9-0.3 1.8-2.9 1.5-2.8 3.5-0.4 0-1.2 0.1-1.3-0.4-0.9 0.5-1.9 1.8-2.2 2.8l3.8-1.7c1.7-0.9 1.6-4 4.2-3.3M116.9 241.6 116.9 241.6" fill="#0059ab"/>
 <path xmlns="http://www.w3.org/2000/svg" d="m116.9 241.6a138.9 138.9 0 0 0 223.5 147.7 97.5 97.5 0 0 1-137.5-115.2 45.4 45.4 0 0 0 12.3-77.6l-94.9-62.4-4.4-2.3c-2.1 1.4-2.5-2.2-4.8-1.2-0.4-2.8-3.2-1.4-4.4-3.5-0.6 1.2-2.3 0.5-3 1.5 1.8 1.4 0.2 3.4-0.2 5-1.2-0.1-2.8 0.8-3.8-0.4-0.4-0.2-1.6-0.5-1.8 0.2l0.4 0.4c0.9-0.6 0.9 1.1 2 0.9 2.5 0.1 3.6 2.7 6 2.5 2 2.1-0.2 3.9-1.2 5.7 0.7 1.9 3.4 1.7 3.5 3.4 0.4 1.4-0.6 2.3-1.6 3-1.6 0.8-2.1-0.4-3.2-0.8-0.7-2.1-4.2-0.5-3.5-3.5l-1.2 0.7c-2.1 0.6-1.8-2.4-2.6-3.6l-0.3 0.4c-2.6 1.4-3.3-2.1-4.7-3.2-0.8-0.9-1.1 0.7-2 0.6-0.9-0.6-1.9-1.7-2-2.9-1.5-1.3-1.9-4-3.1-5.5-0.1 1.3 0.3 3.5-1.2 4.4l-1.8-1.5c-0.1-1-0.9-2.7 0.6-3.4 0.2-1.2-1-1.2-1.6-2.1-2.6 0.2 0.8 3-2 3.8-2.3-1.2-2.6-3.5-4-5.4-2.6 2.5-2.5-1.9-4-2.4 1-0.8 0.5-1.6 0.6-2.6-0.3-0.1-0.6 0.2-0.8 0.5-0.6 2.7-2.1-0.1-3.5 0.5-0.1-0.2-0.4-0.3-0.3-0.5-0.4-2-2-1.1-3.5-1.7l2 2.7 0.4-0.5c2.2 1.6 5.5 2.5 6.5 5.3 2-0.7 3.2 1.7 4.4 3-0.2 1.2 0.9 1.7 2 1.4 1.4 0.1 0.4 1.6 0.8 2.4 0.6-0.3 1-0.8 1.8-0.5 0.8 0.6 1.4 1.4 1.5 2.3 1.2-0.5 2.1 0.9 3.1 1.2 1.4 0.2 0.7 1.9 0.4 2.7 0.7 0.1 1.1-1.4 2.2-1.2 1.2-0.6 1.3 0.8 1.3 1.5-1.5 1.5-3.1 3.2-5 4.3 0.9 0.3 0.4 1.2 0.9 1.8-0.4 0.8-0.8 2.3-2 2v0.4c-1 0.9 0.4 4.6-2.6 3.5l0.2 2.2c0 2.2 2.7-0.2 2.2 2.2 0.8 0.2 1.6 2 2.8 1.2 0.2-0.9 0.4-1.5-0.2-2.2-0.4-1.5-0.3-4 1.8-4-0.5-1-1.8-0.1-2.1-1.2-0.5-1.5 0-3.8 2-4.4-0.1-1.4-0.1-3.1 1.3-4.1 1.7-2.4 3.1 0.9 4.7 1 0.6 0.8-0.9 1.6-0.3 2.4 0.9 0.1 1.7-1.4 2.8-1.4 2.2 2.2 0.6 5.2-0.4 7.5 0.3 0.2 0.3 0.9 0.9 0.6 1-0.4 0.3-1.7 0.5-2.6 0.2-1.1 1.4-1.4 2.2-1.8 1.5 0.6 3.2 1.1 4.2 2.6 0.6-0.1 1.4-0.8 1.8 0.2-0.8 2.2 2.7 1.8 1.6 4.2 0.3 0.9 1.2 0.7 1.8 0.2 1.1 0.7 1.8-1.3 3-0.6-1.1 2.7 2.8 0.3 2 2.9 0.3 1.8 1.8 1.7 2.9 2.3 0.4 1.3 0 3.1-1.2 3.5 0.6 0.5 1.5-0.5 2 0.4 1 2.5-1.8 2.5-2.6 3.8-0.5-0.7-1-0.1-1.3 0.4-1.6-0.4-1-2.4-2-3.5-1.9 0.7-2.5-3.3-4-1-1.1 0.1-2-0.1-2.7-0.5-3.1 0.8 1 3-2 4.2-2.6 1-1.7-2.4-3.2-3-1.1 0.3-0.8 2.2-2 1.6-1.2-1-0.1-2.6-0.4-3.5-0.8 1.2-2.9 1.1-3.4 2.3 0.5 1.1 0.8-0.4 1.6 0 0.9 0.6-0.1 1.9 0.8 2.5 1.7-1.1 1.8 1 2.7 1.8 0.4-0.5 1-1 1.8-1.2 0.9 0.1 1.6 1.2 1 1.9 0.1 2.9 2.7 0.4 4 1.5 4-1.2 3.6 3.7 5.5 5.6 1.9-0.8 1.2-3 3-3.8 0.6-0.7 2.2-0.9 2.7 0.2l-1.7 2.2c-0.6 0.1-0.9-0.4-1.3-0.5-0.1 1.3 0 2.2 0.6 3.5-0.4 0.8-1.4 1.5-2.3 1.5-3.3-1.9-2 2.9-4.5 3.2l1.6 1.3c-0.6 0.8-1.4 1-2.3 1-0.7-0.1-1.5-0.4-1.5-1.1 2.2-1.3 1-3.3 0.8-5.2 0.2-1.3 1.6-0.6 2.2-1l-1.6-1.4c-2.1 0.9-3.1-1.9-5.3-0.6-2.1-2-3.6 1.1-6 0.3-0.9-0.1-0.9-1-0.8-1.8 0.1-0.6-0.5-1-1-0.8-0.8-1.2-3.8-0.7-2.6-2.8-0.3-1.6-1.6-0.4-2.6-0.8-1-0.2-2.3-1-1.8-2.5-1 1.2-1.2-0.8-2.2-0.4-4.1 1.6-3.5-3.5-7-3.8-0.5 0.7-1 0.3-1 1.2 0.2 1.6 1.1 0.6 2.3 0.6 1.7 0.7 2.3 2.7 3.1 4.2-0.6 0.9-2.1 1.6-1.6 2.8 0.2 0 0.7 0.2 0.8-0.1 0.6-0.6 1.4-0.1 1.7 0.6 0.9 2.1-1 3.3-2.5 4.8-2.6-0.1-5.3 0.9-7.5 2.2-1.2-0.2-2.3 0.2-3 1.2-2.4-0.5-0.7-2.7-1.5-3.8-1.4-1.8-2 0.8-3.5 0.8-0.7-1.1-0.3-2.1-0.5-3.2-1.8 0-2.1-1.6-3.5-2.4-2.5 0.7-1.1-2.9-3.1-3-3.5 2.9-4.4-2.4-6.4-3.1l-1 0.9c-1.2-0.9-2.1 2.1-2.8 0 1.3-3-2.2-3.3-3-4.9-1.3 0.4-2.5 2.6-4 1.3-1-1.1 0-2.6 0.4-3.5-0.1-0.9-1.4-2.1-2.1-1 2.7 1.5-0.8 2.9-0.7 4.5 1.1 1.6 2.7 0.9 3.5 2.2-0.4 0.7-1 1.2-1.8 1 0 0.4-0.3 1.1 0.3 1.5 0.4-0.1 0.7-0.6 1-0.9 1.7-0.1 1.8 1.9 2.8 2.2 0.4 1.5 2.4 0.7 2.9 2 3.9-1.1 1.9 3.7 3.5 4.8-0.6 3.5 2.6-0.1 4 1 1.2 1 0.8 2.7 1.2 4-0.9 0.9-2 0.9-3 1.4-1-0.2-0.6-1.3-1.2-1.8-0.6 2-2.2 0.1-3.2 1.6-1.2-0.7-0.1-2.2-1-3-1.9 0.1-1.1-3.5-3.2-2.4-0.5-0.4-1.2-0.5-1.1-1.2-1.8 0.6-2.6-2.6-4.6-1.4l3.2 3c2.3-0.8 1 1.9 2.8 2.7-0.9 1-1.9 1.8-3.2 1.8-0.6 0.9-2.3-0.2-2.3 1 1.6-0.1 3.1 0.8 4.2 1.6 0.9-0.4 2.2-0.8 2.6-1.8 0.9-0.3 2.2-0.3 2.6 0.8-0.6 0.8-1.2 1.4-1 2.6 0 1.4-1.7 0.9-2.1 1.6 2.5 0.5 1.3 4.4 4.3 4.8 1.3 0.3 1.5 1.8 3 1.8 1.5 2.5 4.3 3.8 6 5.4 1.7-0.3 0.8 2.1 2.2 1.6 1.8-0.1 1.8 2.2 3.5 2.4 0.7 2.1 1.9 0 3.2 1 0.5 1.8 1.3 2.7 2.8 4 2-0.7 1.7 2.8 3.4 1.6 0.2 1.7 2.5 2.1 2.8 3.6zm-11-109c-0.5-0.2-0.8-0.5-0.8-1-0.4-1 1.3-1.6 1.3-0.4 0.1 0.7-0.1 1-0.6 1.4m-22 19.7c-0.6-0.1-0.4-1.2-0.2-1.5 0.3-0.1 0.5 0.2 0.7 0.3-0.1 0.4 0 1-0.4 1.2m29.8 0c-1.2 1.4-2-1.2-3.3 0.2-1 0.5-0.9-0.7-1.1-1.2 0.1-1.5-0.6-4.3 1.3-4.8 1.3 1.5 2.9 2 4.2 3.4 0 1-0.3 1.8-1.2 2.4m-71.5 14.2h-0.7v-1.2c0.4-0.1 0.7 0.1 0.9 0.5-0.1 0.2 0.1 0.5-0.2 0.8m7.8 4v-0.8c0.2 0.1 0.2 0.3 0.2 0.6zm1.4 2c-1-0.4-0.3-1.5-0.2-2.2 0.4-1.7 2.2-0.5 2 0.8 0.5 1.7-1.5 0.5-1.8 1.5m-7 8c-0.3 0-0.5-0.4-0.7-0.5l0.4-0.6c0.1 0.1 0.2 0.2 0.3 0.2 0 0.2 0.2 0.6-0.1 0.8m15.8 7.5c-0.1-0.4-0.5-1-1-1.2-1.1 0.8-2.4-0.3-2.4-1.3l0.4-1.4c1.2 0.8 3 0.2 4.4 0 0.3 2.9 5 1.4 3.5 4.7-2 1.6-2.9-0.6-4.8-0.8m8.5 15.4c-0.8 0.9-2 0.3-3 0.8-0.4-1.1-0.7-2.3-0.6-3.5 1.9-3.1 5.7 0.1 3.5 2.7m3.2-10c-1.1 1.8-2.6-1.1-3.5 1-0.3-0.5-1-1.8-2-1.3-0.8-2 1.7-2.4 2.6-3.5 1.1 1 3.6 1.8 3 3.8m2.6 2.8c-0.4-0.2-0.8-0.8-1.4-1 0.2-0.6 1.8-2.6 2-0.6-0.1 0.6 0.2 1.4-0.6 1.6m-1.4-10.8c-1.4 0.3-4.9-0.2-3.7 2.3-0.3 0.9-1.2 1.3-2 1-0.3-2 0.2-4.2 1.8-5.5 3 1.4 4.2-3.5 6.8-2 1-0.6 3.9-1.8 3.5 0.8-0.5 3.1-4.3 2.1-6.2 3.5m6.6 1.2c-0.3 0.5-0.8 0.7-1.3 0.6l-0.5-0.5c0-0.7 1.8-1.3 1.8-0.1m0 24.8c-0.9 0.1-0.9-1.1-0.6-1.7 0.4-0.6 1 0.2 1.2 0.7 0.2 0.4-0.5 0.7-0.7 1m-1.2-10.6c-0.3-0.7-0.1-1.7 0.7-2.1 0.6 0.6 1.7-1.1 2 0.4 0.1 1.7-1.8 1.1-2.6 1.8m6.2-14.6c-0.7 0-1.6-0.3-1.2-1.2 0.7-0.5 1.4-1 2-1.4 0.3 0.8 0 1.9-0.8 2.6m1.8-5.7h-0.6c-0.9-2.4 1.6-3.1 2.8-4.2 0.4-0.1 0.6 0.1 0.8 0.4 0.4 2.7-3.1 1.4-3 3.8m8.2 18.6c-1.2 0.3-1.1-0.4-2.2-0.4-0.1-0.9-1.2-0.8-1.1-1.7 0.4-0.5 1 0 1.4 0.5l1.4-1.8c-0.1 1 1.9 2.6 0.6 3.4m30.7-38.3 1.3 0.1c0.3 0.8-0.4 0.8-0.8 1h-0.6zm1.3 23.3h-0.6c0-0.6-0.1-1.6 0.8-1.4 0.4 0.4 0 1-0.2 1.4m0-8.8c-1.2-0.8-1.4-2.2-1.6-3.5 1-0.6 0.8-2.9 2.3-1.9 0.8 0.8 0.2 2.1 1.5 2.7-0.1 1.2-1.5 1.8-2.2 2.7m-76.7-59.5h0.6c1.2-0.6 0.7-1.8 0.7-2.7 1-0.2 1.8-2.1 3-0.8 0.2-0.2 0.8-0.3 0.6-0.8l-0.3-0.4c-2.1 0.9-4.2 0.8-5.9 1.7l1.5 0.8c0.3 0.3 0.2 1.6 0 2.2m31.5-3.9-0.3-0.4c-1 1.1-2 1.8-3.5 2.2-1.2-0.6 0-2.2-1-2.6l-0.2 3.7 0.5 0.3c0.4-2.6 4-0.7 4.5-3.2m-24 6.9c2.1 0.4 0.9 2.6 1.5 3.5 1-0.5 1.3-2 2-3-2.3-1.3 1.1-3.3-0.6-5-1.4 0.4-2.2 0.7-3.6 1v0.5c0.3 0.3 0.9 0 1.2 0.3 1.1 0.9-0.6 1.8-0.5 2.7m27.5-3.9-0.4 0.2c-0.2 2-1.8 3.4-2.4 4.7l2.2-0.3c-0.7-1.7 1.1-3.3 0.6-4.7m3 7.9 0.2-0.2c1.2-0.9 2.1 0.5 2.6 1.4 1.9-0.4 0.8 2 2.2 2 0.2-0.1 0.2-0.3 0.2-0.6 0.8-1.2 2.1-2.3 3.8-1.4 2.9 0.9 1.2 3.9 1.5 6-0.2 0.7-1.2 1.1-0.7 1.9 0.2-0.4 0.6-0.4 0.8-0.5-0.1-2.3 2.9-3.5 2-5.8-0.4-0.3-0.5 0.4-0.9 0.3-1.4-0.9-1.5-2.7-1.6-4-0.6 0.8-1.8-0.1-2.3 1-1-0.1-1.3-1.2-1.2-2.1-1-0.2-1.5-1.5-2.4-1 0.9 0.3 0 1 0 1.6-0.4 0.1-0.5-0.2-0.8-0.5 0-0.4-0.2-1 0.1-1.3 0.7-2.6-2.5-1-2.7-3l-1.2 2.2c1.3 1 2.1-1.3 3.2 0 0.6 1-1.1 1.2-1.6 2-0.3 0.8-1.8 0-1.8 0.6-0.5 0.5-0.2 1.6 0.5 1.4m-45.7 4.4c0-1.6-2.2-0.9-2.8-2.3l-0.5 0.8c1.4 0.2 1.7 2.3 3.3 1.6m10.3 2c0.4-0.1 0.2-0.6 0.2-0.8-0.4-0.2-1.4-0.5-1.4 0.2 0.4 0.4 0.6 0.8 1.1 0.6m4.2 2v0.9h0.4v-0.9zm-5 3.2c0.6-0.2 0.7-0.3 0.7-1 0.1-0.6-0.5-0.9-1-0.8-0.4 0.5-0.5 1.6 0.3 1.8m2.8 1.5c0.2 0.1 0.3 0.4 0.7 0.3 0.2-0.3 0.8-0.4 0.6-1-0.5 0-1.1 0-1.2 0.7m42.6-0.4 0.3 0.5c0.1-0.1 0.3-0.2 0.2-0.3-0.1-0.3-0.3-0.2-0.6-0.2m-37.4 3.5c-0.3 1 0.5 2.1 0.8 2.9 0.8 0.4 1.6 1.3 2.4 0.8-0.1-0.3 0.2-1.1-0.4-1-2.2 1.6-1.4-2.1-2.8-2.7m18 8.5-1.6 1.8c-1.8-0.5-4.1 0.1-4.4-2.2-0.6 0.3-1.4-0.6-1.8-1-1 0.3-2.6-1.4-2.6 0.5h1c0.8 1.4 2.1 0.9 3.5 1.6-0.9 3.7 4.4 0.8 4.5 4.2 0.8 0.5 1.6-0.1 2.3-0.2l-0.2-1c-1.3-0.7-0.7-2.5-0.8-3.5m35.7 3.5h-0.5l0.2 0.6zm-88.2 1.3c-0.7 1.4 0.9 1.7 1.6 2.5 1-1.1-1.1-1.5-1.6-2.5m21.7 3.2v-0.8c-1-0.6-2.5-1.4-3.4-0.5 0.3 1.8 2.2 1.4 3.4 1.2m-9 4.2c-0.4-0.3-0.5-0.8-0.8-1.2-0.8 1.2-1.5 0.7-2.6 0.8-1.5-0.9-2.6-2.7-3-4.4-1.1 1.1-1-1.3-2-0.7 1 1.1-1.1 3.3 1 3.5 1.9 0.9 2.9 2.6 3.2 4.2 1.2 0.3 0.6-1 1.5-1.2 0.9-0.3 1.2 0.6 2 0.6 0.9-0.2-0.1-1.5 0.8-1.6m54 0.8-1-0.5c-1.5-1.3 0.1-2.9 0.2-4.4 0-1.5-1.7-0.5-2.3-0.2-0.3 2.1 1.7 4.2-0.2 6 0.8 1.4 2-1 3.2-1m-26-4.2c-0.5 0.8-0.2 1.8 0.6 2.2 0.9 0.3 1.2-0.6 0.9-1.2-0.2-0.7-0.9-1.1-1.5-0.9m31.5 2.7c0.3-2.2-2.6-3.1-3-1l1.4 1.7c0.7 0 1.2-0.1 1.6-0.7m-34.7 0.9c0 0.3 0.1 0.7 0.5 1 0.4 0.2 0.6-0.4 0.9-0.7 0.2-1-0.9-0.7-1.4-0.3m46.6-0.2c-0.7-0.4-1.1 0-1.7 0.2-0.3 0.4-0.3 1.7 0.7 1.6 0.2-0.5 1.5-0.9 1-1.8m-56.2 3.5c0.8-2.1 2.6 0.7 3.8-0.8v-0.8c-2.4-1.8-5.1 0.7-7.5 1zm17.8-2c-0.3 2.6-5.1 2.1-2.2 5 0.7-0.2 1.8-0.2 1.8-1.3-1.6-1.5 1.3-2.4 0.4-3.7m1.6 0.4v0.6h0.2v-0.6zm-7.1 3.5h-0.7c-1.6 2.1-3.2-0.7-5 0.4v0.4c2.7 0.8 0.6 4.9 3.2 4.4 0.9-0.3 1.2-1.5 1-1.8-2.7-1.8 1.5-1.9 1.4-3.5m-36.9 4 0.7 1.5c0.3 0 0.8-0.1 1-0.5 0.4-1.2-0.8-1.9-1.7-0.9m4.4 1.8-0.8 1c0.9 1.3 2.7 2.3 4.2 2.7 0-0.8-0.1-1.4-0.7-1.8-1.8 0.6-1.3-2-2.7-1.9m40 0.2c-0.7 0.7-1 1.8-0.6 2.7 0.1 1.1-1.1 1.1-1.9 1.4-1.3-0.8-1.2-2.3-1.8-3.3-0.8 0-1.4 0.4-2 1-0.4 0.6-0.8 1.4-0.3 2 2.1-1.8 3.9 2 6 1.2 0.3-1 0.8-1.7 0.3-2.8-0.2-0.9 1.3-1.7 0.2-2.2m-6.8 4.4 0.2 0.8 0.1-0.2c0-0.2-0.1-0.7-0.4-0.6" fill="#009961"/>
</svg>