<?xml version="1.0" encoding="UTF-8"?><svg width="455" height="442" viewBox="23 29 455 442" xmlns="http://www.w3.org/2000/svg" xmlns:xlink="http://www.w3.org/1999/xlink">
 <defs xmlns="http://www.w3.org/2000/svg">
  <path id="e" d="m364.7 104.9c-8.5 0-17.1 0.8-25.9 2.6 37.2-3.6 71 11.2 91.4 44.7 37.9 62.2 14.8 165.4-51.6 230.5-66.5 65-151.1 67.4-189 5.1-4.2-6.9-7.7-14.3-10.4-22.1-0.2-0.6-0.5-1.3-0.7-1.9-9.8-29.6-9.3-64.7 0.1-99.5-11.2 32.6-15.5 66.1-11.9 96.5 0.2 1.3 0.4 2.7 0.6 4 0.7 5.4 1.7 10.7 3 15.8l0.3 1c3.3 13.3 8.4 25.7 15.2 37 42.4 69.5 136.9 66.9 211.1-5.8s100.1-188 57.7-257.5c-20.5-33.6-53.2-50.3-89.9-50.4zm-22.6 12.8c-4.2 0-8.4 0.2-12.7 0.7l0.3 1c26.2 0.1 49.5 12.1 64.2 36.1 30.3 49.8 11.8 132.4-41.4 184.4-53.1 52.1-120.9 53.9-151.2 4.2-16.3-26.8-18.5-63-8.8-98.8-15.1 44.1-14.4 90.3 5.8 123.4 33.9 55.6 109.5 53.5 168.9-4.7 59.4-58.1 80.1-150.3 46.2-205.9-16.3-26.7-42.2-40.1-71.3-40.4zm-9.3 17.5c0.1 1.3 0.3 2.7 0.5 4 11.3 4.3 21.2 12.2 28.3 23.8 23 37.9 9 100.6-31.5 140.2-40.4 39.6-91.8 41-114.9 3.2-12.4-20.4-14-47.9-6.7-75.1-11.5 33.6-10.9 68.6 4.4 93.8 25.8 42.3 83.3 40.7 128.4-3.5s60.9-114.3 35.1-156.6c-10.3-17-25.9-26.9-43.6-29.8z"/>
 </defs>
 <use xmlns="http://www.w3.org/2000/svg" xmlns:xlink="http://www.w3.org/1999/xlink" xlink:href="#e" fill="#00a650"/>
 <use xmlns="http://www.w3.org/2000/svg" xmlns:xlink="http://www.w3.org/1999/xlink" xlink:href="#e" fill="#254aa5" transform="rotate(180 250 250)"/>
</svg>