<?xml version="1.0" encoding="UTF-8" standalone="no"?>
<!-- Created with Inkscape (http://www.inkscape.org/) -->

<svg
   xmlns:dc="http://purl.org/dc/elements/1.1/"
   xmlns:cc="http://creativecommons.org/ns#"
   xmlns:rdf="http://www.w3.org/1999/02/22-rdf-syntax-ns#"
   xmlns:svg="http://www.w3.org/2000/svg"
   xmlns="http://www.w3.org/2000/svg"
   xmlns:sodipodi="http://sodipodi.sourceforge.net/DTD/sodipodi-0.dtd"
   xmlns:inkscape="http://www.inkscape.org/namespaces/inkscape"
   width="379.99994"
   height="382.20074"
   id="svg2"
   version="1.1"
   inkscape:version="0.48.4 r9939"
   sodipodi:docname="Symbol of Matsuura Nagasaki.svg">
  <defs
     id="defs4" />
  <sodipodi:namedview
     id="base"
     pagecolor="#ffffff"
     bordercolor="#666666"
     borderopacity="1.0"
     inkscape:pageopacity="0.0"
     inkscape:pageshadow="2"
     inkscape:zoom="1.9440046"
     inkscape:cx="189.99998"
     inkscape:cy="191.10038"
     inkscape:document-units="px"
     inkscape:current-layer="layer1"
     showgrid="false"
     inkscape:window-width="1280"
     inkscape:window-height="961"
     inkscape:window-x="-4"
     inkscape:window-y="-4"
     inkscape:window-maximized="1"
     fit-margin-top="0"
     fit-margin-left="0"
     fit-margin-right="0"
     fit-margin-bottom="0" />
  <metadata
     id="metadata7">
    <rdf:RDF>
      <cc:Work
         rdf:about="">
        <dc:format>image/svg+xml</dc:format>
        <dc:type
           rdf:resource="http://purl.org/dc/dcmitype/StillImage" />
        <dc:title />
      </cc:Work>
    </rdf:RDF>
  </metadata>
  <g
     inkscape:label="レイヤー 1"
     inkscape:groupmode="layer"
     id="layer1"
     transform="translate(-91.202577,-277.4634)">
    <g
       id="g3767"
       transform="matrix(1.0215734,0,0,1.0215734,-1.9675867,-14.231466)">
      <path
         transform="matrix(1.017721,0,0,1.0980674,-10.556757,-42.661291)"
         d="m 382.49018,335.31293 c 0,20.11842 -17.59678,36.42763 -39.3035,36.42763 -21.70673,0 -39.30351,-16.30921 -39.30351,-36.42763 0,-20.11843 17.59678,-36.42764 39.30351,-36.42764 21.70672,0 39.3035,16.30921 39.3035,36.42764 z"
         sodipodi:ry="36.427635"
         sodipodi:rx="39.303501"
         sodipodi:cy="335.31293"
         sodipodi:cx="343.18668"
         id="path2996"
         style="fill:#f7141e;fill-opacity:1;fill-rule:evenodd;stroke:none"
         sodipodi:type="arc" />
      <path
         sodipodi:nodetypes="csssccsc"
         inkscape:connector-curvature="0"
         id="path2984"
         d="m 241.89953,444.82591 c 11.3421,-16.71991 47.70797,-78.35603 23.40734,-115.46374 -31.0344,-47.39036 -106.11584,-14.3403 -141.70386,32.06438 -32.684322,42.61841 -51.711989,111.26026 -2.06867,155.15022 68.34081,60.42052 172.21599,-9.09826 192.38627,-53.78541 -32.32189,20.05287 -108.06132,50.50632 -140.15237,-5.68884 -14.56354,-19.95034 -10.3602,-74.84689 20.16953,-85.33262 63.09443,-21.67038 55.96113,60.42098 47.96176,73.05601 z"
         style="fill:#1db649;fill-opacity:1;stroke:none" />
      <path
         sodipodi:nodetypes="cssscssc"
         inkscape:connector-curvature="0"
         id="path2986"
         d="m 241.95785,444.7558 c 0,0 33.32484,-39.06878 101.4413,-59.02238 41.3064,-12.10003 88.56406,-1.3282 112.74249,47.06223 30.10262,60.24705 -41.38629,160.46597 -119.46567,199.10944 -66.12991,32.72938 -146.6903,45.60519 -195.48928,-12.92918 49.58101,8.66792 86.3136,-5.24947 135.49786,-45.51073 32.25838,-26.40607 63.85053,-57.44826 68.61869,-97.45663 7.37443,-61.87695 -67.0479,-49.35437 -103.34539,-31.25275 z"
         style="fill:#008dd6;fill-opacity:1;stroke:none" />
    </g>
  </g>
</svg>
