<?xml version="1.0" encoding="UTF-8" standalone="no"?>
<!-- Created with Inkscape (http://www.inkscape.org/) -->

<svg
   xmlns:dc="http://purl.org/dc/elements/1.1/"
   xmlns:cc="http://creativecommons.org/ns#"
   xmlns:rdf="http://www.w3.org/1999/02/22-rdf-syntax-ns#"
   xmlns:svg="http://www.w3.org/2000/svg"
   xmlns="http://www.w3.org/2000/svg"
   xmlns:sodipodi="http://sodipodi.sourceforge.net/DTD/sodipodi-0.dtd"
   xmlns:inkscape="http://www.inkscape.org/namespaces/inkscape"
   width="380"
   height="380.00003"
   id="svg2"
   version="1.1"
   inkscape:version="0.48.4 r"
   sodipodi:docname="Symbol of Saikai Nagasaki.svg">
  <defs
     id="defs4" />
  <sodipodi:namedview
     id="base"
     pagecolor="#ffffff"
     bordercolor="#666666"
     borderopacity="1.0"
     inkscape:pageopacity="0.0"
     inkscape:pageshadow="2"
     inkscape:zoom="0.88948278"
     inkscape:cx="163.19006"
     inkscape:cy="135.28121"
     inkscape:document-units="px"
     inkscape:current-layer="layer1"
     showgrid="false"
     inkscape:window-width="1280"
     inkscape:window-height="961"
     inkscape:window-x="-8"
     inkscape:window-y="-8"
     inkscape:window-maximized="1"
     fit-margin-top="0"
     fit-margin-left="0"
     fit-margin-right="0"
     fit-margin-bottom="0" />
  <metadata
     id="metadata7">
    <rdf:RDF>
      <cc:Work
         rdf:about="">
        <dc:format>image/svg+xml</dc:format>
        <dc:type
           rdf:resource="http://purl.org/dc/dcmitype/StillImage" />
      </cc:Work>
    </rdf:RDF>
  </metadata>
  <g
     inkscape:label="レイヤー 1"
     inkscape:groupmode="layer"
     id="layer1"
     transform="translate(-190.00826,-437.96711)">
    <path
       style="fill:#0c419a;fill-opacity:1;stroke:none"
       d="m 380.00826,437.96711 c -104.93467,0 -190,85.06533 -190,190 0,104.93467 85.06533,190.00004 190,190.00004 104.93467,0 190,-85.06537 190,-190.00004 0,-104.93467 -85.06533,-190 -190,-190 z m 7.08859,17.12266 c 33.3707,0 60.39863,9.45826 60.39863,21.10391 0,11.64566 -27.02793,21.07155 -60.39863,21.07155 -33.37071,0 -60.43101,-9.42589 -60.43101,-21.07155 0,-11.64565 27.0603,-21.10391 60.43101,-21.10391 z m -83.99489,36.57581 c 33.85304,0 61.30494,14.51664 61.30494,32.4327 0,17.91607 -27.4519,32.43271 -61.30494,32.43271 -33.85305,0 -61.27258,-14.51664 -61.27258,-32.43271 0,-17.91606 27.41953,-32.4327 61.27258,-32.4327 z m 76.12947,56.87052 c 33.53148,0 60.72232,20.39059 60.72232,45.54174 0,25.15115 -27.19084,45.54174 -60.72232,45.54174 -33.53148,0 -60.72232,-20.39059 -60.72232,-45.54174 0,-25.15115 27.19084,-45.54174 60.72232,-45.54174 z m 74.80238,78.3305 c 33.53148,0 60.72232,26.10163 60.72232,58.32708 0,32.22545 -27.19084,58.35946 -60.72232,58.35946 -33.53148,0 -60.72231,-26.13401 -60.72231,-58.35946 0,-32.22545 27.19083,-58.32708 60.72231,-58.32708 z m -82.37649,101.89438 c 33.20993,0 60.1397,15.69143 60.1397,35.05447 0,19.3631 -26.92977,35.0546 -60.1397,35.0546 -33.20992,0 -60.13969,-15.6915 -60.13969,-35.0546 0,-19.36304 26.92977,-35.05447 60.13969,-35.05447 z"
       id="path3764"
       inkscape:connector-curvature="0" />
  </g>
</svg>
