<?xml version="1.0" encoding="UTF-8" standalone="no"?>
<!-- Created with Inkscape (http://www.inkscape.org/) -->
<svg id="svg4858" xmlns:rdf="http://www.w3.org/1999/02/22-rdf-syntax-ns#" xmlns="http://www.w3.org/2000/svg" height="200" width="300" version="1.1" xmlns:cc="http://creativecommons.org/ns#" xmlns:dc="http://purl.org/dc/elements/1.1/" viewBox="0 0 300 200">
 <metadata id="metadata4863">
  <rdf:RDF>
   <cc:Work rdf:about="">
    <dc:format>image/svg+xml</dc:format>
    <dc:type rdf:resource="http://purl.org/dc/dcmitype/StillImage"/>
    <dc:title/>
   </cc:Work>
  </rdf:RDF>
 </metadata>
 <g id="layer5" fill-rule="evenodd" fill="#fd0c0a">
  <path id="path5476" d="m2.2967 0h53.851l47.432 118.57-46.429 18.57z"/>
  <path id="path5478" d="m150 0h147.7l-20 50h-127.7z"/>
  <path id="path5480" d="m150 0a100 100 0 0 0 -100 100 100 100 0 0 0 92.5 99.699v-50.328a50 50 0 0 1 -42.5 -49.37 50 50 0 0 1 50 -50h86.496a100 100 0 0 0 -86.5 -50zm35.691 65a50 50 0 0 1 14.31 35 50 50 0 0 1 -42.5 49.39v50.23a100 100 0 0 0 92.5 -99.62 100 100 0 0 0 -6.46 -35h-57.854zm-35.69 5a30 30 0 0 0 -30 30 30 30 0 0 0 30 30 30 30 0 0 0 30 -30 30 30 0 0 0 -30 -30z"/>
 </g>
</svg>
