<svg xmlns="http://www.w3.org/2000/svg" width="200" height="120"><path fill="#800010" d="M198.247 69.963c-.438-9.912-5.419-19.172-11.72-25.841L150.296 8.505l-29.328 26.839 50.899 40.878c5.696 4.855 7.754 15.199.31 21.445-8.685 7.287-17.769 2.535-19.372.781l-32.03-24.586V6.092H79.581v30.054 38.45L48.686 99.197c-1.681 1.682-11.349 7.566-20.176-1.262s-4.624-17.232 1.283-21.83l49.788-39.959-24.38-26.691L12.813 47.31C.393 59.73-3.646 76.289 11.486 94.363c3.198 3.82 12.576 9.949 21.321 11.684 12.096 2.398 15.854-1.719 18.839-3.73l27.935-22.016v17.846c0 6.281 6.305 15.762 20.596 15.762 14.922 0 20.598-6.936 20.598-14.08v-19.93l28.093 21.533c2.893 2.143 7.426 5.344 17.813 4.146 8.857-1.02 17.343-7.734 20.98-11.141 8.427-7.89 10.943-16.398 10.586-24.474z"/></svg>