<?xml version="1.0" encoding="UTF-8" standalone="no"?>
<!-- Created with Inkscape (http://www.inkscape.org/) -->
<svg id="svg6166" xmlns:rdf="http://www.w3.org/1999/02/22-rdf-syntax-ns#" xmlns="http://www.w3.org/2000/svg" height="200" width="300" version="1.1" xmlns:cc="http://creativecommons.org/ns#" xmlns:dc="http://purl.org/dc/elements/1.1/" viewBox="0 0 300 200">
 <metadata id="metadata6171">
  <rdf:RDF>
   <cc:Work rdf:about="">
    <dc:format>image/svg+xml</dc:format>
    <dc:type rdf:resource="http://purl.org/dc/dcmitype/StillImage"/>
    <dc:title/>
   </cc:Work>
  </rdf:RDF>
 </metadata>
 <g id="layer9" fill-rule="evenodd" fill="#21449f">
  <path id="circle6773" d="m100 0a100 100 0 0 0 -100 100 100 100 0 0 0 100 100 100 100 0 0 0 86.52 -50.04l0.0801 0.0449 46.188-80h-57.736l-31.754 55.002-0.0391-0.0234a50 50 0 0 1 -43.26 25.02 50 50 0 0 1 -50 -50 50 50 0 0 1 50 -50 50 50 0 0 1 6.61 0.494 106 106 0 0 1 37.29 -40.207 100 100 0 0 0 -43.9 -10.287z"/>
  <path id="path6784" d="m200 200a100 100 0 0 0 100 -100 100 100 0 0 0 -100 -100 100 100 0 0 0 -86.52 50.045l-0.08-0.045-46.187 80h57.736l31.754-55.002 0.0391 0.0234a50 50 0 0 1 43.26 -25.021 50 50 0 0 1 50 50 50 50 0 0 1 -50 50 50 50 0 0 1 -6.6113 -0.49414 106 106 0 0 1 -37.285 40.207 100 100 0 0 0 43.9 10.29z"/>
  <path id="path6801" d="m84.529 80h154.03l-23.094 40h-154.03z"/>
 </g>
</svg>
