<?xml version="1.0" encoding="UTF-8"?><svg width="454" height="358" viewBox="23 71 454 358" xmlns="http://www.w3.org/2000/svg">
 <path xmlns="http://www.w3.org/2000/svg" fill="#005c92" d="m360.4 215.7c-3.2 1.6-6.5 3-9.9 4.4-21.8 8.4-51.3 14-81.7 17.4-3 13.5-7.4 27.1-13.5 40.4-34.9 76.7-109.4 118.1-166.2 92.4-22.1-10.2-39-29.2-48.7-55-14.3-38-10.9-86.9 9.1-130.9 34.9-76.7 109.4-118.2 166.1-92.4 15.5 7 28.1 18.4 37.5 32.7 9.4-2.2 19.7-4.183 31-6.3 9.6-1.8 18-3.1 25.8-4.3-12.1-11.4-26.1-21-42-28.2-83.4-37.9-184.4 4.8-225.5 95.4-41.3 90.6-7 194.7 76.4 232.6 83.4 37.9 184.4-4.8 225.5-95.4 15.4-33.8 20.3-69.5 16-103m-164.9-107.7c11.7 5.3 21.1 13.9 28.2 24.8 7.32-2.4 15.3-4.5 23.9-6.6-8.7-12.6-20.1-22.7-34.1-29.1-54-24.6-125.4 15.7-159 89.8-19.4 42.7-22.8 90.1-9 126.8 9.2 24.5 25.1 42.5 45.9 51.9 54.1 24.6 125.4-15.7 159-89.7 5.7-12.4 9.9-25.1 12.8-37.6-10.4 1.1-20.9 1.9-31.2 2.6-2.4 7.9-5.4 15.9-9 23.9-30 66-91 102.8-136.2 82.3-45.1-20.5-57.4-90.7-27.4-156.7 30-65.9 90.9-102.8 136.1-82.2"/>
 <path xmlns="http://www.w3.org/2000/svg" fill="#009cc4" d="m418 148.2c-13.4 31.8-40 55.4-69.4 67.5-31.3 13-80.5 17.7-122.1 20.7-43.3 3.2-63 4.5-81 8.5-22.9 5.1-50.7 15.4-70.1 30.7 13.8-23.9 42.9-49.5 67.4-63.3 24.5-13.8 47.1-21.2 89.4-28.4s61.2-4.5 103-11.1c41.8-6.6 67-14 82.8-24.7"/>
 <path xmlns="http://www.w3.org/2000/svg" fill="#00b9d5" d="m475 75.6c-13.8 37.8-40.8 62-70.4 75.3-32.6 14.5-81.1 20.2-127.1 24.3-45 4-64.3 6.7-83.1 10.5-20.8 4.2-52.1 14.8-76.2 35 14.8-28.6 43.2-52.4 69.1-67.3 23.8-13.7 53.6-23 97.5-31.1 44-8.1 63.1-6.4 106.5-14.6 39.7-7.5 66.1-20.7 83.7-32.2"/>
</svg>