<?xml version="1.0" encoding="UTF-8" standalone="no"?>
<!-- Created with Inkscape (http://www.inkscape.org/) -->

<svg
   xmlns:dc="http://purl.org/dc/elements/1.1/"
   xmlns:cc="http://creativecommons.org/ns#"
   xmlns:rdf="http://www.w3.org/1999/02/22-rdf-syntax-ns#"
   xmlns:svg="http://www.w3.org/2000/svg"
   xmlns="http://www.w3.org/2000/svg"
   xmlns:sodipodi="http://sodipodi.sourceforge.net/DTD/sodipodi-0.dtd"
   xmlns:inkscape="http://www.inkscape.org/namespaces/inkscape"
   width="350"
   height="350"
   id="svg2"
   version="1.1"
   inkscape:version="0.48.4 r"
   sodipodi:docname="Symbol of Nagomi Kumamoto.svg">
  <defs
     id="defs4" />
  <sodipodi:namedview
     id="base"
     pagecolor="#ffffff"
     bordercolor="#666666"
     borderopacity="1.0"
     inkscape:pageopacity="0.0"
     inkscape:pageshadow="2"
     inkscape:zoom="2.1057143"
     inkscape:cx="175"
     inkscape:cy="175"
     inkscape:document-units="px"
     inkscape:current-layer="layer1"
     showgrid="false"
     inkscape:window-width="1280"
     inkscape:window-height="961"
     inkscape:window-x="-8"
     inkscape:window-y="-8"
     inkscape:window-maximized="1"
     fit-margin-top="0"
     fit-margin-left="0"
     fit-margin-right="0"
     fit-margin-bottom="0" />
  <metadata
     id="metadata7">
    <rdf:RDF>
      <cc:Work
         rdf:about="">
        <dc:format>image/svg+xml</dc:format>
        <dc:type
           rdf:resource="http://purl.org/dc/dcmitype/StillImage" />
        <dc:title></dc:title>
      </cc:Work>
    </rdf:RDF>
  </metadata>
  <g
     inkscape:label="レイヤー 1"
     inkscape:groupmode="layer"
     id="layer1"
     transform="translate(-53.062499,-240.68749)">
    <g
       id="g3825"
       transform="matrix(1.0518407,0,0,1.0518407,-2.7507983,-30.621666)">
      <path
         sodipodi:nodetypes="ccscsc"
         inkscape:connector-curvature="0"
         id="path3810"
         d="m 343.99036,493.27081 c -12.55056,19.99581 -26.39729,43.88011 -38.94785,63.87592 -41.9153,-8.4955 -111.0744,-40.0408 -118.06039,-90.61932 -7.89271,-57.14313 43.73646,-92.89634 98.58258,-116.82373 -28.5898,28.15565 -59.7196,61.4441 -38.84092,100.23146 12.85311,23.87785 47.27689,39.50796 97.26658,43.33567 z"
         style="fill:#00b3eb;fill-opacity:1;stroke:none" />
      <path
         sodipodi:nodetypes="ccscsc"
         inkscape:connector-curvature="0"
         id="path3812"
         d="m 233.362,582.44737 c -16.01604,2.4609 -47.71952,2.43151 -67.02708,-4.89921 -23.13262,-51.39824 -27.99132,-80.80292 -26.57695,-117.40239 1.89452,-49.02418 18.94887,-101.54313 57.6769,-137.16117 -17.29962,35.72328 -26.14097,90.27583 -20.64354,134.21613 5.58907,44.67271 24.17174,75.15136 56.57067,125.24664 z"
         style="fill:#00b3eb;fill-opacity:1;stroke:none" />
      <path
         sodipodi:nodetypes="csccsc"
         inkscape:connector-curvature="0"
         id="path3814"
         d="m 83.79536,410.67135 c 16.5572,21.31324 21.45829,32.26731 22.98393,51.46948 1.42497,17.93515 -3.35093,29.53922 -24.456103,41.17416 2.736215,9.25229 11.865693,24.18021 18.958653,29.80745 24.98567,-15.22179 34.63315,-27.8289 32.9586,-57.47446 C 132.52169,445.22 111.61058,421.19785 83.79536,410.67135 z"
         style="fill:#00b3eb;fill-opacity:1;stroke:none" />
      <path
         id="path3789"
         d="m 219.4375,257.9375 c -91.89032,0 -166.375,74.48468 -166.375,166.375 0,91.89032 74.48468,166.375 166.375,166.375 91.89032,0 166.375,-74.48468 166.375,-166.375 0,-91.89032 -74.48468,-166.375 -166.375,-166.375 z m -13.3125,64.40625 c 71.45488,0 129.40625,57.95136 129.40625,129.40625 0,71.45489 -57.95137,129.375 -129.40625,129.375 -71.45488,0 -129.375,-57.92011 -129.375,-129.375 0,-71.45489 57.92012,-129.40625 129.375,-129.40625 z"
         style="fill:#4caf54;fill-opacity:1;stroke:none"
         inkscape:connector-curvature="0" />
    </g>
  </g>
</svg>
