<svg xmlns="http://www.w3.org/2000/svg" width="704px" height="576px" viewBox="0 0 704 608" version="1.1">
  <path d="M 350.877 43.409 C 350.373 44.372 345.36 55.959 339.737 69.159 C 334.114 82.359 329.177 93.52 328.767 93.96 C 328.356 94.401 323.37 95.414 317.685 96.212 C 312.001 97.009 302.372 98.848 296.287 100.297 C 290.202 101.746 280.048 104.709 273.723 106.882 C 267.398 109.054 257.153 113.241 250.956 116.184 C 244.76 119.128 235.31 124.148 229.956 127.341 C 224.603 130.533 215.844 136.402 210.493 140.383 C 205.141 144.363 196.555 151.421 191.412 156.066 C 186.269 160.711 178.229 168.932 173.547 174.335 C 168.864 179.738 162.571 187.534 159.56 191.659 C 156.55 195.784 151.574 203.246 148.502 208.242 C 145.43 213.238 141.235 220.663 139.18 224.742 C 137.126 228.821 133.483 237.038 131.086 243.002 C 128.689 248.965 125.425 258.415 123.833 264.002 C 122.241 269.588 120.657 275.397 120.312 276.909 L 119.685 279.659 L 77.192 279.659 L 34.699 279.659 L 60.961 331.633 L 87.223 383.606 L 103.283 383.633 L 119.342 383.659 L 122.529 395.225 C 124.281 401.586 127.69 411.842 130.104 418.016 C 132.518 424.189 136.606 433.449 139.19 438.593 C 141.773 443.737 146.411 452.025 149.495 457.012 C 152.58 461.999 158.417 470.477 162.466 475.852 C 166.515 481.227 174.611 490.616 180.457 496.717 C 186.303 502.818 195.617 511.456 201.155 515.913 C 206.692 520.369 215.786 527.024 221.362 530.701 C 226.939 534.379 236.932 540.156 243.568 543.539 C 250.205 546.923 260.826 551.721 267.172 554.202 C 273.517 556.683 284.765 560.265 292.167 562.162 C 299.568 564.059 307.499 565.735 309.791 565.885 L 313.957 566.159 L 329.968 528.87 C 338.773 508.361 345.717 491.319 345.398 491 C 345.078 490.681 340.859 490.026 336.02 489.544 C 331.182 489.063 324.063 488.023 320.202 487.233 C 316.34 486.444 308.69 484.383 303.202 482.655 C 297.713 480.926 287.823 476.836 281.223 473.565 C 274.623 470.295 264.973 464.591 259.778 460.889 C 254.584 457.188 245.991 449.884 240.683 444.659 C 235.376 439.434 228.283 431.435 224.923 426.883 C 221.562 422.331 216.75 414.938 214.228 410.454 C 211.706 405.97 208.086 398.76 206.183 394.432 C 204.28 390.103 202.723 385.909 202.723 385.111 C 202.723 383.863 209.107 383.659 248.117 383.659 L 293.511 383.659 L 322.746 432.197 C 338.825 458.893 352.082 480.605 352.206 480.447 C 352.33 480.289 358.347 470.365 365.577 458.394 C 372.808 446.423 378.723 436.419 378.723 436.164 C 378.723 435.909 364.934 412.854 348.08 384.93 C 331.227 357.006 310.051 321.897 301.023 306.909 L 284.608 279.659 L 243.557 279.659 L 202.506 279.659 L 203.178 276.909 C 203.548 275.397 206.091 269.447 208.831 263.687 C 211.571 257.927 216.792 248.739 220.434 243.268 C 224.124 237.726 231.742 228.47 237.639 222.368 C 243.459 216.343 252.51 208.184 257.752 204.235 C 262.993 200.286 272.223 194.528 278.262 191.439 C 284.301 188.35 292.375 184.643 296.205 183.202 C 300.035 181.76 307.456 179.508 312.696 178.197 C 317.936 176.885 325.823 175.262 330.223 174.588 C 334.623 173.915 344.523 173.371 352.223 173.38 C 359.923 173.389 369.823 173.933 374.223 174.589 C 378.623 175.245 386.498 176.891 391.723 178.246 C 396.948 179.602 404.373 181.891 408.223 183.334 C 412.073 184.777 417.923 187.29 421.223 188.919 C 424.523 190.549 429.923 193.491 433.223 195.458 C 436.523 197.424 442.546 201.472 446.608 204.453 C 450.669 207.434 457.813 213.537 462.482 218.016 C 467.152 222.494 474.535 230.884 478.889 236.659 C 484.037 243.488 489.217 252.054 493.705 261.159 C 497.5 268.859 500.887 276.171 501.231 277.409 L 501.858 279.659 L 456.358 279.659 L 410.859 279.659 L 408.946 276.909 C 407.894 275.397 394.743 253.771 379.721 228.852 C 358.074 192.941 352.164 183.815 351.225 184.852 C 350.573 185.571 344.569 195.223 337.881 206.301 C 331.194 217.379 325.723 226.877 325.723 227.408 C 325.723 227.938 341.995 255.325 361.884 288.266 C 381.772 321.207 402.81 356.133 408.634 365.879 L 419.223 383.598 L 460.473 383.629 C 483.161 383.645 501.723 383.942 501.723 384.288 C 501.723 384.633 499.966 389.021 497.818 394.038 C 495.671 399.054 492.309 405.991 490.348 409.453 C 488.387 412.915 484.419 419.215 481.531 423.453 C 478.643 427.691 470.642 436.814 463.752 443.725 C 455.533 451.969 447.969 458.452 441.765 462.571 C 436.563 466.024 428.013 471.004 422.765 473.638 C 417.517 476.271 409.398 479.77 404.723 481.413 C 400.048 483.056 392.173 485.333 387.223 486.473 C 382.273 487.613 373.749 489.033 368.28 489.628 C 362.812 490.224 358.234 490.815 358.106 490.942 C 357.979 491.069 365.025 507.82 373.764 528.166 C 382.503 548.512 389.812 565.591 390.007 566.118 C 390.217 566.684 394.847 566.147 401.293 564.81 C 407.304 563.564 418.973 560.308 427.223 557.577 C 435.473 554.845 448.523 549.496 456.223 545.691 C 463.923 541.885 475.173 535.546 481.223 531.605 C 487.273 527.663 496.498 521.017 501.723 516.836 C 506.948 512.654 515.498 504.933 520.723 499.678 C 525.948 494.423 533.298 486.306 537.056 481.641 C 540.814 476.976 547.01 468.464 550.825 462.726 C 554.64 456.988 560.621 446.638 564.118 439.726 C 567.614 432.814 572.147 422.895 574.191 417.682 C 576.235 412.47 579.386 402.795 581.192 396.182 L 584.477 384.159 L 600.785 383.659 L 617.092 383.159 L 643.196 331.659 L 669.301 280.159 L 626.913 279.659 L 584.526 279.159 L 581.207 267.659 C 579.381 261.334 576.492 252.334 574.786 247.659 C 573.08 242.984 568.79 233.309 565.251 226.159 C 561.712 219.009 555.73 208.434 551.957 202.659 C 548.185 196.884 541.47 187.659 537.034 182.159 C 532.599 176.659 523.627 166.98 517.097 160.651 C 510.566 154.322 500.6 145.666 494.95 141.416 C 489.3 137.166 480.075 130.951 474.45 127.605 C 468.825 124.259 460.024 119.491 454.892 117.009 C 449.761 114.527 440.761 110.692 434.892 108.487 C 429.024 106.281 418.373 102.993 411.223 101.179 C 404.073 99.366 392.987 97.106 386.588 96.158 L 374.953 94.434 L 363.675 68.047 C 357.472 53.533 352.261 41.659 352.095 41.659 C 351.929 41.659 351.381 42.446 350.877 43.409 M 306.948 257.549 L 293.686 279.44 L 338.454 353.536 C 363.077 394.288 383.448 427.619 383.723 427.604 C 383.998 427.589 390.141 417.706 397.374 405.642 L 410.525 383.707 L 365.874 309.707 C 341.316 269.006 320.995 235.696 320.716 235.683 C 320.438 235.67 314.242 245.51 306.948 257.549" stroke="none" fill-rule="evenodd" style="fill: rgb(183, 45, 20);"></path>
</svg>