<?xml version="1.0" encoding="UTF-8" ?>
<!DOCTYPE svg PUBLIC "-//W3C//DTD SVG 1.1//EN" "http://www.w3.org/Graphics/SVG/1.1/DTD/svg11.dtd">
<svg width="275pt" height="242pt" viewBox="0 0 275 242" version="1.1" xmlns="http://www.w3.org/2000/svg">
<g id="#ffffffff">
</g>
<g id="#6082c1ff">
<path fill="#6082c1" opacity="1.00" d=" M 128.95 6.92 C 148.84 4.69 169.06 4.41 188.87 7.54 C 209.36 10.81 230.36 17.67 245.56 32.41 C 257.80 44.04 264.17 61.19 263.19 77.98 C 261.91 98.97 252.40 118.64 239.99 135.29 C 245.76 122.51 250.36 108.10 246.97 94.04 C 244.23 81.87 234.43 72.58 223.41 67.50 C 204.91 58.93 183.65 58.40 163.85 61.94 C 128.84 68.21 97.03 87.54 72.89 113.32 C 53.62 88.86 31.85 66.54 10.84 43.63 C 47.68 24.71 87.73 11.64 128.95 6.92 Z" />
<path fill="#6082c1" opacity="1.00" d=" M 135.86 80.57 C 155.71 74.60 177.47 70.55 197.69 77.16 C 209.65 80.84 219.78 89.98 224.32 101.67 C 231.29 118.78 227.95 138.21 220.78 154.68 C 209.96 179.36 191.19 199.67 170.46 216.47 C 162.09 223.13 153.43 229.48 144.28 235.02 C 134.22 210.96 123.00 187.19 108.25 165.61 C 130.68 161.16 152.89 151.72 168.87 134.92 C 177.03 125.98 184.12 114.60 183.45 102.05 C 183.19 94.52 178.34 87.66 171.63 84.41 C 160.58 78.81 147.82 79.83 135.86 80.57 Z" />
</g>
<g id="#ec5f2dff">
<path fill="#ec5f2d" opacity="1.00" d=" M 119.40 90.69 C 133.19 86.60 149.08 94.76 153.80 108.33 C 157.90 118.47 155.01 130.71 147.41 138.43 C 138.17 148.08 121.96 149.60 110.99 142.09 C 102.80 136.69 97.78 126.78 98.38 116.97 C 98.66 104.84 107.74 93.81 119.40 90.69 Z" />
</g>
</svg>
