<svg xmlns="http://www.w3.org/2000/svg" width="368.125" height="344.514" xmlns:v="https://vecta.io/nano"><linearGradient id="A" gradientUnits="userSpaceOnUse" x1="172.381" y1="7" x2="172.381" y2="336.038"><stop offset=".1" stop-color="#05d6b8"/><stop offset=".5" stop-color="#0398d2"/><stop offset=".62" stop-color="#038fd6"/><stop offset=".814" stop-color="#0277e0"/><stop offset=".95" stop-color="#0162e8"/></linearGradient><path fill="url(#A)" d="M262.124 104.507c19.281 20.013 31.145 47.226 31.145 77.212 0 61.47-49.832 111.302-111.302 111.302S70.666 243.189 70.666 181.719c0-35.33 16.464-66.811 42.135-87.2 11.565 8.468 21.52 17.648 29.649 26.093 0 0-4.986-22.274-2.578-42.418 2.106-17.617 8.951-35.228 8.951-35.228C91.422 1.784 4 4.021 4 4.021c2.482 3.566 7.658 11.498 13.458 20.494 6.362-.344 21.919-.592 33.972 4.079l6.895 15.512s-11.741-4.933-31.003-4.22L43.258 64.92c8.933 1.183 17.479 3.309 25.62 6.117-27.991 28.594-45.249 67.734-45.249 110.911 0 87.572 70.992 158.565 158.565 158.565S340.76 269.52 340.76 181.948c0-38.265-13.556-73.361-36.122-100.756-21.103 7.29-36.845 18.807-42.514 23.315z"/><linearGradient id="B" gradientUnits="userSpaceOnUse" x1="257.896" y1="7" x2="257.896" y2="336.037"><stop offset=".1" stop-color="#05d6b8"/><stop offset=".5" stop-color="#0398d2"/><stop offset=".62" stop-color="#038fd6"/><stop offset=".814" stop-color="#0277e0"/><stop offset=".95" stop-color="#0162e8"/></linearGradient><path fill="url(#B)" d="M206.528 52.234c-9.816-26.864-24.333-44.896-24.333-44.896-68.687 86.815 0 170.78 0 170.78 10.685-11.202 17.235-24.087 23.521-34.18 13.641-18.087 58.22-70.886 119.15-78.958l15.938-25.034c-19.261-.713-31.642 4.16-31.642 4.16l6.896-15.512c12.053-4.671 28.247-4.363 34.609-4.019l13.458-20.494c0 .001-96.165-3.748-157.597 48.153z"/></svg>