<?xml version="1.0" encoding="UTF-8" standalone="no"?>
<!-- Created with Inkscape (http://www.inkscape.org/) -->

<svg
   xmlns:dc="http://purl.org/dc/elements/1.1/"
   xmlns:cc="http://creativecommons.org/ns#"
   xmlns:rdf="http://www.w3.org/1999/02/22-rdf-syntax-ns#"
   xmlns:svg="http://www.w3.org/2000/svg"
   xmlns="http://www.w3.org/2000/svg"
   xmlns:sodipodi="http://sodipodi.sourceforge.net/DTD/sodipodi-0.dtd"
   xmlns:inkscape="http://www.inkscape.org/namespaces/inkscape"
   width="250"
   height="250"
   id="svg2"
   version="1.1"
   inkscape:version="0.48.4 r"
   sodipodi:docname="Symbol of Hita Oita.svg">
  <defs
     id="defs4" />
  <sodipodi:namedview
     id="base"
     pagecolor="#ffffff"
     bordercolor="#666666"
     borderopacity="1.0"
     inkscape:pageopacity="0.0"
     inkscape:pageshadow="2"
     inkscape:zoom="1.1223516"
     inkscape:cx="-9.7727351"
     inkscape:cy="202.07912"
     inkscape:document-units="px"
     inkscape:current-layer="layer1"
     showgrid="false"
     inkscape:window-width="1280"
     inkscape:window-height="961"
     inkscape:window-x="-8"
     inkscape:window-y="-8"
     inkscape:window-maximized="1"
     inkscape:snap-grids="true"
     fit-margin-top="0"
     fit-margin-left="0"
     fit-margin-right="0"
     fit-margin-bottom="0">
    <inkscape:grid
       type="xygrid"
       id="grid3795"
       empspacing="5"
       visible="true"
       enabled="true"
       snapvisiblegridlinesonly="true"
       originx="-137.79868px"
       originy="-277.31826px" />
  </sodipodi:namedview>
  <metadata
     id="metadata7">
    <rdf:RDF>
      <cc:Work
         rdf:about="">
        <dc:format>image/svg+xml</dc:format>
        <dc:type
           rdf:resource="http://purl.org/dc/dcmitype/StillImage" />
        <dc:title></dc:title>
      </cc:Work>
    </rdf:RDF>
  </metadata>
  <g
     inkscape:label="レイヤー 1"
     inkscape:groupmode="layer"
     id="layer1"
     transform="translate(-137.79868,-525.04392)">
    <path
       style="fill:#000000;fill-opacity:1;stroke:none"
       d="m 262.77482,525.04392 c -69.03356,0 -124.97614,55.9903 -124.97614,125.02386 0,69.03356 55.94258,124.97614 124.97614,124.97614 69.03356,0 125.02386,-55.94258 125.02386,-124.97614 0,-69.03356 -55.9903,-125.02386 -125.02386,-125.02386 z m 0,27.72476 c 49.02223,0 89.56065,36.25214 96.297,83.41286 l -72.24661,0 16.51079,-26.96125 a 13.897172,13.897172 0 0 0 -11.83432,-21.18725 l -103.64574,0 c 17.83432,-21.53512 44.7659,-35.26436 74.91888,-35.26436 z m -91.04791,63.08455 94.96087,0 -12.45467,20.32831 -87.70757,0 c 1.00619,-7.05162 2.76885,-13.84892 5.20137,-20.32831 z m -5.20137,48.10079 70.67188,0 -15.5564,25.38652 a 13.897172,13.897172 0 0 0 11.83432,21.18725 l 105.50677,0 c -17.82464,22.43978 -45.32498,36.83909 -76.20729,36.83909 -49.02223,0 -89.51989,-36.25214 -96.24928,-83.41286 z m 103.26398,0 89.2823,0 c -0.9262,6.48433 -2.48966,12.74733 -4.62874,18.75358 l -96.15385,0 11.50029,-18.75358 z"
       id="path3789"
       inkscape:connector-curvature="0" />
  </g>
</svg>
