<svg xmlns="http://www.w3.org/2000/svg" width="421" height="360">
  <path fill="#008acf" d="M169.72 20.559C76.004 20.559 0 96.562 0 190.328c0 5.63.242 11.163.777 16.647v-2.233c0-70.324 56.978-127.302 127.302-127.302 8.396 0 16.55.825 24.46 2.378l84.012-45.573c-20.481-8.784-43.098-13.686-66.83-13.686ZM285.813 66.47c-28.15 3.543-62.51 12.522-97.649 26.014 21.306 11.454 38.972 28.732 50.863 49.747L287 141l32.446-30.849a169.933 169.933 0 0 0-33.634-43.68zm42.224 62.365c-18.637 15.92-44.796 32.42-75.809 47.466 2.087 9.173 3.155 18.685 3.155 28.44 0 37.225-15.968 70.713-41.399 93.96-14.511-16.792-36.885-33.536-64.16-46.543-56.494-26.936-112.404-27.567-124.877-1.407-12.57 26.16 23.102 69.16 79.546 96.096 11.55 5.484 23.005 9.852 34.022 13.152-27.81-15.482-44.408-36.837-38.196-51.203 7.135-16.452 41.787-17.326 77.362-1.94 5.339 2.329 10.386 4.852 15.094 7.57 18.248 10.484 31.352 23.49 35.914 35.138C293.383 325.59 339.49 263.37 339.49 190.328c0-21.694-4.077-42.418-11.454-61.492z"/>
  <path fill="#00a65c" d="M319.451 110.144c-6.698 3.349-13.686 6.6-20.87 9.804-20.19 8.93-40.33 16.356-59.55 22.277-61.394 18.782-113.81 21.597-128.71 4.368-4.416-5.048-5.144-11.454-2.717-18.783-50.572 30.819-77.217 62.9-62.366 80.032 19.608 22.616 103.861 10.677 188.26-26.645a616.865 616.865 0 0 0 17.91-8.3c31.303-15.287 57.172-31.837 75.226-47.465 14.22-12.279 23.587-23.975 26.936-33.973-10.435 6.358-21.889 12.619-34.119 18.685"/>
  <path fill="#f5851e" d="M415.935 11.428c-18.928-21.792-97.989-11.454-179.379 22.81-2.96 1.262-5.92 2.524-8.93 3.834-29.508 13.056-55.085 27.519-75.08 41.739-24.316 17.278-40.332 34.216-44.942 48 16.064-9.804 34.604-19.463 54.988-28.49 7.134-3.154 14.317-6.115 21.451-8.93 35.381-13.929 69.791-23.15 98.329-27.033 33.39-4.562 58.822-1.844 68.48 9.319 4.417 5.096 5.144 11.502 2.718 18.782 50.571-30.77 77.216-62.9 62.365-80.031"/>
</svg>
