<?xml version="1.0" encoding="UTF-8" standalone="no"?>
<!-- Created with Inkscape (http://www.inkscape.org/) -->

<svg
   xmlns:dc="http://purl.org/dc/elements/1.1/"
   xmlns:cc="http://creativecommons.org/ns#"
   xmlns:rdf="http://www.w3.org/1999/02/22-rdf-syntax-ns#"
   xmlns:svg="http://www.w3.org/2000/svg"
   xmlns="http://www.w3.org/2000/svg"
   xmlns:sodipodi="http://sodipodi.sourceforge.net/DTD/sodipodi-0.dtd"
   xmlns:inkscape="http://www.inkscape.org/namespaces/inkscape"
   width="400"
   height="371.16818"
   id="svg2"
   version="1.1"
   inkscape:version="0.48.4 r"
   sodipodi:docname="Symbol of Usa Oita.svg">
  <defs
     id="defs4" />
  <sodipodi:namedview
     id="base"
     pagecolor="#ffffff"
     bordercolor="#666666"
     borderopacity="1.0"
     inkscape:pageopacity="0.0"
     inkscape:pageshadow="2"
     inkscape:zoom="0.53292773"
     inkscape:cx="472.82374"
     inkscape:cy="17.438935"
     inkscape:document-units="px"
     inkscape:current-layer="layer1"
     showgrid="false"
     inkscape:window-width="1280"
     inkscape:window-height="961"
     inkscape:window-x="-8"
     inkscape:window-y="-8"
     inkscape:window-maximized="1"
     fit-margin-top="0"
     fit-margin-left="0"
     fit-margin-right="0"
     fit-margin-bottom="0" />
  <metadata
     id="metadata7">
    <rdf:RDF>
      <cc:Work
         rdf:about="">
        <dc:format>image/svg+xml</dc:format>
        <dc:type
           rdf:resource="http://purl.org/dc/dcmitype/StillImage" />
        <dc:title></dc:title>
      </cc:Work>
    </rdf:RDF>
  </metadata>
  <g
     inkscape:label="レイヤー 1"
     inkscape:groupmode="layer"
     id="layer1"
     transform="translate(-76.57381,-374.96573)">
    <path
       style="fill:#0b857a;fill-opacity:1;stroke:none"
       d="m 316.53001,374.9707 c -45.45764,0.3142 -94.33021,15.52743 -137.94951,46.19214 -96.263278,67.67383 -130.435093,184.92721 -76.31601,261.9094 17.37584,24.71641 42.03012,41.54595 70.01408,52.49406 8.07179,3.15791 14.99689,3.91769 22.8981,3.56339 51.36004,-2.30306 75.26258,-20.10985 102.81049,-48.79869 21.63506,-22.53111 37.64784,-57.89456 10.82216,-87.17115 -33.82529,-36.91572 -115.56012,-4.28044 -120.03356,56.22242 -1.55296,21.00373 9.58984,36.84559 29.59596,48.10581 1.7693,0.99583 1.15769,3.23456 -1.35277,2.80452 -66.83583,-11.4488 -86.53994,-84.31774 -54.0448,-141.71087 55.19269,-97.48167 206.08123,-105.43502 221.72225,1.68272 8.2633,56.5914 -32.53758,120.36305 -90.80054,152.36805 -27.09464,14.88363 -58.02245,20.98576 -89.11782,21.1824 53.66753,8.38394 115.76326,-5.90196 169.78908,-43.88253 96.26328,-67.67383 130.43509,-184.92722 76.31601,-261.9094 -29.59637,-42.09964 -79.49047,-63.43148 -134.35312,-63.05227 z m -4.1243,21.41336 c 12.11453,-0.28538 23.1506,4.3392 29.52997,13.62668 11.3411,16.51108 3.72004,41.52417 -17.0251,55.85948 -20.74514,14.33532 -46.762,12.55176 -58.10311,-3.95932 -11.3411,-16.51109 -3.72003,-41.52418 17.0251,-55.85949 9.076,-6.2717 19.15072,-9.4454 28.57314,-9.66735 z"
       id="path3805"
       inkscape:connector-curvature="0" />
  </g>
</svg>
