<?xml version="1.0" encoding="UTF-8"?><svg width="431" height="453" viewBox="34 24 431 453" xmlns="http://www.w3.org/2000/svg" version="1.2">
 <circle xmlns="http://www.w3.org/2000/svg" cx="137.15" cy="61.631" r="36.631" fill="#e60011"/>
 <path xmlns="http://www.w3.org/2000/svg" d="m36.1 186.7c50.9-28.7 95.3-27.7 114.5 9.1 29.8 57-12.1 178.1-101.4 279.1 69.9-41.8 130.2-104.4 163.2-173.6a69 143.5 57.8 1 0 23.4-101.9c-0.4-23.3-6-43.1-16.3-58.9-29.4-45.9-117.6-43.1-183.4 46.3zm364.9-28.1a40.2 105.7 57.8 0 1-178.9 112.8 40.2 105.7 57.8 0 1 178.9-112.8z" fill="#00a35e"/>
 <path xmlns="http://www.w3.org/2000/svg" d="m325.5 253.6a144 71.3 41.3 1 0 36.6 19.9 69 143.5 57.8 0 1-5.5 3.4 88 43.5 40.5 1 1-36.3-20.2 40.2 105.7 57.8 0 0 5.3-3z" fill="#0073bd"/>
</svg>