<?xml version="1.0" encoding="UTF-8"?>
<!-- Created with Inkscape (http://www.inkscape.org/) -->
<svg width="210" height="230" version="1.1" viewBox="0 0 210 230" xmlns="http://www.w3.org/2000/svg" xmlns:cc="http://creativecommons.org/ns#" xmlns:dc="http://purl.org/dc/elements/1.1/" xmlns:rdf="http://www.w3.org/1999/02/22-rdf-syntax-ns#">
 <metadata>
  <rdf:RDF>
   <cc:Work rdf:about="">
    <dc:format>image/svg+xml</dc:format>
    <dc:type rdf:resource="http://purl.org/dc/dcmitype/StillImage"/>
    <dc:title/>
   </cc:Work>
  </rdf:RDF>
 </metadata>
 <g transform="translate(0 -892.52)" fill="#008000">
  <path d="m1.659 895.08 18.125 64.444 63.459 39.284v46.207h43.514v-46.207l63.459-39.284 18.125-64.444-81.584 44.191-21.757-21.757-21.757 21.757z"/>
  <path d="m20.033 969.92a100 100 0 0 0-15.033 52.6 100 100 0 0 0 95.645 99.846v-35.062a65 65 0 0 1-60.645-64.783 65 65 0 0 1 9.8008-34.17zm169.89 0.0293-29.693 18.381a65 65 0 0 1 9.7715 34.189 65 65 0 0 1-60.645 64.846v34.936a100 100 0 0 0 95.645-99.781 100 100 0 0 0-15.078-52.57z"/>
 </g>
</svg>
