<?xml version="1.0" encoding="UTF-8"?><svg width="400" height="400" viewBox="50 50 400 400" xmlns="http://www.w3.org/2000/svg">
 <path xmlns="http://www.w3.org/2000/svg" fill="#80d6f7" d="m250 50c-110.5 0-200 89.5-200 200 0 19.8 2.9 38.9 8.24 56.9 10.4 1.4 21.2 2.2 32.1 2.2 28.9 0 56.3-5.1 80.6-13.9 24.2-8.7 50.9-13.5 79.1-13.5 28.1 0 54.9 4.8 79.1 13.5 24.3 8.8 51.7 13.9 80.6 13.9 10.9 0 21.6-0.8 32.1-2.2 5.4-18.1 8.3-37.2 8.3-57 0-110.5-89.5-200-200-200zm-81.9 23.9c6.7 0 1.1 6.9 6.4 49.9 5.3 43.1 30 69.3 60.6 83.7l49.7-6.2c9.3-12.5 16.4-9.6 23.3-4l31.7 0.2-231.4 57.2 39.5-20.2c-37.5-44-32.8-81-27.3-97.2s22.6-46.14 47.5-63.4zm100.9 23.34c-1.4 29.1 1.1 69 12.6 94.3l-2.2 2-41.7 4.9c-8.7-3.6-22.9-12-28-19.3 4.9-28 19.1-53.3 59.3-81.9zm28.6 119.8s19.5 18.4 26.6 21.1l48.6-0.9c13.1-13.1 22.9-8.2 26.4-2.4l32 2.8-261.4 41.1 64.5-20.7c-6.4-8.4-13-21.7-13-21.7l76.3-19.3z"/>
 <path xmlns="http://www.w3.org/2000/svg" fill="#535cb3" d="m250 353.2c-28.2 0-54.9 4.8-78 13.1-23.1 8.4-47.7 13.3-73.6 14.1 3.5 4 7.1 7.9 10.9 11.7 21.9-1.7 42.7-6.3 64.3-14.1s48.3-12.6 76.4-12.6c28.2 0 54.9 4.8 76.4 12.6 21.6 7.8 42.4 12.4 64.3 14.1 3.8-3.8 7.4-7.7 10.9-11.7-25.9-0.8-50.5-5.7-73.6-14.1-23.1-8.4-49.8-13.14-78-13.1zm111.3 63c-11.3-2.3-22.1-5.4-39.3-11.6-17.2-6.2-43.9-11-72.1-11-28.2 0-54.9 4.8-72.1 11s-28 9.3-39.3 11.6c31.8 21.4 70.1 33.8 111.3 33.8 41.21 0 79.51-12.5 111.3-33.8zm-32.2-91.3c-24.3-8.8-51-13.6-79.1-13.6-28.2 0-54.9 4.8-79.1 13.6-24.3 8.8-51.6 13.8-80.5 13.8-6.8 0-13.5-0.3-20.1-0.8 2.4 4.9 4.9 9.6 7.7 14.2 4.1 0.2 8.2 0.3 12.4 0.3 28.9 0 56.3-5 80.5-13.8 24.3-8.8 51-13.6 79.1-13.6 28.2 0 54.9 4.8 79.1 13.6 24.3 8.8 51.6 13.8 80.5 13.8 4.2 0 8.3-0.1 12.4-0.3 2.8-4.6 5.3-9.4 7.7-14.2-6.6 0.5-13.3 0.8-20.1 0.8-28.9 0-56.3-5-80.5-13.8z"/>
</svg>