<?xml version="1.0" encoding="UTF-8"?><svg width="452" height="452" viewBox="24 24 452 452" xmlns="http://www.w3.org/2000/svg">
 <path xmlns="http://www.w3.org/2000/svg" fill="#1e191c" d="m250 25c-124 0-225 100.9-225 225 0 124 100.9 225 225 225s225-100.9 225-225c0-36.6-8.9-72.8-25.9-104.9l-9.2-17.5-70.4 37.1c-18.6-25.9-45.4-45.8-77.3-55.4v42c16.6 7.1 30.9 18.3 41.9 32.1l-53.9 28.4 18.4 35s25.5-13.4 54-28.5c3.2 10.1 4.9 20.8 4.9 31.8 0 15.6-3.4 30.3-9.4 43.7l34.3 20.1c9.3-19.3 14.6-40.9 14.6-63.7 0-17.5-3.3-34.5-9.1-50.4 14.3-7.5 26.8-14.1 34.4-18.1 8.6 21.7 13.2 45 13.2 68.5 0 102.3-83.2 185.5-185.5 185.5s-185.5-83.2-185.5-185.5 83.2-185.5 185.5-185.5c56.5 0 109.2 25.3 144.6 69.3l31-25.1c-43-53.4-106.9-84-175.4-84zm0 78c-46.9 0-88.6 22.1-115.6 56.3l-16.6-9.7-20 34.1 16.5 9.7c-7.3 17.4-11.4 36.6-11.4 56.7 0 22.8 5.2 44.4 14.5 63.7l34.3-20.1c-6-13.4-9.3-28.1-9.3-43.6 0-12.8 2.3-25 6.4-36.4l54.4 32 20-34.1-54.2-31.8c15.6-17.9 37-30.6 61.3-35.1v84.3l19.7 21.2 19.8-21.2v-125.8h-19.8zm-86.1 211.1-34.4 20c26.6 38 70.7 62.9 120.4 62.9 49.8 0 93.9-24.9 120.5-62.9l-34.3-20.1c-19.6 26.3-50.9 43.4-86.1 43.4-35.3 0-66.5-17.1-86.1-43.4z"/>
</svg>