<?xml version="1.0" encoding="UTF-8" standalone="no"?>
<!-- Created with Inkscape (http://www.inkscape.org/) -->

<svg
   xmlns:dc="http://purl.org/dc/elements/1.1/"
   xmlns:cc="http://creativecommons.org/ns#"
   xmlns:rdf="http://www.w3.org/1999/02/22-rdf-syntax-ns#"
   xmlns:svg="http://www.w3.org/2000/svg"
   xmlns="http://www.w3.org/2000/svg"
   version="1.0"
   width="370"
   height="370"
   id="svg2">
  <metadata
     id="metadata10">
    <rdf:RDF>
      <cc:Work
         rdf:about="">
        <dc:format>image/svg+xml</dc:format>
        <dc:type
           rdf:resource="http://purl.org/dc/dcmitype/StillImage" />
        <dc:title></dc:title>
      </cc:Work>
    </rdf:RDF>
  </metadata>
  <defs
     id="defs5" />
  <path
     d="m 184.84375,0.828125 c -3.62868,16.9324 -15.36253,30.84402 -30.9375,37.53125 C 95.771,50.544405 50.25081,96.485335 38.15625,154.76562 l 50.59375,0 C 99.34857,121.42345 126.25505,95.794685 160.5,87.359375 l 0,73.312495 -125.6875,0 c -7.49971,12.43629 -19.94603,21.59002 -34.625,24.625 16.88035,3.61753 30.75776,15.28583 37.46875,30.78125 C 49.79783,274.56489 97.2,319.6307 154.5,331.85937 l 0,-50.5625 c -33.52804,-10.51088 -58.90903,-37.24733 -67.375,-71.625 l 73.375,0 0,125.375 c 12.24753,7.44107 21.24807,19.67971 24.34375,34.125 C 187.8842,354.46639 197.0292,342.0109 209.5,334.51562 l 0,-124.84375 72.8125,0 c -7.42521,33.9622 -33.51791,60.84606 -66.8125,71.46875 l 0,50.625 c 57.698,-12.95895 102.90158,-56.00122 115.8125,-113.09375 6.23194,-16.78291 20.68868,-29.55796 38.5,-33.375 -14.67897,-3.03498 -27.12529,-12.18871 -34.625,-24.625 l -125.6875,0 0,-73.437495 c 34.00742,8.56262 61.16947,34.356895 71.71875,67.531245 l 50.625,0 C 319.66227,96.066515 273.21329,49.860885 214.375,38.078125 c -14.94957,-6.97209 -26.10631,-20.6849 -29.53125,-37.25 z"
     id="path2392"
     style="fill:#000000;stroke:none" />
</svg>
