<?xml version="1.0" encoding="UTF-8"?><svg width="432" height="457" viewBox="21 21 432 457" xmlns="http://www.w3.org/2000/svg" version="1.1">
 <path xmlns="http://www.w3.org/2000/svg" d="m250 43.4 74.1 55.2 28.6-15.3c39.7 14.2 75.3 42.6 94.8 59a225 225 0 0 0-395.1 0c19.5-16.4 55.1-44.8 94.8-59l28.6 15.3z" fill="#f19800"/>
 <path xmlns="http://www.w3.org/2000/svg" d="m378.4 141.6c-130.6-21.4-226.2-3.9-348 59.5a225 225 0 0 0 30.5 170.8c57-132.9 161.9-203 317.4-230.4z" fill="#4da92c"/>
 <path xmlns="http://www.w3.org/2000/svg" d="m450 220a44.5 44.5 0 0 0-89 0 44.5 44.5 0 0 0 89 0zm-84.9-36.5c-109.5 67.1-146.1 178.4-69.9 286.9a225 225 0 0 0 153.2-114.2c-87.1-21-162.5-95-83.3-172.7zm81.8-41.9c-103 0-316.5 71.6-355 268.5a225 225 0 0 0 164.7 64.8c-85.8-153.1 22-285.7 190.3-333.31z" fill="#0078bf"/>
</svg>