<?xml version="1.0" encoding="UTF-8"?><svg width="456" height="415" viewBox="22 43 456 415" xmlns="http://www.w3.org/2000/svg">
 <path xmlns="http://www.w3.org/2000/svg" d="m291.4 43.59c-71.55 0-127.8 40.62-127.8 91.74 0 25.31 12.38 43.76 28.13 58.01 28.6-17.88 56.79-33.14 93.94-44.58-14.88-7.501-24.63-15.15-24.13-28.14 0.5394-14.24 22.25-23.69 56.54-23.69 47.35 0 98.68 17.56 111.4 37.98 0.363 0.1866 0.8048 0.2062 1.213 0.055 0.4134-0.1765 0.696-0.552 0.8271-0.9452-2.6-38.59-55.6-90.41-140.1-90.41zm92.32 142.8c-20.7 25.64-29.2 41.64-47.58 77.08 6.67 5.979 9.319 14.6 9.319 21.8 0 17.49-14.35 29.79-39.83 29.55-28.73 46.61-60.49 91.31-119.7 133 23.49 5.53 48.85 8.578 75.62 8.578 116.9 0 212-62.64 213.4-143.7 1.24-70.12-43.52-104.5-91.26-126.3z" fill="#387a28"/>
 <path xmlns="http://www.w3.org/2000/svg" d="m388 134.7c-159.6 4.1-212.2 119.8-362.9 153.2-0.1512 1.996-0.04033 5.348-0.04033 7.223 0 14.14 3.154 26.27 9.098 39.95 135.6-28.5 208.8-174.4 353.9-198.1 0.2874-0.2823 0.4492-0.6856 0.4492-1.134 0-0.4638-0.1961-0.8621-0.5592-1.134zm42.33 0.2758c-149.2 53.71-172.4 211.9-338 271.9 20.43 14.43 44.87 26.51 72.37 35.12 177-126.6 134.4-211.1 266.7-305.1 0.1564-0.3831 0.1456-0.812-0.071-1.205-0.1966-0.4184-0.5741-0.6525-0.9926-0.7483zm-14.65 0.37c-159.1 17.9-233.1 188.1-373.8 217.9 8.27 13.8 19.41 27 33.01 39 170.2-55.3 204.2-213.2 341.5-254.8 0.242-0.3277 0.3136-0.7666 0.2127-1.205-0.0959-0.4386-0.3912-0.7924-0.7641-0.9689z" fill="#1877b4"/>
</svg>