<?xml version="1.0" encoding="UTF-8"?><svg width="400" height="450" viewBox="50 25 400 450" xmlns="http://www.w3.org/2000/svg">
 <circle xmlns="http://www.w3.org/2000/svg" cy="225" cx="250" r="200" fill="#feca00"/>
 <path xmlns="http://www.w3.org/2000/svg" d="m275.4 443.3v18.9c0 7.1 9 12.9 20.2 12.9h11.4c11.1 0 20.1-5.8 20.1-12.9v-18.9h-20.2v18.9c0 1.7-2.7 3-5.6 3s-5.6-1.3-5.6-3v-18.9zm-108.9 0v18.9c0 7.1 9 12.9 20.2 12.9h11.4c11.1 0 20.1-5.8 20.1-12.9v-18.9h-20.2v18.9c0 1.7-2.7 3-5.6 3s-5.6-1.3-5.6-3v-18.9zm-83.2 0h19.8v31.7h-19.8zm313.5 0h19.8v31.7h-19.8zm-282.1-297.3c-3.3 0-6.6 0.3-9.8 0.9-7.8 1.7-21.3 1.1-23.7 8.8-2.9 9.1 9.4 13.5 12.5 21.3 6.2 1.2 6.8 6.7 10 10.4 2.5 8.7 9 14.3 15.1 20.5 3.1 6.5 4.5 13.9 10.6 18.4 3.9 7.8 11.2 11.6 17.5 17.1 3.6 6.1 8.3 13 6.7 20.4-3.7 7.3-1.4 15.4 0 23 3.1 5 8.9 16.9 15.6 12.4 17.8-11.9 42.9-27 62.8-38.5 3.2-1.9 5.9-3.3 5.9-7.9 0-7.7 2.6-15.4 5.9-23.3 0.3 9.1 1.8 19.8 2.2 27.9h6.9c0.5-8.1 1.9-18.8 2.2-27.9 3.3 7.9 6 15.6 5.9 23.3 0 4.7 2.7 6.1 5.9 7.9 20 11.5 45 26.6 62.8 38.5 6.7 4.5 12.5-7.4 15.6-12.4 1.5-7.5 3.7-15.7 0-23-1.5-7.4 3.1-14.3 6.7-20.4 6.4-5.5 13.6-9.3 17.5-17.1 6.1-4.5 7.5-11.9 10.6-18.4 6.1-6.2 12.6-11.8 15.1-20.5 3.2-3.7 3.8-9.2 10-10.4 3.1-7.9 15.4-12.2 12.5-21.3-2.5-7.7-15.9-7.1-23.7-8.8-6.3-1.4-13.3-1-19.2-0.3-9.5 1.1-18.6 4.8-27.5 8.2-10.5 4-21.3 7.9-30.2 14.9-10.4 8.1-22.9 13.6-32.8 22.3-9 7.8-16.8 16.9-26.5 23.8-1.4 1-2.6 1.8-3.5 2.3-0.2-1-0.5-1.8-0.8-2.6 6.3-17.6 11.7-31 21.2-45 1.2-1.8-1.1-3-2.3-1.2-8.2 11.7-15 25.7-20.9 43.2-1.5-1.2-2.9-1.1-4.5 0-5.9-17.5-12.7-31.5-20.9-43.2-1.2-1.7-3.6-0.6-2.3 1.2 9.5 14 14.9 27.4 21.2 45-0.3 0.8-0.6 1.6-0.8 2.6-0.9-0.5-2.1-1.3-3.5-2.3-9.8-6.9-17.5-16-26.5-23.8-9.9-8.7-22.5-14.2-32.8-22.3-8.9-7-19.7-10.9-30.2-14.9-8.9-3.4-18-7-27.5-8.2-2.9-0.3-6.1-0.6-9.4-0.6z" fill="#d52e31"/>
 <path xmlns="http://www.w3.org/2000/svg" fill="#007c64" d="m186.2 347.4h26.3c0 20.7 16.8 37.5 37.5 37.5s37.5-16.8 37.5-37.5h26.3c0 35.2-28.5 63.8-63.8 63.8s-63.8-28.5-63.8-63.8zm63.8-35.3c7.2 0 13 6 13 13.5v30.5c0 7.5-5.8 13.5-13 13.5s-13-6-13-13.5v-30.5c0-7.5 5.8-13.5 13-13.5zm0-35.3c8.3 0 15 6.7 15 15s-6.7 15-15 15-15-6.7-15-15 6.7-15 15-15zm-7.1-9.6c-1.6 0-8.8 4.1-12.4 6.4l-102.5 62.3c-4.9 3-20.5 12-32.8 15.5 38 46.5 94.8 73.6 154.9 73.6 60.1-0.1 116.9-27.1 154.8-73.6-12.3-3.4-27.9-12.5-32.8-15.5l-102.5-62.3c-3.7-2.2-10.9-6.3-12.4-6.4-4.9-0.1-9.7-0.1-14.2 0zm-12.5 196.2c3.8 1.9 16.8 5.9 18.4 1.8 0.6-1.7-6-2.1-12.1-2.9-6.6-0.9-12.1-5.6-10.5-9.4 5.4-12.9 30.1-9.8 41.5-7l-5.6 7.7c-5.3-1.9-14.2-3.9-15.4-0.5-0.6 1.7 6 2.1 12.1 2.9 6.6 0.9 12.1 5.6 10.5 9.4-5.4 12.9-32.9 10.2-45 6.9l6.2-8.8m105.7-20.2v31.6h19.2v-13.3l13.6 13.3h23.5l-19.6-15.9 16.7-15.9h-21.4l-12.7 13.3v-13.3zm-204.4 18.8h4.8c2.8 0 5.1 1.2 5.1 2.6s-2.3 2.6-5.1 2.6h-4.8v-5.2zm0-11.4h4.4c1.8 0 3.3 1.1 3.3 2.3s-1.4 2.3-3.3 2.3h-4.4v-4.7zm-19-7.5v31.6h30.3c9.7 0 17.5-4 17.5-8.9 0-3.3-3.7-6.4-9.6-7.9 4.4-1.6 7.1-4 7.1-6.7 0-4.5-7.2-8.2-16.2-8.2h-29z"/>
 <path xmlns="http://www.w3.org/2000/svg" d="m253.3 25.2c-22.5 14.6-30.8 41.8-11 68.6 16.8 23 19.4 42.9 4.6 64.8 22.8-14.5 31.2-41.9 11.4-68.8-16.9-22.9-19.4-42.76-4.8-64.6a200 200 0 0 0 -0.2 0zm-37.5 2.8a200 200 0 0 0 -3.3 0.7c-18.7 15.2-24.4 40.3-6.2 65.1 16.9 23 19.4 42.9 4.6 64.8 22.8-14.5 31.2-41.9 11.4-68.8-16.1-21.9-19.1-41.1-6.5-61.8zm69.1 0.3c-19.2 15.11-25.1 40.5-6.7 65.5 16.9 23 19.4 42.9 4.6 64.8 22.8-14.5 31.2-41.9 11.4-68.8-16-21.7-19.1-40.7-6.9-61.1a200 200 0 0 0 -2.4 -0.35z" fill="#ffffff"/>
</svg>