<svg xmlns="http://www.w3.org/2000/svg" width="400" height="395">
  <path fill="#6385bd" d="M199.985 0C89.553 0 0 89.553 0 200.015c0 37.456 10.375 72.458 28.303 102.427-2.62-6.032-4.32-11.948-5.034-17.654h-.03c-1.164-12.396 2.45-23.598 10.754-33.246 13.859-16.126 39.405-26.324 66.896-32.903 14.716-54.859 54.086-94.167 100.5-94.167 38.11 0 71.483 26.525 90.374 66.388 50.704-16.394 78.993-44.936 84.37-85.401C342.407 42.727 276.265 0 199.985 0Zm1.374 18.55c26.346 0 47.764 21.357 47.764 47.733 0 26.406-21.418 47.764-47.764 47.764-26.376 0-47.793-21.358-47.793-47.764 0-26.376 21.417-47.733 47.793-47.733zm181.032 99.5c-1.172 20.81-6.728 45.203-24.957 67.328-12.938 15.681-31.145 28.714-54.17 38.773a183.255 183.255 0 0 1 4.853 41.819c0 57.232-25.659 106.49-62.49 128.803C334.106 374.132 400 294.765 400 200.015c0-29.256-6.309-56.934-17.609-81.966z"/>
  <path fill="#78b8d9" d="M28.496 283.718c4.72 41.43 68.434 92.241 123.247 110.97-8.154-7.199-20.312-20.133-30.558-35.785-10.843-16.698-22.582-41.371-16.548-64.073 7.617-28.766 40.953-46.42 99.052-52.453 72.496-7.558 122.858-27.87 149.622-60.37 14.577-17.653 20.671-37.01 22.941-54.573-7.467 20.222-21.626 36.98-42.327 50.063-30.498 19.297-75.782 30.797-134.538 34.143l-.896.06c-35.457 2.002-129.64 7.409-160.496 43.284-7.199 8.393-10.425 18.042-9.558 28.735z"/>
  <path fill="#de6666" d="M244.044 66.497c0 23.509-19.028 42.596-42.536 42.596-23.508 0-42.626-19.087-42.626-42.596 0-23.508 19.118-42.565 42.626-42.565s42.536 19.057 42.536 42.565"/>
</svg>
