<svg xmlns="http://www.w3.org/2000/svg" width="400" height="414">
  <path fill="#0068b5" d="M207.762 2.5c-19.982-7.303-44.167 1.723-68.627 22.739 16.743-10.542 32.246-13.988 44.786-8.406 36.657 16.26 33.487 103.147-6.959 193.96-40.377 90.814-102.871 151.242-139.459 134.912-8.337-3.72-14.676-11.162-18.948-21.498 1.654 45.2 15.365 77.998 40.377 87.162 48.439 17.64 120.993-59.67 162.059-172.532C262.057 125.905 256.201 20.14 207.761 2.5"/>
  <path fill="#00a363" d="M246.898 238.837c-24.116 112.862 3.859 190.171 62.426 172.532 30.317-9.164 62.908-41.962 90.676-87.162-10.198 10.336-20.809 17.777-31.42 21.498-45.958 16.33-73.519-44.098-61.53-134.912 7.235-54.57 27.08-107.625 51.746-144.97-80.202 3.996-154.893 28.8-218.835 69.178 49.817-22.05 104.25-35.416 161.508-38.104-23.84 40.79-43.615 90.607-54.57 141.94"/>
  <path fill="#ee7800" d="M121.22 174.826c-23.496 40.446-57.396 77.31-70.763 67.87-9.302-6.684 4.616-48.026 43.477-83.924 16.675-15.365 33.143-28.319 50.368-39.412-4.272 17.156-11.989 36.311-23.082 55.466M305.259 61.344c-41.273 1.102-81.167 9.302-117.617 22.255-.138-21.084-6.063-36.932-18.26-44.029-21.91-12.609-58.084 6.27-92.535 44.512 21.98-21.911 44.235-32.04 58.222-23.91 10.336 5.926 14.401 20.809 12.54 40.17-32.59 15.78-61.254 35.21-83.992 56.087C.365 214.583-15.69 288.653 15.317 306.5c30.937 17.915 90.538-27.354 133.12-101.08 22.462-39.068 35.76-78.273 38.585-109.142 33.073-14.883 70.763-25.494 118.237-34.933"/>
</svg>
