<svg xmlns="http://www.w3.org/2000/svg" width="481" height="420">
  <path fill="#33b53f" d="M140.234 90.403C23.984 90.403 0 198.62 0 198.62s45.523-30.124 124.866-30.124c62.082 0 90.374 22.76 150.042 22.76 29.483 0 73.447-15.092 81.727-23.371-119.245 0-117.992-77.48-216.4-77.48zm233.632 3.086c-49.83 0-89.762 30.125-120.467 30.125 7.974 7.974 44.24 34.432 102.655 34.432 25.817 0 44.27-8.616 77.45-8.616 25.236 0 47.356 9.227 47.356 9.227 0-8.585-42.437-65.168-106.994-65.168z"/>
  <path fill="#eb1923" d="M293.327 52.305c0 28.872-23.403 52.305-52.275 52.305-28.902 0-52.305-23.433-52.305-52.305C188.747 23.403 212.15 0 241.052 0c28.872 0 52.275 23.403 52.275 52.305"/>
  <path fill="#1961b5" d="M234.3 202.927c41.215 0 110.965 16.926 134.674 40.604-63.977-21.753-190.035 6.966-190.035 55.94 0 30.767 44.912 36.938 65.81 36.938 54.719 0 129.938-26.274 150.836-47.172-6.966 10.235-19.86 22.945-32.813 35.47 13.565-5.346 47.997-33.24 47.997-33.24s-23.586 32.202-32.569 41.215c16.376-7.79 49.77-47.325 49.77-47.325S365.277 420 201.12 420c-95.353 0-145.764-48.578-145.764-100.211 0-67.031 71.95-116.862 178.944-116.862"/>
</svg>
