<svg xmlns="http://www.w3.org/2000/svg" width="450" height="372">
  <path fill="#00abee" d="M0 152.014s34.654 20.176 103.564-13.136c68.91-33.311 122.833-56.717 218.922 15.459 0 0-54.395-30.88-120.946-2.323-66.587 28.595-112.49 36.578-112.49 36.578S49.676 197.011 0 152.014"/>
  <path fill="#1e54ae" d="M96.96 355.732s-64.555-38.174-23.732-159.447C114.124 75.085 221.462 8.57 262.322 1.966c40.823-6.604 74.425 2.613 81.03 40.17 6.604 37.558-20.43 71.16-26.345 77.764 0 0 15.132-45.468 4.645-66.587-10.56-21.047-50.113-15.785-78.49 9.253-28.268 25.038-70.47 71.16-86.908 130.453-16.475 59.294 5.261 81.03 19.74 87.598 14.515 6.604 67.894 11.866 117.934-30.3 50.113-42.166 82.046-78.308 96.053-105.306 0 0-17.636 92.823-103.891 168.555-86.364 75.768-157.524 62.596-189.13 42.166"/>
  <path fill="#eb1923" d="M388.783 123.202c0 16.366-13.245 29.647-29.574 29.647-16.402 0-29.683-13.281-29.683-29.647 0-16.365 13.281-29.647 29.683-29.647 16.33 0 29.574 13.282 29.574 29.647"/>
  <path fill="#00abee" d="M149.032 213.884s75.95-62.378 139.707-39.843c63.72 22.498 119.53 54.358 161.261 37.05 0 0-39.88 37.956-78.344 34.218-38.429-3.774-89.013-27.687-114.342-36.106-25.329-8.455-57.19-21.518-108.282 4.681"/>
</svg>
