<svg xmlns="http://www.w3.org/2000/svg" width="353" height="360">
  <path fill="#0c87d1" d="M352.324 0s-86.012 25.635-114.528 50.782c-25.073 22.12-44.287 63.82-23.535 91.456 20.313 27.125 38.135 17.945 43.262 6.25 6.69-15.356 27.98-63.428 45.9-87.867C321.317 36.158 345.097 6.543 352.323 0zM144.73 8.179c-38.233.488-49.025 28.247-49.025 28.247 45.533-7.959 50.831 21.363 34.815 37.623-14.99 15.234-21.948 32.813-21.948 45.728 0 17.041 3.515 42.286 31.519 54.762 45.19 20.141 94.02-4.15 94.02-4.15-2.588-.245-27.637.512-42.628-20.143-14.966-20.679-9.57-41.333-4.15-68.19 7.056-34.863-1.538-74.39-42.603-73.877zm54.908 208.804c-4.83.078-12.473 1.425-22.169 7.166-19.36 11.499-31.763 19.629-46.411 35.84-14.65 16.236-17.579 31.568-14.65 47.34 2.906 15.771 15.992 45.532 18.263 48.487 2.246 2.905 6.982 8.789 15.088-2.271 8.13-11.035 23.487-46.802 31.104-67.848 7.324-20.264 8.325-21.533 24.585-68.067 0 0-2.054-.708-5.81-.647z"/>
  <path fill="#66ccf5" d="M79.005 152.956C35.425 158.694 0 169.314 0 180.886c0 17.945 69.435 32.52 155.13 32.52 78.687 0 140.333-14.82 153.785-28.174-20.654 11.353-72.29 19.41-132.716 19.41-78.59 0-142.312-13.624-142.312-30.42 0-8.058 21.143-15.821 45.118-21.266zm27.515 1.367c-26.44 4.444-43.287 11.182-43.287 18.726 0 13.38 52.809 24.22 117.97 24.22 38.405 0 72.511-3.76 94.045-9.596-19.507 2.979-43.555 4.712-69.557 4.712-65.284 0-118.214-9.668-118.214-23.266 0-4.957 7.007-10.938 19.043-14.796z"/>
</svg>
