<svg xmlns="http://www.w3.org/2000/svg" width="451" height="360">
  <path fill="#33b55e" d="M177.595.016c-18.806.252-37.894 3.48-56.637 9.987C42.856 37.128-4.645 112.649.36 191.335c3.255-49.9 35.714-95.396 85.92-112.822 27.314-9.485 55.655-9.19 81.218-.97L243.849 144a128.895 128.895 0 0 1 5.606 13.578 133.07 133.07 0 0 1 1.57 4.85l3.92 57.554c-7.273 45.043-38.426 84.76-84.554 100.772-47.756 16.587-98.652 3.28-132.32-30.034 46.072 59.057 126.246 85.212 200.945 59.28 73.27-25.449 119.612-93.482 120.944-166.752l-1.67-27.74a179.885 179.885 0 0 0-3.673-18.922L339.87 97.394C308.34 36.177 244.76-.884 177.595.016z"/>
  <path fill="#1478c7" d="M450.63 48.117c-30.939 29.097-69.25 46.868-110.76 49.277-4.512.263-9.057.353-13.636.246-47.081-1.093-94.722-25.571-141.664-22.316-5.762.395-11.45 1.15-17.072 2.22-32.262 6.115-62.025 22.858-86.462 46.25-14.664 14.032-28.087 31.646-39.167 50.749 28.465-26.706 63.949-44.46 102.088-47.107 33.1-2.285 66.546 9.198 99.892 16.563 13.95 3.074 27.881 5.433 41.764 5.753 24.174.56 47.427-4.101 69.004-13.167 39.109-16.44 72.678-47.42 96.013-88.468zm-34.983 70.204c-17.113 16.085-36.462 28.703-57.356 37.185-21.026 8.54-43.613 12.88-67.056 12.346-13.365-.312-26.779-2.515-40.21-5.425-33.865-7.34-67.836-19.226-101.454-16.9-38.797 2.697-74.84 21.01-103.534 48.472-14.656 14.03-28.079 31.645-39.159 50.747 28.465-26.705 63.94-44.451 102.088-47.098 46.934-3.255 94.583 21.231 141.656 22.316 1.447.033 2.885.024 4.324.017 38.509-.099 74.585-13.365 105.014-36.733 21.888-16.818 40.851-38.838 55.687-64.927z"/>
  <path fill="#f37514" d="M129.548 215.335c-26.565 0-48.1 21.535-48.1 48.109 0 26.566 21.535 48.11 48.1 48.11 26.574 0 48.11-21.544 48.11-48.11 0-26.574-21.536-48.11-48.11-48.11"/>
</svg>
