<svg xmlns="http://www.w3.org/2000/svg" width="538" height="540">
  <path fill="#00abee" d="M24.592.01c-3.797.122-7.25 1.348-10.31 3.749-31.408 24.66-9.287 163.844 49.413 310.887 54.222 135.818 120.675 230.825 155.258 225.11-31.309-7.976-79.616-84.657-116.707-189.62C58.945 227.59 47.34 112.929 76.331 94.025c14.624-9.535 36.777 7.134 60.713 41.717C94.565 52.43 51.17-.842 24.592.011zm472.975 102.732c-30.191-.033-79.942 20.043-133.195 54.51 37.404-17.956 67.97-22.237 79.122-8.29 17.922 22.394-21.04 83.329-87.015 136.099-63.014 50.41-127.884 75.13-149.188 57.727a18.985 18.985 0 0 0 2.12 3.629c19.918 26.698 106.282-4.058 192.893-68.697 86.61-64.63 140.676-138.663 120.757-165.361-4.862-6.514-13.68-9.605-25.494-9.617zM207.62 384.646a18.29 18.29 0 0 0-1.823 3.373c-11.324 28.026 53.487 76.219 144.775 107.66 91.287 31.44 174.468 34.212 185.8 6.194 9.832-24.315-37.676-63.814-110.06-94.389 31.672 18.566 49.48 38.93 43.92 54.114-8.94 24.398-74.783 26.196-147.068 4.017-69.043-21.189-118.992-56.58-115.544-80.97Z"/>
  <path fill="#33b53f" d="M99.038 124.949c-3.063-.24-5.83.57-8.257 2.511-21.89 17.519-7.472 120.345 32.2 229.687 38.377 105.763 86.322 178.872 109.227 167.688-20.867-7.827-53.578-63.797-79.88-139.917-31.392-90.859-41.752-176.002-23.136-190.163 12.767-9.724 35.853 16.496 59.236 63.253-32.202-78.137-67.955-131.375-89.39-133.06zm304.557 32.084c-21.037-.455-57.756 15.236-97.173 42.002 28.216-16.165 51.483-21.733 59.616-12.264 12.512 14.557-15.514 59.162-62.593 99.626-46.444 39.911-94.067 60.853-107.363 47.434.264.437.544.866.858 1.27 14.005 18.07 75.056-5.79 136.346-53.298 61.298-47.508 99.642-100.674 85.637-118.745-3.045-3.928-8.316-5.873-15.328-6.025zM209.287 371.911c-.223.412-.42.833-.594 1.262-7.415 19.35 40.043 52.366 106.027 73.736 65.974 21.37 125.483 23.003 132.906 3.654 6.458-16.834-28.604-43.994-81.25-64.845 25.931 12.693 41.28 27.037 37.767 37.767-5.394 16.496-53.364 18.178-107.132 3.745-53.034-14.228-91.873-38.815-87.724-55.319z"/>
  <path fill="#f37014" d="M288.722 170.638c0 25.964-21.049 47.013-47.021 47.013-25.965 0-47.013-21.049-47.013-47.013 0-25.973 21.048-47.021 47.013-47.021 25.972 0 47.02 21.048 47.02 47.021"/>
</svg>
