<svg width="450" height="450" xml:space="preserve" xmlns="http://www.w3.org/2000/svg"><path fill="#2975cf" d="M397.237 147.808H235.715l4.12 15.372h201.411l-27.275 49.572C421.377 323.568 329.621 414 232.875 414c-80.167 0-137.845-29.554-177.79-108.751h159.692l-4.435-16.551H8.754l28.616-49.565C32.44 118.51 124.238 36 231.213 36c111.966 0 166.024 111.808 166.024 111.808Zm-87.096-27.673c-30.5-41.016-110.034-63.861-178.81-28.564-68.777 35.297-80.87 108.154-80.87 147.562l146.601.001-7.069-26.382h-126.1c9.696-16.519 20.009-34.904 28.621-49.572h84.196l-11.534-43.045ZM136.7 328.598c24.642 36.1 105.83 66.61 170.27 37.985 54.19-24.072 104.098-90.554 93.442-153.83H253.117l7.07 26.381H385.58c-9.692 16.89-18.046 34.553-26.664 49.564h-85.45c3.615 14.212 7.149 25.98 10.692 39.9z"/></svg>