<?xml version="1.0" encoding="utf-8" standalone="no"?>
<svg xmlns:svg="http://www.w3.org/2000/svg" xmlns="http://www.w3.org/2000/svg" version="1.1" width="500" height="500" viewBox="-250 -250 500 500">
	<title>Amagi Kagoshima Chapter</title>
	<path d="M -250 -250 h 500 v 500 h -500 v -500 z" style="fill:white;stroke:none" />
	<g style="fill:#5bba80;stroke:none">
		<path d="M 200,0 A 200,200 0 0 1 112.53125,165.46875 L 123.6875,205.59375 A 240,240 0 0 0 240,0 240,240 0 0 0 0,-240 240,240 0 0 0 -240,0 240,240 0 0 0 -123.6875,205.59375 L -112.53125,165.46875 A 200,200 0 0 1 -200,0 200,200 0 0 1 0,-200 200,200 0 0 1 200,0 z" />
		<path d="M 0,-96 A 96,96 0 0 1 96,0 96,96 0 0 1 80.96875,51.78125 L 93.875,98.25 A 136,136 0 0 0 136,0 136,136 0 0 0 0,-136 136,136 0 0 0 -136,0 136,136 0 0 0 -93.875,98.25 L -80.96875,51.78125 A 96,96 0 0 1 -96,0 96,96 0 0 1 0,-96 z" />
	</g>
	<path d="M 0,-212 113.51034,211.46332 0,119.5 -113.50851,211.46332 z" style="fill:#f09812;stroke:none" />
</svg>