<svg xmlns="http://www.w3.org/2000/svg" width="200" height="200" fill="#3c8bcd"><path d="M195.65 51.805h-48.128c-16.863-29.715-45.564-38.472-45.564-38.472v20.445c1.344.509 3.27 1.347 5.546 2.647v53.271h-5.546v21.244h5.546v52.028a55.03 55.03 0 0 1-5.546 2.771v21s57.546-16.276 57.546-86.033c0-2.769-.101-5.446-.274-8.053l36.42-40.776zm-68.17 91.431v-32.297h10.464s-.881 16.573-10.464 32.23zm0-53.541V56.869c4.687 8 8.632 18.727 10.46 32.826h-10.464zm-31.39-76.362s-30 7.458-46.21 38.472H4.35l33.704 38.778c-.255 3.199-.316 7.806-.094 11.32 2.5 39.55 19 60.15 33.82 71.93v-30.5s-13.1-13.318-13.1-43.334 17.545-47.35 17.545-47.35v124.47c11 7.5 19.87 9.55 19.87 9.547V13.333z"/></svg>