<?xml version="1.0" encoding="UTF-8"?>
<svg id="Layer_1" xmlns="http://www.w3.org/2000/svg" version="1.1" xmlns:cc="http://web.resource.org/cc/" xmlns:dc="http://purl.org/dc/elements/1.1/" xmlns:inkscape="http://www.inkscape.org/namespaces/inkscape" xmlns:rdf="http://www.w3.org/1999/02/22-rdf-syntax-ns#" xmlns:sodipodi="http://sodipodi.sourceforge.net/DTD/sodipodi-0.dtd" xmlns:svg="http://www.w3.org/2000/svg" viewBox="0 0 500 500">
  <!-- Generator: Adobe Illustrator 29.3.1, SVG Export Plug-In . SVG Version: 2.1.0 Build 151)  -->
  <defs>
    <style>
      .st0 {
        fill: #339;
      }
    </style>
  </defs>
  <g id="svg2" inkscape:output_extension="org.inkscape.output.svg.inkscape" inkscape:version="0.46dev+devel" sodipodi:docname="Naha.svg" sodipodi:version="0.32">
    <path id="path2768" class="st0" d="M226.1,0v31.2c-58.7,6-115.2,33.9-156.2,82.5C-13.9,213.3-1.3,362,98.2,445.8c37.6,31.6,82.3,49.5,127.7,54.1v-43.3c-35.8-4.5-70.6-18.9-100.1-43.7-81.4-68.5-91.7-190.1-23.3-271.5,32.5-38.6,77-61.2,123.4-67v255.1h47.9V74.5c35.8,4.4,70.6,18.9,100.3,43.8,81.4,68.5,91.7,190.2,23.3,271.5-32.5,38.6-77,61.2-123.4,67v43.3c58.7-6,115.3-33.9,156.2-82.6,83.7-99.5,71.1-248.2-28.4-332-37.6-31.8-82.4-49.6-127.9-54.1V0h-47.9ZM206.1,121.4c-26.9,8.1-51.9,24-71.4,47.1-53.6,63.6-45.5,158.9,18.1,212.5,21.7,18.3,47,29.4,73.1,33.5v-44.7c-16-3.6-31.4-11-44.9-22.4-45.1-38-50.9-105.5-12.9-150.5,10.6-12.6,23.6-22.1,37.7-28.5v-46.9h.1ZM293.9,121.4v46.9c8.7,4,17.1,9.1,24.9,15.8,45.1,38,50.9,105.4,12.9,150.5-15.5,18.4-36,30.3-57.8,35.3v44.7c34.5-5.5,67.1-23,91.4-51.7,53.6-63.6,45.4-158.7-18.3-212.4-16.1-13.5-34.2-23.1-53.3-28.9h.1Z"/>
  </g>
</svg>