<svg xml:space="preserve" width="490" height="360" xmlns="http://www.w3.org/2000/svg">
  <path d="m465.468 172.745 23.984-52.885h-19.547l-23.984 52.885zm-30.64-.54 23.925-52.885h-19.487l-23.984 52.885zm-152.837 67.634h153.917l23.924-52.884h-193.73l-4.437-14.75H401.01l23.984-52.825h-179.22l-4.916-16.429-4.857 16.429H0l23.924 52.825h196.488l-4.497 14.75H34.897l23.924 52.884h141.265l-7.195 23.804h96.235zm-6.296-218.373c1.56 4.017 3.478 9.713 3.478 14.33 0 20.746-16.849 37.655-37.595 37.655-20.806 0-37.655-16.909-37.655-37.655C203.923 16.009 220.892 0 247.634 0c60.8 0 134.25 36.336 160.632 108.707l-32.678.18c-21.585-44.37-50.186-77.289-99.893-87.422m66.256 232.345c-22.665 30.64-59.06 50.546-100.073 50.546-40.893 0-77.108-19.727-99.773-50.127l-64.637.062C106.188 316.049 168.847 360 241.578 360c72.971 0 135.93-43.77 164.47-106.069zM208.24 4.077C141.924 15.709 98.273 55.463 75.488 107.927h65.177c14.93-20.926 36.156-37.055 60.979-45.449 0 0-6.596-6.056-6.596-26.682 0-22.485 13.191-31.719 13.191-31.719" fill="#000040"/>
</svg>
