<?xml version="1.0" encoding="UTF-8" standalone="no"?>
<!-- Created with Inkscape (http://www.inkscape.org/) -->

<svg
   xmlns:dc="http://purl.org/dc/elements/1.1/"
   xmlns:cc="http://creativecommons.org/ns#"
   xmlns:rdf="http://www.w3.org/1999/02/22-rdf-syntax-ns#"
   xmlns:svg="http://www.w3.org/2000/svg"
   xmlns="http://www.w3.org/2000/svg"
   xmlns:sodipodi="http://sodipodi.sourceforge.net/DTD/sodipodi-0.dtd"
   xmlns:inkscape="http://www.inkscape.org/namespaces/inkscape"
   version="1.0"
   width="420"
   height="451.33667"
   id="svg2"
   sodipodi:docname="Emblem_of_Urasoe,_Okinawa.svg"
   inkscape:version="0.92.4 (5da689c313, 2019-01-14)">
  <metadata
     id="metadata8">
    <rdf:RDF>
      <cc:Work
         rdf:about="">
        <dc:format>image/svg+xml</dc:format>
        <dc:type
           rdf:resource="http://purl.org/dc/dcmitype/StillImage" />
        <dc:title></dc:title>
      </cc:Work>
    </rdf:RDF>
  </metadata>
  <sodipodi:namedview
     pagecolor="#ffffff"
     bordercolor="#666666"
     borderopacity="1"
     objecttolerance="10"
     gridtolerance="10"
     guidetolerance="10"
     inkscape:pageopacity="0"
     inkscape:pageshadow="2"
     inkscape:window-width="1920"
     inkscape:window-height="996"
     id="namedview6"
     showgrid="false"
     fit-margin-top="-0.1"
     fit-margin-left="0"
     fit-margin-right="0"
     fit-margin-bottom="0"
     inkscape:zoom="0.78666667"
     inkscape:cx="600.58346"
     inkscape:cy="193.22812"
     inkscape:window-x="1912"
     inkscape:window-y="-8"
     inkscape:window-maximized="1"
     inkscape:current-layer="svg2" />
  <defs
     id="defs5" />
  <path
     d="M 209.79668,-0.1 172.76085,113.00941 H 3.87875 l 135.66247,96.09295 H 58.65048 v 32.03098 h 303.29336 v -32.03098 h -81.4225 L 416.18381,113.00941 H 246.8325 Z M 187.86922,32.400186 C 133.67976,38.00907 85.68839,64.186387 51.76882,102.99973 h 46.01326 c 22.4999,-18.242853 49.47927,-31.145853 78.98265,-36.723023 z m 43.85492,0 11.10449,33.876521 c 29.51548,5.57717 56.515,18.48017 79.04521,36.723023 h 46.16965 C 334.02603,64.186337 285.93755,38.008459 231.72414,32.400186 Z M 394.69427,141.19292 368.3563,159.83595 c 12.72024,24.46572 19.92552,52.20006 19.92552,81.54763 0,7.37069 -0.48915,14.62773 -1.37633,21.77106 h 31.93714 C 419.59681,255.91866 420,248.56783 420,241.13334 c 0,-36.20478 -9.16639,-70.23536 -25.30573,-99.94042 z m -369.48238,0.0313 C 9.13571,170.92345 0,204.93869 0,241.13336 c 0,7.43449 0.40637,14.78532 1.15737,22.0213 h 31.6869 c -0.8797,-7.1415 -1.34505,-14.40029 -1.34505,-21.77106 0,-29.36259 7.21772,-57.10402 19.92552,-81.57891 z m 79.32673,3.81619 h 210.98532 l -53.83332,38.13063 18.36151,25.93134 h -140.0417 l 18.36151,-25.93134 z M 2.56498,274.16531 c 1.74539,10.98667 4.05734,21.68296 7.4447,32.03098 h 365.979 c -26.12216,66.23109 -90.96046,113.39093 -166.192,113.39093 -71.38684,0 -133.30252,-42.45926 -161.71893,-103.38125 H 13.79459 c 30.13175,78.98928 106.41792,135.13069 196.00209,135.13069 104.79302,0 191.74352,-76.81592 207.60706,-177.17137 h -32.18738 -4.84844 z"
     id="path2386"
     style="fill:#006ab0;fill-opacity:1;stroke:none;stroke-width:1.00096822"
     inkscape:connector-curvature="0" />
</svg>
