<svg xmlns="http://www.w3.org/2000/svg" width="386" height="360">
<path d="m228.24 249.477-35.154-20.308-33.514 19.344c5.46 14.74-.321 31.658-14.419 39.795-15.704 9.065-35.797 3.676-44.863-12.028-9.065-15.703-3.676-35.797 12.028-44.898a33.346 33.346 0 0 1 9.565-3.676C104.645 212.18 92.795 191.3 88.477 168.28c-3.32 1.428-6.567 3.105-9.744 4.925C42.222 194.3 24.02 234.88 29.73 274.21L.5 291.092 0 334.17l37.582 21.165 29.195-16.917c31.23 24.59 75.485 29.159 111.997 8.066 35.262-20.344 53.429-58.925 49.467-97.007m127.95 24.84c5.675-39.33-12.491-79.946-49.003-101.004-35.262-20.343-77.77-16.774-108.749 5.64v40.615l33.478 19.344c10.065-12.063 27.624-15.525 41.687-7.423 15.703 9.065 21.093 29.195 11.992 44.898-9.066 15.704-29.16 21.058-44.863 11.992a32.626 32.626 0 0 1-7.96-6.388c-4.853 22.663-17.024 43.364-34.798 58.64a115.481 115.481 0 0 0 9.173 5.96c36.511 21.057 80.767 16.525 111.961-8.066l29.195 16.881 37.618-21.128-.5-43.115zM152.256 240.02l35.19-20.308v-38.653c-15.49-2.641-27.267-16.132-27.267-32.336 0-18.166 14.704-32.906 32.835-32.906 18.167 0 32.871 14.74 32.871 32.906 0 3.498-.57 6.889-1.57 10.065 22.057-7.138 46.076-6.96 68.169.785.392-3.569.606-7.21.606-10.85 0-42.186-26.09-78.233-62.958-92.973V21.985L193.014 0l-37.083 21.985V55.75c-36.868 14.74-62.922 50.787-62.922 92.974 0 40.687 24.341 75.699 59.246 91.296" fill="#523179"/>
</svg>
