<?xml version="1.0" encoding="UTF-8" standalone="no"?>
<!-- Created with Inkscape (http://www.inkscape.org/) -->

<svg
   xmlns:dc="http://purl.org/dc/elements/1.1/"
   xmlns:cc="http://creativecommons.org/ns#"
   xmlns:rdf="http://www.w3.org/1999/02/22-rdf-syntax-ns#"
   xmlns:svg="http://www.w3.org/2000/svg"
   xmlns="http://www.w3.org/2000/svg"
   version="1.1"
   width="619"
   height="438"
   id="svg3912">
  <defs
     id="defs3914" />
  <metadata
     id="metadata3917">
    <rdf:RDF>
      <cc:Work
         rdf:about="">
        <dc:format>image/svg+xml</dc:format>
        <dc:type
           rdf:resource="http://purl.org/dc/dcmitype/StillImage" />
        <dc:title></dc:title>
      </cc:Work>
    </rdf:RDF>
  </metadata>
  <g
     id="layer5"
     style="display:inline">
    <g
       id="g4542">
      <path
         d="m 490.00001,83.178574 a 48.035713,48.035713 0 1 1 -96.07143,0 48.035713,48.035713 0 1 1 96.07143,0 z"
         transform="matrix(0.99925653,0,0,0.99925653,0.29287477,0.09755412)"
         id="path3955"
         style="fill:#ef4129;fill-opacity:1;fill-rule:evenodd;stroke:none" />
      <path
         d="M 307.21875,236 C 230.47581,247.18113 146.20924,287.9441 83.84375,374.96875 117.1609,355.73308 171.77223,333.04498 246.4375,320.40625 273.04687,296.31238 295.14644,266.83587 307.21875,236 z m 112.65625,3.25 c -3.30149,26.01503 -12.10074,50.54015 -26.84375,72.40625 10.00012,0.4125 9.09998,1.02162 19.25,1.90625 11.45452,-22.47607 19.75254,-46.44946 21.25,-70.125 -7.04021,-1.64195 -6.24953,-3.02237 -13.65625,-4.1875 z m 75.34375,25.9375 c 8.12058,22.52397 7.01143,41.4633 0.34375,60 40.35059,8.30004 76.40676,19.76922 114.09375,37.09375 C 564.911,311.89916 533.18496,284.02059 495.21875,265.1875 z"
         id="path4486"
         style="fill:#6cc1a4;fill-opacity:1;stroke:none" />
      <path
         d="m 430.3947,182.23599 c 24.35829,78.3514 -9.53138,181.19595 -118.3647,224.76709 151.74132,6.832 260.10625,-99.52538 118.3647,-224.76709 z"
         id="path4488-1"
         style="fill:#0173bc;fill-opacity:1;stroke:none" />
      <path
         d="M 11.091,165.45683 C 97.06117,-10.146915 354.39299,13.065725 407.91167,166.62575 464.38145,328.65328 249.47928,474.78933 83.84344,376.27371 212.13445,399.81497 347.36084,259.32857 319.85655,150.41921 288.8021,27.452115 109.63959,31.683585 11.091,165.45683 z"
         id="path4465-7"
         style="fill:#0173bc;fill-opacity:1;stroke:none" />
    </g>
  </g>
</svg>
