<svg xmlns="http://www.w3.org/2000/svg" width="360" height="409">
<path d="m 310.77126,107.2011 -112.68277,25.29892 c 46.57514,8.53709 81.88632,49.30137 81.88632,98.33482 0,55.20176 -44.78728,99.94428 -99.98904,99.94428 -0.0324,0 -0.12974,0 -0.16218,0 l 26.05888,78.17633 c 87.11562,-12.5601 154.11751,-87.51815 154.11751,-178.12061 0,-47.87128 -18.72841,-91.36211 -49.21218,-123.63374 M 79.99705,230.83484 c 0,-44.11652 28.56195,-81.52856 68.20882,-94.80387 l 20.0693,-4.46964 c 0.53519,-0.0973 1.07362,-0.0973 1.60881,-0.16218 l 134.80817,-30.26029 c 0,0 -0.0324,-0.0324 -0.0324,-0.0324 L 313.01812,99.22843 355.16805,6.16766 149.78228,53.41325 C 64.76707,67.80597 0,141.7358 0,230.86309 0,319.09644 63.56013,392.49011 147.36841,407.8212 l 28.77213,-77.10335 C 122.6822,328.70683 79.99578,284.76871 79.99578,230.86309 M 148.87635,45.85961 170.06305,40.98776 12.36938,0 48.39577,97.30661 c 26.86342,-26.46076 61.63844,-44.87649 100.48058,-51.447" fill="#606"/>
</svg>
