<?xml version="1.0" encoding="UTF-8" standalone="no"?>
<!-- Created with Inkscape (http://www.inkscape.org/) -->

<svg
   xmlns:dc="http://purl.org/dc/elements/1.1/"
   xmlns:cc="http://creativecommons.org/ns#"
   xmlns:rdf="http://www.w3.org/1999/02/22-rdf-syntax-ns#"
   xmlns:svg="http://www.w3.org/2000/svg"
   xmlns="http://www.w3.org/2000/svg"
   xmlns:sodipodi="http://sodipodi.sourceforge.net/DTD/sodipodi-0.dtd"
   xmlns:inkscape="http://www.inkscape.org/namespaces/inkscape"
   version="1.1"
   id="svg2"
   width="1114"
   height="1118"
   viewBox="0 0 1114 1118"
   sodipodi:docname="Emblem of Nanjo, Okinawa.svg"
   inkscape:version="0.92.3 (2405546, 2018-03-11)">
  <metadata
     id="metadata8">
    <rdf:RDF>
      <cc:Work
         rdf:about="">
        <dc:format>image/svg+xml</dc:format>
        <dc:type
           rdf:resource="http://purl.org/dc/dcmitype/StillImage" />
        <dc:title></dc:title>
      </cc:Work>
    </rdf:RDF>
  </metadata>
  <defs
     id="defs6">
    <style
       id="style817"
       type="text/css">
   <![CDATA[
    .fil5 {fill:white}
    .fil8 {fill:#0068B7;fill-rule:nonzero}
    .fil6 {fill:#009944;fill-rule:nonzero}
    .fil7 {fill:#E60012;fill-rule:nonzero}
    .fil0 {fill:white;fill-rule:nonzero}
    .fil4 {fill:black;fill-rule:nonzero;fill-opacity:0.301961}
    .fil3 {fill:black;fill-rule:nonzero;fill-opacity:0.400000}
    .fil2 {fill:black;fill-rule:nonzero;fill-opacity:0.501961}
    .fil1 {fill:white;fill-rule:nonzero}
   ]]>
  </style>
  </defs>
  <sodipodi:namedview
     pagecolor="#ffffff"
     bordercolor="#666666"
     borderopacity="1"
     objecttolerance="10"
     gridtolerance="10"
     guidetolerance="10"
     inkscape:pageopacity="0"
     inkscape:pageshadow="2"
     inkscape:window-width="1920"
     inkscape:window-height="1017"
     id="namedview4"
     showgrid="false"
     inkscape:zoom="0.29852809"
     inkscape:cx="284.9905"
     inkscape:cy="1013.1063"
     inkscape:window-x="-8"
     inkscape:window-y="-8"
     inkscape:window-maximized="1"
     inkscape:current-layer="svg2" />
  <g
     transform="matrix(2.8465815,0,0,2.8458344,-723.63657,-295.52229)"
     style="clip-rule:evenodd;fill-rule:evenodd;image-rendering:optimizeQuality;shape-rendering:geometricPrecision;text-rendering:geometricPrecision"
     id="_256972104">
    <path
       d="m 608.783,186.377 c -34.35,-48.0697 -92.4307,-79.8768 -156.925,-79.8768 -107.224,0 -194.146,86.9268 -194.146,194.146 0,37.6618 7.89567,68.0528 26.4591,97.8177 13.8461,-8.2122 25.8661,-13.8248 45.0437,-19.6228 -12.9331,-20.961 -22.1492,-47.9114 -22.1492,-78.1949 0,-79.9654 64.8272,-144.793 144.793,-144.793 37.0051,0 70.7563,13.8862 96.3449,36.7276 5.33622,4.74803 8.90433,15.4524 -1.35236,28.3854 0,0 -34.3406,44.1555 -43.2602,52.1823 -8.91969,8.02795 -19.6217,10.7043 -29.8807,-0.89173 -10.2567,-11.5961 -31.2177,-39.2457 -36.1228,-45.0437 -4.9063,-5.80157 -18.2846,-15.1665 -32.5559,-0.44646 -14.2724,14.7177 -61.9913,76.2614 -73.1409,89.6421 -11.1484,13.3748 -4.45984,29.4295 -1.33701,33.8894 3.12165,4.46102 16.0547,12.0413 28.9878,0.89291 12.9343,-11.1496 62.4366,-67.7846 62.4366,-67.7846 0,0 36.5693,45.039 46.8272,56.1898 10.2579,11.1484 27.0413,21.0886 45.4902,-1.33819 22.7433,-27.6472 82.0594,-98.5583 90.978,-111.045 8.91969,-12.4913 10.7031,-30.7748 3.51024,-40.8366 z"
       class="fil6"
       id="_298113784"
       inkscape:connector-curvature="0"
       style="fill:#009944;fill-rule:nonzero" />
    <path
       d="m 642.288,324.658 c 0,21.7961 -17.6705,39.4677 -39.4701,39.4677 -21.7961,0 -39.4665,-17.6717 -39.4665,-39.4677 0,-21.7949 17.6705,-39.4701 39.4665,-39.4701 21.7996,0 39.4701,17.6752 39.4701,39.4701 z"
       class="fil7"
       id="_298113736"
       inkscape:connector-curvature="0"
       style="fill:#e60012;fill-rule:nonzero" />
    <path
       d="m 290.415,408.278 c 0,0 32.1094,-22.2992 75.3685,-24.0839 37.9193,-1.56496 50.9776,-3.50315 90.0874,15.163 39.2457,18.7311 50.5441,29.0067 90.9791,25.8673 45.9354,-3.56811 75.3697,-37.9075 75.3697,-37.9075 0,0 -45.8256,108.639 -172.146,106.141 -112.832,-2.22874 -159.659,-85.1799 -159.659,-85.1799 z"
       class="fil8"
       id="_298113592"
       inkscape:connector-curvature="0"
       style="fill:#0068b7;fill-rule:nonzero" />
    <path
       d="m 350.176,373.045 c 0,0 40.5827,-22.2992 86.5193,-19.6228 39.7843,2.31496 45.9094,15.0803 90.978,31.2177 36.124,12.9331 79.3843,3.12165 79.3843,3.12165 0,0 -34.3406,23.1909 -67.3429,23.1909 -33.0024,0 -75.5091,-30.1016 -111.494,-37.9075 -47.2724,-10.2567 -78.0449,0 -78.0449,0 z"
       class="fil8"
       id="_298113712"
       inkscape:connector-curvature="0"
       style="fill:#0068b7;fill-rule:nonzero" />
  </g>
</svg>
