<?xml version="1.0" encoding="UTF-8" standalone="no"?>
<!-- Created with Inkscape (http://www.inkscape.org/) -->

<svg
   xmlns:dc="http://purl.org/dc/elements/1.1/"
   xmlns:cc="http://creativecommons.org/ns#"
   xmlns:rdf="http://www.w3.org/1999/02/22-rdf-syntax-ns#"
   xmlns:svg="http://www.w3.org/2000/svg"
   xmlns="http://www.w3.org/2000/svg"
   version="1.1"
   width="169"
   height="146"
   id="svg3955">
  <defs
     id="defs3957" />
  <metadata
     id="metadata3960">
    <rdf:RDF>
      <cc:Work
         rdf:about="">
        <dc:format>image/svg+xml</dc:format>
        <dc:type
           rdf:resource="http://purl.org/dc/dcmitype/StillImage" />
        <dc:title></dc:title>
      </cc:Work>
    </rdf:RDF>
  </metadata>
  <g
     id="layer3">
    <path
       d="M 37.407775,64.178398 C 142.69306,-21.429685 181.31513,130.7001 39.697505,143.22731 95.290009,125.76146 117.28206,43.304584 37.407775,64.178398 z"
       id="path3057"
       style="fill:#4faa27;fill-opacity:1;stroke:none" />
    <path
       d="m 31.144161,67.464704 c -32.2525995,22.279761 6.614608,30.831388 47.844045,29.718463 41.229434,-1.112925 84.821114,-11.890398 61.109084,-30.085535 68.1129,21.403303 5.18419,47.090448 -54.688756,47.090448 -61.727089,0 -119.052141,-24.645799 -54.264373,-46.723376 z"
       id="path3055"
       style="fill:#3c6baf;fill-opacity:1;stroke:none" />
    <path
       d="m 254.59459,39.837837 a 35.675678,35.675678 0 1 1 -71.35135,0 35.675678,35.675678 0 1 1 71.35135,0 z"
       transform="matrix(0.42946426,0,0,0.42946426,-1.6964219,0.85535841)"
       id="path3831"
       style="fill:#fa0000;fill-opacity:1;fill-rule:evenodd;stroke:none" />
  </g>
</svg>
