<?xml version="1.0" encoding="UTF-8"?>
<svg id="Layer_1" data-name="Layer 1" xmlns="http://www.w3.org/2000/svg" viewBox="0 0 1200 1500">
  <defs>
    <style>
      .cls-1 {
        fill: #fbca19;
      }
    </style>
  </defs>
  <path class="cls-1" d="M257.55,826.91l-151.05,131.82,77.64,139.43,149.36-196.04-75.95-75.21h0ZM215.32,113.62l-40.32,40.51,109.68,110.19,40.32-40.51-109.68-110.19ZM942.45,826.91l-75.95,75.21,149.36,196.04,77.64-139.43-151.05-131.82h0ZM984.68,113.62l-109.68,110.19,40.32,40.51,109.68-110.19-40.32-40.51ZM1200,445.15h-216.78c-42.49-142.46-161.53-251.67-309.14-279.44V39.99h52.51V0h-93.18v160.22c-11.02-.92-22.16-1.39-33.41-1.39s-22.39.46-33.41,1.39V0h-93.18v39.99h52.51v125.72c-147.61,27.77-266.65,136.98-309.14,279.44H0v70.32h202.51c-1.66,14.84-2.51,29.93-2.51,45.21,0,5.04.09,10.08.28,15.07H0v70.32h209.06c33.03,153.4,153.25,274.17,305.94,307.35v546.57h170v-546.57c152.69-33.18,272.91-153.96,305.94-307.35h209.06v-70.32h-200.28c.19-4.99.28-10.03.28-15.07,0-15.28-.85-30.37-2.51-45.21h202.51v-70.32h0ZM839.53,575.75c-1.5,24.63-6.69,48.25-15.02,70.32-34.31,91.02-121.89,155.72-224.51,155.72s-190.2-64.7-224.51-155.72c-8.33-22.07-13.52-45.69-15.02-70.32-.31-4.98-.47-10.01-.47-15.07,0-15.45,1.45-30.56,4.21-45.21,4.72-25.03,13.3-48.68,25.08-70.32,40.74-74.82,119.82-125.58,210.71-125.58s169.97,50.75,210.71,125.58c11.78,21.64,20.36,45.3,25.08,70.32,2.76,14.65,4.21,29.76,4.21,45.21,0,5.06-.16,10.09-.47,15.07h0ZM740,560.68c0,5.09-.27,10.12-.79,15.07-2.79,26.28-12.78,50.4-27.96,70.32-25.58,33.58-65.9,55.25-111.25,55.25s-85.67-21.67-111.25-55.25c-15.18-19.92-25.17-44.04-27.96-70.32-.52-4.95-.79-9.98-.79-15.07,0-15.81,2.6-31.02,7.39-45.21,9.71-28.74,28.41-53.32,52.74-70.32,22.65-15.83,50.18-25.12,79.87-25.12s57.22,9.28,79.87,25.12c24.33,17.01,43.03,41.58,52.74,70.32,4.79,14.19,7.39,29.4,7.39,45.21Z"/>
</svg>