<svg xmlns="http://www.w3.org/2000/svg" width="200" height="200" fill="#00b248"><path d="M119.252 103.664S117.75 118.875 98 120.246l42.488 39.434 1.15-.99 42.199-36.185 1.379-1.18c3.108-2.66 8.311-7.112 8.311-15.963v-1.698h-74.275zm.096-5.649l.078 1.617h73.784v-1.698c0-5.479-2.401-10.706-6.942-15.117-2.358-2.291-42.618-38.208-44.331-39.736l-1.13-1.008-42.327 37.76c11.458.042 20.393 8.33 20.868 18.182zm-32.345 16.962c-4.337-3.781-6.825-9.241-6.825-14.981 0-6.371 2.64-10.741 6.357-14.458l50.96-46.466-1.407-1.255-36.1-32.156-1.123-.999-1.128.993L13.6 80.185c-4.923 5.03-7.127 13.574-7.127 19.811 0 11.937 6.099 19.176 12.065 24.684 2.467 2.278 76.398 66.91 79.544 69.66l1.108.97 1.116-.961 35.314-30.387 1.42-1.223-49.98-47.711-.057-.051z"/></svg>