<svg width="200" height="200" xmlns="http://www.w3.org/2000/svg"><path d="m195.258 30.872-82.427 13.22-12.247-13.22-13.025 13.803L4.742 30.872l11.859 28.383 38.144 6.837c-9.346 10.697-15.01 24.694-15.01 40.014 0 27.735 18.56 51.137 43.935 58.465V141.77c-13.332-6.334-22.551-19.92-22.551-35.664 0-17.589 11.512-32.49 27.412-37.584v11.035c-10.09 4.588-17.108 14.747-17.108 26.551s7.019 21.965 17.108 26.553v32.806l12.053 11.664 11.729-11.664v-32.659c10.264-4.517 17.433-14.768 17.433-26.699s-7.169-22.182-17.433-26.696V68.415c16.067 4.994 27.735 19.98 27.735 37.69 0 15.742-9.219 29.33-22.552 35.664v22.801c25.377-7.328 43.936-30.729 43.936-58.465a60.62 60.62 0 0 0-15.158-40.183L183.4 59.06l11.858-28.188z" fill="#ff6618"/></svg>