<svg width="165" height="140" xml:space="preserve" xmlns="http://www.w3.org/2000/svg"><path d="m124.28 59.482 7.87-19.213h-8.667l-7.758 19.213zm11.606 0 7.253-19.213h-7.755l-7.758 19.213zM94.295 1.944c-25.362 0-47.529 13.836-59.363 34.326h9.452C55.283 20.39 73.587 9.945 94.295 9.945c33.332 0 60.45 27.05 60.45 60.301 0 33.249-27.119 60.296-60.45 60.296-25.027 0-46.529-15.255-55.705-36.926h83.822L116.57 82.78h10.523l7.375-19.546h-25.355l-1.796-3.75h5.057l7.87-19.213H93.65l-2.156-4h-24.4l1.962 4H2.92l9.45 19.212h64.865l1.797 3.751h-64.82l9.551 19.419h64.57l1.798 3.753H25.61l2.04 4.149c11.533 27.692 35.946 47.987 66.64 47.987 37.757 0 68.475-30.64 68.475-68.297 0-37.66-30.717-68.302-68.474-68.302z" fill="#f67000"/></svg>