<svg xmlns="http://www.w3.org/2000/svg" width="200" height="160"><path d="M81.517 98.635c5.622 3.332 12.942 7.203 16.066 15.531V69.813s1.249-12.286-9.579-17.908C85.444 50.576 1.798 23.17 1.798 23.17l7.514 23.883 20.325 6.666c-.399 1.071-.774 2.154-1.125 3.247l-17.932-5.88 7.903 25.137c.339.757 1.195 2 2.328 2.363l60.706 20.049zm-24.223-5.108L25.677 83.109C27.154 122.631 58.39 154.127 98 155.258v-30.32c-19.169-.918-35.177-13.84-40.706-31.411zM198.202 23.17l-37.685 11.824c-13.726-18.364-35.64-30.252-60.33-30.252-23.395 0-44.29 10.677-58.096 27.417l32.548 10.85a44.74 44.74 0 0 1 25.548-7.969 44.79 44.79 0 0 1 28.743 10.386c-8.06 2.79-14.345 5.136-16.935 6.48-10.827 5.622-9.579 17.908-9.579 17.908v6.102l39.395-12.944c.434 1.057.828 2.133 1.182 3.229l-40.576 13.332v34.634c3.124-8.328 10.204-11.451 15.826-14.783 2.333-1.383 13.485-5.168 25.735-9.123-4.463 19.152-21.151 33.602-41.396 34.664v30.326c40.346-1.262 72.492-34.977 72.683-75.583.87-.268 2.111-.735 2.787-.942 1.859-.569 3.032-1.571 4.187-4.88 1.979-5.673 7.232-22.917 7.232-22.917l-17.684 5.811c-.354-1.092-.733-2.174-1.136-3.244l20.088-6.601 7.463-23.725z"/></svg>