<svg xmlns="http://www.w3.org/2000/svg" width="200" height="140"><path fill="#f9be00" d="M69.521 84.431v-2.023-11.415h2.967v11.414 2.023 5.575l16.454-2.111V69.326h5.529.539V53.199l-6.204-1.27V39.681l-11.733 9.867L3.167 34.396l17.937 32.899h33.983v2.967H22.721l13.314 24.422 28.88-3.707c2.648-.967 4.606-3.571 4.606-6.546zm127.312-10.385l-29.45-6.029C166.331 32.8 137.355 4.473 101.888 4.473c-25.063 0-46.88 14.146-57.897 34.872l16.725 3.536c8.829-13.348 23.972-22.172 41.138-22.172 25.367 0 46.316 19.26 48.999 43.924L140.19 62.45c-2.483 11.186-9.54 17.462-15.383 20.841l25.311-3.248c-4.651 22.38-24.522 39.25-48.264 39.25-17.983 0-33.747-9.684-42.355-24.108l-17.186 2.084c10.365 22.558 33.17 38.259 59.576 38.259 33.465 0 61.146-25.216 65.052-57.644l29.892-3.838zm-71.256-14.589l-27.6-5.65v15.519h5.934c7.49 0 16.516-2.68 21.666-9.869zM94.471 72.293h-2.563v15.22l20.514-2.632c2.269-.479 6.407-1.604 10.684-4.033 7.58-4.307 12.331-10.693 14.171-18.995l-8.555-1.751c-5.638 8.906-16.161 12.191-24.811 12.191h-5.934-3.506z"/></svg>