<svg xmlns="http://www.w3.org/2000/svg" width="200" height="200"><path fill="#008001" d="M177.572 66.485l-31.934 36.821-91.696.536-31.379-37.608c-6.773 12.48-10.71 26.917-10.71 42.114 0 48.683 39.465 88.147 88.147 88.147s88.147-39.465 88.147-88.147c0-15.092-3.889-29.444-10.575-41.863z"/><path fill="#3f47cd" d="M177.654 66.638l-2.004-3.548S148.786 20.094 100 20.094c-48.037 0-75.602 42.914-75.602 42.914-.666 1.107-1.297 2.235-1.916 3.373l32.751 39.232c-1.024 7.513 1.261 16.262 3.789 21.871-4.195 7.091-6.611 15.357-6.611 24.192 0 18.114 10.12 33.864 25.016 41.904 0 0 6.746 1.84 11.286 2.317 8.007.843 11.287.599 11.287.599-24.754 0-44.822-20.067-44.822-44.82 0-7.601 1.898-14.896 5.236-21.364l.087.168c6.699-12.458 20.395-23.596 39.498-23.596 18.729 0 32.684 11.051 39.405 23.415 3.394-6.313 6.104-15.207 5.12-25.397l33.13-38.264z"/><path fill="#ed1b24" d="M88.764 64.151l-3.837-42.66C59.23 25.919 37.344 41.469 24.398 63.007l31.403 37.352s3.497-26.469 32.963-36.208z"/><path fill="#008001" d="M87.475 49.822s-17.346 3.186-30.363 17.232L48.124 55.63s13.015-14.565 38.063-20.112l1.288 14.304z"/><path fill="#ed1b24" d="M111.237 64.151l3.836-42.66c25.696 4.428 47.583 19.978 60.528 41.516l-31.403 37.352s-3.497-26.469-32.961-36.208z"/><path fill="#008001" d="M112.525 49.822s17.346 3.186 30.361 17.232l8.99-11.424s-13.017-14.565-38.065-20.112l-1.286 14.304z"/><path fill="#ed1b24" d="M100 3.472l-11.236 17.44 6.241 80.446h9.989l6.243-80.446z"/></svg>