<?xml version="1.0" encoding="UTF-8" standalone="no"?>
<!-- Created with Inkscape (http://www.inkscape.org/) -->
<svg id="svg4798" xmlns:rdf="http://www.w3.org/1999/02/22-rdf-syntax-ns#" xmlns="http://www.w3.org/2000/svg" height="200" width="350" version="1.1" xmlns:cc="http://creativecommons.org/ns#" xmlns:dc="http://purl.org/dc/elements/1.1/" viewBox="0 0 350 200">
 <metadata id="metadata4803">
  <rdf:RDF>
   <cc:Work rdf:about="">
    <dc:format>image/svg+xml</dc:format>
    <dc:type rdf:resource="http://purl.org/dc/dcmitype/StillImage"/>
    <dc:title/>
   </cc:Work>
  </rdf:RDF>
 </metadata>
 <g id="layer7" fill-rule="evenodd" transform="translate(0 -852.36)" fill="#02a063">
  <path id="path5368" d="m175 0a100 100 0 0 0 -82.559 43.75h33.092a75 75 0 0 1 49.47 -18.75 75 75 0 0 1 75 75 75 75 0 0 1 -75 75 75 75 0 0 1 -41.369 -12.5h-36.576a100 100 0 0 0 77.946 37.5 100 100 0 0 0 100 -100 100 100 0 0 0 -100 -100z" transform="translate(0 852.36)"/>
  <path id="path5422" d="m187.5 62.5v75h133.33l25-75h-158.33zm25 25h98.648l-8.334 25h-90.314v-25z" transform="translate(0 852.36)"/>
  <path id="path5426" d="m112.5 908.61v93.75h25v-12.5h37.5v-25h-37.5v-25h37.5v-25h-37.5v-6.25z"/>
  <path id="path5428" d="m100 908.61h-25v6.25h-70.833l8.3333 25h62.5v25h-54.167l8.3333 25h45.833v12.5h25z"/>
 </g>
</svg>
