<svg xmlns="http://www.w3.org/2000/svg" width="200" height="200" viewBox="350 200 200 200"><path fill="#f29837" d="M543.504 217.537l1.687-6.444-93.438 21.391-96.942-22.194 1.684 6.443 33.467 7.662 1.685 6.443-33.466-7.662 1.685 6.444 33.466 7.662 1.685 6.444-33.466-7.662 1.686 6.443 62.41 14.288 1.685 6.444-62.411-14.288 1.686 6.444 33.467 7.662 1.686 6.444-33.468-7.663 1.685 6.444 33.467 7.662 1.686 6.443-33.467-7.662 1.684 6.443s-4.034 17.186-4.034 25.935c0 41.797 33.871 82.604 82.604 82.604 43.729 0 82.604-37 82.604-82.604 0-10.684-6.218-31.443-6.218-31.443l-.692.034-31.524 6.104 1.372-5.259 32.563-7.455 1.686-6.444-32.563 7.455 1.686-6.444 32.562-7.455 1.686-6.443-61.235 13.046 1.748-6.687 61.173-12.804 1.685-6.444-32.562 7.455 1.685-6.444 32.563-7.455 1.686-6.443-32.562 7.455 1.685-6.444 32.559-7.451zm-58.786 83.615c0-3.436-1.622-10.181-1.622-10.181l15.733-3.602s1.983 9.142 1.983 13.783c0 25.857-21.249 48.896-48.895 48.896-29.239 0-48.896-23.359-48.896-48.896 0-4.296 1.707-12.797 1.707-12.797l15.707 3.596s-1.318 6.103-1.318 9.201c0 15.258 12.896 31.432 28.548 32.521v-35.489l8.504-.076v35.564c16.545-1.926 28.549-16.284 28.549-32.52z"/></svg>