<?xml version="1.0" encoding="UTF-8" standalone="no"?>
<!-- Created with Inkscape (http://www.inkscape.org/) -->

<svg
   xmlns:dc="http://purl.org/dc/elements/1.1/"
   xmlns:cc="http://creativecommons.org/ns#"
   xmlns:rdf="http://www.w3.org/1999/02/22-rdf-syntax-ns#"
   xmlns:svg="http://www.w3.org/2000/svg"
   xmlns="http://www.w3.org/2000/svg"
   xmlns:sodipodi="http://sodipodi.sourceforge.net/DTD/sodipodi-0.dtd"
   xmlns:inkscape="http://www.inkscape.org/namespaces/inkscape"
   version="1.1"
   width="200"
   height="169.60558"
   id="svg4599"
   inkscape:version="0.48.4 r"
   sodipodi:docname="Symbol_of_Chatan_Okinawa_chapter.svg">
  <sodipodi:namedview
     pagecolor="#ffffff"
     bordercolor="#666666"
     borderopacity="1"
     objecttolerance="10"
     gridtolerance="10"
     guidetolerance="10"
     inkscape:pageopacity="0"
     inkscape:pageshadow="2"
     inkscape:window-width="1280"
     inkscape:window-height="961"
     id="namedview9"
     showgrid="false"
     fit-margin-top="0"
     fit-margin-left="0"
     fit-margin-right="0"
     fit-margin-bottom="0"
     inkscape:zoom="3.6749999"
     inkscape:cx="100"
     inkscape:cy="81.471759"
     inkscape:window-x="-8"
     inkscape:window-y="-8"
     inkscape:window-maximized="1"
     inkscape:current-layer="svg4599" />
  <defs
     id="defs4601" />
  <metadata
     id="metadata4604">
    <rdf:RDF>
      <cc:Work
         rdf:about="">
        <dc:format>image/svg+xml</dc:format>
        <dc:type
           rdf:resource="http://purl.org/dc/dcmitype/StillImage" />
        <dc:title />
      </cc:Work>
    </rdf:RDF>
  </metadata>
  <g
     id="g3781"
     transform="scale(1.0606563,1.0606563)">
    <path
       inkscape:connector-curvature="0"
       id="path2989-4"
       d="m 94.28125,64.228125 c -25.128823,0 -45.5,20.371176 -45.5,45.500005 0,25.12881 20.371177,45.49999 45.5,45.49999 25.12882,0 45.5,-20.37118 45.5,-45.49999 0,-25.128829 -20.37118,-45.500005 -45.5,-45.500005 z m 0,25.21875 c 11.21049,0 20.3125,9.07076 20.3125,20.281255 0,11.21049 -9.10201,20.31249 -20.3125,20.31249 C 83.070756,130.04062 74,120.93862 74,109.72813 74,98.517635 83.070756,89.446875 94.28125,89.446875 z"
       style="fill:#ed1b24;fill-opacity:1;stroke:none" />
    <g
       transform="translate(-1.21875,-2.6875)"
       id="g5244">
      <g
         id="g3778">
        <path
           inkscape:connector-curvature="0"
           style="fill:#ed1b24;fill-opacity:1;fill-rule:evenodd;stroke:none"
           id="path4663"
           d="M 94,2.6875 77.90625,27.5625 1.21875,8.1875 14.1875,51.78125 43.65625,59.21875 C 35.403413,70.04131 30.5,83.557952 30.5,98.21875 c 0,35.55333 28.821669,64.375 64.375,64.375 35.55333,0 64.375,-28.82167 64.375,-64.375 0,-14.531848 -4.81582,-27.944533 -12.9375,-38.71875 l 30.5,-7.71875 L 189.78125,8.1875 113.09375,27.5625 97,2.6875 l 0,55.5 c 27.43189,0.777911 49.4375,23.255206 49.4375,50.875 0,28.11129 -22.79496,50.875 -50.90625,50.875 -28.111294,0 -50.90625,-22.76371 -50.90625,-50.875 0,-27.59889 21.972088,-50.06485 49.375,-50.875 z" />
      </g>
    </g>
  </g>
</svg>
