<svg xmlns="http://www.w3.org/2000/svg" width="300" height="300" viewBox="-65 -65 130 130">
<path d="M55.28002-34.192388A65 65 0 1 1 40.054206-51.192388H33.171364A61 61 0 1 0 50.516142-34.192388zM-4.192388-49.192388H65a34.563214 34.563214 0 0 1-1.73845 3H34.263456v2H61.861627a34.563214 34.563214 0 0 1-2.541967 3H34.263456v2H57.254387a34.563214 34.563214 0 0 1-3.892836 3H8.807612v9H34.263456V-1.736544h22V17.760167A59 59 0 0 1 43.263456 40.11575V11.253456h-27v-13h5V-14.192388H-9.192388v-13h5z" fill="#fe7904"/>
<g stroke="#fe7904" stroke-width="13" fill="none" transform="rotate(45)">
<circle cx="-13" r="11.5"/>
<circle cx="23" r="11.5"/>
</g>
</svg>