<svg xmlns="http://www.w3.org/2000/svg" width="200" height="200"><path fill="#111173" d="M197.1 7.42h-79.3c-20 0-35 13.86-39 26.746L66.25 22.8c-8.56-7.76-19.51-15.17-31.16-15.17-16.86 0-29.4 12.7-32.2 28.45 0 0 3.76-2.65 8.4-2.65 4.6 0 9 2.82 12.4 6l35 31.73c-17.32 7.4-36 30-36 57.1 0 33 25.5 64.4 64.4 64.4 35.12 0 63.16-28.2 64.4-64.4.4-10.8-2-19-4.5-23.6h16l14.3-41h-66l-16-14.44h87l14.68-41.87h0zm-86.3 120.74c0 12.7-11.16 23.6-23.6 23.6-14 0-23.6-12.5-23.6-23.6 0-11.3 10-23.6 23.6-23.6 11 0 23.6 10.6 23.6 23.6z"/></svg>