<?xml version="1.0" encoding="utf-8"?>
<!-- Generator: Adobe Illustrator 15.0.0, SVG Export Plug-In . SVG Version: 6.00 Build 0)  -->
<!DOCTYPE svg PUBLIC "-//W3C//DTD SVG 1.1//EN" "http://www.w3.org/Graphics/SVG/1.1/DTD/svg11.dtd">
<svg version="1.1" id="Laag_1" xmlns="http://www.w3.org/2000/svg" xmlns:xlink="http://www.w3.org/1999/xlink" x="0px" y="0px"
	 width="250px" height="250px" viewBox="0 0 250 250" enable-background="new 0 0 250 250" xml:space="preserve">
<path fill="#149966" d="M225.159,102.391c3.373,15.387,3.558,28.865,3.558,40.239c0,55.677-43.729,101.138-98.714,103.916v-48.591
	c28.685-2.689,48.229-27.756,51.58-51.768c1.212-8.688,2.444-19.564-6.655-21.438c-9.867-2.032-46.703,19.438-48.26,30.776
	c0,0-11.783-21.344-50.469-20.453c0,0-0.667-20.01,18.009-32.684L245.613,9.456v17.342c0,0-34.461,20.454-40.909,24.233
	c-1.363,0.799-3.312,2.894-2.029,4.929c1.814,2.884,5.364,0.556,5.364,0.556l34.906-18.676v16.896c0,0-18.562,9.804-24.456,13.563
	c-0.839,0.534-2.445,2.075-1.778,3.854c0.666,1.779,2.113,2.744,4.559,1.188l18.564-9.448v17.563l-12.673,7.225
	C227.161,88.68,221.156,92.163,225.159,102.391z"/>
<path fill="#149966" d="M104.032,88.27c-20.982,8.24-35.837,28.678-35.837,52.584c0,28.623,21.301,53.146,48.912,56.842v48.711
	c-53.937-3.872-96.491-48.854-96.491-103.775c0-12.689,0.778-25.232,5.745-43.361c0.89-3.242,4.261-9.552-1.741-13.332L9.945,75.266
	V60.593l22.964,12.781c0,0,1.938,1.003,2.825-1.442c1.07-2.941-2.059-4.471-2.059-4.471L7.5,50.365V33.691l37.352,23.344
	c0,0,3.299,2.384,4.108-1.264c0.562-2.517-1.558-4.064-1.558-4.064L4.387,22.352V3.454L109.104,73.71c0,0,4.668,2.668,4.445,6.002
	c-0.222,3.335-4.445,5.558-4.445,5.558L104.032,88.27z"/>
</svg>
