<?xml version="1.0" encoding="UTF-8" standalone="no"?>
<!-- Created with Inkscape (http://www.inkscape.org/) -->

<svg
   xmlns:dc="http://purl.org/dc/elements/1.1/"
   xmlns:cc="http://creativecommons.org/ns#"
   xmlns:rdf="http://www.w3.org/1999/02/22-rdf-syntax-ns#"
   xmlns:svg="http://www.w3.org/2000/svg"
   xmlns="http://www.w3.org/2000/svg"
   xmlns:sodipodi="http://sodipodi.sourceforge.net/DTD/sodipodi-0.dtd"
   xmlns:inkscape="http://www.inkscape.org/namespaces/inkscape"
   version="1.1"
   id="svg2"
   width="98"
   height="84"
   viewBox="0 0 98 84"
   sodipodi:docname="Emblem_of_Zamami,_Okinawa.svg"
   inkscape:version="0.92.3 (2405546, 2018-03-11)">
  <metadata
     id="metadata8">
    <rdf:RDF>
      <cc:Work
         rdf:about="">
        <dc:format>image/svg+xml</dc:format>
        <dc:type
           rdf:resource="http://purl.org/dc/dcmitype/StillImage" />
        <dc:title></dc:title>
      </cc:Work>
    </rdf:RDF>
  </metadata>
  <defs
     id="defs6" />
  <sodipodi:namedview
     pagecolor="#ffffff"
     bordercolor="#666666"
     borderopacity="1"
     objecttolerance="10"
     gridtolerance="10"
     guidetolerance="10"
     inkscape:pageopacity="0"
     inkscape:pageshadow="2"
     inkscape:window-width="1920"
     inkscape:window-height="1017"
     id="namedview4"
     showgrid="false"
     inkscape:zoom="3.9732667"
     inkscape:cx="4.6864407"
     inkscape:cy="42"
     inkscape:window-x="-8"
     inkscape:window-y="-8"
     inkscape:window-maximized="1"
     inkscape:current-layer="svg2" />
  <g
     id="layer1"
     transform="matrix(0.67218819,0,0,0.66051547,-31.661607,-9.7992096)">
    <g
       transform="translate(-14.340852,6.8e-5)"
       id="g1687">
      <path
         id="path1678"
         d="M 91.443174,43.824302 C 84.640151,51.816534 80.816371,60.855206 79.106526,70.636383 l -11.849002,5.29e-4 v 17.197914 l 11.80497,5.29e-4 c 1.889881,21.559175 24.035686,44.245915 47.726166,46.135795 l 1.3e-4,-16.42256 C 112.40443,115.38546 98.663992,103.27621 95.595759,87.83489 h 75.615181 c -2.28885,13.12062 -15.93646,27.42352 -31.19294,29.71369 l 1.3e-4,16.42256 c 23.36249,-2.51689 44.97352,-22.59504 47.72608,-46.135785 l 11.80497,-5.29e-4 V 70.636912 l -11.849,-5.29e-4 C 185.69214,59.729327 181.50281,50.864168 175.36356,43.824337 l -11.54847,11.548329 c 4.07082,5.193719 6.10821,10.255219 7.33247,15.263847 H 95.659148 c 1.431997,-5.464567 3.561336,-10.669667 7.332492,-15.263884 z"
         style="fill:#ffe92c;fill-opacity:1;stroke:none;stroke-width:0.26458299px;stroke-linecap:butt;stroke-linejoin:miter;stroke-opacity:1"
         inkscape:connector-curvature="0" />
      <path
         id="path1680"
         d="M 98.003512,37.287472 C 106.56462,30.727728 115.8214,25.776183 126.78866,24.778714 l 1.3e-4,16.422557 c -6.37389,0.884772 -11.95127,3.871137 -17.23215,7.639806 z"
         style="fill:#ffe92c;fill-opacity:1;stroke:none;stroke-width:0.26458299px;stroke-linecap:butt;stroke-linejoin:miter;stroke-opacity:1"
         inkscape:connector-curvature="0" />
      <path
         id="path1682"
         d="M 168.80328,37.287482 C 160.24217,30.727738 150.98539,25.776193 140.01813,24.778724 l -1.3e-4,16.422557 c 6.37389,0.884772 11.95127,3.871137 17.23215,7.639806 z"
         style="fill:#ffe92c;fill-opacity:1;stroke:none;stroke-width:0.26458299px;stroke-linecap:butt;stroke-linejoin:miter;stroke-opacity:1"
         inkscape:connector-curvature="0" />
    </g>
  </g>
</svg>
