<?xml version="1.0" encoding="UTF-8" standalone="no"?>
<!-- Created with Inkscape (http://www.inkscape.org/) -->
<svg id="svg18588" xmlns:rdf="http://www.w3.org/1999/02/22-rdf-syntax-ns#" xmlns="http://www.w3.org/2000/svg" height="200" width="200" version="1.1" xmlns:cc="http://creativecommons.org/ns#" xmlns:dc="http://purl.org/dc/elements/1.1/" viewBox="0 0 200 200">
 <metadata id="metadata18593">
  <rdf:RDF>
   <cc:Work rdf:about="">
    <dc:format>image/svg+xml</dc:format>
    <dc:type rdf:resource="http://purl.org/dc/dcmitype/StillImage"/>
    <dc:title/>
   </cc:Work>
  </rdf:RDF>
 </metadata>
 <g id="layer7" fill-rule="evenodd" transform="translate(0 -852.36)">
  <path id="path19152" d="m100 852.36a100 100 0 0 0 -100 100 100 100 0 0 0 11.309 46.109 67.5 67.5 0 0 1 -3.5566 -21.359 67.5 67.5 0 0 1 67.5 -67.5 67.5 67.5 0 0 1 67.5 67.5 67.5 67.5 0 0 1 -67.5 67.5 67.5 67.5 0 0 1 -20.738 -3.3027 100 100 0 0 0 45.486 11.053 100 100 0 0 0 100 -100 100 100 0 0 0 -100 -100z" fill="#00a3e8"/>
  <path id="path19164" d="m75.252 912.11a65 65 0 0 0 -65 65 65 65 0 0 0 5.4219 25.801 46.25 46.25 0 0 1 -1.3945 -11.078 46.25 46.25 0 0 1 46.25 -46.25 46.25 46.25 0 0 1 46.25 46.25 46.25 46.25 0 0 1 -46.25 46.25 46.25 46.25 0 0 1 -11.365 -1.4785 65 65 0 0 0 26.088 5.5058 65 65 0 0 0 65 -65 65 65 0 0 0 -65 -65z" fill="#23b14d"/>
  <path id="path19178" d="m90 1012.4-35 35h-50l35-35z" fill="#00a3e8"/>
 </g>
</svg>
