<svg xmlns="http://www.w3.org/2000/svg" width="200" height="180" fill="#e41032"><circle cx="100" cy="163.827" r="10.148"/><circle cx="100" cy="163.827" r="10.148"/><circle cx="100" cy="131.185" r="10.148"/><path d="M89.749 26.225v87.589h18.948V26.359c18.371 2.851 34.164 13.482 43.922 28.417l18.215-9.799C155.959 21.563 129.796 6.024 100 6.024c-29.975 0-56.271 15.728-71.099 39.379l16.336 8.865c9.948-14.914 25.956-25.441 44.512-28.043zM34.925 97.661h22.519v14.756h18.793V78.091H35.541a63.92 63.92 0 0 1 3.566-12.239L22.829 57.02c-2.828 6.63-4.83 13.696-5.87 21.072H2.461v19.57H16.49c3.288 35.807 29.079 65.095 63.106 73.602l4.232-18.809c-25.862-6.15-45.669-27.922-48.903-54.794zm148.116-19.57a83.31 83.31 0 0 0-6.171-21.783l-18.328 9.881c1.508 3.803 2.667 7.783 3.432 11.901h-38.986v34.326h19.259V97.661h20.344c-3.197 26.571-22.6 48.15-48.036 54.577l5.119 19.207c34.389-8.267 60.526-37.721 63.838-73.784h14.029v-19.57h-14.5z"/></svg>