<?xml version="1.0" encoding="UTF-8"?>
<svg width="705" height="529.9" version="1.1" viewBox="0 0 705 529.9" xml:space="preserve" xmlns="http://www.w3.org/2000/svg">
<style type="text/css">
	.st0{fill:#8B3C8B;}
	.st1{fill:#53C16B;}
	.st2{fill:#FA922A;}
	.st3{fill:#0282C3;}
</style>

<path class="st1" d="m241.8 171.6c0-57.5 42.1-104.9 96.7-112.5v-23.5c0-3.7-.5-12-5.9-20-9.8-14.6-27.1-15.6-29.2-15.6h-123.9c-.2 11.2-.8 27.6-2.5 47.3-5 59-11.6 136.6-56.3 213.4-36.3 62.5-75.1 85.2-83.7 90-14.5 8.2-27.7 13-37 15.9v7h301.5c2.1.1 15.6.8 26.4-9.8 10.5-10.3 10.6-23.3 10.6-25.6v-54.1c-54.6-7.6-96.7-55.1-96.7-112.5z"/>
<circle class="st2" cx="352.5" cy="172.4" r="82.5"/>
<path class="st3" d="m658.4 401.9h-234.9-14.5-.6c-8.2-1.2-14.6-4.3-22.3-9.1-7.7-4.9-19.2-13-32-25.8v.1c-12.8 12.8-24.3 21-32 25.8-7.5 4.7-13.9 7.8-21.8 9h-1.4-14.8-235.1-.8c72.1 78.1 182 128 305.2 128h.4.3.8c122.2-.4 231.2-49.9 303-127.3.4-.2.9-.5 1.3-.7h-.8z"/>
<path class="st1" d="m463.3 171.6c0-57.5-42.1-104.9-96.7-112.5v-23.5c0-3.7.5-12 5.9-20 9.8-14.6 27.1-15.6 29.2-15.6h123.8c.2 11.2.8 27.6 2.5 47.3 5 59 11.6 136.6 56.3 213.4 36.3 62.5 75.1 85.2 83.7 90 14.5 8.2 27.7 13 37 15.9v7h-301.5c-2.1.1-15.6.8-26.4-9.8-10.5-10.3-10.6-23.3-10.6-25.6v-54.1c54.7-7.6 96.8-55.1 96.8-112.5z"/>
</svg>
