<svg xmlns="http://www.w3.org/2000/svg" width="200" height="200"><ellipse cx="101" cy="100" rx="97.6" ry="88.5" fill="#51ff00"/><path d="M113.3 100c12-8.6 22.6-27.3 36.5-53.1 3.8-7 7-12.8 10-17.4-2.1-1.4-4.2-2.8-6.4-4A350.62 350.62 0 0 0 140.5 47c-7 12.5-21.2 43.7-36.5 53.1 15.3 9.4 29.5 40.6 36.5 53.1 5.1 9.2 9.4 16.2 12.8 21.5 2.2-1.3 4.3-2.6 6.4-4-2.9-4.7-6.1-10.4-9.9-17.4-13.8-26-24.4-44.7-36.5-53.3zm37 0c13.2 8.1 25.6 32.4 33.2 47 9.4-13.6 15-29.7 15-47s-5.5-33.4-14.9-47c-7.6 14.6-20 39-33.2 47zm-83.2 0c12.1-8.6 22.6-27.3 36.5-53.1 10-18.6 16.6-28 20.7-32.8-2.5-.6-5-1-7.5-1.4-3.9 4.2-10.8 13.5-22.3 34.2-7 12.5-21.2 43.7-36.5 53.1 15.3 9.4 29.5 40.6 36.5 53.1 11.5 20.7 18.4 30 22.3 34.2 2.5-.4 5.1-.8 7.5-1.4-4.2-4.8-10.7-14.2-20.7-32.8-13.8-25.8-24.4-44.5-36.5-53.1zM21 100c15.3-9.4 29.5-40.6 36.5-53.1 10.6-19.1 17.3-28.5 21.4-33.1C35.6 22.8 3.3 58 3.3 100s32.3 77.2 75.5 86.2c-4.1-4.7-10.7-14.1-21.4-33.1-7-12.5-21.1-43.7-36.4-53.1z" fill="#1d2aaa"/></svg>